<?xml version="1.0" standalone="no"?>
<!DOCTYPE svg PUBLIC "-//W3C//DTD SVG 1.1//EN" "http://www.w3.org/Graphics/SVG/1.1/DTD/svg11.dtd" >
<svg xmlns="http://www.w3.org/2000/svg" xmlns:xlink="http://www.w3.org/1999/xlink" version="1.1">
<metadata>
Created by FontForge 20170731 at Thu Sep 10 22:55:35 2020
 By Aleksey,,,
Copyright 2015 Google Inc. All Rights Reserved.
Copyright Province of B.C. 2019. All Rights Reserved.
</metadata>
<defs>
<font id="BCSans-BoldItalic" horiz-adv-x="0" >
  <font-face 
    font-family="BC Sans"
    font-weight="700"
    font-style="italic"
    font-stretch="normal"
    units-per-em="2048"
    panose-1="0 0 0 0 0 0 0 0 0 0"
    ascent="1638"
    descent="-410"
    x-height="1118"
    cap-height="1462"
    bbox="-1221 -797 5693 2185"
    underline-thickness="102"
    underline-position="-358"
    slope="-12"
    unicode-range="U+000D-FFFD"
  />
<missing-glyph horiz-adv-x="1228" 
d="M1034 0h-841v1462h841v-1462zM297 1358v-1254h633v1254h-633z" />
    <glyph glyph-name=".notdef" horiz-adv-x="1228" 
d="M1034 0h-841v1462h841v-1462zM297 1358v-1254h633v1254h-633z" />
    <glyph glyph-name="uni0000" 
 />
    <glyph glyph-name="uni0000" 
 />
    <glyph glyph-name="uni000D" unicode="&#xd;" horiz-adv-x="532" 
 />
    <glyph glyph-name="space" unicode=" " horiz-adv-x="532" 
 />
    <glyph glyph-name="exclam" unicode="!" horiz-adv-x="585" 
d="M399 485h-258l166 977h340zM180 -27q-80 0 -117.5 40.5t-37.5 101.5q0 72 47 137q46 61 157 61q68 0 109 -38.5t41 -106.5q0 -86 -54.5 -140.5t-144.5 -54.5z" />
    <glyph glyph-name="quotedbl" unicode="&#x22;" horiz-adv-x="927" 
d="M604 934l74 528h276l-151 -528h-199zM397 934h-196l71 528h277z" />
    <glyph glyph-name="numbersign" unicode="#" horiz-adv-x="1323" 
d="M279 408h-238l18 206h277l70 232h-252l18 209h289l119 407h217l-117 -407h199l116 407h215l-116 -407h239l-18 -209h-279l-69 -232h258l-19 -206h-297l-116 -408h-220l117 408h-194l-115 -408h-215zM623 846l-70 -232h197l69 232h-196z" />
    <glyph glyph-name="dollar" unicode="$" horiz-adv-x="1128" 
d="M502 -119h-140l44 201q-213 12 -355 86v266q191 -109 404 -117l71 322q-70 26 -124.5 58t-100 75.5t-70 102t-24.5 129.5q0 179 131 284t346 117l35 151h139l-33 -151q164 -20 295 -90l-106 -232q-145 67 -242 74l-63 -299q76 -29 129.5 -58t101 -71.5t71 -100.5
t23.5 -132q0 -169 -114 -283q-118 -115 -379 -133zM582 911l51 246q-57 -7 -94 -39.5t-37 -95.5q0 -76 80 -111zM651 584l-57 -262q65 11 103 47t38 96q0 87 -84 119z" />
    <glyph glyph-name="percent" unicode="%" horiz-adv-x="1753" 
d="M397 565q-138 0 -210 83t-72 237q0 63 9.5 128t29 133.5t53 128t78.5 106.5t109.5 74.5t140.5 27.5q138 0 212 -80.5t74 -237.5q0 -74 -13 -152t-45 -159.5t-78.5 -144.5t-121 -103.5t-166.5 -40.5zM471 0h-240l1088 1462h235zM416 772q46 0 84 68.5t56.5 160t18.5 177.5
q0 96 -57 96q-43 0 -80.5 -64.5t-57.5 -157.5t-20 -184q0 -96 56 -96zM1262 -18q-141 0 -215 78.5t-74 222.5q0 89 14 174t46.5 166t79.5 141.5t119.5 97.5t160.5 37q138 0 212 -79t74 -230q0 -78 -13 -158t-44.5 -162t-78 -145t-119.5 -103t-162 -40zM1274 188q46 0 84 68
t57 160t19 178q0 96 -58 96q-43 0 -80 -64t-57 -157t-20 -184q0 -97 55 -97z" />
    <glyph glyph-name="ampersand" unicode="&#x26;" horiz-adv-x="1449" 
d="M500 -20q-208 0 -320 97.5t-112 280.5q0 150 83.5 253t268.5 196q-76 125 -76 258q0 202 121 311t313 109q181 0 272 -87.5t91 -219.5q0 -147 -93.5 -250.5t-271.5 -175.5l195 -263q52 66 86.5 133t72.5 162h300q-130 -308 -310 -497l205 -287h-350l-72 98
q-174 -118 -403 -118zM662 920q94 48 146 99.5t52 123.5q0 53 -29 80.5t-71 27.5q-66 0 -102.5 -47.5t-36.5 -118.5q0 -44 12 -91.5t29 -73.5zM545 236q116 0 221 59l-225 328q-78 -45 -118 -99t-40 -137q0 -63 43.5 -107t118.5 -44z" />
    <glyph glyph-name="quotesingle" unicode="'" horiz-adv-x="522" 
d="M397 934h-196l71 528h277z" />
    <glyph glyph-name="parenleft" unicode="(" horiz-adv-x="694" 
d="M457 -324h-234q-149 259 -149 605q0 347 126 634t378 547h262q-500 -548 -500 -1192q0 -309 117 -594z" />
    <glyph glyph-name="parenright" unicode=")" horiz-adv-x="694" 
d="M115 -324h-262q499 547 499 1192q0 312 -116 594h233q149 -259 149 -604q0 -347 -125.5 -634.5t-377.5 -547.5z" />
    <glyph glyph-name="asterisk" unicode="*" horiz-adv-x="1116" 
d="M963 651l-246 -73l-90 337l-197 -278l-207 164l275 248l-326 92l86 237l338 -174l33 369l256 -51l-113 -353l387 29l-18 -254l-338 43z" />
    <glyph glyph-name="plus" unicode="+" horiz-adv-x="1171" 
d="M109 612v219h387v390h219v-390h387v-219h-387v-385h-219v385h-387z" />
    <glyph glyph-name="comma" unicode="," horiz-adv-x="583" 
d="M123 -264h-225q45 102 104 258q20 52 50 134t40 110h285l8 -23q-110 -241 -262 -479z" />
    <glyph glyph-name="hyphen" unicode="-" horiz-adv-x="659" 
d="M565 424h-524l53 250h524z" />
    <glyph glyph-name="period" unicode="." horiz-adv-x="583" 
d="M180 -27q-80 0 -117.5 40.5t-37.5 101.5q0 72 47 137q46 61 157 61q68 0 109 -38.5t41 -106.5q0 -86 -54.5 -140.5t-144.5 -54.5z" />
    <glyph glyph-name="slash" unicode="/" horiz-adv-x="862" 
d="M205 0h-295l809 1462h295z" />
    <glyph glyph-name="zero" unicode="0" horiz-adv-x="1128" 
d="M469 -20q-204 0 -303.5 124.5t-99.5 362.5q0 162 26 311.5t80 278t129.5 224t181 150t228.5 54.5q192 0 295.5 -116t103.5 -357q0 -160 -22.5 -306.5t-72.5 -280t-123.5 -231.5t-182 -156t-240.5 -58zM494 229q70 0 131 78t99.5 197.5t60.5 256.5t22 261q0 213 -123 213
q-59 0 -111.5 -56t-88.5 -143.5t-63 -193t-39.5 -204.5t-12.5 -177q0 -117 29 -174.5t96 -57.5z" />
    <glyph glyph-name="one" unicode="1" horiz-adv-x="1128" 
d="M688 0h-305l180 829q2 12 33 138q20 78 43 149q-7 -5 -32.5 -24.5t-51.5 -38.5t-45 -31l-195 -123l-133 215l566 348h249z" />
    <glyph glyph-name="two" unicode="2" horiz-adv-x="1128" 
d="M913 0h-962l43 213l477 424q177 155 247 251.5t70 182.5q0 74 -40.5 114t-110.5 40q-71 0 -140 -35.5t-167 -116.5l-146 203q115 99 235 153t267 54q104 0 185 -30t129.5 -81t73 -113.5t24.5 -132.5q0 -65 -13.5 -123.5t-44.5 -114t-63.5 -100.5t-89 -100t-101.5 -95
t-118 -101l-269 -222v-10h568z" />
    <glyph glyph-name="three" unicode="3" horiz-adv-x="1128" 
d="M401 -20q-235 0 -387 79v267q173 -101 373 -101q151 0 239.5 61t88.5 179q0 73 -53 123q-55 49 -205 49h-138l46 221h73q68 0 129 12.5t114 38.5t84.5 73.5t31.5 109.5q0 64 -41 102.5t-123 38.5q-142 0 -287 -100l-127 204q112 72 221 109t258 37q205 0 306 -94
q100 -93 100 -240q0 -154 -93 -258.5t-263 -134.5v-8q107 -20 188 -95q78 -75 78 -213q0 -72 -22 -137.5t-70.5 -125t-118.5 -103t-173.5 -69t-228.5 -25.5z" />
    <glyph glyph-name="four" unicode="4" horiz-adv-x="1128" 
d="M-25 303l48 234l770 925h311l-195 -919h170l-51 -240h-170l-63 -303h-293l63 303h-590zM305 543h311l58 248q14 73 41 171t41 134h-11q-62 -103 -127 -181z" />
    <glyph glyph-name="five" unicode="5" horiz-adv-x="1128" 
d="M408 -20q-115 0 -215.5 22t-165.5 59v269q176 -99 352 -99q88 0 154.5 23.5t102.5 63t53.5 84t17.5 94.5q0 188 -224 188q-97 0 -213 -33l-104 78l207 733h755l-55 -262h-489l-88 -293q83 15 127 15q175 0 285 -99.5t110 -290.5q0 -116 -36.5 -214.5t-109.5 -175
t-191.5 -119.5t-272.5 -43z" />
    <glyph glyph-name="six" unicode="6" horiz-adv-x="1128" 
d="M516 -20q-212 0 -320 126t-108 363q0 240 87.5 470t236.5 366q101 92 226.5 136t291.5 44q125 0 223 -27l-51 -246q-87 25 -191 25q-199 0 -319.5 -112.5t-183.5 -340.5h8q118 166 311 166q152 0 240 -95.5t88 -274.5q0 -74 -15.5 -150.5t-54.5 -159t-98 -145.5
t-155 -104t-216 -41zM530 227q72 0 124.5 49.5t76 122.5t23.5 158q0 71 -35 113.5t-101 42.5q-82 0 -148 -62.5t-79 -136.5q-8 -41 -8 -92q0 -87 38.5 -141t108.5 -54z" />
    <glyph glyph-name="seven" unicode="7" horiz-adv-x="1128" 
d="M424 0h-346l737 1202h-629l56 260h975l-41 -194z" />
    <glyph glyph-name="eight" unicode="8" horiz-adv-x="1128" 
d="M514 -20q-232 0 -344 106q-115 109 -115 264t88 259t260 167q-165 127 -165 299q0 85 31.5 159t91 130t152.5 88.5t208 32.5q194 0 299.5 -95.5t105.5 -238.5q0 -76 -25 -140.5t-70 -110.5t-98.5 -78.5t-117.5 -55.5q217 -143 217 -365q0 -82 -31.5 -156t-93 -134
t-163 -95.5t-230.5 -35.5zM651 893q185 69 185 221q0 67 -39 106.5t-103 39.5q-77 0 -121.5 -47t-44.5 -119q0 -133 123 -201zM537 207q98 0 150 56t52 136t-40.5 138t-116.5 106q-117 -45 -173.5 -107.5t-56.5 -152.5q0 -80 50.5 -128t134.5 -48z" />
    <glyph glyph-name="nine" unicode="9" horiz-adv-x="1128" 
d="M326 -20q-130 0 -240 32v256q116 -41 227 -41q85 0 155 26t117 66.5t84 101t59 119.5t40 132h-8q-113 -158 -295 -158q-175 0 -258 111q-84 113 -84 278q0 71 15 144t54.5 153.5t99.5 142t160 102t226 40.5q188 0 301 -113t113 -371q0 -228 -73.5 -460.5t-205.5 -370.5
q-187 -190 -487 -190zM567 752q82 0 142 63.5t73 138.5q9 46 9 93q0 88 -36.5 139t-109.5 51q-71 0 -123 -49t-75 -117t-23 -143q0 -85 37.5 -130.5t105.5 -45.5z" />
    <glyph glyph-name="colon" unicode=":" horiz-adv-x="583" 
d="M362 799q-80 0 -117.5 40.5t-37.5 100.5q0 72 47 137q47 62 158 62q68 0 108.5 -39t40.5 -107q0 -86 -54.5 -140t-144.5 -54zM180 -27q-80 0 -117.5 40.5t-37.5 101.5q0 72 47 137q46 61 157 61q68 0 109 -38.5t41 -106.5q0 -86 -54.5 -140.5t-144.5 -54.5z" />
    <glyph glyph-name="semicolon" unicode=";" horiz-adv-x="583" 
d="M362 799q-80 0 -117.5 40.5t-37.5 100.5q0 72 47 137q47 62 158 62q68 0 108.5 -39t40.5 -107q0 -86 -54.5 -140t-144.5 -54zM123 -264h-225q45 102 104 258q20 52 50 134t40 110h285l8 -23q-110 -241 -262 -479z" />
    <glyph glyph-name="less" unicode="&#x3c;" horiz-adv-x="1171" 
d="M1102 203l-993 438v143l993 496v-240l-684 -317l684 -281v-239z" />
    <glyph glyph-name="equal" unicode="=" horiz-adv-x="1171" 
d="M109 418v219h993v-219h-993zM109 807v217h993v-217h-993z" />
    <glyph glyph-name="greater" unicode="&#x3e;" horiz-adv-x="1171" 
d="M793 723l-684 317v240l993 -496v-143l-993 -438v239z" />
    <glyph glyph-name="question" unicode="?" horiz-adv-x="940" 
d="M518 485h-258q28 144 82 234q58 95 178 176q111 75 151 118t40 105q0 119 -133 119q-45 0 -99 -15t-92.5 -31.5t-116.5 -53.5l-92 221q226 125 445 125q180 0 281.5 -88.5t101.5 -243.5q0 -60 -16 -112t-39.5 -90.5t-67 -79.5t-80.5 -69t-98 -69q-90 -57 -127.5 -107.5
t-59.5 -138.5zM313 -27q-80 0 -117.5 40.5t-37.5 101.5q0 72 47 137q46 61 157 61q68 0 109 -38.5t41 -106.5q0 -86 -54.5 -140.5t-144.5 -54.5z" />
    <glyph glyph-name="at" unicode="@" horiz-adv-x="1753" 
d="M801 -186q-171 0 -307 53t-223 146t-133 217t-46 270q0 182 51 338.5t141 270t211 194t263 120t295 39.5q317 0 499 -164q181 -163 181 -458q0 -122 -34 -235.5t-96 -202.5t-157 -143t-209 -54q-84 0 -141.5 36t-75.5 111h-10q-46 -72 -106.5 -109.5t-149.5 -37.5
q-123 0 -196 76t-73 233q0 105 37 204.5t102.5 178.5t165.5 126.5t218 47.5q182 0 327 -55l-106 -420q-3 -13 -9.5 -39.5t-9.5 -38.5t-5.5 -30t-2.5 -33q0 -68 58 -68q70 0 129 68.5t90.5 171t31.5 209.5q0 208 -120.5 323t-362.5 115q-150 0 -281 -53.5t-226.5 -150
t-150.5 -238t-55 -310.5q0 -110 29 -201t88 -163.5t159.5 -113t233.5 -40.5q221 0 441 86v-186q-228 -90 -465 -90zM807 387q141 0 213 270l57 222q-42 10 -82 10q-68 0 -124 -36.5t-89 -92.5t-51 -117.5t-18 -116.5q0 -73 26.5 -106t67.5 -33z" />
    <glyph glyph-name="A" unicode="A" horiz-adv-x="1286" 
d="M197 0h-320l766 1462h373l147 -1462h-297l-24 348h-473zM686 1004l-192 -396h333l-26 377q-12 160 -10 246h-5q-32 -88 -100 -227z" />
    <glyph glyph-name="B" unicode="B" horiz-adv-x="1269" 
d="M575 0h-522l309 1462h426q211 0 336 -76q127 -77 127 -249q0 -149 -83 -246t-236 -129v-8q102 -27 160.5 -98.5t58.5 -178.5q0 -121 -43.5 -214t-122.5 -149.5t-182 -85t-228 -28.5zM614 1208l-69 -325h149q114 0 178 46t64 142q0 137 -170 137h-152zM494 637l-82 -381
h180q115 0 182.5 57.5t67.5 161.5q0 162 -183 162h-165z" />
    <glyph glyph-name="C" unicode="C" horiz-adv-x="1253" 
d="M659 -20q-267 0 -401 155q-135 156 -135 418q0 132 28.5 261.5t91 251.5t152 214.5t221.5 148.5t289 56q136 0 233 -24.5t197 -80.5l-118 -250q-162 97 -312 97q-95 0 -174.5 -41t-133.5 -108t-91.5 -154t-54.5 -177t-17 -178q0 -167 69.5 -248t217.5 -81q153 0 338 77
v-260q-191 -77 -400 -77z" />
    <glyph glyph-name="D" unicode="D" horiz-adv-x="1386" 
d="M504 0h-451l309 1462h396q270 0 417.5 -143t147.5 -410q0 -208 -54.5 -376t-158 -286.5t-258 -182.5t-348.5 -64zM614 1208l-202 -952h106q162 0 272 86t166 238q54 148 54 313q0 158 -73.5 236.5t-207.5 78.5h-115z" />
    <glyph glyph-name="E" unicode="E" horiz-adv-x="1110" 
d="M870 0h-817l309 1462h818l-54 -254h-512l-67 -321h477l-55 -254h-477l-80 -377h512z" />
    <glyph glyph-name="F" unicode="F" horiz-adv-x="1087" 
d="M358 0h-305l309 1462h814l-54 -254h-508l-79 -377h473l-56 -253h-473z" />
    <glyph glyph-name="G" unicode="G" horiz-adv-x="1413" 
d="M664 -20q-256 0 -398.5 147t-142.5 422q0 150 34.5 288t105.5 256t171 205.5t240 137t305 49.5q219 0 410 -99l-115 -251q-157 88 -309 88q-104 0 -192.5 -38.5t-149.5 -102.5t-104.5 -148.5t-64 -176t-20.5 -184.5q0 -167 71 -250t224 -83q72 0 170 24l66 299h-267
l56 258h563l-162 -762q-111 -39 -223 -59t-268 -20z" />
    <glyph glyph-name="H" unicode="H" horiz-adv-x="1433" 
d="M358 0h-305l309 1462h306l-121 -573h471l121 573h305l-309 -1462h-306l134 631h-471z" />
    <glyph glyph-name="I" unicode="I" horiz-adv-x="784" 
d="M588 0h-647l36 176l187 82l201 946l-152 82l37 176h647l-37 -176l-190 -82l-201 -946l156 -82z" />
    <glyph glyph-name="J" unicode="J" horiz-adv-x="677" 
d="M-135 -430q-93 0 -187 27v253q94 -20 164 -20q199 0 250 252l293 1380h305l-303 -1423q-53 -249 -178 -359t-344 -110z" />
    <glyph glyph-name="K" unicode="K" horiz-adv-x="1255" 
d="M53 0l309 1462h306l-154 -706l156 209l413 497h361l-594 -700l291 -762h-338l-211 592l-125 -70l-109 -522h-305z" />
    <glyph glyph-name="L" unicode="L" horiz-adv-x="1060" 
d="M870 0h-817l309 1462h306l-256 -1206h512z" />
    <glyph glyph-name="M" unicode="M" horiz-adv-x="1802" 
d="M328 0h-275l309 1462h404l65 -1093h9l549 1093h423l-309 -1462h-280l145 692q49 229 109 441h-9l-569 -1133h-281l-61 1133h-8q-12 -124 -78 -453z" />
    <glyph glyph-name="N" unicode="N" horiz-adv-x="1546" 
d="M328 0h-275l309 1462h357l340 -1077h8q35 237 68 385l147 692h274l-309 -1462h-342l-356 1106h-10q-30 -233 -66 -418z" />
    <glyph glyph-name="O" unicode="O" horiz-adv-x="1495" 
d="M666 -20q-266 0 -404 153q-139 151 -139 404q0 140 29 274t91 257t151 215t219 147t284 55q266 0 401 -150q134 -152 134 -397q0 -182 -46 -352t-137 -305q-204 -301 -583 -301zM688 240q183 0 307.5 191.5t124.5 498.5q0 138 -63.5 217.5t-184.5 79.5q-124 0 -225 -94
t-157 -252t-56 -344q0 -144 67 -220.5t187 -76.5z" />
    <glyph glyph-name="P" unicode="P" horiz-adv-x="1249" 
d="M358 0h-305l309 1462h408q490 0 490 -426q0 -102 -31.5 -187t-89 -145.5t-137 -102t-175 -61.5t-204.5 -20h-156zM614 1208l-92 -434h125q138 0 221.5 68.5t83.5 185.5q0 180 -194 180h-144z" />
    <glyph glyph-name="Q" unicode="Q" horiz-adv-x="1495" 
d="M1229 -348h-359l-178 328h-26q-266 0 -404 153q-139 151 -139 404q0 140 29 274t91 257t151 215t219 147t284 55q266 0 401 -150q134 -152 134 -397q0 -144 -28 -278.5t-83 -253.5t-143.5 -213t-202.5 -148zM688 240q183 0 307.5 191.5t124.5 498.5q0 138 -63.5 217.5
t-184.5 79.5q-124 0 -225 -94t-157 -252t-56 -344q0 -144 67 -220.5t187 -76.5z" />
    <glyph glyph-name="R" unicode="R" horiz-adv-x="1247" 
d="M53 0l309 1462h359q475 0 475 -401q0 -165 -88.5 -277.5t-233.5 -162.5l261 -621h-332l-207 561h-119l-119 -561h-305zM530 813h78q133 0 205 58t72 173q0 164 -197 164h-74z" />
    <glyph glyph-name="S" unicode="S" horiz-adv-x="1085" 
d="M397 -20q-219 0 -356 90v274q192 -108 358 -108q105 0 171.5 40.5t66.5 118.5q0 84 -49 133q-45 42 -127 105q-53 37 -92 72.5t-78 85.5t-59.5 112.5t-20.5 134.5q0 196 138 320.5t364 124.5q215 0 397 -99l-109 -233q-157 74 -288 74q-83 0 -136 -45t-53 -119
q0 -38 10.5 -67.5t38 -57.5t54 -48t78.5 -54q123 -80 182 -177t59 -225q0 -112 -43 -199.5t-119 -142t-174 -82.5t-213 -28z" />
    <glyph glyph-name="T" unicode="T" horiz-adv-x="1087" 
d="M168 1204l55 258h1010l-55 -258h-353l-254 -1204h-305l254 1204h-352z" />
    <glyph glyph-name="U" unicode="U" horiz-adv-x="1415" 
d="M141 391q0 77 15 148l196 923h305l-194 -919q-17 -87 -17 -125q0 -178 189 -178q129 0 197.5 73.5t101.5 231.5l194 917h306l-201 -946q-114 -536 -629 -536q-223 0 -343 110.5t-120 300.5z" />
    <glyph glyph-name="V" unicode="V" horiz-adv-x="1208" 
d="M184 1462h295l51 -880q5 -198 -2 -283h9q40 133 110 283l430 880h316l-748 -1462h-334z" />
    <glyph glyph-name="W" unicode="W" horiz-adv-x="1830" 
d="M229 0l-45 1462h287l6 -798q0 -199 -14 -347h8q82 222 125 326l369 819h270l20 -819q7 -120 -8 -326h8q51 166 129 349l330 796h309l-647 -1462h-346l-16 666q-6 255 -2 352h-8q-47 -148 -113 -299l-324 -719h-338z" />
    <glyph glyph-name="X" unicode="X" horiz-adv-x="1241" 
d="M225 0h-342l576 764l-238 698h320l153 -518l363 518h344l-545 -725l268 -737h-331l-172 543z" />
    <glyph glyph-name="Y" unicode="Y" horiz-adv-x="1155" 
d="M422 559l-236 903h312l129 -592l374 592h342l-618 -903l-119 -559h-303z" />
    <glyph glyph-name="Z" unicode="Z" horiz-adv-x="1097" 
d="M920 0h-981l38 201l777 1005h-543l53 256h936l-41 -202l-782 -1004h596z" />
    <glyph glyph-name="bracketleft" unicode="[" horiz-adv-x="677" 
d="M436 -324h-473l381 1786h473l-45 -211h-215l-291 -1364h215z" />
    <glyph glyph-name="backslash" unicode="\" horiz-adv-x="862" 
d="M705 0h-267l-217 1462h260z" />
    <glyph glyph-name="bracketright" unicode="]" horiz-adv-x="677" 
d="M334 -324h-471l45 211h213l291 1364h-215l45 211h473z" />
    <glyph glyph-name="asciicircum" unicode="^" horiz-adv-x="1128" 
d="M35 520l618 950h148l276 -950h-223l-174 633l-401 -633h-244z" />
    <glyph glyph-name="underscore" unicode="_" horiz-adv-x="819" 
d="M635 -324h-821l30 140h822z" />
    <glyph glyph-name="grave" unicode="`" horiz-adv-x="659" 
d="M723 1241h-184q-69 66 -139.5 153.5t-102.5 153.5v21h311q38 -152 115 -303v-25z" />
    <glyph glyph-name="a" unicode="a" horiz-adv-x="1216" 
d="M406 -20q-63 0 -118 22.5t-100.5 68.5t-71.5 126.5t-26 187.5q0 136 37.5 270.5t103 242t164.5 174.5t213 67q195 0 277 -164h8l57 143h232l-238 -1118h-225l14 145h-8q-135 -165 -319 -165zM524 223q88 0 161 101t99 239q15 73 15 168q0 73 -37.5 118.5t-102.5 45.5
q-71 0 -133 -75t-96.5 -189t-34.5 -232q0 -176 129 -176z" />
    <glyph glyph-name="b" unicode="b" horiz-adv-x="1218" 
d="M610 -20q-194 0 -276 163h-8l-58 -143h-231l330 1556h301l-62 -288q-35 -171 -84 -299h8q67 84 128.5 127t154.5 43q63 0 117.5 -22.5t99.5 -69t71.5 -127.5t26.5 -187q0 -136 -37.5 -270.5t-103 -242t-164.5 -174t-213 -66.5zM559 223q71 0 133 75t96.5 189t34.5 232
q0 176 -131 176q-134 0 -209 -186q-63 -160 -63 -310q0 -80 38 -128t101 -48z" />
    <glyph glyph-name="c" unicode="c" horiz-adv-x="989" 
d="M506 -20q-90 0 -163.5 23t-131 70.5t-89.5 128.5t-32 189q0 151 40 285.5t113.5 238t187 164t251.5 60.5q187 0 328 -72l-92 -229q-45 19 -72.5 29.5t-69 19t-82.5 8.5q-93 0 -160 -68t-104 -184q-35 -113 -35 -227q0 -96 44.5 -144.5t127.5 -48.5q69 0 132 20.5
t143 61.5v-246q-155 -79 -336 -79z" />
    <glyph glyph-name="d" unicode="d" horiz-adv-x="1216" 
d="M406 -20q-64 0 -118.5 22t-100 68.5t-71.5 127.5t-26 189q0 136 37.5 270t103 241.5t164.5 174t213 66.5q93 0 152 -43t102 -121h8q0 7 3 42.5t10 89.5t14 91l76 358h301l-330 -1556h-229l18 145h-8q-135 -165 -319 -165zM532 223q66 0 120 54.5t84.5 135.5t46.5 161.5
t16 144.5q0 80 -37.5 128t-102.5 48q-71 0 -133 -75t-96.5 -189t-34.5 -232q0 -176 137 -176z" />
    <glyph glyph-name="e" unicode="e" horiz-adv-x="1140" 
d="M532 -20q-198 0 -319 106q-123 108 -123 326q0 113 25 219.5t77 198.5t125.5 161t175.5 108.5t222 39.5q181 0 278 -83.5t97 -221.5q0 -182 -163 -286t-481 -104h-51q-2 -16 -2 -41q0 -92 51.5 -144t147.5 -52q87 0 158.5 19t171.5 67v-227q-177 -86 -390 -86zM428 647
h45q164 0 246 51t82 129q0 95 -105 95q-86 0 -163.5 -77.5t-104.5 -197.5z" />
    <glyph glyph-name="f" unicode="f" horiz-adv-x="763" 
d="M-45 -492q-101 0 -174 25v242q62 -21 115 -21q64 0 109 42.5t63 127.5l204 965h-163l30 145l183 84l18 84q43 197 142.5 281t269.5 84q131 0 235 -49l-80 -224q-76 31 -133 31q-56 0 -91.5 -38.5t-47.5 -106.5l-12 -62h219l-49 -229h-220l-215 -1010q-18 -82 -47 -145.5
t-75.5 -116t-117.5 -81t-163 -28.5z" />
    <glyph glyph-name="g" unicode="g" horiz-adv-x="1216" 
d="M391 -492q-119 0 -202 17.5t-162 54.5v262q163 -86 348 -86q105 0 170 48.5t94 150.5l8 31q7 30 20 72t21.5 67.5t7.5 24.5h-8q-63 -80 -132 -125t-165 -45q-129 0 -215 102.5t-86 302.5q0 136 38 270.5t103 242t163 174.5t208 67q102 0 165 -40.5t118 -123.5h8l57 143
h232l-244 -1145q-53 -251 -191 -358t-356 -107zM537 223q60 0 111.5 49t83 124t49.5 160t18 163q0 80 -37 128t-100 48q-73 0 -135.5 -75t-97 -188.5t-34.5 -232.5q0 -86 37.5 -131t104.5 -45z" />
    <glyph glyph-name="h" unicode="h" horiz-adv-x="1236" 
d="M37 0l330 1556h301l-58 -270q-12 -55 -33.5 -133.5t-37 -129.5t-17.5 -54h8q139 170 314 170q140 0 214.5 -86t74.5 -236q0 -62 -23 -180l-133 -637h-301l137 653q16 75 16 119q0 123 -108 123q-98 0 -170 -119t-115 -313l-98 -463h-301z" />
    <glyph glyph-name="i" unicode="i" horiz-adv-x="608" 
d="M473 1257q-68 0 -109.5 29.5t-41.5 93.5q0 86 47.5 131t134.5 45q66 0 107.5 -28.5t41.5 -91.5q0 -83 -45.5 -131t-134.5 -48zM338 0h-301l237 1118h301z" />
    <glyph glyph-name="j" unicode="j" horiz-adv-x="608" 
d="M475 1257q-151 0 -151 123q0 86 47.5 131t134.5 45q66 0 107.5 -28.5t41.5 -91.5q0 -83 -45.5 -131t-134.5 -48zM-90 -492q-101 0 -174 25v242q62 -21 114 -21q64 0 109.5 42.5t63.5 127.5l253 1194h302l-265 -1239q-18 -82 -47 -145.5t-75.5 -116t-117.5 -81t-163 -28.5
z" />
    <glyph glyph-name="k" unicode="k" horiz-adv-x="1163" 
d="M37 0l330 1556h301l-148 -694q-8 -39 -33 -121.5t-28 -97.5h8l453 475h344l-498 -504l285 -614h-336l-183 420l-120 -72l-74 -348h-301z" />
    <glyph glyph-name="l" unicode="l" horiz-adv-x="608" 
d="M338 0h-301l330 1556h301z" />
    <glyph glyph-name="m" unicode="m" horiz-adv-x="1853" 
d="M338 0h-301l237 1118h230l-21 -207h9q72 109 157 168.5t195 59.5q218 0 262 -228h8q144 228 356 228q137 0 208 -85.5t71 -236.5q0 -62 -23 -180l-133 -637h-301l138 653q16 75 16 119q0 123 -98 123t-172 -119t-113 -311l-96 -465h-301l137 653q16 75 16 119
q0 123 -98 123t-170 -119t-115 -313z" />
    <glyph glyph-name="n" unicode="n" horiz-adv-x="1236" 
d="M338 0h-301l237 1118h230l-21 -207h9q72 109 157 168.5t195 59.5q140 0 214.5 -86t74.5 -236q0 -62 -23 -180l-133 -637h-301l137 653q16 75 16 119q0 123 -108 123q-98 0 -170 -119t-115 -313z" />
    <glyph glyph-name="o" unicode="o" horiz-adv-x="1198" 
d="M518 -20q-191 0 -309.5 116.5t-118.5 313.5q0 120 23 227.5t71.5 199.5t118 159t167 105t214.5 38q196 0 310 -117.5t114 -325.5q0 -145 -36 -271.5t-106 -227t-185.5 -159t-262.5 -58.5zM543 225q81 0 142 68.5t90.5 174t29.5 228.5q0 197 -143 197q-52 0 -97.5 -31
t-76 -81t-53 -114t-32.5 -129.5t-10 -127.5q0 -185 150 -185z" />
    <glyph glyph-name="p" unicode="p" horiz-adv-x="1218" 
d="M233 -492h-301l342 1610h230l-17 -170h9q53 72 131 131q78 60 186 60q63 0 117.5 -22.5t99.5 -69t71.5 -127.5t26.5 -189q0 -136 -37.5 -270t-103 -241t-164.5 -173.5t-213 -66.5q-65 0 -115 23t-79 55.5t-60 84.5h-8q-11 -151 -43 -295zM559 223q71 0 133 75t96.5 189
t34.5 232q0 176 -131 176q-69 0 -124 -53.5t-85.5 -134t-46.5 -161t-16 -147.5q0 -80 38 -128t101 -48z" />
    <glyph glyph-name="q" unicode="q" horiz-adv-x="1216" 
d="M391 -20q-57 0 -108.5 22.5t-96 68.5t-70.5 127t-26 187q0 136 37.5 270.5t103 242t164.5 174.5t213 67q95 0 160 -41t117 -123h8l57 143h232l-342 -1610h-301l73 338q9 43 29.5 118.5t37 130t17.5 55.5h-8q-63 -80 -132 -125t-165 -45zM395 399q0 -87 36.5 -131.5
t103.5 -44.5t120.5 54.5t83 136t45 161.5t15.5 144q0 80 -37.5 128t-102.5 48q-71 0 -133 -75t-96.5 -189t-34.5 -232z" />
    <glyph glyph-name="r" unicode="r" horiz-adv-x="862" 
d="M338 0h-301l237 1118h230l-21 -207h11q146 228 348 228q54 0 96 -11l-66 -290q-46 16 -100 16q-116 0 -204 -91t-124 -263z" />
    <glyph glyph-name="s" unicode="s" horiz-adv-x="968" 
d="M358 -20q-208 0 -335 65v248q158 -90 319 -90q77 0 129.5 31.5t52.5 89.5q0 41 -32 73q-28 28 -136 90q-111 61 -164 127.5t-53 167.5q0 172 112 264.5t314 92.5t363 -95l-99 -215q-143 84 -258 84q-53 0 -90 -24.5t-37 -69.5q0 -40 31.5 -68.5t120.5 -74.5
q114 -62 173.5 -131t59.5 -176q0 -189 -125.5 -289t-345.5 -100z" />
    <glyph glyph-name="t" unicode="t" horiz-adv-x="839" 
d="M246 889h-152l29 147l196 84l132 236h194l-49 -238h283l-50 -229h-282l-115 -539q-6 -30 -6 -53q0 -37 24 -55.5t64 -18.5q72 0 162 35v-225q-108 -53 -266 -53q-140 0 -215.5 59.5t-75.5 198.5q0 50 12 112z" />
    <glyph glyph-name="u" unicode="u" horiz-adv-x="1236" 
d="M395 -20q-143 0 -213.5 84.5t-70.5 236.5q0 93 24 213l127 604h301l-137 -653q-16 -75 -16 -119q0 -123 108 -123q65 0 122.5 59.5t97.5 154.5t65 218l98 463h301l-237 -1118h-230l21 207h-11q-72 -109 -156 -168t-194 -59z" />
    <glyph glyph-name="v" unicode="v" horiz-adv-x="1048" 
d="M102 1118h295l45 -586q7 -60 7 -231h10q68 186 88 223l297 594h323l-604 -1118h-323z" />
    <glyph glyph-name="w" unicode="w" horiz-adv-x="1613" 
d="M125 1118h281l4 -495q0 -201 -11 -338h9q19 65 55 163.5t51 133.5l231 536h328v-536q0 -184 -10 -297h10q52 166 119 338l219 495h307l-530 -1118h-330l-6 520q0 105 10 340h-12q-13 -33 -55.5 -155.5t-61.5 -163.5l-233 -541h-324z" />
    <glyph glyph-name="x" unicode="x" horiz-adv-x="1087" 
d="M250 0h-350l479 573l-225 545h321l115 -334l244 334h354l-467 -561l244 -557h-326l-125 342z" />
    <glyph glyph-name="y" unicode="y" horiz-adv-x="1062" 
d="M6 -492q-84 0 -147 19v240q76 -13 116 -13q88 0 150.5 51t114.5 146l26 49l-164 1118h295l56 -518q12 -110 12 -293h8q8 20 26 71t38.5 101.5t44.5 100.5l260 538h327l-680 -1278q-177 -332 -483 -332z" />
    <glyph glyph-name="z" unicode="z" horiz-adv-x="931" 
d="M748 0h-795l35 180l575 705h-397l51 233h750l-43 -200l-566 -685h439z" />
    <glyph glyph-name="braceleft" unicode="{" horiz-adv-x="727" 
d="M526 -324h-53q-176 0 -258 66.5t-82 181.5q0 57 14 125l39 184q15 77 15 86q0 140 -209 140l45 229q124 0 193 42.5t92 137.5l61 285q35 154 121 231q87 78 280 78h84l-49 -225q-81 -2 -124.5 -31t-61.5 -110l-66 -297q-47 -208 -276 -236v-8q168 -52 168 -217
q0 -32 -15 -113l-36 -178q-7 -35 -7 -51q0 -52 31 -73t94 -21v-226z" />
    <glyph glyph-name="bar" unicode="|" horiz-adv-x="1128" 
d="M674 -465h-219v2015h219v-2015z" />
    <glyph glyph-name="braceright" unicode="}" horiz-adv-x="727" 
d="M-55 -324h-45v226q83 2 130.5 31t65.5 110l66 297q46 207 276 235v9q-168 52 -168 217q0 31 15 112l37 179q6 30 6 51q0 52 -35.5 73t-110.5 21l41 225h33q176 0 258 -66.5t82 -181.5q0 -56 -14 -124l-39 -185q-15 -78 -15 -86q0 -139 209 -139l-45 -229q-123 0 -192 -43
t-92 -138l-62 -284q-35 -155 -121 -232q-87 -78 -280 -78z" />
    <glyph glyph-name="asciitilde" unicode="~" horiz-adv-x="1171" 
d="M569 616q-130 56 -227 56q-112 0 -233 -121v231q103 109 256 109q66 0 125.5 -12.5t150.5 -51.5q128 -55 227 -55q55 0 117.5 33.5t116.5 87.5v-231q-103 -109 -256 -109q-63 0 -123.5 13t-153.5 50z" />
    <glyph glyph-name="uni00A0" unicode="&#xa0;" horiz-adv-x="532" 
 />
    <glyph glyph-name="exclamdown" unicode="&#xa1;" horiz-adv-x="585" 
d="M344 778q-68 0 -108.5 39t-40.5 107q0 86 54 140t144 54q80 0 118 -40.5t38 -100.5q0 -75 -45 -135q-46 -64 -160 -64zM266 -371h-340l256 977h242z" />
    <glyph glyph-name="cent" unicode="&#xa2;" horiz-adv-x="1128" 
d="M575 -20h-188l49 210q-128 34 -200 131t-72 263q0 188 58 346.5t175 265.5t275 129l33 158h188l-35 -158q121 -14 225 -65l-92 -230q-45 19 -72 29t-68.5 19t-82.5 9q-93 0 -160 -67.5t-104 -183.5q-35 -113 -35 -228q0 -95 44.5 -143.5t127.5 -48.5q69 0 131.5 20.5
t142.5 61.5v-246q-128 -72 -299 -80z" />
    <glyph glyph-name="sterling" unicode="&#xa3;" horiz-adv-x="1128" 
d="M981 0h-993l49 246q197 50 244 264l22 104h-192l45 220h192l49 247q42 195 161.5 299.5t313.5 104.5q201 0 369 -86l-113 -232q-139 68 -237 68q-77 0 -124 -41t-67 -131l-47 -229h299l-45 -220h-299l-18 -84q-39 -193 -209 -270h655z" />
    <glyph glyph-name="currency" unicode="&#xa4;" horiz-adv-x="1128" 
d="M1055 399l-146 -145l-127 125q-94 -51 -196 -51q-119 0 -199 51l-125 -123l-145 145l127 125q-54 91 -54 197q0 104 54 197l-129 127l147 147l127 -127q92 53 197 53t196 -55l127 129l150 -143l-129 -129q53 -88 53 -199q0 -110 -53 -199zM586 535q79 0 137 55
q55 55 55 133q0 79 -56 134.5t-136 55.5q-78 0 -133.5 -55.5t-55.5 -134.5q0 -76 56 -132t133 -56z" />
    <glyph glyph-name="yen" unicode="&#xa5;" horiz-adv-x="1128" 
d="M88 221l37 178h252l29 138h-252l39 178h196l-192 747h297l114 -590l371 590h311l-506 -747h203l-39 -178h-252l-28 -138h252l-37 -178h-252l-47 -221h-291l47 221h-252z" />
    <glyph glyph-name="brokenbar" unicode="&#xa6;" horiz-adv-x="1128" 
d="M455 -465v815h219v-815h-219zM455 735v815h219v-815h-219z" />
    <glyph glyph-name="section" unicode="&#xa7;" horiz-adv-x="995" 
d="M356 -20q-208 0 -336 75v224q169 -105 345 -105q95 0 142.5 34t47.5 93q0 41 -36 75t-124 77q-245 119 -245 303q0 95 52 167.5t150 133.5q-43 34 -70.5 85.5t-27.5 106.5q0 150 118.5 234t311.5 84q178 0 344 -88l-82 -193q-145 84 -282 84q-144 0 -144 -106
q0 -40 39.5 -73t128.5 -73q242 -108 242 -299q0 -112 -60 -184q-54 -65 -133 -115q90 -83 90 -194q0 -165 -129 -255.5t-342 -90.5zM580 612q102 66 102 170q0 109 -176 176q-51 -25 -82 -69.5t-31 -95.5t42.5 -92.5t144.5 -88.5z" />
    <glyph glyph-name="dieresis" unicode="&#xa8;" horiz-adv-x="1134" 
d="M926 1272q-127 0 -127 110q0 75 39.5 116.5t111.5 41.5q125 0 125 -108q0 -75 -37 -117.5t-112 -42.5zM543 1272q-127 0 -127 110q0 75 39.5 116.5t111.5 41.5q125 0 125 -108q0 -74 -38 -117t-111 -43z" />
    <glyph glyph-name="copyright" unicode="&#xa9;" horiz-adv-x="1703" 
d="M852 -20q-161 0 -301 56.5t-239 155t-155.5 238.5t-56.5 301q0 153 58 291.5t157 240t239.5 161t297.5 59.5q205 0 377 -96t273.5 -269.5t101.5 -386.5q0 -161 -56.5 -301t-155.5 -238.5t-239 -155t-301 -56.5zM852 111q125 0 236.5 46.5t193.5 127.5t130 197t48 249
q0 127 -47 242t-127 198.5t-193.5 133t-240.5 49.5q-130 0 -243 -47t-194.5 -128.5t-128 -197.5t-46.5 -250q0 -272 172 -446t440 -174zM883 262q-210 0 -312 129q-104 128 -104 340q0 209 112.5 339t311.5 130q133 0 252 -61l-60 -138q-105 54 -190 54q-120 0 -187 -86.5
t-67 -237.5q0 -162 60 -243.5t192 -81.5q97 0 215 47v-142q-60 -25 -109 -37t-114 -12z" />
    <glyph glyph-name="ordfeminine" unicode="&#xaa;" horiz-adv-x="772" 
d="M369 748q-94 0 -155.5 64.5t-61.5 203.5q0 56 12 116t39 122t66 110.5t98.5 79.5t130.5 31q117 0 178 -103h8l39 90h154l-158 -702h-148l9 92h-9q-81 -104 -202 -104zM442 899q43 0 78.5 34.5t56 85.5t31 102.5t10.5 92.5q0 107 -88 107q-50 0 -91 -49t-62 -119.5
t-21 -142.5q0 -111 86 -111z" />
    <glyph glyph-name="guillemotleft" unicode="&#xab;" horiz-adv-x="1150" 
d="M520 193l-246 -103l-202 461v18l401 463l191 -155l-279 -334zM1008 193l-246 -103l-203 461v18l402 463l190 -155l-279 -334z" />
    <glyph glyph-name="logicalnot" unicode="&#xac;" horiz-adv-x="1171" 
d="M109 831h993v-583h-219v364h-774v219z" />
    <glyph glyph-name="uni00AD" unicode="&#xad;" horiz-adv-x="659" 
d="M565 424h-524l53 250h524z" />
    <glyph glyph-name="registered" unicode="&#xae;" horiz-adv-x="1703" 
d="M100 731q0 153 58 291.5t157 240t239.5 161t297.5 59.5q205 0 377 -96t273.5 -269.5t101.5 -386.5q0 -161 -56.5 -301t-155.5 -238.5t-239 -155t-301 -56.5t-301 56.5t-239 155t-155.5 238.5t-56.5 301zM240 731q0 -272 172 -446t440 -174q125 0 236.5 46.5t193.5 127.5
t130 197t48 249q0 127 -47 242t-127 198.5t-193.5 133t-240.5 49.5q-130 0 -243 -47t-194.5 -128.5t-128 -197.5t-46.5 -250zM561 1188h273q323 0 323 -275q0 -90 -45 -147.5t-115 -85.5l238 -397h-186l-195 344h-127v-344h-166v905zM727 1047v-283h102q78 0 119 38.5
t41 106.5q0 73 -36.5 105.5t-125.5 32.5h-100z" />
    <glyph glyph-name="macron" unicode="&#xaf;" horiz-adv-x="1024" 
d="M1214 1556h-1036l45 201h1037z" />
    <glyph glyph-name="degree" unicode="&#xb0;" horiz-adv-x="876" 
d="M438 793q-158 0 -258 96.5t-100 247.5q0 150 100.5 248t257.5 98q158 0 257.5 -96.5t99.5 -249.5q0 -151 -99.5 -247.5t-257.5 -96.5zM438 983q68 0 112 42t44 112q0 72 -44 114.5t-112 42.5t-111.5 -42.5t-43.5 -114.5q0 -71 43.5 -112.5t111.5 -41.5z" />
    <glyph glyph-name="plusminus" unicode="&#xb1;" horiz-adv-x="1171" 
d="M109 674v219h387v389h219v-389h387v-219h-387v-385h-219v385h-387zM109 0v219h993v-219h-993z" />
    <glyph glyph-name="twosuperior" unicode="&#xb2;" horiz-adv-x="776" 
d="M762 850h-647l35 166l272 219q43 35 61.5 50t48 41t41 40t26 34t19.5 37t5 36q0 39 -24.5 60t-61.5 21q-89 0 -189 -81l-100 157q151 117 348 117q123 0 196.5 -62.5t73.5 -160.5q0 -62 -14 -107.5t-56.5 -93t-76 -75t-116.5 -90.5l-6 -4.5t-5 -4t-6 -4.5l-129 -94h346z
" />
    <glyph glyph-name="threesuperior" unicode="&#xb3;" horiz-adv-x="776" 
d="M414 834q-157 0 -267 55v192q125 -71 254 -71q76 0 125 30.5t49 87.5q0 40 -27.5 64.5t-86.5 24.5h-127l35 159h90q84 0 132 28.5t48 84.5q0 38 -25.5 59t-70.5 21q-88 0 -189 -66l-82 150q140 92 314 92q145 0 213.5 -59.5t68.5 -151.5q0 -97 -58 -151t-159 -80v-9
q154 -35 154 -174q0 -73 -33 -129t-89 -89.5t-124.5 -50.5t-144.5 -17z" />
    <glyph glyph-name="acute" unicode="&#xb4;" horiz-adv-x="659" 
d="M440 1241h-209v25q54 60 113 145q58 80 109 158h335v-17q-42 -52 -153 -150.5t-195 -160.5z" />
    <glyph glyph-name="mu" unicode="&#xb5;" horiz-adv-x="1249" 
d="M236 -492h-304l342 1610h301l-135 -645q-16 -82 -16 -125q0 -58 31 -91.5t80 -33.5q52 0 97 34t79 95.5t59.5 134.5t44.5 162l98 469h301l-237 -1118h-225l18 176h-10q-116 -196 -266 -196q-48 0 -87 19t-61 48h-10q-19 -153 -33 -219z" />
    <glyph glyph-name="paragraph" unicode="&#xb6;" horiz-adv-x="1341" 
d="M147 1042q0 143 32 244.5t93 159.5t141 84t185 26h604v-1816h-162v1616h-166v-1616h-161v819q-62 -18 -146 -18q-99 0 -173.5 26t-131 83.5t-86 155.5t-29.5 236z" />
    <glyph glyph-name="periodcentered" unicode="&#xb7;" horiz-adv-x="583" 
d="M287 553q-80 0 -118 40.5t-38 100.5q0 72 47 137q47 62 158 62q68 0 108.5 -38.5t40.5 -106.5q0 -86 -54 -140.5t-144 -54.5z" />
    <glyph glyph-name="cedilla" unicode="&#xb8;" horiz-adv-x="419" 
d="M-55 -492q-81 0 -152 23v168q71 -23 125 -23q102 0 102 82q0 69 -141 88l96 154h185l-39 -72q141 -48 141 -178q0 -109 -78.5 -175.5t-238.5 -66.5z" />
    <glyph glyph-name="onesuperior" unicode="&#xb9;" horiz-adv-x="776" 
d="M606 850h-246l84 397q15 68 56 207q-15 -14 -46 -35.5t-34 -23.5l-131 -82l-103 166l400 247h207z" />
    <glyph glyph-name="ordmasculine" unicode="&#xba;" horiz-adv-x="753" 
d="M440 748q-132 0 -201 74.5t-69 211.5q0 122 42 220t130 159.5t209 61.5q136 0 201 -77t65 -208q0 -57 -10.5 -114t-38 -117.5t-68.5 -106t-108.5 -75t-151.5 -29.5zM459 911q46 0 81 47.5t50.5 112.5t15.5 133q0 107 -76 107q-46 0 -82 -48.5t-52.5 -113t-16.5 -127.5
q0 -111 80 -111z" />
    <glyph glyph-name="guillemotright" unicode="&#xbb;" horiz-adv-x="1150" 
d="M1079 553l-401 -463l-191 156l279 334l-135 350l246 102l202 -461v-18zM592 553l-402 -463l-190 156l279 334l-136 350l246 102l203 -461v-18z" />
    <glyph glyph-name="onequarter" unicode="&#xbc;" horiz-adv-x="1708" 
d="M870 154l31 174l475 557h260l-120 -563h118l-35 -168h-118l-33 -152h-238l33 152h-373zM459 0h-240l1088 1462h235zM145 1212l400 248h207l-187 -876h-246l84 397q15 68 56 207q-15 -14 -46.5 -36.5t-33.5 -23.5l-131 -81zM1104 322h174l41 163q6 24 11.5 44t13 46.5
t14.5 51.5q-26 -41 -86 -111z" />
    <glyph glyph-name="onehalf" unicode="&#xbd;" horiz-adv-x="1824" 
d="M455 0h-240l1088 1462h235zM565 584h-246l84 397q15 68 56 207q-15 -14 -46.5 -36.5t-33.5 -23.5l-131 -81l-103 165l400 248h207zM1634 -2h-647l35 166l272 219q43 35 61.5 50t48 41t41 40t26 34t19.5 37t5 36q0 39 -24.5 60t-61.5 21q-88 0 -188 -81l-101 157
q151 117 348 117q123 0 197 -62.5t74 -160.5q0 -50 -12 -91t-30.5 -72.5t-55 -67t-71 -63t-93.5 -71.5q-13 -9 -19 -14l-129 -94h346z" />
    <glyph glyph-name="threequarters" unicode="&#xbe;" horiz-adv-x="1767" 
d="M1331 514l-168 -195h174l41 164q7 33 19 68q11 46 20 74q-25 -38 -43 -60q-32 -35 -43 -51zM1540 152l-33 -152h-237l33 152h-373l31 174l475 557h260l-121 -564h119l-35 -167h-119zM362 569q-63 0 -138.5 15.5t-127.5 40.5v192q122 -72 254 -72q67 0 120.5 29t53.5 90
q0 37 -24 64q-27 24 -90 24h-127l34 160h91q31 0 60 5t57.5 16.5t45.5 35t17 56.5q0 37 -25 59q-27 21 -71 21q-42 0 -95 -17q-45 -17 -94 -49l-82 150q143 92 314 92q96 0 165 -29q117 -60 117 -182q0 -181 -217 -232v-8q154 -33 154 -174q0 -61 -23.5 -110.5t-61.5 -82
t-89.5 -54t-106 -31t-111.5 -9.5zM1602 1462l-1084 -1462h-239l1087 1462h236z" />
    <glyph glyph-name="questiondown" unicode="&#xbf;" horiz-adv-x="940" 
d="M430 608h258q-27 -143 -82 -233q-58 -95 -178 -176q-110 -74 -150 -118t-40 -106q0 -118 133 -118q45 0 99.5 15.5t91.5 31.5t116 53l92 -221q-226 -125 -444 -125q-180 0 -281.5 88.5t-101.5 243.5q0 60 16 112t39.5 90t67 79.5t80.5 69t98 68.5q90 57 127 107t59 139z
M635 1120q80 0 118 -40.5t38 -100.5q0 -74 -46 -135q-46 -64 -159 -64q-68 0 -109 39t-41 107q0 86 54.5 140t144.5 54z" />
    <glyph glyph-name="Agrave" unicode="&#xc0;" horiz-adv-x="1286" 
d="M197 0h-320l766 1462h373l147 -1462h-297l-24 348h-473zM686 1004l-192 -396h333l-26 377q-12 160 -10 246h-5q-32 -88 -100 -227zM848 1585q-69 66 -139.5 153.5t-102.5 153.5v21h312q39 -156 114 -303v-25h-184z" />
    <glyph glyph-name="Aacute" unicode="&#xc1;" horiz-adv-x="1286" 
d="M197 0h-320l766 1462h373l147 -1462h-297l-24 348h-473zM686 1004l-192 -396h333l-26 377q-12 160 -10 246h-5q-32 -88 -100 -227zM696 1585v25q87 97 222 303h335v-17q-42 -52 -153 -150.5t-195 -160.5h-209z" />
    <glyph glyph-name="Acircumflex" unicode="&#xc2;" horiz-adv-x="1286" 
d="M197 0h-320l766 1462h373l147 -1462h-297l-24 348h-473zM440 1585v25q205 189 295 303h338q53 -124 176 -303v-25h-198q-84 73 -162 168q-107 -88 -232 -168h-217zM686 1004l-192 -396h333l-26 377q-12 160 -10 246h-5q-32 -88 -100 -227z" />
    <glyph glyph-name="Atilde" unicode="&#xc3;" horiz-adv-x="1286" 
d="M197 0h-320l766 1462h373l147 -1462h-297l-24 348h-473zM465 1583q59 309 280 309q44 0 87 -16t71 -36t61.5 -36t61.5 -16q64 0 104 106h173q-66 -309 -287 -309q-56 0 -107.5 26.5t-95 52.5t-78.5 26q-67 0 -94 -107h-176zM494 608h333l-26 377q-12 160 -10 246h-5
q-32 -88 -100 -227z" />
    <glyph glyph-name="Adieresis" unicode="&#xc4;" horiz-adv-x="1286" 
d="M197 0h-320l766 1462h373l147 -1462h-297l-24 348h-473zM494 608h333l-26 377q-12 160 -10 246h-5q-32 -88 -100 -227zM938 1726q0 75 40 116.5t112 41.5q124 0 124 -108q0 -75 -37 -117.5t-112 -42.5q-127 0 -127 110zM682 1616q-127 0 -127 110q0 75 40 116.5t112 41.5
q124 0 124 -108q0 -74 -38 -117t-111 -43z" />
    <glyph glyph-name="Aring" unicode="&#xc5;" horiz-adv-x="1286" 
d="M197 0h-320l766 1462h373l147 -1462h-297l-24 348h-473zM885 1583q-111 0 -179.5 64.5t-68.5 173.5t68.5 173t179.5 64q109 0 181.5 -64.5t72.5 -170.5q0 -110 -71.5 -175t-182.5 -65zM494 608h333l-26 377q-12 160 -10 246h-5q-32 -88 -100 -227zM788 1821q0 -45 25 -71
t72 -26q42 0 69 26.5t27 70.5t-27 70t-69 26t-69.5 -26.5t-27.5 -69.5z" />
    <glyph glyph-name="AE" unicode="&#xc6;" horiz-adv-x="1832" 
d="M205 0h-328l922 1462h1104l-54 -254h-512l-67 -321h477l-55 -254h-478l-79 -377h512l-54 -256h-817l74 348h-426zM588 608h317l127 600h-80z" />
    <glyph glyph-name="Ccedilla" unicode="&#xc7;" horiz-adv-x="1253" 
d="M563 -14q-215 27 -327.5 176t-112.5 391q0 132 28.5 261.5t91 251.5t152 214.5t221.5 148.5t289 56q136 0 233 -24.5t197 -80.5l-118 -250q-162 97 -312 97q-95 0 -174.5 -41t-133.5 -108t-91.5 -154t-54.5 -177t-17 -178q0 -167 69.5 -248t217.5 -81q153 0 338 77v-260
q-155 -61 -311 -73l-31 -56q141 -48 141 -178q0 -109 -78.5 -175.5t-238.5 -66.5q-81 0 -152 23v168q71 -23 125 -23q102 0 102 82q0 69 -141 88z" />
    <glyph glyph-name="Egrave" unicode="&#xc8;" horiz-adv-x="1110" 
d="M870 0h-817l309 1462h818l-54 -254h-512l-67 -321h477l-55 -254h-477l-80 -377h512zM950 1585h-184q-69 66 -139.5 153.5t-102.5 153.5v21h312q39 -156 114 -303v-25z" />
    <glyph glyph-name="Eacute" unicode="&#xc9;" horiz-adv-x="1110" 
d="M870 0h-817l309 1462h818l-54 -254h-512l-67 -321h477l-55 -254h-477l-80 -377h512zM823 1585h-209v25q54 60 113 145q58 80 109 158h335v-17q-42 -52 -153 -150.5t-195 -160.5z" />
    <glyph glyph-name="Ecircumflex" unicode="&#xca;" horiz-adv-x="1110" 
d="M870 0h-817l309 1462h818l-54 -254h-512l-67 -321h477l-55 -254h-477l-80 -377h512zM358 1610q205 189 295 303h338q53 -124 176 -303v-25h-198q-84 73 -162 168q-107 -88 -232 -168h-217v25z" />
    <glyph glyph-name="Edieresis" unicode="&#xcb;" horiz-adv-x="1110" 
d="M870 0h-817l309 1462h818l-54 -254h-512l-67 -321h477l-55 -254h-477l-80 -377h512zM983 1616q-127 0 -127 110q0 75 40 116.5t112 41.5q125 0 125 -108q0 -75 -37.5 -117.5t-112.5 -42.5zM600 1616q-127 0 -127 110q0 75 40 116.5t112 41.5q125 0 125 -108
q0 -74 -38.5 -117t-111.5 -43z" />
    <glyph glyph-name="Igrave" unicode="&#xcc;" horiz-adv-x="784" 
d="M588 0h-647l36 176l187 82l201 946l-152 82l37 176h647l-37 -176l-190 -82l-201 -946l156 -82zM768 1585h-184q-69 66 -139.5 153.5t-102.5 153.5v21h311q38 -152 115 -303v-25z" />
    <glyph glyph-name="Iacute" unicode="&#xcd;" horiz-adv-x="784" 
d="M588 0h-647l36 176l187 82l201 946l-152 82l37 176h647l-37 -176l-190 -82l-201 -946l156 -82zM641 1585h-209v25q54 60 113 145q46 63 108 158h336v-17q-42 -52 -153 -150.5t-195 -160.5z" />
    <glyph glyph-name="Icircumflex" unicode="&#xce;" horiz-adv-x="784" 
d="M588 0h-647l36 176l187 82l201 946l-152 82l37 176h647l-37 -176l-190 -82l-201 -946l156 -82zM176 1585v25q205 189 295 303h338q53 -124 176 -303v-25h-199q-80 70 -161 168q-107 -88 -232 -168h-217z" />
    <glyph glyph-name="Idieresis" unicode="&#xcf;" horiz-adv-x="784" 
d="M588 0h-647l36 176l187 82l201 946l-152 82l37 176h647l-37 -176l-190 -82l-201 -946l156 -82zM801 1616q-127 0 -127 110q0 75 39.5 116.5t111.5 41.5q125 0 125 -108q0 -75 -37 -117.5t-112 -42.5zM418 1616q-127 0 -127 110q0 75 39.5 116.5t111.5 41.5
q125 0 125 -108q0 -74 -38 -117t-111 -43z" />
    <glyph glyph-name="Eth" unicode="&#xd0;" horiz-adv-x="1386" 
d="M37 596l55 254h139l131 612h396q270 0 417.5 -143t147.5 -410q0 -208 -54.5 -376t-158 -286.5t-258 -182.5t-348.5 -64h-451l125 596h-141zM412 256h106q122 0 218 52t154.5 141t89 202t30.5 242q0 158 -73.5 236.5t-207.5 78.5h-115l-75 -358h237l-55 -254h-238z" />
    <glyph glyph-name="Ntilde" unicode="&#xd1;" horiz-adv-x="1546" 
d="M328 0h-275l309 1462h357l340 -1077h8q35 237 68 385l147 692h274l-309 -1462h-342l-356 1106h-10q-30 -233 -66 -418zM782 1583h-176q59 309 281 309q56 0 108 -26t95 -52t77 -26q65 0 105 106h172q-66 -309 -287 -309q-44 0 -86.5 16.5t-70 36t-61 36t-62.5 16.5
q-68 0 -95 -107z" />
    <glyph glyph-name="Ograve" unicode="&#xd2;" horiz-adv-x="1495" 
d="M666 -20q-266 0 -404 153q-139 151 -139 404q0 140 29 274t91 257t151 215t219 147t284 55q266 0 401 -150q134 -152 134 -397q0 -182 -46 -352t-137 -305q-204 -301 -583 -301zM688 240q183 0 307.5 191.5t124.5 498.5q0 138 -63.5 217.5t-184.5 79.5q-124 0 -225 -94
t-157 -252t-56 -344q0 -144 67 -220.5t187 -76.5zM1137 1585h-185q-69 65 -139 153t-102 154v21h311q38 -152 115 -303v-25z" />
    <glyph glyph-name="Oacute" unicode="&#xd3;" horiz-adv-x="1495" 
d="M666 -20q-266 0 -404 153q-139 151 -139 404q0 140 29 274t91 257t151 215t219 147t284 55q266 0 401 -150q134 -152 134 -397q0 -182 -46 -352t-137 -305q-204 -301 -583 -301zM688 240q183 0 307.5 191.5t124.5 498.5q0 138 -63.5 217.5t-184.5 79.5q-124 0 -225 -94
t-157 -252t-56 -344q0 -144 67 -220.5t187 -76.5zM1010 1585h-209v25q50 55 112 145q58 80 109 158h336v-17q-42 -52 -153 -150.5t-195 -160.5z" />
    <glyph glyph-name="Ocircumflex" unicode="&#xd4;" horiz-adv-x="1495" 
d="M123 537q0 140 29 274t91 257t151 215t219 147t284 55q260 0 397.5 -147t137.5 -400q0 -146 -28 -282.5t-89 -260t-149 -215.5t-216.5 -146t-283.5 -54q-261 0 -402 150t-141 407zM434 537q0 -144 67 -220.5t187 -76.5q183 0 307.5 191.5t124.5 498.5q0 138 -63.5 217.5
t-184.5 79.5q-124 0 -225 -94t-157 -252t-56 -344zM545 1585v25q205 189 295 303h338q53 -124 176 -303v-25h-199q-84 73 -162 168q-111 -91 -231 -168h-217z" />
    <glyph glyph-name="Otilde" unicode="&#xd5;" horiz-adv-x="1495" 
d="M666 -20q-266 0 -404 153q-139 151 -139 404q0 140 29 274t91 257t151 215t219 147t284 55q266 0 401 -150q134 -152 134 -397q0 -182 -46 -352t-137 -305q-204 -301 -583 -301zM688 240q183 0 307.5 191.5t124.5 498.5q0 138 -63.5 217.5t-184.5 79.5q-124 0 -225 -94
t-157 -252t-56 -344q0 -144 67 -220.5t187 -76.5zM745 1583h-176q59 309 281 309q56 0 108 -26t95 -52t77 -26q65 0 105 106h172q-66 -309 -287 -309q-44 0 -86.5 16.5t-70 36t-61 36t-62.5 16.5q-68 0 -95 -107z" />
    <glyph glyph-name="Odieresis" unicode="&#xd6;" horiz-adv-x="1495" 
d="M666 -20q-266 0 -404 153q-139 151 -139 404q0 140 29 274t91 257t151 215t219 147t284 55q266 0 401 -150q134 -152 134 -397q0 -182 -46 -352t-137 -305q-204 -301 -583 -301zM688 240q183 0 307.5 191.5t124.5 498.5q0 138 -63.5 217.5t-184.5 79.5q-124 0 -225 -94
t-157 -252t-56 -344q0 -144 67 -220.5t187 -76.5zM1169 1616q-127 0 -127 110q0 75 40 116.5t112 41.5q125 0 125 -108q0 -75 -37.5 -117.5t-112.5 -42.5zM786 1616q-127 0 -127 110q0 75 40 116.5t112 41.5q125 0 125 -108q0 -74 -38.5 -117t-111.5 -43z" />
    <glyph glyph-name="multiply" unicode="&#xd7;" horiz-adv-x="1171" 
d="M602 879l305 299l154 -150l-305 -305l301 -303l-150 -152l-305 301l-301 -299l-149 152l297 301l-299 301l151 154z" />
    <glyph glyph-name="Oslash" unicode="&#xd8;" horiz-adv-x="1495" 
d="M362 51l-108 -137l-154 115l121 151q-98 137 -98 357q0 140 29 274t91 257t151 215t219 147t284 55q183 0 305 -76l105 131l151 -117l-117 -145q91 -133 91 -340q0 -182 -46 -352t-137 -305q-204 -301 -583 -301q-177 0 -304 71zM432 436l596 754q-67 43 -158 43
q-131 0 -234 -96t-157.5 -254t-54.5 -346q0 -17 3.5 -52.5t4.5 -48.5zM692 233q188 0 314.5 194.5t126.5 502.5q0 22 -5 80l-589 -740q58 -37 153 -37z" />
    <glyph glyph-name="Ugrave" unicode="&#xd9;" horiz-adv-x="1415" 
d="M604 -20q-223 0 -343 110.5t-120 300.5q0 77 15 148l196 923h305l-194 -919q-17 -87 -17 -125q0 -178 189 -178q129 0 197.5 73.5t101.5 231.5l194 917h306l-201 -946q-114 -536 -629 -536zM664 1913h311q38 -152 115 -303v-25h-185q-69 65 -139 153t-102 154v21z" />
    <glyph glyph-name="Uacute" unicode="&#xda;" horiz-adv-x="1415" 
d="M604 -20q-223 0 -343 110.5t-120 300.5q0 77 15 148l196 923h305l-194 -919q-17 -87 -17 -125q0 -178 189 -178q129 0 197.5 73.5t101.5 231.5l194 917h306l-201 -946q-114 -536 -629 -536zM754 1585v25q83 93 221 303h336v-17q-42 -52 -153 -150.5t-195 -160.5h-209z
" />
    <glyph glyph-name="Ucircumflex" unicode="&#xdb;" horiz-adv-x="1415" 
d="M604 -20q-223 0 -343 110.5t-120 300.5q0 77 15 148l196 923h305l-194 -919q-17 -87 -17 -125q0 -178 189 -178q129 0 197.5 73.5t101.5 231.5l194 917h306l-201 -946q-114 -536 -629 -536zM498 1585v25q205 189 295 303h337q51 -120 177 -303v-25h-199q-84 73 -162 168
q-111 -91 -231 -168h-217z" />
    <glyph glyph-name="Udieresis" unicode="&#xdc;" horiz-adv-x="1415" 
d="M141 391q0 77 15 148l196 923h305l-194 -919q-17 -87 -17 -125q0 -178 189 -178q129 0 197.5 73.5t101.5 231.5l194 917h306l-201 -946q-114 -536 -629 -536q-223 0 -343 110.5t-120 300.5zM995 1726q0 75 40 116.5t112 41.5q125 0 125 -108q0 -75 -37 -117.5t-113 -42.5
q-127 0 -127 110zM739 1616q-127 0 -127 110q0 75 40 116.5t112 41.5q125 0 125 -108q0 -74 -38.5 -117t-111.5 -43z" />
    <glyph glyph-name="Yacute" unicode="&#xdd;" horiz-adv-x="1155" 
d="M422 559l-236 903h312l129 -592l374 592h342l-618 -903l-119 -559h-303zM610 1585v25q83 93 221 303h336v-17q-42 -52 -153 -150.5t-195 -160.5h-209z" />
    <glyph glyph-name="Thorn" unicode="&#xde;" horiz-adv-x="1241" 
d="M358 0h-305l309 1462h306l-50 -229h84q490 0 490 -426q0 -127 -48.5 -226.5t-135 -161.5t-201 -94t-252.5 -32h-135zM567 979l-92 -432h105q138 0 221.5 67.5t83.5 184.5q0 180 -195 180h-123z" />
    <glyph glyph-name="germandbls" unicode="&#xdf;" horiz-adv-x="1349" 
d="M-100 -492q-87 0 -160 25v242q62 -21 115 -21q133 0 170 178l254 1207q45 220 179.5 324t387.5 104q209 0 331.5 -90t122.5 -240q0 -123 -53.5 -198.5t-173.5 -145.5q-63 -36 -91 -62t-28 -61q0 -24 22.5 -50.5t78.5 -68.5q93 -69 137.5 -136.5t44.5 -164.5
q0 -159 -117 -264q-115 -106 -344 -106q-187 0 -297 61v240q123 -78 258 -78q98 0 146.5 32.5t48.5 86.5q0 42 -27.5 76.5t-107.5 95.5q-84 64 -124 123t-40 133q0 95 51 154.5t156 117.5q72 40 107.5 79t35.5 93q0 64 -41 99.5t-123 35.5q-59 0 -102.5 -18t-70.5 -51.5
t-42.5 -69.5t-25.5 -84l-254 -1219q-19 -88 -49.5 -154t-79.5 -118.5t-123 -79.5t-172 -27z" />
    <glyph glyph-name="agrave" unicode="&#xe0;" horiz-adv-x="1216" 
d="M406 -20q-63 0 -118 22.5t-100.5 68.5t-71.5 126.5t-26 187.5q0 136 37.5 270.5t103 242t164.5 174.5t213 67q195 0 277 -164h8l57 143h232l-238 -1118h-225l14 145h-8q-135 -165 -319 -165zM524 223q88 0 161 101t99 239q15 73 15 168q0 73 -37.5 118.5t-102.5 45.5
q-71 0 -133 -75t-96.5 -189t-34.5 -232q0 -176 129 -176zM924 1241h-185q-69 65 -139 153t-102 154v21h311q38 -152 115 -303v-25z" />
    <glyph glyph-name="aacute" unicode="&#xe1;" horiz-adv-x="1216" 
d="M406 -20q-63 0 -118 22.5t-100.5 68.5t-71.5 126.5t-26 187.5q0 136 37.5 270.5t103 242t164.5 174.5t213 67q195 0 277 -164h8l57 143h232l-238 -1118h-225l14 145h-8q-135 -165 -319 -165zM524 223q88 0 161 101t99 239q15 73 15 168q0 73 -37.5 118.5t-102.5 45.5
q-71 0 -133 -75t-96.5 -189t-34.5 -232q0 -176 129 -176zM797 1241h-209v25q50 55 112 145q58 80 109 158h336v-17q-42 -52 -153 -150.5t-195 -160.5z" />
    <glyph glyph-name="acircumflex" unicode="&#xe2;" horiz-adv-x="1216" 
d="M406 -20q-63 0 -118 22.5t-100.5 68.5t-71.5 126.5t-26 187.5q0 136 37.5 270.5t103 242t164.5 174.5t213 67q195 0 277 -164h8l57 143h232l-238 -1118h-225l14 145h-8q-135 -165 -319 -165zM659 895q-71 0 -133 -75t-96.5 -189t-34.5 -232q0 -176 129 -176q88 0 161 101
t99 239q15 73 15 168q0 73 -37.5 118.5t-102.5 45.5zM332 1266q205 189 295 303h338q53 -124 176 -303v-25h-199q-84 73 -162 168q-111 -91 -231 -168h-217v25z" />
    <glyph glyph-name="atilde" unicode="&#xe3;" horiz-adv-x="1216" 
d="M406 -20q-63 0 -118 22.5t-100.5 68.5t-71.5 126.5t-26 187.5q0 136 37.5 270.5t103 242t164.5 174.5t213 67q195 0 277 -164h8l57 143h232l-238 -1118h-225l14 145h-8q-135 -165 -319 -165zM524 223q88 0 161 101t99 239q15 73 15 168q0 73 -37.5 118.5t-102.5 45.5
q-71 0 -133 -75t-96.5 -189t-34.5 -232q0 -176 129 -176zM532 1239h-176q59 309 281 309q44 0 87 -16t71 -36t61.5 -36t61.5 -16q64 0 104 106h172q-66 -309 -287 -309q-44 0 -86.5 16.5t-70 36t-61 36t-62.5 16.5q-68 0 -95 -107z" />
    <glyph glyph-name="adieresis" unicode="&#xe4;" horiz-adv-x="1216" 
d="M406 -20q-63 0 -118 22.5t-100.5 68.5t-71.5 126.5t-26 187.5q0 136 37.5 270.5t103 242t164.5 174.5t213 67q195 0 277 -164h8l57 143h232l-238 -1118h-225l14 145h-8q-135 -165 -319 -165zM524 223q88 0 161 101t99 239q15 73 15 168q0 73 -37.5 118.5t-102.5 45.5
q-71 0 -133 -75t-96.5 -189t-34.5 -232q0 -176 129 -176zM956 1272q-127 0 -127 110q0 75 40 116.5t112 41.5q125 0 125 -108q0 -75 -37 -117.5t-113 -42.5zM573 1272q-127 0 -127 110q0 75 40 116.5t112 41.5q125 0 125 -108q0 -74 -38.5 -117t-111.5 -43z" />
    <glyph glyph-name="aring" unicode="&#xe5;" horiz-adv-x="1216" 
d="M406 -20q-63 0 -118 22.5t-100.5 68.5t-71.5 126.5t-26 187.5q0 136 37.5 270.5t103 242t164.5 174.5t213 67q195 0 277 -164h8l57 143h232l-238 -1118h-225l14 145h-8q-135 -165 -319 -165zM524 223q88 0 161 101t99 239q15 73 15 168q0 73 -37.5 118.5t-102.5 45.5
q-71 0 -133 -75t-96.5 -189t-34.5 -232q0 -176 129 -176zM776 1239q-111 0 -179.5 64.5t-68.5 173.5t68.5 173t179.5 64q109 0 181.5 -64.5t72.5 -170.5q0 -110 -71.5 -175t-182.5 -65zM776 1380q42 0 69 26.5t27 70.5t-27 70t-69 26t-69 -26t-27 -70q0 -45 25 -71t71 -26z
" />
    <glyph glyph-name="ae" unicode="&#xe6;" horiz-adv-x="1785" 
d="M399 -20q-140 0 -224.5 106t-84.5 299q0 147 38 283.5t104.5 241t163 167t206.5 62.5q99 0 161.5 -40.5t108.5 -123.5h11l57 143h188l-18 -90q46 53 124 82t165 29q158 0 247 -84t89 -221q0 -182 -163 -286t-480 -104h-52q-2 -16 -2 -38q0 -81 47 -140t168 -59
q72 0 157.5 24.5t156.5 61.5v-227q-183 -86 -361 -86q-110 0 -181.5 27t-115.5 87l-16 -94h-188l14 145h-10q-66 -81 -138.5 -123t-171.5 -42zM1073 647h45q164 0 246 51t82 129q0 95 -105 95q-85 0 -164.5 -78.5t-103.5 -196.5zM518 223q88 0 154 90q63 86 94 217
q22 99 22 189q0 82 -34 129t-101 47q-74 0 -134.5 -75.5t-92 -188t-31.5 -232.5q0 -91 34.5 -133.5t88.5 -42.5z" />
    <glyph glyph-name="ccedilla" unicode="&#xe7;" horiz-adv-x="989" 
d="M90 391q0 151 40 285.5t113.5 238t187 164t251.5 60.5q187 0 328 -72l-92 -229q-45 19 -72.5 29.5t-69 19t-82.5 8.5q-92 0 -162 -72t-103.5 -179.5t-33.5 -227.5q0 -96 44.5 -144.5t127.5 -48.5q69 0 132 20.5t143 61.5v-246q-135 -69 -287 -77l-29 -54
q142 -48 142 -178q0 -109 -79 -175.5t-239 -66.5q-80 0 -151 23v168q71 -23 125 -23q102 0 102 82q0 69 -141 88l92 148q-133 29 -210 127t-77 270z" />
    <glyph glyph-name="egrave" unicode="&#xe8;" horiz-adv-x="1140" 
d="M532 -20q-198 0 -319 106q-123 108 -123 326q0 113 25 219.5t77 198.5t125.5 161t175.5 108.5t222 39.5q181 0 278 -83.5t97 -221.5q0 -182 -163 -286t-481 -104h-51q-2 -16 -2 -41q0 -92 51.5 -144t147.5 -52q87 0 158.5 19t171.5 67v-227q-177 -86 -390 -86zM428 647
h45q164 0 246 51t82 129q0 95 -105 95q-86 0 -163.5 -77.5t-104.5 -197.5zM899 1241h-184q-69 66 -139.5 153.5t-102.5 153.5v21h311q38 -152 115 -303v-25z" />
    <glyph glyph-name="eacute" unicode="&#xe9;" horiz-adv-x="1140" 
d="M532 -20q-198 0 -319 106q-123 108 -123 326q0 113 25 219.5t77 198.5t125.5 161t175.5 108.5t222 39.5q181 0 278 -83.5t97 -221.5q0 -182 -163 -286t-481 -104h-51q-2 -16 -2 -41q0 -92 51.5 -144t147.5 -52q87 0 158.5 19t171.5 67v-227q-177 -86 -390 -86zM428 647
h45q164 0 246 51t82 129q0 95 -105 95q-86 0 -163.5 -77.5t-104.5 -197.5zM772 1241h-209v25q54 60 113 145q46 63 108 158h336v-17q-42 -52 -153 -150.5t-195 -160.5z" />
    <glyph glyph-name="ecircumflex" unicode="&#xea;" horiz-adv-x="1140" 
d="M90 412q0 113 25 219.5t77 198.5t125.5 161t175.5 108.5t222 39.5q181 0 278 -83.5t97 -221.5q0 -182 -163 -286t-481 -104h-51q-2 -16 -2 -41q0 -92 51.5 -144t147.5 -52q87 0 158.5 19t171.5 67v-227q-177 -86 -390 -86q-204 0 -323 109.5t-119 322.5zM524 1241h-217
v25q205 189 295 303h338q53 -124 176 -303v-25h-198q-84 73 -162 168q-107 -88 -232 -168zM428 647h45q164 0 246 51t82 129q0 95 -105 95q-86 0 -163.5 -77.5t-104.5 -197.5z" />
    <glyph glyph-name="edieresis" unicode="&#xeb;" horiz-adv-x="1140" 
d="M532 -20q-198 0 -319 106q-123 108 -123 326q0 113 25 219.5t77 198.5t125.5 161t175.5 108.5t222 39.5q181 0 278 -83.5t97 -221.5q0 -182 -163 -286t-481 -104h-51q-2 -16 -2 -41q0 -92 51.5 -144t147.5 -52q87 0 158.5 19t171.5 67v-227q-177 -86 -390 -86zM428 647
h45q164 0 246 51t82 129q0 95 -105 95q-86 0 -163.5 -77.5t-104.5 -197.5zM932 1272q-127 0 -127 110q0 75 39.5 116.5t111.5 41.5q125 0 125 -108q0 -75 -37 -117.5t-112 -42.5zM549 1272q-127 0 -127 110q0 75 39.5 116.5t111.5 41.5q125 0 125 -108q0 -74 -38 -117
t-111 -43z" />
    <glyph glyph-name="igrave" unicode="&#xec;" horiz-adv-x="608" 
d="M338 0h-301l237 1118h301zM621 1241h-185q-69 65 -139 153t-102 154v21h311q38 -152 115 -303v-25z" />
    <glyph glyph-name="iacute" unicode="&#xed;" horiz-adv-x="608" 
d="M338 0h-301l237 1118h301zM494 1241h-209v25q50 55 112 145q58 80 109 158h336v-17q-42 -52 -153 -150.5t-195 -160.5z" />
    <glyph glyph-name="icircumflex" unicode="&#xee;" horiz-adv-x="608" 
d="M37 0l237 1118h301l-237 -1118h-301zM246 1241h-217v25q205 189 295 303h338q53 -124 176 -303v-25h-199q-84 73 -162 168q-111 -91 -231 -168z" />
    <glyph glyph-name="idieresis" unicode="&#xef;" horiz-adv-x="608" 
d="M338 0h-301l237 1118h301zM653 1272q-127 0 -127 110q0 75 40 116.5t112 41.5q125 0 125 -108q0 -75 -37.5 -117.5t-112.5 -42.5zM270 1272q-127 0 -127 110q0 75 40 116.5t112 41.5q125 0 125 -108q0 -74 -38.5 -117t-111.5 -43z" />
    <glyph glyph-name="eth" unicode="&#xf0;" horiz-adv-x="1181" 
d="M514 -20q-99 0 -178.5 24.5t-139 75t-92 133.5t-32.5 193q0 161 60.5 293.5t174.5 213.5q113 82 275 82q173 0 262 -125h10q-18 205 -117 301l-231 -131l-88 148l200 112q-34 34 -124 80l118 187q139 -63 232 -140l237 132l76 -152l-192 -107q79 -102 112 -224t33 -281
q0 -135 -21.5 -254.5t-68 -223t-115 -178t-168.5 -117t-223 -42.5zM528 205q69 0 126.5 60.5t87.5 151t30 185.5q0 73 -37.5 120.5t-109.5 47.5q-80 0 -138.5 -60.5t-85 -148t-26.5 -184.5q0 -81 39.5 -126.5t113.5 -45.5z" />
    <glyph glyph-name="ntilde" unicode="&#xf1;" horiz-adv-x="1236" 
d="M338 0h-301l237 1118h230l-21 -207h9q72 109 157 168.5t195 59.5q140 0 214.5 -86t74.5 -236q0 -62 -23 -180l-133 -637h-301l137 653q16 75 16 119q0 123 -108 123q-98 0 -170 -119t-115 -313zM371 1239q59 309 280 309q44 0 87 -16t71 -36t61.5 -36t61.5 -16
q64 0 104 106h172q-34 -160 -105.5 -234.5t-180.5 -74.5q-56 0 -107.5 26.5t-95 52.5t-78.5 26q-67 0 -94 -107h-176z" />
    <glyph glyph-name="ograve" unicode="&#xf2;" horiz-adv-x="1198" 
d="M518 -20q-191 0 -309.5 116.5t-118.5 313.5q0 120 23 227.5t71.5 199.5t118 159t167 105t214.5 38q196 0 310 -117.5t114 -325.5q0 -145 -36 -271.5t-106 -227t-185.5 -159t-262.5 -58.5zM543 225q81 0 142 68.5t90.5 174t29.5 228.5q0 197 -143 197q-52 0 -97.5 -31
t-76 -81t-53 -114t-32.5 -129.5t-10 -127.5q0 -185 150 -185zM899 1241h-184q-69 66 -139.5 153.5t-102.5 153.5v21h311q38 -152 115 -303v-25z" />
    <glyph glyph-name="oacute" unicode="&#xf3;" horiz-adv-x="1198" 
d="M518 -20q-191 0 -309.5 116.5t-118.5 313.5q0 120 23 227.5t71.5 199.5t118 159t167 105t214.5 38q196 0 310 -117.5t114 -325.5q0 -145 -36 -271.5t-106 -227t-185.5 -159t-262.5 -58.5zM543 225q81 0 142 68.5t90.5 174t29.5 228.5q0 197 -143 197q-52 0 -97.5 -31
t-76 -81t-53 -114t-32.5 -129.5t-10 -127.5q0 -185 150 -185zM772 1241h-209v25q54 60 113 145q46 63 108 158h336v-17q-42 -52 -153 -150.5t-195 -160.5z" />
    <glyph glyph-name="ocircumflex" unicode="&#xf4;" horiz-adv-x="1198" 
d="M518 -20q-191 0 -309.5 116.5t-118.5 313.5q0 120 23 227.5t71.5 199.5t118 159t167 105t214.5 38q196 0 310 -117.5t114 -325.5q0 -145 -36 -271.5t-106 -227t-185.5 -159t-262.5 -58.5zM662 893q-52 0 -97.5 -31t-76 -81t-53 -114t-32.5 -129.5t-10 -127.5
q0 -185 150 -185q81 0 142 68.5t90.5 174t29.5 228.5q0 197 -143 197zM307 1266q205 189 295 303h338q53 -124 176 -303v-25h-198q-84 73 -162 168q-107 -88 -232 -168h-217v25z" />
    <glyph glyph-name="otilde" unicode="&#xf5;" horiz-adv-x="1198" 
d="M518 -20q-191 0 -309.5 116.5t-118.5 313.5q0 120 23 227.5t71.5 199.5t118 159t167 105t214.5 38q196 0 310 -117.5t114 -325.5q0 -145 -36 -271.5t-106 -227t-185.5 -159t-262.5 -58.5zM543 225q81 0 142 68.5t90.5 174t29.5 228.5q0 197 -143 197q-52 0 -97.5 -31
t-76 -81t-53 -114t-32.5 -129.5t-10 -127.5q0 -185 150 -185zM508 1239h-176q59 309 280 309q44 0 87 -16t71 -36t61.5 -36t61.5 -16q64 0 104 106h172q-34 -160 -105.5 -234.5t-180.5 -74.5q-56 0 -107.5 26.5t-95 52.5t-78.5 26q-67 0 -94 -107z" />
    <glyph glyph-name="odieresis" unicode="&#xf6;" horiz-adv-x="1198" 
d="M518 -20q-191 0 -309.5 116.5t-118.5 313.5q0 120 23 227.5t71.5 199.5t118 159t167 105t214.5 38q196 0 310 -117.5t114 -325.5q0 -145 -36 -271.5t-106 -227t-185.5 -159t-262.5 -58.5zM543 225q81 0 142 68.5t90.5 174t29.5 228.5q0 197 -143 197q-52 0 -97.5 -31
t-76 -81t-53 -114t-32.5 -129.5t-10 -127.5q0 -185 150 -185zM932 1272q-127 0 -127 110q0 75 39.5 116.5t111.5 41.5q125 0 125 -108q0 -75 -37 -117.5t-112 -42.5zM549 1272q-127 0 -127 110q0 75 39.5 116.5t111.5 41.5q125 0 125 -108q0 -74 -38 -117t-111 -43z" />
    <glyph glyph-name="divide" unicode="&#xf7;" horiz-adv-x="1171" 
d="M604 920q-61 0 -100 38t-39 113q0 80 38.5 116t100.5 36q61 0 100 -36.5t39 -115.5q0 -75 -39.5 -113t-99.5 -38zM1102 612h-993v219h993v-219zM604 221q-61 0 -100 38t-39 114q0 80 38 115.5t101 35.5q61 0 100 -36t39 -115q0 -75 -39.5 -113.5t-99.5 -38.5z" />
    <glyph glyph-name="oslash" unicode="&#xf8;" horiz-adv-x="1198" 
d="M293 33l-109 -135l-141 108l119 148q-72 110 -72 256q0 120 23 227.5t71.5 199.5t118 159t167 105t214.5 38q132 0 227 -56l70 88l145 -110l-84 -105q66 -111 66 -260q0 -145 -36 -271.5t-106 -227t-185.5 -159t-262.5 -58.5q-124 0 -225 53zM385 426l365 453
q-27 24 -88 24q-69 0 -123 -40.5t-84.5 -106.5t-47 -136.5t-20.5 -144.5q-2 -16 -2 -49zM543 215q65 0 117.5 41.5t83.5 108t48 136.5t21 140q2 14 2 41l-358 -444q32 -23 86 -23z" />
    <glyph glyph-name="ugrave" unicode="&#xf9;" horiz-adv-x="1236" 
d="M395 -20q-143 0 -213.5 84.5t-70.5 236.5q0 93 24 213l127 604h301l-137 -653q-16 -75 -16 -119q0 -123 108 -123q65 0 122.5 59.5t97.5 154.5t65 218l98 463h301l-237 -1118h-230l21 207h-11q-72 -109 -156 -168t-194 -59zM508 1569h311q38 -152 115 -303v-25h-184
q-69 66 -139.5 153.5t-102.5 153.5v21z" />
    <glyph glyph-name="uacute" unicode="&#xfa;" horiz-adv-x="1236" 
d="M111 301q0 93 24 213l127 604h301l-137 -653q-16 -75 -16 -119q0 -123 108 -123q65 0 122.5 59.5t97.5 154.5t65 218l98 463h301l-237 -1118h-230l21 207h-11q-72 -109 -156 -168t-194 -59q-143 0 -213.5 84.5t-70.5 236.5zM598 1241v25q83 93 221 303h336v-17
q-42 -52 -153 -150.5t-195 -160.5h-209z" />
    <glyph glyph-name="ucircumflex" unicode="&#xfb;" horiz-adv-x="1236" 
d="M111 301q0 93 24 213l127 604h301l-137 -653q-16 -75 -16 -119q0 -123 108 -123q65 0 122.5 59.5t97.5 154.5t65 218l98 463h301l-237 -1118h-230l21 207h-11q-72 -109 -156 -168t-194 -59q-143 0 -213.5 84.5t-70.5 236.5zM342 1241v25q205 189 295 303h338
q53 -124 176 -303v-25h-199q-80 70 -161 168q-107 -88 -232 -168h-217z" />
    <glyph glyph-name="udieresis" unicode="&#xfc;" horiz-adv-x="1236" 
d="M395 -20q-143 0 -213.5 84.5t-70.5 236.5q0 93 24 213l127 604h301l-137 -653q-16 -75 -16 -119q0 -123 108 -123q65 0 122.5 59.5t97.5 154.5t65 218l98 463h301l-237 -1118h-230l21 207h-11q-72 -109 -156 -168t-194 -59zM967 1272q-127 0 -127 110q0 75 39.5 116.5
t111.5 41.5q125 0 125 -108q0 -75 -37 -117.5t-112 -42.5zM584 1272q-127 0 -127 110q0 75 39.5 116.5t111.5 41.5q125 0 125 -108q0 -74 -38 -117t-111 -43z" />
    <glyph glyph-name="yacute" unicode="&#xfd;" horiz-adv-x="1062" 
d="M6 -492q-84 0 -147 19v240q76 -13 116 -13q88 0 150.5 51t114.5 146l26 49l-164 1118h295l56 -518q12 -110 12 -293h8q8 20 26 71t38.5 101.5t44.5 100.5l260 538h327l-680 -1278q-177 -332 -483 -332zM473 1241v25q83 93 221 303h336v-17q-42 -52 -153 -150.5
t-195 -160.5h-209z" />
    <glyph glyph-name="thorn" unicode="&#xfe;" horiz-adv-x="1218" 
d="M233 -492h-301l435 2048h301l-66 -307q-22 -109 -80 -280h8q129 170 283 170q145 0 230 -103.5t85 -304.5q0 -272 -122 -498q-140 -253 -379 -253q-174 0 -271 163h-8q-11 -151 -43 -295zM559 223q75 0 137 75t94.5 188t32.5 233q0 86 -37 131t-104 45q-89 0 -155 -97
t-93 -239q-14 -89 -14 -160q0 -82 34.5 -129t104.5 -47z" />
    <glyph glyph-name="ydieresis" unicode="&#xff;" horiz-adv-x="1062" 
d="M6 -492q-84 0 -147 19v240q76 -13 116 -13q88 0 150.5 51t114.5 146l26 49l-164 1118h295l56 -518q12 -110 12 -293h8q8 20 26 71t38.5 101.5t44.5 100.5l260 538h327l-680 -1278q-177 -332 -483 -332zM715 1382q0 75 39.5 116.5t111.5 41.5q125 0 125 -108
q0 -75 -37 -117.5t-112 -42.5q-127 0 -127 110zM332 1382q0 75 39.5 116.5t111.5 41.5q125 0 125 -108q0 -74 -38 -117t-111 -43q-127 0 -127 110z" />
    <glyph glyph-name="Amacron" unicode="&#x100;" horiz-adv-x="1286" 
d="M197 0h-320l766 1462h373l147 -1462h-297l-24 348h-473zM1161 1585h-618l45 211h618zM686 1004l-192 -396h333l-26 377q-12 160 -10 246h-5q-32 -88 -100 -227z" />
    <glyph glyph-name="amacron" unicode="&#x101;" horiz-adv-x="1216" 
d="M406 -20q-63 0 -118 22.5t-100.5 68.5t-71.5 126.5t-26 187.5q0 136 37.5 270.5t103 242t164.5 174.5t213 67q195 0 277 -164h8l57 143h232l-238 -1118h-225l14 145h-8q-135 -165 -319 -165zM524 223q88 0 161 101t99 239q15 73 15 168q0 73 -37.5 118.5t-102.5 45.5
q-71 0 -133 -75t-96.5 -189t-34.5 -232q0 -176 129 -176zM1053 1241h-619l45 211h619z" />
    <glyph glyph-name="Abreve" unicode="&#x102;" horiz-adv-x="1286" 
d="M197 0h-320l766 1462h373l147 -1462h-297l-24 348h-473zM530 1858q0 34 7 65h174q0 -125 153 -125q83 0 131 28t64 97h188q-55 -338 -393 -338q-87 0 -152 23t-101.5 63t-53.5 87t-17 100zM686 1004l-192 -396h333l-26 377q-12 160 -10 246h-5q-32 -88 -100 -227z" />
    <glyph glyph-name="abreve" unicode="&#x103;" horiz-adv-x="1216" 
d="M406 -20q-63 0 -118 22.5t-100.5 68.5t-71.5 126.5t-26 187.5q0 136 37.5 270.5t103 242t164.5 174.5t213 67q195 0 277 -164h8l57 143h232l-238 -1118h-225l14 145h-8q-135 -165 -319 -165zM395 399q0 -176 129 -176q88 0 161 101t99 239q15 73 15 168q0 73 -37.5 118.5
t-102.5 45.5q-71 0 -133 -75t-96.5 -189t-34.5 -232zM745 1241q-87 0 -152 23t-101 63t-53 86.5t-17 99.5q0 39 6 66h174q0 -125 154 -125q82 0 129.5 28t64.5 97h189q-55 -338 -394 -338z" />
    <glyph glyph-name="Aogonek" unicode="&#x104;" horiz-adv-x="1286" 
d="M197 0h-320l766 1462h373l147 -1462h-102q-46 -36 -72 -59t-58 -57t-46.5 -67t-14.5 -67q0 -59 60 -59q39 0 102 18v-176q-87 -25 -164 -25q-102 0 -161.5 53.5t-59.5 141.5q0 93 55 161.5t160 135.5h4l-24 348h-473zM494 608h333l-26 377q-12 160 -10 246h-5
q-32 -88 -100 -227z" />
    <glyph glyph-name="aogonek" unicode="&#x105;" horiz-adv-x="1216" 
d="M406 -20q-63 0 -118 22.5t-100.5 68.5t-71.5 126.5t-26 187.5q0 136 37.5 270.5t103 242t164.5 174.5t213 67q195 0 277 -164h8l57 143h232l-238 -1118h-26q-46 -36 -72 -59t-58 -57t-46.5 -67t-14.5 -67q0 -59 59 -59q40 0 103 18v-176q-87 -25 -164 -25
q-102 0 -161.5 53.5t-59.5 141.5q0 93 55 161.5t160 135.5l14 145h-8q-135 -165 -319 -165zM395 399q0 -176 129 -176q88 0 161 101t99 239q15 73 15 168q0 73 -37.5 118.5t-102.5 45.5q-71 0 -133 -75t-96.5 -189t-34.5 -232z" />
    <glyph glyph-name="Cacute" unicode="&#x106;" horiz-adv-x="1253" 
d="M659 -20q-267 0 -401 155q-135 156 -135 418q0 132 28.5 261.5t91 251.5t152 214.5t221.5 148.5t289 56q136 0 233 -24.5t197 -80.5l-118 -250q-162 97 -312 97q-95 0 -174.5 -41t-133.5 -108t-91.5 -154t-54.5 -177t-17 -178q0 -167 69.5 -248t217.5 -81q153 0 338 77
v-260q-191 -77 -400 -77zM963 1585h-209v25q50 55 112 145q58 80 109 158h336v-17q-42 -52 -153 -150.5t-195 -160.5z" />
    <glyph glyph-name="cacute" unicode="&#x107;" horiz-adv-x="989" 
d="M506 -20q-90 0 -163.5 23t-131 70.5t-89.5 128.5t-32 189q0 151 40 285.5t113.5 238t187 164t251.5 60.5q187 0 328 -72l-92 -229q-45 19 -72.5 29.5t-69 19t-82.5 8.5q-93 0 -160 -68t-104 -184q-35 -113 -35 -227q0 -96 44.5 -144.5t127.5 -48.5q69 0 132 20.5
t143 61.5v-246q-155 -79 -336 -79zM741 1241h-209v25q54 60 113 145q58 80 109 158h336v-17q-41 -52 -153 -150t-196 -161z" />
    <glyph glyph-name="Ccircumflex" unicode="&#x108;" horiz-adv-x="1253" 
d="M123 553q0 132 28.5 261.5t91 251.5t152 214.5t221.5 148.5t289 56q136 0 233 -24.5t197 -80.5l-118 -250q-162 97 -312 97q-95 0 -174.5 -41t-133.5 -108t-91.5 -154t-54.5 -177t-17 -178q0 -167 69.5 -248t217.5 -81q153 0 338 77v-260q-191 -77 -400 -77
q-261 0 -398.5 152.5t-137.5 420.5zM498 1585v25q205 189 295 303h337q51 -120 177 -303v-25h-199q-84 73 -162 168q-111 -91 -231 -168h-217z" />
    <glyph glyph-name="ccircumflex" unicode="&#x109;" horiz-adv-x="989" 
d="M506 -20q-90 0 -163.5 23t-131 70.5t-89.5 128.5t-32 189q0 151 40 285.5t113.5 238t187 164t251.5 60.5q187 0 328 -72l-92 -229q-45 19 -72.5 29.5t-69 19t-82.5 8.5q-92 0 -162 -72t-103.5 -179.5t-33.5 -227.5q0 -96 44.5 -144.5t127.5 -48.5q69 0 132 20.5t143 61.5
v-246q-155 -79 -336 -79zM276 1266q205 189 295 303h338q53 -124 176 -303v-25h-198q-84 73 -162 168q-111 -91 -231 -168h-218v25z" />
    <glyph glyph-name="Cdotaccent" unicode="&#x10a;" horiz-adv-x="1253" 
d="M659 -20q-267 0 -401 155q-135 156 -135 418q0 132 28.5 261.5t91 251.5t152 214.5t221.5 148.5t289 56q136 0 233 -24.5t197 -80.5l-118 -250q-162 97 -312 97q-95 0 -174.5 -41t-133.5 -108t-91.5 -154t-54.5 -177t-17 -178q0 -167 69.5 -248t217.5 -81q153 0 338 77
v-260q-191 -77 -400 -77zM930 1602q-152 0 -152 122q0 86 48 131.5t135 45.5q66 0 107.5 -29t41.5 -92q0 -82 -45.5 -130t-134.5 -48z" />
    <glyph glyph-name="cdotaccent" unicode="&#x10b;" horiz-adv-x="989" 
d="M506 -20q-90 0 -163.5 23t-131 70.5t-89.5 128.5t-32 189q0 151 40 285.5t113.5 238t187 164t251.5 60.5q187 0 328 -72l-92 -229q-45 19 -72.5 29.5t-69 19t-82.5 8.5q-93 0 -160 -68t-104 -184q-35 -113 -35 -227q0 -96 44.5 -144.5t127.5 -48.5q69 0 132 20.5
t143 61.5v-246q-155 -79 -336 -79zM709 1257q-152 0 -152 123q0 86 47.5 131t134.5 45q67 0 108.5 -28.5t41.5 -91.5q0 -83 -45.5 -131t-134.5 -48z" />
    <glyph glyph-name="Ccaron" unicode="&#x10c;" horiz-adv-x="1253" 
d="M659 -20q-261 0 -398.5 152.5t-137.5 420.5q0 132 28.5 261.5t91 251.5t152 214.5t221.5 148.5t289 56q136 0 233 -24.5t197 -80.5l-118 -250q-162 97 -312 97q-95 0 -174.5 -41t-133.5 -108t-91.5 -154t-54.5 -177t-17 -178q0 -167 69.5 -248t217.5 -81q153 0 338 77
v-260q-191 -77 -400 -77zM573 1913h199q84 -73 162 -168q111 91 231 168h217v-25q-63 -56 -153 -148.5t-142 -154.5h-337q-51 120 -177 303v25z" />
    <glyph glyph-name="ccaron" unicode="&#x10d;" horiz-adv-x="989" 
d="M506 -20q-90 0 -163.5 23t-131 70.5t-89.5 128.5t-32 189q0 151 40 285.5t113.5 238t187 164t251.5 60.5q187 0 328 -72l-92 -229q-45 19 -72.5 29.5t-69 19t-82.5 8.5q-92 0 -162 -72t-103.5 -179.5t-33.5 -227.5q0 -96 44.5 -144.5t127.5 -48.5q69 0 132 20.5t143 61.5
v-246q-155 -79 -336 -79zM528 1241q-53 124 -176 303v25h199q84 -73 162 -168q111 91 231 168h217v-25q-63 -56 -153 -148.5t-142 -154.5h-338z" />
    <glyph glyph-name="Dcaron" unicode="&#x10e;" horiz-adv-x="1386" 
d="M504 0h-451l309 1462h396q270 0 417.5 -143t147.5 -410q0 -208 -54.5 -376t-158 -286.5t-258 -182.5t-348.5 -64zM614 1208l-202 -952h106q122 0 218 52t154.5 141t89 202t30.5 242q0 158 -73.5 236.5t-207.5 78.5h-115zM559 1913h199q84 -73 162 -168q111 91 231 168
h217v-25q-63 -56 -153 -148.5t-142 -154.5h-338q-53 124 -176 303v25z" />
    <glyph glyph-name="dcaron" unicode="&#x10f;" horiz-adv-x="1382" 
d="M406 -20q-64 0 -118.5 22t-100 68.5t-71.5 127.5t-26 189q0 136 37.5 270t103 241.5t164.5 174t213 66.5q93 0 152 -43t102 -121h8q0 7 3 42.5t10 89.5t14 91l76 358h301l-330 -1556h-229l18 145h-8q-135 -165 -319 -165zM395 399q0 -176 137 -176q66 0 120 54.5
t84.5 135.5t46.5 161.5t16 144.5q0 80 -37.5 128t-102.5 48q-71 0 -133 -75t-96.5 -189t-34.5 -232zM1288 1229v26q88 181 125 301h283v-20q-74 -136 -228 -307h-180z" />
    <glyph glyph-name="Dcroat" unicode="&#x110;" horiz-adv-x="1386" 
d="M37 596l55 254h139l131 612h396q270 0 417.5 -143t147.5 -410q0 -208 -54.5 -376t-158 -286.5t-258 -182.5t-348.5 -64h-451l125 596h-141zM412 256h106q122 0 218 52t154.5 141t89 202t30.5 242q0 158 -73.5 236.5t-207.5 78.5h-115l-75 -358h237l-55 -254h-238z" />
    <glyph glyph-name="dcroat" unicode="&#x111;" horiz-adv-x="1216" 
d="M90 387q0 92 19.5 186.5t61.5 185.5t100.5 161.5t142.5 113.5t182 43q175 0 258 -149h8q0 66 19 178l16 90h-295l41 199h295l35 161h301l-35 -161h154l-41 -199h-156l-252 -1196h-225l14 145h-8q-65 -77 -137 -121t-172 -44q-146 0 -236 104t-90 303zM395 399
q0 -86 37.5 -131t104.5 -45q60 0 111 45.5t82.5 115t49 146t17.5 144.5q0 75 -34 117.5t-104 42.5q-76 0 -138 -66t-94 -165t-32 -204z" />
    <glyph glyph-name="Emacron" unicode="&#x112;" horiz-adv-x="1110" 
d="M870 0h-817l309 1462h818l-54 -254h-512l-67 -321h477l-55 -254h-477l-80 -377h512zM1079 1585h-618l45 211h618z" />
    <glyph glyph-name="emacron" unicode="&#x113;" horiz-adv-x="1140" 
d="M532 -20q-198 0 -319 106q-123 108 -123 326q0 113 25 219.5t77 198.5t125.5 161t175.5 108.5t222 39.5q181 0 278 -83.5t97 -221.5q0 -182 -163 -286t-481 -104h-51q-2 -16 -2 -41q0 -92 51.5 -144t147.5 -52q87 0 158.5 19t171.5 67v-227q-177 -86 -390 -86zM428 647
h45q164 0 246 51t82 129q0 95 -105 95q-86 0 -163.5 -77.5t-104.5 -197.5zM1028 1241h-618l45 211h618z" />
    <glyph glyph-name="Ebreve" unicode="&#x114;" horiz-adv-x="1110" 
d="M53 0l309 1462h818l-54 -254h-512l-67 -321h477l-55 -254h-477l-80 -377h512l-54 -256h-817zM449 1858q0 38 6 65h174q0 -125 153 -125q83 0 131 28t64 97h188q-55 -338 -393 -338q-87 0 -152 23t-101 63t-53 87t-17 100z" />
    <glyph glyph-name="ebreve" unicode="&#x115;" horiz-adv-x="1140" 
d="M90 412q0 113 25 219.5t77 198.5t125.5 161t175.5 108.5t222 39.5q181 0 278 -83.5t97 -221.5q0 -182 -163 -286t-481 -104h-51q-2 -16 -2 -41q0 -92 51.5 -144t147.5 -52q87 0 158.5 19t171.5 67v-227q-177 -86 -390 -86q-204 0 -323 109.5t-119 322.5zM721 1241
q-87 0 -152 23t-101.5 63t-53.5 86.5t-17 99.5q0 39 6 66h175q0 -125 153 -125q83 0 131 28t64 97h188q-55 -338 -393 -338zM428 647h45q164 0 246 51t82 129q0 95 -105 95q-86 0 -163.5 -77.5t-104.5 -197.5z" />
    <glyph glyph-name="Edotaccent" unicode="&#x116;" horiz-adv-x="1110" 
d="M870 0h-817l309 1462h818l-54 -254h-512l-67 -321h477l-55 -254h-477l-80 -377h512zM791 1602q-152 0 -152 122q0 86 47.5 131.5t134.5 45.5q66 0 108 -29t42 -92q0 -82 -45.5 -130t-134.5 -48z" />
    <glyph glyph-name="edotaccent" unicode="&#x117;" horiz-adv-x="1140" 
d="M532 -20q-198 0 -319 106q-123 108 -123 326q0 113 25 219.5t77 198.5t125.5 161t175.5 108.5t222 39.5q181 0 278 -83.5t97 -221.5q0 -182 -163 -286t-481 -104h-51q-2 -16 -2 -41q0 -92 51.5 -144t147.5 -52q87 0 158.5 19t171.5 67v-227q-177 -86 -390 -86zM428 647
h45q164 0 246 51t82 129q0 95 -105 95q-86 0 -163.5 -77.5t-104.5 -197.5zM739 1257q-151 0 -151 123q0 86 47.5 131t134.5 45q66 0 108 -28.5t42 -91.5q0 -82 -46 -130.5t-135 -48.5z" />
    <glyph glyph-name="Eogonek" unicode="&#x118;" horiz-adv-x="1110" 
d="M598 0h-545l309 1462h818l-54 -254h-512l-67 -321h477l-55 -254h-477l-80 -377h512l-54 -256h-73q-46 -36 -72 -59t-58 -57t-46.5 -67t-14.5 -67q0 -59 60 -59q39 0 102 18v-176q-87 -25 -164 -25q-102 0 -161.5 53.5t-59.5 141.5q0 93 55 161.5t160 135.5z" />
    <glyph glyph-name="eogonek" unicode="&#x119;" horiz-adv-x="1140" 
d="M532 -20q-198 0 -319 106q-123 108 -123 326q0 113 25 219.5t77 198.5t125.5 161t175.5 108.5t222 39.5q181 0 278 -83.5t97 -221.5q0 -182 -163 -286t-481 -104h-51q-2 -16 -2 -41q0 -92 51.5 -144t147.5 -52q87 0 158.5 19t171.5 67v-227q-8 -3 -34.5 -15t-39.5 -18
q-110 -87 -164.5 -153t-54.5 -130q0 -59 59 -59q40 0 103 18v-176q-87 -25 -164 -25q-102 0 -161.5 53.5t-59.5 141.5q0 86 47.5 150.5t138.5 128.5q-18 -2 -60 -2zM428 647h45q164 0 246 51t82 129q0 95 -105 95q-86 0 -163.5 -77.5t-104.5 -197.5z" />
    <glyph glyph-name="Ecaron" unicode="&#x11a;" horiz-adv-x="1110" 
d="M870 0h-817l309 1462h818l-54 -254h-512l-67 -321h477l-55 -254h-477l-80 -377h512zM610 1585q-53 124 -176 303v25h199q84 -73 162 -168q111 91 231 168h217v-25q-63 -56 -153 -148.5t-142 -154.5h-338z" />
    <glyph glyph-name="ecaron" unicode="&#x11b;" horiz-adv-x="1140" 
d="M90 412q0 113 25 219.5t77 198.5t125.5 161t175.5 108.5t222 39.5q181 0 278 -83.5t97 -221.5q0 -182 -163 -286t-481 -104h-51q-2 -16 -2 -41q0 -92 51.5 -144t147.5 -52q87 0 158.5 19t171.5 67v-227q-177 -86 -390 -86q-204 0 -323 109.5t-119 322.5zM383 1569h199
q80 -70 161 -168q107 88 232 168h217v-25q-63 -56 -153 -148.5t-142 -154.5h-338q-53 124 -176 303v25zM428 647h45q164 0 246 51t82 129q0 95 -105 95q-86 0 -163.5 -77.5t-104.5 -197.5z" />
    <glyph glyph-name="Gcircumflex" unicode="&#x11c;" horiz-adv-x="1413" 
d="M123 549q0 150 34.5 288t105.5 256t171 205.5t240 137t305 49.5q219 0 410 -99l-115 -251q-157 88 -309 88q-104 0 -192.5 -38.5t-149.5 -102.5t-104.5 -148.5t-64 -176t-20.5 -184.5q0 -167 71 -250t224 -83q72 0 170 24l66 299h-267l56 258h563l-162 -762
q-111 -39 -223 -59t-268 -20q-256 0 -398.5 147t-142.5 422zM535 1585v25q201 186 294 303h338q53 -124 176 -303v-25h-198q-84 73 -162 168q-111 -91 -231 -168h-217z" />
    <glyph glyph-name="gcircumflex" unicode="&#x11d;" horiz-adv-x="1216" 
d="M27 -158q163 -86 348 -86q105 0 170 48.5t94 150.5l8 31q7 30 20 72t21.5 67.5t7.5 24.5h-8q-63 -80 -132 -125t-165 -45q-129 0 -215 102.5t-86 302.5q0 136 38 270.5t103 242t163 174.5t208 67q102 0 165 -40.5t118 -123.5h8l57 143h232l-244 -1145q-53 -251 -191 -358
t-356 -107q-119 0 -202 17.5t-162 54.5v262zM395 399q0 -86 37.5 -131t104.5 -45q60 0 111.5 49t83 124t49.5 160t18 163q0 80 -37 128t-100 48q-73 0 -135.5 -75t-97 -188.5t-34.5 -232.5zM326 1266q205 189 295 303h337q51 -120 177 -303v-25h-199q-84 73 -162 168
q-111 -91 -231 -168h-217v25z" />
    <glyph glyph-name="Gbreve" unicode="&#x11e;" horiz-adv-x="1413" 
d="M123 549q0 150 34.5 288t105.5 256t171 205.5t240 137t305 49.5q219 0 410 -99l-115 -251q-157 88 -309 88q-104 0 -192.5 -38.5t-149.5 -102.5t-104.5 -148.5t-64 -176t-20.5 -184.5q0 -167 71 -250t224 -83q72 0 170 24l66 299h-267l56 258h563l-162 -762
q-111 -39 -223 -59t-268 -20q-256 0 -398.5 147t-142.5 422zM948 1585q-87 0 -152 23t-101 63t-53 87t-17 100q0 38 6 65h174q0 -125 153 -125q83 0 131 28t64 97h188q-55 -338 -393 -338z" />
    <glyph glyph-name="gbreve" unicode="&#x11f;" horiz-adv-x="1216" 
d="M27 -158q163 -86 348 -86q105 0 170 48.5t94 150.5l8 31q7 30 20 72t21.5 67.5t7.5 24.5h-8q-63 -80 -132 -125t-165 -45q-129 0 -215 102.5t-86 302.5q0 136 38 270.5t103 242t163 174.5t208 67q102 0 165 -40.5t118 -123.5h8l57 143h232l-244 -1145q-53 -251 -191 -358
t-356 -107q-119 0 -202 17.5t-162 54.5v262zM395 399q0 -86 37.5 -131t104.5 -45q60 0 111.5 49t83 124t49.5 160t18 163q0 80 -37 128t-100 48q-73 0 -135.5 -75t-97 -188.5t-34.5 -232.5zM739 1241q-87 0 -152 23t-101 63t-53 86.5t-17 99.5q0 39 6 66h174
q0 -125 154 -125q82 0 129.5 28t64.5 97h189q-55 -338 -394 -338z" />
    <glyph glyph-name="Gdotaccent" unicode="&#x120;" horiz-adv-x="1413" 
d="M664 -20q-256 0 -398.5 147t-142.5 422q0 150 34.5 288t105.5 256t171 205.5t240 137t305 49.5q219 0 410 -99l-115 -251q-157 88 -309 88q-104 0 -192.5 -38.5t-149.5 -102.5t-104.5 -148.5t-64 -176t-20.5 -184.5q0 -167 71 -250t224 -83q72 0 170 24l66 299h-267
l56 258h563l-162 -762q-111 -39 -223 -59t-268 -20zM967 1602q-152 0 -152 122q0 86 47.5 131.5t134.5 45.5q66 0 108 -29t42 -92q0 -82 -45.5 -130t-134.5 -48z" />
    <glyph glyph-name="gdotaccent" unicode="&#x121;" horiz-adv-x="1216" 
d="M391 -492q-119 0 -202 17.5t-162 54.5v262q163 -86 348 -86q105 0 170 48.5t94 150.5l8 31q7 30 20 72t21.5 67.5t7.5 24.5h-8q-63 -80 -132 -125t-165 -45q-129 0 -215 102.5t-86 302.5q0 136 38 270.5t103 242t163 174.5t208 67q102 0 165 -40.5t118 -123.5h8l57 143
h232l-244 -1145q-53 -251 -191 -358t-356 -107zM537 223q60 0 111.5 49t83 124t49.5 160t18 163q0 80 -37 128t-100 48q-73 0 -135.5 -75t-97 -188.5t-34.5 -232.5q0 -86 37.5 -131t104.5 -45zM758 1257q-152 0 -152 123q0 86 47.5 131t134.5 45q67 0 108.5 -28.5
t41.5 -91.5q0 -83 -45.5 -131t-134.5 -48z" />
    <glyph glyph-name="uni0122" unicode="&#x122;" horiz-adv-x="1413" 
d="M664 -20q-256 0 -398.5 147t-142.5 422q0 150 34.5 288t105.5 256t171 205.5t240 137t305 49.5q219 0 410 -99l-115 -251q-157 88 -309 88q-104 0 -192.5 -38.5t-149.5 -102.5t-104.5 -148.5t-64 -176t-20.5 -184.5q0 -167 71 -250t224 -83q72 0 170 24l66 299h-267
l56 258h563l-162 -762q-111 -39 -223 -59t-268 -20zM596 -453h-180v27q74 155 125 301h282v-20q-77 -141 -227 -308z" />
    <glyph glyph-name="uni0123" unicode="&#x123;" horiz-adv-x="1216" 
d="M391 -492q-119 0 -202 17.5t-162 54.5v262q163 -86 348 -86q105 0 170 48.5t94 150.5l8 31q7 30 20 72t21.5 67.5t7.5 24.5h-8q-63 -80 -132 -125t-165 -45q-129 0 -215 102.5t-86 302.5q0 136 38 270.5t103 242t163 174.5t208 67q102 0 165 -40.5t118 -123.5h8l57 143
h232l-244 -1145q-53 -251 -191 -358t-356 -107zM537 223q60 0 111.5 49t83 124t49.5 160t18 163q0 80 -37 128t-100 48q-73 0 -135.5 -75t-97 -188.5t-34.5 -232.5q0 -86 37.5 -131t104.5 -45zM870 1241h-282v21q75 139 227 307h180v-27q-74 -155 -125 -301z" />
    <glyph glyph-name="Hcircumflex" unicode="&#x124;" horiz-adv-x="1433" 
d="M358 0h-305l309 1462h306l-121 -573h471l121 573h305l-309 -1462h-306l134 631h-471zM506 1610q205 189 295 303h338q53 -124 176 -303v-25h-199q-84 73 -162 168q-111 -91 -231 -168h-217v25z" />
    <glyph glyph-name="hcircumflex" unicode="&#x125;" horiz-adv-x="1236" 
d="M37 0l330 1556h301l-58 -270q-12 -55 -33.5 -133.5t-37 -129.5t-17.5 -54h8q139 170 314 170q140 0 214.5 -86t74.5 -236q0 -62 -23 -180l-133 -637h-301l137 653q16 75 16 119q0 123 -108 123q-98 0 -170 -119t-115 -313l-98 -463h-301zM125 1704q205 189 295 303h338
q53 -124 176 -303v-25h-199q-84 73 -162 168q-111 -91 -231 -168h-217v25z" />
    <glyph glyph-name="Hbar" unicode="&#x126;" horiz-adv-x="1433" 
d="M358 0h-305l226 1069h-177l41 199h179l40 194h306l-41 -194h471l41 194h305l-41 -194h178l-41 -199h-180l-225 -1069h-306l134 631h-471zM547 889h471l37 180h-471z" />
    <glyph glyph-name="hbar" unicode="&#x127;" horiz-adv-x="1236" 
d="M37 0l254 1196h-162l43 199h160l35 161h301l-33 -161h299l-43 -199h-299q-46 -184 -80 -289h8q139 170 311 170q140 0 214.5 -85.5t74.5 -235.5q0 -68 -22 -181l-121 -575h-301l125 592q16 75 16 119q0 123 -106 123q-98 0 -171 -119.5t-116 -313.5l-86 -401h-301z" />
    <glyph glyph-name="Itilde" unicode="&#x128;" horiz-adv-x="784" 
d="M588 0h-647l36 176l187 82l201 946l-152 82l37 176h647l-37 -176l-190 -82l-201 -946l156 -82zM377 1583h-176q59 309 280 309q44 0 87 -16t71 -36t61.5 -36t61.5 -16q64 0 104 106h172q-34 -160 -105.5 -234.5t-180.5 -74.5q-56 0 -107.5 26.5t-95 52.5t-78.5 26
q-67 0 -94 -107z" />
    <glyph glyph-name="itilde" unicode="&#x129;" horiz-adv-x="608" 
d="M338 0h-301l237 1118h301zM229 1239h-176q59 309 281 309q56 0 108 -26t95 -52t77 -26q65 0 105 106h172q-66 -309 -287 -309q-44 0 -86.5 16.5t-70 36t-61 36t-62.5 16.5q-68 0 -95 -107z" />
    <glyph glyph-name="Imacron" unicode="&#x12a;" horiz-adv-x="784" 
d="M588 0h-647l36 176l187 82l201 946l-152 82l37 176h647l-37 -176l-190 -82l-201 -946l156 -82zM897 1585h-618l45 211h618z" />
    <glyph glyph-name="imacron" unicode="&#x12b;" horiz-adv-x="608" 
d="M338 0h-301l237 1118h301zM750 1241h-619l45 211h619z" />
    <glyph glyph-name="Ibreve" unicode="&#x12c;" horiz-adv-x="784" 
d="M-59 0l36 176l187 82l201 946l-152 82l37 176h647l-37 -176l-190 -82l-201 -946l156 -82l-37 -176h-647zM266 1858q0 38 6 65h174q0 -125 154 -125q83 0 131 28t64 97h188q-55 -338 -393 -338q-87 0 -152 23t-101.5 63t-53.5 87t-17 100z" />
    <glyph glyph-name="ibreve" unicode="&#x12d;" horiz-adv-x="608" 
d="M37 0l237 1118h301l-237 -1118h-301zM119 1513q0 39 6 66h174q0 -125 154 -125q82 0 129.5 28t64.5 97h189q-55 -338 -394 -338q-87 0 -152 23t-101 63t-53 86.5t-17 99.5z" />
    <glyph glyph-name="Iogonek" unicode="&#x12e;" horiz-adv-x="784" 
d="M-59 0l36 176l187 82l201 946l-152 82l37 176h647l-37 -176l-190 -82l-201 -946l156 -82l-37 -176h-117q-45 -36 -71.5 -59t-58 -57t-46 -67t-14.5 -67q0 -59 59 -59q39 0 102 18v-176q-88 -25 -163 -25q-102 0 -162 53.5t-60 141.5q0 93 55 161.5t160 135.5h-331z" />
    <glyph glyph-name="iogonek" unicode="&#x12f;" horiz-adv-x="608" 
d="M147 -492q-102 0 -161.5 53.5t-59.5 141.5q0 93 55 161.5t160 135.5h-104l237 1118h301l-237 -1118h2q-45 -36 -71.5 -59t-58 -57t-46 -67t-14.5 -67q0 -59 59 -59q39 0 102 18v-176q-87 -25 -164 -25zM322 1380q0 86 47.5 131t134.5 45q66 0 107.5 -28.5t41.5 -91.5
q0 -83 -45.5 -131t-134.5 -48q-68 0 -109.5 29.5t-41.5 93.5z" />
    <glyph glyph-name="Idotaccent" unicode="&#x130;" horiz-adv-x="784" 
d="M588 0h-647l36 176l187 82l201 946l-152 82l37 176h647l-37 -176l-190 -82l-201 -946l156 -82zM608 1602q-151 0 -151 122q0 86 47.5 131.5t134.5 45.5q66 0 107.5 -29t41.5 -92q0 -82 -45.5 -130t-134.5 -48z" />
    <glyph glyph-name="dotlessi" unicode="&#x131;" horiz-adv-x="608" 
d="M338 0h-301l237 1118h301z" />
    <glyph glyph-name="IJ" unicode="&#x132;" horiz-adv-x="1462" 
d="M649 -430q-91 0 -186 27v253q94 -20 164 -20q199 0 250 252l292 1380h306l-304 -1423q-53 -249 -178 -359t-344 -110zM-59 0l36 176l187 82l201 946l-152 82l37 176h647l-37 -176l-190 -82l-201 -946l156 -82l-37 -176h-647z" />
    <glyph glyph-name="ij" unicode="&#x133;" horiz-adv-x="1216" 
d="M518 -492q-101 0 -174 25v242q62 -21 115 -21q64 0 109 42.5t63 127.5l254 1194h301l-264 -1239q-18 -82 -47 -145.5t-76 -116t-118 -81t-163 -28.5zM338 0h-301l237 1118h301zM932 1380q0 86 47.5 131t134.5 45q66 0 108 -28.5t42 -91.5q0 -82 -46 -130.5t-135 -48.5
q-151 0 -151 123zM473 1257q-68 0 -109.5 29.5t-41.5 93.5q0 86 47.5 131t134.5 45q66 0 107.5 -28.5t41.5 -91.5q0 -83 -45.5 -131t-134.5 -48z" />
    <glyph glyph-name="Jcircumflex" unicode="&#x134;" horiz-adv-x="677" 
d="M-322 -403v253q94 -20 164 -20q199 0 250 252l293 1380h305l-303 -1423q-53 -249 -178 -359t-344 -110q-93 0 -187 27zM354 1585h-217v25q205 189 295 303h338q53 -124 176 -303v-25h-198q-84 73 -162 168q-107 -88 -232 -168z" />
    <glyph glyph-name="jcircumflex" unicode="&#x135;" horiz-adv-x="608" 
d="M-262 -467v242q61 -21 115 -21q64 0 109 42.5t63 127.5l254 1194h301l-265 -1239q-16 -81 -45.5 -145t-77 -116.5t-118.5 -81t-162 -28.5q-101 0 -174 25zM244 1241h-217v25q205 189 295 303h337q51 -120 177 -303v-25h-199q-84 73 -162 168q-111 -91 -231 -168z" />
    <glyph glyph-name="uni0136" unicode="&#x136;" horiz-adv-x="1255" 
d="M358 0h-305l309 1462h306l-154 -706l156 209l413 497h361l-594 -700l291 -762h-338l-211 592l-125 -70zM293 -453v27q68 140 125 301h282v-20q-77 -141 -227 -308h-180z" />
    <glyph glyph-name="uni0137" unicode="&#x137;" horiz-adv-x="1163" 
d="M37 0l330 1556h301l-148 -694q-8 -39 -33 -121.5t-28 -97.5h8l453 475h344l-498 -504l285 -614h-336l-183 420l-120 -72l-74 -348h-301zM242 -453v27q68 140 125 301h282v-20q-77 -141 -227 -308h-180z" />
    <glyph glyph-name="kgreenlandic" unicode="&#x138;" horiz-adv-x="1163" 
d="M37 0l237 1118h301l-55 -246q-23 -104 -65 -235h8l457 481h344l-498 -504l285 -614h-336l-183 420l-120 -72l-74 -348h-301z" />
    <glyph glyph-name="Lacute" unicode="&#x139;" horiz-adv-x="1060" 
d="M870 0h-817l309 1462h306l-256 -1206h512zM645 1585h-209v25q54 60 113 145q46 63 108 158h336v-17q-42 -52 -153 -150.5t-195 -160.5z" />
    <glyph glyph-name="lacute" unicode="&#x13a;" horiz-adv-x="608" 
d="M338 0h-301l330 1556h301zM590 1679h-209v25q54 60 113 145q46 63 108 158h336v-16q-42 -52 -153.5 -151t-194.5 -161z" />
    <glyph glyph-name="uni013B" unicode="&#x13b;" horiz-adv-x="1060" 
d="M870 0h-817l309 1462h306l-256 -1206h512zM381 -453h-180v27q74 155 125 301h282v-20q-77 -141 -227 -308z" />
    <glyph glyph-name="uni013C" unicode="&#x13c;" horiz-adv-x="608" 
d="M338 0h-301l330 1556h301zM102 -453h-180v27q74 155 125 301h283v-20q-75 -138 -228 -308z" />
    <glyph glyph-name="Lcaron" unicode="&#x13d;" horiz-adv-x="1060" 
d="M870 0h-817l309 1462h306l-256 -1206h512zM946 1130h-180v27q94 198 125 301h283v-20q-75 -138 -228 -308z" />
    <glyph glyph-name="lcaron" unicode="&#x13e;" horiz-adv-x="768" 
d="M338 0h-301l330 1556h301zM674 1229v26q88 181 125 301h282v-20q-75 -139 -227 -307h-180z" />
    <glyph glyph-name="Ldot" unicode="&#x13f;" horiz-adv-x="1060" 
d="M870 0h-817l309 1462h306l-256 -1206h512zM846 600q-152 0 -152 123q0 85 48 130.5t135 45.5q66 0 107.5 -29t41.5 -92q0 -82 -45.5 -130t-134.5 -48z" />
    <glyph glyph-name="ldot" unicode="&#x140;" horiz-adv-x="888" 
d="M338 0h-301l330 1556h301zM762 545q-152 0 -152 123q0 85 48 130.5t135 45.5q66 0 107.5 -29t41.5 -92q0 -82 -45.5 -130t-134.5 -48z" />
    <glyph glyph-name="Lslash" unicode="&#x141;" horiz-adv-x="1060" 
d="M870 0h-815l103 481l-58 -30l-102 202l221 119l146 690h303l-107 -506l141 78l107 -203l-311 -167l-86 -408h512z" />
    <glyph glyph-name="lslash" unicode="&#x142;" horiz-adv-x="669" 
d="M360 0h-297l99 467l-60 -33l-102 203l223 121l170 798h297l-131 -620l64 37l106 -203l-231 -125z" />
    <glyph glyph-name="Nacute" unicode="&#x143;" horiz-adv-x="1546" 
d="M328 0h-275l309 1462h357l340 -1077h8q35 237 68 385l147 692h274l-309 -1462h-342l-356 1106h-10q-30 -233 -66 -418zM838 1585v25q83 93 221 303h336v-17q-42 -52 -153 -150.5t-195 -160.5h-209z" />
    <glyph glyph-name="nacute" unicode="&#x144;" horiz-adv-x="1236" 
d="M338 0h-301l237 1118h230l-21 -207h9q72 109 157 168.5t195 59.5q140 0 214.5 -86t74.5 -236q0 -62 -23 -180l-133 -637h-301l137 653q16 75 16 119q0 123 -108 123q-98 0 -170 -119t-115 -313zM602 1266q83 93 221 303h336v-17q-42 -52 -153 -150.5t-195 -160.5h-209v25
z" />
    <glyph glyph-name="uni0145" unicode="&#x145;" horiz-adv-x="1546" 
d="M328 0h-275l309 1462h357l340 -1077h8q35 237 68 385l147 692h274l-309 -1462h-342l-356 1106h-10q-30 -233 -66 -418zM373 -426q68 140 125 301h282v-20q-77 -141 -227 -308h-180v27z" />
    <glyph glyph-name="uni0146" unicode="&#x146;" horiz-adv-x="1236" 
d="M338 0h-301l237 1118h230l-21 -207h9q72 109 157 168.5t195 59.5q140 0 214.5 -86t74.5 -236q0 -62 -23 -180l-133 -637h-301l137 653q16 75 16 119q0 123 -108 123q-98 0 -170 -119t-115 -313zM248 -426q68 140 125 301h282v-20q-77 -141 -227 -308h-180v27z" />
    <glyph glyph-name="Ncaron" unicode="&#x147;" horiz-adv-x="1546" 
d="M328 0h-275l309 1462h357l340 -1077h8q35 237 68 385l147 692h274l-309 -1462h-342l-356 1106h-10q-30 -233 -66 -418zM657 1888v25h199q84 -73 162 -168q111 91 231 168h217v-25q-63 -56 -153 -148.5t-142 -154.5h-337q-51 120 -177 303z" />
    <glyph glyph-name="ncaron" unicode="&#x148;" horiz-adv-x="1236" 
d="M338 0h-301l237 1118h230l-21 -207h9q72 109 157 168.5t195 59.5q140 0 214.5 -86t74.5 -236q0 -62 -23 -180l-133 -637h-301l137 653q16 75 16 119q0 123 -108 123q-98 0 -170 -119t-115 -313zM422 1569h199q80 -70 161 -168q107 88 232 168h217v-25
q-63 -56 -153 -148.5t-142 -154.5h-338q-53 124 -176 303v25z" />
    <glyph glyph-name="napostrophe" unicode="&#x149;" horiz-adv-x="1445" 
d="M246 0l237 1118h230l-21 -207h8q151 228 353 228q140 0 214 -85.5t74 -236.5q0 -67 -22 -180l-133 -637h-301l137 653q16 75 16 119q0 123 -108 123q-98 0 -170 -119t-115 -313l-98 -463h-301zM51 961q74 167 195 501h284l9 -22q-101 -225 -263 -479h-225z" />
    <glyph glyph-name="Eng" unicode="&#x14a;" horiz-adv-x="1546" 
d="M53 0l309 1462h330l381 -985h10q41 281 68 397l131 588h274l-309 -1462q-46 -218 -180 -324t-340 -106q-116 0 -190 24v242q108 -22 161 -22q111 0 174 43.5t95 142.5l-418 1106h-8q-26 -202 -68 -418l-145 -688h-275z" />
    <glyph glyph-name="eng" unicode="&#x14b;" horiz-adv-x="1236" 
d="M547 -492q-101 0 -174 25v242q61 -21 114 -21q64 0 109 42.5t63 127.5l154 729q16 75 16 119q0 123 -108 123q-98 0 -170 -119t-115 -313l-98 -463h-301l237 1118h228l-21 -207h8q144 228 355 228q140 0 214.5 -86t74.5 -236q0 -62 -23 -180l-158 -754
q-18 -84 -47.5 -149t-76.5 -117.5t-118 -80.5t-163 -28z" />
    <glyph glyph-name="Omacron" unicode="&#x14c;" horiz-adv-x="1495" 
d="M666 -20q-266 0 -404 153q-139 151 -139 404q0 140 29 274t91 257t151 215t219 147t284 55q266 0 401 -150q134 -152 134 -397q0 -182 -46 -352t-137 -305q-204 -301 -583 -301zM688 240q183 0 307.5 191.5t124.5 498.5q0 138 -63.5 217.5t-184.5 79.5q-124 0 -225 -94
t-157 -252t-56 -344q0 -144 67 -220.5t187 -76.5zM1266 1585h-619l45 211h619z" />
    <glyph glyph-name="omacron" unicode="&#x14d;" horiz-adv-x="1198" 
d="M518 -20q-191 0 -309.5 116.5t-118.5 313.5q0 120 23 227.5t71.5 199.5t118 159t167 105t214.5 38q196 0 310 -117.5t114 -325.5q0 -145 -36 -271.5t-106 -227t-185.5 -159t-262.5 -58.5zM543 225q81 0 142 68.5t90.5 174t29.5 228.5q0 197 -143 197q-52 0 -97.5 -31
t-76 -81t-53 -114t-32.5 -129.5t-10 -127.5q0 -185 150 -185zM1028 1241h-618l45 211h618z" />
    <glyph glyph-name="Obreve" unicode="&#x14e;" horiz-adv-x="1495" 
d="M123 537q0 140 29 274t91 257t151 215t219 147t284 55q260 0 397.5 -147t137.5 -400q0 -146 -28 -282.5t-89 -260t-149 -215.5t-216.5 -146t-283.5 -54q-261 0 -402 150t-141 407zM434 537q0 -144 67 -220.5t187 -76.5q183 0 307.5 191.5t124.5 498.5q0 138 -63.5 217.5
t-184.5 79.5q-124 0 -225 -94t-157 -252t-56 -344zM635 1858q0 38 6 65h174q0 -125 154 -125q82 0 129.5 28t64.5 97h189q-55 -338 -394 -338q-87 0 -152 23t-101 63t-53 87t-17 100z" />
    <glyph glyph-name="obreve" unicode="&#x14f;" horiz-adv-x="1198" 
d="M90 410q0 120 23 227.5t71.5 199.5t118 159t167 105t214.5 38q196 0 310 -117.5t114 -325.5q0 -145 -36 -271.5t-106 -227t-185.5 -159t-262.5 -58.5q-191 0 -309.5 116.5t-118.5 313.5zM393 410q0 -185 150 -185q81 0 142 68.5t90.5 174t29.5 228.5q0 197 -143 197
q-52 0 -97.5 -31t-76 -81t-53 -114t-32.5 -129.5t-10 -127.5zM397 1513q0 39 6 66h175q0 -125 153 -125q83 0 131 28t64 97h188q-55 -338 -393 -338q-87 0 -152 23t-101.5 63t-53.5 86.5t-17 99.5z" />
    <glyph glyph-name="Ohungarumlaut" unicode="&#x150;" horiz-adv-x="1495" 
d="M123 537q0 140 29 274t91 257t151 215t219 147t284 55q260 0 397.5 -147t137.5 -400q0 -146 -28 -282.5t-89 -260t-149 -215.5t-216.5 -146t-283.5 -54q-261 0 -402 150t-141 407zM434 537q0 -144 67 -220.5t187 -76.5q183 0 307.5 191.5t124.5 498.5q0 138 -63.5 217.5
t-184.5 79.5q-124 0 -225 -94t-157 -252t-56 -344zM1044 1610q48 50 114 137.5t118 165.5h305v-17q-39 -50 -151 -145t-207 -166h-179v25zM825 1585h-178v25q48 50 114 137.5t118 165.5h305v-17q-38 -50 -150.5 -144.5t-208.5 -166.5z" />
    <glyph glyph-name="ohungarumlaut" unicode="&#x151;" horiz-adv-x="1198" 
d="M90 410q0 120 23 227.5t71.5 199.5t118 159t167 105t214.5 38q196 0 310 -117.5t114 -325.5q0 -145 -36 -271.5t-106 -227t-185.5 -159t-262.5 -58.5q-191 0 -309.5 116.5t-118.5 313.5zM393 410q0 -185 150 -185q81 0 142 68.5t90.5 174t29.5 228.5q0 197 -143 197
q-52 0 -97.5 -31t-76 -81t-53 -114t-32.5 -129.5t-10 -127.5zM807 1266q96 102 231 303h305v-17q-39 -50 -151 -145t-207 -166h-178v25zM588 1241h-178v25q96 102 231 303h305v-17q-39 -50 -151 -145t-207 -166z" />
    <glyph glyph-name="OE" unicode="&#x152;" horiz-adv-x="1845" 
d="M666 -20q-266 0 -404 153q-139 151 -139 404q0 140 29 274t91 257t151 215t219 147t284 55q136 0 209 -23h809l-53 -254h-512l-68 -321h477l-55 -254h-477l-80 -377h512l-53 -256h-760q-110 -20 -180 -20zM688 240q90 0 158 32l194 916q-62 39 -168 39q-124 0 -225 -94
t-157 -252t-56 -344q0 -144 67 -220.5t187 -76.5z" />
    <glyph glyph-name="oe" unicode="&#x153;" horiz-adv-x="1806" 
d="M498 -20q-181 0 -295 114q-113 113 -113 320q0 119 22 226t68.5 199t114 158.5t163 104t210.5 37.5q211 0 313 -160q157 160 399 160q183 0 279 -83t96 -222q0 -182 -163 -286t-480 -104h-51q-2 -16 -2 -41q0 -91 52.5 -143.5t145.5 -52.5q87 0 158.5 19t171.5 67v-227
q-91 -44 -181 -65t-208 -21q-113 0 -205 37t-141 108q-135 -145 -354 -145zM1094 647h45q164 0 245.5 51t81.5 129q0 95 -104 95q-85 0 -164.5 -78.5t-103.5 -196.5zM539 225q76 0 134 68.5t86.5 174t28.5 228.5q0 90 -35.5 143.5t-107.5 53.5q-61 0 -111 -46t-80 -118
t-45.5 -154t-15.5 -161q0 -91 37 -140t109 -49z" />
    <glyph glyph-name="Racute" unicode="&#x154;" horiz-adv-x="1247" 
d="M53 0l309 1462h359q475 0 475 -401q0 -165 -88.5 -277.5t-233.5 -162.5l261 -621h-332l-207 561h-119l-119 -561h-305zM614 1208l-84 -395h78q133 0 205 58t72 173q0 164 -197 164h-74zM678 1585v25q83 93 221 303h336v-17q-42 -52 -153 -150.5t-195 -160.5h-209z" />
    <glyph glyph-name="racute" unicode="&#x155;" horiz-adv-x="862" 
d="M338 0h-301l237 1118h230l-21 -207h11q146 228 348 228q54 0 96 -11l-66 -290q-46 16 -100 16q-116 0 -204 -91t-124 -263zM670 1241h-209v25q50 55 112 145q58 80 109 158h336v-17q-42 -52 -153 -150.5t-195 -160.5z" />
    <glyph glyph-name="uni0156" unicode="&#x156;" horiz-adv-x="1247" 
d="M53 0l309 1462h359q475 0 475 -401q0 -165 -88.5 -277.5t-233.5 -162.5l261 -621h-332l-207 561h-119l-119 -561h-305zM614 1208l-84 -395h78q133 0 205 58t72 173q0 164 -197 164h-74zM268 -453v27q68 140 125 301h283v-20q-77 -141 -227 -308h-181z" />
    <glyph glyph-name="uni0157" unicode="&#x157;" horiz-adv-x="862" 
d="M338 0h-301l237 1118h230l-21 -207h11q146 228 348 228q54 0 96 -11l-66 -290q-46 16 -100 16q-116 0 -204 -91t-124 -263zM113 -453h-181v27q74 155 125 301h283v-20q-77 -141 -227 -308z" />
    <glyph glyph-name="Rcaron" unicode="&#x158;" horiz-adv-x="1247" 
d="M53 0l309 1462h359q475 0 475 -401q0 -165 -88.5 -277.5t-233.5 -162.5l261 -621h-332l-207 561h-119l-119 -561h-305zM674 1585q-53 124 -176 303v25h198q84 -73 162 -168q107 88 232 168h217v-25q-63 -56 -153 -148.5t-142 -154.5h-338zM614 1208l-84 -395h78
q133 0 205 58t72 173q0 164 -197 164h-74z" />
    <glyph glyph-name="rcaron" unicode="&#x159;" horiz-adv-x="862" 
d="M37 0l237 1118h230l-21 -207h11q146 228 348 228q54 0 96 -11l-66 -290q-46 16 -100 16q-116 0 -204 -91t-124 -263l-106 -500h-301zM457 1241q-53 124 -176 303v25h198q84 -73 162 -168q111 91 231 168h218v-25q-63 -56 -153 -148.5t-142 -154.5h-338z" />
    <glyph glyph-name="Sacute" unicode="&#x15a;" horiz-adv-x="1085" 
d="M397 -20q-219 0 -356 90v274q192 -108 358 -108q105 0 171.5 40.5t66.5 118.5q0 84 -49 133q-45 42 -127 105q-53 37 -92 72.5t-78 85.5t-59.5 112.5t-20.5 134.5q0 196 138 320.5t364 124.5q215 0 397 -99l-109 -233q-157 74 -288 74q-83 0 -136 -45t-53 -119
q0 -38 10.5 -67.5t38 -57.5t54 -48t78.5 -54q123 -80 182 -177t59 -225q0 -112 -43 -199.5t-119 -142t-174 -82.5t-213 -28zM791 1585h-209v25q50 55 112 145q58 80 109 158h336v-17q-42 -52 -153 -150.5t-195 -160.5z" />
    <glyph glyph-name="sacute" unicode="&#x15b;" horiz-adv-x="968" 
d="M358 -20q-208 0 -335 65v248q158 -90 319 -90q77 0 129.5 31.5t52.5 89.5q0 41 -32 73q-28 28 -136 90q-111 61 -164 127.5t-53 167.5q0 172 112 264.5t314 92.5t363 -95l-99 -215q-143 84 -258 84q-53 0 -90 -24.5t-37 -69.5q0 -40 31.5 -68.5t120.5 -74.5
q114 -62 173.5 -131t59.5 -176q0 -189 -125.5 -289t-345.5 -100zM647 1241h-209v25q54 60 113 145q46 63 108 158h336v-17q-42 -52 -153 -150.5t-195 -160.5z" />
    <glyph glyph-name="Scircumflex" unicode="&#x15c;" horiz-adv-x="1085" 
d="M41 344q192 -108 358 -108q105 0 171.5 40.5t66.5 118.5q0 24 -5.5 45.5t-10.5 37t-21.5 35.5t-24.5 29.5t-34.5 30.5t-36 28t-43.5 32q-53 37 -92 72.5t-78 85.5t-59.5 112.5t-20.5 134.5q0 196 138 320.5t364 124.5q215 0 397 -99l-109 -233q-157 74 -288 74
q-83 0 -136 -45t-53 -119q0 -38 10.5 -67.5t38 -57.5t54 -48t78.5 -54q123 -80 182 -177t59 -225q0 -112 -43 -199.5t-119 -142t-174 -82.5t-213 -28q-219 0 -356 90v274zM326 1610q205 189 295 303h337q51 -120 177 -303v-25h-199q-84 73 -162 168q-111 -91 -231 -168h-217
v25z" />
    <glyph glyph-name="scircumflex" unicode="&#x15d;" horiz-adv-x="968" 
d="M358 -20q-208 0 -335 65v248q158 -90 319 -90q77 0 129.5 31.5t52.5 89.5q0 42 -33 74.5t-135 88.5q-111 61 -164 127.5t-53 167.5q0 172 112 264.5t314 92.5t363 -95l-99 -215q-143 84 -258 84q-53 0 -90 -24.5t-37 -69.5q0 -40 31.5 -68.5t120.5 -74.5
q114 -62 173.5 -131t59.5 -176q0 -189 -125.5 -289t-345.5 -100zM182 1241v25q205 189 295 303h338q53 -124 176 -303v-25h-198q-84 73 -162 168q-107 -88 -232 -168h-217z" />
    <glyph glyph-name="Scedilla" unicode="&#x15e;" horiz-adv-x="1085" 
d="M317 -16q-169 15 -276 86v274q192 -108 358 -108q105 0 171.5 40.5t66.5 118.5q0 24 -5.5 45.5t-10.5 37t-21.5 35.5t-24.5 29.5t-34.5 30.5t-36 28t-43.5 32q-53 37 -92 72.5t-78 85.5t-59.5 112.5t-20.5 134.5q0 196 138 320.5t364 124.5q215 0 397 -99l-109 -233
q-157 74 -288 74q-83 0 -136 -45t-53 -119q0 -38 10.5 -67.5t38 -57.5t54 -48t78.5 -54q123 -80 182 -177t59 -225q0 -194 -121.5 -308t-320.5 -138l-31 -58q141 -48 141 -178q0 -109 -78.5 -175.5t-238.5 -66.5q-81 0 -152 23v168q71 -23 125 -23q103 0 103 82
q0 69 -142 88z" />
    <glyph glyph-name="scedilla" unicode="&#x15f;" horiz-adv-x="968" 
d="M272 -18q-143 9 -249 63v248q158 -90 319 -90q77 0 129.5 31.5t52.5 89.5q0 42 -33 74.5t-135 88.5q-111 61 -164 127.5t-53 167.5q0 172 112 264.5t314 92.5t363 -95l-99 -215q-143 84 -258 84q-53 0 -90 -24.5t-37 -69.5q0 -40 31.5 -68.5t120.5 -74.5
q114 -62 173.5 -131t59.5 -176q0 -166 -97.5 -263.5t-272.5 -119.5l-31 -58q141 -48 141 -178q0 -109 -78.5 -175.5t-238.5 -66.5q-81 0 -152 23v168q71 -23 125 -23q103 0 103 82q0 69 -142 88z" />
    <glyph glyph-name="Scaron" unicode="&#x160;" horiz-adv-x="1085" 
d="M397 -20q-219 0 -356 90v274q192 -108 358 -108q105 0 171.5 40.5t66.5 118.5q0 24 -5.5 45.5t-10.5 37t-21.5 35.5t-24.5 29.5t-34.5 30.5t-36 28t-43.5 32q-53 37 -92 72.5t-78 85.5t-59.5 112.5t-20.5 134.5q0 196 138 320.5t364 124.5q215 0 397 -99l-109 -233
q-157 74 -288 74q-83 0 -136 -45t-53 -119q0 -38 10.5 -67.5t38 -57.5t54 -48t78.5 -54q123 -80 182 -177t59 -225q0 -112 -43 -199.5t-119 -142t-174 -82.5t-213 -28zM401 1888v25h199q84 -73 162 -168q111 91 231 168h217v-25q-63 -56 -153 -148.5t-142 -154.5h-337
q-51 120 -177 303z" />
    <glyph glyph-name="scaron" unicode="&#x161;" horiz-adv-x="968" 
d="M23 45v248q158 -90 319 -90q77 0 129.5 31.5t52.5 89.5q0 42 -33 74.5t-135 88.5q-111 61 -164 127.5t-53 167.5q0 172 112 264.5t314 92.5t363 -95l-99 -215q-143 84 -258 84q-53 0 -90 -24.5t-37 -69.5q0 -40 31.5 -68.5t120.5 -74.5q114 -62 173.5 -131t59.5 -176
q0 -189 -125.5 -289t-345.5 -100q-208 0 -335 65zM258 1544v25h199q80 -70 161 -168q107 88 232 168h217v-25q-63 -56 -153 -148.5t-142 -154.5h-338q-53 124 -176 303z" />
    <glyph glyph-name="uni0162" unicode="&#x162;" horiz-adv-x="1087" 
d="M160 -301q71 -23 125 -23q102 0 102 82q0 69 -141 88l96 154h-76l254 1204h-352l55 258h1010l-55 -258h-353l-254 -1204h-45l-39 -72q142 -48 142 -178q0 -109 -79 -175.5t-239 -66.5q-80 0 -151 23v168z" />
    <glyph glyph-name="uni0163" unicode="&#x163;" horiz-adv-x="839" 
d="M246 889h-152l29 147l196 84l132 236h194l-49 -238h283l-50 -229h-282l-115 -539q-6 -30 -6 -53q0 -37 24 -55.5t64 -18.5q72 0 162 35v-225q-89 -45 -217 -51l-29 -54q141 -48 141 -178q0 -109 -78.5 -175.5t-238.5 -66.5q-81 0 -152 23v168q71 -23 125 -23
q103 0 103 82q0 69 -142 88l93 150q-162 47 -162 242q0 50 12 112z" />
    <glyph glyph-name="Tcaron" unicode="&#x164;" horiz-adv-x="1087" 
d="M520 1204h-352l55 258h1010l-55 -258h-353l-254 -1204h-305zM418 1913h198q84 -73 162 -168q107 88 232 168h217v-25q-63 -56 -153 -148.5t-142 -154.5h-338q-53 124 -176 303v25z" />
    <glyph glyph-name="tcaron" unicode="&#x165;" horiz-adv-x="839" 
d="M94 889l29 147l196 84l132 236h194l-49 -238h283l-50 -229h-282l-115 -539q-6 -30 -6 -53q0 -37 24 -55.5t64 -18.5q72 0 162 35v-225q-108 -53 -266 -53q-140 0 -215.5 59.5t-75.5 198.5q0 50 12 112l115 539h-152zM709 1229v26q88 181 125 301h282v-20
q-75 -139 -227 -307h-180z" />
    <glyph glyph-name="Tbar" unicode="&#x166;" horiz-adv-x="1087" 
d="M166 596l55 254h223l76 354h-352l55 258h1010l-55 -258h-353l-75 -354h235l-55 -254h-234l-125 -596h-305l125 596h-225z" />
    <glyph glyph-name="tbar" unicode="&#x167;" horiz-adv-x="839" 
d="M164 498h-133l41 198h133l41 193h-152l29 147l196 84l132 236h194l-49 -238h283l-50 -229h-282l-41 -193h233l-41 -198h-235l-31 -148q-6 -30 -6 -53q0 -37 24 -55.5t64 -18.5q72 0 162 35v-225q-108 -53 -266 -53q-140 0 -215.5 59.5t-75.5 198.5q0 63 12 112z" />
    <glyph glyph-name="Utilde" unicode="&#x168;" horiz-adv-x="1415" 
d="M604 -20q-223 0 -343 110.5t-120 300.5q0 77 15 148l196 923h305l-194 -919q-17 -87 -17 -125q0 -178 189 -178q129 0 197.5 73.5t101.5 231.5l194 917h306l-201 -946q-114 -536 -629 -536zM698 1583h-176q59 309 281 309q56 0 108 -26t95 -52t77 -26q65 0 105 106h172
q-66 -309 -287 -309q-44 0 -86.5 16.5t-70 36t-61 36t-62.5 16.5q-68 0 -95 -107z" />
    <glyph glyph-name="utilde" unicode="&#x169;" horiz-adv-x="1236" 
d="M111 301q0 93 24 213l127 604h301l-137 -653q-16 -75 -16 -119q0 -123 108 -123q65 0 122.5 59.5t97.5 154.5t65 218l98 463h301l-237 -1118h-230l21 207h-11q-72 -109 -156 -168t-194 -59q-143 0 -213.5 84.5t-70.5 236.5zM367 1239q59 309 280 309q44 0 87 -16t71 -36
t61.5 -36t61.5 -16q64 0 104 106h172q-34 -160 -105.5 -234.5t-180.5 -74.5q-56 0 -107.5 26.5t-95 52.5t-78.5 26q-67 0 -94 -107h-176z" />
    <glyph glyph-name="Umacron" unicode="&#x16a;" horiz-adv-x="1415" 
d="M141 391q0 77 15 148l196 923h305l-194 -919q-17 -87 -17 -125q0 -178 189 -178q129 0 197.5 73.5t101.5 231.5l194 917h306l-201 -946q-114 -536 -629 -536q-223 0 -343 110.5t-120 300.5zM600 1585l45 211h619l-45 -211h-619z" />
    <glyph glyph-name="umacron" unicode="&#x16b;" horiz-adv-x="1236" 
d="M111 301q0 93 24 213l127 604h301l-137 -653q-16 -75 -16 -119q0 -123 108 -123q65 0 122.5 59.5t97.5 154.5t65 218l98 463h301l-237 -1118h-230l21 207h-11q-72 -109 -156 -168t-194 -59q-143 0 -213.5 84.5t-70.5 236.5zM444 1241l45 211h619l-45 -211h-619z" />
    <glyph glyph-name="Ubreve" unicode="&#x16c;" horiz-adv-x="1415" 
d="M604 -20q-223 0 -343 110.5t-120 300.5q0 77 15 148l196 923h305l-194 -919q-17 -87 -17 -125q0 -178 189 -178q129 0 197.5 73.5t101.5 231.5l194 917h306l-201 -946q-114 -536 -629 -536zM911 1585q-87 0 -152 23t-101 63t-53 87t-17 100q0 38 6 65h174
q0 -125 154 -125q82 0 129.5 28t64.5 97h189q-55 -338 -394 -338z" />
    <glyph glyph-name="ubreve" unicode="&#x16d;" horiz-adv-x="1236" 
d="M111 301q0 93 24 213l127 604h301l-137 -653q-16 -75 -16 -119q0 -123 108 -123q65 0 122.5 59.5t97.5 154.5t65 218l98 463h301l-237 -1118h-230l21 207h-11q-72 -109 -156 -168t-194 -59q-143 0 -213.5 84.5t-70.5 236.5zM756 1241q-87 0 -152 23t-101.5 63t-53.5 86.5
t-17 99.5q0 39 6 66h174q0 -125 154 -125q83 0 131 28t64 97h188q-55 -338 -393 -338z" />
    <glyph glyph-name="Uring" unicode="&#x16e;" horiz-adv-x="1415" 
d="M141 391q0 77 15 148l196 923h305l-194 -919q-17 -87 -17 -125q0 -178 189 -178q129 0 197.5 73.5t101.5 231.5l194 917h306l-201 -946q-114 -536 -629 -536q-223 0 -343 110.5t-120 300.5zM942 1583q-111 0 -179.5 64.5t-68.5 173.5t68.5 173t179.5 64
q109 0 181.5 -64.5t72.5 -170.5q0 -110 -71.5 -175t-182.5 -65zM846 1821q0 -45 25 -71t71 -26q42 0 69 26.5t27 70.5t-27 70t-69 26t-69 -26t-27 -70z" />
    <glyph glyph-name="uring" unicode="&#x16f;" horiz-adv-x="1236" 
d="M395 -20q-143 0 -213.5 84.5t-70.5 236.5q0 93 24 213l127 604h301l-137 -653q-16 -75 -16 -119q0 -123 108 -123q65 0 122.5 59.5t97.5 154.5t65 218l98 463h301l-237 -1118h-230l21 207h-11q-72 -109 -156 -168t-194 -59zM786 1239q-111 0 -179 64.5t-68 173.5t68 173
t179 64q109 0 181.5 -64.5t72.5 -170.5q0 -110 -71.5 -175t-182.5 -65zM690 1477q0 -45 25 -71t71 -26q42 0 69.5 26.5t27.5 70.5q0 43 -27.5 69.5t-69.5 26.5t-69 -26t-27 -70z" />
    <glyph glyph-name="Uhungarumlaut" unicode="&#x170;" horiz-adv-x="1415" 
d="M141 391q0 77 15 148l196 923h305l-194 -919q-17 -87 -17 -125q0 -178 189 -178q129 0 197.5 73.5t101.5 231.5l194 917h306l-201 -946q-114 -536 -629 -536q-223 0 -343 110.5t-120 300.5zM997 1585v25q48 50 114 137.5t118 165.5h305v-17q-39 -50 -151 -145t-207 -166
h-179zM778 1585h-178v25q96 102 231 303h306v-17q-38 -50 -150.5 -144.5t-208.5 -166.5z" />
    <glyph glyph-name="uhungarumlaut" unicode="&#x171;" horiz-adv-x="1236" 
d="M111 301q0 93 24 213l127 604h301l-137 -653q-16 -75 -16 -119q0 -123 108 -123q65 0 122.5 59.5t97.5 154.5t65 218l98 463h301l-237 -1118h-230l21 207h-11q-72 -109 -156 -168t-194 -59q-143 0 -213.5 84.5t-70.5 236.5zM1020 1241h-178v25q96 102 231 303h305v-17
q-39 -50 -151 -145t-207 -166zM623 1241h-179v25q48 50 114 137.5t118 165.5h305v-17q-39 -50 -151 -145t-207 -166z" />
    <glyph glyph-name="Uogonek" unicode="&#x172;" horiz-adv-x="1415" 
d="M561 -18q-202 10 -311 119.5t-109 289.5q0 77 15 148l196 923h305l-194 -919q-17 -87 -17 -125q0 -178 189 -178q129 0 197.5 73.5t101.5 231.5l194 917h306l-201 -946q-90 -433 -445 -516q-45 -36 -71.5 -59t-58 -57t-46 -67t-14.5 -67q0 -59 59 -59q40 0 103 18v-176
q-88 -25 -164 -25q-102 0 -161.5 53.5t-59.5 141.5q0 86 47 151t139 128z" />
    <glyph glyph-name="uogonek" unicode="&#x173;" horiz-adv-x="1236" 
d="M111 301q0 93 24 213l127 604h301l-137 -653q-16 -75 -16 -119q0 -123 108 -123q65 0 122.5 59.5t97.5 154.5t65 218l98 463h301l-237 -1118h-35q-46 -36 -72 -59t-58 -57t-46.5 -67t-14.5 -67q0 -59 60 -59q39 0 102 18v-176q-88 -25 -164 -25q-102 0 -161.5 53.5
t-59.5 141.5q0 93 55 161.5t160 135.5h4l21 207h-11q-72 -109 -156 -168t-194 -59q-143 0 -213.5 84.5t-70.5 236.5z" />
    <glyph glyph-name="Wcircumflex" unicode="&#x174;" horiz-adv-x="1830" 
d="M184 1462h287l6 -798q0 -199 -14 -347h8q82 222 125 326l369 819h270l20 -819q7 -120 -8 -326h8q51 166 129 349l330 796h309l-647 -1462h-346l-16 666q-6 255 -2 352h-8q-47 -148 -113 -299l-324 -719h-338zM713 1610q205 189 295 303h338q53 -124 176 -303v-25h-199
q-84 73 -162 168q-111 -91 -231 -168h-217v25z" />
    <glyph glyph-name="wcircumflex" unicode="&#x175;" horiz-adv-x="1613" 
d="M176 0l-51 1118h281l4 -495q0 -201 -11 -338h9q19 65 55 163.5t51 133.5l231 536h328v-536q0 -184 -10 -297h10q52 166 119 338l219 495h307l-530 -1118h-330l-6 520q0 105 10 340h-12q-13 -33 -55.5 -155.5t-61.5 -163.5l-233 -541h-324zM510 1241v25q205 189 295 303
h338q53 -124 176 -303v-25h-199q-84 73 -162 168q-111 -91 -231 -168h-217z" />
    <glyph glyph-name="Ycircumflex" unicode="&#x176;" horiz-adv-x="1155" 
d="M186 1462h312l129 -592l374 592h342l-618 -903l-119 -559h-303l119 559zM354 1610q205 189 295 303h338q53 -124 176 -303v-25h-198q-84 73 -162 168q-107 -88 -232 -168h-217v25z" />
    <glyph glyph-name="ycircumflex" unicode="&#x177;" horiz-adv-x="1062" 
d="M6 -492q-84 0 -147 19v240q76 -13 116 -13q88 0 150.5 51t114.5 146l26 49l-164 1118h295l56 -518q12 -110 12 -293h8q8 20 26 71t38.5 101.5t44.5 100.5l260 538h327l-680 -1278q-177 -332 -483 -332zM217 1266q205 189 295 303h338q53 -124 176 -303v-25h-199
q-80 70 -161 168q-107 -88 -232 -168h-217v25z" />
    <glyph glyph-name="Ydieresis" unicode="&#x178;" horiz-adv-x="1155" 
d="M422 559l-236 903h312l129 -592l374 592h342l-618 -903l-119 -559h-303zM852 1726q0 75 40 116.5t112 41.5q124 0 124 -108q0 -75 -37 -117.5t-112 -42.5q-127 0 -127 110zM596 1616q-127 0 -127 110q0 75 40 116.5t112 41.5q124 0 124 -108q0 -74 -38 -117t-111 -43z
" />
    <glyph glyph-name="Zacute" unicode="&#x179;" horiz-adv-x="1097" 
d="M920 0h-981l38 201l777 1005h-543l53 256h936l-41 -202l-782 -1004h596zM813 1585h-209v25q54 60 113 145q46 63 108 158h336v-17q-42 -52 -153 -150.5t-195 -160.5z" />
    <glyph glyph-name="zacute" unicode="&#x17a;" horiz-adv-x="931" 
d="M748 0h-795l35 180l575 705h-397l51 233h750l-43 -200l-566 -685h439zM655 1241h-209v25q54 60 113 145q58 80 109 158h336v-17q-41 -52 -153 -150t-196 -161z" />
    <glyph glyph-name="Zdotaccent" unicode="&#x17b;" horiz-adv-x="1097" 
d="M920 0h-981l38 201l777 1005h-543l53 256h936l-41 -202l-782 -1004h596zM780 1602q-151 0 -151 122q0 86 47.5 131.5t134.5 45.5q66 0 108 -29t42 -92q0 -82 -45.5 -130t-135.5 -48z" />
    <glyph glyph-name="zdotaccent" unicode="&#x17c;" horiz-adv-x="931" 
d="M748 0h-795l35 180l575 705h-397l51 233h750l-43 -200l-566 -685h439zM623 1257q-152 0 -152 123q0 86 47.5 131t134.5 45q67 0 108.5 -28.5t41.5 -91.5q0 -83 -45.5 -131t-134.5 -48z" />
    <glyph glyph-name="Zcaron" unicode="&#x17d;" horiz-adv-x="1097" 
d="M-61 0l38 201l777 1005h-543l53 256h936l-41 -202l-782 -1004h596l-53 -256h-981zM424 1913h199q80 -70 161 -168q107 88 232 168h217v-25q-63 -56 -153 -148.5t-142 -154.5h-338q-53 124 -176 303v25z" />
    <glyph glyph-name="zcaron" unicode="&#x17e;" horiz-adv-x="931" 
d="M-47 0l35 180l575 705h-397l51 233h750l-43 -200l-566 -685h439l-49 -233h-795zM266 1544v25h199q84 -73 162 -168q111 91 231 168h217v-25q-63 -56 -153 -148.5t-142 -154.5h-338q-53 124 -176 303z" />
    <glyph glyph-name="longs" unicode="&#x17f;" horiz-adv-x="733" 
d="M-72 -492q-101 0 -174 25v242q62 -21 115 -21q64 0 109 42.5t63 127.5l272 1278q42 197 142 281t270 84q132 0 236 -49l-80 -224q-76 31 -133 31q-55 0 -90.5 -38.5t-49.5 -106.5l-276 -1301q-16 -81 -46 -145.5t-77 -116.5t-118.5 -80.5t-162.5 -28.5z" />
    <glyph glyph-name="uni0180" unicode="&#x180;" horiz-adv-x="1218" 
d="M268 0h-231l254 1196h-144l41 199h144l35 161h301l-35 -161h291l-41 -199h-293q-21 -71 -68 -227h8q62 71 128 110t155 39q62 0 117 -22.5t100 -67t71.5 -120.5t26.5 -175q0 -136 -37.5 -270.5t-103 -242t-164.5 -174t-213 -66.5q-194 0 -276 163h-8zM420 399
q0 -80 38 -128t101 -48q71 0 133 75t96.5 189t34.5 232q0 155 -131 155q-69 0 -124 -51t-85.5 -127.5t-46.5 -154t-16 -142.5z" />
    <glyph glyph-name="uni0181" unicode="&#x181;" horiz-adv-x="1521" 
d="M137 995q-8 31 -8 78q0 177 110.5 283t319.5 106h481q219 0 341 -79t122 -246q0 -149 -83 -246t-236 -129v-8q102 -27 160.5 -98.5t58.5 -178.5q0 -121 -43.5 -214t-122.5 -149.5t-182 -85t-228 -28.5h-522l256 1208h-51q-68 0 -110 -44.5t-42 -116.5q0 -17 7 -52h-228z
M745 637l-81 -381h180q115 0 182.5 57.5t67.5 161.5q0 162 -183 162h-166zM797 883h149q114 0 178 46t64 142q0 137 -170 137h-152z" />
    <glyph glyph-name="uni0182" unicode="&#x182;" horiz-adv-x="1212" 
d="M487 0h-434l309 1462h822l-54 -254h-520l-65 -307h67q259 0 375 -113q115 -115 115 -296q0 -242 -161.5 -367t-453.5 -125zM492 647l-84 -393h100q149 0 217 62t68 161q0 170 -193 170h-108z" />
    <glyph glyph-name="uni0183" unicode="&#x183;" horiz-adv-x="1218" 
d="M610 -20q-194 0 -276 163h-8l-58 -143h-231l330 1556h856l-49 -229h-556l-12 -59q-35 -171 -84 -299h8q61 72 127 110.5t156 38.5q62 0 117 -22.5t100 -67t71.5 -120.5t26.5 -175q0 -136 -37.5 -270.5t-103 -242t-164.5 -174t-213 -66.5zM559 223q71 0 133 75t96.5 189
t34.5 232q0 81 -32 118t-99 37q-69 0 -124 -51t-85.5 -127.5t-46.5 -154t-16 -142.5q0 -80 38 -128t101 -48z" />
    <glyph glyph-name="uni0184" unicode="&#x184;" horiz-adv-x="1312" 
d="M594 -20q-217 0 -342 98q-127 100 -127 268q0 50 12 105l215 1011h305l-118 -561h155q134 0 233.5 -30t158 -85t86.5 -126t28 -160q0 -251 -164.5 -385.5t-441.5 -134.5zM621 233q56 0 103 13t85.5 41t60 77t21.5 115q0 85 -56 126.5t-188 41.5h-162l-43 -201
q-8 -31 -8 -71q0 -142 187 -142z" />
    <glyph glyph-name="uni0185" unicode="&#x185;" horiz-adv-x="1208" 
d="M545 -20q-200 0 -310 108t-110 301q0 90 20 174l211 993h301l-77 -358q-13 -56 -33 -121q-22 -75 -35 -104h12q58 67 117 117q58 49 166 49q143 0 227 -109.5t84 -300.5q0 -78 -14.5 -161t-43 -168t-76 -159.5t-108.5 -133.5t-146.5 -93t-184.5 -34zM547 223
q64 0 117 52.5t84 130.5t48 159.5t17 149.5q0 180 -133 180q-63 0 -116 -48.5t-85.5 -124t-50.5 -159.5t-18 -160q0 -91 36 -135.5t101 -44.5z" />
    <glyph glyph-name="uni0186" unicode="&#x186;" horiz-adv-x="1253" 
d="M668 1483q266 0 401 -156t135 -418q0 -132 -28.5 -261.5t-91 -251.5t-152 -214.5t-221.5 -148.5t-289 -56q-136 0 -233 24.5t-197 80.5l119 250q161 -96 311 -96q95 0 174.5 41t133.5 108t91.5 153.5t54.5 176.5t17 178q0 167 -69.5 248.5t-217.5 81.5q-150 0 -338 -78
v260q194 78 400 78z" />
    <glyph glyph-name="uni0187" unicode="&#x187;" horiz-adv-x="1253" 
d="M659 -20q-267 0 -401 155q-135 156 -135 418q0 132 28.5 261.5t91 251.5t152 214.5t221.5 148.5t289 56q113 0 201 -21l10 39q42 160 118.5 228.5t197.5 68.5q77 0 139 -28v-234q-56 18 -105 18q-45 0 -75 -32.5t-48 -104.5l-75 -295q-197 103 -363 103q-95 0 -174.5 -41
t-133.5 -108t-91.5 -154t-54.5 -177t-17 -178q0 -167 69.5 -248t217.5 -81q153 0 338 77v-260q-191 -77 -400 -77z" />
    <glyph glyph-name="uni0188" unicode="&#x188;" horiz-adv-x="989" 
d="M506 -20q-90 0 -163.5 23t-131 70.5t-89.5 128.5t-32 189q0 151 40 285.5t113.5 238t187 164t251.5 60.5q46 0 92 -9l19 84q41 187 121 270t212 83q72 0 136 -29v-233q-52 18 -103 18q-98 0 -123 -115l-84 -387q-47 22 -76.5 34.5t-82.5 26t-99 13.5q-93 0 -160 -68
t-104 -184q-35 -113 -35 -227q0 -96 44.5 -144.5t127.5 -48.5q69 0 132 20.5t143 61.5v-246q-155 -79 -336 -79z" />
    <glyph glyph-name="uni0189" unicode="&#x189;" horiz-adv-x="1386" 
d="M37 596l55 254h139l131 612h396q270 0 417.5 -143t147.5 -410q0 -208 -54.5 -376t-158 -286.5t-258 -182.5t-348.5 -64h-451l125 596h-141zM412 256h106q122 0 218 52t154.5 141t89 202t30.5 242q0 158 -73.5 236.5t-207.5 78.5h-115l-75 -358h237l-55 -254h-238z" />
    <glyph glyph-name="uni018A" unicode="&#x18a;" horiz-adv-x="1611" 
d="M102 1073q0 177 110.5 283t319.5 106h451q270 0 417.5 -143t147.5 -410q0 -208 -54.5 -376t-158 -286.5t-258 -182.5t-348.5 -64h-450l256 1208h-52q-68 0 -109.5 -44.5t-41.5 -116.5q0 -22 6 -52h-227q-9 35 -9 78zM637 256h106q122 0 218 52t154.5 141t89 202t30.5 242
q0 158 -73.5 236.5t-207.5 78.5h-114z" />
    <glyph glyph-name="uni018B" unicode="&#x18b;" horiz-adv-x="1212" 
d="M913 0h-352q-255 0 -376.5 112t-121.5 304q0 121 49 215t136.5 152.5t201.5 88t250 29.5h101l63 305h-555l53 256h861zM573 254h89l83 393h-69q-134 0 -219.5 -59t-85.5 -162q0 -84 52.5 -128t149.5 -44z" />
    <glyph glyph-name="uni018C" unicode="&#x18c;" horiz-adv-x="1216" 
d="M406 -20q-64 0 -118.5 22t-100 68.5t-71.5 127.5t-26 189q0 139 36.5 270.5t101.5 234t163.5 164.5t212.5 62q169 0 258 -143h8q0 7 3 42.5t10 89.5t14 91l27 129h-549l49 229h850l-330 -1556h-229l18 145h-8q-135 -165 -319 -165zM532 223q66 0 120 54.5t84.5 135.5
t46.5 161.5t16 144.5q0 73 -37 114t-105 41q-72 0 -131.5 -65.5t-95.5 -177.5q-35 -113 -35 -232q0 -176 137 -176z" />
    <glyph glyph-name="uni018D" unicode="&#x18d;" horiz-adv-x="1216" 
d="M702 1141q113 0 199.5 -32.5t137.5 -88.5t76.5 -124.5t25.5 -147.5q0 -219 -131 -359q-132 -141 -344 -194q151 -127 151 -285q0 -117 -60.5 -199t-159 -119.5t-224.5 -37.5q-229 0 -408 112l119 215q159 -102 287 -102q64 0 105.5 30.5t41.5 90.5q0 29 -6.5 49
t-31.5 47.5t-48.5 47.5t-83.5 69q-233 190 -233 436q0 273 155.5 432.5t431.5 159.5zM668 895q-103 0 -169.5 -97t-66.5 -241q0 -147 103 -227q125 41 206 147q82 104 82 240q0 86 -39 132t-116 46z" />
    <glyph glyph-name="uni018E" unicode="&#x18e;" horiz-adv-x="1110" 
d="M811 0h-817l53 256h520l80 377h-483l53 254h485l68 321h-520l53 254h817z" />
    <glyph glyph-name="uni018F" unicode="&#x18f;" horiz-adv-x="1351" 
d="M512 -20q-220 0 -332 100t-112 276q0 490 800 490h107q4 32 4 65q0 150 -72.5 232t-212.5 82q-172 0 -372 -76v258q180 78 409 78q145 0 254 -43.5t174 -122.5t97 -181t32 -227q0 -131 -28.5 -260.5t-90.5 -251t-150.5 -214.5t-219.5 -149t-287 -56zM514 238
q146 0 250 95t164 263h-154q-202 0 -300.5 -62t-98.5 -167q0 -63 40 -96t99 -33z" />
    <glyph glyph-name="uni0190" unicode="&#x190;" horiz-adv-x="1220" 
d="M582 -20q-261 0 -401 105t-140 286q0 182 125 283t354 120v8q-133 21 -211 94.5t-78 192.5q0 91 35 164t91 119t131 76.5t151 42.5t156 12q168 0 286 -39.5t222 -118.5l-136 -209q-154 119 -356 119q-270 0 -270 -182q0 -78 77 -125t281 -47h117l-51 -242h-131
q-238 0 -360 -56t-122 -177q0 -92 77 -137.5t220 -45.5q220 0 418 94v-251q-100 -44 -213 -65t-272 -21z" />
    <glyph glyph-name="uni0191" unicode="&#x191;" horiz-adv-x="1087" 
d="M-43 -492q-98 0 -162 29v234q51 -19 103 -19q49 0 83 31.5t46 91.5l335 1587h814l-54 -254h-508l-79 -377h473l-56 -253h-473l-149 -709q-42 -201 -125.5 -281t-247.5 -80z" />
    <glyph glyph-name="florin" unicode="&#x192;" horiz-adv-x="1128" 
d="M143 -492q-101 0 -174 25v242q61 -21 115 -21q64 0 109 42.5t63 127.5l186 881h-168l29 149l189 80l18 84q43 197 142.5 281t269.5 84q131 0 235 -49l-80 -224q-76 31 -133 31q-55 0 -90.5 -39.5t-48.5 -105.5l-12 -62h219l-49 -229h-220l-196 -926q-18 -82 -47 -145.5
t-76 -116t-118 -81t-163 -28.5z" />
    <glyph glyph-name="uni0193" unicode="&#x193;" horiz-adv-x="1413" 
d="M664 -20q-256 0 -398.5 147t-142.5 422q0 150 34.5 288t105.5 256t171 205.5t240 137t305 49.5q95 0 178 -21l8 35q37 159 116.5 230t201.5 71q85 0 139 -28v-234q-56 18 -104 18q-45 0 -75 -32.5t-48 -104.5l-76 -295q-196 99 -354 99q-104 0 -192.5 -38.5
t-149.5 -102.5t-104.5 -148.5t-64 -176t-20.5 -184.5q0 -167 71 -250t224 -83q72 0 170 24l66 299h-267l56 258h563l-162 -762q-111 -39 -223 -59t-268 -20z" />
    <glyph glyph-name="uni0194" unicode="&#x194;" horiz-adv-x="1208" 
d="M174 -248q0 56 16 114t53 127t70 121t95 142l-234 1206h297l102 -614q33 -215 33 -311q67 179 133 303l344 622h320l-701 -1216q50 -183 50 -350q0 -187 -81.5 -287.5t-244.5 -100.5q-115 0 -183.5 68t-68.5 176zM524 51q-61 -83 -93 -165t-32 -128q0 -67 52 -67
q48 0 71 54.5t23 137.5q0 82 -21 168z" />
    <glyph glyph-name="uni0195" unicode="&#x195;" horiz-adv-x="1873" 
d="M37 0l330 1556h301l-68 -317q-13 -52 -32 -118t-32 -107.5t-14 -44.5h8q123 170 312 170q132 0 212.5 -83.5t80.5 -230.5q0 -49 -13 -116l-45 -228q-16 -75 -16 -116q0 -140 139 -140q90 0 139 66.5t82 226.5l125 600h299l-131 -633q-55 -263 -178 -384t-352 -121
q-205 0 -316.5 88t-111.5 254q0 53 20 155l37 176q16 75 16 121q0 121 -106 121q-67 0 -126 -62t-96 -150.5t-59 -193.5l-104 -489h-301z" />
    <glyph glyph-name="uni0196" unicode="&#x196;" horiz-adv-x="784" 
d="M393 -20q-140 0 -215.5 59.5t-75.5 198.5q0 50 23 157l227 1067h305l-229 -1085q-12 -59 -12 -82q0 -72 88 -72q65 0 155 35v-225q-108 -53 -266 -53z" />
    <glyph glyph-name="uni0197" unicode="&#x197;" horiz-adv-x="784" 
d="M588 0h-647l36 176l187 82l74 346h-179l56 254h176l74 346l-152 82l37 176h647l-37 -176l-190 -82l-74 -346h184l-55 -254h-182l-74 -346l156 -82z" />
    <glyph glyph-name="uni0198" unicode="&#x198;" horiz-adv-x="1255" 
d="M53 0l309 1462h306l-154 -706l160 211l192 237q50 62 80 96.5t73 75.5t78.5 61t82 34t98.5 14q65 0 133 -29v-246q-51 19 -96 19q-73 0 -150 -90l-315 -377l291 -762h-338l-211 592l-125 -70l-109 -522h-305z" />
    <glyph glyph-name="uni0199" unicode="&#x199;" horiz-adv-x="1163" 
d="M37 0l258 1219q38 177 127 264.5t244 87.5q76 0 153 -31v-233q-58 20 -102 20q-46 0 -78.5 -29.5t-44.5 -87.5l-74 -348q-8 -39 -33 -121.5t-28 -97.5h8l453 475h344l-498 -504l285 -614h-336l-183 420l-120 -72l-74 -348h-301z" />
    <glyph glyph-name="uni019A" unicode="&#x19a;" horiz-adv-x="608" 
d="M14 631l49 229h156l148 696h301l-148 -696h160l-49 -229h-160l-133 -631h-301l133 631h-156z" />
    <glyph glyph-name="uni019B" unicode="&#x19b;" horiz-adv-x="1171" 
d="M889 -20q-116 0 -175.5 66.5t-80.5 205.5l-29 201q-6 41 -11 130t-7 109q-11 -23 -46 -105.5t-59 -127.5l-245 -459h-328l612 1061l-6 53l-188 -57l-47 160l192 57q-30 37 -94 37q-34 0 -101 -13l-36 246q97 23 192 23q245 0 324 -205l155 49l45 -162l-161 -49l102 -762
q17 -115 43 -158.5t72 -43.5q28 0 67 10v-234q-76 -32 -190 -32z" />
    <glyph glyph-name="uni019C" unicode="&#x19c;" horiz-adv-x="2035" 
d="M455 -20q-150 0 -242 89.5t-92 247.5q0 63 14 123l217 1022h305l-206 -977q-13 -63 -13 -104q0 -141 137 -141q208 0 285 340l187 882h305l-207 -977q-12 -56 -12 -100q0 -145 143 -145q50 0 91.5 20.5t71 53.5t54 83.5t40 101t30.5 115.5l180 848h303l-309 -1462h-228
v156h-16q-68 -87 -161 -131.5t-199 -44.5q-209 0 -287 184h-12q-151 -184 -379 -184z" />
    <glyph glyph-name="uni019D" unicode="&#x19d;" horiz-adv-x="1546" 
d="M-43 -492q-81 0 -162 29v234q51 -19 103 -19q49 0 83 31.5t46 91.5l335 1587h357l340 -1077h8q35 237 68 385l147 692h274l-309 -1462h-342l-356 1106h-10q-30 -233 -66 -418l-172 -819q-42 -198 -121.5 -279.5t-222.5 -81.5z" />
    <glyph glyph-name="uni019E" unicode="&#x19e;" horiz-adv-x="1236" 
d="M872 -492h-301l242 1145q16 75 16 119q0 123 -108 123q-98 0 -170 -119t-115 -313l-98 -463h-301l237 1118h228l-21 -207h8q144 228 355 228q140 0 214.5 -86t74.5 -236q0 -62 -23 -180z" />
    <glyph glyph-name="uni019F" unicode="&#x19f;" horiz-adv-x="1495" 
d="M666 -20q-266 0 -404 153q-139 151 -139 404q0 140 29 274t91 257t151 215t219 147t284 55q266 0 401 -150q134 -152 134 -397q0 -182 -46 -352t-137 -305q-204 -301 -583 -301zM487 879h633q0 2 1 20t1 31q0 138 -64.5 217.5t-185.5 79.5q-125 0 -226.5 -94.5
t-158.5 -253.5zM688 240q130 0 234.5 101t158.5 280h-645q-4 -36 -4 -84q0 -144 68 -220.5t188 -76.5z" />
    <glyph glyph-name="Ohorn" unicode="&#x1a0;" horiz-adv-x="1581" 
d="M666 -20q-266 0 -404 153q-139 151 -139 404q0 140 29 274t91 257t151 215t219 147t284 55q305 0 444 -207q54 37 92.5 108t51.5 170h303l10 -24q-50 -165 -145.5 -267.5t-239.5 -158.5q19 -84 19 -168q0 -182 -46 -352t-137 -305q-204 -301 -583 -301zM688 240
q183 0 307.5 191.5t124.5 498.5q0 138 -63.5 217.5t-184.5 79.5q-124 0 -225 -94t-157 -252t-56 -344q0 -144 67 -220.5t187 -76.5z" />
    <glyph glyph-name="ohorn" unicode="&#x1a1;" horiz-adv-x="1316" 
d="M518 -20q-191 0 -309.5 116.5t-118.5 313.5q0 120 23 227.5t71.5 199.5t118 159t167 105t214.5 38q218 0 334 -146q41 17 71.5 47t50 71.5t31 81.5t21.5 93h295l10 -24q-48 -173 -135.5 -273.5t-267.5 -163.5q14 -52 14 -129q0 -145 -36 -271.5t-106 -227t-185.5 -159
t-262.5 -58.5zM543 225q81 0 142 68.5t90.5 174t29.5 228.5q0 197 -143 197q-52 0 -97.5 -31t-76 -81t-53 -114t-32.5 -129.5t-10 -127.5q0 -185 150 -185z" />
    <glyph glyph-name="uni01A2" unicode="&#x1a2;" horiz-adv-x="2224" 
d="M649 -20q-265 0 -403 153q-140 152 -140 404q0 140 29 274t91.5 257t151.5 215t219 147t284 55q284 0 426 -185q96 86 182 134q89 51 231 51q163 0 271 -100t108 -269q0 -30 -18 -143l-207 -973h-297l209 979q10 52 10 82q0 79 -45 122.5t-127 43.5q-63 0 -125.5 -28
t-107.5 -71q24 -88 24 -190q0 -183 -46 -352.5t-136 -304.5q-204 -301 -584 -301zM672 240q183 0 307.5 191.5t124.5 498.5q0 138 -63.5 217.5t-184.5 79.5q-124 0 -225 -94t-157 -252t-56 -344q0 -144 67 -220.5t187 -76.5z" />
    <glyph glyph-name="uni01A3" unicode="&#x1a3;" horiz-adv-x="1826" 
d="M1462 -492h-301l242 1145q14 68 14 101q0 141 -143 141q-101 0 -180 -72q14 -55 14 -127q0 -145 -36 -271.5t-106 -227t-185.5 -159t-262.5 -58.5q-191 0 -309.5 116.5t-118.5 313.5q0 120 23 227.5t71.5 199.5t118 159t167 105t214.5 38q225 0 340 -154q82 82 162.5 118
t183.5 36q71 0 133 -20.5t111.5 -60.5t78.5 -105.5t29 -149.5q0 -62 -20 -156zM543 225q81 0 142 68.5t90.5 174t29.5 228.5q0 197 -143 197q-52 0 -97.5 -31t-76 -81t-53 -114t-32.5 -129.5t-10 -127.5q0 -185 150 -185z" />
    <glyph glyph-name="uni01A4" unicode="&#x1a4;" horiz-adv-x="1474" 
d="M111 995q-9 35 -9 78q0 177 110.5 283t319.5 106h463q490 0 490 -426q0 -102 -31.5 -187t-89 -145.5t-137 -102t-175 -61.5t-204.5 -20h-156l-108 -520h-305l256 1208h-52q-68 0 -109.5 -44.5t-41.5 -116.5q0 -22 6 -52h-227zM748 774h124q138 0 222 68.5t84 185.5
q0 180 -195 180h-143z" />
    <glyph glyph-name="uni01A5" unicode="&#x1a5;" horiz-adv-x="1218" 
d="M233 -492h-301l363 1711q38 177 127 264.5t244 87.5q76 0 153 -31v-233q-58 20 -102 20q-95 0 -121 -102l-10 -39q-36 -125 -64 -217h8q129 170 283 170q145 0 230 -103.5t85 -304.5q0 -272 -122 -498q-140 -253 -379 -253q-174 0 -271 163h-8q-11 -151 -43 -295z
M559 223q75 0 137 75t94.5 188t32.5 233q0 86 -37 131t-104 45q-78 0 -139.5 -77.5t-92 -189.5t-30.5 -229q0 -82 34.5 -129t104.5 -47z" />
    <glyph glyph-name="uni01A6" unicode="&#x1a6;" horiz-adv-x="1247" 
d="M1092 -205h-332l-207 561h-119l-76 -356h-305l309 1462h306l-43 -205h53q475 0 475 -401q0 -166 -87.5 -278t-234.5 -162zM571 1004l-84 -396h78q133 0 205 58.5t72 173.5q0 164 -197 164h-74z" />
    <glyph glyph-name="uni01A7" unicode="&#x1a7;" horiz-adv-x="1085" 
d="M487 -20q-219 0 -333 108q-113 107 -113 270q0 86 23.5 157t60.5 120.5t95 92t113.5 70t129.5 54.5q165 61 209 84q107 55 125 131q4 17 4 37q0 57 -41.5 89t-116.5 32q-67 0 -132.5 -19t-174.5 -65l-86 239q120 54 217 78.5t217 24.5q186 0 299 -101.5t113 -267.5
q0 -84 -23 -151.5t-59.5 -115t-99.5 -89.5t-123.5 -70t-151.5 -63q-154 -62 -200 -90q-94 -57 -101 -141v-13q0 -69 47.5 -107t134.5 -38q111 0 193 26q79 23 194 68v-258q-195 -92 -420 -92z" />
    <glyph glyph-name="uni01A8" unicode="&#x1a8;" horiz-adv-x="968" 
d="M438 -20q-199 0 -304 85t-105 236q0 134 87 222.5t277 150.5q156 51 205 84t49 82q0 73 -125 73q-44 0 -103 -15t-88.5 -26t-97.5 -38l-75 215q201 90 395 90q186 0 286.5 -77.5t100.5 -213.5q0 -68 -18 -121.5t-46 -90.5t-78 -69.5t-99 -54t-124 -47.5
q-111 -39 -164.5 -65.5t-71 -47.5t-17.5 -53q0 -96 149 -96q156 0 332 86v-230q-95 -42 -175.5 -60.5t-189.5 -18.5z" />
    <glyph glyph-name="uni01A9" unicode="&#x1a9;" horiz-adv-x="1112" 
d="M930 0h-973l49 242l543 506l-322 481l49 233h906l-54 -254h-559l318 -481l-500 -471h596z" />
    <glyph glyph-name="uni01AA" unicode="&#x1aa;" horiz-adv-x="694" 
d="M360 -492q-63 0 -116.5 14.5t-99 45t-71.5 85t-26 128.5q0 57 12 110l252 1184h-14q-115 0 -184.5 60.5t-69.5 167.5q0 125 84.5 194.5t222.5 69.5q143 0 219 -67.5t76 -182.5q0 -57 -14 -117l-281 -1321q-4 -36 -4 -41q0 -86 109 -86q69 0 176 35v-227
q-111 -52 -271 -52zM307 1233h39l12 63q4 28 4 35q0 32 -19 50t-50 18q-37 0 -61.5 -23.5t-24.5 -64.5q0 -78 100 -78z" />
    <glyph glyph-name="uni01AB" unicode="&#x1ab;" horiz-adv-x="839" 
d="M246 889h-152l29 147l196 84l132 236h194l-49 -238h283l-50 -229h-282l-115 -539q-6 -30 -6 -53q0 -37 24 -55.5t64 -18.5q98 0 211 35l-86 -410q-34 -170 -111.5 -255t-220.5 -85q-82 0 -151 27v213q46 -18 104 -18q111 0 135 120l27 130q-158 0 -230.5 61.5
t-72.5 196.5q0 50 12 112z" />
    <glyph glyph-name="uni01AC" unicode="&#x1ac;" horiz-adv-x="1179" 
d="M102 1073q0 177 110.5 283t319.5 106h793l-55 -258h-352l-254 -1204h-306l254 1204h-129q-69 0 -110 -42.5t-41 -114.5q0 -22 6 -52h-227q-9 35 -9 78z" />
    <glyph glyph-name="uni01AD" unicode="&#x1ad;" horiz-adv-x="839" 
d="M246 889h-152l29 147l176 76l25 105q41 185 133 267.5t252 82.5q102 0 184 -33v-234q-68 25 -141 25q-114 0 -138 -119l-18 -88h283l-50 -229h-282l-115 -539q-6 -30 -6 -53q0 -37 24 -55.5t64 -18.5q72 0 162 35v-225q-108 -53 -266 -53q-140 0 -215.5 59.5t-75.5 198.5
q0 50 12 112z" />
    <glyph glyph-name="uni01AE" unicode="&#x1ae;" horiz-adv-x="1087" 
d="M520 1204h-352l55 258h1010l-55 -258h-353l-278 -1319q-6 -27 -6 -51q0 -82 84 -82q50 0 110 21v-234q-77 -31 -194 -31q-149 0 -231.5 67t-82.5 198q0 41 13 104z" />
    <glyph glyph-name="Uhorn" unicode="&#x1af;" horiz-adv-x="1587" 
d="M596 -20q-216 0 -335.5 115t-119.5 306q0 67 15 138l196 923h305l-194 -919q-17 -87 -17 -125q0 -178 189 -178q122 0 194 75.5t105 229.5l194 917h306l-39 -184q83 28 124 97t56 181h303l10 -24q-26 -89 -68.5 -162.5t-106.5 -134.5t-155.5 -98.5t-203.5 -46.5
l-121 -574q-26 -120 -75 -215t-125 -168.5t-187 -113t-250 -39.5z" />
    <glyph glyph-name="uhorn" unicode="&#x1b0;" horiz-adv-x="1456" 
d="M395 -20q-143 0 -216 85t-73 236q0 68 29 213l127 604h301l-137 -653q-16 -75 -16 -119q0 -123 108 -123q65 0 122.5 59.5t97.5 154.5t65 218l98 463h301l-24 -112q46 12 79 37.5t52.5 66.5t30 78.5t20.5 95.5h303l10 -24q-128 -411 -534 -443l-174 -817h-228l21 207h-8
q-150 -227 -355 -227z" />
    <glyph glyph-name="uni01B1" unicode="&#x1b1;" horiz-adv-x="1482" 
d="M657 -23q-136 0 -241.5 39.5t-171.5 110t-99.5 164.5t-33.5 207q0 120 26.5 224.5t68 178t98.5 135t110.5 99.5t113.5 67h-364l55 260h649l-59 -276q-387 -228 -387 -651q0 -140 65.5 -219.5t192.5 -79.5q80 0 148 32.5t113.5 85.5t77 121t46 138t14.5 139
q0 156 -38.5 257.5t-116.5 176.5l59 276h610l-53 -260h-373q97 -61 158 -179t61 -280q0 -119 -27.5 -229t-86 -208.5t-143 -171t-206 -115t-266.5 -42.5z" />
    <glyph glyph-name="uni01B2" unicode="&#x1b2;" horiz-adv-x="1415" 
d="M604 -20q-223 0 -343 110.5t-120 300.5q0 77 15 148l196 923h305l-194 -919q-17 -87 -17 -125q0 -178 189 -178q129 0 197.5 73.5t101.5 231.5l119 557q4 28 4 37q0 88 -80 88q-67 0 -125 -31v240q112 47 235 47q144 0 212.5 -79t68.5 -202q0 -48 -12 -106l-123 -580
q-114 -536 -629 -536z" />
    <glyph glyph-name="uni01B3" unicode="&#x1b3;" horiz-adv-x="1224" 
d="M676 0h-303l119 557l-117 473q-30 124 -56 161.5t-77 37.5q-35 0 -78 -19v240q85 35 172 35q113 0 177.5 -60t94.5 -186l88 -369l375 592h342l-618 -903z" />
    <glyph glyph-name="uni01B4" unicode="&#x1b4;" horiz-adv-x="1142" 
d="M6 -492q-84 0 -147 19v240q76 -13 116 -13q88 0 150.5 51t114.5 146l26 49l-164 1118h295l56 -518q16 -144 12 -285h8q21 74 109 254l153 310q63 128 146 194t202 66q83 0 162 -27l-43 -240q-46 11 -67 11q-50 0 -94.5 -40t-104.5 -157l-451 -846q-177 -332 -479 -332z
" />
    <glyph glyph-name="uni01B5" unicode="&#x1b5;" horiz-adv-x="1097" 
d="M920 0h-981l38 201l306 395h-189l56 254h329l275 356h-543l53 256h936l-41 -202l-319 -410h198l-55 -254h-342l-264 -340h596z" />
    <glyph glyph-name="uni01B6" unicode="&#x1b6;" horiz-adv-x="931" 
d="M748 0h-795l35 180l237 291h-151l43 199h270l176 215h-397l51 233h750l-43 -200l-205 -248h153l-43 -199h-274l-197 -238h439z" />
    <glyph glyph-name="uni01B7" unicode="&#x1b7;" horiz-adv-x="1136" 
d="M385 -20q-240 0 -389 79v263q73 -40 179.5 -69.5t184.5 -29.5q157 0 247.5 62.5t90.5 181.5q0 88 -59 137t-199 49h-153l45 205l379 348h-463l55 256h858l-43 -196l-469 -422q172 -19 266.5 -114t94.5 -257q0 -160 -79.5 -272t-218.5 -166.5t-327 -54.5z" />
    <glyph glyph-name="uni01B8" unicode="&#x1b8;" horiz-adv-x="1136" 
d="M590 -20q-262 0 -393 116q-136 115 -136 291q0 96 29.5 172.5t80.5 128.5t124.5 87.5t156 53.5t179.5 23l-350 412l41 198h919l-53 -256h-549l307 -348l-47 -217h-108q-94 0 -165.5 -10.5t-131 -35t-90.5 -70.5t-31 -111q0 -91 70.5 -140t191.5 -49q96 0 186 22t201 70
v-256q-99 -42 -199.5 -61.5t-232.5 -19.5z" />
    <glyph glyph-name="uni01B9" unicode="&#x1b9;" horiz-adv-x="1124" 
d="M479 -492q-242 0 -382 128t-140 329q0 153 77 271.5t212 186.5t313 83l-326 416l43 196h879l-51 -233h-535l310 -383l-48 -217h-106q-201 0 -328 -74q-127 -77 -127 -234q0 -104 69 -163.5t185 -59.5q149 0 361 88v-252q-107 -44 -192.5 -63t-213.5 -19z" />
    <glyph glyph-name="uni01BA" unicode="&#x1ba;" horiz-adv-x="1087" 
d="M309 -492q-182 0 -286.5 75t-104.5 218q0 318 453 359q153 14 217.5 47t64.5 106q0 52 -64 73.5t-200 21.5h-133l43 204l319 273h-432l52 233h829l-43 -196l-369 -295q137 -21 219 -98t82 -207q0 -70 -13.5 -122.5t-52 -103t-104.5 -86t-173.5 -63t-256.5 -41.5
q-91 -9 -138.5 -28.5t-47.5 -63.5q0 -80 178 -80q187 0 416 80v-226q-81 -33 -205 -56.5t-250 -23.5z" />
    <glyph glyph-name="uni01BB" unicode="&#x1bb;" horiz-adv-x="1126" 
d="M936 0h-983l43 213l457 446h-336l43 199h491q174 162 174 297q0 154 -151 154q-70 0 -138 -35.5t-169 -116.5l-146 203q115 99 235 153t267 54q196 0 304 -103t108 -272q0 -93 -41 -181.5t-111 -152.5h139l-43 -199h-274l-395 -389v-10h579z" />
    <glyph glyph-name="uni01BC" unicode="&#x1bc;" horiz-adv-x="1142" 
d="M0 326q69 -39 174.5 -67t194.5 -28q75 0 139 15t116 45.5t81.5 84.5t29.5 126q0 90 -64 132t-200 42h-229l118 528h-161l55 258h950l-55 -258h-494l-65 -270h22q202 0 318.5 -111t116.5 -297q0 -143 -48.5 -249.5t-139 -170.5t-209 -95t-267.5 -31q-114 0 -216.5 21.5
t-166.5 61.5v263z" />
    <glyph glyph-name="uni01BD" unicode="&#x1bd;" horiz-adv-x="1095" 
d="M0 301q64 -35 164.5 -60.5t189.5 -25.5q312 0 312 154q0 56 -65 82t-200 26h-186l90 412h-168l49 229h901l-49 -229h-458l-45 -199h30q192 0 299 -75.5t107 -219.5q0 -202 -144.5 -308.5t-441.5 -106.5q-111 0 -218 20t-167 55v246z" />
    <glyph glyph-name="uni01BE" unicode="&#x1be;" horiz-adv-x="966" 
d="M0 291q164 -88 319 -88q224 0 224 131q0 20 -12.5 39t-25.5 30t-45.5 35.5t-47.5 36.5q-31 25 -50.5 44.5t-42 49.5t-33 68t-10.5 84q0 51 19 131l8 37h-188l28 147l197 84l131 236h195l-50 -238h283l-49 -229h-275l-16 -72q-6 -27 -6 -51q0 -64 68 -113q41 -29 66 -48
t57 -49.5t49.5 -58.5t30 -66t12.5 -81q0 -168 -118.5 -269t-363.5 -101q-102 0 -201 18.5t-153 50.5v242z" />
    <glyph glyph-name="uni01BF" unicode="&#x1bf;" horiz-adv-x="1218" 
d="M233 -492h-301l342 1610h230l-17 -170h9q67 88 143.5 139.5t177.5 51.5q143 0 227 -101t84 -278q0 -147 -57 -283.5t-159.5 -243.5t-253 -179.5t-328.5 -92.5zM444 502l-59 -281q187 28 312.5 173.5t125.5 346.5q0 73 -31.5 113.5t-93.5 40.5q-99 0 -156 -97t-98 -296z
" />
    <glyph glyph-name="uni01C0" unicode="&#x1c0;" horiz-adv-x="595" 
d="M289 0h-219l331 1556h220z" />
    <glyph glyph-name="uni01C1" unicode="&#x1c1;" horiz-adv-x="1128" 
d="M821 0h-219l332 1556h219zM289 0h-219l331 1556h220z" />
    <glyph glyph-name="uni01C2" unicode="&#x1c2;" horiz-adv-x="1056" 
d="M96 514l41 199h316l36 172h-315l43 198h315l101 473h219l-100 -473h317l-43 -198h-317l-37 -172h317l-41 -199h-317l-111 -514h-219l111 514h-316z" />
    <glyph glyph-name="uni01C3" unicode="&#x1c3;" horiz-adv-x="585" 
d="M399 485h-258l166 977h340zM180 -27q-80 0 -117.5 40.5t-37.5 101.5q0 72 47 137q46 61 157 61q68 0 109 -38.5t41 -106.5q0 -86 -54.5 -140.5t-144.5 -54.5z" />
    <glyph glyph-name="uni01C4" unicode="&#x1c4;" horiz-adv-x="2484" 
d="M504 0h-451l309 1462h396q270 0 417.5 -143t147.5 -410q0 -198 -51 -362t-150.5 -287t-257 -191.5t-360.5 -68.5zM2306 0h-981l39 201l776 1005h-543l54 256h936l-41 -202l-783 -1004h596zM412 256h106q122 0 218 52t154.5 141t89 202t30.5 242q0 158 -73.5 236.5
t-207.5 78.5h-115zM1810 1888v25h199q84 -73 162 -168q111 91 231 168h217v-25q-63 -56 -153 -148.5t-142 -154.5h-337q-51 120 -177 303z" />
    <glyph glyph-name="uni01C5" unicode="&#x1c5;" horiz-adv-x="2318" 
d="M504 0h-451l309 1462h396q270 0 417.5 -143t147.5 -410q0 -208 -54.5 -376t-158 -286.5t-258 -182.5t-348.5 -64zM2134 0h-795l35 180l576 705h-398l52 233h749l-43 -200l-565 -685h438zM614 1208l-202 -952h106q122 0 218 52t154.5 141t89 202t30.5 242
q0 158 -73.5 236.5t-207.5 78.5h-115zM1829 1241q-53 124 -176 303v25h198q84 -73 162 -168q107 88 232 168h217v-25q-63 -56 -153 -148.5t-142 -154.5h-338z" />
    <glyph glyph-name="uni01C6" unicode="&#x1c6;" horiz-adv-x="2148" 
d="M90 387q0 136 37.5 270t103 241.5t164.5 174t213 66.5q93 0 152 -43t102 -121h8q0 7 3 42.5t10 89.5t14 91l76 358h301l-330 -1556h-229l18 145h-8q-135 -165 -319 -165q-64 0 -118.5 22t-100 68.5t-71.5 127.5t-26 189zM1169 0l35 180l576 705h-398l52 233h749l-43 -200
l-565 -685h438l-49 -233h-795zM395 399q0 -176 137 -176q66 0 120 54.5t84.5 135.5t46.5 161.5t16 144.5q0 80 -37.5 128t-102.5 48q-71 0 -133 -75t-96.5 -189t-34.5 -232zM1483 1544v25h198q84 -73 162 -168q107 88 232 168h217v-25q-63 -56 -153 -148.5t-142 -154.5h-338
q-53 124 -176 303z" />
    <glyph glyph-name="uni01C7" unicode="&#x1c7;" horiz-adv-x="1738" 
d="M739 -150q94 -20 164 -20q199 0 250 252l293 1380h305l-303 -1423q-53 -249 -178 -359t-344 -110q-92 0 -187 27v253zM870 0h-817l309 1462h306l-256 -1206h512z" />
    <glyph glyph-name="uni01C8" unicode="&#x1c8;" horiz-adv-x="1669" 
d="M870 0h-817l309 1462h306l-256 -1206h512zM1536 1257q-152 0 -152 123q0 85 48 130.5t135 45.5q66 0 107.5 -28.5t41.5 -91.5q0 -83 -45.5 -131t-134.5 -48zM971 -492q-101 0 -174 25v242q61 -21 114 -21q64 0 109 42.5t63 127.5l254 1194h301l-264 -1239
q-18 -82 -47 -145.5t-75.5 -116t-117.5 -81t-163 -28.5z" />
    <glyph glyph-name="uni01C9" unicode="&#x1c9;" horiz-adv-x="1216" 
d="M338 0h-301l330 1556h301zM1083 1257q-151 0 -151 123q0 86 47.5 131t134.5 45q66 0 108 -28.5t42 -91.5q0 -82 -46 -130.5t-135 -48.5zM518 -492q-101 0 -174 25v242q62 -21 115 -21q64 0 109 42.5t63 127.5l254 1194h301l-264 -1239q-18 -82 -47 -145.5t-76 -116
t-118 -81t-163 -28.5z" />
    <glyph glyph-name="uni01CA" unicode="&#x1ca;" horiz-adv-x="2224" 
d="M328 0h-275l309 1462h357l340 -1077h8q35 237 68 385l147 692h274l-309 -1462h-342l-356 1106h-10q-30 -233 -66 -418zM1225 -403v253q94 -20 164 -20q99 0 161 61.5t88 190.5l293 1380h305l-303 -1423q-53 -249 -178 -359t-344 -110q-91 0 -186 27z" />
    <glyph glyph-name="uni01CB" unicode="&#x1cb;" horiz-adv-x="2154" 
d="M328 0h-275l309 1462h357l340 -1077h8q35 237 68 385l147 692h274l-309 -1462h-342l-356 1106h-10q-30 -233 -66 -418zM1282 -225q62 -21 115 -21q64 0 109 42.5t63 127.5l254 1194h301l-264 -1239q-18 -82 -47 -145.5t-76 -116t-118 -81t-163 -28.5q-101 0 -174 25v242z
M2021 1257q-151 0 -151 123q0 86 47.5 131t134.5 45q66 0 108 -28.5t42 -91.5q0 -82 -46 -130.5t-135 -48.5z" />
    <glyph glyph-name="uni01CC" unicode="&#x1cc;" horiz-adv-x="1845" 
d="M338 0h-301l237 1118h230l-21 -207h9q70 107 155 167.5t197 60.5q142 0 215.5 -86.5t73.5 -235.5q0 -62 -23 -180l-133 -637h-301l137 653q16 75 16 119q0 123 -108 123q-98 0 -170 -119t-115 -313zM1147 -492q-101 0 -174 25v242q61 -21 114 -21q64 0 109.5 42.5
t63.5 127.5l253 1194h302l-265 -1239q-18 -82 -47 -145.5t-75.5 -116t-117.5 -81t-163 -28.5zM1712 1257q-151 0 -151 123q0 86 47.5 131t134.5 45q66 0 107.5 -28.5t41.5 -91.5q0 -83 -45.5 -131t-134.5 -48z" />
    <glyph glyph-name="uni01CD" unicode="&#x1cd;" horiz-adv-x="1286" 
d="M197 0h-320l766 1462h373l147 -1462h-297l-24 348h-473zM692 1585q-53 124 -176 303v25h199q84 -73 162 -168q111 91 231 168h217v-25q-63 -56 -153 -148.5t-142 -154.5h-338zM686 1004l-192 -396h333l-26 377q-12 160 -10 246h-5q-32 -88 -100 -227z" />
    <glyph glyph-name="uni01CE" unicode="&#x1ce;" horiz-adv-x="1216" 
d="M90 385q0 136 37.5 270.5t103 242t164.5 174.5t213 67q195 0 277 -164h8l57 143h232l-238 -1118h-225l14 145h-8q-135 -165 -319 -165q-63 0 -118 22.5t-100.5 68.5t-71.5 126.5t-26 187.5zM395 399q0 -176 129 -176q88 0 161 101t99 239q15 73 15 168q0 73 -37.5 118.5
t-102.5 45.5q-71 0 -133 -75t-96.5 -189t-34.5 -232zM408 1569h198q84 -73 162 -168q111 91 231 168h218v-25q-63 -56 -153 -148.5t-142 -154.5h-338q-53 124 -176 303v25z" />
    <glyph glyph-name="uni01CF" unicode="&#x1cf;" horiz-adv-x="784" 
d="M588 0h-647l36 176l187 82l201 946l-152 82l37 176h647l-37 -176l-190 -82l-201 -946l156 -82zM428 1585q-53 124 -176 303v25h199q80 -70 161 -168q107 88 232 168h217v-25q-63 -56 -153 -148.5t-142 -154.5h-338z" />
    <glyph glyph-name="uni01D0" unicode="&#x1d0;" horiz-adv-x="608" 
d="M338 0h-301l237 1118h301zM281 1241q-51 120 -177 303v25h199q84 -73 162 -168q111 91 231 168h217v-25q-63 -56 -153 -148.5t-142 -154.5h-337z" />
    <glyph glyph-name="uni01D1" unicode="&#x1d1;" horiz-adv-x="1495" 
d="M123 537q0 140 29 274t91 257t151 215t219 147t284 55q260 0 397.5 -147t137.5 -400q0 -146 -28 -282.5t-89 -260t-149 -215.5t-216.5 -146t-283.5 -54q-261 0 -402 150t-141 407zM434 537q0 -144 67 -220.5t187 -76.5q183 0 307.5 191.5t124.5 498.5q0 138 -63.5 217.5
t-184.5 79.5q-124 0 -225 -94t-157 -252t-56 -344zM621 1913h198q84 -73 162 -168q111 91 231 168h218v-25q-63 -56 -153 -148.5t-142 -154.5h-338q-53 124 -176 303v25z" />
    <glyph glyph-name="uni01D2" unicode="&#x1d2;" horiz-adv-x="1198" 
d="M90 410q0 120 23 227.5t71.5 199.5t118 159t167 105t214.5 38q196 0 310 -117.5t114 -325.5q0 -145 -36 -271.5t-106 -227t-185.5 -159t-262.5 -58.5q-191 0 -309.5 116.5t-118.5 313.5zM393 410q0 -185 150 -185q81 0 142 68.5t90.5 174t29.5 228.5q0 197 -143 197
q-52 0 -97.5 -31t-76 -81t-53 -114t-32.5 -129.5t-10 -127.5zM559 1241q-53 124 -176 303v25h199q80 -70 161 -168q107 88 232 168h217v-25q-63 -56 -153 -148.5t-142 -154.5h-338z" />
    <glyph glyph-name="uni01D3" unicode="&#x1d3;" horiz-adv-x="1415" 
d="M141 391q0 77 15 148l196 923h305l-194 -919q-17 -87 -17 -125q0 -178 189 -178q129 0 197.5 73.5t101.5 231.5l194 917h306l-201 -946q-114 -536 -629 -536q-223 0 -343 110.5t-120 300.5zM573 1888v25h199q84 -73 162 -168q111 91 231 168h217v-25q-63 -56 -153 -148.5
t-142 -154.5h-337q-51 120 -177 303z" />
    <glyph glyph-name="uni01D4" unicode="&#x1d4;" horiz-adv-x="1236" 
d="M111 301q0 93 24 213l127 604h301l-137 -653q-16 -75 -16 -119q0 -123 108 -123q65 0 122.5 59.5t97.5 154.5t65 218l98 463h301l-237 -1118h-230l21 207h-11q-72 -109 -156 -168t-194 -59q-143 0 -213.5 84.5t-70.5 236.5zM594 1241q-53 124 -176 303v25h198
q84 -73 162 -168q107 88 232 168h217v-25q-63 -56 -153 -148.5t-142 -154.5h-338z" />
    <glyph glyph-name="uni01D5" unicode="&#x1d5;" horiz-adv-x="1415" 
d="M141 391q0 77 15 148l196 923h305l-194 -919q-17 -87 -17 -125q0 -178 189 -178q129 0 197.5 73.5t101.5 231.5l194 917h306l-201 -946q-114 -536 -629 -536q-223 0 -343 110.5t-120 300.5zM655 1905l39 190h652l-39 -190h-652zM616 1671q0 72 39 110t111 38
q123 0 123 -101q0 -69 -37.5 -108t-110.5 -39q-125 0 -125 100zM995 1671q0 71 40 109.5t110 38.5q123 0 123 -101q0 -69 -37.5 -108t-110.5 -39q-125 0 -125 100z" />
    <glyph glyph-name="uni01D6" unicode="&#x1d6;" horiz-adv-x="1236" 
d="M395 -20q-143 0 -213.5 84.5t-70.5 236.5q0 93 24 213l127 604h301l-137 -653q-16 -75 -16 -119q0 -123 108 -123q65 0 122.5 59.5t97.5 154.5t65 218l98 463h301l-237 -1118h-230l21 207h-11q-72 -109 -156 -168t-194 -59zM500 1561l39 190h651l-39 -190h-651zM586 1227
q-125 0 -125 100q0 72 38.5 110t110.5 38q123 0 123 -101q0 -69 -37 -108t-110 -39zM840 1327q0 71 39.5 109.5t109.5 38.5q123 0 123 -101q0 -69 -37 -108t-110 -39q-125 0 -125 100z" />
    <glyph glyph-name="uni01D7" unicode="&#x1d7;" horiz-adv-x="1415" 
d="M141 391q0 77 15 148l196 923h305l-194 -919q-17 -87 -17 -125q0 -178 189 -178q129 0 197.5 73.5t101.5 231.5l194 917h306l-201 -946q-114 -536 -629 -536q-223 0 -343 110.5t-120 300.5zM829 1851v23q89 99 197 274h326v-18q-55 -59 -151 -139t-179 -140h-193z
M721 1571q-117 0 -117 100q0 148 141 148q115 0 115 -101q0 -70 -34.5 -108.5t-104.5 -38.5zM1116 1571q-117 0 -117 100q0 148 142 148q50 0 82 -24t32 -77q0 -69 -35.5 -108t-103.5 -39z" />
    <glyph glyph-name="uni01D8" unicode="&#x1d8;" horiz-adv-x="1236" 
d="M395 -20q-143 0 -213.5 84.5t-70.5 236.5q0 93 24 213l127 604h301l-137 -653q-16 -75 -16 -119q0 -123 108 -123q65 0 122.5 59.5t97.5 154.5t65 218l98 463h301l-237 -1118h-230l21 207h-11q-72 -109 -156 -168t-194 -59zM674 1507v23q85 95 196 274h326v-18
q-55 -59 -151 -139t-179 -140h-192zM565 1227q-116 0 -116 100q0 148 141 148q115 0 115 -101q0 -70 -35 -108.5t-105 -38.5zM961 1227q-117 0 -117 100q0 148 141 148q50 0 82.5 -24t32.5 -77q0 -69 -35.5 -108t-103.5 -39z" />
    <glyph glyph-name="uni01D9" unicode="&#x1d9;" horiz-adv-x="1415" 
d="M604 -20q-223 0 -343 110.5t-120 300.5q0 77 15 148l196 923h305l-194 -919q-17 -87 -17 -125q0 -178 189 -178q129 0 197.5 73.5t101.5 231.5l194 917h306l-201 -946q-114 -536 -629 -536zM836 1864q-52 97 -181 266v20h162q86 -64 166 -151q161 111 236 151h182v-20
q-198 -156 -297 -266h-268zM616 1671q0 72 39 110t111 38q123 0 123 -101q0 -69 -37.5 -108t-110.5 -39q-125 0 -125 100zM995 1671q0 71 40 109.5t110 38.5q123 0 123 -101q0 -69 -37.5 -108t-110.5 -39q-125 0 -125 100z" />
    <glyph glyph-name="uni01DA" unicode="&#x1da;" horiz-adv-x="1236" 
d="M111 301q0 93 24 213l127 604h301l-137 -653q-16 -75 -16 -119q0 -123 108 -123q65 0 122.5 59.5t97.5 154.5t65 218l98 463h301l-237 -1118h-230l21 207h-11q-72 -109 -156 -168t-194 -59q-143 0 -213.5 84.5t-70.5 236.5zM680 1520q-54 101 -180 266v20h162
q82 -61 165 -151q161 111 236 151h182v-20q-198 -156 -297 -266h-268zM586 1227q-125 0 -125 100q0 72 38.5 110t110.5 38q123 0 123 -101q0 -69 -37 -108t-110 -39zM965 1227q-125 0 -125 100q0 71 39.5 109.5t109.5 38.5q123 0 123 -101q0 -69 -37 -108t-110 -39z" />
    <glyph glyph-name="uni01DB" unicode="&#x1db;" horiz-adv-x="1415" 
d="M604 -20q-223 0 -343 110.5t-120 300.5q0 77 15 148l196 923h305l-194 -919q-17 -87 -17 -125q0 -178 189 -178q129 0 197.5 73.5t101.5 231.5l194 917h306l-201 -946q-114 -536 -629 -536zM676 2128v20h289q35 -118 120 -272v-25h-176q-59 58 -91 90.5t-76 87.5t-66 99z
M610 1671q0 148 142 148q114 0 114 -101q0 -70 -34.5 -108.5t-104.5 -38.5q-117 0 -117 100zM1006 1671q0 148 141 148q50 0 82.5 -24t32.5 -77q0 -69 -36 -108t-104 -39q-116 0 -116 100z" />
    <glyph glyph-name="uni01DC" unicode="&#x1dc;" horiz-adv-x="1236" 
d="M395 -20q-143 0 -213.5 84.5t-70.5 236.5q0 93 24 213l127 604h301l-137 -653q-16 -75 -16 -119q0 -123 108 -123q65 0 122.5 59.5t97.5 154.5t65 218l98 463h301l-237 -1118h-230l21 207h-11q-72 -109 -156 -168t-194 -59zM754 1507q-61 60 -91.5 90.5t-75.5 86.5
t-67 100v20h289q34 -114 121 -272v-25h-176zM571 1227q-116 0 -116 100q0 148 141 148q115 0 115 -101q0 -70 -35 -108.5t-105 -38.5zM850 1327q0 148 141 148q50 0 82.5 -24t32.5 -77q0 -69 -35.5 -108t-103.5 -39q-117 0 -117 100z" />
    <glyph glyph-name="uni01DD" unicode="&#x1dd;" horiz-adv-x="1140" 
d="M426 -20q-183 0 -279 83t-96 222q0 182 162.5 285.5t480.5 103.5h51q3 24 3 41q0 91 -53 143.5t-146 52.5q-87 0 -158.5 -19t-171.5 -67v228q91 44 181 65t208 21q198 0 320 -107q123 -108 123 -325q0 -113 -25 -219.5t-77 -198.5t-125.5 -161t-175.5 -108.5t-222 -39.5z
M444 197q85 0 165 78t104 196h-45q-164 0 -246 -51t-82 -129q0 -94 104 -94z" />
    <glyph glyph-name="uni01DE" unicode="&#x1de;" horiz-adv-x="1286" 
d="M197 0h-320l766 1462h373l147 -1462h-297l-24 348h-473zM598 1905l39 190h651l-39 -190h-651zM494 608h333l-26 377q-12 160 -10 246h-5q-32 -88 -100 -227zM559 1671q0 72 39 110t111 38q122 0 122 -101q0 -69 -37 -108t-110 -39q-125 0 -125 100zM938 1671
q0 71 39.5 109.5t109.5 38.5q123 0 123 -101q0 -69 -37 -108t-110 -39q-125 0 -125 100z" />
    <glyph glyph-name="uni01DF" unicode="&#x1df;" horiz-adv-x="1216" 
d="M406 -20q-63 0 -118 22.5t-100.5 68.5t-71.5 126.5t-26 187.5q0 136 37.5 270.5t103 242t164.5 174.5t213 67q195 0 277 -164h8l57 143h232l-238 -1118h-225l14 145h-8q-135 -165 -319 -165zM524 223q88 0 161 101t99 239q15 73 15 168q0 73 -37.5 118.5t-102.5 45.5
q-71 0 -133 -75t-96.5 -189t-34.5 -232q0 -176 129 -176zM1141 1561h-652l39 190h652zM575 1227q-124 0 -124 100q0 72 38.5 110t110.5 38q123 0 123 -101q0 -69 -37.5 -108t-110.5 -39zM954 1227q-125 0 -125 100q0 71 40 109.5t110 38.5q123 0 123 -101q0 -69 -37.5 -108
t-110.5 -39z" />
    <glyph glyph-name="uni01E0" unicode="&#x1e0;" horiz-adv-x="1286" 
d="M197 0h-320l766 1462h373l147 -1462h-297l-24 348h-473zM569 1898l39 191h652l-39 -191h-652zM686 1004l-192 -396h333l-26 377q-12 160 -10 246h-5q-32 -88 -100 -227zM733 1665q0 71 36 109t103 38q50 0 81.5 -23.5t31.5 -76.5q0 -69 -34.5 -108t-102.5 -39
q-115 0 -115 100z" />
    <glyph glyph-name="uni01E1" unicode="&#x1e1;" horiz-adv-x="1216" 
d="M406 -20q-63 0 -118 22.5t-100.5 68.5t-71.5 126.5t-26 187.5q0 136 37.5 270.5t103 242t164.5 174.5t213 67q195 0 277 -164h8l57 143h232l-238 -1118h-225l14 145h-8q-135 -165 -319 -165zM524 223q88 0 161 101t99 239q15 73 15 168q0 73 -37.5 118.5t-102.5 45.5
q-71 0 -133 -75t-96.5 -189t-34.5 -232q0 -176 129 -176zM1135 1561h-652l39 190h652zM762 1227q-115 0 -115 100q0 72 36.5 110t102.5 38q49 0 81 -24t32 -77q0 -69 -34.5 -108t-102.5 -39z" />
    <glyph glyph-name="uni01E2" unicode="&#x1e2;" horiz-adv-x="1832" 
d="M205 0h-328l922 1462h1104l-54 -254h-512l-67 -321h477l-55 -254h-478l-79 -377h512l-54 -256h-817l74 348h-426zM961 1585l45 211h618l-45 -211h-618zM588 608h317l127 600h-80z" />
    <glyph glyph-name="uni01E3" unicode="&#x1e3;" horiz-adv-x="1785" 
d="M399 -20q-140 0 -224.5 106t-84.5 299q0 147 38 283.5t104.5 241t163 167t206.5 62.5q99 0 161.5 -40.5t108.5 -123.5h11l57 143h188l-18 -90q46 53 124 82t165 29q158 0 247 -84t89 -221q0 -182 -163 -286t-480 -104h-52q-2 -16 -2 -38q0 -81 47 -140t168 -59
q72 0 157.5 24.5t156.5 61.5v-227q-183 -86 -361 -86q-110 0 -181.5 27t-115.5 87l-16 -94h-188l14 145h-10q-66 -81 -138.5 -123t-171.5 -42zM1073 647h45q164 0 246 51t82 129q0 95 -105 95q-85 0 -164.5 -78.5t-103.5 -196.5zM518 223q88 0 154 90q63 86 94 217
q22 99 22 189q0 82 -34 129t-101 47q-74 0 -134.5 -75.5t-92 -188t-31.5 -232.5q0 -91 34.5 -133.5t88.5 -42.5zM1337 1241h-618l45 211h618z" />
    <glyph glyph-name="uni01E4" unicode="&#x1e4;" horiz-adv-x="1413" 
d="M123 549q0 150 34.5 288t105.5 256t171 205.5t240 137t305 49.5q219 0 410 -99l-115 -251q-157 88 -309 88q-104 0 -192.5 -38.5t-149.5 -102.5t-104.5 -148.5t-64 -176t-20.5 -184.5q0 -354 303 -354q74 0 158 25l18 84h-243l41 198h247l21 99h-266l55 258h563l-76 -357
h127l-41 -198h-129l-57 -269q-111 -39 -223 -59t-268 -20q-256 0 -398.5 147.5t-142.5 421.5z" />
    <glyph glyph-name="uni01E5" unicode="&#x1e5;" horiz-adv-x="1216" 
d="M27 -193q163 -86 348 -86q117 0 194 93h-237l33 157h278l16 76q6 28 30 93t26 71h-8q-122 -156 -316 -156q-131 0 -216 91t-85 280q0 128 38 255.5t103 229t163 165t208 63.5q102 0 165 -40.5t118 -123.5h8l57 143h232l-244 -1147h145l-32 -157h-162
q-66 -163 -191.5 -234.5t-306.5 -71.5q-119 0 -202 17.5t-162 54.5v227zM395 444q0 -78 37.5 -118.5t104.5 -40.5q60 0 111.5 44.5t83 112.5t49.5 145.5t18 147.5q0 72 -37 116t-100 44q-73 0 -135.5 -68.5t-97 -172t-34.5 -210.5z" />
    <glyph glyph-name="Gcaron" unicode="&#x1e6;" horiz-adv-x="1413" 
d="M123 549q0 150 34.5 288t105.5 256t171 205.5t240 137t305 49.5q219 0 410 -99l-115 -251q-157 88 -309 88q-104 0 -192.5 -38.5t-149.5 -102.5t-104.5 -148.5t-64 -176t-20.5 -184.5q0 -167 71 -250t224 -83q72 0 170 24l66 299h-267l56 258h563l-162 -762
q-111 -39 -223 -59t-268 -20q-256 0 -398.5 147t-142.5 422zM610 1913h199q84 -73 162 -168q111 91 231 168h217v-25q-63 -56 -153 -148.5t-142 -154.5h-338q-53 124 -176 303v25z" />
    <glyph glyph-name="gcaron" unicode="&#x1e7;" horiz-adv-x="1216" 
d="M27 -158q163 -86 348 -86q105 0 170 48.5t94 150.5l8 31q7 30 20 72t21.5 67.5t7.5 24.5h-8q-63 -80 -132 -125t-165 -45q-129 0 -215 102.5t-86 302.5q0 136 38 270.5t103 242t163 174.5t208 67q102 0 165 -40.5t118 -123.5h8l57 143h232l-244 -1145q-53 -251 -191 -358
t-356 -107q-119 0 -202 17.5t-162 54.5v262zM395 399q0 -86 37.5 -131t104.5 -45q60 0 111.5 49t83 124t49.5 160t18 163q0 80 -37 128t-100 48q-73 0 -135.5 -75t-97 -188.5t-34.5 -232.5zM401 1544v25h199q84 -73 162 -168q111 91 231 168h217v-25q-63 -56 -153 -148.5
t-142 -154.5h-337q-51 120 -177 303z" />
    <glyph glyph-name="uni01E8" unicode="&#x1e8;" horiz-adv-x="1255" 
d="M53 0l309 1462h306l-154 -706l156 209l413 497h361l-594 -700l291 -762h-338l-211 592l-125 -70l-109 -522h-305zM545 1888v25h198q84 -73 162 -168q107 88 232 168h217v-25q-63 -56 -153 -148.5t-142 -154.5h-338q-53 124 -176 303z" />
    <glyph glyph-name="uni01E9" unicode="&#x1e9;" horiz-adv-x="1163" 
d="M37 0l330 1556h301l-148 -694q-8 -39 -33 -121.5t-28 -97.5h8l453 475h344l-498 -504l285 -614h-336l-183 420l-120 -72l-74 -348h-301zM195 1982v25h198q84 -73 162 -168q111 91 231 168h218v-25q-63 -56 -153 -148.5t-142 -154.5h-338q-53 124 -176 303z" />
    <glyph glyph-name="uni01EA" unicode="&#x1ea;" horiz-adv-x="1495" 
d="M571 -14q-217 27 -332.5 173t-115.5 378q0 140 29 274t91 257t151 215t219 147t284 55q260 0 397.5 -147t137.5 -400q0 -170 -39.5 -326.5t-117 -289.5t-206 -222.5t-293.5 -111.5q-83 -67 -128.5 -122t-45.5 -116q0 -59 60 -59q39 0 102 18v-176q-88 -25 -164 -25
q-102 0 -161.5 53.5t-59.5 141.5t49 154t143 129zM872 1227q-124 0 -225 -94t-157 -252t-56 -344q0 -144 67 -220.5t187 -76.5q183 0 307.5 191.5t124.5 498.5q0 138 -63.5 217.5t-184.5 79.5z" />
    <glyph glyph-name="uni01EB" unicode="&#x1eb;" horiz-adv-x="1198" 
d="M414 -10q-148 30 -236 141t-88 279q0 120 23 227.5t71.5 199.5t118 159t167 105t214.5 38q196 0 310 -117.5t114 -325.5q0 -133 -30.5 -251t-90 -215t-156.5 -161.5t-221 -82.5q-83 -66 -127.5 -120.5t-44.5 -115.5q0 -59 60 -59q39 0 102 18v-176q-87 -25 -164 -25
q-102 0 -161.5 53.5t-59.5 141.5q0 89 50.5 155.5t148.5 131.5zM662 893q-52 0 -97.5 -31t-76 -81t-53 -114t-32.5 -129.5t-10 -127.5q0 -185 150 -185q81 0 142 68.5t90.5 174t29.5 228.5q0 197 -143 197z" />
    <glyph glyph-name="uni01EC" unicode="&#x1ec;" horiz-adv-x="1495" 
d="M123 537q0 140 29 274t91 257t151 215t219 147t284 55q260 0 397.5 -147t137.5 -400q0 -170 -39.5 -326.5t-117 -289.5t-206 -222.5t-293.5 -111.5q-83 -67 -128.5 -122t-45.5 -116q0 -59 60 -59q39 0 102 18v-176q-88 -25 -164 -25q-102 0 -161.5 53.5t-59.5 141.5
t49 154t143 129q-217 27 -332.5 173t-115.5 378zM434 537q0 -144 67 -220.5t187 -76.5q183 0 307.5 191.5t124.5 498.5q0 138 -63.5 217.5t-184.5 79.5q-124 0 -225 -94t-157 -252t-56 -344zM647 1585l45 211h619l-45 -211h-619z" />
    <glyph glyph-name="uni01ED" unicode="&#x1ed;" horiz-adv-x="1198" 
d="M90 410q0 120 23 227.5t71.5 199.5t118 159t167 105t214.5 38q196 0 310 -117.5t114 -325.5q0 -133 -30.5 -251t-90 -215t-156.5 -161.5t-221 -82.5q-83 -66 -127.5 -120.5t-44.5 -115.5q0 -59 60 -59q39 0 102 18v-176q-87 -25 -164 -25q-102 0 -161.5 53.5t-59.5 141.5
q0 89 50.5 155.5t148.5 131.5q-148 30 -236 141t-88 279zM393 410q0 -185 150 -185q81 0 142 68.5t90.5 174t29.5 228.5q0 197 -143 197q-52 0 -97.5 -31t-76 -81t-53 -114t-32.5 -129.5t-10 -127.5zM410 1241l45 211h618l-45 -211h-618z" />
    <glyph glyph-name="uni01EE" unicode="&#x1ee;" horiz-adv-x="1136" 
d="M-4 59v263q73 -40 179.5 -69.5t184.5 -29.5q157 0 247.5 62.5t90.5 181.5q0 88 -59 137t-199 49h-153l45 205l379 348h-463l55 256h858l-43 -196l-469 -422q172 -19 266.5 -114t94.5 -257q0 -160 -79.5 -272t-218.5 -166.5t-327 -54.5q-240 0 -389 79zM387 1882v25h199
q84 -73 162 -168q111 91 231 168h217v-25q-63 -56 -153 -148.5t-142 -154.5h-338q-53 124 -176 303z" />
    <glyph glyph-name="uni01EF" unicode="&#x1ef;" horiz-adv-x="1120" 
d="M-90 -416v266q78 -45 172 -69.5t168 -24.5q173 0 262.5 86.5t89.5 220.5q0 101 -65 161.5t-195 60.5h-135l45 215l399 385h-485l49 233h854l-41 -196l-481 -449q171 -13 269.5 -118t98.5 -263q0 -267 -172 -427.5t-456 -160.5q-214 0 -377 80zM297 1544v25h199
q80 -70 161 -168q107 88 232 168h217v-25q-63 -56 -153 -148.5t-142 -154.5h-338q-53 124 -176 303z" />
    <glyph glyph-name="uni01F0" unicode="&#x1f0;" horiz-adv-x="608" 
d="M-88 -492q-101 0 -174 25v242q61 -21 115 -21q64 0 109 42.5t63 127.5l254 1194h301l-265 -1239q-16 -81 -45.5 -145t-77 -116.5t-118.5 -81t-162 -28.5zM96 1544v25h199q84 -73 162 -168q111 91 231 168h217v-25q-63 -56 -153 -148.5t-142 -154.5h-338q-53 124 -176 303
z" />
    <glyph glyph-name="uni01F1" unicode="&#x1f1;" horiz-adv-x="2484" 
d="M504 0h-451l309 1462h396q270 0 417.5 -143t147.5 -410q0 -198 -51 -362t-150.5 -287t-257 -191.5t-360.5 -68.5zM2306 0h-981l39 201l776 1005h-543l54 256h936l-41 -202l-783 -1004h596zM614 1208l-202 -952h106q122 0 218 52t154.5 141t89 202t30.5 242
q0 158 -73.5 236.5t-207.5 78.5h-115z" />
    <glyph glyph-name="uni01F2" unicode="&#x1f2;" horiz-adv-x="2318" 
d="M504 0h-451l309 1462h396q270 0 417.5 -143t147.5 -410q0 -208 -54.5 -376t-158 -286.5t-258 -182.5t-348.5 -64zM2134 0h-795l35 180l576 705h-398l52 233h749l-43 -200l-565 -685h438zM412 256h106q122 0 218 52t154.5 141t89 202t30.5 242q0 158 -73.5 236.5
t-207.5 78.5h-115z" />
    <glyph glyph-name="uni01F3" unicode="&#x1f3;" horiz-adv-x="2148" 
d="M406 -20q-64 0 -118.5 22t-100 68.5t-71.5 127.5t-26 189q0 136 37.5 270t103 241.5t164.5 174t213 66.5q93 0 152 -43t102 -121h8q0 7 3 42.5t10 89.5t14 91l76 358h301l-330 -1556h-229l18 145h-8q-135 -165 -319 -165zM1964 0h-795l35 180l576 705h-398l52 233h749
l-43 -200l-565 -685h438zM395 399q0 -176 137 -176q66 0 120 54.5t84.5 135.5t46.5 161.5t16 144.5q0 80 -37.5 128t-102.5 48q-71 0 -133 -75t-96.5 -189t-34.5 -232z" />
    <glyph glyph-name="uni01F4" unicode="&#x1f4;" horiz-adv-x="1413" 
d="M664 -20q-256 0 -398.5 147t-142.5 422q0 150 34.5 288t105.5 256t171 205.5t240 137t305 49.5q219 0 410 -99l-115 -251q-157 88 -309 88q-104 0 -192.5 -38.5t-149.5 -102.5t-104.5 -148.5t-64 -176t-20.5 -184.5q0 -167 71 -250t224 -83q72 0 170 24l66 299h-267
l56 258h563l-162 -762q-111 -39 -223 -59t-268 -20zM999 1585h-208v25q50 55 112 145q58 80 109 158h336v-17q-41 -52 -153 -150t-196 -161z" />
    <glyph glyph-name="uni01F5" unicode="&#x1f5;" horiz-adv-x="1216" 
d="M391 -492q-119 0 -202 17.5t-162 54.5v262q163 -86 348 -86q105 0 170 48.5t94 150.5l8 31q7 30 20 72t21.5 67.5t7.5 24.5h-8q-63 -80 -132 -125t-165 -45q-129 0 -215 102.5t-86 302.5q0 136 38 270.5t103 242t163 174.5t208 67q102 0 165 -40.5t118 -123.5h8l57 143
h232l-244 -1145q-53 -251 -191 -358t-356 -107zM537 223q60 0 111.5 49t83 124t49.5 160t18 163q0 80 -37 128t-100 48q-73 0 -135.5 -75t-97 -188.5t-34.5 -232.5q0 -86 37.5 -131t104.5 -45zM791 1241h-209v25q50 55 112 145q58 80 109 158h336v-17q-42 -52 -153 -150.5
t-195 -160.5z" />
    <glyph glyph-name="uni01F6" unicode="&#x1f6;" horiz-adv-x="2064" 
d="M358 0h-305l309 1462h306l-121 -573h450l121 573h305l-209 -987q-14 -60 -14 -115q0 -131 146 -131q95 0 146.5 63.5t82.5 209.5l131 616h303l-129 -620q-29 -132 -70.5 -225t-106.5 -160.5t-158 -100t-218 -32.5q-208 0 -322 90.5t-114 259.5q0 65 14 125l37 176h-450z
" />
    <glyph glyph-name="uni01F7" unicode="&#x1f7;" horiz-adv-x="1320" 
d="M254 -492h-305l416 1954h247l-12 -188h8q64 79 150 145q87 66 207 66q164 0 267 -112t103 -296q0 -172 -62 -333t-182 -301t-306.5 -253t-424.5 -182zM543 866l-123 -569q169 57 308 173.5t219.5 267t80.5 302.5q0 87 -48 137t-128 50q-131 0 -201 -101
q-73 -101 -108 -260z" />
    <glyph glyph-name="uni01F8" unicode="&#x1f8;" horiz-adv-x="1546" 
d="M328 0h-275l309 1462h357l340 -1077h8q35 237 68 385l147 692h274l-309 -1462h-342l-356 1106h-10q-30 -233 -66 -418zM989 1585q-69 65 -139 153t-102 154v21h311q38 -152 115 -303v-25h-185z" />
    <glyph glyph-name="uni01F9" unicode="&#x1f9;" horiz-adv-x="1236" 
d="M338 0h-301l237 1118h230l-21 -207h9q72 109 157 168.5t195 59.5q140 0 214.5 -86t74.5 -236q0 -62 -23 -180l-133 -637h-301l137 653q16 75 16 119q0 123 -108 123q-98 0 -170 -119t-115 -313zM754 1241q-69 66 -139.5 153.5t-102.5 153.5v21h311q38 -152 115 -303v-25
h-184z" />
    <glyph glyph-name="Aringacute" unicode="&#x1fa;" horiz-adv-x="1286" 
d="M197 0h-320l731 1346q-24 50 -24 114q0 109 68 173.5t179 64.5q108 0 181 -65t73 -171q0 -113 -77 -180l155 -1282h-297l-30 330h-469zM672 932l-174 -342h323l-26 309q-11 89 -15 250h-12q-48 -126 -96 -217zM983 1753h-215v14q104 81 211 195h342v-10
q-57 -49 -160 -108.5t-178 -90.5zM831 1556q-42 0 -69 -26t-27 -70q0 -45 24.5 -70.5t71.5 -25.5q42 0 69.5 26.5t27.5 69.5t-27.5 69.5t-69.5 26.5z" />
    <glyph glyph-name="aringacute" unicode="&#x1fb;" horiz-adv-x="1216" 
d="M895 1753h-215v14q128 99 211 195h342v-10q-56 -48 -159.5 -107.5t-178.5 -91.5zM741 1198q-111 0 -179 64.5t-68 173.5t68 173t179 64q109 0 181.5 -64.5t72.5 -170.5q0 -110 -72.5 -175t-181.5 -65zM741 1339q42 0 69.5 26.5t27.5 70.5q0 43 -27.5 69.5t-69.5 26.5
t-69 -26t-27 -70q0 -45 25 -71t71 -26zM406 -20q-63 0 -118 22.5t-100.5 68.5t-71.5 126.5t-26 187.5q0 136 37.5 270.5t103 242t164.5 174.5t213 67q195 0 277 -164h8l57 143h232l-238 -1118h-225l14 145h-8q-135 -165 -319 -165zM524 223q88 0 161 101t99 239
q15 73 15 168q0 73 -37.5 118.5t-102.5 45.5q-71 0 -133 -75t-96.5 -189t-34.5 -232q0 -176 129 -176z" />
    <glyph glyph-name="AEacute" unicode="&#x1fc;" horiz-adv-x="1832" 
d="M205 0h-328l922 1462h1104l-54 -254h-512l-67 -321h477l-55 -254h-478l-79 -377h512l-54 -256h-817l74 348h-426zM588 608h317l127 600h-80zM1180 1585h-209v25q83 93 221 303h336v-17q-42 -52 -153 -150.5t-195 -160.5z" />
    <glyph glyph-name="aeacute" unicode="&#x1fd;" horiz-adv-x="1785" 
d="M399 -20q-140 0 -224.5 106t-84.5 299q0 147 38 283.5t104.5 241t163 167t206.5 62.5q99 0 161.5 -40.5t108.5 -123.5h11l57 143h188l-18 -90q46 53 124 82t165 29q158 0 247 -84t89 -221q0 -182 -163 -286t-480 -104h-52q-2 -16 -2 -38q0 -81 47 -140t168 -59
q72 0 157.5 24.5t156.5 61.5v-227q-183 -86 -361 -86q-110 0 -181.5 27t-115.5 87l-16 -94h-188l14 145h-10q-66 -81 -138.5 -123t-171.5 -42zM1073 647h45q164 0 246 51t82 129q0 95 -105 95q-85 0 -164.5 -78.5t-103.5 -196.5zM518 223q88 0 154 90q63 86 94 217
q22 99 22 189q0 82 -34 129t-101 47q-74 0 -134.5 -75.5t-92 -188t-31.5 -232.5q0 -91 34.5 -133.5t88.5 -42.5zM1081 1241h-209v25q54 60 113 145q58 80 109 158h336v-17q-41 -52 -153 -150t-196 -161z" />
    <glyph glyph-name="Oslashacute" unicode="&#x1fe;" horiz-adv-x="1495" 
d="M362 51l-108 -137l-154 115l121 151q-98 137 -98 357q0 140 29 274t91 257t151 215t219 147t284 55q183 0 305 -76l105 131l151 -117l-117 -145q91 -133 91 -340q0 -182 -46 -352t-137 -305q-204 -301 -583 -301q-177 0 -304 71zM432 436l596 754q-67 43 -158 43
q-131 0 -234 -96t-157.5 -254t-54.5 -346q0 -17 3.5 -52.5t4.5 -48.5zM692 233q188 0 314.5 194.5t126.5 502.5q0 22 -5 80l-589 -740q58 -37 153 -37zM1012 1579h-209v25q50 55 112 145q58 80 109 158h336v-17q-42 -52 -153 -150.5t-195 -160.5z" />
    <glyph glyph-name="oslashacute" unicode="&#x1ff;" horiz-adv-x="1198" 
d="M293 33l-109 -135l-141 108l119 148q-72 110 -72 256q0 120 23 227.5t71.5 199.5t118 159t167 105t214.5 38q132 0 227 -56l70 88l145 -110l-84 -105q66 -111 66 -260q0 -145 -36 -271.5t-106 -227t-185.5 -159t-262.5 -58.5q-124 0 -225 53zM385 426l365 453
q-27 24 -88 24q-69 0 -123 -40.5t-84.5 -106.5t-47 -136.5t-20.5 -144.5q-2 -16 -2 -49zM543 215q65 0 117.5 41.5t83.5 108t48 136.5t21 140q2 14 2 41l-358 -444q32 -23 86 -23zM813 1241h-209v25q54 60 113 145q46 63 108 158h336v-17q-42 -52 -153 -150.5t-195 -160.5z
" />
    <glyph glyph-name="uni0200" unicode="&#x200;" horiz-adv-x="1286" 
d="M197 0h-320l766 1462h373l147 -1462h-297l-24 348h-473zM686 1004l-192 -396h333l-26 377q-12 160 -10 246h-5q-32 -88 -100 -227zM317 1913h283q38 -152 115 -303v-25h-156q-69 66 -139.5 153.5t-102.5 153.5v21zM698 1892v21h283q38 -152 115 -303v-25h-156
q-67 64 -136.5 151.5t-105.5 155.5z" />
    <glyph glyph-name="uni0201" unicode="&#x201;" horiz-adv-x="1216" 
d="M406 -20q-63 0 -118 22.5t-100.5 68.5t-71.5 126.5t-26 187.5q0 136 37.5 270.5t103 242t164.5 174.5t213 67q195 0 277 -164h8l57 143h232l-238 -1118h-225l14 145h-8q-135 -165 -319 -165zM659 895q-71 0 -133 -75t-96.5 -189t-34.5 -232q0 -176 129 -176q88 0 161 101
t99 239q15 73 15 168q0 73 -37.5 118.5t-102.5 45.5zM209 1569h283q39 -156 114 -303v-25h-155q-69 66 -139.5 153.5t-102.5 153.5v21zM590 1548v21h282q38 -152 115 -303v-25h-156q-67 64 -136 151.5t-105 155.5z" />
    <glyph glyph-name="uni0202" unicode="&#x202;" horiz-adv-x="1286" 
d="M197 0h-320l766 1462h373l147 -1462h-297l-24 348h-473zM514 1585q55 338 393 338q87 0 152 -23t101.5 -63t53.5 -86.5t17 -99.5q0 -39 -6 -66h-174q0 125 -154 125q-81 0 -129.5 -29t-65.5 -96h-188zM494 608h333l-26 377q-12 160 -10 246h-5q-32 -88 -100 -227z" />
    <glyph glyph-name="uni0203" unicode="&#x203;" horiz-adv-x="1216" 
d="M90 385q0 136 37.5 270.5t103 242t164.5 174.5t213 67q195 0 277 -164h8l57 143h232l-238 -1118h-225l14 145h-8q-135 -165 -319 -165q-63 0 -118 22.5t-100.5 68.5t-71.5 126.5t-26 187.5zM395 399q0 -176 129 -176q88 0 161 101t99 239q15 73 15 168q0 73 -37.5 118.5
t-102.5 45.5q-71 0 -133 -75t-96.5 -189t-34.5 -232zM406 1241q55 338 393 338q87 0 152 -23t101 -63t53 -86.5t17 -99.5q0 -39 -6 -66h-174q0 125 -154 125q-81 0 -129 -29t-65 -96h-188z" />
    <glyph glyph-name="uni0204" unicode="&#x204;" horiz-adv-x="1110" 
d="M870 0h-817l309 1462h818l-54 -254h-512l-67 -321h477l-55 -254h-477l-80 -377h512zM236 1913h282q38 -152 115 -303v-25h-156q-69 65 -139 153t-102 154v21zM858 1585q-67 64 -136.5 151.5t-105.5 155.5v21h283q38 -152 115 -303v-25h-156z" />
    <glyph glyph-name="uni0205" unicode="&#x205;" horiz-adv-x="1140" 
d="M90 412q0 113 25 219.5t77 198.5t125.5 161t175.5 108.5t222 39.5q181 0 278 -83.5t97 -221.5q0 -182 -163 -286t-481 -104h-51q-2 -16 -2 -41q0 -92 51.5 -144t147.5 -52q87 0 158.5 19t171.5 67v-227q-177 -86 -390 -86q-204 0 -323 109.5t-119 322.5zM428 647h45
q164 0 246 51t82 129q0 95 -105 95q-86 0 -163.5 -77.5t-104.5 -197.5zM184 1569h283q38 -152 115 -303v-25h-156q-69 66 -139.5 153.5t-102.5 153.5v21zM565 1548v21h283q38 -152 115 -303v-25h-156q-67 64 -136.5 151.5t-105.5 155.5z" />
    <glyph glyph-name="uni0206" unicode="&#x206;" horiz-adv-x="1110" 
d="M53 0l309 1462h818l-54 -254h-512l-67 -321h477l-55 -254h-477l-80 -377h512l-54 -256h-817zM621 1585h-189q55 338 393 338q87 0 152 -23t101.5 -63t53.5 -86.5t17 -99.5q0 -39 -6 -66h-174q0 125 -154 125q-81 0 -129 -29t-65 -96z" />
    <glyph glyph-name="uni0207" unicode="&#x207;" horiz-adv-x="1140" 
d="M90 412q0 113 25 219.5t77 198.5t125.5 161t175.5 108.5t222 39.5q181 0 278 -83.5t97 -221.5q0 -182 -163 -286t-481 -104h-51q-2 -16 -2 -41q0 -92 51.5 -144t147.5 -52q87 0 158.5 19t171.5 67v-227q-177 -86 -390 -86q-204 0 -323 109.5t-119 322.5zM549 1241h-189
q55 338 394 338q87 0 152 -23t101 -63t53 -86.5t17 -99.5q0 -39 -6 -66h-174q0 125 -154 125q-81 0 -129 -29t-65 -96zM428 647h45q164 0 246 51t82 129q0 95 -105 95q-86 0 -163.5 -77.5t-104.5 -197.5z" />
    <glyph glyph-name="uni0208" unicode="&#x208;" horiz-adv-x="784" 
d="M588 0h-647l36 176l187 82l201 946l-152 82l37 176h647l-37 -176l-190 -82l-201 -946l156 -82zM53 1913h283q38 -152 115 -303v-25h-156q-69 66 -139.5 153.5t-102.5 153.5v21zM434 1913h283q39 -156 114 -303v-25h-155q-67 64 -136.5 151.5t-105.5 155.5v21z" />
    <glyph glyph-name="uni0209" unicode="&#x209;" horiz-adv-x="608" 
d="M338 0h-301l237 1118h301zM-94 1569h282q38 -152 115 -303v-25h-156q-69 65 -139 153t-102 154v21zM287 1548v21h282q38 -152 115 -303v-25h-156q-67 64 -136 151.5t-105 155.5z" />
    <glyph glyph-name="uni020A" unicode="&#x20a;" horiz-adv-x="784" 
d="M-59 0l36 176l187 82l201 946l-152 82l37 176h647l-37 -176l-190 -82l-201 -946l156 -82l-37 -176h-647zM438 1585h-188q55 338 393 338q87 0 152 -23t101.5 -63t53.5 -86.5t17 -99.5q0 -39 -6 -66h-175q0 125 -153 125q-81 0 -129.5 -29t-65.5 -96z" />
    <glyph glyph-name="uni020B" unicode="&#x20b;" horiz-adv-x="608" 
d="M338 0h-301l237 1118h301zM291 1241h-189q55 338 394 338q87 0 152 -23t101 -63t53 -86.5t17 -99.5q0 -39 -6 -66h-174q0 125 -154 125q-81 0 -129 -29t-65 -96z" />
    <glyph glyph-name="uni020C" unicode="&#x20c;" horiz-adv-x="1495" 
d="M123 537q0 140 29 274t91 257t151 215t219 147t284 55q260 0 397.5 -147t137.5 -400q0 -146 -28 -282.5t-89 -260t-149 -215.5t-216.5 -146t-283.5 -54q-261 0 -402 150t-141 407zM434 537q0 -144 67 -220.5t187 -76.5q183 0 307.5 191.5t124.5 498.5q0 138 -63.5 217.5
t-184.5 79.5q-124 0 -225 -94t-157 -252t-56 -344zM422 1913h283q39 -156 114 -303v-25h-155q-69 66 -139.5 153.5t-102.5 153.5v21zM803 1892v21h282q38 -152 115 -303v-25h-156q-67 64 -136 151.5t-105 155.5z" />
    <glyph glyph-name="uni020D" unicode="&#x20d;" horiz-adv-x="1198" 
d="M90 410q0 120 23 227.5t71.5 199.5t118 159t167 105t214.5 38q196 0 310 -117.5t114 -325.5q0 -145 -36 -271.5t-106 -227t-185.5 -159t-262.5 -58.5q-191 0 -309.5 116.5t-118.5 313.5zM393 410q0 -185 150 -185q81 0 142 68.5t90.5 174t29.5 228.5q0 197 -143 197
q-52 0 -97.5 -31t-76 -81t-53 -114t-32.5 -129.5t-10 -127.5zM184 1569h283q38 -152 115 -303v-25h-156q-69 66 -139.5 153.5t-102.5 153.5v21zM565 1548v21h283q38 -152 115 -303v-25h-156q-67 64 -136.5 151.5t-105.5 155.5z" />
    <glyph glyph-name="uni020E" unicode="&#x20e;" horiz-adv-x="1495" 
d="M123 537q0 140 29 274t91 257t151 215t219 147t284 55q260 0 397.5 -147t137.5 -400q0 -146 -28 -282.5t-89 -260t-149 -215.5t-216.5 -146t-283.5 -54q-261 0 -402 150t-141 407zM434 537q0 -144 67 -220.5t187 -76.5q183 0 307.5 191.5t124.5 498.5q0 138 -63.5 217.5
t-184.5 79.5q-124 0 -225 -94t-157 -252t-56 -344zM807 1585h-189q55 338 394 338q87 0 152 -23t101 -63t53 -86.5t17 -99.5q0 -39 -6 -66h-174q0 125 -154 125q-81 0 -129 -29t-65 -96z" />
    <glyph glyph-name="uni020F" unicode="&#x20f;" horiz-adv-x="1198" 
d="M90 410q0 120 23 227.5t71.5 199.5t118 159t167 105t214.5 38q196 0 310 -117.5t114 -325.5q0 -145 -36 -271.5t-106 -227t-185.5 -159t-262.5 -58.5q-191 0 -309.5 116.5t-118.5 313.5zM662 893q-52 0 -97.5 -31t-76 -81t-53 -114t-32.5 -129.5t-10 -127.5
q0 -185 150 -185q81 0 142 68.5t90.5 174t29.5 228.5q0 197 -143 197zM381 1241q55 338 393 338q87 0 152 -23t101.5 -63t53.5 -86.5t17 -99.5q0 -39 -6 -66h-174q0 125 -154 125q-81 0 -129.5 -29t-65.5 -96h-188z" />
    <glyph glyph-name="uni0210" unicode="&#x210;" horiz-adv-x="1247" 
d="M53 0l309 1462h359q475 0 475 -401q0 -165 -88.5 -277.5t-233.5 -162.5l261 -621h-332l-207 561h-119l-119 -561h-305zM530 813h78q133 0 205 58t72 173q0 164 -197 164h-74zM299 1913h283q39 -156 114 -303v-25h-155q-69 66 -139.5 153.5t-102.5 153.5v21zM680 1913h283
q39 -156 114 -303v-25h-155q-67 64 -136.5 151.5t-105.5 155.5v21z" />
    <glyph glyph-name="uni0211" unicode="&#x211;" horiz-adv-x="862" 
d="M338 0h-301l237 1118h230l-21 -207h11q146 228 348 228q54 0 96 -11l-66 -290q-46 16 -100 16q-116 0 -204 -91t-124 -263zM82 1569h283q39 -156 114 -303v-25h-155q-69 66 -139.5 153.5t-102.5 153.5v21zM463 1569h282q38 -152 115 -303v-25h-155q-67 64 -136.5 151.5
t-105.5 155.5v21z" />
    <glyph glyph-name="uni0212" unicode="&#x212;" horiz-adv-x="1247" 
d="M53 0l309 1462h359q475 0 475 -401q0 -165 -88.5 -277.5t-233.5 -162.5l261 -621h-332l-207 561h-119l-119 -561h-305zM496 1585q55 338 393 338q87 0 152 -23t101 -63t53 -86.5t17 -99.5q0 -39 -6 -66h-174q0 125 -153 125q-81 0 -129.5 -29t-65.5 -96h-188zM530 813h78
q133 0 205 58t72 173q0 164 -197 164h-74z" />
    <glyph glyph-name="uni0213" unicode="&#x213;" horiz-adv-x="862" 
d="M37 0l237 1118h230l-21 -207h11q146 228 348 228q54 0 96 -11l-66 -290q-46 16 -100 16q-116 0 -204 -91t-124 -263l-106 -500h-301zM279 1241q55 338 393 338q87 0 152 -23t101 -63t53 -86.5t17 -99.5q0 -39 -6 -66h-174q0 125 -153 125q-81 0 -129.5 -29t-65.5 -96
h-188z" />
    <glyph glyph-name="uni0214" unicode="&#x214;" horiz-adv-x="1415" 
d="M604 -20q-223 0 -343 110.5t-120 300.5q0 77 15 148l196 923h305l-194 -919q-17 -87 -17 -125q0 -178 189 -178q129 0 197.5 73.5t101.5 231.5l194 917h306l-201 -946q-114 -536 -629 -536zM375 1913h282q38 -152 115 -303v-25h-156q-69 65 -139 153t-102 154v21z
M997 1585q-67 64 -136 151.5t-105 155.5v21h282q38 -152 115 -303v-25h-156z" />
    <glyph glyph-name="uni0215" unicode="&#x215;" horiz-adv-x="1236" 
d="M111 301q0 93 24 213l127 604h301l-137 -653q-16 -75 -16 -119q0 -123 108 -123q65 0 122.5 59.5t97.5 154.5t65 218l98 463h301l-237 -1118h-230l21 207h-11q-72 -109 -156 -168t-194 -59q-143 0 -213.5 84.5t-70.5 236.5zM219 1569h283q39 -156 114 -303v-25h-155
q-69 66 -139.5 153.5t-102.5 153.5v21zM600 1569h283q39 -156 114 -303v-25h-155q-67 64 -136.5 151.5t-105.5 155.5v21z" />
    <glyph glyph-name="uni0216" unicode="&#x216;" horiz-adv-x="1415" 
d="M141 391q0 77 15 148l196 923h305l-194 -919q-17 -87 -17 -125q0 -178 189 -178q129 0 197.5 73.5t101.5 231.5l194 917h306l-201 -946q-114 -536 -629 -536q-223 0 -343 110.5t-120 300.5zM760 1585h-189q55 338 394 338q87 0 152 -23t101 -63t53 -86.5t17 -99.5
q0 -39 -6 -66h-174q0 125 -154 125q-81 0 -129 -29t-65 -96z" />
    <glyph glyph-name="uni0217" unicode="&#x217;" horiz-adv-x="1236" 
d="M111 301q0 93 24 213l127 604h301l-137 -653q-16 -75 -16 -119q0 -123 108 -123q65 0 122.5 59.5t97.5 154.5t65 218l98 463h301l-237 -1118h-230l21 207h-11q-72 -109 -156 -168t-194 -59q-143 0 -213.5 84.5t-70.5 236.5zM416 1241q55 338 393 338q87 0 152 -23
t101.5 -63t53.5 -86.5t17 -99.5q0 -35 -7 -66h-174q0 125 -153 125q-81 0 -129.5 -29t-65.5 -96h-188z" />
    <glyph glyph-name="uni0218" unicode="&#x218;" horiz-adv-x="1085" 
d="M397 -20q-219 0 -356 90v274q192 -108 358 -108q105 0 171.5 40.5t66.5 118.5q0 84 -49 133q-45 42 -127 105q-53 37 -92 72.5t-78 85.5t-59.5 112.5t-20.5 134.5q0 196 138 320.5t364 124.5q215 0 397 -99l-109 -233q-157 74 -288 74q-83 0 -136 -45t-53 -119
q0 -38 10.5 -67.5t38 -57.5t54 -48t78.5 -54q123 -80 182 -177t59 -225q0 -112 -43 -199.5t-119 -142t-174 -82.5t-213 -28zM328 -453h-181v27q74 155 125 301h283v-20q-77 -141 -227 -308z" />
    <glyph glyph-name="uni0219" unicode="&#x219;" horiz-adv-x="968" 
d="M358 -20q-208 0 -335 65v248q158 -90 319 -90q77 0 129.5 31.5t52.5 89.5q0 41 -32 73q-28 28 -136 90q-111 61 -164 127.5t-53 167.5q0 172 112 264.5t314 92.5t363 -95l-99 -215q-143 84 -258 84q-53 0 -90 -24.5t-37 -69.5q0 -40 31.5 -68.5t120.5 -74.5
q114 -62 173.5 -131t59.5 -176q0 -189 -125.5 -289t-345.5 -100zM283 -453h-181v27q74 155 125 301h283v-20q-77 -141 -227 -308z" />
    <glyph glyph-name="uni021A" unicode="&#x21a;" horiz-adv-x="1087" 
d="M520 1204h-352l55 258h1010l-55 -258h-353l-254 -1204h-305zM162 -426q68 140 125 301h282v-20q-77 -141 -227 -308h-180v27z" />
    <glyph glyph-name="uni021B" unicode="&#x21b;" horiz-adv-x="839" 
d="M246 889h-152l29 147l196 84l132 236h194l-49 -238h283l-50 -229h-282l-115 -539q-6 -30 -6 -53q0 -37 24 -55.5t64 -18.5q72 0 162 35v-225q-108 -53 -266 -53q-140 0 -215.5 59.5t-75.5 198.5q0 50 12 112zM104 -426q68 140 125 301h283v-20q-77 -141 -227 -308h-181
v27z" />
    <glyph glyph-name="uni021C" unicode="&#x21c;" horiz-adv-x="1288" 
d="M-92 -369l55 263q164 35 289 70.5t245.5 86t198.5 108t125 135.5t47 171q0 128 -125 192q-139 -42 -383 -96v225q94 21 154 36t131.5 35t114.5 37.5t87.5 41t68 48t38.5 56t15 68.5q0 62 -53.5 94.5t-151.5 32.5q-206 0 -432 -119l-92 207q131 79 288 119.5t314 40.5
q195 0 317 -90q117 -89 117 -242q0 -132 -72 -224.5t-205 -160.5q75 -49 123.5 -126.5t48.5 -176.5q0 -104 -37.5 -196.5t-101 -165t-159 -136.5t-201 -112t-237.5 -90.5t-256.5 -73t-270.5 -58.5z" />
    <glyph glyph-name="uni021D" unicode="&#x21d;" horiz-adv-x="1036" 
d="M-145 -492l53 244q89 18 161 35t148.5 40.5t134 49t110.5 59t87 72t54 87t20 104.5q0 95 -80 163q-113 -42 -293 -83v217q72 17 126 32t110.5 34.5t96 41t72 48t48.5 59.5t16 71q0 111 -154 111q-123 0 -315 -72l-57 221q192 97 413 97q183 0 295.5 -81t112.5 -235
q0 -113 -59 -192t-177 -156q131 -97 131 -268q0 -96 -33 -178.5t-87 -144.5t-138 -115.5t-169 -90.5t-199.5 -70.5t-210 -55t-217.5 -44.5z" />
    <glyph glyph-name="uni021E" unicode="&#x21e;" horiz-adv-x="1433" 
d="M358 0h-305l309 1462h306l-121 -573h471l121 573h305l-309 -1462h-306l134 631h-471zM582 1888v25h198q84 -73 162 -168q107 88 232 168h217v-25q-63 -56 -153 -148.5t-142 -154.5h-338q-53 124 -176 303z" />
    <glyph glyph-name="uni021F" unicode="&#x21f;" horiz-adv-x="1236" 
d="M338 0h-301l330 1556h301l-58 -270q-12 -55 -33.5 -133.5t-37 -129.5t-17.5 -54h8q139 170 314 170q140 0 214.5 -86t74.5 -236q0 -62 -23 -180l-133 -637h-301l137 653q16 75 16 119q0 123 -108 123q-98 0 -170 -119t-115 -313zM377 1679q-53 124 -176 303v25h198
q84 -73 162 -168q107 88 232 168h217v-25q-63 -56 -153 -148.5t-142 -154.5h-338z" />
    <glyph glyph-name="uni0220" unicode="&#x220;" horiz-adv-x="1503" 
d="M1108 -492h-307l303 1414q16 82 16 127q0 178 -178 178q-144 0 -265.5 -143.5t-164.5 -356.5l-154 -727h-305l309 1462h256l-26 -235h8q85 108 193 184q106 74 256 74q168 0 274.5 -107t106.5 -284q0 -64 -19 -154z" />
    <glyph glyph-name="uni0221" unicode="&#x221;" horiz-adv-x="1482" 
d="M1049 -147l-158 38q7 23 43 134q-124 52 -160 165h-8q-89 -109 -173 -159.5t-187 -50.5q-64 0 -118.5 22t-100 68.5t-71.5 127.5t-26 189q0 136 37.5 270t103 241.5t164.5 174t213 66.5q93 0 152 -43t102 -121h8q0 97 27 223l76 358h301l-236 -1122q-14 -86 -14 -131
q0 -36 8 -55q70 117 158.5 176t216.5 59q125 0 188.5 -58t63.5 -163q0 -282 -426 -282q-69 0 -139 6q-8 -27 -24 -72.5t-21 -60.5zM532 223q66 0 120 54.5t84.5 135.5t46.5 161.5t16 144.5q0 80 -37.5 128t-102.5 48q-71 0 -133 -75t-96.5 -189t-34.5 -232q0 -176 137 -176z
M1278 150q81 0 128.5 24t47.5 70q0 67 -86 67q-121 0 -201 -153q44 -8 111 -8z" />
    <glyph glyph-name="uni0222" unicode="&#x222;" horiz-adv-x="1527" 
d="M662 -61q-286 0 -435 128t-149 341q0 376 373 520q-146 87 -146 258q0 59 14 119l33 157h301l-30 -157q-13 -72 -13 -95q0 -88 60.5 -137t181.5 -49q281 0 344 283l33 155h307l-33 -155q-64 -310 -303 -420q193 -117 193 -332q0 -304 -192.5 -460t-538.5 -156zM784 764
q-83 0 -152.5 -19.5t-124 -59t-85.5 -106.5t-31 -155q0 -105 77.5 -165t227.5 -60q188 0 285.5 91.5t97.5 256.5q0 102 -74.5 159.5t-220.5 57.5z" />
    <glyph glyph-name="uni0223" unicode="&#x223;" horiz-adv-x="1288" 
d="M573 -20q-226 0 -357.5 119t-131.5 323q0 212 102.5 345t268.5 179q-140 89 -140 268q0 70 15 140l43 202h299l-43 -202q-21 -86 -21 -146q0 -151 148 -151q99 0 147.5 69t81.5 226l43 204h303l-47 -233q-32 -158 -102.5 -255.5t-196.5 -147.5q193 -105 193 -349
q0 -271 -160 -431t-445 -160zM682 811q-65 0 -117.5 -25t-85 -64t-54 -90.5t-30 -100.5t-8.5 -97q0 -101 55.5 -155t151.5 -54q73 0 128 31.5t87.5 86.5t48.5 123t16 148q0 92 -52 144.5t-140 52.5z" />
    <glyph glyph-name="uni0224" unicode="&#x224;" horiz-adv-x="1097" 
d="M571 -471q-85 0 -151 27v213q49 -19 98 -19q92 0 119 119l29 131h-727l38 201l777 1005h-543l53 256h936l-41 -202l-782 -1004h596l-82 -389q-38 -182 -113 -260t-207 -78z" />
    <glyph glyph-name="uni0225" unicode="&#x225;" horiz-adv-x="931" 
d="M399 -471q-85 0 -151 27v213q49 -19 98 -19q95 0 119 119l29 131h-541l35 180l575 705h-397l51 233h750l-43 -200l-566 -685h439l-78 -366q-38 -182 -113 -260t-207 -78z" />
    <glyph glyph-name="uni0226" unicode="&#x226;" horiz-adv-x="1286" 
d="M197 0h-320l766 1462h373l147 -1462h-297l-24 348h-473zM494 608h333l-26 377q-12 160 -10 246h-5q-32 -88 -100 -227zM872 1602q-151 0 -151 122q0 86 47.5 131.5t134.5 45.5q66 0 108 -29t42 -92q0 -82 -45.5 -130t-135.5 -48z" />
    <glyph glyph-name="uni0227" unicode="&#x227;" horiz-adv-x="1216" 
d="M406 -20q-63 0 -118 22.5t-100.5 68.5t-71.5 126.5t-26 187.5q0 136 37.5 270.5t103 242t164.5 174.5t213 67q195 0 277 -164h8l57 143h232l-238 -1118h-225l14 145h-8q-135 -165 -319 -165zM524 223q88 0 161 101t99 239q15 73 15 168q0 73 -37.5 118.5t-102.5 45.5
q-71 0 -133 -75t-96.5 -189t-34.5 -232q0 -176 129 -176zM764 1257q-152 0 -152 123q0 85 48 130.5t135 45.5q66 0 107.5 -28.5t41.5 -91.5q0 -83 -45.5 -131t-134.5 -48z" />
    <glyph glyph-name="uni0228" unicode="&#x228;" horiz-adv-x="1110" 
d="M53 0l309 1462h818l-54 -254h-512l-67 -321h477l-55 -254h-477l-80 -377h512l-54 -256h-266l-39 -72q142 -48 142 -178q0 -109 -79 -175.5t-239 -66.5q-80 0 -151 23v168q71 -23 124 -23q103 0 103 82q0 69 -141 88l96 154h-367z" />
    <glyph glyph-name="uni0229" unicode="&#x229;" horiz-adv-x="1140" 
d="M90 412q0 113 25 219.5t77 198.5t125.5 161t175.5 108.5t222 39.5q181 0 278 -83.5t97 -221.5q0 -182 -163 -286t-481 -104h-51q-2 -16 -2 -41q0 -92 51.5 -144t147.5 -52q87 0 158.5 19t171.5 67v-227q-158 -76 -330 -84l-29 -54q142 -48 142 -178q0 -109 -79 -175.5
t-239 -66.5q-80 0 -151 23v168q71 -23 124 -23q103 0 103 82q0 69 -141 88l90 144q-151 30 -236.5 136.5t-85.5 285.5zM696 922q-86 0 -163.5 -77.5t-104.5 -197.5h45q164 0 246 51t82 129q0 95 -105 95z" />
    <glyph glyph-name="uni022A" unicode="&#x22a;" horiz-adv-x="1495" 
d="M666 -20q-266 0 -404 153q-139 151 -139 404q0 140 29 274t91 257t151 215t219 147t284 55q266 0 401 -150q134 -152 134 -397q0 -182 -46 -352t-137 -305q-204 -301 -583 -301zM688 240q183 0 307.5 191.5t124.5 498.5q0 138 -63.5 217.5t-184.5 79.5q-124 0 -225 -94
t-157 -252t-56 -344q0 -144 67 -220.5t187 -76.5zM1354 1905h-652l39 190h652zM788 1571q-124 0 -124 100q0 72 38.5 110t110.5 38q123 0 123 -101q0 -69 -37.5 -108t-110.5 -39zM1167 1571q-125 0 -125 100q0 71 40 109.5t110 38.5q123 0 123 -101q0 -69 -37.5 -108
t-110.5 -39z" />
    <glyph glyph-name="uni022B" unicode="&#x22b;" horiz-adv-x="1198" 
d="M518 -20q-191 0 -309.5 116.5t-118.5 313.5q0 120 23 227.5t71.5 199.5t118 159t167 105t214.5 38q196 0 310 -117.5t114 -325.5q0 -145 -36 -271.5t-106 -227t-185.5 -159t-262.5 -58.5zM543 225q81 0 142 68.5t90.5 174t29.5 228.5q0 197 -143 197q-52 0 -97.5 -31
t-76 -81t-53 -114t-32.5 -129.5t-10 -127.5q0 -185 150 -185zM1116 1561h-651l39 190h651zM551 1227q-125 0 -125 100q0 72 38.5 110t110.5 38q123 0 123 -101q0 -69 -37 -108t-110 -39zM930 1227q-125 0 -125 100q0 71 39.5 109.5t109.5 38.5q123 0 123 -101
q0 -69 -37 -108t-110 -39z" />
    <glyph glyph-name="uni022C" unicode="&#x22c;" horiz-adv-x="1495" 
d="M666 -20q-266 0 -404 153q-139 151 -139 404q0 140 29 274t91 257t151 215t219 147t284 55q266 0 401 -150q134 -152 134 -397q0 -182 -46 -352t-137 -305q-204 -301 -583 -301zM688 240q183 0 307.5 191.5t124.5 498.5q0 138 -63.5 217.5t-184.5 79.5q-124 0 -225 -94
t-157 -252t-56 -344q0 -144 67 -220.5t187 -76.5zM1337 1905h-651l39 190h651zM762 1583h-162q24 127 91.5 192.5t162.5 65.5q52 0 102.5 -22t92.5 -44t73 -22q67 0 101 88h153q-24 -132 -90 -195t-164 -63q-49 0 -97 22t-88 44t-71 22q-37 0 -65 -25.5t-39 -62.5z" />
    <glyph glyph-name="uni022D" unicode="&#x22d;" horiz-adv-x="1198" 
d="M518 -20q-191 0 -309.5 116.5t-118.5 313.5q0 120 23 227.5t71.5 199.5t118 159t167 105t214.5 38q196 0 310 -117.5t114 -325.5q0 -145 -36 -271.5t-106 -227t-185.5 -159t-262.5 -58.5zM543 225q81 0 142 68.5t90.5 174t29.5 228.5q0 197 -143 197q-52 0 -97.5 -31
t-76 -81t-53 -114t-32.5 -129.5t-10 -127.5q0 -185 150 -185zM1100 1561h-651l38 190h652zM524 1239h-162q24 127 91.5 192.5t162.5 65.5q52 0 102.5 -22t93 -44t73.5 -22q66 0 100 88h154q-24 -132 -90 -195t-164 -63q-49 0 -97 22t-88 44t-71 22q-37 0 -65.5 -25.5
t-39.5 -62.5z" />
    <glyph glyph-name="uni022E" unicode="&#x22e;" horiz-adv-x="1495" 
d="M666 -20q-266 0 -404 153q-139 151 -139 404q0 140 29 274t91 257t151 215t219 147t284 55q266 0 401 -150q134 -152 134 -397q0 -182 -46 -352t-137 -305q-204 -301 -583 -301zM688 240q183 0 307.5 191.5t124.5 498.5q0 138 -63.5 217.5t-184.5 79.5q-124 0 -225 -94
t-157 -252t-56 -344q0 -144 67 -220.5t187 -76.5zM977 1602q-152 0 -152 122q0 86 48 131.5t135 45.5q66 0 107.5 -29t41.5 -92q0 -82 -45.5 -130t-134.5 -48z" />
    <glyph glyph-name="uni022F" unicode="&#x22f;" horiz-adv-x="1198" 
d="M518 -20q-191 0 -309.5 116.5t-118.5 313.5q0 120 23 227.5t71.5 199.5t118 159t167 105t214.5 38q196 0 310 -117.5t114 -325.5q0 -145 -36 -271.5t-106 -227t-185.5 -159t-262.5 -58.5zM543 225q81 0 142 68.5t90.5 174t29.5 228.5q0 197 -143 197q-52 0 -97.5 -31
t-76 -81t-53 -114t-32.5 -129.5t-10 -127.5q0 -185 150 -185zM739 1257q-151 0 -151 123q0 86 47.5 131t134.5 45q66 0 108 -28.5t42 -91.5q0 -82 -46 -130.5t-135 -48.5z" />
    <glyph glyph-name="uni0230" unicode="&#x230;" horiz-adv-x="1495" 
d="M666 -20q-266 0 -404 153q-139 151 -139 404q0 140 29 274t91 257t151 215t219 147t284 55q266 0 401 -150q134 -152 134 -397q0 -182 -46 -352t-137 -305q-204 -301 -583 -301zM688 240q183 0 307.5 191.5t124.5 498.5q0 138 -63.5 217.5t-184.5 79.5q-124 0 -225 -94
t-157 -252t-56 -344q0 -144 67 -220.5t187 -76.5zM1325 1898h-651l39 191h651zM952 1565q-114 0 -114 100q0 71 36 109t103 38q50 0 81.5 -23.5t31.5 -76.5q0 -69 -35 -108t-103 -39z" />
    <glyph glyph-name="uni0231" unicode="&#x231;" horiz-adv-x="1198" 
d="M518 -20q-191 0 -309.5 116.5t-118.5 313.5q0 120 23 227.5t71.5 199.5t118 159t167 105t214.5 38q196 0 310 -117.5t114 -325.5q0 -145 -36 -271.5t-106 -227t-185.5 -159t-262.5 -58.5zM543 225q81 0 142 68.5t90.5 174t29.5 228.5q0 197 -143 197q-52 0 -97.5 -31
t-76 -81t-53 -114t-32.5 -129.5t-10 -127.5q0 -185 150 -185zM1110 1561h-651l39 190h651zM737 1227q-114 0 -114 100q0 72 36.5 110t102.5 38q49 0 80.5 -24t31.5 -77q0 -69 -34.5 -108t-102.5 -39z" />
    <glyph glyph-name="uni0232" unicode="&#x232;" horiz-adv-x="1155" 
d="M186 1462h312l129 -592l374 592h342l-618 -903l-119 -559h-303l119 559zM457 1585l45 211h618l-45 -211h-618z" />
    <glyph glyph-name="uni0233" unicode="&#x233;" horiz-adv-x="1062" 
d="M6 -492q-84 0 -147 19v240q76 -13 116 -13q88 0 150.5 51t114.5 146l26 49l-164 1118h295l56 -518q12 -110 12 -293h8q8 20 26 71t38.5 101.5t44.5 100.5l260 538h327l-680 -1278q-177 -332 -483 -332zM319 1241l46 211h618l-45 -211h-619z" />
    <glyph glyph-name="uni0234" unicode="&#x234;" horiz-adv-x="849" 
d="M20 -98l-153 59q32 91 106.5 196t141.5 160q0 67 20 170l232 1069h299l-232 -1089q66 29 158 29q107 0 177.5 -63t70.5 -167q0 -141 -100 -213.5t-261 -72.5q-111 0 -196 42.5t-127 104.5q-32 -32 -75 -102t-61 -123zM512 156q49 0 85 23t36 67q0 32 -25.5 52.5
t-66.5 20.5q-40 0 -81.5 -13t-66.5 -32q0 -54 33.5 -86t85.5 -32z" />
    <glyph glyph-name="uni0235" unicode="&#x235;" horiz-adv-x="1488" 
d="M713 -111l-131 74q62 116 159 232q-9 34 0 98q11 75 17 102l55 258q16 75 16 119q0 123 -108 123q-98 0 -170 -119t-115 -313l-98 -463h-301l237 1118h230l-21 -207h9q72 109 157 168.5t195 59.5q140 0 214.5 -86t74.5 -236q0 -62 -23 -180l-37 -170q71 29 144 29
q110 0 176.5 -57.5t66.5 -166.5q0 -144 -100 -218t-268 -74q-83 0 -155 20t-114 53q-65 -77 -110 -164zM1126 162q47 0 81 24t34 64q0 36 -23.5 56t-62.5 20q-76 0 -123 -56q0 -53 21.5 -80.5t72.5 -27.5z" />
    <glyph glyph-name="uni0236" unicode="&#x236;" horiz-adv-x="870" 
d="M96 -111l-131 74q60 113 160 232q-13 42 16 200l105 494h-152l29 147l196 84l132 236h192l-49 -238h285l-50 -229h-284l-90 -422q71 29 145 29q112 0 178 -57.5t66 -166.5q0 -145 -99.5 -218.5t-269.5 -73.5q-81 0 -155.5 20.5t-112.5 52.5q-68 -80 -111 -164zM539 326
q-76 0 -123 -56q0 -53 21.5 -80.5t72.5 -27.5q49 0 82 24t33 64q0 36 -23.5 56t-62.5 20z" />
    <glyph glyph-name="uni0237" unicode="&#x237;" horiz-adv-x="608" 
d="M-88 -492q-101 0 -174 25v242q61 -21 115 -21q64 0 109 42.5t63 127.5l254 1194h301l-265 -1239q-16 -81 -45.5 -145t-77 -116.5t-118.5 -81t-162 -28.5z" />
    <glyph glyph-name="uni0238" unicode="&#x238;" horiz-adv-x="1826" 
d="M485 -20q-186 0 -290.5 108t-104.5 305q0 139 37.5 273t104 239t166 169.5t214.5 64.5q160 0 250 -164h8q9 144 37 278l66 303h303l-78 -358q-9 -36 -25.5 -91t-29 -93t-13.5 -41h13q30 35 46 53t45 43.5t53.5 38t60.5 22t77 9.5q143 0 227.5 -109.5t84.5 -300.5
q0 -104 -19 -206.5t-62.5 -201t-105.5 -174t-156 -121.5t-206 -46q-125 0 -217 51.5t-127 144.5q-130 -196 -359 -196zM1034 362q0 -62 36.5 -100.5t94.5 -38.5q64 0 117 52.5t84.5 130.5t48.5 159.5t17 149.5q0 180 -134 180q-64 0 -116.5 -54.5t-83.5 -137.5t-47.5 -172
t-16.5 -169zM657 895q-61 0 -113 -53t-83 -131t-48.5 -158.5t-17.5 -144.5q0 -88 33 -136.5t96 -48.5q67 0 120 49t83 127t45.5 163t15.5 167q0 166 -131 166z" />
    <glyph glyph-name="uni0239" unicode="&#x239;" horiz-adv-x="1826" 
d="M401 -20q-143 0 -227 109t-84 300q0 86 14 172t41.5 171t73.5 157.5t104.5 129t140 88.5t175.5 32q124 0 216.5 -52t127.5 -145q130 197 358 197q186 0 291 -108.5t105 -305.5q0 -111 -23.5 -219.5t-69.5 -203t-108.5 -167t-146 -114t-175.5 -41.5q-159 0 -249 163h-9
q-9 -151 -36 -278l-66 -303h-303l78 358q9 36 25.5 91t28.5 93t13 41h-12q-36 -43 -58 -65.5t-57.5 -49.5t-76 -38.5t-91.5 -11.5zM395 403q0 -180 133 -180q64 0 117 54.5t84 137.5t47.5 172.5t16.5 168.5q0 62 -36.5 100.5t-94.5 38.5q-64 0 -117 -52.5t-84.5 -130.5
t-48.5 -159.5t-17 -149.5zM1303 895q-67 0 -120 -49t-83.5 -127t-46 -163t-15.5 -167q0 -166 131 -166q61 0 113 53t83.5 131.5t49 159t17.5 144.5q0 88 -33 136t-96 48z" />
    <glyph glyph-name="uni023A" unicode="&#x23a;" horiz-adv-x="1286" 
d="M197 0h-320l766 1462h344l45 94h189l-179 -366l121 -1190h-297l-24 348h-205l-242 -502h-192l243 502h-77zM686 1004l-192 -396h77l224 459q-4 102 -4 164h-5q-32 -88 -100 -227zM764 608h63l-8 117z" />
    <glyph glyph-name="uni023B" unicode="&#x23b;" horiz-adv-x="1253" 
d="M438 -154h-192l102 213q-111 68 -168 195t-57 299q0 132 28.5 261.5t91 251.5t152 214.5t221.5 148.5t289 56q73 0 131 -6l39 77h189l-58 -118q64 -22 129 -58l-118 -250q-66 40 -130 62l-454 -944q36 -8 88 -8q153 0 338 77v-260q-191 -77 -400 -77q-83 0 -149 14z
M434 569q0 -148 53 -225l428 883h-10q-95 0 -174.5 -41t-133.5 -108t-91.5 -154t-54.5 -177t-17 -178z" />
    <glyph glyph-name="uni023C" unicode="&#x23c;" horiz-adv-x="989" 
d="M274 -317h-192l174 358q-166 105 -166 350q0 151 40 285.5t113.5 238t187 164t251.5 60.5q52 0 102 -6l127 260h189l-146 -301q27 -9 56 -25l-92 -229q-62 25 -72 28l-309 -641q10 -2 30 -2q69 0 132 20.5t143 61.5v-246q-155 -79 -336 -79q-45 0 -86 6zM395 416
q0 -43 8 -70l267 547q-84 -10 -148.5 -83t-95.5 -176.5t-31 -217.5z" />
    <glyph glyph-name="uni023D" unicode="&#x23d;" horiz-adv-x="1060" 
d="M180 596h-133l55 254h131l129 612h306l-131 -612h231l-55 -254h-230l-71 -340h512l-54 -256h-817z" />
    <glyph glyph-name="uni023E" unicode="&#x23e;" horiz-adv-x="1087" 
d="M121 -90h-219l504 754l114 540h-352l55 258h717l107 158h215l-105 -158h76l-55 -258h-193l-233 -348l-181 -856h-305l39 186z" />
    <glyph glyph-name="uni023F" unicode="&#x23f;" horiz-adv-x="968" 
d="M512 -492q-75 0 -129.5 20t-91.5 62.5t-60 94.5t-45 131q-31 105 -49 136q-24 41 -71 68q-7 4 -21.5 12.5t-21.5 12.5v248q158 -90 319 -90q77 0 129.5 31.5t52.5 89.5q0 41 -32 73q-28 28 -136 90q-111 61 -164 127.5t-53 167.5q0 172 112 264.5t314 92.5t363 -95
l-99 -215q-143 84 -258 84q-53 0 -90 -24.5t-37 -69.5q0 -40 31.5 -68.5t120.5 -74.5q114 -62 173.5 -131t59.5 -176q0 -179 -115.5 -277.5t-318.5 -109.5q28 -28 47 -86q28 -80 54 -113t71 -33t111 19v-234q-79 -27 -166 -27z" />
    <glyph glyph-name="uni0240" unicode="&#x240;" horiz-adv-x="931" 
d="M575 -492q-146 0 -219 76q-73 73 -133 236q-18 52 -30.5 79t-34.5 53.5t-54 37t-79 10.5h-72l35 180l575 705h-397l51 233h750l-43 -200l-617 -744q55 -24 95 -75.5t77 -143.5q46 -106 74 -158q27 -47 90 -47q50 0 115 19v-232q-76 -29 -183 -29z" />
    <glyph glyph-name="uni0241" unicode="&#x241;" horiz-adv-x="980" 
d="M457 0h-305l141 668q253 90 366 227q66 81 66 192q0 68 -46.5 110t-119.5 42q-90 0 -168 -35q-103 -48 -131 -63l-98 219q119 63 222 94t230 31q205 0 311.5 -102.5t106.5 -264.5q0 -209 -118 -354.5t-347 -245.5z" />
    <glyph glyph-name="uni0242" unicode="&#x242;" horiz-adv-x="980" 
d="M428 0h-299l68 324q258 92 368 225q66 81 66 192q0 68 -46.5 110t-119.5 42q-128 0 -299 -98l-98 219q120 63 221 94t227 31q203 0 311.5 -103t108.5 -264q0 -210 -118.5 -355t-352.5 -241z" />
    <glyph glyph-name="uni0243" unicode="&#x243;" horiz-adv-x="1269" 
d="M127 348h-154l41 199h156l192 915h426q219 0 341 -79t122 -246q0 -149 -83 -246t-236 -129v-8q102 -27 160.5 -98.5t58.5 -178.5q0 -121 -43.5 -214t-122.5 -149.5t-182 -85t-228 -28.5h-522zM614 1208l-69 -325h149q114 0 178 46t64 142q0 137 -170 137h-152zM412 256
h180q115 0 182.5 57.5t67.5 161.5q0 162 -183 162h-165l-21 -90h225l-41 -199h-227z" />
    <glyph glyph-name="uni0244" unicode="&#x244;" horiz-adv-x="1415" 
d="M186 678h-168l54 254h168l112 530h305l-112 -530h471l112 530h306l-113 -530h168l-53 -254h-168l-35 -162q-26 -120 -75 -215t-125 -168.5t-187 -113t-250 -39.5q-216 0 -335.5 115t-119.5 306q0 67 15 138zM446 418q0 -178 189 -178q122 0 194 75.5t105 229.5l29 133
h-471l-29 -135q-17 -87 -17 -125z" />
    <glyph glyph-name="uni0245" unicode="&#x245;" horiz-adv-x="1228" 
d="M-123 0l748 1468h342l139 -1468h-295l-59 836q-12 168 -9 338q-47 -158 -118 -293l-428 -881h-320z" />
    <glyph glyph-name="uni0246" unicode="&#x246;" horiz-adv-x="1110" 
d="M53 0l309 1462h568l43 94h196l-43 -94h54l-54 -254h-116l-148 -321h162l-55 -254h-221l-175 -377h351l-54 -256h-413l-70 -154h-197l70 154h-207zM547 887h119l147 321h-199zM440 393l111 240h-59z" />
    <glyph glyph-name="uni0247" unicode="&#x247;" horiz-adv-x="1140" 
d="M231 -426h-159l204 467q-186 105 -186 371q0 113 25 219.5t77 198.5t125.5 161t175.5 108.5t222 39.5q29 0 43 -2l174 399h155l-186 -428q93 -35 141 -105.5t48 -168.5q0 -156 -124.5 -257t-351.5 -126l-102 -232q38 -12 80 -12q87 0 158.5 19t171.5 67v-227
q-177 -86 -390 -86q-53 0 -118 10zM416 647h45q57 0 82 2l121 277q-92 -18 -158 -94.5t-90 -184.5zM811 901l-100 -227q133 42 133 149q0 52 -33 78zM397 317l56 127h-70q-2 -16 -2 -41q0 -43 16 -86z" />
    <glyph glyph-name="uni0248" unicode="&#x248;" horiz-adv-x="677" 
d="M-135 -430q-93 0 -187 27v253q94 -20 164 -20q199 0 250 252l111 522h-176l55 254h176l127 604h305l-129 -604h178l-55 -254h-176l-121 -565q-53 -249 -178 -359t-344 -110z" />
    <glyph glyph-name="uni0249" unicode="&#x249;" horiz-adv-x="608" 
d="M-264 -225q62 -21 114 -21q64 0 109.5 42.5t63.5 127.5l116 547h-155l43 199h153l96 448h302l-97 -448h154l-43 -199h-154l-125 -592q-18 -82 -47 -145.5t-75.5 -116t-117.5 -81t-163 -28.5q-101 0 -174 25v242zM324 1380q0 86 47.5 131t134.5 45q66 0 107.5 -28.5
t41.5 -91.5q0 -83 -45.5 -131t-134.5 -48q-151 0 -151 123z" />
    <glyph glyph-name="uni024A" unicode="&#x24a;" horiz-adv-x="1525" 
d="M1196 -492q-153 0 -233 69t-80 202q0 35 10 90l14 70q5 25 58 237h-15q-73 -85 -168 -141q-88 -55 -235 -55q-190 0 -307 143t-117 393q0 188 52.5 363t145.5 309.5t231.5 215.5t299.5 81q134 0 207 -55q74 -58 125 -144h8l70 176h274l-334 -1577q-1 -6 -2.5 -18.5
t-2.5 -21.5t-1 -13q0 -80 82 -80q53 0 113 21v-234q-29 -12 -85.5 -21.5t-109.5 -9.5zM672 240q286 0 395 475l16 71q27 120 27 183q0 256 -233 256q-85 0 -159 -43t-125 -113.5t-87.5 -162t-54 -188.5t-17.5 -192q0 -142 64 -214t174 -72z" />
    <glyph glyph-name="uni024B" unicode="&#x24b;" horiz-adv-x="1216" 
d="M911 -492q-145 0 -224 69.5t-79 193.5q0 44 13 104l16 68q14 58 52 182l7 25h-8q-63 -80 -132 -125t-165 -45q-57 0 -108.5 22.5t-96 68.5t-70.5 127t-26 187q0 136 37.5 270.5t103 242t164.5 174.5t213 67q95 0 160 -41t117 -123h8l57 143h232l-258 -1214
q-13 -57 -13 -80q0 -72 82 -72q50 0 105 19v-232q-74 -31 -187 -31zM535 223q67 0 120.5 54.5t83 136t45 161.5t15.5 144q0 80 -37.5 128t-102.5 48q-71 0 -133 -75t-96.5 -189t-34.5 -232q0 -87 36.5 -131.5t103.5 -44.5z" />
    <glyph glyph-name="uni024C" unicode="&#x24c;" horiz-adv-x="1247" 
d="M16 561l54 252h155l137 649h359q475 0 475 -401q0 -165 -88.5 -277.5t-233.5 -162.5l261 -621h-332l-207 561h-119l-119 -561h-305l119 561h-156zM530 813h78q133 0 205 58t72 173q0 164 -197 164h-74z" />
    <glyph glyph-name="uni024D" unicode="&#x24d;" horiz-adv-x="862" 
d="M-20 455l40 198h156l98 465h230l-21 -207h11q146 228 348 228q54 0 96 -11l-66 -290q-46 16 -100 16q-83 0 -155 -49.5t-121 -151.5h192l-41 -198h-213l-96 -455h-301l96 455h-153z" />
    <glyph glyph-name="uni024E" unicode="&#x24e;" horiz-adv-x="1155" 
d="M289 1069h-195l43 199h101l-52 194h312l41 -194h340l122 194h342l-133 -194h105l-43 -199h-199l-348 -510l-119 -559h-303l119 559zM752 1069h-170l45 -199z" />
    <glyph glyph-name="uni024F" unicode="&#x24f;" horiz-adv-x="1062" 
d="M6 -492q-84 0 -147 19v240q76 -13 116 -13q88 0 150.5 51t114.5 146l26 49l-86 590h-174l41 198h105l-50 330h295l35 -330h250l160 330h327l-176 -330h115l-41 -198h-178l-400 -750q-177 -332 -483 -332zM586 590h-131q10 -112 10 -283h8q8 20 26 71t38.5 101.5
t44.5 100.5z" />
    <glyph glyph-name="uni0250" unicode="&#x250;" horiz-adv-x="1193" 
d="M518 -20q-187 0 -303 79q-117 77 -117 236q0 31 11 92l153 731h213l14 -151h9q75 85 159.5 128.5t200.5 43.5q127 0 206 -81t79 -220q0 -204 -136 -302t-403 -106l-188 -6l-10 -49q-7 -35 -7 -62q0 -108 150 -108q129 0 321 80l72 -205q-198 -100 -424 -100zM473 692
l-18 -90l114 4q150 6 217.5 57t67.5 148q0 52 -34 78t-91 26q-95 0 -164 -59t-92 -164z" />
    <glyph glyph-name="uni0251" unicode="&#x251;" horiz-adv-x="1216" 
d="M406 -20q-63 0 -118 22.5t-100.5 68.5t-71.5 126.5t-26 187.5q0 136 37.5 270.5t103 242t164.5 174.5t213 67q195 0 277 -164h8l57 143h232l-238 -1118h-225l14 145h-8q-135 -165 -319 -165zM524 223q88 0 161 101t99 239q15 73 15 168q0 73 -37.5 118.5t-102.5 45.5
q-71 0 -133 -75t-96.5 -189t-34.5 -232q0 -176 129 -176z" />
    <glyph glyph-name="uni0252" unicode="&#x252;" horiz-adv-x="1218" 
d="M815 1139q63 0 118 -22.5t100 -69t71 -127t26 -187.5q0 -136 -37.5 -270.5t-103 -242t-164.5 -174t-213 -66.5q-194 0 -276 163h-8l-58 -143h-231l237 1118h226l-15 -145h9q136 166 319 166zM696 895q-88 0 -161 -101t-99 -239q-14 -69 -14 -168q0 -73 37 -118.5
t102 -45.5q71 0 133 75t96.5 189t34.5 232q0 176 -129 176z" />
    <glyph glyph-name="uni0253" unicode="&#x253;" horiz-adv-x="1218" 
d="M610 -20q-194 0 -276 163h-8l-58 -143h-231l258 1219q38 177 127 264.5t244 87.5q76 0 153 -31v-233q-58 20 -102 20q-95 0 -121 -102l-10 -39q-36 -125 -64 -217h8q67 84 128.5 127t154.5 43q63 0 117.5 -22.5t99.5 -69t71.5 -127.5t26.5 -187q0 -136 -37.5 -270.5
t-103 -242t-164.5 -174t-213 -66.5zM559 223q71 0 133 75t96.5 189t34.5 232q0 176 -131 176q-134 0 -209 -186q-63 -160 -63 -310q0 -80 38 -128t101 -48z" />
    <glyph glyph-name="uni0254" unicode="&#x254;" horiz-adv-x="989" 
d="M307 -20q-188 0 -327 71l92 230q47 -20 72.5 -30t67.5 -19t83 -9q91 0 159 68.5t105 183.5q35 113 35 227q0 96 -44.5 144.5t-127.5 48.5q-69 0 -132 -20.5t-143 -61.5v246q150 80 336 80q89 0 162.5 -23t131.5 -71t90 -129t32 -189q0 -151 -40 -285.5t-113.5 -237.5
t-187 -163.5t-251.5 -60.5z" />
    <glyph glyph-name="uni0255" unicode="&#x255;" horiz-adv-x="1024" 
d="M123 -109l-129 76q106 168 139 211q-43 88 -43 213q0 151 40 285.5t113.5 238t187 164t251.5 60.5q187 0 328 -72l-92 -229q-45 19 -72.5 29.5t-69 19t-82.5 8.5q-110 0 -193 -107t-106 -260q-1 -9 -3 -27.5t-3 -27.5q146 113 305 113q130 0 201.5 -70t71.5 -182
q0 -74 -26 -135t-69 -100.5t-100 -67t-116.5 -39.5t-120.5 -12q-210 0 -304 79q-57 -80 -108 -168zM582 203q62 0 123 28q57 26 57 91q0 37 -27.5 59t-79.5 22q-128 0 -247 -110q41 -90 174 -90z" />
    <glyph glyph-name="uni0256" unicode="&#x256;" horiz-adv-x="1216" 
d="M911 -492q-145 0 -224 69.5t-79 193.5q0 44 13 104l16 68q14 58 52 182l7 25h-8q-64 -81 -134 -125.5t-163 -44.5q-129 0 -215 103t-86 304q0 136 37.5 270t103 241.5t164.5 174t213 66.5q93 0 152 -43t102 -121h8q0 7 3 42.5t10 89.5t14 91l76 358h301l-350 -1652
q-13 -57 -13 -80q0 -72 82 -72q50 0 105 19v-232q-74 -31 -187 -31zM535 223q67 0 120.5 54.5t83 136t45 161.5t15.5 144q0 80 -37.5 128t-102.5 48q-71 0 -133 -75t-96.5 -189t-34.5 -232q0 -87 36.5 -131.5t103.5 -44.5z" />
    <glyph glyph-name="uni0257" unicode="&#x257;" horiz-adv-x="1216" 
d="M406 -20q-64 0 -118.5 22t-100 68.5t-71.5 127.5t-26 189q0 136 37.5 270t103 241.5t164.5 174t213 66.5q93 0 152 -43t102 -121h8v7q1 7 2.5 21t3 31t4 38l5 42t6 42.5t6.5 39.5l6 31q69 344 369 344q78 0 155 -31v-233q-45 20 -100 20q-101 0 -127 -119l-256 -1208
h-229l18 145h-8q-135 -165 -319 -165zM532 223q66 0 120 54.5t84.5 135.5t46.5 161.5t16 144.5q0 80 -37.5 128t-102.5 48q-71 0 -133 -75t-96.5 -189t-34.5 -232q0 -176 137 -176z" />
    <glyph glyph-name="uni0258" unicode="&#x258;" horiz-adv-x="1099" 
d="M397 -20q-117 0 -201 20.5t-165 60.5v228q91 -42 162 -62t157 -20q131 0 208 59t108 178h-52q-242 0 -362 99q-123 95 -123 237q0 116 61.5 198.5t162 121.5t229.5 39q105 0 187.5 -34.5t134.5 -95.5t79 -142.5t27 -178.5q0 -109 -24 -211.5t-74 -193t-121.5 -158
t-173 -106.5t-220.5 -39zM649 647h58q2 14 2 43q0 107 -41 169.5t-119 62.5q-66 0 -101.5 -34.5t-35.5 -96.5q0 -68 59.5 -106t177.5 -38z" />
    <glyph glyph-name="uni0259" unicode="&#x259;" horiz-adv-x="1140" 
d="M426 -20q-183 0 -279 83t-96 222q0 182 162.5 285.5t480.5 103.5h51q3 24 3 41q0 91 -53 143.5t-146 52.5q-87 0 -158.5 -19t-171.5 -67v228q91 44 181 65t208 21q198 0 320 -107q123 -108 123 -325q0 -113 -25 -219.5t-77 -198.5t-125.5 -161t-175.5 -108.5t-222 -39.5z
M444 197q85 0 165 78t104 196h-45q-164 0 -246 -51t-82 -129q0 -94 104 -94z" />
    <glyph glyph-name="uni025A" unicode="&#x25a;" horiz-adv-x="1609" 
d="M418 -20q-175 0 -271 80t-96 216q0 68 26.5 122.5t72 94t123.5 73.5t163.5 59t208.5 53l84 18q0 215 -192 215q-83 0 -151 -19t-167 -67v228q90 44 178 65t201 21q184 0 298.5 -95.5t131.5 -279.5l297 74l8 -105q8 -96 28 -135t66 -39q58 0 121 45l68 -174
q-106 -80 -236 -80q-209 0 -241 240l-119 -25q-19 -122 -66.5 -226.5t-121.5 -185.5t-180.5 -127t-233.5 -46zM444 197q83 0 157.5 86t96.5 211l-67 -15q-291 -61 -291 -194q0 -88 104 -88z" />
    <glyph glyph-name="uni025B" unicode="&#x25b;" horiz-adv-x="1050" 
d="M483 -20q-200 0 -321 75q-123 77 -123 219q0 136 85.5 210t242.5 100v8q-73 28 -119.5 84t-46.5 131q0 89 37.5 155t104.5 103.5t148 55.5t177 18q247 0 403 -86l-92 -222q-84 41 -152 61.5t-151 20.5q-91 0 -146 -31t-55 -94q0 -100 197 -100h135l-45 -211h-148
q-118 0 -188 -38.5t-70 -106.5q0 -117 176 -117q181 0 353 90v-246q-158 -79 -402 -79z" />
    <glyph glyph-name="uni025C" unicode="&#x25c;" horiz-adv-x="1073" 
d="M397 -20q-110 0 -208 21t-164 54v248q184 -88 362 -88q103 0 182 31q76 30 76 114q0 117 -176 117h-176l45 211h125q133 0 194.5 28t61.5 99q0 98 -154 98q-132 0 -315 -79l-72 219q221 86 440 86q184 0 293 -67t109 -210q0 -114 -69 -179t-191 -97v-8q190 -52 190 -226
t-137.5 -273t-415.5 -99z" />
    <glyph glyph-name="uni025D" unicode="&#x25d;" horiz-adv-x="1521" 
d="M397 -20q-110 0 -208 21t-164 54v248q184 -88 362 -88q103 0 182 31q76 30 76 114q0 117 -176 117h-176l45 211h125q133 0 194.5 28t61.5 99q0 98 -154 98q-132 0 -315 -79l-72 219q221 86 440 86q150 0 253 -46.5t137 -142.5l270 68v-105q0 -92 22.5 -133t67.5 -41
q58 0 121 45l78 -170q-117 -84 -246 -84q-101 0 -165 58.5t-77 181.5l-82 -20q-55 -119 -237 -164v-8q190 -52 190 -226t-137.5 -273t-415.5 -99z" />
    <glyph glyph-name="uni025E" unicode="&#x25e;" horiz-adv-x="1226" 
d="M575 -20q-227 0 -356 114.5t-129 335.5q0 323 173.5 516t479.5 193q194 0 310 -82q114 -83 114 -219q0 -120 -65.5 -183.5t-192.5 -81.5l-2 -10q197 -39 197 -219q0 -121 -71 -204.5t-187.5 -121.5t-270.5 -38zM594 209q91 0 149 37.5t58 107.5q0 58 -53.5 85.5
t-141.5 27.5h-47l45 211h43q223 0 223 129q0 49 -38 77.5t-101 28.5q-114 0 -190 -67.5t-113 -183.5q-35 -116 -35 -236q0 -112 55 -164.5t146 -52.5z" />
    <glyph glyph-name="uni025F" unicode="&#x25f;" horiz-adv-x="608" 
d="M-90 -492q-101 0 -174 25v242q62 -21 114 -21q64 0 109.5 42.5t63.5 127.5l116 547h-155l43 199h153l96 448h302l-97 -448h154l-43 -199h-154l-125 -592q-18 -82 -47 -145.5t-75.5 -116t-117.5 -81t-163 -28.5z" />
    <glyph glyph-name="uni0260" unicode="&#x260;" horiz-adv-x="1216" 
d="M391 -492q-119 0 -202 17.5t-162 54.5v262q163 -86 348 -86q212 0 264 199l8 31l49 164h-8q-63 -80 -132 -125t-165 -45q-129 0 -215 102.5t-86 302.5q0 136 38 270.5t103 242t160.5 174.5t202.5 67q111 0 166 -43q54 -43 102 -121h8l1 12q13 132 26 209l6 31
q69 344 371 344q78 0 156 -31v-233q-58 20 -101 20q-103 0 -129 -117l-262 -1237q-53 -251 -191 -358t-356 -107zM537 223q59 0 110 47.5t83 121.5t50.5 160t18.5 167q0 80 -37 128t-100 48q-73 0 -135.5 -75t-97 -188.5t-34.5 -232.5q0 -86 37.5 -131t104.5 -45z" />
    <glyph glyph-name="uni0261" unicode="&#x261;" horiz-adv-x="1216" 
d="M391 -492q-119 0 -202 17.5t-162 54.5v262q163 -86 348 -86q105 0 170 48.5t94 150.5l8 31q7 30 20 72t21.5 67.5t7.5 24.5h-8q-63 -80 -132 -125t-165 -45q-129 0 -215 102.5t-86 302.5q0 136 38 270.5t103 242t163 174.5t208 67q102 0 165 -40.5t118 -123.5h8l57 143
h232l-244 -1145q-53 -251 -191 -358t-356 -107zM537 223q60 0 111.5 49t83 124t49.5 160t18 163q0 80 -37 128t-100 48q-73 0 -135.5 -75t-97 -188.5t-34.5 -232.5q0 -86 37.5 -131t104.5 -45z" />
    <glyph glyph-name="uni0262" unicode="&#x262;" horiz-adv-x="1206" 
d="M590 -20q-241 0 -370.5 124.5t-129.5 356.5q0 108 21.5 204.5t71.5 184.5t125.5 151t191 100.5t260.5 37.5q98 0 198 -21.5t175 -58.5l-95 -230q-151 66 -295 66q-77 0 -138 -24t-99.5 -63.5t-64 -94.5t-36 -112.5t-10.5 -121.5q0 -256 223 -256q50 0 117 19l39 188h-209
l43 203h498l-119 -565q-187 -88 -397 -88z" />
    <glyph glyph-name="uni0263" unicode="&#x263;" horiz-adv-x="1048" 
d="M301 -492q-118 0 -183 67.5t-65 176.5q0 60 18.5 123t57 131.5t68 113.5t79.5 116l-206 882h288l88 -454q23 -118 23 -236h6q43 126 105 227l276 463h322l-598 -925q47 -190 47 -324q0 -170 -84 -265.5t-242 -95.5zM266 -244q0 -65 53 -65q33 0 55.5 32t31 72.5t8.5 83.5
q0 69 -23 166q-63 -85 -94 -165t-31 -124z" />
    <glyph glyph-name="uni0264" unicode="&#x264;" horiz-adv-x="1118" 
d="M471 -27q-119 0 -182.5 66t-63.5 168q0 115 56 201q56 87 116 159l-104 197q-36 68 -68.5 99.5t-70.5 31.5q-27 0 -72 -10v225q78 29 151 29q84 0 139.5 -39t100.5 -119l55 -98q32 -55 64 -142h6q59 73 121 144l90 100q69 79 130.5 116.5t141.5 37.5q69 0 119 -27v-227
q-38 10 -59 10q-50 0 -89 -26.5t-104 -100.5l-205 -229q50 -129 50 -246q0 -156 -80 -238t-242 -82zM494 156q44 0 65 34.5t21 83.5q0 74 -35 140q-107 -110 -107 -195q0 -27 15 -45t41 -18z" />
    <glyph glyph-name="uni0265" unicode="&#x265;" horiz-adv-x="1236" 
d="M395 -20q-143 0 -213.5 84.5t-70.5 236.5q0 93 24 213l127 604h301l-137 -653q-16 -75 -16 -119q0 -123 108 -123q65 0 122.5 59.5t97.5 154.5t65 218l98 463h301l-344 -1610h-301l74 338q9 43 29.5 118.5t37 130t17.5 55.5h-8q-139 -170 -312 -170z" />
    <glyph glyph-name="uni0266" unicode="&#x266;" horiz-adv-x="1236" 
d="M37 0l258 1219q38 177 127 264.5t244 87.5q76 0 153 -31v-233q-58 20 -102 20q-45 0 -77 -27t-44 -81l-18 -74q-22 -101 -48 -176h9q68 83 140 126.5t165 43.5q140 0 214.5 -86t74.5 -236q0 -62 -23 -180l-133 -637h-301l137 653q16 75 16 119q0 123 -108 123
q-98 0 -170 -119t-115 -313l-98 -463h-301z" />
    <glyph glyph-name="uni0267" unicode="&#x267;" horiz-adv-x="1236" 
d="M547 -492q-101 0 -174 25v242q61 -21 114 -21q64 0 109 42.5t63 127.5l154 729q16 75 16 119q0 123 -108 123q-98 0 -170 -119t-115 -313l-98 -463h-301l258 1219q38 177 127 264.5t244 87.5q76 0 153 -31v-233q-58 20 -102 20q-45 0 -77 -27t-44 -81l-18 -74
q-22 -101 -48 -176h9q68 83 140 126.5t165 43.5q140 0 214.5 -86t74.5 -236q0 -62 -23 -180l-158 -754q-18 -84 -47.5 -149t-76.5 -117.5t-118 -80.5t-163 -28z" />
    <glyph glyph-name="uni0268" unicode="&#x268;" horiz-adv-x="608" 
d="M137 471h-153l43 199h153l94 448h301l-96 -448h156l-43 -199h-154l-100 -471h-301zM322 1380q0 86 47.5 131t134.5 45q66 0 107.5 -28.5t41.5 -91.5q0 -83 -45.5 -131t-134.5 -48q-68 0 -109.5 29.5t-41.5 93.5z" />
    <glyph glyph-name="uni0269" unicode="&#x269;" horiz-adv-x="751" 
d="M387 -20q-142 0 -216.5 59t-74.5 199q0 50 23 157l153 723h301l-155 -741q-12 -59 -12 -82q0 -72 86 -72q65 0 161 35v-225q-108 -53 -266 -53z" />
    <glyph glyph-name="uni026A" unicode="&#x26a;" horiz-adv-x="712" 
d="M557 0h-639l31 147l188 86l137 652l-151 86l33 147h639l-33 -147l-187 -86l-139 -652l152 -86z" />
    <glyph glyph-name="uni026B" unicode="&#x26b;" horiz-adv-x="849" 
d="M453 0h-301l151 711q-21 6 -47 6q-67 0 -104 -107h-152q35 160 114.5 234t188.5 74q8 0 43 -5l135 643h301l-155 -735q40 -8 47 -8q65 0 106 109h152q-35 -159 -114 -234.5t-185 -75.5q-30 0 -51 6z" />
    </font>
</defs>
</svg>
