<?xml version="1.0" standalone="no"?>
<!DOCTYPE svg PUBLIC "-//W3C//DTD SVG 1.1//EN" "http://www.w3.org/Graphics/SVG/1.1/DTD/svg11.dtd" >
<svg xmlns="http://www.w3.org/2000/svg" xmlns:xlink="http://www.w3.org/1999/xlink" version="1.1">
<metadata>
Created by FontForge 20170731 at Thu Sep 10 22:55:31 2020
 By Aleksey,,,
Copyright 2015 Google Inc. All Rights Reserved.
Copyright Province of B.C. 2019. All Rights Reserved.
</metadata>
<defs>
<font id="BCSans-Bold" horiz-adv-x="0" >
  <font-face 
    font-family="BC Sans"
    font-weight="700"
    font-stretch="normal"
    units-per-em="2048"
    panose-1="0 0 0 0 0 0 0 0 0 0"
    ascent="1638"
    descent="-410"
    x-height="1118"
    cap-height="1462"
    bbox="-1292 -797 5734 2189"
    underline-thickness="102"
    underline-position="-358"
    unicode-range="U+000D-FFFD"
  />
<missing-glyph horiz-adv-x="1228" 
d="M1034 0h-841v1462h841v-1462zM297 1358v-1254h633v1254h-633z" />
    <glyph glyph-name=".notdef" horiz-adv-x="1228" 
d="M1034 0h-841v1462h841v-1462zM297 1358v-1254h633v1254h-633z" />
    <glyph glyph-name="uni0000" 
 />
    <glyph glyph-name="uni0000" 
 />
    <glyph glyph-name="uni000D" unicode="&#xd;" horiz-adv-x="532" 
 />
    <glyph glyph-name="space" unicode=" " horiz-adv-x="532" 
 />
    <glyph glyph-name="exclam" unicode="!" horiz-adv-x="585" 
d="M467 1462l-51 -977h-244l-51 977h346zM117 143q0 88 48 129t128 41q78 0 126 -41t48 -129q0 -86 -48.5 -128t-125.5 -42q-79 0 -127.5 42t-48.5 128z" />
    <glyph glyph-name="quotedbl" unicode="&#x22;" horiz-adv-x="966" 
d="M596 934l-41 528h279l-41 -528h-197zM174 934l-41 528h279l-41 -528h-197z" />
    <glyph glyph-name="numbersign" unicode="#" horiz-adv-x="1323" 
d="M283 406h-238v206h277l47 232h-252v209h289l77 407h219l-77 -407h198l78 407h215l-78 -407h240v-209h-279l-47 -232h258v-206h-297l-77 -406h-220l78 406h-194l-76 -406h-215zM539 612h196l47 232h-196z" />
    <glyph glyph-name="dollar" unicode="$" horiz-adv-x="1171" 
d="M518 627q-244 96 -337 184.5t-93 237.5q0 150 117 242t313 110v153h137v-149q225 -9 414 -92l-94 -234q-148 64 -320 78v-295q62 -23 95 -36t87 -37.5t84 -44.5t67.5 -51.5t56.5 -64t33 -76.5t14 -95q0 -154 -111.5 -252.5t-325.5 -118.5v-205h-137v201q-253 9 -428 86
v264q90 -44 207 -76.5t221 -38.5v310zM791 442q0 40 -32.5 69.5t-103.5 61.5v-249q136 24 136 118zM518 1153q-129 -18 -129 -104q0 -41 29.5 -70t99.5 -61v235z" />
    <glyph glyph-name="percent" unicode="%" horiz-adv-x="1845" 
d="M408 1483q170 0 260 -119t90 -338q0 -461 -350 -461q-168 0 -256.5 121t-88.5 340q0 457 345 457zM1206 1462h240l-811 -1462h-240zM410 1274q-95 0 -95 -250q0 -252 95 -252q96 0 96 252q0 250 -96 250zM1432 899q170 0 260 -119t90 -338q0 -460 -350 -460
q-168 0 -256.5 120.5t-88.5 339.5q0 457 345 457zM1434 690q-95 0 -95 -250q0 -252 95 -252q96 0 96 252q0 250 -96 250z" />
    <glyph glyph-name="ampersand" unicode="&#x26;" horiz-adv-x="1536" 
d="M635 1483q182 0 295.5 -84.5t113.5 -233.5q0 -142 -83 -237q-87 -100 -209 -168l284 -277q79 133 123 301h318q-75 -282 -242 -491l301 -293h-377l-115 113q-196 -133 -432 -133q-251 0 -389 114q-141 114 -141 301q0 147 66.5 241.5t201.5 172.5q-78 91 -110.5 168.5
t-32.5 167.5q0 155 118 246.5t310 91.5zM633 1247q-60 0 -102 -28.5t-42 -94.5q0 -84 95 -194q91 50 134.5 97t43.5 106q0 57 -38 85.5t-91 28.5zM860 297l-332 330q-125 -94 -125 -203q0 -86 65 -137t165 -51q128 0 227 61z" />
    <glyph glyph-name="quotesingle" unicode="'" horiz-adv-x="544" 
d="M133 1462h279l-41 -528h-197z" />
    <glyph glyph-name="parenleft" unicode="(" horiz-adv-x="694" 
d="M82 561q0 258 75 489t226 412h250q-139 -191 -212 -422.5t-73 -476.5q0 -240 72.5 -470t210.5 -417h-248q-151 175 -226 402.5t-75 482.5z" />
    <glyph glyph-name="parenright" unicode=")" horiz-adv-x="694" 
d="M612 561q0 -255 -75 -482.5t-226 -402.5h-248q136 189 209.5 419t73.5 468q0 245 -73 476.5t-212 422.5h250q151 -181 226 -412t75 -489z" />
    <glyph glyph-name="asterisk" unicode="*" horiz-adv-x="1116" 
d="M426 1556h262l-41 -368l373 104l33 -252l-340 -24l223 -297l-227 -121l-156 313l-137 -311l-236 119l221 297l-338 26l39 250l365 -104z" />
    <glyph glyph-name="plus" unicode="+" horiz-adv-x="1171" 
d="M88 612v219h387v390h219v-390h387v-219h-387v-385h-219v385h-387z" />
    <glyph glyph-name="comma" unicode="," horiz-adv-x="583" 
d="M164 238h280l15 -23q-60 -223 -176 -479h-220q58 256 58 258q31 161 43 244z" />
    <glyph glyph-name="hyphen" unicode="-" horiz-adv-x="659" 
d="M598 424h-537v250h537v-250z" />
    <glyph glyph-name="period" unicode="." horiz-adv-x="583" 
d="M117 143q0 88 48 129t128 41q78 0 126 -41t48 -129q0 -86 -48.5 -128t-125.5 -42q-79 0 -127.5 42t-48.5 128z" />
    <glyph glyph-name="slash" unicode="/" horiz-adv-x="845" 
d="M559 1462h277l-545 -1462h-277z" />
    <glyph glyph-name="zero" unicode="0" horiz-adv-x="1171" 
d="M1096 731q0 -180 -28 -316t-88 -235t-159 -149.5t-237 -50.5q-265 0 -387 198q-123 199 -123 553q0 181 27.5 317t86.5 235.5t158.5 150.5t237.5 51q257 0 384.5 -195t127.5 -559zM381 731q0 -261 45 -381.5t158 -120.5q112 0 158 120.5t46 381.5q0 260 -46 382t-158 122
q-113 0 -158 -121.5t-45 -382.5z" />
    <glyph glyph-name="one" unicode="1" horiz-adv-x="1171" 
d="M846 1462v-1462h-309v846q0 80 2 139q3 94 6 152q-35 -40 -107 -101l-168 -135l-149 186l471 375h254z" />
    <glyph glyph-name="two" unicode="2" horiz-adv-x="1171" 
d="M1104 260v-260h-1022v215l367 371q68 71 101.5 106t76 83.5t60.5 76.5t37.5 64t25.5 67.5t6 67.5q0 86 -47 130t-131 44q-82 0 -161 -37t-171 -113l-168 199q56 49 99.5 80t107.5 64t142.5 49t172.5 16q210 0 336.5 -112.5t126.5 -283.5q0 -72 -19 -138.5t-48.5 -121
t-87 -121.5t-110.5 -119.5t-143 -135.5l-188 -177v-14h637z" />
    <glyph glyph-name="three" unicode="3" horiz-adv-x="1171" 
d="M1047 1135q0 -151 -91 -242q-91 -88 -225 -123v-6q174 -23 266.5 -109.5t92.5 -228.5q0 -97 -35 -177t-105.5 -141t-185 -94.5t-264.5 -33.5q-239 0 -422 79v263q192 -97 389 -97q160 0 229.5 55t69.5 164q0 64 -30 103.5t-109 62.5t-213 23h-111v237h113
q98 0 164.5 14.5t101 42.5t48 61t13.5 79q0 166 -208 166q-64 0 -129.5 -20t-100.5 -38.5t-82 -48.5l-143 213q202 144 477 144q228 0 359 -92t131 -256z" />
    <glyph glyph-name="four" unicode="4" horiz-adv-x="1171" 
d="M35 518l641 944h285v-919h176v-240h-176v-303h-302v303h-624v215zM307 543h352v248q0 64 5 177t8 140h-8q-32 -70 -89 -160z" />
    <glyph glyph-name="five" unicode="5" horiz-adv-x="1171" 
d="M614 934q206 0 334.5 -117t128.5 -328q0 -241 -149 -375t-434 -134q-239 0 -394 79v267q78 -40 185.5 -67.5t197.5 -27.5q283 0 283 232q0 221 -293 221q-91 0 -221 -33l-123 66l55 745h793v-262h-522l-27 -287q8 1 34.5 6t41.5 7.5t45.5 5t64.5 2.5z" />
    <glyph glyph-name="six" unicode="6" horiz-adv-x="1171" 
d="M72 621q0 858 733 858q119 0 196 -15v-247q-102 20 -176 20q-107 0 -187.5 -22t-132 -60t-84 -97t-47 -125.5t-18.5 -152.5h13q97 170 317 170q194 0 306 -122t112 -341q0 -236 -133 -372q-135 -135 -365 -135q-113 0 -209 39t-169 115.5t-114.5 201t-41.5 285.5z
M600 227q94 0 149.5 65t55.5 191q0 108 -50.5 169t-148.5 61t-162.5 -63t-64.5 -140q0 -111 59.5 -197t161.5 -86z" />
    <glyph glyph-name="seven" unicode="7" horiz-adv-x="1171" 
d="M551 0h-324l549 1202h-721v260h1049v-194z" />
    <glyph glyph-name="eight" unicode="8" horiz-adv-x="1171" 
d="M586 1481q129 0 233 -38t169 -119.5t65 -195.5q0 -125 -69 -210t-193 -146q65 -34 115 -69.5t96 -83.5t71 -109t25 -131q0 -180 -141.5 -289.5t-370.5 -109.5q-245 0 -379.5 103.5t-134.5 287.5q0 149 82 243q84 93 198 150q-110 69 -172.5 157t-62.5 209q0 111 67 192.5
t171.5 120t230.5 38.5zM584 1255q-77 0 -126.5 -40.5t-49.5 -108.5q0 -69 47 -116.5t131 -88.5q82 38 129 85.5t47 119.5q0 68 -50.5 108.5t-127.5 40.5zM358 389q0 -82 58.5 -132t165.5 -50q113 0 171 48t58 132q0 39 -17.5 74t-54.5 66t-64.5 49t-76.5 47l-27 14
q-213 -97 -213 -248z" />
    <glyph glyph-name="nine" unicode="9" horiz-adv-x="1171" 
d="M1098 838q0 -858 -733 -858q-126 0 -197 14v248q116 -21 176 -21q107 0 187.5 22t132 60t84 97t47 125.5t18.5 152.5h-12q-45 -74 -113 -121q-70 -49 -211 -49q-189 0 -300 122.5t-111 340.5q0 237 135 372q133 136 362 136q114 0 209.5 -39t169 -115.5t115 -201
t41.5 -285.5zM569 1231q-94 0 -149 -64.5t-55 -191.5q0 -108 50 -169t148 -61q97 0 162.5 63.5t65.5 139.5q0 70 -24 133t-76 106.5t-122 43.5z" />
    <glyph glyph-name="colon" unicode=":" horiz-adv-x="583" 
d="M117 969q0 88 48 129t128 41q78 0 126 -41t48 -129q0 -86 -48.5 -128t-125.5 -42q-79 0 -127.5 42t-48.5 128zM117 143q0 88 48 129t128 41q78 0 126 -41t48 -129q0 -86 -48.5 -128t-125.5 -42q-79 0 -127.5 42t-48.5 128z" />
    <glyph glyph-name="semicolon" unicode=";" horiz-adv-x="583" 
d="M117 969q0 88 48 129t128 41q78 0 126 -41t48 -129q0 -86 -48.5 -128t-125.5 -42q-79 0 -127.5 42t-48.5 128zM164 238h280l15 -23q-60 -223 -176 -479h-220q58 256 58 258q31 161 43 244z" />
    <glyph glyph-name="less" unicode="&#x3c;" horiz-adv-x="1171" 
d="M1081 203l-993 438v143l993 496v-240l-684 -317l684 -281v-239z" />
    <glyph glyph-name="equal" unicode="=" horiz-adv-x="1171" 
d="M88 418v219h993v-219h-993zM88 807v217h993v-217h-993z" />
    <glyph glyph-name="greater" unicode="&#x3e;" horiz-adv-x="1171" 
d="M772 723l-684 317v240l993 -496v-143l-993 -438v239z" />
    <glyph glyph-name="question" unicode="?" horiz-adv-x="976" 
d="M541 485h-265v74q0 99 43 171t148 147q97 70 134.5 117t37.5 110t-48 98t-134 35q-148 0 -342 -98l-109 219q225 125 473 125q211 0 332 -103q117 -102 117 -260q0 -119 -55 -198t-185 -172q-93 -68 -120 -105.5t-27 -99.5v-60zM244 143q0 88 48 129t128 41q78 0 126 -41
t48 -129q0 -86 -48.5 -128t-125.5 -42q-79 0 -127.5 42t-48.5 128z" />
    <glyph glyph-name="at" unicode="@" horiz-adv-x="1837" 
d="M1735 733q0 -97 -23 -187.5t-67.5 -165.5t-117 -120t-163.5 -45q-74 0 -131.5 35.5t-81.5 93.5h-16q-104 -129 -275 -129q-180 0 -280.5 108t-100.5 289q0 206 132.5 337.5t351.5 131.5q88 0 200 -16q101 -18 160 -39l-20 -420q-3 -40 -3 -69q0 -140 76 -140
q66 0 103 96.5t37 241.5q0 249 -150 394t-383 145q-209 0 -359.5 -89.5t-225 -242.5t-74.5 -352q0 -278 147 -425t428 -147q238 0 483 93v-193q-214 -90 -475 -90q-381 0 -593 199.5t-212 556.5q0 185 62.5 346t175 279t278.5 185.5t363 67.5q163 0 301.5 -51t239 -144
t157 -230.5t56.5 -303.5zM711 608q0 -211 172 -211q97 0 141.5 70t52.5 201l13 221q-52 10 -115 10q-70 0 -123 -24.5t-82.5 -67t-44 -92.5t-14.5 -107z" />
    <glyph glyph-name="A" unicode="A" horiz-adv-x="1413" 
d="M0 0l516 1468h379l518 -1468h-334l-106 348h-533l-106 -348h-334zM623 948l-105 -340h381l-106 340q-85 289 -86 293q-12 -53 -41.5 -154.5t-42.5 -138.5z" />
    <glyph glyph-name="B" unicode="B" horiz-adv-x="1376" 
d="M184 0v1462h455q301 0 446.5 -84.5t145.5 -285.5q0 -127 -59 -212.5t-166 -103.5v-10q59 -13 103 -35.5t81.5 -60.5t57.5 -100t20 -146q0 -197 -144.5 -310.5t-392.5 -113.5h-547zM494 637v-381h202q133 0 191.5 51.5t58.5 147.5q0 88 -60 135t-200 47h-192zM657 1208
h-163v-325h180q131 0 185 40.5t54 127.5q0 84 -60.5 120.5t-195.5 36.5z" />
    <glyph glyph-name="C" unicode="C" horiz-adv-x="1304" 
d="M805 1225q-177 0 -272 -132t-95 -366q0 -489 367 -489q155 0 373 77v-260q-190 -75 -402 -75q-134 0 -242.5 34.5t-185.5 99t-128.5 157t-76 207t-24.5 251.5q0 166 46 304.5t131.5 238.5t216 155.5t292.5 55.5q211 0 428 -103l-100 -252q-207 97 -328 97z" />
    <glyph glyph-name="D" unicode="D" horiz-adv-x="1515" 
d="M1397 745q0 -366 -208.5 -555.5t-590.5 -189.5h-414v1462h459q349 0 551.5 -186.5t202.5 -530.5zM1075 737q0 471 -416 471h-165v-952h133q448 0 448 481z" />
    <glyph glyph-name="E" unicode="E" horiz-adv-x="1146" 
d="M184 0v1462h842v-254h-532v-321h495v-254h-495v-377h532v-256h-842z" />
    <glyph glyph-name="F" unicode="F" horiz-adv-x="1124" 
d="M184 0v1462h838v-254h-533v-377h496v-253h-496v-578h-305z" />
    <glyph glyph-name="G" unicode="G" horiz-adv-x="1482" 
d="M739 563v258h580v-758q-251 -83 -520 -83q-329 0 -504.5 193t-175.5 560q0 348 199.5 549t564.5 201q233 0 434 -90l-103 -248q-153 80 -333 80q-202 0 -322.5 -136t-120.5 -362q0 -227 93.5 -358t287.5 -131q87 0 197 20v305h-277z" />
    <glyph glyph-name="H" unicode="H" horiz-adv-x="1566" 
d="M184 1462h310v-573h579v573h309v-1462h-309v631h-579v-631h-310v1462z" />
    <glyph glyph-name="I" unicode="I" horiz-adv-x="796" 
d="M66 1462h665v-176l-178 -82v-946l178 -82v-176h-665v176l178 82v946l-178 82v176z" />
    <glyph glyph-name="J" unicode="J" horiz-adv-x="677" 
d="M31 -430q-115 0 -183 22v258q86 -20 146 -20q44 0 76 11t59 38.5t41 80.5t14 132v1370h310v-1368q0 -272 -123 -398t-340 -126z" />
    <glyph glyph-name="K" unicode="K" horiz-adv-x="1359" 
d="M184 0v1462h310v-669l122 172l396 497h344l-510 -647l514 -815h-352l-383 616l-131 -94v-522h-310z" />
    <glyph glyph-name="L" unicode="L" horiz-adv-x="1157" 
d="M1087 0h-903v1462h310v-1206h593v-256z" />
    <glyph glyph-name="M" unicode="M" horiz-adv-x="1931" 
d="M1087 0h-284l-352 1147h-9q19 -361 19 -467v-680h-277v1462h422l346 -1118h6l367 1118h422v-1462h-289v692q0 160 15 453h-9z" />
    <glyph glyph-name="N" unicode="N" horiz-adv-x="1665" 
d="M184 0v1462h391l635 -1095h7q-13 299 -15 403v692h279v-1462h-394l-636 1106h-9l19 -418v-688h-277z" />
    <glyph glyph-name="O" unicode="O" horiz-adv-x="1630" 
d="M1511 733q0 -172 -42 -309t-126.5 -237t-218 -153.5t-309.5 -53.5t-309.5 53.5t-218 153.5t-126.5 237.5t-42 310.5q0 172 42 308.5t126.5 236t218.5 152.5t311 53q175 0 308.5 -53t217.5 -152.5t126 -236.5t42 -310zM444 733q0 -237 91 -365t280 -128q371 0 371 493
q0 494 -369 494q-191 0 -282 -128.5t-91 -365.5z" />
    <glyph glyph-name="P" unicode="P" horiz-adv-x="1286" 
d="M494 0h-310v1462h467q276 0 409.5 -118t133.5 -338q0 -80 -17.5 -149.5t-59.5 -132.5t-106 -107.5t-162 -70.5t-222 -26h-133v-520zM494 1208v-434h102q285 0 285 221q0 213 -246 213h-141z" />
    <glyph glyph-name="Q" unicode="Q" horiz-adv-x="1630" 
d="M1511 733q0 -252 -90 -430t-270 -258l352 -393h-397l-268 328h-23q-176 0 -309.5 53.5t-218 153.5t-126.5 237.5t-42 310.5q0 172 42 308.5t126.5 236t218.5 152.5t311 53q175 0 308.5 -53t217.5 -152.5t126 -236.5t42 -310zM444 733q0 -237 91 -365t280 -128
q371 0 371 493q0 494 -369 494q-191 0 -282 -128.5t-91 -365.5z" />
    <glyph glyph-name="R" unicode="R" horiz-adv-x="1351" 
d="M494 0h-310v1462h426q298 0 441 -108t143 -330q0 -140 -75.5 -235.5t-196.5 -151.5l430 -637h-344l-349 561h-165v-561zM494 1208v-395h100q151 0 219 50.5t68 152.5q0 103 -70.5 147.5t-222.5 44.5h-94z" />
    <glyph glyph-name="S" unicode="S" horiz-adv-x="1128" 
d="M1047 406q0 -197 -142 -311.5t-397 -114.5q-234 0 -414 88v288q87 -37 145.5 -59t141 -41.5t151.5 -19.5q211 0 211 155q0 38 -17.5 68.5t-56 58t-77.5 48.5t-103 51q-20 9 -30 14q-37 17 -62.5 30t-65 37t-67 47.5t-58.5 58t-50 72t-32 87t-13 104.5q0 195 132.5 305.5
t362.5 110.5q110 0 210.5 -25t223.5 -78l-100 -241q-108 45 -186 65.5t-158 20.5q-86 0 -134 -40.5t-48 -107.5q0 -77 69 -123q69 -45 207 -110q72 -34 123.5 -64.5t98 -69.5t74.5 -81.5t44.5 -98.5t16.5 -124z" />
    <glyph glyph-name="T" unicode="T" horiz-adv-x="1185" 
d="M41 1204v258h1104v-258h-397v-1204h-310v1204h-397z" />
    <glyph glyph-name="U" unicode="U" horiz-adv-x="1548" 
d="M174 1462h309v-895q0 -178 71 -252.5t222 -74.5q152 0 220.5 79t68.5 250v893h309v-946q0 -115 -38 -212t-111.5 -169.5t-190.5 -113.5t-266 -41q-285 0 -439.5 145.5t-154.5 394.5v942z" />
    <glyph glyph-name="V" unicode="V" horiz-adv-x="1331" 
d="M0 1462h313l275 -870q1 -5 20.5 -76.5t36 -140t21.5 -105.5q8 58 35.5 172.5t39.5 149.5l277 870h313l-497 -1462h-338z" />
    <glyph glyph-name="W" unicode="W" horiz-adv-x="1980" 
d="M373 0l-373 1462h305l187 -798q17 -63 39 -183t32 -200q9 75 31 192.5t37 169.5l213 819h293l213 -819q14 -53 36 -172.5t31 -189.5q11 91 72 383l186 798h305l-372 -1462h-353l-198 768q-17 67 -41 181t-27 161q-4 -50 -27.5 -166t-39.5 -178l-197 -766h-352z" />
    <glyph glyph-name="X" unicode="X" horiz-adv-x="1366" 
d="M0 0l485 754l-454 708h342l315 -526l309 526h334l-459 -725l494 -737h-354l-340 553l-340 -553h-332z" />
    <glyph glyph-name="Y" unicode="Y" horiz-adv-x="1277" 
d="M0 1462h336l303 -602l305 602h334l-485 -893v-569h-308v559z" />
    <glyph glyph-name="Z" unicode="Z" horiz-adv-x="1185" 
d="M1137 256v-256h-1088v201l701 1005h-682v256h1050v-200l-700 -1006h719z" />
    <glyph glyph-name="bracketleft" unicode="[" horiz-adv-x="677" 
d="M627 -324h-484v1786h484v-211h-224v-1364h224v-211z" />
    <glyph glyph-name="backslash" unicode="\" horiz-adv-x="845" 
d="M12 1462h277l545 -1462h-277z" />
    <glyph glyph-name="bracketright" unicode="]" horiz-adv-x="677" 
d="M274 1251h-223v211h484v-1786h-484v211h223v1364z" />
    <glyph glyph-name="asciicircum" unicode="^" horiz-adv-x="1171" 
d="M47 520l438 950h144l495 -950h-239l-322 643l-280 -643h-236z" />
    <glyph glyph-name="underscore" unicode="_" horiz-adv-x="841" 
d="M846 -184v-140h-850v140h850z" />
    <glyph glyph-name="grave" unicode="`" horiz-adv-x="741" 
d="M82 1569h342q74 -107 235 -301v-27h-202q-76 52 -197.5 151.5t-177.5 155.5v21z" />
    <glyph glyph-name="a" unicode="a" horiz-adv-x="1236" 
d="M432 -20q-157 0 -251.5 89t-94.5 265t122.5 260.5t377.5 95.5l194 6v49q0 170 -174 170q-136 0 -315 -81l-101 206q200 101 428 101t346.5 -98.5t118.5 -297.5v-745h-213l-59 152h-8q-75 -94 -155.5 -133t-215.5 -39zM399 332q0 -129 148 -129q101 0 167 60t66 163v92
l-118 -4q-141 -4 -202 -51t-61 -131z" />
    <glyph glyph-name="b" unicode="b" horiz-adv-x="1296" 
d="M393 0h-233v1556h305v-362q0 -127 -12 -221h12q106 166 317 166q194 0 308 -150t114 -428q0 -281 -116.5 -431t-313.5 -150q-112 0 -184.5 39t-124.5 104h-21zM465 596v-33q0 -170 50.5 -253t172.5 -83q95 0 150 88t55 250q0 161 -55 245.5t-154 84.5q-116 0 -166.5 -73
t-52.5 -226z" />
    <glyph glyph-name="c" unicode="c" horiz-adv-x="1052" 
d="M614 -20q-522 0 -522 573q0 151 40 264t113.5 183t172.5 104.5t223 34.5q192 0 348 -76l-90 -236q-162 66 -258 66q-238 0 -238 -338q0 -164 61.5 -246t176.5 -82q162 0 313 97v-261q-70 -45 -147 -64t-193 -19z" />
    <glyph glyph-name="d" unicode="d" horiz-adv-x="1296" 
d="M514 -20q-186 0 -303 147q-119 143 -119 430q0 281 116.5 431.5t313.5 150.5q217 0 322 -164h10q-23 124 -23 223v358h306v-1556h-234l-59 145h-13q-106 -165 -317 -165zM621 223q121 0 173.5 72.5t57.5 226.5v33q0 170 -53 253t-183 83q-101 0 -158 -88t-57 -250
t57 -246t163 -84z" />
    <glyph glyph-name="e" unicode="e" horiz-adv-x="1210" 
d="M621 1139q234 0 367.5 -133t133.5 -375v-148h-721q5 -130 78 -203t201 -73q193 0 379 88v-236q-86 -42 -176 -60.5t-217 -18.5t-231 35.5t-181 104.5t-119.5 179t-42.5 252q0 285 143 436.5t386 151.5zM623 922q-93 0 -149 -58.5t-66 -177.5h428q-2 105 -56.5 170.5
t-156.5 65.5z" />
    <glyph glyph-name="f" unicode="f" horiz-adv-x="792" 
d="M41 889v147l168 82v82q0 105 27 177.5t80.5 113.5t123 58.5t164.5 17.5q170 0 281 -47l-78 -224q-97 29 -170 29q-61 0 -92 -37t-31 -100v-70h264v-229h-264v-889h-305v889h-168z" />
    <glyph glyph-name="g" unicode="g" horiz-adv-x="1296" 
d="M522 1139q207 0 324 -164h8l25 143h258v-1120q0 -240 -141.5 -365t-417.5 -125q-244 0 -418 66v244q207 -86 436 -86q235 0 235 254v22q0 79 9 137h-9q-107 -165 -317 -165q-198 0 -310 153t-112 424q0 274 114 428t316 154zM618 891q-215 0 -215 -338q0 -334 220 -334
q120 0 174.5 68.5t54.5 230.5v37q0 179 -55 257.5t-179 78.5z" />
    <glyph glyph-name="h" unicode="h" horiz-adv-x="1345" 
d="M160 1556h305v-317q0 -168 -14 -264h16q103 164 324 164q188 0 294.5 -101t106.5 -309v-729h-305v653q0 242 -180 242q-132 0 -187 -91.5t-55 -277.5v-526h-305v1556z" />
    <glyph glyph-name="i" unicode="i" horiz-adv-x="624" 
d="M313 1556q166 0 166 -149q0 -79 -45.5 -114.5t-120.5 -35.5q-166 0 -166 150q0 149 166 149zM160 1118h305v-1118h-305v1118z" />
    <glyph glyph-name="j" unicode="j" horiz-adv-x="624" 
d="M147 1407q0 149 166 149t166 -149q0 -79 -45.5 -114.5t-120.5 -35.5q-166 0 -166 150zM70 -492q-113 0 -201 25v240q66 -19 143 -19q148 0 148 170v1194h305v-1239q0 -166 -96 -268.5t-299 -102.5z" />
    <glyph glyph-name="k" unicode="k" horiz-adv-x="1269" 
d="M465 0h-305v1556h305v-696q0 -84 -16 -252h4q10 15 12 17q62 89 121 153l313 340h344l-444 -485l471 -633h-352l-322 453l-131 -105v-348z" />
    <glyph glyph-name="l" unicode="l" horiz-adv-x="624" 
d="M465 1556v-1556h-305v1556h305z" />
    <glyph glyph-name="m" unicode="m" horiz-adv-x="2011" 
d="M160 0v1118h233l41 -143h17q49 82 135.5 123t189.5 41q249 0 340 -164h27q49 82 138 123t192 41q193 0 289 -99t96 -311v-729h-306v653q0 242 -168 242q-118 0 -170.5 -83.5t-52.5 -250.5v-561h-305v653q0 242 -168 242q-123 0 -173 -91t-50 -278v-526h-305z" />
    <glyph glyph-name="n" unicode="n" horiz-adv-x="1345" 
d="M465 0h-305v1118h233l41 -143h17q52 83 143 123.5t201 40.5q187 0 292 -101t105 -309v-729h-305v653q0 123 -43.5 182.5t-136.5 59.5q-134 0 -188 -90.5t-54 -278.5v-526z" />
    <glyph glyph-name="o" unicode="o" horiz-adv-x="1267" 
d="M1176 561q0 -278 -146 -430q-148 -151 -399 -151q-240 0 -389.5 154t-149.5 427q0 276 144.5 427t400.5 151q240 0 389.5 -153.5t149.5 -424.5zM403 561q0 -169 55.5 -252.5t176.5 -83.5q119 0 174 83.5t55 252.5t-55 250.5t-176 81.5q-120 0 -175 -82t-55 -250z" />
    <glyph glyph-name="p" unicode="p" horiz-adv-x="1296" 
d="M160 -492v1610h248l43 -145h14q109 166 317 166q194 0 308 -150t114 -428q0 -280 -117.5 -430.5t-312.5 -150.5t-309 143h-16q16 -91 16 -164v-451h-305zM465 596v-33q0 -170 50.5 -253t172.5 -83q205 0 205 338q0 330 -209 330q-116 0 -166.5 -73t-52.5 -226z" />
    <glyph glyph-name="q" unicode="q" horiz-adv-x="1296" 
d="M1137 -492h-306v469q0 79 13 168h-13q-102 -165 -317 -165q-194 0 -308 149.5t-114 427.5q0 288 119 434q121 148 309 148q212 0 324 -164h8l27 143h258v-1610zM623 219q123 0 173.5 71.5t55.5 227.5v37q0 169 -53 252.5t-181 83.5q-215 0 -215 -338q0 -334 220 -334z
" />
    <glyph glyph-name="r" unicode="r" horiz-adv-x="929" 
d="M784 1139q66 0 103 -9l-23 -286q-38 10 -90 10q-62 0 -115.5 -15.5t-98 -47.5t-70 -89t-25.5 -133v-569h-305v1118h231l45 -188h15q53 92 139.5 150.5t193.5 58.5z" />
    <glyph glyph-name="s" unicode="s" horiz-adv-x="1017" 
d="M940 332q0 -172 -120.5 -262t-356.5 -90q-117 0 -200.5 15t-168.5 50v252q92 -42 196 -68t183 -26q166 0 166 96q0 31 -15 52t-67 50t-160 74q-85 36 -137.5 66.5t-93 71.5t-57.5 92t-17 122q0 152 118.5 232t324.5 80q207 0 393 -88l-92 -220q-190 82 -306 82
q-135 0 -135 -73q0 -41 42 -69.5t192 -90.5q81 -33 131.5 -60.5t95 -67.5t64.5 -93.5t20 -126.5z" />
    <glyph glyph-name="t" unicode="t" horiz-adv-x="888" 
d="M193 889h-146v129l168 102l88 236h195v-238h313v-229h-313v-539q0 -62 36 -94.5t97 -32.5q96 0 192 35v-227q-109 -51 -280 -51q-79 0 -139.5 17.5t-109.5 58.5t-75 115t-26 179v539z" />
    <glyph glyph-name="u" unicode="u" horiz-adv-x="1345" 
d="M154 389v729h305v-653q0 -123 43.5 -182.5t136.5 -59.5q134 0 188 90.5t54 278.5v526h305v-1118h-234l-41 143h-16q-52 -83 -143 -123t-201 -40q-187 0 -292 100.5t-105 308.5z" />
    <glyph glyph-name="v" unicode="v" horiz-adv-x="1165" 
d="M0 1118h319l216 -637q31 -93 43 -229h8q6 114 45 229l215 637h319l-426 -1118h-313z" />
    <glyph glyph-name="w" unicode="w" horiz-adv-x="1753" 
d="M20 1118h304l129 -495q12 -45 24 -116.5t23 -152.5t14 -98h8q4 53 23 172t28 154l138 536h336l131 -536q11 -50 28.5 -163t20.5 -163h8q27 224 65 367l134 495h299l-322 -1118h-332l-86 391q-2 11 -53.5 229.5t-60.5 264.5h-9q-8 -40 -56 -246.5t-58 -251.5l-90 -387
h-328z" />
    <glyph glyph-name="x" unicode="x" horiz-adv-x="1183" 
d="M10 0l379 571l-360 547h346l217 -356l219 356h346l-364 -547l381 -571h-347l-235 383l-236 -383h-346z" />
    <glyph glyph-name="y" unicode="y" horiz-adv-x="1165" 
d="M444 8l-444 1110h334l211 -629q27 -74 37 -194h6q12 110 43 194l207 629h327l-473 -1261q-65 -172 -185.5 -260.5t-281.5 -88.5q-72 0 -155 17v242q58 -13 120 -13q165 0 236 199z" />
    <glyph glyph-name="z" unicode="z" horiz-adv-x="999" 
d="M938 233v-233h-883v180l518 705h-487v233h834v-198l-504 -687h522z" />
    <glyph glyph-name="braceleft" unicode="{" horiz-adv-x="806" 
d="M287 270q0 94 -64 136.5t-192 42.5v239q128 0 192 42t64 136v318q0 103 36.5 161t132 87.5t269.5 29.5v-225q-88 -2 -131 -31t-43 -110v-299q0 -187 -234 -222v-12q234 -35 234 -221v-299q0 -81 43 -110t131 -31v-226q-131 0 -216 15.5t-134.5 51t-68.5 85.5t-19 127v315
z" />
    <glyph glyph-name="bar" unicode="|" horiz-adv-x="1128" 
d="M455 -465v2015h219v-2015h-219z" />
    <glyph glyph-name="braceright" unicode="}" horiz-adv-x="806" 
d="M256 1096q0 81 -43 110t-131 31v225q174 0 269.5 -29.5t132 -87.5t36.5 -161v-318q0 -94 64 -136t192 -42v-239q-128 0 -192 -42.5t-64 -136.5v-315q0 -77 -19 -127t-68.5 -85.5t-134.5 -51t-216 -15.5v226q88 2 131 31t43 110v299q0 187 233 221v12q-233 34 -233 222
v299z" />
    <glyph glyph-name="asciitilde" unicode="~" horiz-adv-x="1171" 
d="M549 616q-130 56 -227 56q-113 0 -234 -121v231q103 109 256 109q66 0 126.5 -12.5t150.5 -51.5q128 -55 227 -55q55 0 117 33.5t116 87.5v-231q-103 -109 -256 -109q-63 0 -123 13t-153 50z" />
    <glyph glyph-name="uni00A0" unicode="&#xa0;" horiz-adv-x="532" 
 />
    <glyph glyph-name="exclamdown" unicode="&#xa1;" horiz-adv-x="585" 
d="M467 948q0 -88 -48 -129t-128 -41q-76 0 -125 41t-49 129q0 85 49.5 127.5t124.5 42.5q79 0 127.5 -42t48.5 -128zM117 -369l51 975h244l51 -975h-346z" />
    <glyph glyph-name="cent" unicode="&#xa2;" horiz-adv-x="1171" 
d="M143 741q0 141 29.5 246.5t86.5 172.5t131.5 105t172.5 52v166h178v-158q154 -7 299 -74l-90 -235q-162 65 -258 65q-237 0 -237 -338q0 -327 237 -327q33 0 49 2q115 7 265 74v-254q-126 -61 -265 -70v-188h-178v196q-420 62 -420 565z" />
    <glyph glyph-name="sterling" unicode="&#xa3;" horiz-adv-x="1171" 
d="M82 248q47 20 76.5 39.5t55 49t37 71t11.5 98.5v145h-178v219h178v195q0 109 34 191.5t95.5 131t138.5 72t170 23.5q188 0 390 -82l-93 -230q-158 64 -272 64q-73 0 -117.5 -40.5t-44.5 -131.5v-193h375v-219h-375v-143q0 -175 -151 -248h718v-260h-1048v248z" />
    <glyph glyph-name="currency" unicode="&#xa4;" horiz-adv-x="1171" 
d="M188 723q0 104 54 197l-129 127l147 147l127 -127q92 53 197 53t196 -55l127 129l150 -143l-129 -129q53 -88 53 -199q0 -110 -53 -199l125 -125l-146 -145l-127 125q-94 -51 -196 -51q-119 0 -199 51l-125 -123l-145 145l127 125q-54 91 -54 197zM395 723q0 -76 56 -132
t133 -56q79 0 137 55q55 55 55 133q0 79 -56 134.5t-136 55.5q-78 0 -133.5 -55.5t-55.5 -134.5z" />
    <glyph glyph-name="yen" unicode="&#xa5;" horiz-adv-x="1171" 
d="M6 1462h316l262 -602l264 602h313l-383 -747h195v-178h-246v-138h246v-178h-246v-221h-287v221h-247v178h247v138h-247v178h190z" />
    <glyph glyph-name="brokenbar" unicode="&#xa6;" horiz-adv-x="1128" 
d="M455 735v815h219v-815h-219zM455 350h219v-815h-219v815z" />
    <glyph glyph-name="section" unicode="&#xa7;" horiz-adv-x="995" 
d="M121 801q0 157 133 248q-133 87 -133 231q0 131 112 209q113 78 293 78q169 0 363 -84l-82 -191q-85 41 -151 62.5t-136 21.5q-81 0 -118 -22t-37 -70q0 -49 47.5 -84.5t165.5 -81.5q153 -61 235 -142t82 -196q0 -175 -125 -258q125 -78 125 -219q0 -148 -119 -235.5
t-321 -87.5q-206 0 -349 79v207q81 -43 177 -70.5t172 -27.5q194 0 194 117q0 53 -38 85t-169 87q-85 36 -138 65t-98 69.5t-65 91t-20 118.5zM344 823q0 -60 55 -108t176 -99l15 -6q78 54 78 144q0 60 -47 110q-47 47 -187 97q-38 -14 -64 -51.5t-26 -86.5z" />
    <glyph glyph-name="dieresis" unicode="&#xa8;" horiz-adv-x="1243" 
d="M279 1405q0 66 39 100.5t100 34.5t101 -34.5t40 -100.5q0 -64 -40 -98.5t-101 -34.5q-60 0 -99.5 34t-39.5 99zM682 1405q0 66 39 100.5t102 34.5q61 0 101.5 -34.5t40.5 -100.5q0 -64 -40.5 -98.5t-101.5 -34.5q-63 0 -102 34t-39 99z" />
    <glyph glyph-name="copyright" unicode="&#xa9;" horiz-adv-x="1703" 
d="M852 -20q-161 0 -301 56.5t-239 155t-155.5 238.5t-56.5 301q0 153 58 291.5t157 240t239.5 161t297.5 59.5q205 0 377 -96t273.5 -269.5t101.5 -386.5q0 -161 -56.5 -301t-155.5 -238.5t-239 -155t-301 -56.5zM852 111q125 0 236.5 46.5t193.5 127.5t130 197t48 249
q0 127 -47 242t-127 198.5t-193.5 133t-240.5 49.5q-130 0 -243 -47t-194.5 -128.5t-128 -197.5t-46.5 -250q0 -272 172 -446t440 -174zM883 262q-210 0 -312 129q-104 128 -104 340q0 209 112.5 339t311.5 130q133 0 252 -61l-60 -138q-105 54 -190 54q-120 0 -187 -86.5
t-67 -237.5q0 -162 60 -243.5t192 -81.5q97 0 215 47v-142q-60 -25 -109 -37t-114 -12z" />
    <glyph glyph-name="ordfeminine" unicode="&#xaa;" horiz-adv-x="784" 
d="M47 975q0 114 88 166.5t262 60.5l99 4v17q0 100 -127 100q-92 0 -217 -61l-66 135q168 82 324 82q142 0 214 -72.5t72 -200.5v-442h-135l-31 110q-88 -122 -241 -122q-113 0 -177.5 55.5t-64.5 167.5zM252 977q0 -36 22 -55t56 -19q74 0 120 42t46 106v36l-99 -6
q-145 -10 -145 -104z" />
    <glyph glyph-name="guillemotleft" unicode="&#xab;" horiz-adv-x="1259" 
d="M82 547v26l371 455l219 -119l-279 -348l279 -348l-219 -119zM588 547v26l370 455l220 -119l-279 -348l279 -348l-220 -119z" />
    <glyph glyph-name="logicalnot" unicode="&#xac;" horiz-adv-x="1171" 
d="M88 831h993v-583h-219v364h-774v219z" />
    <glyph glyph-name="uni00AD" unicode="&#xad;" horiz-adv-x="659" 
d="M598 424h-537v250h537v-250z" />
    <glyph glyph-name="registered" unicode="&#xae;" horiz-adv-x="1703" 
d="M100 731q0 153 58 291.5t157 240t239.5 161t297.5 59.5q205 0 377 -96t273.5 -269.5t101.5 -386.5q0 -161 -56.5 -301t-155.5 -238.5t-239 -155t-301 -56.5t-301 56.5t-239 155t-155.5 238.5t-56.5 301zM240 731q0 -272 172 -446t440 -174q125 0 236.5 46.5t193.5 127.5
t130 197t48 249q0 127 -47 242t-127 198.5t-193.5 133t-240.5 49.5q-130 0 -243 -47t-194.5 -128.5t-128 -197.5t-46.5 -250zM561 1188h273q323 0 323 -275q0 -90 -45 -147.5t-115 -85.5l238 -397h-186l-195 344h-127v-344h-166v905zM727 1047v-283h102q78 0 119 38.5
t41 106.5q0 73 -36.5 105.5t-125.5 32.5h-100z" />
    <glyph glyph-name="macron" unicode="&#xaf;" horiz-adv-x="1024" 
d="M1030 1757v-201h-1036v201h1036z" />
    <glyph glyph-name="degree" unicode="&#xb0;" horiz-adv-x="876" 
d="M438 793q-158 0 -258 96.5t-100 247.5q0 150 100.5 248t257.5 98q158 0 257.5 -96.5t99.5 -249.5q0 -151 -99.5 -247.5t-257.5 -96.5zM438 983q68 0 112 42t44 112q0 72 -44 114.5t-112 42.5t-111.5 -42.5t-43.5 -114.5q0 -71 43.5 -112.5t111.5 -41.5z" />
    <glyph glyph-name="plusminus" unicode="&#xb1;" horiz-adv-x="1171" 
d="M88 674v219h387v389h219v-389h387v-219h-387v-385h-219v385h-387zM88 0v219h993v-219h-993z" />
    <glyph glyph-name="twosuperior" unicode="&#xb2;" horiz-adv-x="776" 
d="M702 1053v-201h-647v168l224 219q97 94 127 137q32 46 32 103q0 36 -24.5 56.5t-63.5 20.5q-79 0 -180 -88l-123 152q143 129 336 129q136 0 215.5 -65t79.5 -185q0 -94 -51 -168q-52 -76 -172 -184l-105 -94h352z" />
    <glyph glyph-name="threesuperior" unicode="&#xb3;" horiz-adv-x="776" 
d="M377 1747q126 0 207.5 -63.5t81.5 -167.5q0 -144 -170 -199v-12q99 -22 148.5 -78t49.5 -131q0 -125 -90 -192.5t-272 -67.5q-150 0 -273 69v191q155 -90 271 -90q143 0 143 106q0 47 -38.5 77t-127.5 30h-112v159h92q105 0 135 35q29 37 29 74q0 40 -26 64t-75 24
q-44 0 -84.5 -18t-103.5 -60l-101 141q151 109 316 109z" />
    <glyph glyph-name="acute" unicode="&#xb4;" horiz-adv-x="741" 
d="M317 1569h342v-21q-56 -56 -177 -155.5t-197 -151.5h-203v27q161 194 235 301z" />
    <glyph glyph-name="mu" unicode="&#xb5;" horiz-adv-x="1351" 
d="M160 -492v1610h305v-653q0 -242 182 -242q131 0 185.5 91t54.5 278v526h305v-1118h-231l-43 150h-15q-83 -170 -250 -170q-120 0 -188 83q-1 1 -2 3.5t-2 3.5h-6q10 -49 10 -242v-320h-305z" />
    <glyph glyph-name="paragraph" unicode="&#xb6;" horiz-adv-x="1341" 
d="M113 1042q0 115 21.5 203.5t59.5 146.5t95 95.5t124 53t150 15.5h604v-1816h-161v1616h-166v-1616h-162v819q-62 -18 -146 -18q-99 0 -173.5 26t-131 83.5t-85.5 155.5t-29 236z" />
    <glyph glyph-name="periodcentered" unicode="&#xb7;" horiz-adv-x="583" 
d="M117 721q0 88 48 129t128 41q78 0 126 -41t48 -129q0 -86 -48.5 -128t-125.5 -42q-79 0 -127.5 42t-48.5 128z" />
    <glyph glyph-name="cedilla" unicode="&#xb8;" horiz-adv-x="419" 
d="M418 -250q0 -121 -71 -181.5t-238 -60.5q-64 0 -146 21v168q82 -21 143 -21q72 0 72 62q0 84 -166 108l78 154h193l-27 -61q69 -23 115.5 -71t46.5 -118z" />
    <glyph glyph-name="onesuperior" unicode="&#xb9;" horiz-adv-x="776" 
d="M393 1729h191v-877h-238v446q0 153 8 207q-29 -42 -75 -78l-78 -61l-109 127z" />
    <glyph glyph-name="ordmasculine" unicode="&#xba;" horiz-adv-x="794" 
d="M737 1116q0 -172 -91.5 -268t-250.5 -96q-151 0 -244.5 97t-93.5 267q0 172 91.5 267.5t250.5 95.5q147 0 242 -95q96 -96 96 -268zM260 1116q0 -101 33 -151t104 -50q135 0 135 201q0 199 -135 199q-71 0 -104 -49t-33 -150z" />
    <glyph glyph-name="guillemotright" unicode="&#xbb;" horiz-adv-x="1259" 
d="M1178 573v-26l-371 -453l-219 119l278 348l-278 348l219 119zM672 573v-26l-371 -453l-219 119l278 348l-278 348l219 119z" />
    <glyph glyph-name="onequarter" unicode="&#xbc;" horiz-adv-x="1699" 
d="M936 152v153l385 578h235v-564h125v-167h-125v-152h-237v152h-383zM559 0h-240l811 1462h240zM45 1227l301 235h191v-876h-238v446q0 153 8 207q-12 -17 -35 -40.5t-41 -37.5l-77 -61zM1247 510l-127 -191h199v164q0 86 6 185q-12 -32 -36 -82.5t-42 -75.5z" />
    <glyph glyph-name="onehalf" unicode="&#xbd;" horiz-adv-x="1789" 
d="M1184 616l-123 152q149 129 336 129q134 0 214.5 -65.5t80.5 -184.5q0 -90 -49 -165t-175 -187l-104 -94h352v-201h-647v168l223 219q94 89 127 138t33 102q0 37 -23.5 57.5t-64.5 20.5q-77 0 -180 -89zM559 0h-240l811 1462h240zM45 1227l301 235h191v-876h-238v446
q0 153 8 207q-12 -17 -35 -40.5t-41 -37.5l-77 -61z" />
    <glyph glyph-name="threequarters" unicode="&#xbe;" horiz-adv-x="1730" 
d="M967 305l385 578h235v-564h125v-167h-125v-152h-237v152h-383v153zM90 639v190q155 -90 270 -90q144 0 144 107q0 106 -166 106h-113v160h92q95 0 129.5 30t34.5 79q0 40 -25.5 64t-74.5 24q-44 0 -84.5 -18t-103.5 -60l-101 141q151 109 316 109q126 0 207 -64t81 -168
q0 -141 -170 -198v-13q97 -23 148 -79t51 -130q0 -124 -90.5 -192t-272.5 -68q-147 0 -272 70zM631 0h-240l811 1462h240zM1151 319h199v164q0 86 6 185q-12 -32 -36 -82.5t-42 -75.5z" />
    <glyph glyph-name="questiondown" unicode="&#xbf;" horiz-adv-x="976" 
d="M442 604h265v-74q0 -99 -43 -170.5t-148 -146.5q-97 -70 -134.5 -117t-37.5 -110t48 -98t134 -35q148 0 342 98l109 -219q-225 -125 -473 -125q-213 0 -330 102q-119 101 -119 260q0 82 28.5 146.5t76.5 113.5t135 111q93 68 120 105.5t27 99.5v59zM739 946
q0 -88 -48 -129t-128 -41q-78 0 -126 41t-48 129q0 86 48.5 128t125.5 42q79 0 127.5 -42t48.5 -128z" />
    <glyph glyph-name="Agrave" unicode="&#xc0;" horiz-adv-x="1413" 
d="M0 0l516 1468h379l518 -1468h-334l-106 348h-533l-106 -348h-334zM518 608h381l-106 340q-85 289 -86 293q-12 -53 -41.5 -154.5t-42.5 -138.5zM315 1913h342q69 -100 236 -301v-27h-203q-76 52 -197.5 151.5t-177.5 155.5v21z" />
    <glyph glyph-name="Aacute" unicode="&#xc1;" horiz-adv-x="1413" 
d="M334 0h-334l516 1468h379l518 -1468h-334l-106 348h-533zM623 948l-105 -340h381l-106 340q-85 289 -86 293q-12 -53 -41.5 -154.5t-42.5 -138.5zM725 1585h-203v27q167 201 236 301h342v-21q-56 -56 -177.5 -155.5t-197.5 -151.5z" />
    <glyph glyph-name="Acircumflex" unicode="&#xc2;" horiz-adv-x="1413" 
d="M334 0h-334l516 1468h379l518 -1468h-334l-106 348h-533zM274 1585v27q197 208 256 301h357q37 -60 113.5 -147.5t142.5 -153.5v-27h-203q-158 94 -233 176q-90 -92 -230 -176h-203zM623 948l-105 -340h381l-106 340q-85 289 -86 293q-12 -53 -41.5 -154.5t-42.5 -138.5z
" />
    <glyph glyph-name="Atilde" unicode="&#xc3;" horiz-adv-x="1413" 
d="M334 0h-334l516 1468h379l518 -1468h-334l-106 348h-533zM291 1583q12 153 86 231t186 78q46 0 102.5 -26t110.5 -52t94 -26q33 0 61.5 27.5t39.5 78.5h149q-11 -152 -86.5 -230.5t-185.5 -78.5q-46 0 -102.5 26.5t-110.5 52.5t-94 26q-33 0 -61.5 -28t-39.5 -79h-149z
M623 948l-105 -340h381l-106 340q-85 289 -86 293q-12 -53 -41.5 -154.5t-42.5 -138.5z" />
    <glyph glyph-name="Adieresis" unicode="&#xc4;" horiz-adv-x="1413" 
d="M0 0l516 1468h379l518 -1468h-334l-106 348h-533l-106 -348h-334zM623 948l-105 -340h381l-106 340q-85 289 -86 293q-12 -53 -41.5 -154.5t-42.5 -138.5zM907 1884q61 0 101.5 -34.5t40.5 -100.5q0 -64 -40.5 -98.5t-101.5 -34.5q-63 0 -102 34t-39 99q0 66 39 100.5
t102 34.5zM362 1749q0 66 39.5 100.5t100.5 34.5t101 -34.5t40 -100.5q0 -64 -40 -98.5t-101 -34.5t-100.5 34.5t-39.5 98.5z" />
    <glyph glyph-name="Aring" unicode="&#xc5;" horiz-adv-x="1413" 
d="M0 0l500 1421q-43 55 -43 144q0 109 68.5 173t179.5 64q108 0 180.5 -64.5t72.5 -170.5q0 -89 -47 -148l502 -1419h-334l-106 348h-533l-106 -348h-334zM623 948l-105 -340h381l-106 340q-85 289 -86 293q-12 -53 -41.5 -154.5t-42.5 -138.5zM608 1565q0 -45 25 -71
t72 -26q42 0 69 26.5t27 70.5t-27 70t-69 26t-69.5 -26.5t-27.5 -69.5z" />
    <glyph glyph-name="AE" unicode="&#xc6;" horiz-adv-x="1949" 
d="M315 0h-315l655 1462h1174v-254h-563v-321h526v-254h-526v-377h563v-256h-873v348h-491zM578 608h378v590h-127z" />
    <glyph glyph-name="Ccedilla" unicode="&#xc7;" horiz-adv-x="1304" 
d="M119 729q0 166 46 304.5t131.5 238.5t216 155.5t292.5 55.5q211 0 428 -103l-100 -252q-207 97 -328 97q-177 0 -272 -132t-95 -366q0 -489 367 -489q155 0 373 77v-260q-159 -65 -326 -73l-18 -43q69 -23 115 -71t46 -118q0 -121 -71 -181.5t-238 -60.5q-63 0 -145 21
v168q82 -21 143 -21q72 0 72 62q0 84 -166 108l72 140q-273 36 -408 230.5t-135 512.5z" />
    <glyph glyph-name="Egrave" unicode="&#xc8;" horiz-adv-x="1146" 
d="M1026 0h-842v1462h842v-254h-532v-321h495v-254h-495v-377h532v-256zM225 1892v21h342q69 -100 236 -301v-27h-203q-76 52 -197.5 151.5t-177.5 155.5z" />
    <glyph glyph-name="Eacute" unicode="&#xc9;" horiz-adv-x="1146" 
d="M184 0v1462h842v-254h-532v-321h495v-254h-495v-377h532v-256h-842zM432 1585v27q167 201 236 301h342v-21q-56 -56 -177.5 -155.5t-197.5 -151.5h-203z" />
    <glyph glyph-name="Ecircumflex" unicode="&#xca;" horiz-adv-x="1146" 
d="M184 1462h842v-254h-532v-321h495v-254h-495v-377h532v-256h-842v1462zM184 1585v27q197 208 256 301h357q37 -60 113.5 -147.5t142.5 -153.5v-27h-203q-160 96 -234 176q-91 -94 -229 -176h-203z" />
    <glyph glyph-name="Edieresis" unicode="&#xcb;" horiz-adv-x="1146" 
d="M1026 0h-842v1462h842v-254h-532v-321h495v-254h-495v-377h532v-256zM817 1884q61 0 101 -34.5t40 -100.5q0 -64 -40 -98.5t-101 -34.5q-63 0 -102 34t-39 99q0 66 39 100.5t102 34.5zM412 1884q61 0 101 -34.5t40 -100.5q0 -64 -40 -98.5t-101 -34.5t-100.5 34.5
t-39.5 98.5q0 66 39.5 100.5t100.5 34.5z" />
    <glyph glyph-name="Igrave" unicode="&#xcc;" horiz-adv-x="796" 
d="M244 1204l-178 82v176h665v-176l-178 -82v-946l178 -82v-176h-665v176l178 82v946zM8 1892v21h342q69 -100 236 -301v-27h-203q-76 52 -197.5 151.5t-177.5 155.5z" />
    <glyph glyph-name="Iacute" unicode="&#xcd;" horiz-adv-x="796" 
d="M66 1462h665v-176l-178 -82v-946l178 -82v-176h-665v176l178 82v946l-178 82v176zM215 1585v27q167 201 236 301h342v-21q-56 -56 -177.5 -155.5t-197.5 -151.5h-203z" />
    <glyph glyph-name="Icircumflex" unicode="&#xce;" horiz-adv-x="796" 
d="M66 1286v176h665v-176l-178 -82v-946l178 -82v-176h-665v176l178 82v946zM170 1585h-203v27q197 208 256 301h357q37 -60 113.5 -147.5t142.5 -153.5v-27h-203q-160 96 -234 176q-91 -94 -229 -176z" />
    <glyph glyph-name="Idieresis" unicode="&#xcf;" horiz-adv-x="796" 
d="M66 1286v176h665v-176l-178 -82v-946l178 -82v-176h-665v176l178 82v946zM600 1884q61 0 101 -34.5t40 -100.5q0 -64 -40 -98.5t-101 -34.5q-63 0 -102 34t-39 99q0 66 39 100.5t102 34.5zM55 1749q0 66 39.5 100.5t100.5 34.5t101 -34.5t40 -100.5q0 -64 -40 -98.5
t-101 -34.5t-100.5 34.5t-39.5 98.5z" />
    <glyph glyph-name="Eth" unicode="&#xd0;" horiz-adv-x="1515" 
d="M47 850h137v612h459q349 0 551.5 -186.5t202.5 -530.5q0 -366 -208.5 -555.5t-590.5 -189.5h-414v596h-137v254zM494 1208v-358h237v-254h-237v-340h131q450 0 450 481q0 237 -108 354t-310 117h-163z" />
    <glyph glyph-name="Ntilde" unicode="&#xd1;" horiz-adv-x="1665" 
d="M184 1462h391l635 -1095h7q-13 299 -15 403v692h279v-1462h-394l-636 1106h-9l19 -418v-688h-277v1462zM418 1583q12 153 86 231t186 78q46 0 102.5 -26t110.5 -52t94 -26q33 0 61.5 27.5t39.5 78.5h149q-11 -152 -86.5 -230.5t-185.5 -78.5q-46 0 -102.5 26.5
t-110.5 52.5t-94 26q-33 0 -61.5 -28t-39.5 -79h-149z" />
    <glyph glyph-name="Ograve" unicode="&#xd2;" horiz-adv-x="1630" 
d="M1511 733q0 -172 -42 -309t-126.5 -237t-218 -153.5t-309.5 -53.5t-309.5 53.5t-218 153.5t-126.5 237.5t-42 310.5q0 172 42 308.5t126.5 236t218.5 152.5t311 53q175 0 308.5 -53t217.5 -152.5t126 -236.5t42 -310zM444 733q0 -237 91 -365t280 -128q371 0 371 493
q0 494 -369 494q-191 0 -282 -128.5t-91 -365.5zM424 1913h342q74 -107 235 -301v-27h-202q-76 52 -197.5 151.5t-177.5 155.5v21z" />
    <glyph glyph-name="Oacute" unicode="&#xd3;" horiz-adv-x="1630" 
d="M1511 733q0 -172 -42 -309t-126.5 -237t-218 -153.5t-309.5 -53.5t-309.5 53.5t-218 153.5t-126.5 237.5t-42 310.5q0 172 42 308.5t126.5 236t218.5 152.5t311 53q175 0 308.5 -53t217.5 -152.5t126 -236.5t42 -310zM444 733q0 -237 91 -365t280 -128q371 0 371 493
q0 494 -369 494q-191 0 -282 -128.5t-91 -365.5zM866 1913h342v-21q-56 -56 -177 -155.5t-197 -151.5h-203v27q161 194 235 301z" />
    <glyph glyph-name="Ocircumflex" unicode="&#xd4;" horiz-adv-x="1630" 
d="M815 -20q-176 0 -309.5 53.5t-218 153.5t-126.5 237.5t-42 310.5q0 172 42 308.5t126.5 236t218.5 152.5t311 53q175 0 308.5 -53t217.5 -152.5t126 -236.5t42 -310q0 -172 -42 -309t-126.5 -237t-218 -153.5t-309.5 -53.5zM444 733q0 -237 91 -365t280 -128
q371 0 371 493q0 494 -369 494q-191 0 -282 -128.5t-91 -365.5zM383 1585v27q197 208 256 301h356q37 -60 113.5 -147.5t142.5 -153.5v-27h-202q-160 96 -234 176q-91 -94 -229 -176h-203z" />
    <glyph glyph-name="Otilde" unicode="&#xd5;" horiz-adv-x="1630" 
d="M1511 733q0 -172 -42 -309t-126.5 -237t-218 -153.5t-309.5 -53.5t-309.5 53.5t-218 153.5t-126.5 237.5t-42 310.5q0 172 42 308.5t126.5 236t218.5 152.5t311 53q175 0 308.5 -53t217.5 -152.5t126 -236.5t42 -310zM444 733q0 -237 91 -365t280 -128q371 0 371 493
q0 494 -369 494q-191 0 -282 -128.5t-91 -365.5zM549 1583h-150q11 153 86 231t187 78q46 0 102.5 -26t110.5 -52t94 -26q33 0 61 27.5t39 78.5h150q-11 -152 -87 -230.5t-186 -78.5q-46 0 -102.5 26.5t-110.5 52.5t-94 26q-33 0 -61 -27.5t-39 -79.5z" />
    <glyph glyph-name="Odieresis" unicode="&#xd6;" horiz-adv-x="1630" 
d="M1511 733q0 -172 -42 -309t-126.5 -237t-218 -153.5t-309.5 -53.5t-309.5 53.5t-218 153.5t-126.5 237.5t-42 310.5q0 172 42 308.5t126.5 236t218.5 152.5t311 53q175 0 308.5 -53t217.5 -152.5t126 -236.5t42 -310zM444 733q0 -237 91 -365t280 -128q371 0 371 493
q0 494 -369 494q-191 0 -282 -128.5t-91 -365.5zM471 1749q0 -65 39.5 -99t99.5 -34q61 0 101.5 34.5t40.5 98.5q0 66 -40.5 100.5t-101.5 34.5t-100 -34.5t-39 -100.5zM874 1749q0 -65 39.5 -99t102.5 -34q61 0 101 34.5t40 98.5q0 66 -40 100.5t-101 34.5
q-63 0 -102.5 -34.5t-39.5 -100.5z" />
    <glyph glyph-name="multiply" unicode="&#xd7;" horiz-adv-x="1171" 
d="M582 879l305 299l153 -150l-305 -305l301 -303l-149 -152l-305 301l-301 -299l-150 152l297 301l-299 301l152 154z" />
    <glyph glyph-name="Oslash" unicode="&#xd8;" horiz-adv-x="1630" 
d="M1511 733q0 -172 -42 -309t-126.5 -237t-218 -153.5t-309.5 -53.5q-194 0 -336 65l-90 -135l-162 108l90 136q-198 198 -198 581q0 172 42 308.5t126.5 236t218.5 152.5t311 53q201 0 344 -70l84 125l160 -104l-88 -131q194 -194 194 -572zM444 733q0 -192 56 -307
l506 756q-77 45 -189 45q-191 0 -282 -128.5t-91 -365.5zM1186 733q0 186 -51 297l-500 -751q76 -39 180 -39q371 0 371 493z" />
    <glyph glyph-name="Ugrave" unicode="&#xd9;" horiz-adv-x="1548" 
d="M174 1462h309v-895q0 -178 71 -252.5t222 -74.5q152 0 220.5 79t68.5 250v893h309v-946q0 -115 -38 -212t-111.5 -169.5t-190.5 -113.5t-266 -41q-285 0 -439.5 145.5t-154.5 394.5v942zM383 1892v21h342q69 -100 236 -301v-27h-203q-76 52 -197.5 151.5t-177.5 155.5z
" />
    <glyph glyph-name="Uacute" unicode="&#xda;" horiz-adv-x="1548" 
d="M768 -20q-285 0 -439.5 145.5t-154.5 394.5v942h309v-895q0 -178 71 -252.5t222 -74.5q152 0 220.5 79t68.5 250v893h309v-946q0 -115 -38 -212t-111.5 -169.5t-190.5 -113.5t-266 -41zM590 1585v27q161 194 235 301h342v-21q-56 -56 -177 -155.5t-197 -151.5h-203z" />
    <glyph glyph-name="Ucircumflex" unicode="&#xdb;" horiz-adv-x="1548" 
d="M174 1462h309v-895q0 -178 71 -252.5t222 -74.5q152 0 220.5 79t68.5 250v893h309v-946q0 -115 -38 -212t-111.5 -169.5t-190.5 -113.5t-266 -41q-285 0 -439.5 145.5t-154.5 394.5v942zM342 1585v27q197 208 256 301h356q37 -60 113.5 -147.5t142.5 -153.5v-27h-202
q-160 96 -234 176q-91 -94 -229 -176h-203z" />
    <glyph glyph-name="Udieresis" unicode="&#xdc;" horiz-adv-x="1548" 
d="M768 -20q-285 0 -439.5 145.5t-154.5 394.5v942h309v-895q0 -178 71 -252.5t222 -74.5q152 0 220.5 79t68.5 250v893h309v-946q0 -115 -38 -212t-111.5 -169.5t-190.5 -113.5t-266 -41zM975 1884q61 0 101 -34.5t40 -100.5q0 -64 -40 -98.5t-101 -34.5q-63 0 -102 34
t-39 99q0 66 39 100.5t102 34.5zM569 1884q61 0 101.5 -34.5t40.5 -100.5q0 -64 -40.5 -98.5t-101.5 -34.5q-60 0 -99.5 34t-39.5 99q0 66 39 100.5t100 34.5z" />
    <glyph glyph-name="Yacute" unicode="&#xdd;" horiz-adv-x="1277" 
d="M0 1462h336l303 -602l305 602h334l-485 -893v-569h-308v559zM455 1585v27q161 194 235 301h342v-21q-56 -56 -177.5 -155.5t-197.5 -151.5h-202z" />
    <glyph glyph-name="Thorn" unicode="&#xde;" horiz-adv-x="1286" 
d="M184 1462h310v-229h178q262 0 392 -122.5t130 -340.5q0 -98 -28.5 -180t-89.5 -150.5t-170.5 -107.5t-258.5 -39h-153v-293h-310v1462zM618 981h-124v-438h100q145 0 216 54t71 173q0 106 -64.5 158.5t-198.5 52.5z" />
    <glyph glyph-name="germandbls" unicode="&#xdf;" horiz-adv-x="1456" 
d="M1249 1241q0 -71 -29.5 -130.5t-71.5 -98t-84 -69.5t-71.5 -58.5t-29.5 -50.5q0 -38 51 -72q28 -19 166 -111q107 -68 155.5 -139t48.5 -186q0 -170 -117 -258t-343 -88q-192 0 -303 63v242q41 -31 131 -60q79 -26 151 -26q81 0 124.5 31t43.5 92q0 55 -34.5 91
t-153.5 103q-126 73 -175 132t-49 140q0 50 20.5 92.5t51.5 70t67.5 56.5t67.5 52.5t51.5 57t20.5 71.5q0 62 -64.5 101.5t-162.5 39.5q-113 0 -179.5 -51t-66.5 -150v-1128h-305v1139q0 106 42 189t116.5 134.5t174 78t218.5 26.5q155 0 275.5 -37.5t191.5 -112t71 -176.5z
" />
    <glyph glyph-name="agrave" unicode="&#xe0;" horiz-adv-x="1236" 
d="M86 334q0 176 122.5 260.5t377.5 95.5l194 6v49q0 170 -174 170q-136 0 -315 -81l-101 206q200 101 428 101t346.5 -98.5t118.5 -297.5v-745h-213l-59 152h-8q-75 -94 -155.5 -133t-215.5 -39q-157 0 -251.5 89t-94.5 265zM399 332q0 -129 148 -129q101 0 167 60t66 163
v92l-118 -4q-141 -4 -202 -51t-61 -131zM227 1548v21h342q69 -100 236 -301v-27h-203q-76 52 -197.5 151.5t-177.5 155.5z" />
    <glyph glyph-name="aacute" unicode="&#xe1;" horiz-adv-x="1236" 
d="M86 334q0 176 122.5 260.5t377.5 95.5l194 6v49q0 170 -174 170q-136 0 -315 -81l-101 206q200 101 428 101t346.5 -98.5t118.5 -297.5v-745h-213l-59 152h-8q-75 -94 -155.5 -133t-215.5 -39q-157 0 -251.5 89t-94.5 265zM662 514q-141 -4 -202 -51t-61 -131
q0 -129 148 -129q101 0 167 60t66 163v92zM434 1241v27q167 201 236 301h342v-21q-56 -56 -177.5 -155.5t-197.5 -151.5h-203z" />
    <glyph glyph-name="acircumflex" unicode="&#xe2;" horiz-adv-x="1236" 
d="M86 334q0 176 122.5 260.5t377.5 95.5l194 6v49q0 170 -174 170q-136 0 -315 -81l-101 206q200 101 428 101t346.5 -98.5t118.5 -297.5v-745h-213l-59 152h-8q-75 -94 -155.5 -133t-215.5 -39q-157 0 -251.5 89t-94.5 265zM389 1241h-203v27q197 208 256 301h357
q37 -60 113.5 -147.5t142.5 -153.5v-27h-203q-160 96 -234 176q-91 -94 -229 -176zM662 514q-141 -4 -202 -51t-61 -131q0 -129 148 -129q101 0 167 60t66 163v92z" />
    <glyph glyph-name="atilde" unicode="&#xe3;" horiz-adv-x="1236" 
d="M432 -20q-157 0 -251.5 89t-94.5 265t122.5 260.5t377.5 95.5l194 6v49q0 170 -174 170q-136 0 -315 -81l-101 206q200 101 428 101t346.5 -98.5t118.5 -297.5v-745h-213l-59 152h-8q-75 -94 -155.5 -133t-215.5 -39zM203 1239q12 153 86 231t186 78q46 0 102.5 -26
t110.5 -52t94 -26q33 0 61.5 27.5t39.5 78.5h149q-11 -152 -86.5 -230.5t-185.5 -78.5q-46 0 -102.5 26.5t-110.5 52.5t-94 26q-33 0 -61.5 -28t-39.5 -79h-149zM662 514q-141 -4 -202 -51t-61 -131q0 -129 148 -129q101 0 167 60t66 163v92z" />
    <glyph glyph-name="adieresis" unicode="&#xe4;" horiz-adv-x="1236" 
d="M432 -20q-157 0 -251.5 89t-94.5 265t122.5 260.5t377.5 95.5l194 6v49q0 170 -174 170q-136 0 -315 -81l-101 206q200 101 428 101t346.5 -98.5t118.5 -297.5v-745h-213l-59 152h-8q-75 -94 -155.5 -133t-215.5 -39zM399 332q0 -129 148 -129q101 0 167 60t66 163v92
l-118 -4q-141 -4 -202 -51t-61 -131zM819 1272q-63 0 -102 34t-39 99q0 66 39 100.5t102 34.5q61 0 101.5 -34.5t40.5 -100.5q0 -64 -40.5 -98.5t-101.5 -34.5zM274 1405q0 66 39.5 100.5t100.5 34.5t101 -34.5t40 -100.5q0 -64 -40 -98.5t-101 -34.5t-100.5 34.5
t-39.5 98.5z" />
    <glyph glyph-name="aring" unicode="&#xe5;" horiz-adv-x="1236" 
d="M86 334q0 176 122.5 260.5t377.5 95.5l194 6v49q0 170 -174 170q-136 0 -315 -81l-101 206q200 101 428 101t346.5 -98.5t118.5 -297.5v-745h-213l-59 152h-8q-75 -94 -155.5 -133t-215.5 -39q-157 0 -251.5 89t-94.5 265zM621 1239q-111 0 -179.5 64.5t-68.5 173.5
t68.5 173t179.5 64q108 0 180.5 -64.5t72.5 -170.5q0 -110 -71 -175t-182 -65zM662 514q-141 -4 -202 -51t-61 -131q0 -129 148 -129q101 0 167 60t66 163v92zM621 1573q-42 0 -69.5 -26.5t-27.5 -69.5q0 -45 25 -71t72 -26q42 0 69 26.5t27 70.5t-27 70t-69 26z" />
    <glyph glyph-name="ae" unicode="&#xe6;" horiz-adv-x="1878" 
d="M442 -20q-153 0 -254.5 91t-101.5 263q0 176 118.5 260.5t364.5 95.5l191 6v84q0 135 -166 135q-141 0 -305 -77l-99 202q200 101 422 101q226 0 342 -131q135 129 359 129q217 0 347 -134t130 -374v-148h-723q5 -130 78 -203t201 -73q197 0 380 88v-236
q-87 -42 -176.5 -60.5t-220.5 -18.5q-139 0 -251 52t-183 154q-95 -114 -190.5 -160t-262.5 -46zM647 514q-133 -4 -190.5 -51t-57.5 -131q0 -129 140 -129q96 0 158.5 60t62.5 163v92zM1307 922q-105 0 -166 -58.5t-68 -177.5h430q-2 104 -53.5 170t-142.5 66z" />
    <glyph glyph-name="ccedilla" unicode="&#xe7;" horiz-adv-x="1052" 
d="M92 553q0 151 40 264t113.5 183t172.5 104.5t223 34.5q192 0 348 -76l-90 -236q-162 66 -258 66q-238 0 -238 -338q0 -164 61.5 -246t176.5 -82q162 0 313 97v-261q-109 -70 -264 -81l-18 -43q69 -23 115.5 -71t46.5 -118q0 -121 -71.5 -181.5t-238.5 -60.5
q-63 0 -145 21v168q82 -21 143 -21q72 0 72 62q0 84 -166 108l72 142q-408 58 -408 565z" />
    <glyph glyph-name="egrave" unicode="&#xe8;" horiz-adv-x="1210" 
d="M621 1139q234 0 367.5 -133t133.5 -375v-148h-721q5 -130 78 -203t201 -73q193 0 379 88v-236q-86 -42 -176 -60.5t-217 -18.5t-231 35.5t-181 104.5t-119.5 179t-42.5 252q0 285 143 436.5t386 151.5zM623 922q-93 0 -149 -58.5t-66 -177.5h428q-2 105 -56.5 170.5
t-156.5 65.5zM215 1569h342q69 -100 236 -301v-27h-203q-76 52 -197.5 151.5t-177.5 155.5v21z" />
    <glyph glyph-name="eacute" unicode="&#xe9;" horiz-adv-x="1210" 
d="M621 1139q234 0 367.5 -133t133.5 -375v-148h-721q5 -130 78 -203t201 -73q193 0 379 88v-236q-86 -42 -176 -60.5t-217 -18.5t-231 35.5t-181 104.5t-119.5 179t-42.5 252q0 285 143 436.5t386 151.5zM623 922q-93 0 -149 -58.5t-66 -177.5h428q-2 105 -56.5 170.5
t-156.5 65.5zM657 1569h342v-21q-56 -56 -177 -155.5t-197 -151.5h-203v27q161 194 235 301z" />
    <glyph glyph-name="ecircumflex" unicode="&#xea;" horiz-adv-x="1210" 
d="M92 551q0 285 143 436.5t386 151.5q234 0 367.5 -133t133.5 -375v-148h-721q5 -130 78 -203t201 -73q193 0 379 88v-236q-86 -42 -176 -60.5t-217 -18.5t-231 35.5t-181 104.5t-119.5 179t-42.5 252zM174 1268q197 208 256 301h356q37 -60 113.5 -147.5t142.5 -153.5v-27
h-202q-160 96 -234 176q-91 -94 -229 -176h-203v27zM408 686h428q-2 105 -56.5 170.5t-156.5 65.5q-93 0 -149 -58.5t-66 -177.5z" />
    <glyph glyph-name="edieresis" unicode="&#xeb;" horiz-adv-x="1210" 
d="M621 1139q234 0 367.5 -133t133.5 -375v-148h-721q5 -130 78 -203t201 -73q193 0 379 88v-236q-86 -42 -176 -60.5t-217 -18.5t-231 35.5t-181 104.5t-119.5 179t-42.5 252q0 285 143 436.5t386 151.5zM623 922q-93 0 -149 -58.5t-66 -177.5h428q-2 105 -56.5 170.5
t-156.5 65.5zM262 1405q0 66 39 100.5t100 34.5t101.5 -34.5t40.5 -100.5q0 -64 -40.5 -98.5t-101.5 -34.5q-60 0 -99.5 34t-39.5 99zM666 1405q0 66 39 100.5t102 34.5q61 0 101 -34.5t40 -100.5q0 -64 -40 -98.5t-101 -34.5q-63 0 -102 34t-39 99z" />
    <glyph glyph-name="igrave" unicode="&#xec;" horiz-adv-x="624" 
d="M465 1118v-1118h-305v1118h305zM-78 1569h342q69 -100 236 -301v-27h-203q-76 52 -197.5 151.5t-177.5 155.5v21z" />
    <glyph glyph-name="iacute" unicode="&#xed;" horiz-adv-x="624" 
d="M465 1118v-1118h-305v1118h305zM365 1569h342v-21q-56 -56 -177.5 -155.5t-197.5 -151.5h-203v27q167 201 236 301z" />
    <glyph glyph-name="icircumflex" unicode="&#xee;" horiz-adv-x="624" 
d="M160 1118h305v-1118h-305v1118zM84 1241h-203v27q197 208 256 301h357q37 -60 113.5 -147.5t142.5 -153.5v-27h-203q-160 96 -234 176q-91 -94 -229 -176z" />
    <glyph glyph-name="idieresis" unicode="&#xef;" horiz-adv-x="624" 
d="M465 1118v-1118h-305v1118h305zM-31 1405q0 66 39.5 100.5t100.5 34.5t101 -34.5t40 -100.5q0 -64 -40 -98.5t-101 -34.5t-100.5 34.5t-39.5 98.5zM373 1405q0 66 39 100.5t102 34.5q61 0 101 -34.5t40 -100.5q0 -64 -40 -98.5t-101 -34.5q-63 0 -102 34t-39 99z" />
    <glyph glyph-name="eth" unicode="&#xf0;" horiz-adv-x="1267" 
d="M358 1391l101 176q153 -71 258 -142l225 140l100 -154l-170 -104q152 -139 228 -318t76 -416q0 -284 -148 -438q-146 -155 -397 -155q-157 0 -277.5 58.5t-191 175t-70.5 275.5q0 237 132.5 371.5t348.5 134.5q205 0 275 -98l8 4q-61 155 -192 277l-230 -142l-100 156
l176 106q-76 50 -152 93zM635 770q-122 0 -177 -69.5t-55 -213.5q0 -133 56.5 -207.5t175.5 -74.5q121 0 175 80t54 247q0 96 -55 166q-57 72 -174 72z" />
    <glyph glyph-name="ntilde" unicode="&#xf1;" horiz-adv-x="1345" 
d="M160 0v1118h233l41 -143h17q52 83 143 123.5t201 40.5q187 0 292 -101t105 -309v-729h-305v653q0 123 -43.5 182.5t-136.5 59.5q-134 0 -188 -90.5t-54 -278.5v-526h-305zM408 1239h-150q12 153 86 231t186 78q46 0 103 -26t111 -52t94 -26q33 0 61 27.5t39 78.5h149
q-11 -152 -86.5 -230.5t-185.5 -78.5q-46 0 -102.5 26.5t-110.5 52.5t-94 26q-33 0 -61 -27.5t-39 -79.5z" />
    <glyph glyph-name="ograve" unicode="&#xf2;" horiz-adv-x="1267" 
d="M1176 561q0 -278 -146 -430q-148 -151 -399 -151q-240 0 -389.5 154t-149.5 427q0 276 144.5 427t400.5 151q240 0 389.5 -153.5t149.5 -424.5zM403 561q0 -169 55.5 -252.5t176.5 -83.5q119 0 174 83.5t55 252.5t-55 250.5t-176 81.5q-120 0 -175 -82t-55 -250z
M244 1569h342q74 -107 235 -301v-27h-203q-76 52 -197 151.5t-177 155.5v21z" />
    <glyph glyph-name="oacute" unicode="&#xf3;" horiz-adv-x="1267" 
d="M1176 561q0 -278 -146 -430q-148 -151 -399 -151q-240 0 -389.5 154t-149.5 427q0 276 144.5 427t400.5 151q240 0 389.5 -153.5t149.5 -424.5zM403 561q0 -169 55.5 -252.5t176.5 -83.5q119 0 174 83.5t55 252.5t-55 250.5t-176 81.5q-120 0 -175 -82t-55 -250z
M686 1569h342v-21q-56 -56 -177.5 -155.5t-197.5 -151.5h-202v27q161 194 235 301z" />
    <glyph glyph-name="ocircumflex" unicode="&#xf4;" horiz-adv-x="1267" 
d="M631 -20q-240 0 -389.5 154t-149.5 427q0 276 144.5 427t400.5 151q240 0 389.5 -153.5t149.5 -424.5q0 -276 -145.5 -428.5t-399.5 -152.5zM403 561q0 -169 55.5 -252.5t176.5 -83.5q119 0 174 83.5t55 252.5t-55 250.5t-176 81.5q-120 0 -175 -82t-55 -250zM203 1241
v27q197 208 256 301h356q37 -60 113.5 -147.5t142.5 -153.5v-27h-203q-158 94 -233 176q-91 -94 -229 -176h-203z" />
    <glyph glyph-name="otilde" unicode="&#xf5;" horiz-adv-x="1267" 
d="M1176 561q0 -278 -146 -430q-148 -151 -399 -151q-240 0 -389.5 154t-149.5 427q0 276 144.5 427t400.5 151q240 0 389.5 -153.5t149.5 -424.5zM403 561q0 -169 55.5 -252.5t176.5 -83.5q119 0 174 83.5t55 252.5t-55 250.5t-176 81.5q-120 0 -175 -82t-55 -250z
M369 1239h-150q11 153 86 231t187 78q46 0 102.5 -26t110.5 -52t94 -26q33 0 61 27.5t39 78.5h150q-11 -152 -87 -230.5t-186 -78.5q-46 0 -102.5 26.5t-110.5 52.5t-94 26q-33 0 -61 -27.5t-39 -79.5z" />
    <glyph glyph-name="odieresis" unicode="&#xf6;" horiz-adv-x="1267" 
d="M1176 561q0 -278 -146 -430q-148 -151 -399 -151q-240 0 -389.5 154t-149.5 427q0 276 144.5 427t400.5 151q240 0 389.5 -153.5t149.5 -424.5zM403 561q0 -169 55.5 -252.5t176.5 -83.5q119 0 174 83.5t55 252.5t-55 250.5t-176 81.5q-120 0 -175 -82t-55 -250z
M291 1405q0 66 39 100.5t100 34.5t101 -34.5t40 -100.5q0 -64 -40 -98.5t-101 -34.5q-60 0 -99.5 34t-39.5 99zM694 1405q0 66 39.5 100.5t102.5 34.5q61 0 101 -34.5t40 -100.5q0 -64 -40 -98.5t-101 -34.5q-63 0 -102.5 34t-39.5 99z" />
    <glyph glyph-name="divide" unicode="&#xf7;" horiz-adv-x="1171" 
d="M584 920q-61 0 -100.5 38t-39.5 113q0 80 38.5 116t101.5 36q61 0 100 -36.5t39 -115.5q0 -75 -39.5 -113t-99.5 -38zM1081 612h-993v219h993v-219zM584 221q-61 0 -100.5 38.5t-39.5 113.5q0 79 38.5 115t101.5 36q61 0 100 -36t39 -115q0 -75 -39.5 -113.5t-99.5 -38.5
z" />
    <glyph glyph-name="oslash" unicode="&#xf8;" horiz-adv-x="1267" 
d="M1176 561q0 -278 -146 -430q-148 -151 -399 -151q-114 0 -234 45l-67 -101l-154 105l68 100q-152 158 -152 432q0 276 144.5 427t400.5 151q135 0 248 -52l55 82l152 -108l-58 -84q142 -155 142 -416zM403 561q0 -95 19 -166l317 475q-51 23 -106 23q-120 0 -175 -82
t-55 -250zM864 561q0 79 -12 141l-309 -462q38 -15 92 -15q119 0 174 83.5t55 252.5z" />
    <glyph glyph-name="ugrave" unicode="&#xf9;" horiz-adv-x="1345" 
d="M154 389v729h305v-653q0 -123 43.5 -182.5t136.5 -59.5q134 0 188 90.5t54 278.5v526h305v-1118h-234l-41 143h-16q-52 -83 -143 -123t-201 -40q-187 0 -292 100.5t-105 308.5zM283 1548v21h342q74 -107 235 -301v-27h-203q-76 52 -197 151.5t-177 155.5z" />
    <glyph glyph-name="uacute" unicode="&#xfa;" horiz-adv-x="1345" 
d="M154 389v729h305v-653q0 -123 43.5 -182.5t136.5 -59.5q134 0 188 90.5t54 278.5v526h305v-1118h-234l-41 143h-16q-52 -83 -143 -123t-201 -40q-187 0 -292 100.5t-105 308.5zM489 1268q167 201 236 301h342v-21q-56 -56 -177.5 -155.5t-197.5 -151.5h-203v27z" />
    <glyph glyph-name="ucircumflex" unicode="&#xfb;" horiz-adv-x="1345" 
d="M154 389v729h305v-653q0 -123 43.5 -182.5t136.5 -59.5q134 0 188 90.5t54 278.5v526h305v-1118h-234l-41 143h-16q-52 -83 -143 -123t-201 -40q-187 0 -292 100.5t-105 308.5zM242 1268q197 208 256 301h356q37 -60 113.5 -147.5t142.5 -153.5v-27h-203
q-158 94 -233 176q-90 -92 -230 -176h-202v27z" />
    <glyph glyph-name="udieresis" unicode="&#xfc;" horiz-adv-x="1345" 
d="M154 389v729h305v-653q0 -123 43.5 -182.5t136.5 -59.5q134 0 188 90.5t54 278.5v526h305v-1118h-234l-41 143h-16q-52 -83 -143 -123t-201 -40q-187 0 -292 100.5t-105 308.5zM733 1405q0 66 39 100.5t102 34.5q61 0 101.5 -34.5t40.5 -100.5q0 -64 -40.5 -98.5
t-101.5 -34.5q-63 0 -102 34t-39 99zM469 1272q-60 0 -99.5 34t-39.5 99q0 66 39 100.5t100 34.5t101 -34.5t40 -100.5q0 -64 -40 -98.5t-101 -34.5z" />
    <glyph glyph-name="yacute" unicode="&#xfd;" horiz-adv-x="1165" 
d="M444 8l-444 1110h334l211 -629q27 -74 37 -194h6q12 110 43 194l207 629h327l-473 -1261q-65 -172 -185.5 -260.5t-281.5 -88.5q-72 0 -155 17v242q58 -13 120 -13q165 0 236 199zM399 1241v27q167 201 236 301h342v-21q-56 -56 -177.5 -155.5t-197.5 -151.5h-203z" />
    <glyph glyph-name="thorn" unicode="&#xfe;" horiz-adv-x="1296" 
d="M465 -492h-305v2048h305v-391q0 -96 -14 -192h14q103 166 317 166q194 0 308 -150t114 -428q0 -281 -114 -431t-308 -150q-211 0 -317 137h-14q14 -72 14 -156v-453zM465 596v-33q0 -170 50.5 -253t172.5 -83q205 0 205 338q0 330 -209 330q-116 0 -166.5 -73t-52.5 -226
z" />
    <glyph glyph-name="ydieresis" unicode="&#xff;" horiz-adv-x="1165" 
d="M444 8l-444 1110h334l211 -629q27 -74 37 -194h6q12 110 43 194l207 629h327l-473 -1261q-65 -172 -185.5 -260.5t-281.5 -88.5q-72 0 -155 17v242q58 -13 120 -13q165 0 236 199zM784 1272q-63 0 -102 34t-39 99q0 66 39 100.5t102 34.5q61 0 101.5 -34.5t40.5 -100.5
q0 -64 -40.5 -98.5t-101.5 -34.5zM240 1405q0 66 39 100.5t100 34.5t101 -34.5t40 -100.5q0 -64 -40 -98.5t-101 -34.5q-60 0 -99.5 34t-39.5 99z" />
    <glyph glyph-name="Amacron" unicode="&#x100;" horiz-adv-x="1413" 
d="M334 0h-334l516 1468h379l518 -1468h-334l-106 348h-533zM369 1585v211h678v-211h-678zM623 948l-105 -340h381l-106 340q-85 289 -86 293q-12 -53 -41.5 -154.5t-42.5 -138.5z" />
    <glyph glyph-name="amacron" unicode="&#x101;" horiz-adv-x="1236" 
d="M86 334q0 176 122.5 260.5t377.5 95.5l194 6v49q0 170 -174 170q-136 0 -315 -81l-101 206q200 101 428 101t346.5 -98.5t118.5 -297.5v-745h-213l-59 152h-8q-75 -94 -155.5 -133t-215.5 -39q-157 0 -251.5 89t-94.5 265zM958 1241h-677v211h677v-211zM662 514
q-141 -4 -202 -51t-61 -131q0 -129 148 -129q101 0 167 60t66 163v92z" />
    <glyph glyph-name="Abreve" unicode="&#x102;" horiz-adv-x="1413" 
d="M334 0h-334l516 1468h379l518 -1468h-334l-106 348h-533zM319 1923h170q4 -34 17 -57.5t31.5 -36.5t48.5 -20t57 -9t68 -2q207 0 221 125h174q-11 -150 -119.5 -244t-277.5 -94q-175 0 -278.5 91.5t-111.5 246.5zM518 608h381l-106 340q-85 289 -86 293
q-12 -53 -41.5 -154.5t-42.5 -138.5z" />
    <glyph glyph-name="abreve" unicode="&#x103;" horiz-adv-x="1236" 
d="M432 -20q-157 0 -251.5 89t-94.5 265t122.5 260.5t377.5 95.5l194 6v49q0 170 -174 170q-136 0 -315 -81l-101 206q200 101 428 101t346.5 -98.5t118.5 -297.5v-745h-213l-59 152h-8q-75 -94 -155.5 -133t-215.5 -39zM621 1241q-175 0 -278.5 91.5t-111.5 246.5h170
q4 -34 17 -57.5t31.5 -36.5t48.5 -20t57 -9t68 -2q207 0 221 125h174q-11 -150 -119.5 -244t-277.5 -94zM662 514q-141 -4 -202 -51t-61 -131q0 -129 148 -129q101 0 167 60t66 163v92z" />
    <glyph glyph-name="Aogonek" unicode="&#x104;" horiz-adv-x="1413" 
d="M334 0h-334l516 1468h379l518 -1468h-88q-74 -71 -110.5 -125t-36.5 -102q0 -40 21.5 -61t57.5 -21q54 0 115 18v-178q-71 -23 -155 -23q-115 0 -182.5 63t-67.5 167q0 73 45.5 140.5t122.5 121.5h-56l-106 348h-533zM518 608h381l-106 340q-85 289 -86 293
q-12 -53 -41.5 -154.5t-42.5 -138.5z" />
    <glyph glyph-name="aogonek" unicode="&#x105;" horiz-adv-x="1236" 
d="M432 -20q-157 0 -251.5 89t-94.5 265t122.5 260.5t377.5 95.5l194 6v49q0 170 -174 170q-136 0 -315 -81l-101 206q200 101 428 101t346.5 -98.5t118.5 -297.5v-745h-24q-74 -71 -111 -125t-37 -102q0 -40 21.5 -61t58.5 -21q54 0 115 18v-178q-71 -23 -156 -23
q-115 0 -182.5 63t-67.5 167q0 74 46.5 142t123.5 120l-59 152h-8q-75 -94 -155.5 -133t-215.5 -39zM662 514q-141 -4 -202 -51t-61 -131q0 -129 148 -129q101 0 167 60t66 163v92z" />
    <glyph glyph-name="Cacute" unicode="&#x106;" horiz-adv-x="1304" 
d="M805 1225q-177 0 -272 -132t-95 -366q0 -489 367 -489q155 0 373 77v-260q-190 -75 -402 -75q-134 0 -242.5 34.5t-185.5 99t-128.5 157t-76 207t-24.5 251.5q0 166 46 304.5t131.5 238.5t216 155.5t292.5 55.5q211 0 428 -103l-100 -252q-207 97 -328 97zM823 1913h342
v-21q-56 -56 -177 -155.5t-197 -151.5h-203v27q161 194 235 301z" />
    <glyph glyph-name="cacute" unicode="&#x107;" horiz-adv-x="1052" 
d="M614 -20q-522 0 -522 573q0 151 40 264t113.5 183t172.5 104.5t223 34.5q192 0 348 -76l-90 -236q-162 66 -258 66q-238 0 -238 -338q0 -164 61.5 -246t176.5 -82q162 0 313 97v-261q-70 -45 -147 -64t-193 -19zM639 1569h342v-21q-56 -56 -177.5 -155.5t-197.5 -151.5
h-203v27q167 201 236 301z" />
    <glyph glyph-name="Ccircumflex" unicode="&#x108;" horiz-adv-x="1304" 
d="M776 -20q-134 0 -242.5 34.5t-185.5 99t-128.5 157t-76 207t-24.5 251.5q0 166 46 304.5t131.5 238.5t216 155.5t292.5 55.5q211 0 428 -103l-100 -252q-207 97 -328 97q-177 0 -272 -132t-95 -366q0 -489 367 -489q155 0 373 77v-260q-190 -75 -402 -75zM543 1585h-203
v27q197 208 256 301h356q37 -60 113.5 -147.5t142.5 -153.5v-27h-202q-160 96 -234 176q-91 -94 -229 -176z" />
    <glyph glyph-name="ccircumflex" unicode="&#x109;" horiz-adv-x="1052" 
d="M614 -20q-522 0 -522 573q0 151 40 264t113.5 183t172.5 104.5t223 34.5q192 0 348 -76l-90 -236q-162 66 -258 66q-238 0 -238 -338q0 -164 61.5 -246t176.5 -82q162 0 313 97v-261q-70 -45 -147 -64t-193 -19zM156 1241v27q197 208 256 301h356q37 -60 113.5 -147.5
t142.5 -153.5v-27h-203q-158 94 -233 176q-90 -92 -230 -176h-202z" />
    <glyph glyph-name="Cdotaccent" unicode="&#x10a;" horiz-adv-x="1304" 
d="M805 1225q-177 0 -272 -132t-95 -366q0 -489 367 -489q155 0 373 77v-260q-190 -75 -402 -75q-134 0 -242.5 34.5t-185.5 99t-128.5 157t-76 207t-24.5 251.5q0 166 46 304.5t131.5 238.5t216 155.5t292.5 55.5q211 0 428 -103l-100 -252q-207 97 -328 97zM776 1901
q-166 0 -166 -150q0 -149 166 -149t166 149q0 150 -166 150z" />
    <glyph glyph-name="cdotaccent" unicode="&#x10b;" horiz-adv-x="1052" 
d="M614 -20q-522 0 -522 573q0 151 40 264t113.5 183t172.5 104.5t223 34.5q192 0 348 -76l-90 -236q-162 66 -258 66q-238 0 -238 -338q0 -164 61.5 -246t176.5 -82q162 0 313 97v-261q-70 -45 -147 -64t-193 -19zM592 1556q166 0 166 -149q0 -79 -45.5 -114.5
t-120.5 -35.5q-166 0 -166 150q0 149 166 149z" />
    <glyph glyph-name="Ccaron" unicode="&#x10c;" horiz-adv-x="1304" 
d="M776 -20q-134 0 -242.5 34.5t-185.5 99t-128.5 157t-76 207t-24.5 251.5q0 166 46 304.5t131.5 238.5t216 155.5t292.5 55.5q211 0 428 -103l-100 -252q-207 97 -328 97q-177 0 -272 -132t-95 -366q0 -489 367 -489q155 0 373 77v-260q-190 -75 -402 -75zM342 1913h203
q138 -82 229 -176q74 80 234 176h202v-27q-66 -66 -142.5 -153.5t-113.5 -147.5h-356q-59 93 -256 301v27z" />
    <glyph glyph-name="ccaron" unicode="&#x10d;" horiz-adv-x="1052" 
d="M614 -20q-522 0 -522 573q0 151 40 264t113.5 183t172.5 104.5t223 34.5q192 0 348 -76l-90 -236q-162 66 -258 66q-238 0 -238 -338q0 -164 61.5 -246t176.5 -82q162 0 313 97v-261q-70 -45 -147 -64t-193 -19zM158 1569h202q140 -84 230 -176q75 82 233 176h203v-27
q-66 -66 -142.5 -153.5t-113.5 -147.5h-356q-59 93 -256 301v27z" />
    <glyph glyph-name="Dcaron" unicode="&#x10e;" horiz-adv-x="1515" 
d="M184 1462h459q349 0 551.5 -186.5t202.5 -530.5q0 -366 -208.5 -555.5t-590.5 -189.5h-414v1462zM494 1208v-952h133q448 0 448 481q0 471 -416 471h-165zM328 1886v27h202q140 -84 230 -176q75 82 233 176h203v-27q-66 -66 -142.5 -153.5t-113.5 -147.5h-356
q-59 93 -256 301z" />
    <glyph glyph-name="dcaron" unicode="&#x10f;" horiz-adv-x="1296" 
d="M514 -20q-191 0 -306.5 150t-115.5 427q0 281 116.5 431.5t313.5 150.5q217 0 322 -164h10q-23 124 -23 223v358h306v-1556h-234l-59 145h-13q-106 -165 -317 -165zM616 891q-101 0 -158 -88t-57 -250t57 -246t163 -84q121 0 173.5 72.5t57.5 226.5v33q0 170 -53 253
t-183 83zM1206 1229v26q46 160 62 301h282v-20q-82 -179 -166 -307h-178z" />
    <glyph glyph-name="Dcroat" unicode="&#x110;" horiz-adv-x="1515" 
d="M47 850h137v612h459q349 0 551.5 -186.5t202.5 -530.5q0 -366 -208.5 -555.5t-590.5 -189.5h-414v596h-137v254zM494 1208v-358h237v-254h-237v-340h131q450 0 450 481q0 237 -108 354t-310 117h-163z" />
    <glyph glyph-name="dcroat" unicode="&#x111;" horiz-adv-x="1329" 
d="M92 526q0 265 116.5 408t313.5 143q217 0 322 -164h10l-3 22q-20 143 -20 210v51h-315v199h315v161h306v-161h155v-199h-155v-1196h-234l-59 145h-13q-106 -165 -317 -165q-191 0 -306.5 142t-115.5 404zM401 522q0 -147 57 -223t163 -76q121 0 173.5 66t57.5 207v28
q0 155 -53 230t-183 75q-101 0 -158 -79.5t-57 -227.5z" />
    <glyph glyph-name="Emacron" unicode="&#x112;" horiz-adv-x="1146" 
d="M1026 0h-842v1462h842v-254h-532v-321h495v-254h-495v-377h532v-256zM279 1796h677v-211h-677v211z" />
    <glyph glyph-name="emacron" unicode="&#x113;" horiz-adv-x="1210" 
d="M621 1139q234 0 367.5 -133t133.5 -375v-148h-721q5 -130 78 -203t201 -73q193 0 379 88v-236q-86 -42 -176 -60.5t-217 -18.5t-231 35.5t-181 104.5t-119.5 179t-42.5 252q0 285 143 436.5t386 151.5zM623 922q-93 0 -149 -58.5t-66 -177.5h428q-2 105 -56.5 170.5
t-156.5 65.5zM268 1452h678v-211h-678v211z" />
    <glyph glyph-name="Ebreve" unicode="&#x114;" horiz-adv-x="1146" 
d="M1026 0h-842v1462h842v-254h-532v-321h495v-254h-495v-377h532v-256zM229 1923h170q4 -34 17 -57.5t31.5 -36.5t48.5 -20t57 -9t68 -2q207 0 221 125h174q-11 -150 -120 -244t-278 -94q-175 0 -278 91.5t-111 246.5z" />
    <glyph glyph-name="ebreve" unicode="&#x115;" horiz-adv-x="1210" 
d="M92 551q0 285 143 436.5t386 151.5q234 0 367.5 -133t133.5 -375v-148h-721q5 -130 78 -203t201 -73q193 0 379 88v-236q-86 -42 -176 -60.5t-217 -18.5t-231 35.5t-181 104.5t-119.5 179t-42.5 252zM608 1241q-175 0 -278 91.5t-111 246.5h170q4 -34 17 -57.5t31 -36.5
t48 -20t57 -9t68 -2q207 0 221 125h175q-11 -150 -120 -244t-278 -94zM408 686h428q-2 105 -56.5 170.5t-156.5 65.5q-93 0 -149 -58.5t-66 -177.5z" />
    <glyph glyph-name="Edotaccent" unicode="&#x116;" horiz-adv-x="1146" 
d="M1026 0h-842v1462h842v-254h-532v-321h495v-254h-495v-377h532v-256zM621 1901q165 0 165 -150q0 -149 -165 -149q-166 0 -166 149q0 150 166 150z" />
    <glyph glyph-name="edotaccent" unicode="&#x117;" horiz-adv-x="1210" 
d="M621 1139q234 0 367.5 -133t133.5 -375v-148h-721q5 -130 78 -203t201 -73q193 0 379 88v-236q-86 -42 -176 -60.5t-217 -18.5t-231 35.5t-181 104.5t-119.5 179t-42.5 252q0 285 143 436.5t386 151.5zM623 922q-93 0 -149 -58.5t-66 -177.5h428q-2 105 -56.5 170.5
t-156.5 65.5zM610 1556q166 0 166 -149q0 -79 -45.5 -114.5t-120.5 -35.5q-166 0 -166 150q0 149 166 149z" />
    <glyph glyph-name="Eogonek" unicode="&#x118;" horiz-adv-x="1146" 
d="M184 1462h842v-254h-532v-321h495v-254h-495v-377h532v-256h-47q-74 -71 -111 -125t-37 -102q0 -40 21.5 -61t58.5 -21q54 0 115 18v-178q-71 -23 -156 -23q-114 0 -181.5 63t-67.5 167q0 73 45.5 140.5t121.5 121.5h-604v1462z" />
    <glyph glyph-name="eogonek" unicode="&#x119;" horiz-adv-x="1210" 
d="M846 -227q0 -40 21.5 -61t58.5 -21q53 0 114 18v-178q-71 -23 -155 -23q-115 0 -182.5 63t-67.5 167q0 130 147 246q-70 -4 -116 -4q-127 0 -231 35.5t-181 104.5t-119.5 179t-42.5 252q0 285 143 436.5t386 151.5q234 0 367.5 -133t133.5 -375v-148h-721q5 -130 78 -203
t201 -73q193 0 379 88v-236q-120 -105 -168 -172q-45 -62 -45 -114zM623 922q-93 0 -149 -58.5t-66 -177.5h428q-2 105 -56.5 170.5t-156.5 65.5z" />
    <glyph glyph-name="Ecaron" unicode="&#x11a;" horiz-adv-x="1146" 
d="M184 1462h842v-254h-532v-321h495v-254h-495v-377h532v-256h-842v1462zM186 1913h203q138 -82 229 -176q74 80 234 176h203v-27q-66 -66 -142.5 -153.5t-113.5 -147.5h-357q-59 93 -256 301v27z" />
    <glyph glyph-name="ecaron" unicode="&#x11b;" horiz-adv-x="1210" 
d="M92 551q0 285 143 436.5t386 151.5q234 0 367.5 -133t133.5 -375v-148h-721q5 -130 78 -203t201 -73q193 0 379 88v-236q-86 -42 -176 -60.5t-217 -18.5t-231 35.5t-181 104.5t-119.5 179t-42.5 252zM176 1542v27h203q138 -82 229 -176q74 80 234 176h202v-27
q-66 -66 -142.5 -153.5t-113.5 -147.5h-356q-59 93 -256 301zM408 686h428q-2 105 -56.5 170.5t-156.5 65.5q-93 0 -149 -58.5t-66 -177.5z" />
    <glyph glyph-name="Gcircumflex" unicode="&#x11c;" horiz-adv-x="1482" 
d="M119 733q0 348 199.5 549t564.5 201q233 0 434 -90l-103 -248q-153 80 -333 80q-202 0 -322.5 -136t-120.5 -362q0 -227 93.5 -358t287.5 -131q87 0 197 20v305h-277v258h580v-758q-251 -83 -520 -83q-329 0 -504.5 193t-175.5 560zM387 1612q197 208 256 301h356
q37 -60 113.5 -147.5t142.5 -153.5v-27h-202q-160 96 -234 176q-91 -94 -229 -176h-203v27z" />
    <glyph glyph-name="gcircumflex" unicode="&#x11d;" horiz-adv-x="1296" 
d="M92 557q0 274 114 428t316 154q207 0 324 -164h8l25 143h258v-1120q0 -240 -141.5 -365t-417.5 -125q-244 0 -418 66v244q207 -86 436 -86q235 0 235 254v22q0 79 9 137h-9q-107 -165 -317 -165q-198 0 -310 153t-112 424zM618 891q-215 0 -215 -338q0 -334 220 -334
q120 0 174.5 68.5t54.5 230.5v37q0 179 -55 257.5t-179 78.5zM211 1268q197 208 256 301h356q37 -60 113.5 -147.5t142.5 -153.5v-27h-202q-160 96 -234 176q-91 -94 -229 -176h-203v27z" />
    <glyph glyph-name="Gbreve" unicode="&#x11e;" horiz-adv-x="1482" 
d="M799 -20q-329 0 -504.5 193t-175.5 560q0 348 199.5 549t564.5 201q233 0 434 -90l-103 -248q-153 80 -333 80q-202 0 -322.5 -136t-120.5 -362q0 -227 93.5 -358t287.5 -131q87 0 197 20v305h-277v258h580v-758q-251 -83 -520 -83zM821 1585q-175 0 -278 91.5
t-111 246.5h170q4 -34 17 -57.5t31 -36.5t48 -20t57 -9t68 -2q207 0 221 125h175q-11 -150 -120 -244t-278 -94z" />
    <glyph glyph-name="gbreve" unicode="&#x11f;" horiz-adv-x="1296" 
d="M92 557q0 274 114 428t316 154q207 0 324 -164h8l25 143h258v-1120q0 -240 -141.5 -365t-417.5 -125q-244 0 -418 66v244q207 -86 436 -86q235 0 235 254v22q0 79 9 137h-9q-107 -165 -317 -165q-198 0 -310 153t-112 424zM403 553q0 -334 220 -334q120 0 174.5 68.5
t54.5 230.5v37q0 179 -55 257.5t-179 78.5q-215 0 -215 -338zM645 1241q-175 0 -278 91.5t-111 246.5h170q4 -34 17 -57.5t31 -36.5t48 -20t57 -9t68 -2q207 0 221 125h174q-11 -150 -119.5 -244t-277.5 -94z" />
    <glyph glyph-name="Gdotaccent" unicode="&#x120;" horiz-adv-x="1482" 
d="M739 563v258h580v-758q-251 -83 -520 -83q-329 0 -504.5 193t-175.5 560q0 348 199.5 549t564.5 201q233 0 434 -90l-103 -248q-153 80 -333 80q-202 0 -322.5 -136t-120.5 -362q0 -227 93.5 -358t287.5 -131q87 0 197 20v305h-277zM823 1901q-166 0 -166 -150
q0 -149 166 -149t166 149q0 150 -166 150z" />
    <glyph glyph-name="gdotaccent" unicode="&#x121;" horiz-adv-x="1296" 
d="M522 1139q207 0 324 -164h8l25 143h258v-1120q0 -240 -141.5 -365t-417.5 -125q-244 0 -418 66v244q207 -86 436 -86q235 0 235 254v22q0 79 9 137h-9q-107 -165 -317 -165q-198 0 -310 153t-112 424q0 274 114 428t316 154zM618 891q-215 0 -215 -338q0 -334 220 -334
q120 0 174.5 68.5t54.5 230.5v37q0 179 -55 257.5t-179 78.5zM647 1556q166 0 166 -149q0 -79 -45.5 -114.5t-120.5 -35.5q-166 0 -166 150q0 149 166 149z" />
    <glyph glyph-name="uni0122" unicode="&#x122;" horiz-adv-x="1482" 
d="M739 563v258h580v-758q-251 -83 -520 -83q-329 0 -504.5 193t-175.5 560q0 348 199.5 549t564.5 201q233 0 434 -90l-103 -248q-153 80 -333 80q-202 0 -322.5 -136t-120.5 -362q0 -227 93.5 -358t287.5 -131q87 0 197 20v305h-277zM688 -125h283v-20q-83 -183 -166 -308
h-178v27q44 164 61 301z" />
    <glyph glyph-name="uni0123" unicode="&#x123;" horiz-adv-x="1296" 
d="M522 1139q207 0 324 -164h8l25 143h258v-1120q0 -240 -141.5 -365t-417.5 -125q-244 0 -418 66v244q207 -86 436 -86q235 0 235 254v22q0 79 9 137h-9q-107 -165 -317 -165q-198 0 -310 153t-112 424q0 274 114 428t316 154zM618 891q-215 0 -215 -338q0 -334 220 -334
q120 0 174.5 68.5t54.5 230.5v37q0 179 -55 257.5t-179 78.5zM625 1569h178v-27q-46 -171 -62 -301h-282v21q82 179 166 307z" />
    <glyph glyph-name="Hcircumflex" unicode="&#x124;" horiz-adv-x="1566" 
d="M494 0h-310v1462h310v-573h579v573h309v-1462h-309v631h-579v-631zM352 1612q197 208 256 301h357q37 -60 113.5 -147.5t142.5 -153.5v-27h-203q-160 96 -234 176q-91 -94 -229 -176h-203v27z" />
    <glyph glyph-name="hcircumflex" unicode="&#x125;" horiz-adv-x="1345" 
d="M160 0v1556h305v-317q0 -168 -14 -264h16q103 164 324 164q188 0 294.5 -101t106.5 -309v-729h-305v653q0 242 -180 242q-132 0 -187 -91.5t-55 -277.5v-526h-305zM-115 1679v27q197 208 256 301h357q37 -60 113.5 -147.5t142.5 -153.5v-27h-203q-160 96 -234 176
q-91 -94 -229 -176h-203z" />
    <glyph glyph-name="Hbar" unicode="&#x126;" horiz-adv-x="1566" 
d="M0 1069v199h184v194h310v-194h579v194h309v-194h185v-199h-185v-1069h-309v631h-579v-631h-310v1069h-184zM494 889h579v180h-579v-180z" />
    <glyph glyph-name="hbar" unicode="&#x127;" horiz-adv-x="1345" 
d="M4 1196v199h156v161h305v-161h315v-199h-315v-18q0 -169 -14 -265h18q103 164 324 164q190 0 294.5 -100t104.5 -309v-668h-305v592q0 242 -180 242q-132 0 -187 -91.5t-55 -277.5v-465h-305v1196h-156z" />
    <glyph glyph-name="Itilde" unicode="&#x128;" horiz-adv-x="796" 
d="M66 1286v176h665v-176l-178 -82v-946l178 -82v-176h-665v176l178 82v946zM-16 1583q12 153 86 231t186 78q46 0 102.5 -26t110.5 -52t94 -26q33 0 61.5 27.5t39.5 78.5h149q-11 -152 -86.5 -230.5t-185.5 -78.5q-46 0 -103 26.5t-111 52.5t-94 26q-33 0 -61 -27.5
t-39 -79.5h-149z" />
    <glyph glyph-name="itilde" unicode="&#x129;" horiz-adv-x="624" 
d="M465 1118v-1118h-305v1118h305zM47 1239h-149q12 153 86 231t186 78q46 0 102.5 -26t110.5 -52t94 -26q33 0 61.5 27.5t39.5 78.5h149q-11 -152 -86.5 -230.5t-185.5 -78.5q-46 0 -103 26.5t-111 52.5t-94 26q-33 0 -61 -27.5t-39 -79.5z" />
    <glyph glyph-name="Imacron" unicode="&#x12a;" horiz-adv-x="796" 
d="M244 1204l-178 82v176h665v-176l-178 -82v-946l178 -82v-176h-665v176l178 82v946zM739 1585h-678v211h678v-211z" />
    <glyph glyph-name="imacron" unicode="&#x12b;" horiz-adv-x="624" 
d="M465 1118v-1118h-305v1118h305zM-25 1452h678v-211h-678v211z" />
    <glyph glyph-name="Ibreve" unicode="&#x12c;" horiz-adv-x="796" 
d="M66 0v176l178 82v946l-178 82v176h665v-176l-178 -82v-946l178 -82v-176h-665zM401 1585q-175 0 -278 91.5t-111 246.5h170q4 -34 17 -57.5t31 -36.5t48 -20t57 -9t68 -2q208 0 222 125h174q-11 -150 -120 -244t-278 -94z" />
    <glyph glyph-name="ibreve" unicode="&#x12d;" horiz-adv-x="624" 
d="M465 0h-305v1118h305v-1118zM315 1241q-175 0 -278 91.5t-111 246.5h170q4 -34 17 -57.5t31 -36.5t48 -20t57 -9t68 -2q208 0 222 125h174q-11 -150 -120 -244t-278 -94z" />
    <glyph glyph-name="Iogonek" unicode="&#x12e;" horiz-adv-x="796" 
d="M66 0v176l178 82v946l-178 82v176h665v-176l-178 -82v-946l178 -82v-176h-59q-74 -71 -111 -125t-37 -102q0 -40 21.5 -61t58.5 -21q54 0 115 18v-178q-71 -23 -156 -23q-115 0 -182.5 63t-67.5 167q0 73 45.5 140.5t122.5 121.5h-415z" />
    <glyph glyph-name="iogonek" unicode="&#x12f;" horiz-adv-x="624" 
d="M342 -492q-115 0 -182.5 63t-67.5 167q0 73 45.5 140.5t122.5 121.5h-100v1118h305v-1118h-14q-74 -71 -111 -125t-37 -102q0 -40 21.5 -61t58.5 -21q54 0 115 18v-178q-71 -23 -156 -23zM147 1407q0 149 166 149t166 -149q0 -79 -45.5 -114.5t-120.5 -35.5
q-166 0 -166 150z" />
    <glyph glyph-name="Idotaccent" unicode="&#x130;" horiz-adv-x="796" 
d="M66 1462h665v-176l-178 -82v-946l178 -82v-176h-665v176l178 82v946l-178 82v176zM403 1901q166 0 166 -150q0 -149 -166 -149q-165 0 -165 149q0 150 165 150z" />
    <glyph glyph-name="dotlessi" unicode="&#x131;" horiz-adv-x="624" 
d="M465 1118v-1118h-305v1118h305z" />
    <glyph glyph-name="IJ" unicode="&#x132;" horiz-adv-x="1474" 
d="M827 -430q-114 0 -182 22v258q86 -20 146 -20q44 0 76 11t59 38.5t41 80.5t14 132v1370h309v-1368q0 -272 -123 -398t-340 -126zM244 1204l-178 82v176h665v-176l-178 -82v-946l178 -82v-176h-665v176l178 82v946z" />
    <glyph glyph-name="ij" unicode="&#x133;" horiz-adv-x="1249" 
d="M694 -492q-112 0 -200 25v240q66 -19 143 -19q147 0 147 170v1194h306v-1239q0 -166 -96.5 -268.5t-299.5 -102.5zM160 0v1118h305v-1118h-305zM772 1407q0 149 166 149t166 -149q0 -79 -45.5 -114.5t-120.5 -35.5q-166 0 -166 150zM147 1407q0 149 166 149t166 -149
q0 -79 -45.5 -114.5t-120.5 -35.5q-166 0 -166 150z" />
    <glyph glyph-name="Jcircumflex" unicode="&#x134;" horiz-adv-x="677" 
d="M-152 -150q86 -20 146 -20q44 0 76 11t59 38.5t41 80.5t14 132v1370h310v-1368q0 -272 -123 -398t-340 -126q-115 0 -183 22v258zM-92 1585v27q197 208 256 301h356q37 -60 113.5 -147.5t142.5 -153.5v-27h-203q-158 94 -233 176q-91 -94 -229 -176h-203z" />
    <glyph glyph-name="jcircumflex" unicode="&#x135;" horiz-adv-x="624" 
d="M-131 -227q66 -19 143 -19q148 0 148 170v1194h305v-1239q0 -166 -96 -268.5t-299 -102.5q-113 0 -201 25v240zM-119 1241v27q197 208 256 301h357q37 -60 113.5 -147.5t142.5 -153.5v-27h-203q-160 96 -234 176q-91 -94 -229 -176h-203z" />
    <glyph glyph-name="uni0136" unicode="&#x136;" horiz-adv-x="1359" 
d="M184 1462h310v-669l122 172l396 497h344l-510 -647l514 -815h-352l-383 616l-131 -94v-522h-310v1462zM541 -453v27q44 154 61 301h283v-20q-83 -183 -166 -308h-178z" />
    <glyph glyph-name="uni0137" unicode="&#x137;" horiz-adv-x="1269" 
d="M160 1556h305v-696q0 -84 -16 -252h4q10 15 12 17q62 89 121 153l313 340h344l-444 -485l471 -633h-352l-322 453l-131 -105v-348h-305v1556zM641 -453h-178v27q44 154 61 301h283v-20q-83 -183 -166 -308z" />
    <glyph glyph-name="kgreenlandic" unicode="&#x138;" horiz-adv-x="1269" 
d="M160 0v1118h305v-293q-1 -27 -1 -77t-1 -90t-4 -76h4q17 21 45 55t51 62t45 53l314 366h325l-440 -512l467 -606h-348l-314 426l-143 -90v-336h-305z" />
    <glyph glyph-name="Lacute" unicode="&#x139;" horiz-adv-x="1157" 
d="M1087 0h-903v1462h310v-1206h593v-256zM387 1913h342v-21q-56 -56 -177.5 -155.5t-197.5 -151.5h-202v27q161 194 235 301z" />
    <glyph glyph-name="lacute" unicode="&#x13a;" horiz-adv-x="624" 
d="M465 1556v-1556h-305v1556h305zM365 2007h342v-20q-56 -56 -177.5 -156t-197.5 -152h-203v27q167 201 236 301z" />
    <glyph glyph-name="uni013B" unicode="&#x13b;" horiz-adv-x="1157" 
d="M1087 0h-903v1462h310v-1206h593v-256zM520 -125h283v-20q-83 -183 -166 -308h-178v27q44 164 61 301z" />
    <glyph glyph-name="uni013C" unicode="&#x13c;" horiz-adv-x="624" 
d="M465 1556v-1556h-305v1556h305zM203 -125h282v-20q-83 -183 -166 -308h-178v27q46 171 62 301z" />
    <glyph glyph-name="Lcaron" unicode="&#x13d;" horiz-adv-x="1157" 
d="M184 0v1462h310v-1206h593v-256h-903zM979 1135h-178v26q44 154 61 301h283v-20q-82 -179 -166 -307z" />
    <glyph glyph-name="lcaron" unicode="&#x13e;" horiz-adv-x="624" 
d="M160 1556h305v-1556h-305v1556zM520 1229v26q46 160 62 301h282v-20q-82 -179 -166 -307h-178z" />
    <glyph glyph-name="Ldot" unicode="&#x13f;" horiz-adv-x="1157" 
d="M1087 0h-903v1462h310v-1206h593v-256zM899 952q166 0 166 -149q0 -79 -45.5 -114.5t-120.5 -35.5q-166 0 -166 150q0 149 166 149z" />
    <glyph glyph-name="ldot" unicode="&#x140;" horiz-adv-x="741" 
d="M465 1556v-1556h-305v1556h305zM682 924q166 0 166 -150q0 -149 -166 -149t-166 149q0 150 166 150z" />
    <glyph glyph-name="Lslash" unicode="&#x141;" horiz-adv-x="1157" 
d="M2 647l182 111v704h310v-516l143 88l117 -196l-260 -158v-424h593v-256h-903v492l-69 -41z" />
    <glyph glyph-name="lslash" unicode="&#x142;" horiz-adv-x="624" 
d="M-25 631l185 112v813h305v-626l70 43l116 -197l-186 -112v-664h-305v477l-72 -43z" />
    <glyph glyph-name="Nacute" unicode="&#x143;" horiz-adv-x="1665" 
d="M184 1462h391l635 -1095h7q-13 299 -15 403v692h279v-1462h-394l-636 1106h-9l19 -418v-688h-277v1462zM649 1612q167 201 236 301h342v-21q-56 -56 -177.5 -155.5t-197.5 -151.5h-203v27z" />
    <glyph glyph-name="nacute" unicode="&#x144;" horiz-adv-x="1345" 
d="M160 0v1118h233l41 -143h17q52 83 143 123.5t201 40.5q187 0 292 -101t105 -309v-729h-305v653q0 123 -43.5 182.5t-136.5 59.5q-134 0 -188 -90.5t-54 -278.5v-526h-305zM489 1241v27q167 201 236 301h342v-21q-56 -56 -177.5 -155.5t-197.5 -151.5h-203z" />
    <glyph glyph-name="uni0145" unicode="&#x145;" horiz-adv-x="1665" 
d="M461 0h-277v1462h391l635 -1095h7q-13 299 -15 403v692h279v-1462h-394l-636 1106h-9l19 -418v-688zM662 -453v27q44 154 61 301h283v-20q-83 -183 -166 -308h-178z" />
    <glyph glyph-name="uni0146" unicode="&#x146;" horiz-adv-x="1345" 
d="M160 0v1118h233l41 -143h17q52 83 143 123.5t201 40.5q187 0 292 -101t105 -309v-729h-305v653q0 123 -43.5 182.5t-136.5 59.5q-134 0 -188 -90.5t-54 -278.5v-526h-305zM502 -453v27q44 154 61 301h283v-20q-83 -183 -166 -308h-178z" />
    <glyph glyph-name="Ncaron" unicode="&#x147;" horiz-adv-x="1665" 
d="M184 1462h391l635 -1095h7q-13 299 -15 403v692h279v-1462h-394l-636 1106h-9l19 -418v-688h-277v1462zM659 1585q-59 93 -256 301v27h203q140 -84 230 -176q75 82 233 176h203v-27q-66 -66 -142.5 -153.5t-113.5 -147.5h-357z" />
    <glyph glyph-name="ncaron" unicode="&#x148;" horiz-adv-x="1345" 
d="M160 0v1118h233l41 -143h17q52 83 143 123.5t201 40.5q187 0 292 -101t105 -309v-729h-305v653q0 123 -43.5 182.5t-136.5 59.5q-134 0 -188 -90.5t-54 -278.5v-526h-305zM500 1241q-59 93 -256 301v27h202q140 -84 230 -176q75 82 233 176h203v-27
q-66 -66 -142.5 -153.5t-113.5 -147.5h-356z" />
    <glyph glyph-name="napostrophe" unicode="&#x149;" horiz-adv-x="1576" 
d="M696 0h-305v1118h234l41 -143h16q52 83 143 123.5t201 40.5q187 0 292 -101t105 -309v-729h-305v653q0 123 -43.5 182.5t-136.5 59.5q-134 0 -188 -90.5t-54 -278.5v-526zM223 961h-219q77 319 100 501h281l14 -22q-47 -194 -176 -479z" />
    <glyph glyph-name="Eng" unicode="&#x14a;" horiz-adv-x="1665" 
d="M184 0v1462h391l635 -901h7l-1 16q-1 16 -2 42t-2.5 59.5t-3.5 72.5t-3 76l-2 74t-1 64v497h279v-1462q0 -215 -124.5 -322.5t-340.5 -107.5q-129 0 -197 22v242q98 -20 166 -20q114 0 167.5 44t57.5 146l-759 1102h-9l2 -30q2 -31 5 -78.5t5.5 -101t4.5 -111t2 -97.5
v-688h-277z" />
    <glyph glyph-name="eng" unicode="&#x14b;" horiz-adv-x="1345" 
d="M829 -492q-100 0 -184 25v240q56 -19 119 -19q123 0 123 170v752q0 219 -180 219q-134 0 -188 -90.5t-54 -278.5v-526h-305v1118h233l41 -143h19q52 83 142.5 123.5t199.5 40.5q187 0 292 -101t105 -309v-850q0 -79 -20.5 -144.5t-62.5 -117.5t-113.5 -80.5t-166.5 -28.5
z" />
    <glyph glyph-name="Omacron" unicode="&#x14c;" horiz-adv-x="1630" 
d="M1511 733q0 -172 -42 -309t-126.5 -237t-218 -153.5t-309.5 -53.5t-309.5 53.5t-218 153.5t-126.5 237.5t-42 310.5q0 172 42 308.5t126.5 236t218.5 152.5t311 53q175 0 308.5 -53t217.5 -152.5t126 -236.5t42 -310zM444 733q0 -237 91 -365t280 -128q371 0 371 493
q0 494 -369 494q-191 0 -282 -128.5t-91 -365.5zM477 1796h678v-211h-678v211z" />
    <glyph glyph-name="omacron" unicode="&#x14d;" horiz-adv-x="1267" 
d="M1176 561q0 -278 -146 -430q-148 -151 -399 -151q-240 0 -389.5 154t-149.5 427q0 276 144.5 427t400.5 151q240 0 389.5 -153.5t149.5 -424.5zM403 561q0 -169 55.5 -252.5t176.5 -83.5q119 0 174 83.5t55 252.5t-55 250.5t-176 81.5q-120 0 -175 -82t-55 -250z
M297 1452h678v-211h-678v211z" />
    <glyph glyph-name="Obreve" unicode="&#x14e;" horiz-adv-x="1630" 
d="M815 -20q-176 0 -309.5 53.5t-218 153.5t-126.5 237.5t-42 310.5q0 172 42 308.5t126.5 236t218.5 152.5t311 53q175 0 308.5 -53t217.5 -152.5t126 -236.5t42 -310q0 -172 -42 -309t-126.5 -237t-218 -153.5t-309.5 -53.5zM444 733q0 -237 91 -365t280 -128
q371 0 371 493q0 494 -369 494q-191 0 -282 -128.5t-91 -365.5zM428 1923h170q4 -34 17 -57.5t31 -36.5t48 -20t57 -9t68 -2q207 0 221 125h174q-11 -150 -119.5 -244t-277.5 -94q-175 0 -278 91.5t-111 246.5z" />
    <glyph glyph-name="obreve" unicode="&#x14f;" horiz-adv-x="1267" 
d="M631 -20q-240 0 -389.5 154t-149.5 427q0 276 144.5 427t400.5 151q240 0 389.5 -153.5t149.5 -424.5q0 -276 -145.5 -428.5t-399.5 -152.5zM403 561q0 -169 55.5 -252.5t176.5 -83.5q119 0 174 83.5t55 252.5t-55 250.5t-176 81.5q-120 0 -175 -82t-55 -250zM248 1579
h170q4 -34 17 -57.5t31 -36.5t48 -20t57 -9t68 -2q207 0 221 125h174q-11 -150 -119.5 -244t-277.5 -94q-175 0 -278 91.5t-111 246.5z" />
    <glyph glyph-name="Ohungarumlaut" unicode="&#x150;" horiz-adv-x="1630" 
d="M815 -20q-176 0 -309.5 53.5t-218 153.5t-126.5 237.5t-42 310.5q0 172 42 308.5t126.5 236t218.5 152.5t311 53q175 0 308.5 -53t217.5 -152.5t126 -236.5t42 -310q0 -172 -42 -309t-126.5 -237t-218 -153.5t-309.5 -53.5zM817 1227q-191 0 -282 -128.5t-91 -365.5
t91 -365t280 -128q371 0 371 493q0 494 -369 494zM684 1585h-162v27q131 181 195 301h301v-21q-48 -81 -334 -307zM920 1612q144 200 194 301h301v-21q-48 -81 -334 -307h-161v27z" />
    <glyph glyph-name="ohungarumlaut" unicode="&#x151;" horiz-adv-x="1267" 
d="M631 -20q-240 0 -389.5 154t-149.5 427q0 276 144.5 427t400.5 151q240 0 389.5 -153.5t149.5 -424.5q0 -276 -145.5 -428.5t-399.5 -152.5zM633 893q-120 0 -175 -82t-55 -250q0 -169 55.5 -252.5t176.5 -83.5q119 0 174 83.5t55 252.5t-55 250.5t-176 81.5zM504 1241
h-162v27q131 181 195 301h301v-21q-48 -81 -334 -307zM901 1241h-162v27q148 204 195 301h301v-21q-48 -81 -334 -307z" />
    <glyph glyph-name="OE" unicode="&#x152;" horiz-adv-x="1992" 
d="M119 735q0 172 39.5 308.5t119 236t206 152.5t292.5 53q131 0 228 -23h868v-254h-563v-321h526v-254h-526v-377h563v-256h-873q-118 -20 -225 -20q-165 0 -291 53.5t-205.5 153.5t-119 237.5t-39.5 310.5zM438 733q0 -235 83.5 -364t252.5 -129q145 0 225 39v907
q-74 41 -223 41q-169 0 -253.5 -129.5t-84.5 -364.5z" />
    <glyph glyph-name="oe" unicode="&#x153;" horiz-adv-x="2002" 
d="M1399 1139q240 0 378 -133t138 -375v-148h-746q6 -130 82 -203t207 -73q201 0 393 88v-236q-88 -42 -181 -60.5t-224 -18.5q-274 0 -420 155q-143 -155 -391 -155q-244 0 -393.5 153.5t-149.5 427.5q0 277 142 427.5t399 150.5q115 0 215 -40t168 -116q144 156 383 156z
M1405 922q-97 0 -157 -59t-70 -177h450q-2 105 -58.5 170.5t-164.5 65.5zM633 893q-120 0 -175 -82t-55 -250q0 -169 55.5 -252.5t176.5 -83.5q119 0 174 83.5t55 252.5t-55 250.5t-176 81.5z" />
    <glyph glyph-name="Racute" unicode="&#x154;" horiz-adv-x="1351" 
d="M184 0v1462h426q298 0 441 -108t143 -330q0 -140 -75.5 -235.5t-196.5 -151.5l430 -637h-344l-349 561h-165v-561h-310zM588 1208h-94v-395h100q151 0 219 50.5t68 152.5q0 103 -70.5 147.5t-222.5 44.5zM711 1585h-203v27q161 194 235 301h342v-21q-56 -56 -177 -155.5
t-197 -151.5z" />
    <glyph glyph-name="racute" unicode="&#x155;" horiz-adv-x="929" 
d="M784 1139q66 0 103 -9l-23 -286q-38 10 -90 10q-62 0 -115.5 -15.5t-98 -47.5t-70 -89t-25.5 -133v-569h-305v1118h231l45 -188h15q53 92 139.5 150.5t193.5 58.5zM571 1569h342v-21q-56 -56 -177 -155.5t-197 -151.5h-203v27q161 194 235 301z" />
    <glyph glyph-name="uni0156" unicode="&#x156;" horiz-adv-x="1351" 
d="M184 0v1462h426q298 0 441 -108t143 -330q0 -140 -75.5 -235.5t-196.5 -151.5l430 -637h-344l-349 561h-165v-561h-310zM494 813h100q151 0 219 50.5t68 152.5q0 103 -70.5 147.5t-222.5 44.5h-94v-395zM561 -426q46 160 62 301h282v-20q-83 -183 -166 -308h-178v27z" />
    <glyph glyph-name="uni0157" unicode="&#x157;" horiz-adv-x="929" 
d="M784 1139q66 0 103 -9l-23 -286q-38 10 -90 10q-62 0 -115.5 -15.5t-98 -47.5t-70 -89t-25.5 -133v-569h-305v1118h231l45 -188h15q53 92 139.5 150.5t193.5 58.5zM209 -125h283v-20q-83 -183 -166 -308h-179v27q46 171 62 301z" />
    <glyph glyph-name="Rcaron" unicode="&#x158;" horiz-adv-x="1351" 
d="M494 0h-310v1462h426q298 0 441 -108t143 -330q0 -140 -75.5 -235.5t-196.5 -151.5l430 -637h-344l-349 561h-165v-561zM518 1585q-59 93 -256 301v27h203q138 -82 229 -176q74 80 234 176h202v-27q-66 -66 -142.5 -153.5t-113.5 -147.5h-356zM588 1208h-94v-395h100
q151 0 219 50.5t68 152.5q0 103 -70.5 147.5t-222.5 44.5z" />
    <glyph glyph-name="rcaron" unicode="&#x159;" horiz-adv-x="929" 
d="M160 0v1118h231l45 -188h15q53 92 139.5 150.5t193.5 58.5q66 0 103 -9l-23 -286q-38 10 -90 10q-62 0 -115.5 -15.5t-98 -47.5t-70 -89t-25.5 -133v-569h-305zM90 1542v27h203q138 -82 229 -176q74 80 234 176h202v-27q-66 -66 -142.5 -153.5t-113.5 -147.5h-356
q-59 93 -256 301z" />
    <glyph glyph-name="Sacute" unicode="&#x15a;" horiz-adv-x="1128" 
d="M1047 406q0 -197 -142 -311.5t-397 -114.5q-234 0 -414 88v288q87 -37 145.5 -59t141 -41.5t151.5 -19.5q211 0 211 155q0 38 -17.5 68.5t-56 58t-77.5 48.5t-103 51q-20 9 -30 14q-37 17 -62.5 30t-65 37t-67 47.5t-58.5 58t-50 72t-32 87t-13 104.5q0 195 132.5 305.5
t362.5 110.5q110 0 210.5 -25t223.5 -78l-100 -241q-108 45 -186 65.5t-158 20.5q-86 0 -134 -40.5t-48 -107.5q0 -77 69 -123q69 -45 207 -110q72 -34 123.5 -64.5t98 -69.5t74.5 -81.5t44.5 -98.5t16.5 -124zM633 1913h342v-21q-56 -56 -177.5 -155.5t-197.5 -151.5h-203
v27q167 201 236 301z" />
    <glyph glyph-name="sacute" unicode="&#x15b;" horiz-adv-x="1017" 
d="M940 332q0 -172 -120.5 -262t-356.5 -90q-117 0 -200.5 15t-168.5 50v252q92 -42 196 -68t183 -26q166 0 166 96q0 31 -15 52t-67 50t-160 74q-85 36 -137.5 66.5t-93 71.5t-57.5 92t-17 122q0 152 118.5 232t324.5 80q207 0 393 -88l-92 -220q-190 82 -306 82
q-135 0 -135 -73q0 -41 42 -69.5t192 -90.5q81 -33 131.5 -60.5t95 -67.5t64.5 -93.5t20 -126.5zM561 1569h342v-21q-56 -56 -177.5 -155.5t-197.5 -151.5h-202v27q161 194 235 301z" />
    <glyph glyph-name="Scircumflex" unicode="&#x15c;" horiz-adv-x="1128" 
d="M508 -20q-234 0 -414 88v288q87 -37 145.5 -59t141 -41.5t151.5 -19.5q211 0 211 155q0 38 -17.5 68.5t-56 58t-77.5 48.5t-103 51q-20 9 -30 14q-37 17 -62.5 30t-65 37t-67 47.5t-58.5 58t-50 72t-32 87t-13 104.5q0 195 132.5 305.5t362.5 110.5q110 0 210.5 -25
t223.5 -78l-100 -241q-108 45 -186 65.5t-158 20.5q-86 0 -134 -40.5t-48 -107.5q0 -37 15.5 -65.5t49 -53t78.5 -48.5t111 -56q15 -6 22 -10q72 -34 123.5 -64.5t98 -69.5t74.5 -81.5t44.5 -98.5t16.5 -124q0 -197 -142 -311.5t-397 -114.5zM352 1585h-202v27
q197 208 256 301h356q37 -60 113.5 -147.5t142.5 -153.5v-27h-203q-158 94 -233 176q-90 -92 -230 -176z" />
    <glyph glyph-name="scircumflex" unicode="&#x15d;" horiz-adv-x="1017" 
d="M397 475q-85 36 -137.5 66.5t-93 71.5t-57.5 92t-17 122q0 152 118.5 232t324.5 80q207 0 393 -88l-92 -220q-190 82 -306 82q-135 0 -135 -73q0 -41 42 -69.5t192 -90.5q81 -33 131.5 -60.5t95 -67.5t64.5 -93.5t20 -126.5q0 -172 -120.5 -262t-356.5 -90
q-117 0 -200.5 15t-168.5 50v252q92 -42 196 -68t183 -26q166 0 166 96q0 31 -15 52t-67 50t-160 74zM78 1241v27q197 208 256 301h356q37 -60 113.5 -147.5t142.5 -153.5v-27h-203q-158 94 -233 176q-91 -94 -229 -176h-203z" />
    <glyph glyph-name="Scedilla" unicode="&#x15e;" horiz-adv-x="1128" 
d="M94 356q87 -37 145.5 -59t141 -41.5t151.5 -19.5q211 0 211 155q0 38 -17.5 68.5t-56 58t-77.5 48.5t-103 51q-20 9 -30 14q-37 17 -62.5 30t-65 37t-67 47.5t-58.5 58t-50 72t-32 87t-13 104.5q0 195 132.5 305.5t362.5 110.5q110 0 210.5 -25t223.5 -78l-100 -241
q-108 45 -186 65.5t-158 20.5q-86 0 -134 -40.5t-48 -107.5q0 -37 15.5 -65.5t49 -53t78.5 -48.5t111 -56q15 -6 22 -10q72 -34 123.5 -64.5t98 -69.5t74.5 -81.5t44.5 -98.5t16.5 -124q0 -168 -104.5 -277.5t-295.5 -138.5l-22 -51q69 -23 115 -71t46 -118
q0 -121 -71 -181.5t-238 -60.5q-63 0 -145 21v168q82 -21 143 -21q72 0 72 62q0 84 -166 108l68 136q-198 9 -355 86v288z" />
    <glyph glyph-name="scedilla" unicode="&#x15f;" horiz-adv-x="1017" 
d="M92 827q0 152 118.5 232t324.5 80q207 0 393 -88l-92 -220q-190 82 -306 82q-135 0 -135 -73q0 -41 42 -69.5t192 -90.5q81 -33 131.5 -60.5t95 -67.5t64.5 -93.5t20 -126.5q0 -289 -332 -342l-22 -51q69 -23 115.5 -71t46.5 -118q0 -121 -71.5 -181.5t-238.5 -60.5
q-63 0 -145 21v168q82 -21 143 -21q72 0 72 62q0 84 -166 108l68 134q-174 5 -316 65v252q92 -42 196 -68t183 -26q166 0 166 96q0 31 -15 52t-67 50t-160 74q-85 36 -137.5 66.5t-93 71.5t-57.5 92t-17 122z" />
    <glyph glyph-name="Scaron" unicode="&#x160;" horiz-adv-x="1128" 
d="M94 68v288q87 -37 145.5 -59t141 -41.5t151.5 -19.5q211 0 211 155q0 38 -17.5 68.5t-56 58t-77.5 48.5t-103 51q-20 9 -30 14q-37 17 -62.5 30t-65 37t-67 47.5t-58.5 58t-50 72t-32 87t-13 104.5q0 195 132.5 305.5t362.5 110.5q110 0 210.5 -25t223.5 -78l-100 -241
q-108 45 -186 65.5t-158 20.5q-86 0 -134 -40.5t-48 -107.5q0 -37 15.5 -65.5t49 -53t78.5 -48.5t111 -56q15 -6 22 -10q72 -34 123.5 -64.5t98 -69.5t74.5 -81.5t44.5 -98.5t16.5 -124q0 -197 -142 -311.5t-397 -114.5q-234 0 -414 88zM408 1585q-59 93 -256 301v27h202
q140 -84 230 -176q75 82 233 176h203v-27q-66 -66 -142.5 -153.5t-113.5 -147.5h-356z" />
    <glyph glyph-name="scaron" unicode="&#x161;" horiz-adv-x="1017" 
d="M92 827q0 152 118.5 232t324.5 80q207 0 393 -88l-92 -220q-190 82 -306 82q-135 0 -135 -73q0 -41 42 -69.5t192 -90.5q81 -33 131.5 -60.5t95 -67.5t64.5 -93.5t20 -126.5q0 -172 -120.5 -262t-356.5 -90q-117 0 -200.5 15t-168.5 50v252q92 -42 196 -68t183 -26
q166 0 166 96q0 31 -15 52t-67 50t-160 74q-85 36 -137.5 66.5t-93 71.5t-57.5 92t-17 122zM336 1241q-59 93 -256 301v27h203q138 -82 229 -176q75 82 233 176h203v-27q-66 -66 -142.5 -153.5t-113.5 -147.5h-356z" />
    <glyph glyph-name="uni0162" unicode="&#x162;" horiz-adv-x="1185" 
d="M41 1204v258h1104v-258h-397v-1204h-52l-26 -61q69 -23 115 -71t46 -118q0 -121 -71 -181.5t-238 -60.5q-63 0 -145 21v168q82 -21 143 -21q72 0 72 62q0 84 -166 108l78 154h-66v1204h-397z" />
    <glyph glyph-name="uni0163" unicode="&#x163;" horiz-adv-x="888" 
d="M47 1018l168 102l88 236h195v-238h313v-229h-313v-539q0 -62 36 -94.5t97 -32.5q96 0 192 35v-227q-91 -43 -235 -49l-19 -43q69 -23 115.5 -71t46.5 -118q0 -121 -71 -181.5t-238 -60.5q-64 0 -146 21v168q82 -21 144 -21q72 0 72 62q0 84 -166 108l75 152
q-208 62 -208 352v539h-146v129z" />
    <glyph glyph-name="Tcaron" unicode="&#x164;" horiz-adv-x="1185" 
d="M41 1462h1104v-258h-397v-1204h-310v1204h-397v258zM164 1913h203q138 -82 229 -176q75 82 233 176h203v-27q-66 -66 -142.5 -153.5t-113.5 -147.5h-356q-59 93 -256 301v27z" />
    <glyph glyph-name="tcaron" unicode="&#x165;" horiz-adv-x="888" 
d="M47 1018l168 102l88 236h195v-238h313v-229h-313v-539q0 -62 36 -94.5t97 -32.5q96 0 192 35v-227q-109 -51 -280 -51q-79 0 -139.5 17.5t-109.5 58.5t-75 115t-26 179v539h-146v129zM1001 1229h-178v26q46 160 62 301h282v-20q-82 -179 -166 -307z" />
    <glyph glyph-name="Tbar" unicode="&#x166;" horiz-adv-x="1185" 
d="M438 1204h-397v258h1104v-258h-397v-354h247v-254h-247v-596h-310v596h-248v254h248v354z" />
    <glyph glyph-name="tbar" unicode="&#x167;" horiz-adv-x="888" 
d="M47 889v129l168 102l88 236h195v-238h313v-229h-313v-193h278v-198h-278v-148q0 -62 36 -94.5t97 -32.5q96 0 192 35v-227q-109 -51 -280 -51q-79 0 -139.5 17.5t-109.5 58.5t-75 115t-26 179v148h-127v198h127v193h-146z" />
    <glyph glyph-name="Utilde" unicode="&#x168;" horiz-adv-x="1548" 
d="M174 520v942h309v-895q0 -178 71 -252.5t222 -74.5q152 0 220.5 79t68.5 250v893h309v-946q0 -115 -38 -212t-111.5 -169.5t-190.5 -113.5t-266 -41q-285 0 -439.5 145.5t-154.5 394.5zM358 1583q11 153 86 231t187 78q46 0 102.5 -26t110.5 -52t94 -26q33 0 61 27.5
t39 78.5h150q-11 -152 -87 -230.5t-186 -78.5q-46 0 -102.5 26.5t-110.5 52.5t-94 26q-33 0 -61 -27.5t-39 -79.5h-150z" />
    <glyph glyph-name="utilde" unicode="&#x169;" horiz-adv-x="1345" 
d="M154 1118h305v-653q0 -123 43.5 -182.5t136.5 -59.5q134 0 188 90.5t54 278.5v526h305v-1118h-234l-41 143h-16q-52 -83 -143 -123t-201 -40q-187 0 -292 100.5t-105 308.5v729zM408 1239h-150q12 153 86 231t186 78q46 0 103 -26t111 -52t94 -26q33 0 61 27.5t39 78.5
h149q-11 -152 -86.5 -230.5t-185.5 -78.5q-46 0 -102.5 26.5t-110.5 52.5t-94 26q-33 0 -61 -27.5t-39 -79.5z" />
    <glyph glyph-name="Umacron" unicode="&#x16a;" horiz-adv-x="1548" 
d="M174 1462h309v-895q0 -178 71 -252.5t222 -74.5q152 0 220.5 79t68.5 250v893h309v-946q0 -115 -38 -212t-111.5 -169.5t-190.5 -113.5t-266 -41q-285 0 -439.5 145.5t-154.5 394.5v942zM436 1585v211h678v-211h-678z" />
    <glyph glyph-name="umacron" unicode="&#x16b;" horiz-adv-x="1345" 
d="M154 1118h305v-653q0 -123 43.5 -182.5t136.5 -59.5q134 0 188 90.5t54 278.5v526h305v-1118h-234l-41 143h-16q-52 -83 -143 -123t-201 -40q-187 0 -292 100.5t-105 308.5v729zM336 1241v211h678v-211h-678z" />
    <glyph glyph-name="Ubreve" unicode="&#x16c;" horiz-adv-x="1548" 
d="M174 1462h309v-895q0 -178 71 -252.5t222 -74.5q152 0 220.5 79t68.5 250v893h309v-946q0 -115 -38 -212t-111.5 -169.5t-190.5 -113.5t-266 -41q-285 0 -439.5 145.5t-154.5 394.5v942zM387 1923h170q4 -34 17 -57.5t31 -36.5t48 -20t57 -9t68 -2q207 0 221 125h175
q-11 -150 -120 -244t-278 -94q-175 0 -278 91.5t-111 246.5z" />
    <glyph glyph-name="ubreve" unicode="&#x16d;" horiz-adv-x="1345" 
d="M551 -20q-187 0 -292 100.5t-105 308.5v729h305v-653q0 -123 43.5 -182.5t136.5 -59.5q134 0 188 90.5t54 278.5v526h305v-1118h-234l-41 143h-16q-52 -83 -143 -123t-201 -40zM287 1579h170q4 -34 17 -57.5t31 -36.5t48 -20t57 -9t68 -2q207 0 221 125h174
q-11 -150 -119.5 -244t-277.5 -94q-175 0 -278 91.5t-111 246.5z" />
    <glyph glyph-name="Uring" unicode="&#x16e;" horiz-adv-x="1548" 
d="M174 520v942h309v-895q0 -178 71 -252.5t222 -74.5q152 0 220.5 79t68.5 250v893h309v-946q0 -115 -38 -212t-111.5 -169.5t-190.5 -113.5t-266 -41q-285 0 -439.5 145.5t-154.5 394.5zM528 1821q0 109 68.5 173t179.5 64q109 0 181.5 -64.5t72.5 -170.5
q0 -110 -71.5 -175t-182.5 -65t-179.5 64.5t-68.5 173.5zM680 1821q0 -45 25 -71t71 -26q42 0 69 26.5t27 70.5t-27 70t-69 26t-69 -26t-27 -70z" />
    <glyph glyph-name="uring" unicode="&#x16f;" horiz-adv-x="1345" 
d="M154 1118h305v-653q0 -123 43.5 -182.5t136.5 -59.5q134 0 188 90.5t54 278.5v526h305v-1118h-234l-41 143h-16q-52 -83 -143 -123t-201 -40q-187 0 -292 100.5t-105 308.5v729zM676 1239q-111 0 -179.5 64.5t-68.5 173.5t68.5 173t179.5 64q109 0 181.5 -64.5
t72.5 -170.5q0 -110 -71.5 -175t-182.5 -65zM676 1573q-42 0 -69 -26t-27 -70q0 -45 25 -71t71 -26q42 0 69 26.5t27 70.5t-27 70t-69 26z" />
    <glyph glyph-name="Uhungarumlaut" unicode="&#x170;" horiz-adv-x="1548" 
d="M1065 1462h309v-946q0 -115 -38 -212t-111.5 -169.5t-190.5 -113.5t-266 -41q-293 0 -442 149q-152 149 -152 391v942h309v-895q0 -178 71 -252.5t222 -74.5q152 0 220.5 79t68.5 250v893zM1073 1913h301v-21q-48 -81 -334 -307h-161v27q144 200 194 301zM676 1913h301
v-21q-48 -81 -334 -307h-162v27q131 181 195 301z" />
    <glyph glyph-name="uhungarumlaut" unicode="&#x171;" horiz-adv-x="1345" 
d="M154 389v729h305v-653q0 -123 43.5 -182.5t136.5 -59.5q134 0 188 90.5t54 278.5v526h305v-1118h-234l-41 143h-16q-52 -83 -143 -123t-201 -40q-187 0 -292 100.5t-105 308.5zM543 1241h-162v27q127 175 194 301h302v-21q-48 -81 -334 -307zM778 1241v27
q148 204 195 301h301v-21q-48 -81 -334 -307h-162z" />
    <glyph glyph-name="Uogonek" unicode="&#x172;" horiz-adv-x="1548" 
d="M174 520v942h309v-895q0 -178 71 -252.5t222 -74.5q152 0 220.5 79t68.5 250v893h309v-946q0 -133 -50 -242t-148 -180q-183 -174 -183 -299q0 -52 23.5 -78t60.5 -26q50 0 111 18v-178q-71 -23 -156 -23q-115 0 -182.5 65.5t-67.5 178.5q0 123 99 234q-53 -6 -113 -6
q-285 0 -439.5 145.5t-154.5 394.5z" />
    <glyph glyph-name="uogonek" unicode="&#x173;" horiz-adv-x="1345" 
d="M154 1118h305v-653q0 -123 43.5 -182.5t136.5 -59.5q134 0 188 90.5t54 278.5v526h305v-1118h-66q-74 -71 -110.5 -125t-36.5 -102q0 -40 21.5 -61t58.5 -21q53 0 114 18v-178q-71 -23 -155 -23q-115 0 -182.5 63t-67.5 167q0 78 51 149t135 125l-37 131h-16
q-52 -83 -143 -123t-201 -40q-187 0 -292 100.5t-105 308.5v729z" />
    <glyph glyph-name="Wcircumflex" unicode="&#x174;" horiz-adv-x="1980" 
d="M0 1462h305l187 -798q17 -63 39 -183t32 -200q9 75 31 192.5t37 169.5l213 819h293l213 -819q14 -53 36 -172.5t31 -189.5q11 91 72 383l186 798h305l-372 -1462h-353l-198 768q-17 67 -41 181t-27 161q-4 -50 -27.5 -166t-39.5 -178l-197 -766h-352zM762 1585h-203v27
q197 208 256 301h356q37 -60 113.5 -147.5t142.5 -153.5v-27h-202q-160 96 -234 176q-91 -94 -229 -176z" />
    <glyph glyph-name="wcircumflex" unicode="&#x175;" horiz-adv-x="1753" 
d="M338 0l-318 1118h304l129 -495q12 -45 24 -116.5t23 -152.5t14 -98h8q4 53 23 172t28 154l138 536h336l131 -536q11 -50 28.5 -163t20.5 -163h8q27 224 65 367l134 495h299l-322 -1118h-332l-86 391q-2 11 -53.5 229.5t-60.5 264.5h-9q-8 -40 -56 -246.5t-58 -251.5
l-90 -387h-328zM444 1268q197 208 256 301h357q37 -60 113.5 -147.5t142.5 -153.5v-27h-203q-158 94 -233 176q-90 -92 -230 -176h-203v27z" />
    <glyph glyph-name="Ycircumflex" unicode="&#x176;" horiz-adv-x="1277" 
d="M485 559l-485 903h336l303 -602l305 602h334l-485 -893v-569h-308v559zM410 1585h-203v27q197 208 256 301h356q37 -60 113.5 -147.5t142.5 -153.5v-27h-203q-158 94 -233 176q-91 -94 -229 -176z" />
    <glyph glyph-name="ycircumflex" unicode="&#x177;" horiz-adv-x="1165" 
d="M444 8l-444 1110h334l211 -629q27 -74 37 -194h6q12 110 43 194l207 629h327l-473 -1261q-65 -172 -185.5 -260.5t-281.5 -88.5q-72 0 -155 17v242q58 -13 120 -13q165 0 236 199zM152 1241v27q197 208 256 301h356q37 -60 113.5 -147.5t142.5 -153.5v-27h-203
q-158 94 -233 176q-90 -92 -230 -176h-202z" />
    <glyph glyph-name="Ydieresis" unicode="&#x178;" horiz-adv-x="1277" 
d="M0 1462h336l303 -602l305 602h334l-485 -893v-569h-308v559zM840 1884q61 0 101 -34.5t40 -100.5q0 -64 -40 -98.5t-101 -34.5q-63 0 -102.5 34t-39.5 99q0 66 39.5 100.5t102.5 34.5zM295 1749q0 66 39 100.5t100 34.5t101 -34.5t40 -100.5q0 -64 -40 -98.5t-101 -34.5
q-60 0 -99.5 34t-39.5 99z" />
    <glyph glyph-name="Zacute" unicode="&#x179;" horiz-adv-x="1185" 
d="M1137 256v-256h-1088v201l701 1005h-682v256h1050v-200l-700 -1006h719zM655 1913h342v-21q-56 -56 -177 -155.5t-197 -151.5h-203v27q161 194 235 301z" />
    <glyph glyph-name="zacute" unicode="&#x17a;" horiz-adv-x="999" 
d="M938 233v-233h-883v180l518 705h-487v233h834v-198l-504 -687h522zM551 1569h342v-21q-56 -56 -177.5 -155.5t-197.5 -151.5h-203v27q167 201 236 301z" />
    <glyph glyph-name="Zdotaccent" unicode="&#x17b;" horiz-adv-x="1185" 
d="M1137 256v-256h-1088v201l701 1005h-682v256h1050v-200l-700 -1006h719zM608 1901q-166 0 -166 -150q0 -149 166 -149t166 149q0 150 -166 150z" />
    <glyph glyph-name="zdotaccent" unicode="&#x17c;" horiz-adv-x="999" 
d="M938 233v-233h-883v180l518 705h-487v233h834v-198l-504 -687h522zM504 1556q166 0 166 -149q0 -79 -45.5 -114.5t-120.5 -35.5q-166 0 -166 150q0 149 166 149z" />
    <glyph glyph-name="Zcaron" unicode="&#x17d;" horiz-adv-x="1185" 
d="M49 0v201l701 1005h-682v256h1050v-200l-700 -1006h719v-256h-1088zM174 1886v27h203q138 -82 229 -176q74 80 234 176h202v-27q-66 -66 -142.5 -153.5t-113.5 -147.5h-356q-59 93 -256 301z" />
    <glyph glyph-name="zcaron" unicode="&#x17e;" horiz-adv-x="999" 
d="M938 0h-883v180l518 705h-487v233h834v-198l-504 -687h522v-233zM70 1569h202q140 -84 230 -176q75 82 233 176h203v-27q-66 -66 -142.5 -153.5t-113.5 -147.5h-356q-59 93 -256 301v27z" />
    <glyph glyph-name="longs" unicode="&#x17f;" horiz-adv-x="784" 
d="M592 1325q-127 0 -127 -137v-1188h-305v1200q0 105 27 177.5t80.5 113.5t122.5 58.5t163 17.5q167 0 278 -47l-71 -224q-97 29 -168 29z" />
    <glyph glyph-name="uni0180" unicode="&#x180;" horiz-adv-x="1296" 
d="M160 1196h-156v199h156v161h305v-161h315v-199h-315v-29q0 -104 -12 -215h12q106 166 317 166q198 0 310 -135t112 -422q0 -281 -116.5 -431t-313.5 -150q-112 0 -184.5 39t-124.5 104h-21l-51 -123h-233v1196zM684 874q-213 0 -219 -299v-12q0 -170 50.5 -253t172.5 -83
q95 0 150 88t55 250q0 309 -209 309z" />
    <glyph glyph-name="uni0181" unicode="&#x181;" horiz-adv-x="1626" 
d="M37 995q-25 57 -25 119q0 58 12 108t40.5 94.5t71.5 76.5t108 50.5t147 18.5h500q303 0 446.5 -84.5t143.5 -285.5q0 -127 -59.5 -212.5t-166.5 -103.5v-10q59 -13 103 -35.5t82 -60.5t58 -100t20 -146q0 -197 -144.5 -310.5t-392.5 -113.5h-545v1208h-53
q-60 0 -92.5 -32t-32.5 -82q0 -39 21 -99h-242zM936 637h-193v-381h203q133 0 191.5 51.5t58.5 147.5q0 88 -60 135t-200 47zM907 1208h-164v-325h181q131 0 185 40.5t54 127.5q0 84 -60.5 120.5t-195.5 36.5z" />
    <glyph glyph-name="uni0182" unicode="&#x182;" horiz-adv-x="1306" 
d="M610 0h-426v1462h924v-256h-614v-305h122q299 0 448.5 -120.5t149.5 -323.5q0 -457 -604 -457zM573 647h-79v-393h104q148 0 225.5 47.5t77.5 155.5q0 110 -81 150t-247 40z" />
    <glyph glyph-name="uni0183" unicode="&#x183;" horiz-adv-x="1296" 
d="M160 0v1556h934v-229h-629v-153q0 -59 -4.5 -133t-7.5 -89h12q106 166 317 166q198 0 310 -135t112 -422q0 -281 -116.5 -431t-313.5 -150q-112 0 -184.5 39t-124.5 104h-21l-51 -123h-233zM465 575v-12q0 -170 50.5 -253t172.5 -83q95 0 150 88t55 250q0 309 -209 309
q-213 0 -219 -299z" />
    <glyph glyph-name="uni0184" unicode="&#x184;" horiz-adv-x="1353" 
d="M174 1462h309v-561h181q299 0 448.5 -122t149.5 -333q0 -220 -140 -343t-407 -123q-265 0 -403 108.5t-138 341.5v1032zM483 647v-201q0 -110 56.5 -161.5t167.5 -51.5q241 0 241 213q0 49 -15 84.5t-41 58t-68.5 35.5t-90 18t-112.5 5h-138z" />
    <glyph glyph-name="uni0185" unicode="&#x185;" horiz-adv-x="1298" 
d="M154 1556h305v-362q0 -110 -13 -221h13q106 166 325 166q191 0 306.5 -151.5t115.5 -428.5q0 -143 -39 -254t-109 -181.5t-164.5 -107t-207.5 -36.5q-255 0 -393.5 146.5t-138.5 420.5v1009zM459 596v-53q0 -167 55 -242.5t166 -75.5q107 0 161 80t54 254
q0 167 -55 251.5t-154 84.5q-119 0 -173 -74.5t-54 -224.5z" />
    <glyph glyph-name="uni0186" unicode="&#x186;" horiz-adv-x="1304" 
d="M506 -20q-114 0 -204.5 18t-186.5 57v260q218 -77 362 -77q190 0 289.5 129t99.5 366q0 230 -99 361t-278 131q-80 0 -154 -25.5t-163 -71.5l-100 252q204 103 450 103q161 0 288 -54t209 -153t124.5 -235t42.5 -302q0 -172 -42.5 -310.5t-125.5 -239t-213.5 -155
t-298.5 -54.5z" />
    <glyph glyph-name="uni0187" unicode="&#x187;" horiz-adv-x="1304" 
d="M1303 1800q65 0 143 -31v-233q-57 20 -113 20q-100 0 -100 -114v-82l-100 -232q-207 97 -328 97q-177 0 -272 -132t-95 -366q0 -489 367 -489q155 0 373 77v-260q-190 -75 -402 -75q-134 0 -242.5 34.5t-185.5 99t-128.5 157t-76 207t-24.5 251.5q0 166 46 304.5
t131.5 238.5t216 155.5t292.5 55.5q85 0 182 -23v21q0 164 92 241q93 78 224 78z" />
    <glyph glyph-name="uni0188" unicode="&#x188;" horiz-adv-x="1052" 
d="M614 -20q-522 0 -522 573q0 151 40 264t113.5 183t172.5 104.5t223 34.5q53 0 102 -9v84q0 181 84.5 267t233.5 86q63 0 141 -31v-233q-58 20 -112 20q-101 0 -101 -115v-155l-90 -226q-162 66 -258 66q-238 0 -238 -338q0 -164 61.5 -246t176.5 -82q162 0 313 97v-261
q-70 -45 -147 -64t-193 -19z" />
    <glyph glyph-name="uni0189" unicode="&#x189;" horiz-adv-x="1515" 
d="M47 850h137v612h459q349 0 551.5 -186.5t202.5 -530.5q0 -366 -208.5 -555.5t-590.5 -189.5h-414v596h-137v254zM494 1208v-358h237v-254h-237v-340h131q450 0 450 481q0 237 -108 354t-310 117h-163z" />
    <glyph glyph-name="uni018A" unicode="&#x18a;" horiz-adv-x="1765" 
d="M35 995q-25 57 -25 119q0 58 12 108t40.5 94.5t71.5 76.5t108 50.5t147 18.5h504q349 0 551.5 -186.5t202.5 -530.5q0 -366 -208.5 -555.5t-590.5 -189.5h-414v1208h-53q-63 0 -94 -31.5t-31 -82.5q0 -42 20 -99h-241zM743 256h134q448 0 448 481q0 471 -416 471h-166
v-952z" />
    <glyph glyph-name="uni018B" unicode="&#x18b;" horiz-adv-x="1306" 
d="M92 449q0 204 152.5 328t455.5 124h113v305h-614v256h923v-1462h-450q-300 0 -440 114t-140 335zM733 647q-165 0 -246 -41t-81 -151q0 -108 77 -154.5t226 -46.5h104v393h-80z" />
    <glyph glyph-name="uni018C" unicode="&#x18c;" horiz-adv-x="1296" 
d="M514 -20q-186 0 -303 147q-119 143 -119 430q0 273 119 416q121 145 311 145q217 0 322 -164h10l-3 23q-20 140 -20 201v149h-628v229h934v-1556h-234l-59 145h-13q-106 -165 -317 -165zM621 223q121 0 173.5 72.5t57.5 226.5v33q0 158 -53.5 236.5t-182.5 78.5
q-101 0 -158 -82.5t-57 -234.5q0 -162 57 -246t163 -84z" />
    <glyph glyph-name="uni018D" unicode="&#x18d;" horiz-adv-x="1267" 
d="M565 -449q-131 0 -236 27.5t-225 83.5l121 215q208 -100 353 -100q77 0 112 27.5t35 72.5q0 52 -65.5 104.5t-210.5 124.5q-183 93 -270 216t-87 284q0 275 150 404t397 129q238 0 387.5 -121.5t149.5 -337.5q0 -83 -20 -152.5t-54.5 -120t-85.5 -91t-107.5 -67.5
t-126.5 -48q91 -56 166 -144q72 -87 72 -198q0 -147 -122.5 -227.5t-332.5 -80.5zM604 326q45 12 87.5 36.5t82.5 64.5t64 102.5t24 138.5q0 99 -60.5 162t-164.5 63q-111 0 -172.5 -69t-61.5 -197q0 -191 201 -301z" />
    <glyph glyph-name="uni018E" unicode="&#x18e;" horiz-adv-x="1146" 
d="M121 256h532v377h-495v254h495v321h-532v254h842v-1462h-842v256z" />
    <glyph glyph-name="uni018F" unicode="&#x18f;" horiz-adv-x="1673" 
d="M819 1227q-169 0 -325.5 -51.5t-253.5 -110.5v268q116 69 250 110.5t331 41.5q351 0 542 -204t191 -552q0 -351 -181 -550t-515 -199q-184 0 -319 55t-216.5 159.5t-120 245t-38.5 322.5v72h1067q-12 188 -115.5 290.5t-296.5 102.5zM858 238q160 0 258.5 88.5
t110.5 248.5h-742q0 -159 82 -247q84 -90 291 -90z" />
    <glyph glyph-name="uni0190" unicode="&#x190;" horiz-adv-x="1327" 
d="M678 1483q170 0 301 -40t254 -120l-135 -207q-190 119 -398 119q-128 0 -197 -44t-69 -120q0 -62 38 -102t138.5 -64t268.5 -24h122v-242h-137q-469 0 -469 -201q0 -215 369 -215q108 0 237.5 26t219.5 70v-260q-194 -79 -525 -79q-295 0 -451.5 117t-156.5 317
q0 151 108.5 242t305.5 108v6q-155 20 -264 100q-105 77 -105 230q0 175 148.5 279t396.5 104z" />
    <glyph glyph-name="uni0191" unicode="&#x191;" horiz-adv-x="1124" 
d="M127 -492q-104 0 -164 31v234q60 -21 113 -21q49 0 78.5 31.5t29.5 91.5v1587h838v-254h-533v-377h496v-253h-496v-709q0 -184 -94.5 -272.5t-267.5 -88.5z" />
    <glyph glyph-name="florin" unicode="&#x192;" horiz-adv-x="1171" 
d="M381 -492q-107 0 -184 25v240q56 -19 118 -19q125 0 125 170v881h-168v147l168 82v82q0 104 25.5 176.5t75.5 113.5t115 59t153 18q155 0 262 -47l-72 -224q-85 29 -145 29q-109 0 -109 -137v-70h228v-229h-228v-926q0 -79 -20.5 -144.5t-62.5 -117.5t-114 -80.5
t-167 -28.5z" />
    <glyph glyph-name="uni0193" unicode="&#x193;" horiz-adv-x="1482" 
d="M799 -20q-329 0 -504.5 193t-175.5 560q0 348 199.5 549t564.5 201q93 0 190 -19v19q0 156 89 236.5t227 80.5q65 0 143 -31v-233q-58 20 -113 20q-100 0 -100 -114v-68l-105 -229q-153 80 -333 80q-202 0 -322.5 -136t-120.5 -362q0 -227 93.5 -358t287.5 -131
q87 0 197 20v305h-277v258h580v-758q-251 -83 -520 -83z" />
    <glyph glyph-name="uni0194" unicode="&#x194;" horiz-adv-x="1331" 
d="M500 256l-500 1206h319l248 -637q57 -169 86 -284q22 103 97 282l262 639h319l-526 -1210q141 -289 141 -451q0 -129 -78 -211t-215 -82q-138 0 -213 80.5t-75 214.5q0 94 33 196.5t102 256.5zM655 51q-34 -62 -51.5 -130.5t-17.5 -115.5q0 -114 69 -114q70 0 70 110
q0 46 -18.5 115.5t-51.5 134.5z" />
    <glyph glyph-name="uni0195" unicode="&#x195;" horiz-adv-x="2021" 
d="M160 1556h305v-315q0 -112 -14 -266h16q108 164 317 164q180 0 283.5 -104t103.5 -316v-232q0 -135 47.5 -198.5t147.5 -63.5q101 0 149 69t48 222v602h305v-629q0 -509 -502 -509q-260 0 -380 107.5t-120 354.5v211q0 242 -172 242q-123 0 -176 -91.5t-53 -277.5v-526
h-305v1556z" />
    <glyph glyph-name="uni0196" unicode="&#x196;" horiz-adv-x="825" 
d="M541 -20q-367 0 -367 382v1100h324v-1073q0 -71 36 -110t97 -39q90 0 174 34v-243q-104 -51 -264 -51z" />
    <glyph glyph-name="uni0197" unicode="&#x197;" horiz-adv-x="796" 
d="M55 604v254h189v346l-178 82v176h665v-176l-178 -82v-346h188v-254h-188v-346l178 -82v-176h-665v176l178 82v346h-189z" />
    <glyph glyph-name="uni0198" unicode="&#x198;" horiz-adv-x="1359" 
d="M494 0h-310v1462h310v-674q78 114 131 187l166 221q42 57 73 94.5t71 78t76 63.5t81.5 38t93.5 15q84 0 153 -31v-244q-55 19 -98 19q-80 0 -151 -88l-246 -326l516 -815h-352l-383 616l-131 -94v-522z" />
    <glyph glyph-name="uni0199" unicode="&#x199;" horiz-adv-x="1269" 
d="M465 0h-305v1219q0 181 95 266.5t263 85.5q64 0 160 -31v-233q-58 20 -113 20q-100 0 -100 -115v-352q0 -88 -16 -252h4q45 67 133 170l313 340h344l-444 -485l471 -633h-352l-322 453l-131 -105v-348z" />
    <glyph glyph-name="uni019A" unicode="&#x19a;" horiz-adv-x="675" 
d="M20 860h164v696h305v-696h166v-229h-166v-631h-305v631h-164v229z" />
    <glyph glyph-name="uni019B" unicode="&#x19b;" horiz-adv-x="1259" 
d="M324 0h-316l473 1057l-22 57l-205 -61l-51 168l170 51q-51 41 -150 41q-43 0 -102 -13v252q74 17 166 17q141 0 229 -51.5t148 -155.5l190 59l51 -170l-170 -51l277 -762q47 -128 86 -164q38 -38 82 -38q24 0 69 10v-236q-27 -13 -80 -22q-52 -8 -96 -8q-117 0 -184 57.5
t-107 169.5l-96 272q-55 157 -74 236h-6q-64 -202 -76 -230z" />
    <glyph glyph-name="uni019C" unicode="&#x19c;" horiz-adv-x="2119" 
d="M174 397v1065h309v-977q0 -245 179 -245q125 0 181 85t56 255v882h309v-977q0 -245 178 -245q130 0 184 92.5t54 281.5v848h311v-1462h-233l-43 156h-19q-50 -86 -141 -131t-203 -45q-236 0 -342 184h-14q-113 -184 -350 -184q-197 0 -306.5 102t-109.5 315z" />
    <glyph glyph-name="uni019D" unicode="&#x19d;" horiz-adv-x="1665" 
d="M113 -492q-90 0 -150 31v234q60 -21 113 -21q49 0 78.5 31.5t29.5 91.5v1587h391l635 -1095h7l-1 15q-1 16 -2 42.5t-2.5 60t-3.5 72t-3 75.5l-2 74t-1 64v692h279v-1462h-394l-636 1106h-9l2 -30q2 -31 5 -78.5t5.5 -101t4.5 -111t2 -97.5v-819q0 -182 -93 -271.5
t-255 -89.5z" />
    <glyph glyph-name="uni019E" unicode="&#x19e;" horiz-adv-x="1345" 
d="M795 1139q187 0 292 -101t105 -309v-1221h-305v1145q0 123 -43.5 182.5t-136.5 59.5q-134 0 -188 -90.5t-54 -278.5v-526h-305v1118h233l41 -143h17q52 83 143 123.5t201 40.5z" />
    <glyph glyph-name="uni019F" unicode="&#x19f;" horiz-adv-x="1630" 
d="M1511 733q0 -172 -42 -309t-126.5 -237t-218 -153.5t-309.5 -53.5t-309.5 53.5t-218 153.5t-126.5 237.5t-42 310.5q0 172 42 308.5t126.5 236t218.5 152.5t311 53q175 0 308.5 -53t217.5 -152.5t126 -236.5t42 -310zM817 1227q-315 0 -371 -348h736q-25 168 -116 258
t-249 90zM815 240q168 0 260 98.5t111 282.5h-744q21 -184 113.5 -282.5t259.5 -98.5z" />
    <glyph glyph-name="Ohorn" unicode="&#x1a0;" horiz-adv-x="1689" 
d="M1511 733q0 -172 -42 -309t-126.5 -237t-218 -153.5t-309.5 -53.5t-309.5 53.5t-218 153.5t-126.5 237.5t-42 310.5q0 172 42.5 308.5t127 236t219 152.5t311.5 53q346 0 524 -203q44 31 68.5 103t24.5 171h301l14 -22q-36 -172 -105.5 -273.5t-195.5 -154.5
q61 -158 61 -373zM444 733q0 -237 91 -365t280 -128q371 0 371 493q0 494 -369 494q-191 0 -282 -128.5t-91 -365.5z" />
    <glyph glyph-name="ohorn" unicode="&#x1a1;" horiz-adv-x="1390" 
d="M1176 561q0 -278 -146 -430q-148 -151 -399 -151q-240 0 -389.5 154t-149.5 427q0 276 144.5 427t400.5 151q114 0 214.5 -35.5t168.5 -102.5q149 45 149 285h301l15 -22q-17 -84 -39 -143.5t-61.5 -117.5t-104.5 -98.5t-156 -64.5q52 -126 52 -279zM403 561
q0 -169 55.5 -252.5t176.5 -83.5q119 0 174 83.5t55 252.5t-55 250.5t-176 81.5q-120 0 -175 -82t-55 -250z" />
    <glyph glyph-name="uni01A2" unicode="&#x1a2;" horiz-adv-x="2316" 
d="M1470 733q0 -173 -41 -310.5t-122.5 -237t-211 -152.5t-300.5 -53q-338 0 -507 199.5t-169 555.5q0 172 41 308.5t123 236t212.5 152.5t301.5 53q317 0 489 -185q168 185 420 185q202 0 319 -119t117 -362v-1004h-309v979q0 248 -211 248q-141 0 -227 -90
q75 -166 75 -404zM444 733q0 -237 86 -365t265 -128q350 0 350 493q0 494 -348 494q-181 0 -267 -128.5t-86 -365.5z" />
    <glyph glyph-name="uni01A3" unicode="&#x1a3;" horiz-adv-x="1902" 
d="M1135 561q0 -279 -142 -430t-383 -151q-235 0 -376.5 150t-141.5 431q0 276 139 427t385 151q240 0 381 -160q127 160 355 160q187 0 292 -101t105 -309v-1221h-305v1145q0 123 -43.5 182.5t-136.5 59.5q-114 0 -174 -72q45 -123 45 -262zM403 561q0 -168 51 -252
t160 -84q107 0 158 84t51 252t-51 250t-160 82q-108 0 -158.5 -82t-50.5 -250z" />
    <glyph glyph-name="uni01A4" unicode="&#x1a4;" horiz-adv-x="1536" 
d="M10 1114q0 58 12 108t40.5 94.5t71.5 76.5t108 50.5t147 18.5h512q276 0 409.5 -118t133.5 -338q0 -80 -17.5 -149.5t-59.5 -132.5t-106 -107.5t-162 -70.5t-222 -26h-134v-520h-309v1208h-53q-63 0 -94 -31.5t-31 -82.5q0 -42 20 -99h-241q-25 57 -25 119zM885 1208
h-142v-434h103q284 0 284 221q0 213 -245 213z" />
    <glyph glyph-name="uni01A5" unicode="&#x1a5;" horiz-adv-x="1296" 
d="M160 1214q0 182 95 267.5t263 85.5q64 0 160 -31v-233q-58 20 -113 20q-100 0 -100 -113v-59q0 -46 -12 -178h12q103 166 317 166q194 0 308 -150t114 -428q0 -281 -114 -431t-308 -150q-209 0 -315 137h-12q10 -64 10 -162v-447h-305v1706zM465 596v-33
q0 -170 50.5 -253t172.5 -83q205 0 205 338q0 330 -209 330q-116 0 -166.5 -73t-52.5 -226z" />
    <glyph glyph-name="uni01A6" unicode="&#x1a6;" horiz-adv-x="1351" 
d="M184 1462h310v-205h116q298 0 441 -108t143 -330q0 -140 -75.5 -235.5t-196.5 -151.5l430 -637h-344l-349 561h-165v-356h-310v1462zM588 1004h-94v-396h100q151 0 219 50.5t68 152.5q0 103 -70.5 148t-222.5 45z" />
    <glyph glyph-name="uni01A7" unicode="&#x1a7;" horiz-adv-x="1128" 
d="M575 1483q217 0 341 -105t124 -299q0 -77 -21.5 -141t-53.5 -107.5t-84 -82.5t-97 -62.5t-110 -50.5q-125 -52 -205 -105t-80 -135q0 -76 54.5 -117.5t158.5 -41.5q197 0 430 94v-258q-195 -92 -448 -92q-246 0 -372 108.5t-126 306.5q0 160 89.5 265.5t266.5 181.5
q156 67 224 110q71 47 71 133q0 67 -48 103.5t-138 36.5q-80 0 -159 -20.5t-191 -65.5l-92 241q231 103 466 103z" />
    <glyph glyph-name="uni01A8" unicode="&#x1a8;" horiz-adv-x="1017" 
d="M518 1139q89 0 164 -18.5t132 -55t89.5 -96t32.5 -135.5q0 -143 -76 -216q-72 -72 -237 -139q-107 -42 -160.5 -72t-68.5 -51t-15 -51q0 -102 180 -102q184 0 356 88v-232q-162 -79 -380 -79q-225 0 -341 84.5t-116 246.5q0 138 79 221t234 142q148 56 195 85.5t47 69.5
q0 38 -39.5 61t-106.5 23q-69 0 -138.5 -20.5t-164.5 -61.5l-82 220q186 88 416 88z" />
    <glyph glyph-name="uni01A9" unicode="&#x1a9;" horiz-adv-x="1214" 
d="M1145 0h-1067v244l471 522l-459 459v237h995v-254h-440q-121 0 -225 11l454 -451l-477 -524q141 12 283 12h465v-256z" />
    <glyph glyph-name="uni01AA" unicode="&#x1aa;" horiz-adv-x="856" 
d="M-16 1337q0 101 77.5 170.5t223.5 69.5q350 0 350 -367v-1331q0 -62 36 -94.5t97 -32.5q97 0 193 35v-227q-106 -52 -263 -52q-83 0 -146.5 18t-115 58.5t-79 115t-27.5 179.5v1206h-56q-146 0 -218 68t-72 184zM242 1409q-32 0 -53 -21.5t-21 -52.5q0 -40 29.5 -66
t83.5 -26h49v64q0 102 -88 102z" />
    <glyph glyph-name="uni01AB" unicode="&#x1ab;" horiz-adv-x="888" 
d="M47 889v129l168 102l88 236h195v-238h313v-229h-313v-539q0 -62 36 -94.5t97 -32.5q96 0 192 35v-410q0 -174 -73 -257t-218 -83q-90 0 -163 27v213q49 -18 98 -18q53 0 77.5 26.5t24.5 91.5v132h-26q-79 0 -139.5 17.5t-109.5 58.5t-75 115t-26 179v539h-146z" />
    <glyph glyph-name="uni01AC" unicode="&#x1ac;" horiz-adv-x="1265" 
d="M10 1114q0 58 12 108t40.5 94.5t71.5 76.5t108 50.5t147 18.5h836v-258h-398v-1204h-309v1204h-137q-63 0 -94 -31.5t-31 -82.5q0 -38 20 -95h-241q-25 57 -25 119z" />
    <glyph glyph-name="uni01AD" unicode="&#x1ad;" horiz-adv-x="888" 
d="M193 889h-146v129l146 88v108q0 353 387 353q96 0 188 -33v-234q-81 23 -154 23q-116 0 -116 -115v-90h313v-229h-313v-539q0 -62 36 -94.5t97 -32.5q96 0 192 35v-227q-109 -51 -280 -51q-79 0 -139.5 17.5t-109.5 58.5t-75 115t-26 179v539z" />
    <glyph glyph-name="uni01AE" unicode="&#x1ae;" horiz-adv-x="1185" 
d="M41 1204v258h1104v-258h-397v-1329q0 -61 29.5 -92t78.5 -31q53 0 113 21v-234q-73 -31 -172 -31q-359 0 -359 361v1335h-397z" />
    <glyph glyph-name="Uhorn" unicode="&#x1af;" horiz-adv-x="1812" 
d="M174 1462h309v-919q0 -159 72 -231t221 -72q150 0 219.5 75.5t69.5 229.5v917h309v-188q72 26 108 99.5t36 182.5h301l14 -22q-15 -74 -33 -128t-52.5 -109.5t-81.5 -94t-121 -68.5t-171 -44v-574q0 -115 -38 -212t-111.5 -169.5t-190.5 -113.5t-266 -41
q-285 0 -439.5 145.5t-154.5 394.5v942z" />
    <glyph glyph-name="uhorn" unicode="&#x1b0;" horiz-adv-x="1556" 
d="M551 -20q-187 0 -292 100.5t-105 308.5v729h305v-653q0 -123 43.5 -182.5t136.5 -59.5q134 0 188 90.5t54 278.5v526h305v-117q73 24 111 100t38 185h301l15 -22q-12 -61 -26.5 -108t-38.5 -96.5t-58 -86.5t-81 -69.5t-112.5 -54t-148.5 -32.5v-817h-234l-41 143h-18
q-52 -82 -142.5 -122.5t-199.5 -40.5z" />
    <glyph glyph-name="uni01B1" unicode="&#x1b1;" horiz-adv-x="1609" 
d="M55 1202v260h643v-278q-99 -51 -160.5 -134t-85.5 -179t-24 -218q0 -201 100.5 -308t276.5 -107t276.5 108t100.5 309q0 189 -61 320t-206 209v278h639v-260h-370q146 -90 231.5 -251t85.5 -361q0 -278 -188 -444t-508 -166t-508 166.5t-188 445.5q0 204 85.5 362.5
t235.5 247.5h-375z" />
    <glyph glyph-name="uni01B2" unicode="&#x1b2;" horiz-adv-x="1548" 
d="M768 -20q-293 0 -442 149q-152 149 -152 391v942h309v-895q0 -178 71 -252.5t222 -74.5q152 0 220.5 79t68.5 250v531q0 127 -111 127q-86 0 -151 -35v240q108 51 248 51q158 0 240.5 -83t82.5 -243v-641q0 -115 -38 -212t-111.5 -169.5t-190.5 -113.5t-266 -41z" />
    <glyph glyph-name="uni01B3" unicode="&#x1b3;" horiz-adv-x="1277" 
d="M160 1483q77 0 134.5 -30.5t95.5 -80.5t77 -133l176 -375l301 598h334l-485 -893v-569h-308v557l-225 473q-44 90 -71.5 131t-50.5 53.5t-62 12.5q-36 0 -76 -19v240q77 35 160 35z" />
    <glyph glyph-name="uni01B4" unicode="&#x1b4;" horiz-adv-x="1259" 
d="M1085 1139q40 0 88.5 -9.5t75.5 -21.5v-236q-49 11 -69 11q-44 0 -84 -37q-36 -36 -84 -166l-295 -813q-130 -359 -479 -359q-65 0 -148 17v242q58 -13 117 -13q169 0 237 195l21 59l-445 1110h332l176 -520q47 -137 66 -256h6q29 128 70 244l110 303q86 250 305 250z
" />
    <glyph glyph-name="uni01B5" unicode="&#x1b5;" horiz-adv-x="1185" 
d="M49 201l277 395h-199v254h375l248 356h-682v256h1050v-200l-287 -412h191v-254h-369l-235 -340h719v-256h-1088v201z" />
    <glyph glyph-name="uni01B6" unicode="&#x1b6;" horiz-adv-x="999" 
d="M938 0h-883v180l215 291h-161v199h307l157 215h-487v233h834v-198l-185 -250h156v-199h-301l-174 -238h522v-233z" />
    <glyph glyph-name="uni01B7" unicode="&#x1b7;" horiz-adv-x="1210" 
d="M106 1462h959v-198l-432 -412q245 -10 371 -121t126 -305q0 -97 -37.5 -177t-112 -141t-195 -94.5t-277.5 -33.5q-259 0 -451 79v263q100 -46 216.5 -71.5t215.5 -25.5q181 0 256.5 57t75.5 162q0 95 -97.5 146t-317.5 51h-123v217l360 348h-537v256z" />
    <glyph glyph-name="uni01B8" unicode="&#x1b8;" horiz-adv-x="1210" 
d="M692 -20q-296 0 -454 117.5t-158 318.5q0 200 129 308.5t369 127.5l-433 412v198h959v-256h-539l363 -348v-217h-123q-236 0 -324 -55q-92 -56 -92 -146q0 -106 79 -160.5t253 -54.5q100 0 217.5 25.5t214.5 71.5v-263q-192 -79 -461 -79z" />
    <glyph glyph-name="uni01B9" unicode="&#x1b9;" horiz-adv-x="1189" 
d="M659 -492q-281 0 -430 133.5t-149 358.5q0 202 118.5 335t368.5 171l-432 414v198h967v-233h-590l395 -383v-217h-119q-113 0 -193 -20t-124 -57.5t-63 -84t-19 -105.5q0 -110 72 -188q70 -76 241 -76q210 0 410 96v-258q-206 -84 -453 -84z" />
    <glyph glyph-name="uni01BA" unicode="&#x1ba;" horiz-adv-x="1189" 
d="M524 -492q-183 0 -305 78q-121 80 -121 242q0 300 396 332q150 11 208 37.5t58 95.5q0 65 -68 90t-235 25h-140v204l308 273h-506v233h907v-196l-362 -295q184 -13 294.5 -97.5t110.5 -242.5q0 -58 -12 -105t-48 -95.5t-94.5 -83t-158 -60t-232.5 -35.5
q-81 -7 -123.5 -25t-42.5 -57q0 -92 205 -92q192 0 416 80v-226q-81 -34 -202.5 -57t-252.5 -23z" />
    <glyph glyph-name="uni01BB" unicode="&#x1bb;" horiz-adv-x="1167" 
d="M55 227l396 432h-361v199h526q93 115 93 272q0 87 -53 140t-140 53t-158 -39t-145 -113l-150 187q42 40 80.5 69.5t99.5 65t139.5 55t166.5 19.5q214 0 340.5 -118.5t126.5 -301.5q0 -151 -80 -289h141v-199h-284l-379 -411v-15h663v-233h-1022v227z" />
    <glyph glyph-name="uni01BC" unicode="&#x1bc;" horiz-adv-x="1183" 
d="M49 1204v258h1012v-258h-524v-270h55q232 0 372 -123.5t140 -337.5q0 -236 -159.5 -364.5t-473.5 -128.5q-118 0 -229 20.5t-185 58.5v267q73 -39 192 -67t212 -28q332 0 332 222q0 114 -75 168.5t-226 54.5h-261v528h-182z" />
    <glyph glyph-name="uni01BD" unicode="&#x1bd;" horiz-adv-x="1136" 
d="M477 -20q-111 0 -221 18.5t-178 50.5v252q70 -36 181 -61t206 -25q141 0 219 33t78 100q0 129 -305 129h-195v412h-172v229h930v-229h-471v-199h31q143 0 247 -32.5t168 -110t64 -195.5q0 -176 -145.5 -274t-436.5 -98z" />
    <glyph glyph-name="uni01BE" unicode="&#x1be;" horiz-adv-x="1017" 
d="M74 301q78 -39 178.5 -68.5t183.5 -29.5q108 0 157.5 27t49.5 83q0 21 -7 38t-24.5 31.5t-31.5 23.5t-44.5 25t-46.5 26q-38 22 -58.5 35.5t-51 37.5t-46.5 47.5t-33 57t-24.5 76.5t-7.5 96v82h-194v129l198 102l88 236h195v-238h283v-229h-283v-72q0 -58 18 -84.5
t74 -58.5q14 -8 44.5 -25t44 -25t40 -24.5t39.5 -27t34 -29t31.5 -33.5t24 -36.5t20 -43.5t11 -49.5t4.5 -58.5q0 -154 -116 -248t-361 -94q-107 0 -216 18.5t-173 50.5v252z" />
    <glyph glyph-name="uni01BF" unicode="&#x1bf;" horiz-adv-x="1296" 
d="M465 -492h-305v1610h248l43 -145h14q109 166 317 166q189 0 305.5 -142t116.5 -374q0 -123 -42 -230t-128.5 -197t-231.5 -151.5t-337 -83.5v-453zM465 590v-369q196 25 312 134t116 272q0 121 -53.5 194.5t-155.5 73.5q-116 0 -167.5 -74.5t-51.5 -230.5z" />
    <glyph glyph-name="uni01C0" unicode="&#x1c0;" horiz-adv-x="595" 
d="M408 0h-220v1556h220v-1556z" />
    <glyph glyph-name="uni01C1" unicode="&#x1c1;" horiz-adv-x="1128" 
d="M721 0v1556h219v-1556h-219zM188 1556h220v-1556h-220v1556z" />
    <glyph glyph-name="uni01C2" unicode="&#x1c2;" horiz-adv-x="1056" 
d="M102 1087h316v469h219v-469h317v-198h-317v-176h317v-199h-317v-514h-219v514h-316v199h316v176h-316v198z" />
    <glyph glyph-name="uni01C3" unicode="&#x1c3;" horiz-adv-x="585" 
d="M467 1462l-51 -977h-244l-51 977h346zM117 143q0 88 48 129t128 41q78 0 126 -41t48 -129q0 -86 -48.5 -128t-125.5 -42q-79 0 -127.5 42t-48.5 128z" />
    <glyph glyph-name="uni01C4" unicode="&#x1c4;" horiz-adv-x="2680" 
d="M184 0v1462h459q349 0 551.5 -186.5t202.5 -530.5q0 -368 -210.5 -556.5t-588.5 -188.5h-414zM2632 0h-1088v201l701 1005h-682v256h1050v-200l-700 -1006h719v-256zM494 1208v-952h133q448 0 448 481q0 471 -416 471h-165zM1669 1886v27h203q138 -82 229 -176
q74 80 234 176h202v-27q-66 -66 -142.5 -153.5t-113.5 -147.5h-356q-59 93 -256 301z" />
    <glyph glyph-name="uni01C5" unicode="&#x1c5;" horiz-adv-x="2514" 
d="M184 0v1462h459q349 0 551.5 -186.5t202.5 -530.5q0 -366 -208.5 -555.5t-590.5 -189.5h-414zM1571 0v180l518 705h-487v233h833v-198l-504 -687h523v-233h-883zM494 256h133q448 0 448 481q0 471 -416 471h-165v-952zM1841 1241q-59 93 -256 301v27h203
q138 -82 229 -176q74 80 234 176h203v-27q-66 -66 -142.5 -153.5t-113.5 -147.5h-357z" />
    <glyph glyph-name="uni01C6" unicode="&#x1c6;" horiz-adv-x="2295" 
d="M514 -20q-191 0 -306.5 150t-115.5 427q0 281 116.5 431.5t313.5 150.5q217 0 322 -164h10q-23 124 -23 223v358h306v-1556h-234l-59 145h-13q-106 -165 -317 -165zM1352 180l518 705h-488v233h834v-198l-504 -687h522v-233h-882v180zM401 553q0 -162 57 -246t163 -84
q121 0 173.5 72.5t57.5 226.5v33q0 170 -53 253t-183 83q-101 0 -158 -88t-57 -250zM1366 1569h203q138 -82 229 -176q74 80 234 176h202v-27q-66 -66 -142.5 -153.5t-113.5 -147.5h-356q-59 93 -256 301v27z" />
    <glyph glyph-name="uni01C7" unicode="&#x1c7;" horiz-adv-x="1835" 
d="M1188 -430q-114 0 -182 22v258q86 -20 145 -20q44 0 76 11t59 38.5t41 80.5t14 132v1370h310v-1368q0 -272 -123 -398t-340 -126zM184 0v1462h310v-1206h593v-256h-903z" />
    <glyph glyph-name="uni01C8" unicode="&#x1c8;" horiz-adv-x="1781" 
d="M1087 0h-903v1462h310v-1206h593v-256zM1305 1407q0 149 165 149q166 0 166 -149q0 -79 -45.5 -114.5t-120.5 -35.5q-165 0 -165 150zM1227 -492q-113 0 -201 25v240q66 -19 143 -19q148 0 148 170v1194h305v-1239q0 -166 -96 -268.5t-299 -102.5z" />
    <glyph glyph-name="uni01C9" unicode="&#x1c9;" horiz-adv-x="1249" 
d="M465 1556v-1556h-305v1556h305zM772 1407q0 149 166 149t166 -149q0 -79 -45.5 -114.5t-120.5 -35.5q-166 0 -166 150zM694 -492q-112 0 -200 25v240q66 -19 143 -19q147 0 147 170v1194h306v-1239q0 -166 -96.5 -268.5t-299.5 -102.5z" />
    <glyph glyph-name="uni01CA" unicode="&#x1ca;" horiz-adv-x="2342" 
d="M184 1462h391l635 -1095h7q-13 299 -15 403v692h279v-1462h-394l-636 1106h-9l19 -418v-688h-277v1462zM1513 -408v258q86 -20 146 -20q44 0 76 11t59 38.5t41 80.5t14 132v1370h310v-1368q0 -272 -123 -398t-340 -126q-115 0 -183 22z" />
    <glyph glyph-name="uni01CB" unicode="&#x1cb;" horiz-adv-x="2289" 
d="M184 0v1462h391l635 -1095h7q-13 299 -15 403v692h279v-1462h-394l-636 1106h-9l19 -418v-688h-277zM1534 -467v240q66 -19 143 -19q148 0 148 170v1194h305v-1239q0 -166 -96 -268.5t-299 -102.5q-113 0 -201 25zM1978 1257q-166 0 -166 150q0 149 166 149t166 -149
q0 -79 -45.5 -114.5t-120.5 -35.5z" />
    <glyph glyph-name="uni01CC" unicode="&#x1cc;" horiz-adv-x="1970" 
d="M465 0h-305v1118h233l41 -143h17q51 84 144 124t200 40q194 0 295.5 -104t101.5 -306v-729h-305v653q0 123 -43.5 182.5t-136.5 59.5q-134 0 -188 -90.5t-54 -278.5v-526zM1214 -227q66 -19 144 -19q147 0 147 170v1194h305v-1239q0 -166 -96 -268.5t-299 -102.5
q-113 0 -201 25v240zM1493 1407q0 149 166 149t166 -149q0 -79 -45.5 -114.5t-120.5 -35.5q-166 0 -166 150z" />
    <glyph glyph-name="uni01CD" unicode="&#x1cd;" horiz-adv-x="1413" 
d="M334 0h-334l516 1468h379l518 -1468h-334l-106 348h-533zM276 1886v27h203q140 -84 230 -176q75 82 233 176h203v-27q-66 -66 -142.5 -153.5t-113.5 -147.5h-357q-59 93 -256 301zM623 948l-105 -340h381l-106 340q-85 289 -86 293q-12 -53 -41.5 -154.5t-42.5 -138.5z
" />
    <glyph glyph-name="uni01CE" unicode="&#x1ce;" horiz-adv-x="1236" 
d="M86 334q0 176 122.5 260.5t377.5 95.5l194 6v49q0 170 -174 170q-136 0 -315 -81l-101 206q200 101 428 101t346.5 -98.5t118.5 -297.5v-745h-213l-59 152h-8q-75 -94 -155.5 -133t-215.5 -39q-157 0 -251.5 89t-94.5 265zM188 1569h203q140 -84 230 -176q75 82 233 176
h203v-27q-66 -66 -142.5 -153.5t-113.5 -147.5h-357q-59 93 -256 301v27zM399 332q0 -129 148 -129q101 0 167 60t66 163v92l-118 -4q-141 -4 -202 -51t-61 -131z" />
    <glyph glyph-name="uni01CF" unicode="&#x1cf;" horiz-adv-x="796" 
d="M244 1204l-178 82v176h665v-176l-178 -82v-946l178 -82v-176h-665v176l178 82v946zM-31 1886v27h203q138 -82 229 -176q74 80 234 176h203v-27q-66 -66 -142.5 -153.5t-113.5 -147.5h-357q-59 93 -256 301z" />
    <glyph glyph-name="uni01D0" unicode="&#x1d0;" horiz-adv-x="624" 
d="M160 1118h305v-1118h-305v1118zM-117 1542v27h203q138 -82 229 -176q74 80 234 176h203v-27q-66 -66 -142.5 -153.5t-113.5 -147.5h-357q-59 93 -256 301z" />
    <glyph glyph-name="uni01D1" unicode="&#x1d1;" horiz-adv-x="1630" 
d="M815 -20q-176 0 -309.5 53.5t-218 153.5t-126.5 237.5t-42 310.5q0 172 42 308.5t126.5 236t218.5 152.5t311 53q175 0 308.5 -53t217.5 -152.5t126 -236.5t42 -310q0 -172 -42 -309t-126.5 -237t-218 -153.5t-309.5 -53.5zM817 1227q-191 0 -282 -128.5t-91 -365.5
t91 -365t280 -128q371 0 371 493q0 494 -369 494zM385 1886v27h203q138 -82 229 -176q74 80 234 176h202v-27q-66 -66 -142.5 -153.5t-113.5 -147.5h-356q-59 93 -256 301z" />
    <glyph glyph-name="uni01D2" unicode="&#x1d2;" horiz-adv-x="1267" 
d="M631 -20q-240 0 -389.5 154t-149.5 427q0 276 144.5 427t400.5 151q240 0 389.5 -153.5t149.5 -424.5q0 -276 -145.5 -428.5t-399.5 -152.5zM403 561q0 -169 55.5 -252.5t176.5 -83.5q119 0 174 83.5t55 252.5t-55 250.5t-176 81.5q-120 0 -175 -82t-55 -250zM205 1569
h203q138 -82 229 -176q75 82 233 176h203v-27q-66 -66 -142.5 -153.5t-113.5 -147.5h-356q-59 93 -256 301v27z" />
    <glyph glyph-name="uni01D3" unicode="&#x1d3;" horiz-adv-x="1548" 
d="M174 520v942h309v-895q0 -178 71 -252.5t222 -74.5q152 0 220.5 79t68.5 250v893h309v-946q0 -115 -38 -212t-111.5 -169.5t-190.5 -113.5t-266 -41q-285 0 -439.5 145.5t-154.5 394.5zM344 1913h203q138 -82 229 -176q74 80 234 176h202v-27q-66 -66 -142.5 -153.5
t-113.5 -147.5h-356q-59 93 -256 301v27z" />
    <glyph glyph-name="uni01D4" unicode="&#x1d4;" horiz-adv-x="1345" 
d="M154 389v729h305v-653q0 -123 43.5 -182.5t136.5 -59.5q134 0 188 90.5t54 278.5v526h305v-1118h-234l-41 143h-16q-52 -83 -143 -123t-201 -40q-187 0 -292 100.5t-105 308.5zM244 1569h202q140 -84 230 -176q75 82 233 176h203v-27q-66 -66 -142.5 -153.5
t-113.5 -147.5h-356q-59 93 -256 301v27z" />
    <glyph glyph-name="uni01D5" unicode="&#x1d5;" horiz-adv-x="1548" 
d="M174 520v942h309v-895q0 -178 71 -252.5t222 -74.5q152 0 220.5 79t68.5 250v893h309v-946q0 -115 -38 -212t-111.5 -169.5t-190.5 -113.5t-266 -41q-285 0 -439.5 145.5t-154.5 394.5zM436 1905v190h678v-190h-678zM442 1694q0 62 34 93.5t95 31.5q59 0 95 -32t36 -93
q0 -58 -36 -90.5t-95 -32.5q-61 0 -95 32t-34 91zM846 1694q0 61 35 93t94 32t95 -32t36 -93q0 -58 -36 -90.5t-95 -32.5q-58 0 -93.5 32t-35.5 91z" />
    <glyph glyph-name="uni01D6" unicode="&#x1d6;" horiz-adv-x="1345" 
d="M154 389v729h305v-653q0 -123 43.5 -182.5t136.5 -59.5q134 0 188 90.5t54 278.5v526h305v-1118h-234l-41 143h-16q-52 -83 -143 -123t-201 -40q-187 0 -292 100.5t-105 308.5zM336 1561v190h678v-190h-678zM342 1350q0 62 34 93.5t95 31.5q59 0 95 -32t36 -93
q0 -58 -36 -90.5t-95 -32.5q-61 0 -95 32t-34 91zM745 1350q0 61 35 93t94 32t95.5 -32t36.5 -93q0 -58 -36.5 -90.5t-95.5 -32.5q-58 0 -93.5 32t-35.5 91z" />
    <glyph glyph-name="uni01D7" unicode="&#x1d7;" horiz-adv-x="1548" 
d="M174 520v942h309v-895q0 -178 71 -252.5t222 -74.5q152 0 220.5 79t68.5 250v893h309v-946q0 -115 -38 -212t-111.5 -169.5t-190.5 -113.5t-266 -41q-285 0 -439.5 145.5t-154.5 394.5zM846 1851h-205v27q101 113 188 270h332v-20q-49 -58 -146.5 -144t-168.5 -133z
M571 1571q-61 0 -95 32t-34 91q0 62 34 93.5t95 31.5q59 0 95 -32t36 -93q0 -58 -36 -90.5t-95 -32.5zM846 1694q0 61 35 93t94 32t95 -32t36 -93q0 -58 -36 -90.5t-95 -32.5q-58 0 -93.5 32t-35.5 91z" />
    <glyph glyph-name="uni01D8" unicode="&#x1d8;" horiz-adv-x="1345" 
d="M154 389v729h305v-653q0 -123 43.5 -182.5t136.5 -59.5q134 0 188 90.5t54 278.5v526h305v-1118h-234l-41 143h-16q-52 -83 -143 -123t-201 -40q-187 0 -292 100.5t-105 308.5zM745 1507h-204v27q101 113 188 270h332v-20q-49 -58 -147 -143.5t-169 -133.5zM471 1227
q-61 0 -95 32t-34 91q0 62 34 93.5t95 31.5q59 0 95 -32t36 -93q0 -58 -36 -90.5t-95 -32.5zM745 1350q0 61 35 93t94 32t95.5 -32t36.5 -93q0 -58 -36.5 -90.5t-95.5 -32.5q-58 0 -93.5 32t-35.5 91z" />
    <glyph glyph-name="uni01D9" unicode="&#x1d9;" horiz-adv-x="1548" 
d="M174 1462h309v-895q0 -178 71 -252.5t222 -74.5q152 0 220.5 79t68.5 250v893h309v-946q0 -115 -38 -212t-111.5 -169.5t-190.5 -113.5t-266 -41q-285 0 -439.5 145.5t-154.5 394.5v942zM637 1864q-15 22 -35 47t-35.5 42.5t-42.5 46t-39 40.5l-44.5 44.5l-39.5 39.5v26
h142q136 -68 231 -151q89 77 232 151h141v-26l-37.5 -37.5l-43.5 -43.5t-40 -41t-43.5 -47.5t-36 -43.5t-35.5 -47h-274zM571 1571q-61 0 -95 32t-34 91q0 62 34 93.5t95 31.5q59 0 95 -32t36 -93q0 -58 -36 -90.5t-95 -32.5zM846 1694q0 61 35 93t94 32t95 -32t36 -93
q0 -58 -36 -90.5t-95 -32.5q-58 0 -93.5 32t-35.5 91z" />
    <glyph glyph-name="uni01DA" unicode="&#x1da;" horiz-adv-x="1345" 
d="M154 389v729h305v-653q0 -123 43.5 -182.5t136.5 -59.5q134 0 188 90.5t54 278.5v526h305v-1118h-234l-41 143h-16q-52 -83 -143 -123t-201 -40q-187 0 -292 100.5t-105 308.5zM301 1806h141q139 -69 232 -151q90 79 231 151h142v-26l-37.5 -37.5l-43.5 -43.5t-40 -41
t-43.5 -47.5t-36 -43.5t-35.5 -47h-274q-15 22 -35 47t-35.5 42.5t-42.5 46t-39 40.5l-44.5 44.5l-39.5 39.5v26zM342 1350q0 62 34 93.5t95 31.5q59 0 95 -32t36 -93q0 -58 -36 -90.5t-95 -32.5q-61 0 -95 32t-34 91zM745 1350q0 61 35 93t94 32t95.5 -32t36.5 -93
q0 -58 -36.5 -90.5t-95.5 -32.5q-58 0 -93.5 32t-35.5 91z" />
    <glyph glyph-name="uni01DB" unicode="&#x1db;" horiz-adv-x="1548" 
d="M174 1462h309v-895q0 -178 71 -252.5t222 -74.5q152 0 220.5 79t68.5 250v893h309v-946q0 -115 -38 -212t-111.5 -169.5t-190.5 -113.5t-266 -41q-285 0 -439.5 145.5t-154.5 394.5v942zM387 2128v20h332q87 -157 188 -270v-27h-205q-71 47 -168.5 133t-146.5 144z
M571 1571q-61 0 -95 32t-34 91q0 62 34 93.5t95 31.5q59 0 95 -32t36 -93q0 -58 -36 -90.5t-95 -32.5zM846 1694q0 61 35 93t94 32t95 -32t36 -93q0 -58 -36 -90.5t-95 -32.5q-58 0 -93.5 32t-35.5 91z" />
    <glyph glyph-name="uni01DC" unicode="&#x1dc;" horiz-adv-x="1345" 
d="M154 1118h305v-653q0 -123 43.5 -182.5t136.5 -59.5q134 0 188 90.5t54 278.5v526h305v-1118h-234l-41 143h-16q-52 -83 -143 -123t-201 -40q-187 0 -292 100.5t-105 308.5v729zM287 1784v20h331q86 -154 189 -270v-27h-205q-71 47 -168.5 133t-146.5 144zM471 1227
q-61 0 -95 32t-34 91q0 62 34 93.5t95 31.5q59 0 95 -32t36 -93q0 -58 -36 -90.5t-95 -32.5zM874 1227q-58 0 -93.5 32t-35.5 91q0 61 35 93t94 32t95.5 -32t36.5 -93q0 -58 -36.5 -90.5t-95.5 -32.5z" />
    <glyph glyph-name="uni01DD" unicode="&#x1dd;" horiz-adv-x="1210" 
d="M545 1139q127 0 231 -35.5t180.5 -105t119 -179.5t42.5 -252q0 -285 -142.5 -436t-385.5 -151q-234 0 -368 132.5t-134 374.5v148h721q-5 130 -78 203t-201 73q-106 0 -193.5 -21t-184.5 -67v236q83 42 174.5 61t218.5 19zM803 432h-428q2 -105 55.5 -170t157.5 -65
q92 0 150 59t65 176z" />
    <glyph glyph-name="uni01DE" unicode="&#x1de;" horiz-adv-x="1413" 
d="M0 0l516 1468h379l518 -1468h-334l-106 348h-533l-106 -348h-334zM369 1905v190h678v-190h-678zM623 948l-105 -340h381l-106 340q-85 289 -86 293q-12 -53 -41.5 -154.5t-42.5 -138.5zM504 1571q-61 0 -95 32t-34 91q0 62 34 93.5t95 31.5q59 0 95 -32t36 -93
q0 -58 -36 -90.5t-95 -32.5zM907 1571q-58 0 -93.5 32t-35.5 91q0 61 35 93t94 32t95 -32t36 -93q0 -58 -36 -90.5t-95 -32.5z" />
    <glyph glyph-name="uni01DF" unicode="&#x1df;" horiz-adv-x="1236" 
d="M86 334q0 176 122.5 260.5t377.5 95.5l194 6v49q0 170 -174 170q-136 0 -315 -81l-101 206q200 101 428 101t346.5 -98.5t118.5 -297.5v-745h-213l-59 152h-8q-75 -94 -155.5 -133t-215.5 -39q-157 0 -251.5 89t-94.5 265zM958 1561h-677v190h677v-190zM399 332
q0 -129 148 -129q101 0 167 60t66 163v92l-118 -4q-141 -4 -202 -51t-61 -131zM416 1227q-61 0 -95 32t-34 91q0 62 34 93.5t95 31.5q59 0 95 -32t36 -93q0 -58 -36 -90.5t-95 -32.5zM819 1227q-58 0 -93.5 32t-35.5 91q0 61 35 93t94 32t95 -32t36 -93q0 -58 -36 -90.5
t-95 -32.5z" />
    <glyph glyph-name="uni01E0" unicode="&#x1e0;" horiz-adv-x="1413" 
d="M334 0h-334l516 1468h379l518 -1468h-334l-106 348h-533zM369 2089h678v-191h-678v191zM518 608h381l-106 340q-85 289 -86 293q-12 -53 -41.5 -154.5t-42.5 -138.5zM707 1565q-58 0 -93.5 32t-35.5 91q0 61 35 92.5t94 31.5t95 -31.5t36 -92.5q0 -58 -36 -90.5
t-95 -32.5z" />
    <glyph glyph-name="uni01E1" unicode="&#x1e1;" horiz-adv-x="1236" 
d="M432 -20q-157 0 -251.5 89t-94.5 265t122.5 260.5t377.5 95.5l194 6v49q0 170 -174 170q-136 0 -315 -81l-101 206q200 101 428 101t346.5 -98.5t118.5 -297.5v-745h-213l-59 152h-8q-75 -94 -155.5 -133t-215.5 -39zM958 1561h-677v190h677v-190zM399 332
q0 -129 148 -129q101 0 167 60t66 163v92l-118 -4q-141 -4 -202 -51t-61 -131zM618 1227q-58 0 -93.5 32t-35.5 91q0 61 35 93t94 32t95.5 -32t36.5 -93q0 -58 -36.5 -90.5t-95.5 -32.5z" />
    <glyph glyph-name="uni01E2" unicode="&#x1e2;" horiz-adv-x="1949" 
d="M315 0h-315l655 1462h1174v-254h-563v-321h526v-254h-526v-377h563v-256h-873v348h-491zM578 608h378v590h-127zM1376 1585h-678v211h678v-211z" />
    <glyph glyph-name="uni01E3" unicode="&#x1e3;" horiz-adv-x="1878" 
d="M442 -20q-153 0 -254.5 91t-101.5 263q0 176 118.5 260.5t364.5 95.5l191 6v84q0 135 -166 135q-141 0 -305 -77l-99 202q200 101 422 101q226 0 342 -131q135 129 359 129q217 0 347 -134t130 -374v-148h-723q5 -130 78 -203t201 -73q197 0 380 88v-236
q-87 -42 -176.5 -60.5t-220.5 -18.5q-139 0 -251 52t-183 154q-95 -114 -190.5 -160t-262.5 -46zM1294 1241h-678v211h678v-211zM647 514q-133 -4 -190.5 -51t-57.5 -131q0 -129 140 -129q96 0 158.5 60t62.5 163v92zM1307 922q-105 0 -166 -58.5t-68 -177.5h430
q-2 104 -53.5 170t-142.5 66z" />
    <glyph glyph-name="uni01E4" unicode="&#x1e4;" horiz-adv-x="1482" 
d="M799 -20q-329 0 -504.5 193t-175.5 560q0 348 199.5 549t564.5 201q233 0 434 -90l-103 -248q-153 80 -333 80q-202 0 -322.5 -136t-120.5 -362q0 -510 391 -510q71 0 187 21v90h-256v198h256v99h-277v237h580v-336h133v-198h-133v-265q-251 -83 -520 -83z" />
    <glyph glyph-name="uni01E5" unicode="&#x1e5;" horiz-adv-x="1296" 
d="M92 586q0 262 114 407.5t316 145.5q207 0 324 -164h8l25 143h258v-1147h123v-157h-148q-44 -151 -180 -228.5t-354 -77.5q-244 0 -418 66v233q207 -86 436 -86q74 0 127.5 23.5t73.5 69.5h-299v157h333v103q0 82 9 147h-9q-108 -166 -317 -166q-200 0 -311 137t-111 394z
M618 891q-215 0 -215 -305q0 -155 53.5 -228t166.5 -73q121 0 175 59.5t54 208.5v25q0 167 -55 240t-179 73z" />
    <glyph glyph-name="Gcaron" unicode="&#x1e6;" horiz-adv-x="1482" 
d="M799 -20q-329 0 -504.5 193t-175.5 560q0 348 199.5 549t564.5 201q233 0 434 -90l-103 -248q-153 80 -333 80q-202 0 -322.5 -136t-120.5 -362q0 -227 93.5 -358t287.5 -131q87 0 197 20v305h-277v258h580v-758q-251 -83 -520 -83zM389 1913h203q138 -82 229 -176
q74 80 234 176h202v-27q-66 -66 -142.5 -153.5t-113.5 -147.5h-356q-59 93 -256 301v27z" />
    <glyph glyph-name="gcaron" unicode="&#x1e7;" horiz-adv-x="1296" 
d="M92 557q0 274 114 428t316 154q207 0 324 -164h8l25 143h258v-1120q0 -240 -141.5 -365t-417.5 -125q-244 0 -418 66v244q207 -86 436 -86q235 0 235 254v22q0 79 9 137h-9q-107 -165 -317 -165q-198 0 -310 153t-112 424zM618 891q-215 0 -215 -338q0 -334 220 -334
q120 0 174.5 68.5t54.5 230.5v37q0 179 -55 257.5t-179 78.5zM213 1569h203q138 -82 229 -176q74 80 234 176h202v-27q-66 -66 -142.5 -153.5t-113.5 -147.5h-356q-59 93 -256 301v27z" />
    <glyph glyph-name="uni01E8" unicode="&#x1e8;" horiz-adv-x="1359" 
d="M494 0h-310v1462h310v-669l122 172l396 497h344l-510 -647l514 -815h-352l-383 616l-131 -94v-522zM287 1886v27h202q140 -84 230 -176q75 82 233 176h203v-27q-66 -66 -142.5 -153.5t-113.5 -147.5h-356q-59 93 -256 301z" />
    <glyph glyph-name="uni01E9" unicode="&#x1e9;" horiz-adv-x="1269" 
d="M160 1556h305v-696q0 -84 -16 -252h4q10 15 12 17q62 89 121 153l313 340h344l-444 -485l471 -633h-352l-322 453l-131 -105v-348h-305v1556zM152 1679q-59 93 -256 301v27h202q140 -84 230 -176q75 82 233 176h203v-27q-66 -66 -142.5 -153.5t-113.5 -147.5h-356z" />
    <glyph glyph-name="uni01EA" unicode="&#x1ea;" horiz-adv-x="1630" 
d="M762 -18q-321 15 -482 215t-161 538q0 172 42 308.5t126.5 236t218.5 152.5t311 53q175 0 308.5 -53t217.5 -152.5t126 -236.5t42 -310q0 -310 -136 -504.5t-408 -236.5q-69 -67 -103.5 -119.5t-34.5 -99.5q0 -40 21.5 -61t58.5 -21q54 0 115 18v-178q-71 -23 -156 -23
q-115 0 -182.5 63t-67.5 167q0 131 144 244zM817 1227q-191 0 -282 -128.5t-91 -365.5t91 -365t280 -128q371 0 371 493q0 494 -369 494z" />
    <glyph glyph-name="uni01EB" unicode="&#x1eb;" horiz-adv-x="1267" 
d="M561 -16q-211 22 -340 173.5t-129 403.5q0 276 144.5 427t400.5 151q240 0 389.5 -153.5t149.5 -424.5q0 -235 -108 -382.5t-302 -186.5q-139 -133 -139 -219q0 -40 21.5 -61t58.5 -21q53 0 114 18v-178q-71 -23 -155 -23q-115 0 -182.5 63t-67.5 167q0 135 145 246z
M403 561q0 -169 55.5 -252.5t176.5 -83.5q119 0 174 83.5t55 252.5t-55 250.5t-176 81.5q-120 0 -175 -82t-55 -250z" />
    <glyph glyph-name="uni01EC" unicode="&#x1ec;" horiz-adv-x="1630" 
d="M762 -18q-321 15 -482 215t-161 538q0 172 42 308.5t126.5 236t218.5 152.5t311 53q175 0 308.5 -53t217.5 -152.5t126 -236.5t42 -310q0 -310 -136 -504.5t-408 -236.5q-69 -67 -103.5 -119.5t-34.5 -99.5q0 -40 21.5 -61t58.5 -21q54 0 115 18v-178q-71 -23 -156 -23
q-115 0 -182.5 63t-67.5 167q0 131 144 244zM444 733q0 -237 91 -365t280 -128q371 0 371 493q0 494 -369 494q-191 0 -282 -128.5t-91 -365.5zM1155 1585h-678v211h678v-211z" />
    <glyph glyph-name="uni01ED" unicode="&#x1ed;" horiz-adv-x="1267" 
d="M561 -16q-211 22 -340 173.5t-129 403.5q0 276 144.5 427t400.5 151q240 0 389.5 -153.5t149.5 -424.5q0 -235 -108 -382.5t-302 -186.5q-139 -133 -139 -219q0 -40 21.5 -61t58.5 -21q53 0 114 18v-178q-71 -23 -155 -23q-115 0 -182.5 63t-67.5 167q0 135 145 246z
M633 893q-120 0 -175 -82t-55 -250q0 -169 55.5 -252.5t176.5 -83.5q119 0 174 83.5t55 252.5t-55 250.5t-176 81.5zM297 1241v211h678v-211h-678z" />
    <glyph glyph-name="uni01EE" unicode="&#x1ee;" horiz-adv-x="1210" 
d="M57 322q100 -46 216.5 -71.5t215.5 -25.5q181 0 256.5 57t75.5 162q0 95 -97.5 146t-317.5 51h-123v217l360 348h-537v256h959v-198l-432 -412q245 -10 371 -121t126 -305q0 -97 -37.5 -177t-112 -141t-195 -94.5t-277.5 -33.5q-259 0 -451 79v263zM418 1585
q-59 93 -256 301v27h203q138 -82 229 -176q75 82 233 176h203v-27q-66 -66 -142.5 -153.5t-113.5 -147.5h-356z" />
    <glyph glyph-name="uni01EF" unicode="&#x1ef;" horiz-adv-x="1189" 
d="M57 -150q95 -46 209 -71t211 -25q90 0 155 21t100.5 59t52 83t16.5 99q0 269 -400 269h-118v217l405 383h-590v233h967v-198l-442 -414q131 -15 227 -59t152 -112t82 -150.5t26 -182.5q0 -223 -154.5 -358.5t-455.5 -135.5q-251 0 -443 80v262zM412 1241q-59 93 -256 301
v27h202q140 -84 230 -176q75 82 233 176h203v-27q-66 -66 -142.5 -153.5t-113.5 -147.5h-356z" />
    <glyph glyph-name="uni01F0" unicode="&#x1f0;" horiz-adv-x="624" 
d="M70 -492q-113 0 -201 25v240q66 -19 143 -19q148 0 148 170v1194h305v-1239q0 -166 -96 -268.5t-299 -102.5zM139 1241q-59 93 -256 301v27h203q138 -82 229 -176q74 80 234 176h203v-27q-66 -66 -142.5 -153.5t-113.5 -147.5h-357z" />
    <glyph glyph-name="uni01F1" unicode="&#x1f1;" horiz-adv-x="2680" 
d="M598 0h-414v1462h459q349 0 551.5 -186.5t202.5 -530.5q0 -368 -210.5 -556.5t-588.5 -188.5zM2632 0h-1088v201l701 1005h-682v256h1050v-200l-700 -1006h719v-256zM494 1208v-952h133q448 0 448 481q0 471 -416 471h-165z" />
    <glyph glyph-name="uni01F2" unicode="&#x1f2;" horiz-adv-x="2514" 
d="M598 0h-414v1462h459q349 0 551.5 -186.5t202.5 -530.5q0 -366 -208.5 -555.5t-590.5 -189.5zM1571 0v180l518 705h-487v233h833v-198l-504 -687h523v-233h-883zM494 256h133q448 0 448 481q0 471 -416 471h-165v-952z" />
    <glyph glyph-name="uni01F3" unicode="&#x1f3;" horiz-adv-x="2295" 
d="M92 557q0 281 116.5 431.5t313.5 150.5q217 0 322 -164h10q-23 124 -23 223v358h306v-1556h-234l-59 145h-13q-106 -165 -317 -165q-191 0 -306.5 150t-115.5 427zM1352 0v180l518 705h-488v233h834v-198l-504 -687h522v-233h-882zM401 553q0 -162 57 -246t163 -84
q121 0 173.5 72.5t57.5 226.5v33q0 170 -53 253t-183 83q-101 0 -158 -88t-57 -250z" />
    <glyph glyph-name="uni01F4" unicode="&#x1f4;" horiz-adv-x="1482" 
d="M739 563v258h580v-758q-251 -83 -520 -83q-329 0 -504.5 193t-175.5 560q0 348 199.5 549t564.5 201q233 0 434 -90l-103 -248q-153 80 -333 80q-202 0 -322.5 -136t-120.5 -362q0 -227 93.5 -358t287.5 -131q87 0 197 20v305h-277zM870 1913h342v-21
q-56 -56 -177 -155.5t-197 -151.5h-203v27q161 194 235 301z" />
    <glyph glyph-name="uni01F5" unicode="&#x1f5;" horiz-adv-x="1296" 
d="M522 1139q207 0 324 -164h8l25 143h258v-1120q0 -240 -141.5 -365t-417.5 -125q-244 0 -418 66v244q207 -86 436 -86q235 0 235 254v22q0 79 9 137h-9q-107 -165 -317 -165q-198 0 -310 153t-112 424q0 274 114 428t316 154zM618 891q-215 0 -215 -338q0 -334 220 -334
q120 0 174.5 68.5t54.5 230.5v37q0 179 -55 257.5t-179 78.5zM694 1569h342v-21q-56 -56 -177 -155.5t-197 -151.5h-203v27q161 194 235 301z" />
    <glyph glyph-name="uni01F6" unicode="&#x1f6;" horiz-adv-x="2146" 
d="M184 0v1462h310v-573h481v573h309v-983q0 -131 45 -190.5t144 -59.5q101 0 145.5 62.5t44.5 210.5v616h309v-620q0 -259 -122.5 -388.5t-376.5 -129.5q-257 0 -377.5 113t-120.5 358v180h-481v-631h-310z" />
    <glyph glyph-name="uni01F7" unicode="&#x1f7;" horiz-adv-x="1384" 
d="M184 -492v1954h236l49 -188h8q59 89 158.5 150t222.5 61q191 0 307.5 -141.5t116.5 -397.5q0 -149 -48.5 -289t-143.5 -264.5t-247.5 -224.5t-348.5 -160v-500h-310zM768 1227q-129 0 -201.5 -113.5t-72.5 -312.5v-504q209 85 342 262.5t133 384.5q0 136 -52 209.5
t-149 73.5z" />
    <glyph glyph-name="uni01F8" unicode="&#x1f8;" horiz-adv-x="1665" 
d="M461 0h-277v1462h391l635 -1095h7q-13 299 -15 403v692h279v-1462h-394l-636 1106h-9l19 -418v-688zM817 1585q-76 52 -197.5 151.5t-177.5 155.5v21h342q69 -100 236 -301v-27h-203z" />
    <glyph glyph-name="uni01F9" unicode="&#x1f9;" horiz-adv-x="1345" 
d="M160 1118h233l41 -143h17q52 83 143 123.5t201 40.5q187 0 292 -101t105 -309v-729h-305v653q0 123 -43.5 182.5t-136.5 59.5q-134 0 -188 -90.5t-54 -278.5v-526h-305v1118zM283 1548v21h342q74 -107 235 -301v-27h-203q-76 52 -197 151.5t-177 155.5z" />
    <glyph glyph-name="Aringacute" unicode="&#x1fa;" horiz-adv-x="1413" 
d="M786 1753h-202v16q96 86 174 193h342v-12q-52 -57 -314 -197zM332 0h-332l500 1315q-43 58 -43 145q0 109 68.5 173.5t179.5 64.5q108 0 180.5 -65t72.5 -171q0 -88 -47 -147l502 -1315h-332l-106 330h-535zM705 1366q96 0 96 94q0 44 -27 70t-69 26q-44 0 -70.5 -26
t-26.5 -70q0 -43 26.5 -68.5t70.5 -25.5zM608 879l-100 -289h401l-102 289q-83 213 -100 299q-11 -42 -49 -156t-50 -143z" />
    <glyph glyph-name="aringacute" unicode="&#x1fb;" horiz-adv-x="1236" 
d="M432 -20q-157 0 -251.5 89t-94.5 265t122.5 260.5t377.5 95.5l194 6v49q0 170 -174 170q-136 0 -315 -81l-101 206q200 101 428 101t346.5 -98.5t118.5 -297.5v-745h-213l-59 152h-8q-75 -94 -155.5 -133t-215.5 -39zM627 1198q-111 0 -179.5 64.5t-68.5 173.5t68.5 173
t179.5 64q109 0 181.5 -64.5t72.5 -170.5q0 -110 -72.5 -175t-181.5 -65zM399 332q0 -129 148 -129q101 0 167 60t66 163v92l-118 -4q-141 -4 -202 -51t-61 -131zM674 1753h-203v16q96 86 174 193h342v-12q-26 -31 -123.5 -90t-189.5 -107zM627 1532q-42 0 -69.5 -26.5
t-27.5 -69.5q0 -45 25 -71t72 -26q42 0 69 26.5t27 70.5t-27 70t-69 26z" />
    <glyph glyph-name="AEacute" unicode="&#x1fc;" horiz-adv-x="1949" 
d="M315 0h-315l655 1462h1174v-254h-563v-321h526v-254h-526v-377h563v-256h-873v348h-491zM829 1198l-251 -590h378v590h-127zM1055 1585h-203v27q161 194 235 301h343v-21q-56 -56 -177.5 -155.5t-197.5 -151.5z" />
    <glyph glyph-name="aeacute" unicode="&#x1fd;" horiz-adv-x="1878" 
d="M86 334q0 176 118.5 260.5t364.5 95.5l191 6v84q0 135 -166 135q-141 0 -305 -77l-99 202q200 101 422 101q226 0 342 -131q135 129 359 129q217 0 347 -134t130 -374v-148h-723q5 -130 78 -203t201 -73q197 0 380 88v-236q-87 -42 -176.5 -60.5t-220.5 -18.5
q-139 0 -251 52t-183 154q-95 -114 -190.5 -160t-262.5 -46q-153 0 -254.5 91t-101.5 263zM399 332q0 -129 140 -129q96 0 158.5 60t62.5 163v92l-113 -4q-133 -4 -190.5 -51t-57.5 -131zM770 1268q167 201 236 301h342v-21q-56 -56 -177.5 -155.5t-197.5 -151.5h-203v27z
M1073 686h430q-2 104 -53.5 170t-142.5 66q-105 0 -166 -58.5t-68 -177.5z" />
    <glyph glyph-name="Oslashacute" unicode="&#x1fe;" horiz-adv-x="1630" 
d="M1511 733q0 -172 -42 -309t-126.5 -237t-218 -153.5t-309.5 -53.5q-194 0 -336 65l-90 -135l-162 108l90 136q-198 198 -198 581q0 172 42 308.5t126.5 236t218.5 152.5t311 53q201 0 344 -70l84 125l160 -104l-88 -131q194 -194 194 -572zM444 733q0 -192 56 -307
l506 756q-77 45 -189 45q-191 0 -282 -128.5t-91 -365.5zM1186 733q0 186 -51 297l-500 -751q76 -39 180 -39q371 0 371 493zM874 1913h343v-21q-56 -56 -177.5 -155.5t-197.5 -151.5h-203v27q161 194 235 301z" />
    <glyph glyph-name="oslashacute" unicode="&#x1ff;" horiz-adv-x="1267" 
d="M1176 561q0 -278 -146 -430q-148 -151 -399 -151q-114 0 -234 45l-67 -101l-154 105l68 100q-152 158 -152 432q0 276 144.5 427t400.5 151q135 0 248 -52l55 82l152 -108l-58 -84q142 -155 142 -416zM403 561q0 -95 19 -166l317 475q-51 23 -106 23q-120 0 -175 -82
t-55 -250zM864 561q0 79 -12 141l-309 -462q38 -15 92 -15q119 0 174 83.5t55 252.5zM688 1569h342v-21q-56 -56 -177.5 -155.5t-197.5 -151.5h-202v27q161 194 235 301z" />
    <glyph glyph-name="uni0200" unicode="&#x200;" horiz-adv-x="1413" 
d="M0 0l516 1468h379l518 -1468h-334l-106 348h-533l-106 -348h-334zM518 608h381l-106 340q-85 289 -86 293q-12 -53 -41.5 -154.5t-42.5 -138.5zM555 1892v21h301q77 -165 174 -301v-27h-162q-87 71 -185.5 165t-127.5 142zM158 1892v21h301q77 -165 174 -301v-27h-162
q-87 71 -185.5 165t-127.5 142z" />
    <glyph glyph-name="uni0201" unicode="&#x201;" horiz-adv-x="1236" 
d="M432 -20q-157 0 -251.5 89t-94.5 265t122.5 260.5t377.5 95.5l194 6v49q0 170 -174 170q-136 0 -315 -81l-101 206q200 101 428 101t346.5 -98.5t118.5 -297.5v-745h-213l-59 152h-8q-75 -94 -155.5 -133t-215.5 -39zM662 514q-141 -4 -202 -51t-61 -131q0 -129 148 -129
q101 0 167 60t66 163v92zM467 1569h301q77 -165 174 -301v-27h-162q-87 71 -185.5 165t-127.5 142v21zM70 1548v21h301q77 -165 174 -301v-27h-162q-87 71 -185.5 165t-127.5 142z" />
    <glyph glyph-name="uni0202" unicode="&#x202;" horiz-adv-x="1413" 
d="M334 0h-334l516 1468h379l518 -1468h-334l-106 348h-533zM313 1585q11 150 120 244t278 94q175 0 278 -91.5t111 -246.5h-170q-4 34 -17 57.5t-31 36.5t-48 20t-57 9t-68 2q-208 0 -222 -125h-174zM518 608h381l-106 340q-85 289 -86 293q-12 -53 -41.5 -154.5
t-42.5 -138.5z" />
    <glyph glyph-name="uni0203" unicode="&#x203;" horiz-adv-x="1236" 
d="M432 -20q-157 0 -251.5 89t-94.5 265t122.5 260.5t377.5 95.5l194 6v49q0 170 -174 170q-136 0 -315 -81l-101 206q200 101 428 101t346.5 -98.5t118.5 -297.5v-745h-213l-59 152h-8q-75 -94 -155.5 -133t-215.5 -39zM399 1241h-174q11 150 120 244t278 94
q175 0 278 -91.5t111 -246.5h-170q-4 34 -17 57.5t-31 36.5t-48 20t-57 9t-68 2q-208 0 -222 -125zM399 332q0 -129 148 -129q101 0 167 60t66 163v92l-118 -4q-141 -4 -202 -51t-61 -131z" />
    <glyph glyph-name="uni0204" unicode="&#x204;" horiz-adv-x="1146" 
d="M184 1462h842v-254h-532v-321h495v-254h-495v-377h532v-256h-842v1462zM465 1892v21h301q77 -165 174 -301v-27h-162q-87 71 -185.5 165t-127.5 142zM68 1892v21h301q77 -165 174 -301v-27h-162q-87 71 -185.5 165t-127.5 142z" />
    <glyph glyph-name="uni0205" unicode="&#x205;" horiz-adv-x="1210" 
d="M92 551q0 285 143 436.5t386 151.5q234 0 367.5 -133t133.5 -375v-148h-721q5 -130 78 -203t201 -73q193 0 379 88v-236q-86 -42 -176 -60.5t-217 -18.5t-231 35.5t-181 104.5t-119.5 179t-42.5 252zM623 922q-93 0 -149 -58.5t-66 -177.5h428q-2 105 -56.5 170.5
t-156.5 65.5zM455 1548v21h301q77 -165 174 -301v-27h-162q-87 71 -185.5 165t-127.5 142zM371 1241q-88 72 -186.5 165.5t-127.5 141.5v21h301q77 -165 174 -301v-27h-161z" />
    <glyph glyph-name="uni0206" unicode="&#x206;" horiz-adv-x="1146" 
d="M1026 0h-842v1462h842v-254h-532v-321h495v-254h-495v-377h532v-256zM223 1585q11 150 120 244t278 94q175 0 278 -91.5t111 -246.5h-170q-4 34 -17 57.5t-31.5 36.5t-48.5 20t-57 9t-68 2q-207 0 -221 -125h-174z" />
    <glyph glyph-name="uni0207" unicode="&#x207;" horiz-adv-x="1210" 
d="M92 551q0 285 143 436.5t386 151.5q234 0 367.5 -133t133.5 -375v-148h-721q5 -130 78 -203t201 -73q193 0 379 88v-236q-86 -42 -176 -60.5t-217 -18.5t-231 35.5t-181 104.5t-119.5 179t-42.5 252zM387 1241h-174q11 150 119.5 244t277.5 94q175 0 278 -91.5
t111 -246.5h-170q-4 34 -17 57.5t-31 36.5t-48 20t-57 9t-68 2q-207 0 -221 -125zM408 686h428q-2 105 -56.5 170.5t-156.5 65.5q-93 0 -149 -58.5t-66 -177.5z" />
    <glyph glyph-name="uni0208" unicode="&#x208;" horiz-adv-x="796" 
d="M731 0h-665v176l178 82v946l-178 82v176h665v-176l-178 -82v-946l178 -82v-176zM248 1913h301q77 -165 174 -301v-27h-162q-87 71 -185.5 165t-127.5 142v21zM-150 1892v21h302q77 -165 174 -301v-27h-162q-88 72 -186.5 165.5t-127.5 141.5z" />
    <glyph glyph-name="uni0209" unicode="&#x209;" horiz-adv-x="624" 
d="M160 0v1118h305v-1118h-305zM162 1569h301q77 -165 174 -301v-27h-162q-87 71 -185.5 165t-127.5 142v21zM-236 1548v21h302q77 -165 174 -301v-27h-162q-88 72 -186.5 165.5t-127.5 141.5z" />
    <glyph glyph-name="uni020A" unicode="&#x20a;" horiz-adv-x="796" 
d="M66 0v176l178 82v946l-178 82v176h665v-176l-178 -82v-946l178 -82v-176h-665zM403 1923q175 0 278.5 -91.5t111.5 -246.5h-170q-4 34 -17 57.5t-31.5 36.5t-48.5 20t-57 9t-68 2q-207 0 -221 -125h-174q11 150 119.5 244t277.5 94z" />
    <glyph glyph-name="uni020B" unicode="&#x20b;" horiz-adv-x="624" 
d="M465 0h-305v1118h305v-1118zM-80 1241q11 150 119.5 244t277.5 94q175 0 278.5 -91.5t111.5 -246.5h-170q-4 34 -17 57.5t-31.5 36.5t-48.5 20t-57 9t-68 2q-207 0 -221 -125h-174z" />
    <glyph glyph-name="uni020C" unicode="&#x20c;" horiz-adv-x="1630" 
d="M815 -20q-176 0 -309.5 53.5t-218 153.5t-126.5 237.5t-42 310.5q0 172 42 308.5t126.5 236t218.5 152.5t311 53q175 0 308.5 -53t217.5 -152.5t126 -236.5t42 -310q0 -172 -42 -309t-126.5 -237t-218 -153.5t-309.5 -53.5zM817 1227q-191 0 -282 -128.5t-91 -365.5
t91 -365t280 -128q371 0 371 493q0 494 -369 494zM664 1892v21h301q77 -165 174 -301v-27h-162q-87 71 -185.5 165t-127.5 142zM266 1913h301q77 -165 174 -301v-27h-161q-88 72 -186.5 165.5t-127.5 141.5v21z" />
    <glyph glyph-name="uni020D" unicode="&#x20d;" horiz-adv-x="1267" 
d="M631 -20q-240 0 -389.5 154t-149.5 427q0 276 144.5 427t400.5 151q240 0 389.5 -153.5t149.5 -424.5q0 -276 -145.5 -428.5t-399.5 -152.5zM403 561q0 -169 55.5 -252.5t176.5 -83.5q119 0 174 83.5t55 252.5t-55 250.5t-176 81.5q-120 0 -175 -82t-55 -250zM483 1548
v21h301q77 -165 174 -301v-27h-161q-88 72 -186.5 165.5t-127.5 141.5zM86 1569h301q77 -165 174 -301v-27h-162q-87 71 -185.5 165t-127.5 142v21z" />
    <glyph glyph-name="uni020E" unicode="&#x20e;" horiz-adv-x="1630" 
d="M815 -20q-176 0 -309.5 53.5t-218 153.5t-126.5 237.5t-42 310.5q0 172 42 308.5t126.5 236t218.5 152.5t311 53q175 0 308.5 -53t217.5 -152.5t126 -236.5t42 -310q0 -172 -42 -309t-126.5 -237t-218 -153.5t-309.5 -53.5zM444 733q0 -237 91 -365t280 -128
q371 0 371 493q0 494 -369 494q-191 0 -282 -128.5t-91 -365.5zM422 1585q11 150 119.5 244t277.5 94q175 0 278 -91.5t111 -246.5h-170q-4 34 -17 57.5t-31 36.5t-48 20t-57 9t-68 2q-207 0 -221 -125h-174z" />
    <glyph glyph-name="uni020F" unicode="&#x20f;" horiz-adv-x="1267" 
d="M631 -20q-240 0 -389.5 154t-149.5 427q0 276 144.5 427t400.5 151q240 0 389.5 -153.5t149.5 -424.5q0 -276 -145.5 -428.5t-399.5 -152.5zM403 561q0 -169 55.5 -252.5t176.5 -83.5q119 0 174 83.5t55 252.5t-55 250.5t-176 81.5q-120 0 -175 -82t-55 -250zM416 1241
h-174q11 150 119.5 244t277.5 94q175 0 278 -91.5t111 -246.5h-170q-4 34 -17 57.5t-31 36.5t-48 20t-57 9t-68 2q-207 0 -221 -125z" />
    <glyph glyph-name="uni0210" unicode="&#x210;" horiz-adv-x="1351" 
d="M184 0v1462h426q298 0 441 -108t143 -330q0 -140 -75.5 -235.5t-196.5 -151.5l430 -637h-344l-349 561h-165v-561h-310zM588 1208h-94v-395h100q151 0 219 50.5t68 152.5q0 103 -70.5 147.5t-222.5 44.5zM541 1892v21h301q77 -165 174 -301v-27h-162q-87 71 -185.5 165
t-127.5 142zM143 1913h301q77 -165 174 -301v-27h-161q-88 72 -186.5 165.5t-127.5 141.5v21z" />
    <glyph glyph-name="uni0211" unicode="&#x211;" horiz-adv-x="929" 
d="M160 1118h231l45 -188h15q53 92 139.5 150.5t193.5 58.5q66 0 103 -9l-23 -286q-38 10 -90 10q-62 0 -115.5 -15.5t-98 -47.5t-70 -89t-25.5 -133v-569h-305v1118zM369 1569h301q77 -165 174 -301v-27h-162q-87 71 -185.5 165t-127.5 142v21zM-29 1548v21h301
q77 -165 174 -301v-27h-161q-88 72 -186.5 165.5t-127.5 141.5z" />
    <glyph glyph-name="uni0212" unicode="&#x212;" horiz-adv-x="1351" 
d="M494 0h-310v1462h426q298 0 441 -108t143 -330q0 -140 -75.5 -235.5t-196.5 -151.5l430 -637h-344l-349 561h-165v-561zM696 1923q175 0 278 -91.5t111 -246.5h-170q-4 34 -17 57.5t-31 36.5t-48 20t-57 9t-68 2q-207 0 -221 -125h-174q11 150 119.5 244t277.5 94z
M494 1208v-395h100q151 0 219 50.5t68 152.5q0 103 -70.5 147.5t-222.5 44.5h-94z" />
    <glyph glyph-name="uni0213" unicode="&#x213;" horiz-adv-x="929" 
d="M160 1118h231l45 -188h15q53 92 139.5 150.5t193.5 58.5q66 0 103 -9l-23 -286q-38 10 -90 10q-62 0 -115.5 -15.5t-98 -47.5t-70 -89t-25.5 -133v-569h-305v1118zM127 1241q11 150 119.5 244t277.5 94q175 0 278 -91.5t111 -246.5h-170q-4 34 -17 57.5t-31 36.5t-48 20
t-57 9t-68 2q-207 0 -221 -125h-174z" />
    <glyph glyph-name="uni0214" unicode="&#x214;" horiz-adv-x="1548" 
d="M768 -20q-285 0 -439.5 145.5t-154.5 394.5v942h309v-895q0 -178 71 -252.5t222 -74.5q152 0 220.5 79t68.5 250v893h309v-946q0 -115 -38 -212t-111.5 -169.5t-190.5 -113.5t-266 -41zM623 1892v21h301q77 -165 174 -301v-27h-162q-87 71 -185.5 165t-127.5 142z
M539 1585q-88 72 -186.5 165.5t-127.5 141.5v21h301q77 -165 174 -301v-27h-161z" />
    <glyph glyph-name="uni0215" unicode="&#x215;" horiz-adv-x="1345" 
d="M154 389v729h305v-653q0 -123 43.5 -182.5t136.5 -59.5q134 0 188 90.5t54 278.5v526h305v-1118h-234l-41 143h-16q-52 -83 -143 -123t-201 -40q-187 0 -292 100.5t-105 308.5zM522 1569h301q77 -165 174 -301v-27h-161q-88 72 -186.5 165.5t-127.5 141.5v21zM125 1548
v21h301q77 -165 174 -301v-27h-162q-87 71 -185.5 165t-127.5 142z" />
    <glyph glyph-name="uni0216" unicode="&#x216;" horiz-adv-x="1548" 
d="M174 1462h309v-895q0 -178 71 -252.5t222 -74.5q152 0 220.5 79t68.5 250v893h309v-946q0 -115 -38 -212t-111.5 -169.5t-190.5 -113.5t-266 -41q-285 0 -439.5 145.5t-154.5 394.5v942zM381 1585q11 150 119.5 244t277.5 94q175 0 278 -91.5t111 -246.5h-170
q-4 34 -17 57.5t-31 36.5t-48 20t-57 9t-68 2q-207 0 -221 -125h-174z" />
    <glyph glyph-name="uni0217" unicode="&#x217;" horiz-adv-x="1345" 
d="M154 1118h305v-653q0 -123 43.5 -182.5t136.5 -59.5q134 0 188 90.5t54 278.5v526h305v-1118h-234l-41 143h-16q-52 -83 -143 -123t-201 -40q-187 0 -292 100.5t-105 308.5v729zM281 1241q11 150 119.5 244t277.5 94q175 0 278 -91.5t111 -246.5h-170q-4 34 -17 57.5
t-31 36.5t-48 20t-57 9t-68 2q-207 0 -221 -125h-174z" />
    <glyph glyph-name="uni0218" unicode="&#x218;" horiz-adv-x="1128" 
d="M1047 406q0 -197 -142 -311.5t-397 -114.5q-234 0 -414 88v288q87 -37 145.5 -59t141 -41.5t151.5 -19.5q211 0 211 155q0 38 -17.5 68.5t-56 58t-77.5 48.5t-103 51q-20 9 -30 14q-37 17 -62.5 30t-65 37t-67 47.5t-58.5 58t-50 72t-32 87t-13 104.5q0 195 132.5 305.5
t362.5 110.5q110 0 210.5 -25t223.5 -78l-100 -241q-108 45 -186 65.5t-158 20.5q-86 0 -134 -40.5t-48 -107.5q0 -77 69 -123q69 -45 207 -110q72 -34 123.5 -64.5t98 -69.5t74.5 -81.5t44.5 -98.5t16.5 -124zM438 -125h283v-20q-83 -183 -166 -308h-178v27q44 164 61 301z
" />
    <glyph glyph-name="uni0219" unicode="&#x219;" horiz-adv-x="1017" 
d="M940 332q0 -172 -120.5 -262t-356.5 -90q-117 0 -200.5 15t-168.5 50v252q92 -42 196 -68t183 -26q166 0 166 96q0 31 -15 52t-67 50t-160 74q-85 36 -137.5 66.5t-93 71.5t-57.5 92t-17 122q0 152 118.5 232t324.5 80q207 0 393 -88l-92 -220q-190 82 -306 82
q-135 0 -135 -73q0 -41 42 -69.5t192 -90.5q81 -33 131.5 -60.5t95 -67.5t64.5 -93.5t20 -126.5zM399 -125h283v-20q-83 -183 -166 -308h-178v27q44 164 61 301z" />
    <glyph glyph-name="uni021A" unicode="&#x21a;" horiz-adv-x="1185" 
d="M41 1462h1104v-258h-397v-1204h-310v1204h-397v258zM422 -453v27q44 154 61 301h283v-20q-83 -183 -166 -308h-178z" />
    <glyph glyph-name="uni021B" unicode="&#x21b;" horiz-adv-x="888" 
d="M193 889h-146v129l168 102l88 236h195v-238h313v-229h-313v-539q0 -62 36 -94.5t97 -32.5q96 0 192 35v-227q-109 -51 -280 -51q-79 0 -139.5 17.5t-109.5 58.5t-75 115t-26 179v539zM322 -453v27q44 154 61 301h283v-20q-83 -183 -166 -308h-178z" />
    <glyph glyph-name="uni021C" unicode="&#x21c;" horiz-adv-x="1288" 
d="M104 -369v263q190 42 329.5 87.5t227.5 91.5t141 100t73 106t20 116q0 96 -44 158t-130 106q-151 -54 -361 -98l-49 225q67 16 107 25.5t95.5 24t88 25t73.5 25.5t64.5 28.5t49 31.5t38 36.5t21 41t8.5 47.5q0 164 -240 164q-203 0 -403 -119l-135 207q114 79 262 119.5
t305 40.5q244 0 378 -102t134 -302q0 -178 -199 -307q242 -131 242 -377q0 -285 -260 -466t-836 -298z" />
    <glyph glyph-name="uni021D" unicode="&#x21d;" horiz-adv-x="1036" 
d="M41 -492v244q323 66 477 154q150 85 150 231q0 139 -121 225q-104 -40 -275 -83l-55 217q236 61 327 119.5t91 144.5q0 68 -48.5 100.5t-129.5 32.5q-131 0 -301 -72l-90 221q174 97 393 97q208 0 335.5 -92t127.5 -269q0 -183 -164 -303q198 -108 198 -338
q0 -83 -24.5 -154t-66 -126t-108.5 -102t-139 -81t-171.5 -65.5t-192 -53.5t-213.5 -47z" />
    <glyph glyph-name="uni021E" unicode="&#x21e;" horiz-adv-x="1566" 
d="M184 0v1462h310v-573h579v573h309v-1462h-309v631h-579v-631h-310zM354 1913h203q138 -82 229 -176q74 80 234 176h203v-27q-66 -66 -142.5 -153.5t-113.5 -147.5h-357q-59 93 -256 301v27z" />
    <glyph glyph-name="uni021F" unicode="&#x21f;" horiz-adv-x="1345" 
d="M160 0v1556h305v-317q0 -168 -14 -264h16q103 164 324 164q188 0 294.5 -101t106.5 -309v-729h-305v653q0 242 -180 242q-132 0 -187 -91.5t-55 -277.5v-526h-305zM-113 1980v27h203q138 -82 229 -176q74 80 234 176h203v-27q-66 -66 -142.5 -153.5t-113.5 -147.5h-357
q-59 93 -256 301z" />
    <glyph glyph-name="uni0220" unicode="&#x220;" horiz-adv-x="1558" 
d="M913 1485q219 0 345 -121t126 -367v-1489h-309v1414q0 305 -258 305q-187 0 -254 -119q-69 -117 -69 -334v-774h-310v1462h236l49 -188h8q67 102 181 156.5t255 54.5z" />
    <glyph glyph-name="uni0221" unicode="&#x221;" horiz-adv-x="1775" 
d="M1235 -215l-234 10q8 132 35 260q-79 44 -92 109h-10q-46 -69 -133 -127q-86 -57 -246 -57q-223 0 -343 145.5t-120 431.5q0 281 116.5 431.5t313.5 150.5q217 0 322 -164h10l-3 23q-20 139 -20 200v358h306v-1095q0 -72 16 -131q128 181 336 178q137 -1 212 -62t75 -157
q0 -289 -426 -289q-39 0 -93 4q-20 -124 -22 -219zM621 223q121 0 173.5 72.5t57.5 226.5v33q0 170 -53 253t-183 83q-101 0 -158 -88t-57 -250t57 -246t163 -84zM1374 205q166 0 166 57q0 20 -19.5 30.5t-50.5 10.5q-89 0 -145 -96q16 -2 49 -2z" />
    <glyph glyph-name="uni0222" unicode="&#x222;" horiz-adv-x="1568" 
d="M784 -20q-336 0 -505.5 140.5t-169.5 387.5q0 143 72 252t212 168q-119 59 -168 155.5t-49 241.5v137h309v-135q0 -135 73.5 -209t227.5 -74q297 0 297 283v135h310v-135q0 -146 -50 -243t-169 -156q286 -117 286 -418q0 -245 -170 -387.5t-506 -142.5zM434 512
q0 -272 350 -272q351 0 351 272t-349 272q-352 0 -352 -272z" />
    <glyph glyph-name="uni0223" unicode="&#x223;" horiz-adv-x="1288" 
d="M641 -20q-243 0 -396 139t-153 389q0 313 275 428q-117 53 -165 154.5t-48 263.5v202h305v-202q0 -153 41 -225t143 -72t144 71.5t42 223.5v204h306v-204q0 -159 -52 -260.5t-170 -155.5q136 -55 209.5 -163t73.5 -261q0 -253 -150.5 -392.5t-404.5 -139.5zM403 514
q0 -289 242 -289q240 0 240 291q0 295 -242 295q-240 0 -240 -297z" />
    <glyph glyph-name="uni0224" unicode="&#x224;" horiz-adv-x="1185" 
d="M49 0v201l701 1005h-682v256h1050v-200l-700 -1006h719v-377q0 -165 -87 -268t-266 -103q-107 0 -184 25v240q56 -19 119 -19q123 0 123 170v76h-793z" />
    <glyph glyph-name="uni0225" unicode="&#x225;" horiz-adv-x="999" 
d="M86 1118h834v-198l-504 -687h522v-364q0 -174 -73 -257t-218 -83q-91 0 -164 27v213q51 -19 99 -19q53 0 77.5 27t24.5 92v131h-629v180l518 705h-487v233z" />
    <glyph glyph-name="uni0226" unicode="&#x226;" horiz-adv-x="1413" 
d="M334 0h-334l516 1468h379l518 -1468h-334l-106 348h-533zM623 948l-105 -340h381l-106 340q-85 289 -86 293q-12 -53 -41.5 -154.5t-42.5 -138.5zM545 1751q0 150 166 150t166 -150q0 -149 -166 -149t-166 149z" />
    <glyph glyph-name="uni0227" unicode="&#x227;" horiz-adv-x="1236" 
d="M432 -20q-157 0 -251.5 89t-94.5 265t122.5 260.5t377.5 95.5l194 6v49q0 170 -174 170q-136 0 -315 -81l-101 206q200 101 428 101t346.5 -98.5t118.5 -297.5v-745h-213l-59 152h-8q-75 -94 -155.5 -133t-215.5 -39zM662 514q-141 -4 -202 -51t-61 -131q0 -129 148 -129
q101 0 167 60t66 163v92zM623 1257q-166 0 -166 150q0 149 166 149q165 0 165 -149q0 -79 -45.5 -114.5t-119.5 -35.5z" />
    <glyph glyph-name="uni0228" unicode="&#x228;" horiz-adv-x="1146" 
d="M184 1462h842v-254h-532v-321h495v-254h-495v-377h532v-256h-303l-27 -61q69 -23 115.5 -71t46.5 -118q0 -121 -71 -181.5t-238 -60.5q-64 0 -146 21v168q82 -21 144 -21q71 0 71 62q0 84 -165 108l77 154h-346v1462z" />
    <glyph glyph-name="uni0229" unicode="&#x229;" horiz-adv-x="1210" 
d="M92 551q0 285 143 436.5t386 151.5q234 0 367.5 -133t133.5 -375v-148h-721q5 -130 78 -203t201 -73q193 0 379 88v-236q-79 -39 -162.5 -57.5t-196.5 -21.5l-18 -41q69 -23 115.5 -71t46.5 -118q0 -121 -71 -181.5t-238 -60.5q-64 0 -146 21v168q82 -21 143 -21
q72 0 72 62q0 84 -166 108l74 148q-195 38 -307.5 179t-112.5 378zM623 922q-93 0 -149 -58.5t-66 -177.5h428q-2 105 -56.5 170.5t-156.5 65.5z" />
    <glyph glyph-name="uni022A" unicode="&#x22a;" horiz-adv-x="1630" 
d="M1511 733q0 -172 -42 -309t-126.5 -237t-218 -153.5t-309.5 -53.5t-309.5 53.5t-218 153.5t-126.5 237.5t-42 310.5q0 172 42 308.5t126.5 236t218.5 152.5t311 53q175 0 308.5 -53t217.5 -152.5t126 -236.5t42 -310zM444 733q0 -237 91 -365t280 -128q371 0 371 493
q0 494 -369 494q-191 0 -282 -128.5t-91 -365.5zM477 2095h678v-190h-678v190zM612 1819q59 0 95 -32t36 -93q0 -58 -36 -90.5t-95 -32.5q-61 0 -95 32t-34 91q0 62 34 93.5t95 31.5zM1016 1819q59 0 95 -32t36 -93q0 -58 -36 -90.5t-95 -32.5q-58 0 -93.5 32t-35.5 91
q0 61 35 93t94 32z" />
    <glyph glyph-name="uni022B" unicode="&#x22b;" horiz-adv-x="1267" 
d="M1176 561q0 -278 -146 -430q-148 -151 -399 -151q-240 0 -389.5 154t-149.5 427q0 276 144.5 427t400.5 151q240 0 389.5 -153.5t149.5 -424.5zM403 561q0 -169 55.5 -252.5t176.5 -83.5q119 0 174 83.5t55 252.5t-55 250.5t-176 81.5q-120 0 -175 -82t-55 -250z
M297 1751h678v-190h-678v190zM432 1475q59 0 95 -32t36 -93q0 -58 -36 -90.5t-95 -32.5q-61 0 -95 32t-34 91q0 62 34 93.5t95 31.5zM836 1475q59 0 95 -32t36 -93q0 -58 -36 -90.5t-95 -32.5q-58 0 -93.5 32t-35.5 91q0 61 35 93t94 32z" />
    <glyph glyph-name="uni022C" unicode="&#x22c;" horiz-adv-x="1630" 
d="M1511 733q0 -172 -42 -309t-126.5 -237t-218 -153.5t-309.5 -53.5t-309.5 53.5t-218 153.5t-126.5 237.5t-42 310.5q0 172 42 308.5t126.5 236t218.5 152.5t311 53q175 0 308.5 -53t217.5 -152.5t126 -236.5t42 -310zM444 733q0 -237 91 -365t280 -128q371 0 371 493
q0 494 -369 494q-191 0 -282 -128.5t-91 -365.5zM1155 1905h-678v190h678v-190zM586 1585h-125q11 106 65 171t148 65q55 0 109.5 -22t99 -44t75.5 -22q39 0 58.5 21t30.5 67h124q-11 -107 -64 -171.5t-151 -64.5q-49 0 -103 22t-99.5 44t-75.5 22q-39 0 -59 -20.5
t-33 -67.5z" />
    <glyph glyph-name="uni022D" unicode="&#x22d;" horiz-adv-x="1267" 
d="M1176 561q0 -278 -146 -430q-148 -151 -399 -151q-240 0 -389.5 154t-149.5 427q0 276 144.5 427t400.5 151q240 0 389.5 -153.5t149.5 -424.5zM403 561q0 -169 55.5 -252.5t176.5 -83.5q119 0 174 83.5t55 252.5t-55 250.5t-176 81.5q-120 0 -175 -82t-55 -250z
M975 1561h-678v190h678v-190zM406 1241h-125q11 106 65 171t148 65q55 0 109.5 -22t99 -44t75.5 -22q39 0 58 21t30 67h125q-11 -107 -64 -171.5t-151 -64.5q-49 0 -103 22t-99.5 44t-75.5 22q-39 0 -59 -20.5t-33 -67.5z" />
    <glyph glyph-name="uni022E" unicode="&#x22e;" horiz-adv-x="1630" 
d="M1511 733q0 -172 -42 -309t-126.5 -237t-218 -153.5t-309.5 -53.5t-309.5 53.5t-218 153.5t-126.5 237.5t-42 310.5q0 172 42 308.5t126.5 236t218.5 152.5t311 53q175 0 308.5 -53t217.5 -152.5t126 -236.5t42 -310zM444 733q0 -237 91 -365t280 -128q371 0 371 493
q0 494 -369 494q-191 0 -282 -128.5t-91 -365.5zM819 1901q-166 0 -166 -150q0 -149 166 -149t166 149q0 150 -166 150z" />
    <glyph glyph-name="uni022F" unicode="&#x22f;" horiz-adv-x="1267" 
d="M1176 561q0 -278 -146 -430q-148 -151 -399 -151q-240 0 -389.5 154t-149.5 427q0 276 144.5 427t400.5 151q240 0 389.5 -153.5t149.5 -424.5zM403 561q0 -169 55.5 -252.5t176.5 -83.5q119 0 174 83.5t55 252.5t-55 250.5t-176 81.5q-120 0 -175 -82t-55 -250z
M639 1556q166 0 166 -149q0 -79 -45.5 -114.5t-120.5 -35.5q-166 0 -166 150q0 149 166 149z" />
    <glyph glyph-name="uni0230" unicode="&#x230;" horiz-adv-x="1630" 
d="M1511 733q0 -172 -42 -309t-126.5 -237t-218 -153.5t-309.5 -53.5t-309.5 53.5t-218 153.5t-126.5 237.5t-42 310.5q0 172 42 308.5t126.5 236t218.5 152.5t311 53q175 0 308.5 -53t217.5 -152.5t126 -236.5t42 -310zM444 733q0 -237 91 -365t280 -128q371 0 371 493
q0 494 -369 494q-191 0 -282 -128.5t-91 -365.5zM477 2089h678v-191h-678v191zM815 1812q59 0 95 -31.5t36 -92.5q0 -58 -36 -90.5t-95 -32.5q-58 0 -93.5 32t-35.5 91q0 61 35 92.5t94 31.5z" />
    <glyph glyph-name="uni0231" unicode="&#x231;" horiz-adv-x="1267" 
d="M1176 561q0 -278 -146 -430q-148 -151 -399 -151q-240 0 -389.5 154t-149.5 427q0 276 144.5 427t400.5 151q240 0 389.5 -153.5t149.5 -424.5zM403 561q0 -169 55.5 -252.5t176.5 -83.5q119 0 174 83.5t55 252.5t-55 250.5t-176 81.5q-120 0 -175 -82t-55 -250z
M297 1751h678v-190h-678v190zM635 1475q59 0 95 -32t36 -93q0 -58 -36 -90.5t-95 -32.5q-58 0 -93.5 32t-35.5 91q0 61 35 93t94 32z" />
    <glyph glyph-name="uni0232" unicode="&#x232;" horiz-adv-x="1277" 
d="M0 1462h336l303 -602l305 602h334l-485 -893v-569h-308v559zM301 1796h678v-211h-678v211z" />
    <glyph glyph-name="uni0233" unicode="&#x233;" horiz-adv-x="1165" 
d="M444 8l-444 1110h334l211 -629q27 -74 37 -194h6q12 110 43 194l207 629h327l-473 -1261q-65 -172 -185.5 -260.5t-281.5 -88.5q-72 0 -155 17v242q58 -13 120 -13q165 0 236 199zM924 1241h-678v211h678v-211z" />
    <glyph glyph-name="uni0234" unicode="&#x234;" horiz-adv-x="890" 
d="M221 -76l-143 74q64 121 106 182q-24 49 -24 215v1161h305v-1091q26 19 69.5 31t86.5 12q130 0 200 -67.5t70 -194.5q0 -124 -84.5 -195t-243.5 -71q-191 0 -272 67q-19 -26 -70 -123zM592 162q44 0 69 22.5t25 59.5q0 82 -96 82q-69 0 -125 -50q13 -114 127 -114z" />
    <glyph glyph-name="uni0235" unicode="&#x235;" horiz-adv-x="1576" 
d="M907 -76l-143 74q64 121 106 182q-24 49 -24 215v258q0 123 -39 182.5t-123 59.5q-122 0 -170.5 -90.5t-48.5 -278.5v-526h-305v1118h233l41 -143h17q49 83 134.5 123.5t190.5 40.5q177 0 276 -101t99 -309v-264q67 43 156 43q130 0 200 -67.5t70 -194.5
q0 -124 -83.5 -195t-244.5 -71q-186 0 -272 67q-19 -26 -70 -123zM1278 162q44 0 69 22.5t25 59.5q0 82 -96 82q-69 0 -125 -50q13 -114 127 -114z" />
    <glyph glyph-name="uni0236" unicode="&#x236;" horiz-adv-x="923" 
d="M47 1018l168 102l88 236h195v-238h313v-229h-313v-424q26 19 69.5 31t85.5 12q130 0 200.5 -67.5t70.5 -194.5q0 -124 -84.5 -195t-243.5 -71q-191 0 -272 67q-19 -26 -70 -123l-143 74q64 121 106 182q-24 49 -24 215v494h-146v129zM498 276q13 -114 127 -114
q44 0 69 22.5t25 59.5q0 82 -96 82q-69 0 -125 -50z" />
    <glyph glyph-name="uni0237" unicode="&#x237;" horiz-adv-x="624" 
d="M70 -492q-113 0 -201 25v240q66 -19 143 -19q148 0 148 170v1194h305v-1239q0 -166 -96 -268.5t-299 -102.5z" />
    <glyph glyph-name="uni0238" unicode="&#x238;" horiz-adv-x="1968" 
d="M92 559q0 277 115.5 428.5t306.5 151.5q211 0 317 -166h13q-13 136 -13 221v362h306v-362q0 -84 -13 -221h13q106 166 317 166q193 0 307.5 -151t114.5 -429q0 -282 -142.5 -430.5t-377.5 -148.5q-255 0 -375 188q-123 -188 -379 -188q-235 0 -372.5 147.5t-137.5 431.5z
M403 559q0 -174 54 -254t161 -80q111 0 162 78.5t51 259.5q0 174 -50 253t-169 79q-99 0 -154 -84.5t-55 -251.5zM1137 563q0 -181 51 -259.5t162 -78.5q107 0 161 80t54 254q0 167 -55 251.5t-154 84.5q-117 0 -168 -79.5t-51 -252.5z" />
    <glyph glyph-name="uni0239" unicode="&#x239;" horiz-adv-x="1968" 
d="M514 -20q-191 0 -306.5 151t-115.5 428q0 143 39 254.5t109 182t164.5 107t207.5 36.5q254 0 375 -189q124 189 379 189q233 0 371.5 -148.5t138.5 -431.5q0 -278 -114 -428.5t-308 -150.5q-211 0 -317 165h-13q13 -136 13 -221v-416h-306v416q0 84 13 221h-13
q-106 -165 -317 -165zM618 893q-107 0 -161 -80t-54 -254q0 -167 55 -251.5t154 -84.5q119 0 169 79t50 253q0 181 -51 259.5t-162 78.5zM1350 893q-111 0 -162 -78.5t-51 -259.5q0 -173 51 -252.5t168 -79.5q99 0 154 84.5t55 251.5q0 174 -54 254t-161 80z" />
    <glyph glyph-name="uni023A" unicode="&#x23a;" horiz-adv-x="1413" 
d="M0 0l516 1468h367l30 88h199l-123 -354l424 -1202h-334l-106 348h-281l-174 -502h-199l175 502h-54l-106 -348h-334zM623 948l-105 -340h66l166 479q-34 116 -43 154q-12 -53 -41.5 -154.5t-42.5 -138.5zM844 784l-62 -176h117z" />
    <glyph glyph-name="uni023B" unicode="&#x23b;" horiz-adv-x="1304" 
d="M969 1556h198l-45 -131q56 -18 111 -45l-100 -252q-16 8 -99 43l-321 -925q39 -8 92 -8q155 0 373 77v-260q-190 -75 -402 -75q-80 0 -151 12l-52 -146h-198l71 205q-164 83 -245.5 258t-81.5 420q0 166 46 304.5t131.5 238.5t216 155.5t292.5 55.5q57 0 135 -10z
M805 1225q-177 0 -272 -132t-95 -366q0 -266 109 -387l305 883q-16 2 -47 2z" />
    <glyph glyph-name="uni023C" unicode="&#x23c;" horiz-adv-x="1052" 
d="M614 -20q-54 0 -100 6l-147 -412h-199l166 465q-242 124 -242 514q0 151 40 264t113.5 183t172.5 104.5t223 34.5q30 0 84 -4l152 421h196l-164 -460q35 -13 80 -33l-90 -236q-8 3 -35 13.5t-41 15.5l-223 -627q14 -2 41 -2q162 0 313 97v-261q-70 -45 -147 -64t-193 -19
zM403 555q0 -134 39 -211l197 549q-236 -3 -236 -338z" />
    <glyph glyph-name="uni023D" unicode="&#x23d;" horiz-adv-x="1157" 
d="M47 596v254h137v612h310v-612h237v-254h-237v-340h593v-256h-903v596h-137z" />
    <glyph glyph-name="uni023E" unicode="&#x23e;" horiz-adv-x="1185" 
d="M438 1204h-397v258h942l49 94h164l-51 -98v-254h-133l-264 -504v-700h-310v113l-139 -267h-164l303 578v780zM748 1204v-190l100 190h-100z" />
    <glyph glyph-name="uni023F" unicode="&#x23f;" horiz-adv-x="1017" 
d="M705 -492q-70 0 -125 16t-92 40.5t-69.5 68t-53.5 84t-46 103.5q-39 90 -65 125q-34 46 -109 80q-12 4 -51 24v248q92 -42 196 -68t183 -26q166 0 166 96q0 31 -15 52t-67 50t-160 74q-85 36 -137.5 66.5t-93 71.5t-57.5 92t-17 122q0 152 118.5 232t324.5 80
q207 0 393 -88l-92 -220q-190 82 -306 82q-135 0 -135 -73q0 -41 42 -69.5t192 -90.5q81 -33 131.5 -60.5t95 -67.5t64.5 -93.5t20 -126.5q0 -159 -104.5 -248.5t-307.5 -101.5q33 -46 47 -82q36 -83 79 -114.5t112 -31.5q63 0 125 19v-238q-73 -27 -186 -27z" />
    <glyph glyph-name="uni0240" unicode="&#x240;" horiz-adv-x="999" 
d="M805 -492q-76 0 -137 17t-102 44t-74 69.5t-52.5 84t-38.5 97.5q-34 95 -81.5 137.5t-145.5 42.5h-119v180l518 705h-487v233h834v-198l-527 -713q113 -27 172 -101q55 -69 92 -151q47 -115 92 -158t117 -43q68 0 133 19v-238q-73 -27 -194 -27z" />
    <glyph glyph-name="uni0241" unicode="&#x241;" horiz-adv-x="980" 
d="M451 1485q222 0 351.5 -120t129.5 -308q0 -174 -91.5 -298t-281.5 -220v-539h-305v668q371 130 371 376q0 86 -57.5 140.5t-145.5 54.5q-81 0 -166.5 -31.5t-140.5 -66.5l-109 219q225 125 445 125z" />
    <glyph glyph-name="uni0242" unicode="&#x242;" horiz-adv-x="1001" 
d="M451 1139q222 0 349.5 -120t127.5 -308q0 -171 -91.5 -296t-279.5 -220v-195h-305v324q369 128 369 374q0 86 -57.5 140.5t-145.5 54.5q-92 0 -176 -35q-85 -39 -127 -63l-109 219q225 125 445 125z" />
    <glyph glyph-name="uni0243" unicode="&#x243;" horiz-adv-x="1376" 
d="M184 348h-164v199h164v915h455q301 0 446.5 -84.5t145.5 -285.5q0 -127 -59 -212.5t-166 -103.5v-10q59 -13 103 -35.5t81.5 -60.5t57.5 -100t20 -146q0 -197 -144.5 -310.5t-392.5 -113.5h-547v348zM657 1208h-163v-325h180q131 0 185 40.5t54 127.5q0 84 -60.5 120.5
t-195.5 36.5zM727 348h-233v-92h202q133 0 191.5 51.5t58.5 147.5q0 88 -60 135t-200 47h-192v-90h233v-199z" />
    <glyph glyph-name="uni0244" unicode="&#x244;" horiz-adv-x="1548" 
d="M0 932h174v530h309v-530h582v530h309v-530h174v-254h-174v-162q0 -115 -38 -212t-111.5 -169.5t-190.5 -113.5t-266 -41q-285 0 -439.5 145.5t-154.5 394.5v158h-174v254zM483 678v-111q0 -178 71 -252.5t222 -74.5q152 0 220.5 79t68.5 250v109h-582z" />
    <glyph glyph-name="uni0245" unicode="&#x245;" horiz-adv-x="1331" 
d="M0 0l496 1462h338l497 -1462h-313l-273 879q-68 258 -79 323q-13 -86 -76 -325l-277 -877h-313z" />
    <glyph glyph-name="uni0246" unicode="&#x246;" horiz-adv-x="1146" 
d="M184 0v1462h584l25 94h196l-24 -94h61v-254h-125l-82 -321h170v-254h-235l-97 -377h369v-256h-434l-39 -154h-197l39 154h-211zM705 1208h-211v-321h129zM494 385l63 248h-63v-248z" />
    <glyph glyph-name="uni0247" unicode="&#x247;" horiz-adv-x="1210" 
d="M92 551q0 285 143 436.5t386 151.5q32 0 86 -4l145 421h199l-164 -475q235 -125 235 -450v-148h-442l-92 -264q44 -12 92 -12q193 0 379 88v-236q-86 -42 -176 -60.5t-217 -18.5q-87 0 -156 14l-145 -420h-199l168 485q-242 145 -242 492zM623 922q-93 0 -149 -58.5
t-66 -177.5h143l82 236h-10zM799 829l-49 -143h86q-3 85 -37 143zM401 483q3 -76 31 -137l49 137h-80z" />
    <glyph glyph-name="uni0248" unicode="&#x248;" horiz-adv-x="677" 
d="M-152 -150q86 -20 146 -20q44 0 76 11t59 38.5t41 80.5t14 132v512h-184v254h184v604h310v-604h184v-254h-184v-510q0 -272 -123 -398t-340 -126q-115 0 -183 22v258z" />
    <glyph glyph-name="uni0249" unicode="&#x249;" horiz-adv-x="624" 
d="M-131 -227q66 -19 143 -19q148 0 148 170v547h-160v199h160v448h305v-448h160v-199h-160v-592q0 -166 -96 -268.5t-299 -102.5q-113 0 -201 25v240zM313 1257q-166 0 -166 150q0 149 166 149t166 -149q0 -79 -45.5 -114.5t-120.5 -35.5z" />
    <glyph glyph-name="uni024A" unicode="&#x24a;" horiz-adv-x="1587" 
d="M119 731q0 182 42.5 326.5t118.5 237t177.5 141.5t222.5 49q261 0 403 -178h9l30 155h281v-1587q0 -61 29.5 -92t78.5 -31q53 0 113 21v-234q-73 -31 -172 -31q-358 0 -358 361v70q0 145 2 237h-15q-68 -95 -164.5 -145.5t-240.5 -50.5q-121 0 -222 48.5t-176 141
t-117 236.5t-42 325zM764 1225q-146 0 -233 -129.5t-87 -368.5q0 -243 87 -365t239 -122q324 0 324 489v64q0 214 -78 323t-252 109z" />
    <glyph glyph-name="uni024B" unicode="&#x24b;" horiz-adv-x="1296" 
d="M520 1139q212 0 324 -164h8l27 143h258v-1243q0 -57 28.5 -90t79.5 -33q55 0 113 21v-234q-63 -31 -187 -31q-187 0 -264 99q-76 98 -76 262v76q0 63 13 200h-13q-102 -165 -317 -165q-194 0 -308 149.5t-114 427.5q0 288 119 434q121 148 309 148zM618 891
q-215 0 -215 -338q0 -334 220 -334q123 0 173.5 71.5t55.5 227.5v37q0 169 -53 252.5t-181 83.5z" />
    <glyph glyph-name="uni024C" unicode="&#x24c;" horiz-adv-x="1351" 
d="M20 561v252h164v649h426q298 0 441 -108t143 -330q0 -140 -75.5 -235.5t-196.5 -151.5l430 -637h-344l-349 561h-165v-561h-310v561h-164zM494 1208v-395h100q151 0 219 50.5t68 152.5q0 103 -70.5 147.5t-222.5 44.5h-94z" />
    <glyph glyph-name="uni024D" unicode="&#x24d;" horiz-adv-x="929" 
d="M0 653h160v465h231l45 -188h15q53 92 139.5 150.5t193.5 58.5q66 0 103 -9l-23 -286q-38 10 -90 10q-110 0 -193 -49t-106 -152h211v-198h-221v-455h-305v455h-160v198z" />
    <glyph glyph-name="uni024E" unicode="&#x24e;" horiz-adv-x="1277" 
d="M0 1268h104l-104 194h336l98 -194h412l98 194h334l-107 -194h107v-199h-213l-272 -500v-569h-308v559l-274 510h-211v199zM745 1069h-210l104 -209z" />
    <glyph glyph-name="uni024F" unicode="&#x24f;" horiz-adv-x="1165" 
d="M131 788l-131 330h334l110 -330h285l109 330h327l-123 -330h103v-198h-178l-275 -733q-65 -172 -185.5 -260.5t-281.5 -88.5q-72 0 -155 17v242q58 -13 120 -13q165 0 236 199l18 55l-233 582h-191v198h111zM512 590l33 -101q27 -74 37 -194h6q12 110 43 194l33 101h-152
z" />
    <glyph glyph-name="uni0250" unicode="&#x250;" horiz-adv-x="1236" 
d="M154 373v745h213l59 -151h8q75 94 155.5 133t215.5 39q157 0 251.5 -89.5t94.5 -265.5t-122.5 -260.5t-377.5 -95.5l-194 -6v-49q0 -170 174 -170q134 0 315 82l101 -207q-200 -101 -429 -101q-464 0 -464 396zM690 915q-101 0 -167 -60t-66 -163v-92l118 4q141 4 202 51
t61 131q0 129 -148 129z" />
    <glyph glyph-name="uni0251" unicode="&#x251;" horiz-adv-x="1296" 
d="M514 -20q-186 0 -303 147q-119 143 -119 430q0 281 116.5 431.5t313.5 150.5q217 0 322 -164h8l27 143h258v-1118h-234l-59 145h-13q-106 -165 -317 -165zM621 219q122 0 176.5 74t54.5 229v33q0 170 -53 253t-183 83q-101 0 -158 -86.5t-57 -251.5q0 -168 56.5 -251
t163.5 -83z" />
    <glyph glyph-name="uni0252" unicode="&#x252;" horiz-adv-x="1296" 
d="M782 1139q183 0 305 -146q117 -147 117 -432q0 -281 -116.5 -431t-313.5 -150q-216 0 -321 163h-9l-26 -143h-258v1118h233l60 -145h12q106 166 317 166zM676 899q-123 0 -177.5 -74t-54.5 -229v-33q0 -170 53 -253t183 -83q101 0 158 86.5t57 251.5q0 334 -219 334z" />
    <glyph glyph-name="uni0253" unicode="&#x253;" horiz-adv-x="1296" 
d="M518 1567q64 0 160 -31v-233q-58 20 -113 20q-97 0 -100 -115v-14q0 -77 -12 -221h12q106 166 317 166q194 0 308 -150t114 -428q0 -281 -116.5 -431t-313.5 -150q-112 0 -184.5 39t-124.5 104h-21l-51 -123h-233v1214q0 182 95 267.5t263 85.5zM684 895q-117 0 -167 -76
t-52 -244q0 -179 50 -263.5t173 -84.5q95 0 150 88t55 250q0 161 -55 245.5t-154 84.5z" />
    <glyph glyph-name="uni0254" unicode="&#x254;" horiz-adv-x="1052" 
d="M424 1139q255 0 396 -144.5t141 -433.5q0 -285 -142 -433t-397 -148q-111 0 -186 19t-148 64v261q80 -49 150.5 -73t160.5 -24q115 0 182.5 86t67.5 248q0 163 -69 247.5t-191 84.5q-100 0 -239 -66l-87 236q142 76 361 76z" />
    <glyph glyph-name="uni0255" unicode="&#x255;" horiz-adv-x="1126" 
d="M666 1139q110 0 188.5 -20t155.5 -56l-90 -236q-80 34 -136.5 50t-117.5 16q-135 0 -199 -82.5t-64 -255.5q0 -37 9 -90q134 121 319 121q153 0 240.5 -77t87.5 -208q0 -84 -33 -147.5t-91.5 -100.5t-130.5 -55t-157 -18q-206 0 -325 79q-38 -69 -74 -168l-152 68
q40 109 101 215q-105 146 -105 379q0 298 152.5 442t421.5 144zM711 403q-72 0 -133 -32t-103 -78q66 -90 201 -90q71 0 116.5 29t45.5 77q0 44 -32.5 69t-94.5 25z" />
    <glyph glyph-name="uni0256" unicode="&#x256;" horiz-adv-x="1296" 
d="M92 557q0 281 116.5 431.5t313.5 150.5q200 0 309 -146q2 -3 6.5 -9t6.5 -9h10l-3 23q-20 139 -20 200v358h306v-1681q0 -57 28.5 -90t79.5 -33q55 0 113 21v-234q-63 -31 -187 -31q-181 0 -260.5 93.5t-79.5 267.5v76q0 76 13 200h-13q-106 -165 -317 -165
q-191 0 -306.5 150t-115.5 427zM401 553q0 -162 57 -246t163 -84q57 0 98.5 16.5t65.5 42.5t39 67t20.5 80.5t7.5 92.5v33q0 56 -4.5 99t-19 90t-39 77.5t-69 50t-104.5 19.5q-101 0 -158 -88t-57 -250z" />
    <glyph glyph-name="uni0257" unicode="&#x257;" horiz-adv-x="1296" 
d="M514 -20q-186 0 -303 147q-119 143 -119 430q0 281 116.5 431.5t313.5 150.5q217 0 322 -164h10l-1 7q-1 7 -3 20.5t-4.5 31t-5 38.5t-4.5 42t-3.5 43.5t-1.5 40.5v16q0 183 89.5 270t265.5 87q76 0 172 -31v-233q-58 20 -111 20q-51 0 -80.5 -31.5t-29.5 -91.5v-1204
h-234l-59 145h-13q-106 -165 -317 -165zM621 223q121 0 173.5 72.5t57.5 226.5v33q0 170 -53 253t-183 83q-101 0 -158 -88t-57 -250t57 -246t163 -84z" />
    <glyph glyph-name="uni0258" unicode="&#x258;" horiz-adv-x="1210" 
d="M590 1139q243 0 385.5 -151.5t142.5 -436.5q0 -142 -42.5 -252t-119 -179t-180.5 -104.5t-231 -35.5t-217 18.5t-176 60.5v236q186 -88 378 -88q128 0 201 73t78 203h-721v148q0 242 134 375t368 133zM588 922q-102 0 -156.5 -65.5t-56.5 -170.5h428q-10 119 -66 177.5
t-149 58.5z" />
    <glyph glyph-name="uni0259" unicode="&#x259;" horiz-adv-x="1210" 
d="M545 1139q127 0 231 -35.5t180.5 -105t119 -179.5t42.5 -252q0 -285 -142.5 -436t-385.5 -151q-234 0 -368 132.5t-134 374.5v148h721q-5 130 -78 203t-201 73q-106 0 -193.5 -21t-184.5 -67v236q83 42 174.5 61t218.5 19zM803 432h-428q2 -105 55.5 -170t157.5 -65
q92 0 150 59t65 176z" />
    <glyph glyph-name="uni025A" unicode="&#x25a;" horiz-adv-x="1714" 
d="M604 -20q-238 0 -375 132.5t-137 374.5l739 203q-29 115 -97.5 168t-186.5 53q-199 0 -391 -88v236q86 42 179.5 61t221.5 19q213 0 361 -94.5t198 -276.5l236 70l28 -107q27 -100 52 -136t73 -36q72 0 142 53l67 -180q-108 -84 -235 -84q-105 0 -174 57.5t-107 182.5
l-55 -21q0 -130 -32.5 -236t-97 -185t-168.5 -122.5t-241 -43.5zM600 197q236 0 236 295l-451 -121q39 -174 215 -174z" />
    <glyph glyph-name="uni025B" unicode="&#x25b;" horiz-adv-x="1136" 
d="M686 688h154v-211h-168q-155 0 -224 -34t-69 -103q0 -125 268 -125q220 0 412 86v-244q-164 -77 -434 -77q-279 0 -413 86.5t-134 242.5q0 117 70.5 180.5t201.5 88.5v10q-213 48 -213 258q0 77 37.5 135t105.5 92t154 50t191 16q116 0 232.5 -22.5t203.5 -61.5l-94 -221
q-92 39 -167 59t-167 20q-223 0 -223 -104q0 -65 65.5 -93t210.5 -28z" />
    <glyph glyph-name="uni025C" unicode="&#x25c;" horiz-adv-x="1136" 
d="M567 1139q126 0 227.5 -30.5t167.5 -99.5t66 -167q0 -187 -223 -246v-10q121 -28 187.5 -86.5t66.5 -173.5q0 -71 -33.5 -132t-99 -109.5t-173 -76.5t-245.5 -28q-283 0 -430 69v252q184 -86 387 -86q119 0 211 29q86 27 86 100q0 133 -318 133h-118v211h112
q161 0 239.5 26t78.5 91q0 55 -54 81.5t-174 26.5q-187 0 -352 -71l-90 213q221 84 481 84z" />
    <glyph glyph-name="uni025D" unicode="&#x25d;" horiz-adv-x="1617" 
d="M567 1139q150 0 269 -45q123 -47 170 -146l249 76l29 -104q28 -99 52.5 -135.5t72.5 -36.5q71 0 141 53l68 -180q-108 -84 -236 -84q-102 0 -171 57t-109 182l-92 -28q-43 -111 -205 -152v-10q121 -28 187.5 -86.5t66.5 -173.5q0 -71 -33.5 -132t-99 -109.5t-173 -76.5
t-245.5 -28q-283 0 -430 69v252q184 -86 387 -86q119 0 211 29q86 27 86 100q0 133 -318 133h-118v211h112q161 0 239.5 26t78.5 91q0 55 -54 81.5t-174 26.5q-187 0 -352 -71l-90 213q221 84 481 84z" />
    <glyph glyph-name="uni025E" unicode="&#x25e;" horiz-adv-x="1288" 
d="M698 1139q230 0 356 -78.5t126 -231.5q0 -96 -57.5 -154t-166.5 -89v-11q112 -22 181 -71q73 -52 73 -164q0 -167 -146 -263.5t-388 -96.5q-127 0 -231.5 34.5t-184.5 104t-124 182.5t-44 260q0 135 46.5 245.5t128 182.5t192 111t239.5 39zM690 913q-126 0 -206.5 -92
t-80.5 -260q0 -99 21 -169t60.5 -107.5t87.5 -53.5t110 -16q101 0 166 33.5t65 101.5q0 66 -60.5 91.5t-209.5 25.5h-39v211h33q149 0 209.5 26t60.5 97q0 52 -61.5 82t-155.5 30z" />
    <glyph glyph-name="uni025F" unicode="&#x25f;" horiz-adv-x="624" 
d="M-131 -227q66 -19 143 -19q148 0 148 170v547h-162v199h162v448h305v-448h160v-199h-160v-592q0 -166 -96 -268.5t-299 -102.5q-113 0 -201 25v240z" />
    <glyph glyph-name="uni0260" unicode="&#x260;" horiz-adv-x="1296" 
d="M92 557q0 274 114 428t316 154q193 0 309 -146q2 -3 7.5 -9t7.5 -9h8q-23 152 -23 223v16q0 183 89.5 270t265.5 87q76 0 172 -31v-233q-58 20 -111 20q-51 0 -80.5 -31.5t-29.5 -91.5v-1206q0 -240 -141.5 -365t-417.5 -125q-244 0 -418 66v244q207 -86 436 -86
q235 0 235 254v22v82q0 10 5 55h-5q-107 -165 -317 -165q-198 0 -310 153t-112 424zM403 553q0 -334 220 -334q71 0 118.5 23t70.5 67t31.5 92.5t8.5 116.5v37q0 57 -4 99.5t-18.5 89.5t-39 77t-68.5 50t-104 20q-215 0 -215 -338z" />
    <glyph glyph-name="uni0261" unicode="&#x261;" horiz-adv-x="1296" 
d="M522 1139q207 0 324 -164h8l25 143h258v-1120q0 -240 -141.5 -365t-417.5 -125q-244 0 -418 66v244q207 -86 436 -86q235 0 235 254v22q0 79 9 137h-9q-107 -165 -317 -165q-198 0 -310 153t-112 424q0 274 114 428t316 154zM618 891q-215 0 -215 -338q0 -334 220 -334
q120 0 174.5 68.5t54.5 230.5v37q0 179 -55 257.5t-179 78.5z" />
    <glyph glyph-name="uni0262" unicode="&#x262;" horiz-adv-x="1226" 
d="M698 1139q208 0 387 -86l-90 -236q-145 76 -280 76t-223.5 -84t-88.5 -248q0 -336 277 -336q58 0 131 17v188h-213v203h506v-565q-202 -88 -455 -88q-286 0 -422 157q-135 156 -135 424q0 125 38 229t111.5 182.5t190.5 122.5t266 44z" />
    <glyph glyph-name="uni0263" unicode="&#x263;" horiz-adv-x="1165" 
d="M412 227l-412 891h319l199 -473q21 -48 38.5 -114t21.5 -115h6q12 101 65 231l197 471h319l-428 -915q127 -251 127 -402q0 -129 -78 -211t-215 -82q-138 0 -213 80.5t-75 214.5q0 94 31.5 191.5t97.5 232.5zM573 43q-69 -127 -69 -238q0 -114 69 -114q70 0 70 110
q0 105 -70 242z" />
    <glyph glyph-name="uni0264" unicode="&#x264;" horiz-adv-x="1165" 
d="M1014 1139q88 0 151 -29v-225q-42 10 -63 10q-54 0 -87.5 -25.5t-92.5 -101.5l-160 -209q57 -85 86 -154.5t29 -148.5q0 -117 -76 -199q-78 -84 -217 -84q-137 0 -213 79.5t-76 205.5q0 84 25.5 152t76.5 147l-153 205q-54 71 -92.5 102t-79.5 31q-27 0 -72 -10v225
q63 29 147 29q156 0 269 -154l73 -102q42 -58 95 -142h8q53 93 92 144l72 98q55 78 115 117t143 39zM586 414q-70 -90 -70 -168q0 -38 19.5 -64t50.5 -26q34 0 51.5 24.5t17.5 61.5q0 80 -69 172z" />
    <glyph glyph-name="uni0265" unicode="&#x265;" horiz-adv-x="1345" 
d="M154 389v729h305v-653q0 -242 180 -242q132 0 187 91.5t55 277.5v526h305v-1556h-305v317q0 168 14 264h-16q-102 -163 -324 -163q-188 0 -294.5 100.5t-106.5 308.5z" />
    <glyph glyph-name="uni0266" unicode="&#x266;" horiz-adv-x="1345" 
d="M465 0h-305v1214q0 182 95 267.5t263 85.5q64 0 160 -31v-233q-58 20 -113 20q-100 0 -100 -115v-39q0 -161 -14 -215h16q103 164 324 164q188 0 294.5 -100.5t106.5 -308.5v-709h-305v633q0 241 -180 241q-132 0 -187 -91t-55 -277v-506z" />
    <glyph glyph-name="uni0267" unicode="&#x267;" horiz-adv-x="1345" 
d="M160 0v1214q0 182 95 267.5t263 85.5q64 0 160 -31v-233q-58 20 -113 20q-100 0 -100 -115v-18q0 -161 -14 -215h16q102 164 328 164q187 0 292 -101t105 -309v-850q0 -79 -20.5 -144.5t-62.5 -117.5t-113.5 -80.5t-166.5 -28.5q-100 0 -184 25v240q56 -19 119 -19
q123 0 123 170v752q0 219 -180 219q-134 0 -188 -90.5t-54 -278.5v-526h-305z" />
    <glyph glyph-name="uni0268" unicode="&#x268;" horiz-adv-x="624" 
d="M160 471h-160v199h160v448h305v-448h160v-199h-160v-471h-305v471zM147 1407q0 149 166 149t166 -149q0 -79 -45.5 -114.5t-120.5 -35.5q-166 0 -166 150z" />
    <glyph glyph-name="uni0269" unicode="&#x269;" horiz-adv-x="833" 
d="M160 1118h305v-768q0 -62 36 -94.5t97 -32.5q97 0 193 35v-227q-97 -51 -263 -51q-82 0 -145.5 17.5t-115.5 58.5t-79.5 115t-27.5 179v768z" />
    <glyph glyph-name="uni026A" unicode="&#x26a;" horiz-adv-x="739" 
d="M698 0h-657v147l176 86v652l-176 86v147h657v-147l-176 -86v-652l176 -86v-147z" />
    <glyph glyph-name="uni026B" unicode="&#x26b;" horiz-adv-x="890" 
d="M0 610q4 147 76 227.5t182 80.5q20 0 35 -3v641h305v-735q1 0 20.5 -4t30.5 -4q71 0 92 109h150q-4 -148 -74 -229t-178 -81q-13 0 -41 4v-616h-305v711q-27 6 -51 6q-74 0 -92 -107h-150z" />
    <glyph glyph-name="uni026C" unicode="&#x26c;" horiz-adv-x="829" 
d="M252 598q-137 0 -204.5 59.5t-67.5 161.5q0 104 61.5 166t169.5 62q61 0 113 -37v546h305v-800h200v-158h-200v-598h-305v598h-72zM164 823q0 -67 98 -67h62v28q0 105 -88 105q-72 0 -72 -66z" />
    <glyph glyph-name="uni026D" unicode="&#x26d;" horiz-adv-x="624" 
d="M500 -492q-188 0 -264 99q-76 98 -76 262v1687h305v-1681q0 -57 28.5 -90t79.5 -33q55 0 113 21v-234q-63 -31 -186 -31z" />
    <glyph glyph-name="uni026E" unicode="&#x26e;" horiz-adv-x="1556" 
d="M160 0v1556h305v-438h967v-198l-443 -414q106 -12 189 -43.5t138.5 -77t92 -106.5t52.5 -129t16 -148q0 -222 -155.5 -358t-455.5 -136q-250 0 -442 80v262q95 -46 209 -71t211 -25q171 0 247 73.5t76 188.5q0 269 -399 269h-119v217l406 383h-590v-885h-305z" />
    <glyph glyph-name="uni026F" unicode="&#x26f;" horiz-adv-x="2011" 
d="M154 389v729h305v-653q0 -242 168 -242q118 0 170.5 83.5t52.5 250.5v561h305v-653q0 -242 168 -242q123 0 173 91t50 278v526h305v-1118h-233l-41 143h-16q-49 -82 -136 -122.5t-190 -40.5q-249 0 -340 163h-27q-48 -82 -136.5 -122.5t-192.5 -40.5q-194 0 -289.5 98.5
t-95.5 310.5z" />
    <glyph glyph-name="uni0270" unicode="&#x270;" horiz-adv-x="2011" 
d="M154 389v729h305v-653q0 -242 168 -242q118 0 170.5 83.5t52.5 250.5v561h305v-653q0 -242 168 -242q123 0 173 91t50 278v526h305v-1610h-305v469q0 85 13 168h-13q-103 -165 -311 -165q-249 0 -340 163h-27q-48 -82 -136.5 -122.5t-192.5 -40.5q-194 0 -289.5 98.5
t-95.5 310.5z" />
    <glyph glyph-name="uni0271" unicode="&#x271;" horiz-adv-x="2011" 
d="M160 0v1118h233l41 -143h17q49 82 135.5 123t189.5 41q249 0 340 -164h27q49 82 138 123t192 41q193 0 289 -99t96 -311v-850q0 -79 -20.5 -144.5t-62.5 -117.5t-113.5 -80.5t-166.5 -28.5q-107 0 -184 25v240q56 -19 119 -19q122 0 122 170v729q0 242 -168 242
q-118 0 -170.5 -83.5t-52.5 -250.5v-561h-305v653q0 242 -168 242q-123 0 -173 -91t-50 -278v-526h-305z" />
    <glyph glyph-name="uni0272" unicode="&#x272;" horiz-adv-x="1345" 
d="M795 1139q187 0 292 -101t105 -309v-729h-305v653q0 123 -43.5 182.5t-136.5 59.5q-134 0 -188 -90.5t-54 -278.5v-647q0 -80 -18.5 -145t-58 -117t-109 -80.5t-164.5 -28.5q-118 0 -176 31v234q58 -21 112 -21q51 0 80 33t29 90v1243h233l41 -143h17q52 83 143 123.5
t201 40.5z" />
    <glyph glyph-name="uni0273" unicode="&#x273;" horiz-adv-x="1345" 
d="M1192 729v-854q0 -57 28.5 -90t79.5 -33q54 0 113 21v-234q-58 -31 -186 -31q-187 0 -264 99q-76 98 -76 262v784q0 123 -43.5 182.5t-136.5 59.5q-134 0 -188 -90.5t-54 -278.5v-526h-305v1118h233l41 -143h17q52 83 143 123.5t201 40.5q187 0 292 -101t105 -309z" />
    <glyph glyph-name="uni0274" unicode="&#x274;" horiz-adv-x="1474" 
d="M160 0v1118h366l516 -784q-22 257 -22 342v442h295v-1118h-369l-512 782q0 -28 10.5 -164t10.5 -172v-446h-295z" />
    <glyph glyph-name="uni0275" unicode="&#x275;" horiz-adv-x="1267" 
d="M1176 561q0 -278 -146 -430q-148 -151 -399 -151q-240 0 -389.5 154t-149.5 427q0 276 144.5 427t400.5 151q240 0 389.5 -153.5t149.5 -424.5zM633 893q-195 0 -225 -225h450q-27 225 -225 225zM635 225q196 0 223 232h-450q30 -232 227 -232z" />
    <glyph glyph-name="uni0276" unicode="&#x276;" horiz-adv-x="1785" 
d="M92 561q0 277 142 427.5t399 150.5q133 0 231 -56v35h799v-229h-494v-197h463v-229h-463v-230h494v-233h-799v39q-93 -59 -239 -59q-237 0 -385 154t-148 427zM633 893q-120 0 -175 -82t-55 -250q0 -169 55.5 -252.5t176.5 -83.5q119 0 174 83.5t55 252.5t-55 250.5
t-176 81.5z" />
    <glyph glyph-name="uni0277" unicode="&#x277;" horiz-adv-x="1699" 
d="M854 1139q180 0 323 -48t236 -135t142 -208t49 -267q0 -234 -112.5 -367.5t-317.5 -133.5q-237 0 -320 210h-10q-83 -210 -320 -210q-205 0 -317.5 133.5t-112.5 367.5q0 297 202 477.5t558 180.5zM848 893q-122 0 -215 -32t-148 -89t-82.5 -130t-27.5 -161
q0 -127 44 -195.5t130 -68.5q88 0 124 62.5t36 187.5v197h280v-197q0 -125 36 -187.5t124 -62.5q86 0 130 67.5t44 192.5q0 88 -27 161.5t-82.5 131.5t-148.5 90.5t-217 32.5z" />
    <glyph glyph-name="uni0278" unicode="&#x278;" horiz-adv-x="1667" 
d="M92 559q0 247 150.5 396t451.5 169v432h283v-432q286 -24 442 -175.5t156 -389.5q0 -241 -152.5 -392t-445.5 -175v-484h-283v484q-285 26 -443.5 178.5t-158.5 388.5zM694 895q-133 -19 -210.5 -110.5t-77.5 -225.5q0 -138 76.5 -228.5t211.5 -107.5v672zM977 891v-668
q135 17 210 107.5t75 228.5q0 135 -76.5 225t-208.5 107z" />
    <glyph glyph-name="uni0279" unicode="&#x279;" horiz-adv-x="929" 
d="M145 -20q-69 0 -102 8l23 286q38 -10 90 -10q62 0 115.5 15.5t98 47.5t70 89t25.5 133v569h305v-1118h-231l-45 188h-15q-53 -92 -140 -150t-194 -58z" />
    <glyph glyph-name="uni027A" unicode="&#x27a;" horiz-adv-x="929" 
d="M145 -20q-69 0 -102 8l23 286q38 -10 90 -10q62 0 115.5 15.5t98 47.5t70 89t25.5 133v1007h305v-1556h-231l-45 188h-15q-53 -92 -140 -150t-194 -58z" />
    <glyph glyph-name="uni027B" unicode="&#x27b;" horiz-adv-x="929" 
d="M145 -20q-69 0 -102 8l23 286q38 -10 90 -10q62 0 115.5 15.5t98 47.5t70 89t25.5 133v569h305v-1243q0 -123 100 -123q54 0 113 21v-234q-58 -31 -186 -31q-176 0 -254 93.5t-78 267.5v59q0 140 12 242h-10q0 -1 -1 -2t-1 -2q-54 -83 -135 -134.5t-185 -51.5z" />
    <glyph glyph-name="uni027C" unicode="&#x27c;" horiz-adv-x="929" 
d="M784 1139q66 0 103 -9l-23 -286q-38 10 -90 10q-62 0 -115.5 -15.5t-98 -47.5t-70 -89t-25.5 -133v-1061h-305v1610h231l45 -188h15q53 92 139.5 150.5t193.5 58.5z" />
    <glyph glyph-name="uni027D" unicode="&#x27d;" horiz-adv-x="929" 
d="M784 1139q66 0 103 -9l-23 -286q-38 10 -90 10q-62 0 -115.5 -15.5t-98 -47.5t-70 -89t-25.5 -133v-694q0 -57 28.5 -90t79.5 -33q55 0 113 21v-234q-63 -31 -186 -31q-188 0 -264 99q-76 98 -76 262v1249h231l45 -188h15q53 92 139.5 150.5t193.5 58.5z" />
    <glyph glyph-name="uni027E" unicode="&#x27e;" horiz-adv-x="815" 
d="M535 1143q134 0 237 -33l-35 -248q-59 21 -129 21q-149 0 -149 -164v-719h-305v735q0 408 381 408z" />
    <glyph glyph-name="uni027F" unicode="&#x27f;" horiz-adv-x="815" 
d="M281 1143q381 0 381 -408v-1227h-306v1211q0 164 -149 164q-71 0 -129 -21l-35 248q103 33 238 33z" />
    <glyph glyph-name="uni0280" unicode="&#x280;" horiz-adv-x="1239" 
d="M477 0h-305v1118h530q204 0 323.5 -86t119.5 -252q0 -225 -236 -309l330 -471h-334l-270 416h-158v-416zM477 903v-282h176q88 0 140.5 40t52.5 109q0 58 -41.5 95.5t-122.5 37.5h-205z" />
    <glyph glyph-name="uni0281" unicode="&#x281;" horiz-adv-x="1239" 
d="M702 0h-530v1118h305v-416h158l270 416h334l-330 -471q236 -84 236 -309q0 -166 -119.5 -252t-323.5 -86zM477 498v-283h205q81 0 122.5 37.5t41.5 95.5q0 69 -52.5 109.5t-140.5 40.5h-176z" />
    <glyph glyph-name="uni0282" unicode="&#x282;" horiz-adv-x="1017" 
d="M940 332q0 -171 -119.5 -261.5t-347.5 -90.5q-67 0 -125 14v-148q0 -78 33 -98q35 -18 68 -18q55 0 100 18v-213q-70 -27 -166 -27q-289 0 -289 338v451q92 -42 196 -68t183 -26q166 0 166 96q0 31 -15 52t-67 50t-160 74q-85 36 -137.5 66.5t-93 71.5t-57.5 92t-17 122
q0 152 118.5 232t324.5 80q207 0 393 -88l-92 -220q-190 82 -306 82q-135 0 -135 -73q0 -41 42 -69.5t192 -90.5q81 -33 131.5 -60.5t95 -67.5t64.5 -93.5t20 -126.5z" />
    <glyph glyph-name="uni0283" unicode="&#x283;" horiz-adv-x="624" 
d="M514 1571q76 0 172 -31v-233q-57 20 -111 20q-51 0 -80.5 -31.5t-29.5 -91.5v-1325q0 -80 -18.5 -145t-58 -117t-109 -80.5t-164.5 -28.5q-118 0 -176 31v234q58 -21 112 -21q51 0 80 33t29 90v1339q0 183 89 270t265 87z" />
    <glyph glyph-name="uni0284" unicode="&#x284;" horiz-adv-x="624" 
d="M115 -492q-118 0 -176 31v234q58 -21 112 -21q51 0 80 33t29 90v633h-160v229h160v477q0 183 89 270t265 87q76 0 172 -31v-233q-57 20 -111 20q-51 0 -80.5 -31.5t-29.5 -91.5v-467h160v-229h-160v-629q0 -80 -18.5 -145t-58 -117t-109 -80.5t-164.5 -28.5z" />
    <glyph glyph-name="uni0285" unicode="&#x285;" horiz-adv-x="624" 
d="M510 -492q-185 0 -267.5 97t-82.5 264v903q0 60 -30 91.5t-81 31.5q-50 0 -110 -21v234q23 12 71 21.5t101 9.5q180 0 267 -85.5t87 -271.5v-907q0 -57 28.5 -90t79.5 -33q55 0 113 21v-234q-63 -31 -176 -31z" />
    <glyph glyph-name="uni0286" unicode="&#x286;" horiz-adv-x="624" 
d="M109 -492q-142 0 -218.5 69.5t-76.5 170.5q0 115 73 183.5t217 68.5h56v1214q0 183 89 270t265 87q76 0 172 -31v-233q-57 20 -111 20q-51 0 -80.5 -31.5t-29.5 -91.5v-1204h139v-158h-141q-13 -155 -100.5 -244.5t-253.5 -89.5zM111 -158q-54 0 -83.5 -26t-29.5 -66
q0 -32 20 -53t54 -21q40 0 64 25.5t24 77.5v63h-49z" />
    <glyph glyph-name="uni0287" unicode="&#x287;" horiz-adv-x="888" 
d="M258 895q-96 0 -192 -35v227q111 52 280 52q79 0 139.5 -18t109.5 -58.5t75 -115t26 -179.5v-539h146v-129l-168 -102l-88 -236h-195v238h-313v229h313v539q0 62 -36 94.5t-97 32.5z" />
    <glyph glyph-name="uni0288" unicode="&#x288;" horiz-adv-x="888" 
d="M193 889h-146v129l168 102l88 236h195v-238h313v-229h-313v-1010q0 -62 36 -94.5t97 -32.5q96 0 192 35v-227q-111 -52 -280 -52q-79 0 -139.5 18t-109.5 58.5t-75 115t-26 179.5v1010z" />
    <glyph glyph-name="uni0289" unicode="&#x289;" horiz-adv-x="1345" 
d="M0 688h154v430h305v-430h422v430h305v-430h160v-199h-160v-489h-234l-41 143h-16q-52 -83 -143 -123t-201 -40q-187 0 -292 100.5t-105 308.5v100h-154v199zM459 465q0 -123 43.5 -182.5t136.5 -59.5q115 0 170.5 66t67.5 200h-418v-24z" />
    <glyph glyph-name="uni028A" unicode="&#x28a;" horiz-adv-x="1327" 
d="M51 889v229h539v-225q-1 -1 -3 -2t-3 -2q-211 -126 -211 -373q0 -148 78 -223.5t213 -75.5t212.5 75.5t77.5 223.5q0 126 -51 216t-158 157q-1 1 -3 2t-3 2v225h537v-229h-240q199 -139 199 -410q0 -229 -153 -364t-418 -135t-418.5 133.5t-153.5 355.5q0 273 205 420
h-246z" />
    <glyph glyph-name="uni028B" unicode="&#x28b;" horiz-adv-x="1372" 
d="M893 1139q173 0 251.5 -97.5t78.5 -263.5v-268q0 -530 -537 -530q-122 0 -215.5 27t-152.5 73.5t-96.5 115t-52.5 144.5t-15 170v608h305v-618q0 -145 57 -210t182 -65q111 0 165.5 65.5t54.5 209.5v270q0 57 -29 91t-80 34q-53 0 -111 -21v234q84 31 195 31z" />
    <glyph glyph-name="uni028C" unicode="&#x28c;" horiz-adv-x="1165" 
d="M0 0l426 1118h313l426 -1118h-319l-215 637q-31 93 -43 229h-8q-6 -114 -45 -229l-216 -637h-319z" />
    <glyph glyph-name="uni028D" unicode="&#x28d;" horiz-adv-x="1753" 
d="M20 0l322 1118h332l86 -391q3 -11 53.5 -229.5t60.5 -264.5h9q8 40 56 246.5t58 251.5l90 387h328l318 -1118h-303l-130 496q-12 45 -24 116t-23 152.5t-14 97.5h-8q-4 -53 -23 -171.5t-28 -153.5l-138 -537h-335l-132 537q-11 50 -28.5 162.5t-20.5 162.5h-8
q-27 -222 -65 -366l-134 -496h-299z" />
    <glyph glyph-name="uni028E" unicode="&#x28e;" horiz-adv-x="1165" 
d="M328 0h-328l473 1262q65 172 185.5 260t281.5 88q73 0 156 -17v-241q-54 12 -121 12q-165 0 -236 -199l-18 -55l444 -1110h-334l-210 629q-27 74 -37 194h-6q-12 -110 -43 -194z" />
    <glyph glyph-name="uni028F" unicode="&#x28f;" horiz-adv-x="1165" 
d="M430 418l-430 700h344l242 -424l235 424h344l-430 -700v-418h-305v418z" />
    <glyph glyph-name="uni0290" unicode="&#x290;" horiz-adv-x="999" 
d="M965 -492q-132 0 -206.5 79t-74.5 241v172h-629v180l518 705h-487v233h834v-198l-504 -687h522v-385q0 -64 24.5 -91t77.5 -27q50 0 99 18v-213q-73 -27 -174 -27z" />
    <glyph glyph-name="uni0291" unicode="&#x291;" horiz-adv-x="1177" 
d="M55 0v180l518 705h-487v233h842v-184l-516 -701h123q91 174 179.5 250t217.5 76q110 0 178 -69t68 -181q0 -166 -103.5 -237.5t-300.5 -71.5h-158q-34 -78 -71 -178l-162 57q20 54 51 121h-379zM735 233h64q157 0 157 80q0 64 -65 64q-44 0 -79 -35t-77 -109z" />
    <glyph glyph-name="uni0292" unicode="&#x292;" horiz-adv-x="1189" 
d="M98 1118h967v-198l-442 -414q131 -15 227 -59t152 -112t82 -150.5t26 -182.5q0 -223 -154.5 -358.5t-455.5 -135.5q-251 0 -443 80v262q95 -46 209 -71t211 -25q90 0 155 21t100.5 59t52 83t16.5 99q0 269 -400 269h-118v217l405 383h-590v233z" />
    <glyph glyph-name="uni0293" unicode="&#x293;" horiz-adv-x="1189" 
d="M461 -492q-96 0 -176.5 18t-145.5 55.5t-102 102.5t-37 152q0 129 95.5 204t252.5 75q228 0 436 -195q17 42 17 109q0 61 -23 112.5t-70.5 93t-130 65.5t-192.5 24h-102v202l405 359h-590v233h967v-198l-442 -385q122 -13 217 -59t153 -114t87.5 -151.5t29.5 -177.5
q0 -197 -113 -322q27 -24 76 -73l-139 -130q-6 6 -36.5 41t-45.5 50q-152 -91 -391 -91zM414 -268q61 0 129.5 13.5t107.5 37.5q-85 75 -155.5 112t-147.5 37q-127 0 -127 -94q0 -50 52.5 -78t140.5 -28z" />
    <glyph glyph-name="uni0294" unicode="&#x294;" horiz-adv-x="980" 
d="M451 1567q222 0 351.5 -120t129.5 -308q0 -173 -92.5 -296.5t-282.5 -219.5v-623h-305v752q88 29 155.5 67t108 75t66 79.5t34.5 78.5t9 74q0 86 -57.5 140.5t-145.5 54.5q-81 0 -166.5 -31.5t-140.5 -66.5l-109 219q225 125 445 125z" />
    <glyph glyph-name="uni0295" unicode="&#x295;" horiz-adv-x="980" 
d="M530 1567q220 0 445 -125l-109 -219q-55 35 -140.5 66.5t-166.5 31.5q-88 0 -145.5 -54.5t-57.5 -140.5q0 -38 9 -74t34.5 -78.5t66 -79.5t108 -75t155.5 -67v-752h-305v623q-190 96 -282.5 219.5t-92.5 296.5q0 188 129.5 308t351.5 120z" />
    <glyph glyph-name="uni0296" unicode="&#x296;" horiz-adv-x="980" 
d="M430 -20q-218 0 -424 124l109 220q171 -99 307 -99q88 0 145.5 54.5t57.5 140.5q0 245 -373 375v761h305v-632q190 -88 282.5 -210t92.5 -296q0 -189 -137 -313.5t-365 -124.5z" />
    <glyph glyph-name="uni0297" unicode="&#x297;" horiz-adv-x="1052" 
d="M616 -492q-261 0 -392.5 195t-131.5 608q0 211 40 371t113.5 259t172.5 148.5t223 49.5q192 0 348 -76l-90 -236q-53 24 -80 35.5t-66.5 21t-78.5 9.5q-271 0 -271 -578q0 -559 271 -559q75 0 139.5 24t140.5 73v-261q-131 -84 -338 -84z" />
    </font>
</defs>
</svg>
