<?xml version="1.0" standalone="no"?>
<!DOCTYPE svg PUBLIC "-//W3C//DTD SVG 1.1//EN" "http://www.w3.org/Graphics/SVG/1.1/DTD/svg11.dtd" >
<svg xmlns="http://www.w3.org/2000/svg" xmlns:xlink="http://www.w3.org/1999/xlink" version="1.1">
<metadata>
Created by FontForge 20170731 at Thu Sep 10 22:55:29 2020
 By Aleksey,,,
Copyright 2015 Google Inc. All Rights Reserved.
Copyright Province of B.C. 2019. All Rights Reserved.
</metadata>
<defs>
<font id="BCSans-Regular" horiz-adv-x="0" >
  <font-face 
    font-family="BC Sans"
    font-weight="400"
    font-stretch="normal"
    units-per-em="2048"
    panose-1="0 0 0 0 0 0 0 0 0 0"
    ascent="1638"
    descent="-410"
    x-height="1098"
    cap-height="1462"
    bbox="-1272 -797 5734 2185"
    underline-thickness="102"
    underline-position="-358"
    unicode-range="U+000D-FFFD"
  />
<missing-glyph horiz-adv-x="1228" 
d="M1034 0h-841v1462h841v-1462zM297 1358v-1254h633v1254h-633z" />
    <glyph glyph-name=".notdef" horiz-adv-x="1228" 
d="M1034 0h-841v1462h841v-1462zM297 1358v-1254h633v1254h-633z" />
    <glyph glyph-name="uni0000" 
 />
    <glyph glyph-name="uni0000" 
 />
    <glyph glyph-name="uni000D" unicode="&#xd;" horiz-adv-x="532" 
 />
    <glyph glyph-name="space" unicode=" " horiz-adv-x="532" 
 />
    <glyph glyph-name="exclam" unicode="!" horiz-adv-x="550" 
d="M385 1462l-51 -1050h-117l-51 1050h219zM147 111q0 71 34.5 104t92.5 33q56 0 91.5 -33.5t35.5 -103.5t-36 -105t-91 -35q-57 0 -92 35t-35 105z" />
    <glyph glyph-name="quotedbl" unicode="&#x22;" horiz-adv-x="835" 
d="M549 934l-41 528h194l-40 -528h-113zM174 934l-41 528h195l-41 -528h-113z" />
    <glyph glyph-name="numbersign" unicode="#" horiz-adv-x="1323" 
d="M309 428h-258v137h285l65 328h-274v135h299l82 434h147l-82 -434h295l82 434h142l-82 -434h260v-135h-287l-63 -328h280v-137h-307l-84 -428h-145l84 428h-293l-80 -428h-144zM481 565h293l64 328h-293z" />
    <glyph glyph-name="dollar" unicode="$" horiz-adv-x="1171" 
d="M127 1040q0 150 104 236.5t287 97.5v180h131v-178q199 -8 361 -76l-56 -151q-153 61 -305 72v-412q87 -25 146.5 -47.5t112.5 -53t83.5 -65.5t48 -83t17.5 -109q0 -143 -106.5 -232.5t-301.5 -109.5v-228h-131v219q-114 2 -220 20t-171 48v174q72 -34 181.5 -58.5
t209.5 -25.5v414q-207 57 -299 141t-92 227zM881 438q0 77 -48.5 116t-183.5 75v-361q232 23 232 170zM518 1217q-107 -7 -161 -49.5t-54 -112.5q0 -82 46.5 -126t168.5 -75v363z" />
    <glyph glyph-name="percent" unicode="%" horiz-adv-x="1701" 
d="M399 1483q148 0 228 -119.5t80 -337.5q0 -222 -76.5 -341.5t-231.5 -119.5q-145 0 -222 121t-77 340q0 457 299 457zM1178 1462h157l-811 -1462h-157zM399 1356q-77 0 -113 -82t-36 -248q0 -167 36 -249.5t113 -82.5q158 0 158 332q0 330 -158 330zM1294 897
q148 0 228 -119.5t80 -337.5q0 -222 -76.5 -341t-231.5 -119q-145 0 -222 120.5t-77 339.5q0 457 299 457zM1294 768q-77 0 -113 -81t-36 -247q0 -168 36 -249.5t113 -81.5q158 0 158 331q0 328 -158 328z" />
    <glyph glyph-name="ampersand" unicode="&#x26;" horiz-adv-x="1499" 
d="M623 1485q165 0 259.5 -83.5t94.5 -232.5q0 -121 -76 -211.5t-217 -171.5l395 -380q92 107 144 325h182q-70 -289 -209 -440l299 -291h-244l-178 172q-105 -94 -224 -143t-280 -49q-215 0 -337.5 105t-122.5 296q0 157 86 252q82 94 229 178q-63 72 -121 158
q-57 80 -57 196q0 149 100 234.5t277 85.5zM616 1337q-87 0 -140.5 -45.5t-53.5 -124.5q0 -70 36 -132t115 -142q124 70 175 131.5t51 144.5q0 75 -49.5 121.5t-133.5 46.5zM958 285l-426 413q-123 -73 -179 -140.5t-56 -170.5q0 -113 75.5 -180.5t202.5 -67.5
q222 0 383 146z" />
    <glyph glyph-name="quotesingle" unicode="'" horiz-adv-x="460" 
d="M133 1462h195l-41 -528h-113z" />
    <glyph glyph-name="parenleft" unicode="(" horiz-adv-x="614" 
d="M82 561q0 258 75 489t226 412h170q-142 -191 -215.5 -422t-73.5 -477q0 -239 73.5 -467.5t213.5 -419.5h-168q-151 175 -226 402.5t-75 482.5z" />
    <glyph glyph-name="parenright" unicode=")" horiz-adv-x="614" 
d="M532 561q0 -255 -75 -482.5t-226 -402.5h-168q140 191 213.5 419.5t73.5 467.5q0 246 -73.5 477t-215.5 422h170q151 -181 226 -412t75 -489z" />
    <glyph glyph-name="asterisk" unicode="*" horiz-adv-x="1128" 
d="M459 1556h200l-41 -393l394 111l28 -189l-376 -30l243 -324l-176 -96l-174 358l-158 -358l-182 96l240 324l-373 30l29 189l389 -111z" />
    <glyph glyph-name="plus" unicode="+" horiz-adv-x="1171" 
d="M102 649v146h408v424h147v-424h408v-146h-408v-422h-147v422h-408z" />
    <glyph glyph-name="comma" unicode="," horiz-adv-x="548" 
d="M186 238h193l14 -23q-58 -217 -176 -479h-133q58 250 59 256q30 156 43 246z" />
    <glyph glyph-name="hyphen" unicode="-" horiz-adv-x="659" 
d="M578 469h-496v160h496v-160z" />
    <glyph glyph-name="period" unicode="." horiz-adv-x="548" 
d="M147 111q0 71 34.5 104t90.5 33t92.5 -33.5t36.5 -103.5q0 -69 -37 -104.5t-92 -35.5t-90 35t-35 105z" />
    <glyph glyph-name="slash" unicode="/" horiz-adv-x="761" 
d="M565 1462h176l-544 -1462h-177z" />
    <glyph glyph-name="zero" unicode="0" horiz-adv-x="1171" 
d="M1071 733q0 -367 -117 -560t-370 -193q-248 0 -365 200q-119 198 -119 553q0 369 115.5 560.5t368.5 191.5q242 0 364.5 -195t122.5 -557zM281 733q0 -308 70.5 -454t232.5 -146t233.5 146t71.5 454q0 305 -72 451.5t-233 146.5q-162 0 -232.5 -145.5t-70.5 -452.5z" />
    <glyph glyph-name="one" unicode="1" horiz-adv-x="1171" 
d="M727 1462v-1462h-176v1022q0 151 8 252q-24 -24 -65 -59t-62 -54l-156 -127l-94 121l396 307h149z" />
    <glyph glyph-name="two" unicode="2" horiz-adv-x="1171" 
d="M1065 164v-164h-967v150l383 387q166 169 219 236q103 130 118 254q3 27 3 56q0 119 -70 182.5t-188 63.5q-102 0 -180.5 -33.5t-171.5 -105.5l-96 121q206 172 448 172q204 0 323.5 -104.5t119.5 -284.5q0 -83 -25.5 -161t-79.5 -156t-115 -145.5t-155 -158.5l-305 -301
v-8h739z" />
    <glyph glyph-name="three" unicode="3" horiz-adv-x="1171" 
d="M1010 1120q0 -143 -80.5 -231.5t-222.5 -118.5v-8q172 -20 260 -109t88 -237q0 -202 -139.5 -319t-421.5 -117q-240 0 -402 79v168q187 -96 404 -96q370 0 370 289q0 258 -409 258h-142v153h144q176 0 271 75t95 202q0 105 -71 164t-195 59q-109 0 -192.5 -30.5
t-176.5 -92.5l-90 123q193 152 457 152q227 0 342 -103q111 -102 111 -260z" />
    <glyph glyph-name="four" unicode="4" horiz-adv-x="1171" 
d="M43 485l688 985h187v-976h212v-162h-212v-332h-175v332h-700v153zM219 494h524v460q0 159 11 324h-9q-49 -108 -88 -160z" />
    <glyph glyph-name="five" unicode="5" horiz-adv-x="1171" 
d="M563 897q225 0 359 -113q133 -115 133 -317q0 -228 -145 -357.5t-402 -129.5q-240 0 -379 79v170q73 -44 178 -70t203 -26q167 0 263.5 79.5t96.5 236.5q0 296 -366 296q-124 0 -250 -30l-90 57l55 690h733v-164h-579l-35 -424q135 23 225 23z" />
    <glyph glyph-name="six" unicode="6" horiz-adv-x="1171" 
d="M113 625q0 858 669 858q123 0 181 -19v-153q-74 24 -177 24q-111 0 -196 -31.5t-138 -84t-88 -131t-50.5 -160.5t-20.5 -185h12q113 172 346 172q190 0 307 -114q117 -117 117 -330q0 -229 -125 -360t-340 -131q-105 0 -194.5 40t-157.5 117.5t-106.5 202.5t-38.5 285z
M608 131q134 0 211.5 86t77.5 254q0 142 -72.5 222.5t-210.5 80.5t-228.5 -82.5t-90.5 -185.5q0 -92 33.5 -175.5t107 -141.5t172.5 -58z" />
    <glyph glyph-name="seven" unicode="7" horiz-adv-x="1171" 
d="M477 0h-198l600 1298h-789v164h981v-139z" />
    <glyph glyph-name="eight" unicode="8" horiz-adv-x="1171" 
d="M584 1483q190 0 315 -90q123 -88 123 -260q0 -121 -75 -207t-204 -152q75 -38 128 -72.5t101 -82t72.5 -107.5t24.5 -133q0 -184 -131 -291q-132 -108 -348 -108q-236 0 -363 103t-127 290q0 251 303 391q-121 68 -188.5 156.5t-67.5 214.5q0 162 123 255t314 93z
M582 1337q-118 0 -188 -55t-70 -156q0 -45 14.5 -82.5t36 -64t59.5 -52.5t71.5 -43t86.5 -40q112 48 180 108q72 66 72 174q0 101 -70.5 156t-191.5 55zM276 371q0 -111 79 -179.5t231 -68.5q146 0 226.5 69.5t80.5 184.5q0 100 -78.5 171.5t-228.5 129.5l-33 12
q-142 -63 -209.5 -137t-67.5 -182z" />
    <glyph glyph-name="nine" unicode="9" horiz-adv-x="1171" 
d="M1065 838q0 -858 -672 -858q-123 0 -184 20v154q79 -27 180 -27q111 0 196.5 31.5t139.5 84t89 130t50.5 160t18.5 184.5h-13q-116 -170 -348 -170q-189 0 -303 117q-117 114 -117 325q0 229 126.5 361.5t340.5 132.5q106 0 195.5 -40t157 -118t105.5 -203t38 -284z
M569 1331q-132 0 -210 -86.5t-78 -253.5q0 -144 70 -223.5t210 -79.5t231 82.5t91 185.5q0 67 -20 132.5t-58 120t-99.5 88.5t-136.5 34z" />
    <glyph glyph-name="colon" unicode=":" horiz-adv-x="548" 
d="M147 987q0 73 34.5 106t90.5 33q57 0 93 -33t36 -106q0 -69 -37 -104t-92 -35t-90 34.5t-35 104.5zM147 111q0 71 34.5 104t90.5 33t92.5 -33.5t36.5 -103.5q0 -69 -37 -104.5t-92 -35.5t-90 35t-35 105z" />
    <glyph glyph-name="semicolon" unicode=";" horiz-adv-x="548" 
d="M143 987q0 73 34.5 106t90.5 33q129 0 129 -139q0 -70 -35.5 -104.5t-93.5 -34.5q-55 0 -90 34.5t-35 104.5zM168 238h192l15 -23q-28 -112 -76 -240q-63 -157 -100 -239h-136q79 319 105 502z" />
    <glyph glyph-name="less" unicode="&#x3c;" horiz-adv-x="1171" 
d="M1067 238l-965 424v102l965 481v-160l-772 -364l772 -324v-159z" />
    <glyph glyph-name="equal" unicode="=" horiz-adv-x="1171" 
d="M115 444v146h938v-146h-938zM115 852v145h938v-145h-938z" />
    <glyph glyph-name="greater" unicode="&#x3e;" horiz-adv-x="1171" 
d="M874 719l-772 366v160l965 -481v-102l-965 -424v159z" />
    <glyph glyph-name="question" unicode="?" horiz-adv-x="888" 
d="M430 412h-143v55q0 116 36 188t136 160q66 56 99.5 87.5t61 68t36 69.5t8.5 80q0 99 -63.5 152t-184.5 53q-91 0 -167 -22.5t-161 -63.5l-63 143q193 101 403 101q193 0 300.5 -96t107.5 -263q0 -54 -12.5 -100.5t-29.5 -80t-52.5 -73.5t-64.5 -66t-83 -71
q-101 -84 -132.5 -141t-31.5 -146v-34zM240 111q0 137 127 137q56 0 90.5 -33t34.5 -104q0 -70 -35 -105t-90 -35q-58 0 -92.5 34.5t-34.5 105.5z" />
    <glyph glyph-name="at" unicode="@" horiz-adv-x="1841" 
d="M1722 731q0 -95 -22.5 -184t-65 -162.5t-111.5 -117.5t-155 -44q-89 0 -145.5 52t-69.5 126h-10q-39 -80 -112.5 -129t-176.5 -49q-156 0 -241 103t-85 278q0 202 119 331.5t316 129.5q86 0 173 -14.5t140 -34.5l-21 -416q-2 -49 -2 -74q0 -108 39 -141q38 -35 88 -35
q92 0 145.5 109.5t53.5 273.5q0 184 -77.5 320t-210.5 205t-304 69q-172 0 -309 -55.5t-227 -155.5t-137.5 -236.5t-47.5 -299.5q0 -303 160.5 -465t460.5 -162q201 0 440 88v-139q-201 -84 -440 -84q-362 0 -565 199.5t-203 555.5q0 191 60 354t170.5 281.5t274.5 186
t363 67.5q212 0 378 -87t261.5 -254t95.5 -390zM688 600q0 -250 193 -250q206 0 223 309l12 256q-73 21 -151 21q-59 0 -106.5 -19t-79 -51t-52.5 -76t-30 -91t-9 -99z" />
    <glyph glyph-name="A" unicode="A" horiz-adv-x="1308" 
d="M0 0l571 1468h166l570 -1468h-191l-176 453h-580l-174 -453h-186zM588 1059l-166 -443h463l-164 443q-19 55 -70 219q-47 -173 -63 -219z" />
    <glyph glyph-name="B" unicode="B" horiz-adv-x="1331" 
d="M199 0v1462h417q280 0 417.5 -84.5t137.5 -277.5q0 -130 -72 -214.5t-206 -109.5v-10q73 -13 129.5 -37t103 -64.5t71 -103.5t24.5 -145q0 -197 -136 -306.5t-372 -109.5h-514zM383 686v-530h295q186 0 266 71.5t80 202.5q0 123 -83.5 189.5t-276.5 66.5h-281zM625 1305
h-242v-465h270q180 0 254 58t74 181q0 121 -84.5 173.5t-271.5 52.5z" />
    <glyph glyph-name="C" unicode="C" horiz-adv-x="1294" 
d="M825 1321q-233 0 -370 -158q-136 -157 -136 -432q0 -277 128.5 -433.5t375.5 -156.5q152 0 351 58v-160q-157 -59 -377 -59q-328 0 -500 200t-172 553q0 222 80 390t240 264t382 96q230 0 404 -86l-74 -156q-176 80 -332 80z" />
    <glyph glyph-name="D" unicode="D" horiz-adv-x="1495" 
d="M1370 745q0 -366 -199 -555.5t-565 -189.5h-407v1462h450q335 0 528 -186t193 -531zM1176 739q0 566 -553 566h-240v-1147h199q594 0 594 581z" />
    <glyph glyph-name="E" unicode="E" horiz-adv-x="1138" 
d="M199 0v1462h817v-162h-633v-456h596v-160h-596v-522h633v-162h-817z" />
    <glyph glyph-name="F" unicode="F" horiz-adv-x="1062" 
d="M199 0v1462h817v-162h-633v-518h594v-161h-594v-621h-184z" />
    <glyph glyph-name="G" unicode="G" horiz-adv-x="1490" 
d="M834 608v164h505v-717q-232 -75 -514 -75q-336 0 -518 199.5t-182 551.5q0 345 200.5 548.5t557.5 203.5q241 0 436 -86l-70 -160q-203 84 -377 84q-261 0 -407 -158q-148 -160 -148 -432q0 -134 31.5 -240.5t96.5 -186t172.5 -122.5t250.5 -43t287 35v434h-321z" />
    <glyph glyph-name="H" unicode="H" horiz-adv-x="1517" 
d="M199 1462h184v-618h750v618h184v-1462h-184v682h-750v-682h-184v1462z" />
    <glyph glyph-name="I" unicode="I" horiz-adv-x="694" 
d="M82 1462h528v-106l-172 -41v-1170l172 -39v-106h-528v106l172 39v1170l-172 41v106z" />
    <glyph glyph-name="J" unicode="J" horiz-adv-x="559" 
d="M-8 -389q-86 0 -152 27v155q61 -20 148 -20q88 0 144 53.5t56 181.5v1454h185v-1439q0 -205 -101.5 -308.5t-279.5 -103.5z" />
    <glyph glyph-name="K" unicode="K" horiz-adv-x="1267" 
d="M199 0v1462h184v-721q112 126 252 279l395 442h215l-579 -637l602 -825h-217l-519 698l-149 -131v-567h-184z" />
    <glyph glyph-name="L" unicode="L" horiz-adv-x="1073" 
d="M1022 0h-823v1462h184v-1298h639v-164z" />
    <glyph glyph-name="M" unicode="M" horiz-adv-x="1857" 
d="M199 0v1462h272l451 -1198h8l459 1198h270v-1462h-182v899q0 176 14 381h-8l-488 -1280h-151l-482 1282h-8q15 -158 15 -395v-887h-170z" />
    <glyph glyph-name="N" unicode="N" horiz-adv-x="1556" 
d="M199 0v1462h213l780 -1210h8q-14 213 -14 385v825h172v-1462h-215l-783 1214h-8q17 -272 17 -397v-817h-170z" />
    <glyph glyph-name="O" unicode="O" horiz-adv-x="1599" 
d="M1475 733q0 -228 -76.5 -396.5t-229.5 -262.5t-368 -94q-169 0 -298 53.5t-211.5 153.5t-124.5 238t-42 310q0 169 42 305.5t124.5 236.5t212.5 154t299 54q215 0 367.5 -93.5t228.5 -261.5t76 -397zM319 733q0 -284 120 -439t362 -155t360.5 155t118.5 439t-117.5 437
t-359.5 153q-245 0 -364.5 -153t-119.5 -437z" />
    <glyph glyph-name="P" unicode="P" horiz-adv-x="1239" 
d="M383 0h-184v1462h387q549 0 549 -430q0 -75 -18 -140.5t-61 -126t-108.5 -103t-167 -68t-229.5 -25.5h-168v-569zM383 1305v-578h147q213 0 313.5 69.5t100.5 227.5q0 142 -92 211.5t-283 69.5h-186z" />
    <glyph glyph-name="Q" unicode="Q" horiz-adv-x="1599" 
d="M1475 733q0 -273 -109 -461t-317 -256l350 -364h-264l-283 330q-8 0 -25.5 -1t-25.5 -1q-169 0 -298 53.5t-211.5 153.5t-124.5 238t-42 310q0 169 42 305.5t124.5 236.5t212.5 154t299 54q215 0 367.5 -93.5t228.5 -261.5t76 -397zM319 733q0 -284 120 -439t362 -155
t360.5 155t118.5 439t-117.5 437t-359.5 153q-245 0 -364.5 -153t-119.5 -437z" />
    <glyph glyph-name="R" unicode="R" horiz-adv-x="1273" 
d="M383 0h-184v1462h403q271 0 402 -102.5t131 -312.5q0 -84 -24.5 -152t-68 -114t-92.5 -76t-108 -50l401 -655h-215l-354 604h-291v-604zM383 1303v-543h219q176 0 259 69.5t83 208.5q0 141 -85 203t-267 62h-209z" />
    <glyph glyph-name="S" unicode="S" horiz-adv-x="1124" 
d="M1028 391q0 -195 -141 -303t-381 -108q-254 0 -402 69v176q82 -36 191.5 -61t218.5 -25q159 0 244.5 63t85.5 173q0 106 -70.5 166t-273.5 135q-196 70 -286.5 169.5t-90.5 264.5q0 170 129 271.5t338 101.5q214 0 403 -82l-57 -158q-181 78 -350 78q-134 0 -205.5 -57
t-71.5 -156q0 -108 68 -168.5t252 -126.5q103 -38 172 -74t123 -85.5t79 -114t25 -148.5z" />
    <glyph glyph-name="T" unicode="T" horiz-adv-x="1138" 
d="M20 1300v162h1096v-162h-454v-1300h-185v1300h-457z" />
    <glyph glyph-name="U" unicode="U" horiz-adv-x="1497" 
d="M184 1462h185v-948q0 -181 96.5 -278t286.5 -97t283 101.5t93 275.5v946h183v-946q0 -115 -35 -211.5t-104 -169.5t-179 -114t-252 -41q-270 0 -413.5 145t-143.5 395v942z" />
    <glyph glyph-name="V" unicode="V" horiz-adv-x="1228" 
d="M0 1462h193l329 -938q48 -134 92 -319q23 123 93 323l327 934h195l-522 -1462h-185z" />
    <glyph glyph-name="W" unicode="W" horiz-adv-x="1904" 
d="M412 0l-387 1462h192l227 -893q47 -179 70 -348q22 164 78 359l258 882h190l269 -889q52 -165 80 -352q12 119 71 350l226 891h192l-389 -1462h-186l-285 958q-25 77 -47.5 168t-26.5 121q-3 -57 -70 -295l-276 -952h-186z" />
    <glyph glyph-name="X" unicode="X" horiz-adv-x="1200" 
d="M8 0l486 762l-455 700h205l358 -573l361 573h194l-452 -696l487 -766h-209l-387 635l-393 -635h-195z" />
    <glyph glyph-name="Y" unicode="Y" horiz-adv-x="1159" 
d="M0 1462h201l379 -719l381 719h198l-487 -895v-567h-185v559z" />
    <glyph glyph-name="Z" unicode="Z" horiz-adv-x="1171" 
d="M1092 164v-164h-1014v139l770 1159h-746v164h969v-139l-770 -1159h791z" />
    <glyph glyph-name="bracketleft" unicode="[" horiz-adv-x="673" 
d="M623 -324h-459v1786h459v-147h-283v-1491h283v-148z" />
    <glyph glyph-name="backslash" unicode="\" horiz-adv-x="761" 
d="M20 1462h177l546 -1462h-178z" />
    <glyph glyph-name="bracketright" unicode="]" horiz-adv-x="673" 
d="M334 1315h-283v147h459v-1786h-459v148h283v1491z" />
    <glyph glyph-name="asciicircum" unicode="^" horiz-adv-x="1171" 
d="M238 547h-160l434 926h102l480 -926h-160l-369 735z" />
    <glyph glyph-name="underscore" unicode="_" horiz-adv-x="909" 
d="M913 -184v-131h-917v131h917z" />
    <glyph glyph-name="grave" unicode="`" horiz-adv-x="575" 
d="M82 1569h215q32 -65 91 -155.5t106 -147.5v-25h-121q-67 53 -161 152.5t-130 154.5v21z" />
    <glyph glyph-name="a" unicode="a" horiz-adv-x="1148" 
d="M590 1116q202 0 297.5 -88.5t95.5 -279.5v-748h-131l-35 156h-8q-70 -88 -152 -133q-79 -43 -217 -43q-149 0 -247 79q-99 77 -99 246q0 335 527 350l186 7v65q0 132 -56.5 188t-170.5 56q-134 0 -310 -84l-55 135q177 94 375 94zM805 438v99l-162 -7q-210 -9 -283 -65
q-79 -58 -79 -162q0 -89 54 -133.5t146 -44.5q136 0 232 78q92 77 92 235z" />
    <glyph glyph-name="b" unicode="b" horiz-adv-x="1259" 
d="M303 0h-129v1556h180v-378q0 -148 -10 -226h10q112 164 340 164q209 0 331 -145.5t122 -421.5t-122.5 -422.5t-330.5 -146.5q-226 0 -340 159h-14zM354 555v-8q0 -213 70.5 -315.5t243.5 -102.5q146 0 219.5 108t73.5 314q0 416 -297 416q-172 0 -241 -97.5t-69 -314.5z
" />
    <glyph glyph-name="c" unicode="c" horiz-adv-x="983" 
d="M614 -20q-230 0 -365.5 140.5t-135.5 422.5q0 148 38.5 260.5t108.5 180t162 101t205 33.5q79 0 158 -16.5t130 -42.5l-55 -150q-137 52 -237 52q-324 0 -324 -416q0 -199 79.5 -304.5t233.5 -105.5q146 0 285 64v-160q-112 -59 -283 -59z" />
    <glyph glyph-name="d" unicode="d" horiz-adv-x="1259" 
d="M563 -20q-209 0 -329.5 145t-120.5 422t121.5 424t330.5 147q218 0 340 -162h13q-13 101 -13 162v438h180v-1556h-145l-27 147h-8q-120 -167 -342 -167zM592 129q169 0 242 93t73 290v33q0 205 -67 315q-68 109 -250 109q-143 0 -217 -113t-74 -313t73.5 -307t219.5 -107
z" />
    <glyph glyph-name="e" unicode="e" horiz-adv-x="1155" 
d="M598 1118q209 0 331 -134.5t122 -360.5v-109h-752q4 -185 94.5 -283t255.5 -98q99 0 179.5 18.5t172.5 57.5v-158q-87 -38 -168.5 -54.5t-191.5 -16.5q-242 0 -385 145t-143 416q0 266 132.5 421.5t352.5 155.5zM596 971q-128 0 -203.5 -82.5t-89.5 -231.5h559
q-2 146 -68 230t-198 84z" />
    <glyph glyph-name="f" unicode="f" horiz-adv-x="704" 
d="M31 958v84l192 62v63q0 208 90.5 304t266.5 96q108 0 213 -37l-48 -141q-92 30 -163 30q-91 0 -135 -61t-44 -189v-71h277v-140h-277v-958h-180v958h-192z" />
    <glyph glyph-name="g" unicode="g" horiz-adv-x="1259" 
d="M563 1118q224 0 344 -166h11l24 146h143v-1116q0 -237 -120.5 -355.5t-370.5 -118.5q-243 0 -395 70v166q164 -86 405 -86q141 0 222 83t81 226v43q0 81 6 135h-8q-110 -165 -340 -165q-214 0 -333 149.5t-119 417.5q0 262 120 418q120 153 330 153zM588 967
q-137 0 -213 -110t-76 -312q0 -204 74 -311t219 -107q166 0 241.5 89.5t75.5 287.5v43q0 221 -77 320.5t-244 99.5z" />
    <glyph glyph-name="h" unicode="h" horiz-adv-x="1265" 
d="M174 1556h180v-456q0 -76 -10 -154h12q53 83 143.5 126.5t198.5 43.5q201 0 301.5 -97t100.5 -304v-715h-178v702q0 265 -246 265q-177 0 -249.5 -99t-72.5 -301v-567h-180v1556z" />
    <glyph glyph-name="i" unicode="i" horiz-adv-x="528" 
d="M266 1509q45 0 75 -28.5t30 -85.5t-30 -86t-75 -29q-47 0 -76.5 29t-29.5 86t29.5 85.5t76.5 28.5zM174 1098h180v-1098h-180v1098z" />
    <glyph glyph-name="j" unicode="j" horiz-adv-x="528" 
d="M160 1395q0 57 29.5 85.5t76.5 28.5q45 0 75 -28.5t30 -85.5t-30 -86t-75 -29q-47 0 -76.5 29t-29.5 86zM45 -492q-96 0 -158 25v145q59 -20 136 -20q72 0 111.5 39t39.5 133v1268h180v-1262q0 -158 -76 -243t-233 -85z" />
    <glyph glyph-name="k" unicode="k" horiz-adv-x="1093" 
d="M174 0v1556h178v-813q0 -25 -4 -95.5t-4 -82.5h8q69 93 131 162l351 371h210l-444 -469l475 -629h-217l-381 512l-125 -109v-403h-178z" />
    <glyph glyph-name="l" unicode="l" horiz-adv-x="528" 
d="M354 1556v-1556h-180v1556h180z" />
    <glyph glyph-name="m" unicode="m" horiz-adv-x="1914" 
d="M174 0v1098h145l27 -150h10q49 84 135.5 127t188.5 43q260 0 336 -184h10q54 91 146.5 137.5t205.5 46.5q188 0 279.5 -97t91.5 -306v-715h-178v707q0 260 -223 260q-156 0 -226.5 -90t-70.5 -271v-606h-179v707q0 260 -225 260q-160 0 -226.5 -98.5t-66.5 -299.5v-569
h-180z" />
    <glyph glyph-name="n" unicode="n" horiz-adv-x="1265" 
d="M174 1098h145l27 -150h10q52 83 144.5 126.5t201.5 43.5q199 0 298.5 -97.5t99.5 -305.5v-715h-178v702q0 265 -246 265q-176 0 -249 -98.5t-73 -299.5v-569h-180v1098z" />
    <glyph glyph-name="o" unicode="o" horiz-adv-x="1239" 
d="M1128 551q0 -273 -137 -422t-375 -149q-223 0 -363 152t-140 419q0 270 135.5 418.5t374.5 148.5q226 0 365.5 -150.5t139.5 -416.5zM299 551q0 -201 79.5 -311.5t242.5 -110.5q162 0 241.5 110.5t79.5 311.5q0 200 -80 308t-244 108q-319 0 -319 -416z" />
    <glyph glyph-name="p" unicode="p" horiz-adv-x="1259" 
d="M174 -492v1590h148l24 -150h8q117 170 342 170q208 0 329.5 -145t121.5 -422q0 -276 -122 -423.5t-331 -147.5q-226 0 -340 159h-12q1 -16 6.5 -83.5t5.5 -96.5v-451h-180zM354 586v-35q0 -213 70.5 -317.5t243.5 -104.5q144 0 218.5 116t74.5 308q0 195 -74.5 304.5
t-222.5 109.5q-164 0 -236 -92.5t-74 -288.5z" />
    <glyph glyph-name="q" unicode="q" horiz-adv-x="1259" 
d="M1085 -492h-180v469q0 111 10 170h-12q-114 -167 -344 -167q-199 0 -321 143q-125 140 -125 424q0 283 127 428q125 143 325 143q225 0 342 -170h8l27 150h143v-1590zM594 129q165 0 238 92t75 287v37q0 217 -72 320.5t-245 103.5q-144 0 -217.5 -113t-73.5 -313t73 -307
t222 -107z" />
    <glyph glyph-name="r" unicode="r" horiz-adv-x="845" 
d="M686 1118q70 0 129 -12l-22 -166q-61 14 -119 14q-131 0 -225.5 -103.5t-94.5 -264.5v-586h-180v1098h148l20 -201h8q55 99 141 160t195 61z" />
    <glyph glyph-name="s" unicode="s" horiz-adv-x="980" 
d="M889 303q0 -157 -116.5 -240t-321.5 -83q-210 0 -345 69v164q180 -88 349 -88q132 0 196 43t64 119q0 63 -55.5 108t-215.5 105q-73 28 -118.5 48.5t-92 49.5t-72 60t-41.5 73.5t-16 95.5q0 137 112 214t300 77q178 0 350 -74l-61 -143q-165 70 -301 70
q-109 0 -168.5 -35.5t-59.5 -97.5q0 -66 58 -106.5t225 -102.5q87 -32 141.5 -59.5t100.5 -65.5t67 -87t21 -114z" />
    <glyph glyph-name="t" unicode="t" horiz-adv-x="739" 
d="M188 958h-155v86l157 72l72 234h107v-252h317v-140h-317v-634q0 -96 47 -146.5t125 -50.5q95 0 153 23v-138q-29 -14 -82 -23t-102 -9q-322 0 -322 339v639z" />
    <glyph glyph-name="u" unicode="u" horiz-adv-x="1265" 
d="M162 379v719h182v-707q0 -262 244 -262q176 0 249.5 98t73.5 299v572h181v-1098h-148l-26 145h-9q-52 -83 -144.5 -124t-203.5 -41q-201 0 -300 96.5t-99 302.5z" />
    <glyph glyph-name="v" unicode="v" horiz-adv-x="1040" 
d="M623 0h-207l-416 1098h193l233 -647q66 -177 88 -291h8q14 76 92 291l234 647h192z" />
    <glyph glyph-name="w" unicode="w" horiz-adv-x="1609" 
d="M324 2l-301 1098h186l151 -586q59 -221 72 -328h8q29 157 74 295l195 619h196l189 -619q65 -230 73 -293h9q11 89 73 326l154 586h184l-305 -1098h-211l-188 619q-61 198 -76 290h-8q-22 -141 -74 -293l-197 -616h-204z" />
    <glyph glyph-name="x" unicode="x" horiz-adv-x="1083" 
d="M37 0l397 561l-379 537h205l283 -414l280 414h203l-379 -537l400 -561h-205l-299 438l-303 -438h-203z" />
    <glyph glyph-name="y" unicode="y" horiz-adv-x="1044" 
d="M444 -4l-442 1102h193l237 -625q76 -210 92 -299h8q19 81 95 301l223 623h194l-473 -1250q-65 -168 -156.5 -254t-242.5 -86q-75 0 -149 17v143q62 -12 120 -12q166 0 244 194z" />
    <glyph glyph-name="z" unicode="z" horiz-adv-x="962" 
d="M883 139v-139h-803v119l590 839h-555v140h753v-135l-581 -824h596z" />
    <glyph glyph-name="braceleft" unicode="{" horiz-adv-x="778" 
d="M307 303q0 102 -62.5 147.5t-187.5 45.5v149q125 2 187.5 46.5t62.5 144.5v303q0 159 109.5 241t296.5 82v-147q-228 -10 -228 -193v-295q0 -105 -60 -171t-163 -78v-13q103 -12 163 -78.5t60 -171.5v-301q0 -187 228 -190v-148q-193 2 -299.5 83.5t-106.5 242.5v301z
" />
    <glyph glyph-name="bar" unicode="|" horiz-adv-x="1128" 
d="M489 -494v2050h150v-2050h-150z" />
    <glyph glyph-name="braceright" unicode="}" horiz-adv-x="778" 
d="M293 1124q0 188 -227 191v147q193 -2 299 -83t106 -242v-299q0 -102 62.5 -147.5t187.5 -45.5v-149q-125 -2 -187.5 -46.5t-62.5 -144.5v-305q0 -159 -109.5 -241.5t-295.5 -82.5v148q111 5 169 50.5t58 141.5v297q0 105 60 171.5t163 78.5v12q-103 12 -163 78.5
t-60 171.5v299z" />
    <glyph glyph-name="asciitilde" unicode="~" horiz-adv-x="1171" 
d="M551 653q-128 56 -215 56q-55 0 -119 -34t-115 -87v160q99 108 246 108q63 0 122.5 -13t147.5 -52q128 -56 213 -56q58 0 121 33.5t115 87.5v-158q-101 -110 -246 -110q-62 0 -121 14t-149 51z" />
    <glyph glyph-name="uni00A0" unicode="&#xa0;" horiz-adv-x="532" 
 />
    <glyph glyph-name="exclamdown" unicode="&#xa1;" horiz-adv-x="550" 
d="M401 979q0 -137 -127 -137t-127 137q0 70 35 104.5t92 34.5t92 -34.5t35 -104.5zM162 -373l51 1049h119l51 -1049h-221z" />
    <glyph glyph-name="cent" unicode="&#xa2;" horiz-adv-x="1171" 
d="M186 741q0 268 103.5 404.5t294.5 165.5v172h139v-164q162 -10 270 -59l-53 -150q-141 53 -244 53q-75 0 -132 -21.5t-93 -58t-59 -91t-32 -115t-9 -134.5q0 -91 15 -161t50 -127.5t98.5 -88t153.5 -30.5q141 0 287 61v-157q-126 -60 -254 -62v-198h-137v204
q-192 29 -295 161t-103 396z" />
    <glyph glyph-name="sterling" unicode="&#xa3;" horiz-adv-x="1171" 
d="M66 152q202 47 202 288v215h-196v136h196v303q0 181 112.5 284t303.5 103t363 -84l-64 -144q-164 78 -295 78q-119 0 -179 -61.5t-60 -194.5v-284h417v-136h-417v-213q0 -113 -38 -176.5t-102 -101.5h787v-164h-1030v152z" />
    <glyph glyph-name="currency" unicode="&#xa4;" horiz-adv-x="1171" 
d="M184 723q0 120 72 225l-135 139l100 97l135 -131q104 71 230 71q116 0 225 -71l137 131l99 -97l-132 -137q72 -111 72 -227q0 -125 -72 -229l129 -136l-96 -96l-137 131q-101 -69 -225 -69q-130 0 -230 71l-135 -131l-98 96l133 136q-72 105 -72 227zM322 723
q0 -110 77 -187t187 -77t188 77t78 187q0 112 -77.5 190t-188.5 78q-110 0 -187 -78t-77 -190z" />
    <glyph glyph-name="yen" unicode="&#xa5;" horiz-adv-x="1171" 
d="M29 1462h190l365 -714l366 714h189l-412 -768h254v-131h-309v-168h309v-131h-309v-264h-176v264h-310v131h310v168h-310v131h250z" />
    <glyph glyph-name="brokenbar" unicode="&#xa6;" horiz-adv-x="1128" 
d="M489 776v780h150v-780h-150zM489 287h150v-781h-150v781z" />
    <glyph glyph-name="section" unicode="&#xa7;" horiz-adv-x="1050" 
d="M137 809q0 93 46 158.5t116 99.5q-156 81 -156 236q0 124 105.5 194t298.5 70q106 0 183 -17t167 -53l-55 -137q-85 35 -151 51t-156 16q-119 0 -171.5 -30.5t-52.5 -89.5q0 -57 58 -97q57 -40 213 -98q171 -65 252 -138.5t81 -189.5q0 -182 -153 -272q151 -80 151 -225
q0 -141 -117.5 -219t-328.5 -78q-215 0 -346 67v154q180 -84 354 -84q266 0 266 145q0 41 -19.5 68.5t-75 58.5t-169.5 74q-87 31 -145.5 61t-105 69t-68 90t-21.5 116zM291 829q0 -74 65 -127q64 -52 228 -114l45 -17q131 73 131 187q0 79 -69.5 135.5t-252.5 112.5
q-60 -14 -103.5 -63t-43.5 -114z" />
    <glyph glyph-name="dieresis" unicode="&#xa8;" horiz-adv-x="1187" 
d="M305 1395q0 51 26 75.5t70 24.5q42 0 69.5 -24.5t27.5 -75.5q0 -49 -28 -76t-69 -27q-43 0 -69.5 27t-26.5 76zM690 1395q0 51 26 75.5t68 24.5t69.5 -24.5t27.5 -75.5q0 -49 -28 -76t-69 -27q-40 0 -67 27t-27 76z" />
    <glyph glyph-name="copyright" unicode="&#xa9;" horiz-adv-x="1703" 
d="M852 -20q-161 0 -301 56.5t-239 155t-155.5 238.5t-56.5 301q0 215 96.5 387t268.5 268.5t387 96.5q205 0 377 -96t273.5 -269.5t101.5 -386.5q0 -161 -56.5 -301t-155.5 -238.5t-239 -155t-301 -56.5zM852 88q173 0 318 81.5t231 230t86 331.5q0 131 -48 249.5t-131 205
t-201.5 137.5t-254.5 51q-182 0 -327.5 -82.5t-227.5 -229.5t-82 -331q0 -131 48 -249.5t131 -205t202.5 -137.5t255.5 -51zM883 272q-198 0 -301 123t-103 336q0 205 108.5 331t303.5 126q131 0 252 -62l-60 -125q-105 54 -190 54q-120 0 -187 -86.5t-67 -237.5
q0 -162 60 -243.5t192 -81.5q97 0 215 47v-131q-106 -50 -223 -50z" />
    <glyph glyph-name="ordfeminine" unicode="&#xaa;" horiz-adv-x="731" 
d="M66 987q0 203 323 215l115 4v45q0 63 -40 92t-106 29q-105 0 -206 -53l-46 100q123 60 256 60q135 0 202 -56t67 -176v-450h-96l-25 86q-96 -99 -234 -99q-99 0 -154.5 51t-55.5 152zM197 987q0 -98 110 -98q197 0 197 178v47l-98 -4q-117 -4 -163 -34t-46 -89z" />
    <glyph glyph-name="guillemotleft" unicode="&#xab;" horiz-adv-x="1042" 
d="M82 526v27l344 412l129 -74l-287 -350l287 -351l-129 -75zM487 526v27l349 412l127 -74l-287 -350l287 -351l-127 -75z" />
    <glyph glyph-name="logicalnot" unicode="&#xac;" horiz-adv-x="1171" 
d="M102 795h963v-533h-145v387h-818v146z" />
    <glyph glyph-name="uni00AD" unicode="&#xad;" horiz-adv-x="659" 
d="M578 469h-496v160h496v-160z" />
    <glyph glyph-name="registered" unicode="&#xae;" horiz-adv-x="1703" 
d="M100 731q0 215 96.5 387t268.5 268.5t387 96.5q205 0 377 -96t273.5 -269.5t101.5 -386.5q0 -161 -56.5 -301t-155.5 -238.5t-239 -155t-301 -56.5t-301 56.5t-239 155t-155.5 238.5t-56.5 301zM215 731q0 -131 48 -249.5t131 -205t202.5 -137.5t255.5 -51
q173 0 318 81.5t231 230t86 331.5q0 131 -48 249.5t-131 205t-201.5 137.5t-254.5 51q-182 0 -327.5 -82.5t-227.5 -229.5t-82 -331zM571 1178h263q165 0 244 -66.5t79 -198.5q0 -90 -45 -147.5t-115 -85.5l238 -397h-176l-205 354h-127v-354h-156v895zM727 1047v-283h102
q79 0 124.5 39.5t45.5 105.5q0 72 -41 105t-131 33h-100z" />
    <glyph glyph-name="macron" unicode="&#xaf;" horiz-adv-x="1024" 
d="M1030 1692v-136h-1036v136h1036z" />
    <glyph glyph-name="degree" unicode="&#xb0;" horiz-adv-x="876" 
d="M438 854q-147 0 -235 88q-90 87 -90 225q0 142 87.5 229t237.5 87q145 0 236 -88q90 -90 90 -228t-90 -225q-91 -88 -236 -88zM440 975q95 0 143 51.5t48 140.5q0 92 -49.5 144.5t-141.5 52.5q-97 0 -145.5 -52t-48.5 -145q0 -89 48.5 -140.5t145.5 -51.5z" />
    <glyph glyph-name="plusminus" unicode="&#xb1;" horiz-adv-x="1171" 
d="M102 655v146h408v424h147v-424h408v-146h-408v-422h-147v422h-408zM102 145h965v-145h-965v145z" />
    <glyph glyph-name="twosuperior" unicode="&#xb2;" horiz-adv-x="716" 
d="M627 979v-127h-578v111l236 229q124 118 161 175.5t37 129.5q0 62 -37 96.5t-100 34.5q-58 0 -107 -21.5t-108 -66.5l-72 94q133 113 289 113q131 0 206 -65t75 -177q0 -98 -60 -180q-62 -80 -176 -188l-166 -158h400z" />
    <glyph glyph-name="threesuperior" unicode="&#xb3;" horiz-adv-x="716" 
d="M338 1747q142 0 217.5 -61.5t75.5 -163.5q0 -80 -42 -133.5t-108 -75.5v-6q82 -18 129 -69.5t47 -133.5q0 -123 -90 -195.5t-264 -72.5q-154 0 -268 57v129q143 -70 270 -70q103 0 154 41t51 115q0 141 -225 141h-117v113h117q99 0 148.5 38.5t49.5 104.5q0 61 -40 93
t-103 32q-104 0 -227 -78l-74 95q70 49 139.5 74.5t159.5 25.5z" />
    <glyph glyph-name="acute" unicode="&#xb4;" horiz-adv-x="575" 
d="M276 1569h218v-21q-43 -61 -134.5 -159t-158.5 -148h-119v25q46 61 105 151.5t89 151.5z" />
    <glyph glyph-name="mu" unicode="&#xb5;" horiz-adv-x="1275" 
d="M174 -492v1590h180v-709q0 -260 246 -260q176 0 249 98t73 299v572h180v-1098h-146l-28 147h-10q-110 -167 -330 -167q-141 0 -236 92h-8q10 -82 10 -244v-320h-180z" />
    <glyph glyph-name="paragraph" unicode="&#xb6;" horiz-adv-x="1341" 
d="M113 1042q0 115 21.5 203.5t59.5 146.5t95 95.5t124 53t150 15.5h561v-1816h-118v1702h-209v-1702h-119v819q-53 -18 -146 -18q-99 0 -173.5 26t-131 83.5t-85.5 155.5t-29 236z" />
    <glyph glyph-name="periodcentered" unicode="&#xb7;" horiz-adv-x="548" 
d="M147 723q0 71 34.5 104t90.5 33t92.5 -33.5t36.5 -103.5q0 -69 -37 -104t-92 -35t-90 34.5t-35 104.5z" />
    <glyph glyph-name="cedilla" unicode="&#xb8;" horiz-adv-x="460" 
d="M434 -285q0 -100 -76.5 -153.5t-226.5 -53.5q-56 0 -102 11v112q42 -10 108 -10q77 0 114.5 20.5t37.5 69.5q0 50 -49.5 75.5t-137.5 37.5l88 176h119l-53 -109q178 -42 178 -176z" />
    <glyph glyph-name="onesuperior" unicode="&#xb9;" horiz-adv-x="716" 
d="M342 1729h150v-877h-146v565q0 42 4 105t4 77q-49 -46 -96 -79l-111 -80l-71 100z" />
    <glyph glyph-name="ordmasculine" unicode="&#xba;" horiz-adv-x="770" 
d="M707 1133q0 -164 -87.5 -256.5t-236.5 -92.5q-141 0 -229 91.5t-88 257.5t85 256t236 90q149 0 234.5 -89.5t85.5 -256.5zM195 1133q0 -124 44.5 -182t145.5 -58q99 0 144.5 58.5t45.5 181.5q0 122 -45.5 179.5t-144.5 57.5t-144.5 -57.5t-45.5 -179.5z" />
    <glyph glyph-name="guillemotright" unicode="&#xbb;" horiz-adv-x="1042" 
d="M961 553v-27l-349 -411l-127 75l287 351l-287 350l127 74zM553 553v-27l-346 -411l-127 75l287 351l-287 350l127 74z" />
    <glyph glyph-name="onequarter" unicode="&#xbc;" horiz-adv-x="1525" 
d="M829 303l404 580h149v-564h125v-122h-125v-197h-153v197h-400v106zM258 0l893 1462h154l-893 -1462h-154zM70 1274l266 188h149v-876h-145v565q0 106 8 182q-54 -50 -96 -80l-111 -79zM973 319h256v191q0 9 6 207q-13 -30 -98 -158z" />
    <glyph glyph-name="onehalf" unicode="&#xbd;" horiz-adv-x="1579" 
d="M1489 0h-578v111l236 229q126 123 162.5 178.5t36.5 126.5q0 62 -37.5 96.5t-100.5 34.5q-106 0 -215 -88l-71 94q133 113 288 113q131 0 206 -65t75 -177q0 -49 -14 -91.5t-49.5 -90t-71 -85t-101.5 -101.5l-165 -158h399v-127zM197 0l893 1462h153l-893 -1462h-153z
M117 1174l-72 100l266 188h150v-876h-146v565q0 96 9 182q-51 -47 -97 -80z" />
    <glyph glyph-name="threequarters" unicode="&#xbe;" horiz-adv-x="1599" 
d="M903 303l404 580h149v-564h125v-122h-125v-197h-153v197h-400v106zM31 627v129q143 -70 270 -70q103 0 154 41t51 115q0 141 -225 141h-117v113h117q99 0 148.5 38.5t49.5 104.5q0 61 -40 93t-103 32q-104 0 -227 -78l-74 94q71 50 140 75.5t159 25.5q142 0 217.5 -62
t75.5 -164q0 -80 -42 -133t-108 -75v-7q82 -18 129 -69t47 -133q0 -123 -90 -196t-264 -73q-152 0 -268 58zM348 0l893 1462h154l-893 -1462h-154zM1047 319h256v191q0 9 6 207q-11 -25 -99 -158z" />
    <glyph glyph-name="questiondown" unicode="&#xbf;" horiz-adv-x="888" 
d="M455 678h143v-55q0 -116 -36 -188.5t-136 -160.5q-66 -56 -99.5 -87.5t-61 -68t-36 -69.5t-8.5 -80q0 -99 63.5 -152t184.5 -53q91 0 167 22.5t161 63.5l63 -143q-191 -100 -403 -100q-194 0 -301 95.5t-107 262.5q0 54 12.5 100.5t29.5 80t52.5 73.5t64.5 66t83 71
q101 84 132.5 141t31.5 146v35zM645 979q0 -137 -127 -137q-56 0 -90.5 33t-34.5 104q0 70 35 104.5t90 34.5q58 0 92.5 -34t34.5 -105z" />
    <glyph glyph-name="Agrave" unicode="&#xc0;" horiz-adv-x="1308" 
d="M0 0l571 1468h166l570 -1468h-191l-176 453h-580l-174 -453h-186zM422 616h463l-164 443q-19 55 -70 219q-47 -173 -63 -219zM383 1913v20h215q32 -65 91 -155.5t106 -147.5v-24h-121q-67 53 -161 152.5t-130 154.5z" />
    <glyph glyph-name="Aacute" unicode="&#xc1;" horiz-adv-x="1308" 
d="M186 0h-186l571 1468h166l570 -1468h-191l-176 453h-580zM422 616h463l-164 443q-19 55 -70 219q-47 -173 -63 -219zM647 1606h-119v24q47 62 106 152t89 151h217v-20q-43 -61 -134.5 -159t-158.5 -148z" />
    <glyph glyph-name="Acircumflex" unicode="&#xc2;" horiz-adv-x="1308" 
d="M186 0h-186l571 1468h166l570 -1468h-191l-176 453h-580zM588 1059l-166 -443h463l-164 443q-19 55 -70 219q-47 -173 -63 -219zM432 1606h-123v22q194 205 252 305h184q56 -105 256 -305v-22h-127q-97 58 -223 184q-132 -132 -219 -184z" />
    <glyph glyph-name="Atilde" unicode="&#xc3;" horiz-adv-x="1308" 
d="M186 0h-186l571 1468h166l570 -1468h-191l-176 453h-580zM588 1059l-166 -443h463l-164 443q-19 55 -70 219q-47 -173 -63 -219zM274 1606q12 123 71 192.5t155 69.5q41 0 88 -18.5t81.5 -40t74 -40t67.5 -18.5q46 0 72.5 29t40.5 90h102q-12 -123 -70 -192.5t-153 -69.5
q-49 0 -107.5 29t-112.5 58t-91 29q-48 0 -73.5 -28t-39.5 -90h-105z" />
    <glyph glyph-name="Adieresis" unicode="&#xc4;" horiz-adv-x="1308" 
d="M0 0l571 1468h166l570 -1468h-191l-176 453h-580l-174 -453h-186zM588 1059l-166 -443h463l-164 443q-19 55 -70 219q-47 -173 -63 -219zM362 1759q0 51 26.5 76t70.5 25q42 0 69 -25t27 -76q0 -49 -27.5 -75.5t-68.5 -26.5q-43 0 -70 26.5t-27 75.5zM748 1759
q0 51 26.5 76t67.5 25q42 0 69 -25t27 -76q0 -49 -27.5 -75.5t-68.5 -26.5q-40 0 -67 26.5t-27 75.5z" />
    <glyph glyph-name="Aring" unicode="&#xc5;" horiz-adv-x="1308" 
d="M0 0l541 1389q-115 53 -115 194q0 101 61 158t162 57q99 0 163.5 -57.5t64.5 -155.5q0 -68 -29.5 -117.5t-81.5 -74.5l541 -1393h-191l-176 453h-580l-174 -453h-186zM422 616h463l-164 443q-19 55 -70 219q-47 -173 -63 -219zM535 1583q0 -54 29.5 -84.5t84.5 -30.5
q52 0 83.5 31t31.5 84t-32 84t-83 31q-50 0 -82 -31t-32 -84z" />
    <glyph glyph-name="AE" unicode="&#xc6;" horiz-adv-x="1804" 
d="M188 0h-190l694 1462h989v-162h-577v-456h538v-160h-538v-522h577v-162h-761v453h-512zM479 616h441v682h-119z" />
    <glyph glyph-name="Ccedilla" unicode="&#xc7;" horiz-adv-x="1294" 
d="M125 733q0 222 80 390t240 264t382 96q230 0 404 -86l-74 -156q-176 80 -332 80q-235 0 -370.5 -157.5t-135.5 -432.5q0 -277 128.5 -433.5t375.5 -156.5q152 0 351 58v-160q-152 -56 -340 -59l-43 -89q178 -42 178 -176q0 -100 -76.5 -153.5t-226.5 -53.5q-57 0 -103 11
v112q42 -10 109 -10q77 0 114 20.5t37 69.5q0 50 -49 75.5t-137 37.5l80 160q-290 24 -441 221.5t-151 527.5z" />
    <glyph glyph-name="Egrave" unicode="&#xc8;" horiz-adv-x="1138" 
d="M1016 0h-817v1462h817v-162h-633v-456h596v-160h-596v-522h633v-162zM356 1913v20h215q32 -65 91 -155.5t106 -147.5v-24h-121q-67 53 -161 152.5t-130 154.5z" />
    <glyph glyph-name="Eacute" unicode="&#xc9;" horiz-adv-x="1138" 
d="M199 1462h817v-162h-633v-456h596v-160h-596v-522h633v-162h-817v1462zM621 1606h-119v24q46 61 105 151.5t89 151.5h217v-20q-43 -61 -134 -159t-158 -148z" />
    <glyph glyph-name="Ecircumflex" unicode="&#xca;" horiz-adv-x="1138" 
d="M199 0v1462h817v-162h-633v-456h596v-160h-596v-522h633v-162h-817zM283 1606v22q194 205 252 305h184q56 -105 256 -305v-22h-127q-97 58 -223 184q-132 -132 -219 -184h-123z" />
    <glyph glyph-name="Edieresis" unicode="&#xcb;" horiz-adv-x="1138" 
d="M1016 0h-817v1462h817v-162h-633v-456h596v-160h-596v-522h633v-162zM432 1860q42 0 69 -25t27 -76q0 -49 -27.5 -75.5t-68.5 -26.5q-43 0 -69.5 26.5t-26.5 75.5q0 52 26 76.5t70 24.5zM815 1860q42 0 69 -25t27 -76q0 -49 -27.5 -75.5t-68.5 -26.5q-40 0 -67 26.5
t-27 75.5q0 51 26.5 76t67.5 25z" />
    <glyph glyph-name="Igrave" unicode="&#xcc;" horiz-adv-x="694" 
d="M254 1315l-172 41v106h528v-106l-172 -41v-1170l172 -39v-106h-528v106l172 39v1170zM80 1913v20h215q32 -65 91 -155.5t106 -147.5v-24h-121q-67 53 -161 152.5t-130 154.5z" />
    <glyph glyph-name="Iacute" unicode="&#xcd;" horiz-adv-x="694" 
d="M82 1462h528v-106l-172 -41v-1170l172 -39v-106h-528v106l172 39v1170l-172 41v106zM225 1606v24q47 62 106 152t89 151h217v-20q-43 -61 -134.5 -159t-158.5 -148h-119z" />
    <glyph glyph-name="Icircumflex" unicode="&#xce;" horiz-adv-x="694" 
d="M82 1356v106h528v-106l-172 -41v-1170l172 -39v-106h-528v106l172 39v1170zM129 1606h-123v22q194 205 252 305h184q56 -105 256 -305v-22h-127q-97 58 -223 184q-132 -132 -219 -184z" />
    <glyph glyph-name="Idieresis" unicode="&#xcf;" horiz-adv-x="694" 
d="M82 1356v106h528v-106l-172 -41v-1170l172 -39v-106h-528v106l172 39v1170zM59 1759q0 51 26.5 76t70.5 25q42 0 69 -25t27 -76q0 -49 -27.5 -75.5t-68.5 -26.5q-43 0 -70 26.5t-27 75.5zM539 1860q42 0 69 -25t27 -76q0 -49 -27.5 -75.5t-68.5 -26.5t-68 26.5t-27 75.5
q0 51 27 76t68 25z" />
    <glyph glyph-name="Eth" unicode="&#xd0;" horiz-adv-x="1495" 
d="M61 803h152v659h436q334 0 527.5 -186t193.5 -531q0 -366 -199.5 -555.5t-566.5 -189.5h-391v643h-152v160zM397 1305v-502h365v-160h-365v-485h185q594 0 594 581q0 287 -142 426.5t-411 139.5h-226z" />
    <glyph glyph-name="Ntilde" unicode="&#xd1;" horiz-adv-x="1556" 
d="M369 0h-170v1462h213l780 -1210h8q-14 213 -14 385v825h172v-1462h-215l-783 1214h-8q17 -272 17 -397v-817zM506 1606h-105q12 123 71 192.5t155 69.5q41 0 88 -18.5t81.5 -40t74 -40t67.5 -18.5q46 0 72.5 29t40.5 90h102q-12 -123 -70 -192.5t-153 -69.5
q-49 0 -108 29t-113 58t-91 29q-48 0 -73 -28t-39 -90z" />
    <glyph glyph-name="Ograve" unicode="&#xd2;" horiz-adv-x="1599" 
d="M1475 733q0 -228 -76.5 -396.5t-229.5 -262.5t-368 -94q-169 0 -298 53.5t-211.5 153.5t-124.5 238t-42 310q0 169 42 305.5t124.5 236.5t212.5 154t299 54q215 0 367.5 -93.5t228.5 -261.5t76 -397zM319 733q0 -284 120 -439t362 -155t360.5 155t118.5 439t-117.5 437
t-359.5 153q-245 0 -364.5 -153t-119.5 -437zM532 1933h216q32 -65 91 -156t105 -147v-24h-121q-67 53 -161 152.5t-130 154.5v20z" />
    <glyph glyph-name="Oacute" unicode="&#xd3;" horiz-adv-x="1599" 
d="M1475 733q0 -228 -76.5 -396.5t-229.5 -262.5t-368 -94q-169 0 -298 53.5t-211.5 153.5t-124.5 238t-42 310q0 169 42 305.5t124.5 236.5t212.5 154t299 54q215 0 367.5 -93.5t228.5 -261.5t76 -397zM319 733q0 -284 120 -439t362 -155t360.5 155t118.5 439t-117.5 437
t-359.5 153q-245 0 -364.5 -153t-119.5 -437zM872 1933h218v-20q-43 -61 -134.5 -159t-158.5 -148h-119v24q46 61 105 151.5t89 151.5z" />
    <glyph glyph-name="Ocircumflex" unicode="&#xd4;" horiz-adv-x="1599" 
d="M801 -20q-169 0 -298 53.5t-211.5 153.5t-124.5 238t-42 310q0 169 42 305.5t124.5 236.5t212.5 154t299 54q215 0 367.5 -93.5t228.5 -261.5t76 -397q0 -228 -76.5 -396.5t-229.5 -262.5t-368 -94zM319 733q0 -284 120 -439t362 -155t360.5 155t118.5 439t-117.5 437
t-359.5 153q-245 0 -364.5 -153t-119.5 -437zM459 1606v22q194 205 252 305h184q56 -105 256 -305v-22h-127q-97 58 -223 184q-132 -132 -219 -184h-123z" />
    <glyph glyph-name="Otilde" unicode="&#xd5;" horiz-adv-x="1599" 
d="M1475 733q0 -228 -76.5 -396.5t-229.5 -262.5t-368 -94q-169 0 -298 53.5t-211.5 153.5t-124.5 238t-42 310q0 169 42 305.5t124.5 236.5t212.5 154t299 54q215 0 367.5 -93.5t228.5 -261.5t76 -397zM319 733q0 -284 120 -439t362 -155t360.5 155t118.5 439t-117.5 437
t-359.5 153q-245 0 -364.5 -153t-119.5 -437zM528 1606h-104q12 123 70.5 192.5t154.5 69.5q20 0 42 -5t35.5 -8.5t40 -17t32.5 -16.5t37 -22l32 -19q53 -29 93 -29q46 0 72 28.5t40 90.5h103q-12 -123 -70 -192.5t-154 -69.5q-35 0 -77.5 15.5t-66 29t-71.5 43.5
q-54 28 -96 28q-48 0 -73.5 -28t-39.5 -90z" />
    <glyph glyph-name="Odieresis" unicode="&#xd6;" horiz-adv-x="1599" 
d="M1475 733q0 -228 -76.5 -396.5t-229.5 -262.5t-368 -94q-169 0 -298 53.5t-211.5 153.5t-124.5 238t-42 310q0 169 42 305.5t124.5 236.5t212.5 154t299 54q215 0 367.5 -93.5t228.5 -261.5t76 -397zM319 733q0 -284 120 -439t362 -155t360.5 155t118.5 439t-117.5 437
t-359.5 153q-245 0 -364.5 -153t-119.5 -437zM512 1759q0 -49 26.5 -75.5t69.5 -26.5q41 0 69 26.5t28 75.5q0 51 -27.5 76t-69.5 25q-44 0 -70 -24.5t-26 -76.5zM897 1759q0 -49 27 -75.5t67 -26.5q41 0 68.5 26.5t27.5 75.5q0 51 -27 76t-69 25q-41 0 -67.5 -25t-26.5 -76
z" />
    <glyph glyph-name="multiply" unicode="&#xd7;" horiz-adv-x="1171" 
d="M584 825l350 351l102 -105l-348 -348l346 -348l-102 -105l-350 346l-342 -346l-107 105l346 348l-348 346l107 107z" />
    <glyph glyph-name="Oslash" unicode="&#xd8;" horiz-adv-x="1599" 
d="M1475 733q0 -228 -76.5 -396.5t-229.5 -262.5t-368 -94q-227 0 -379 96l-98 -139l-125 81l106 152q-180 198 -180 565q0 169 42 305.5t124.5 236.5t212.5 154t299 54q203 0 364 -92l95 135l124 -84l-104 -146q193 -202 193 -565zM319 733q0 -258 97 -405l653 923
q-110 72 -266 72q-245 0 -364.5 -153t-119.5 -437zM1280 733q0 265 -104 414l-656 -930q115 -78 281 -78q242 0 360.5 155t118.5 439z" />
    <glyph glyph-name="Ugrave" unicode="&#xd9;" horiz-adv-x="1497" 
d="M184 1462h185v-948q0 -181 96.5 -278t286.5 -97t283 101.5t93 275.5v946h183v-946q0 -115 -35 -211.5t-104 -169.5t-179 -114t-252 -41q-270 0 -413.5 145t-143.5 395v942zM481 1933h215q32 -65 91 -155.5t106 -147.5v-24h-121q-67 53 -161 152.5t-130 154.5v20z" />
    <glyph glyph-name="Uacute" unicode="&#xda;" horiz-adv-x="1497" 
d="M741 -20q-270 0 -413.5 145t-143.5 395v942h185v-948q0 -181 96.5 -278t286.5 -97t283 101.5t93 275.5v946h183v-946q0 -115 -35 -211.5t-104 -169.5t-179 -114t-252 -41zM627 1606v24q46 61 105 151.5t89 151.5h217v-20q-43 -61 -134.5 -159t-158.5 -148h-118z" />
    <glyph glyph-name="Ucircumflex" unicode="&#xdb;" horiz-adv-x="1497" 
d="M741 -20q-270 0 -413.5 145t-143.5 395v942h185v-948q0 -181 96.5 -278t286.5 -97t283 101.5t93 275.5v946h183v-946q0 -115 -35 -211.5t-104 -169.5t-179 -114t-252 -41zM408 1628q191 202 251 305h185q56 -105 256 -305v-22h-127q-97 58 -223 184q-131 -131 -220 -184
h-122v22z" />
    <glyph glyph-name="Udieresis" unicode="&#xdc;" horiz-adv-x="1497" 
d="M184 520v942h185v-948q0 -181 96.5 -278t286.5 -97t283 101.5t93 275.5v946h183v-946q0 -115 -35 -211.5t-104 -169.5t-179 -114t-252 -41q-270 0 -413.5 145t-143.5 395zM461 1759q0 52 26 76.5t70 24.5q42 0 69 -25t27 -76q0 -49 -27.5 -75.5t-68.5 -26.5
q-43 0 -69.5 26.5t-26.5 75.5zM940 1860q42 0 69 -25t27 -76q0 -49 -27.5 -75.5t-68.5 -26.5q-40 0 -67 26.5t-27 75.5q0 51 26.5 76t67.5 25z" />
    <glyph glyph-name="Yacute" unicode="&#xdd;" horiz-adv-x="1159" 
d="M0 1462h201l379 -719l381 719h198l-487 -895v-567h-185v559zM457 1606v24q46 61 105 151.5t89 151.5h217v-20q-43 -61 -134.5 -159t-158.5 -148h-118z" />
    <glyph glyph-name="Thorn" unicode="&#xde;" horiz-adv-x="1239" 
d="M199 1462h184v-254h197q288 0 421.5 -109t133.5 -317q0 -77 -17.5 -143t-60 -126.5t-108 -103t-167.5 -67.5t-233 -25h-166v-317h-184v1462zM565 1051h-182v-578h147q217 0 315.5 69.5t98.5 229.5q0 143 -90 211t-289 68z" />
    <glyph glyph-name="germandbls" unicode="&#xdf;" horiz-adv-x="1292" 
d="M1069 1264q0 -55 -21.5 -104t-53 -82.5t-69 -66t-69 -56.5t-53 -53.5t-21.5 -57.5q0 -42 31.5 -73t149.5 -109q122 -81 179.5 -158t57.5 -191q0 -176 -106 -254q-107 -79 -275 -79q-181 0 -297 69v162q56 -36 135 -61t156 -25q211 0 211 176q0 72 -41 125
q-45 51 -152 121q-129 82 -176 145q-47 59 -47 142q0 50 20.5 92.5t51.5 70.5t67.5 57.5t67.5 55t51.5 63t20.5 80.5q0 83 -69.5 123.5t-190.5 40.5t-197 -51t-76 -170v-1196h-180v1196q0 100 34 173t96.5 115.5t142.5 62.5t180 20q204 0 323 -77.5t119 -225.5z" />
    <glyph glyph-name="agrave" unicode="&#xe0;" horiz-adv-x="1148" 
d="M590 1116q202 0 297.5 -88.5t95.5 -279.5v-748h-131l-35 156h-8q-70 -88 -152 -133q-79 -43 -217 -43q-149 0 -247 79q-99 77 -99 246q0 335 527 350l186 7v65q0 132 -56.5 188t-170.5 56q-134 0 -310 -84l-55 135q177 94 375 94zM805 438v99l-162 -7q-210 -9 -283 -65
q-79 -58 -79 -162q0 -89 54 -133.5t146 -44.5q136 0 232 78q92 77 92 235zM307 1569h215q32 -65 91 -155.5t106 -147.5v-25h-121q-67 53 -161 152.5t-130 154.5v21z" />
    <glyph glyph-name="aacute" unicode="&#xe1;" horiz-adv-x="1148" 
d="M590 1116q202 0 297.5 -88.5t95.5 -279.5v-748h-131l-35 156h-8q-70 -88 -152 -133q-79 -43 -217 -43q-149 0 -247 79q-99 77 -99 246q0 335 527 350l186 7v65q0 132 -56.5 188t-170.5 56q-134 0 -310 -84l-55 135q177 94 375 94zM805 438v99l-162 -7q-210 -9 -283 -65
q-79 -58 -79 -162q0 -89 54 -133.5t146 -44.5q136 0 232 78q92 77 92 235zM647 1569h217v-21q-43 -61 -134.5 -159t-158.5 -148h-118v25q46 61 105 151.5t89 151.5z" />
    <glyph glyph-name="acircumflex" unicode="&#xe2;" horiz-adv-x="1148" 
d="M440 -20q-157 0 -251.5 82t-94.5 243q0 335 527 350l186 7v65q0 132 -56.5 188t-170.5 56q-134 0 -310 -84l-55 135q177 94 375 94q202 0 297.5 -88.5t95.5 -279.5v-748h-131l-35 156h-8q-75 -95 -156 -135.5t-213 -40.5zM281 303q0 -89 54 -133.5t146 -44.5
q144 0 234 80t90 233v99l-162 -7q-197 -7 -279.5 -62.5t-82.5 -164.5zM233 1264q194 205 252 305h185q56 -105 256 -305v-23h-127q-99 59 -224 184q-132 -132 -219 -184h-123v23z" />
    <glyph glyph-name="atilde" unicode="&#xe3;" horiz-adv-x="1148" 
d="M590 1116q202 0 297.5 -88.5t95.5 -279.5v-748h-131l-35 156h-8q-70 -88 -152 -133q-79 -43 -217 -43q-149 0 -247 79q-99 77 -99 246q0 335 527 350l186 7v65q0 132 -56.5 188t-170.5 56q-134 0 -310 -84l-55 135q177 94 375 94zM805 438v99l-162 -7q-210 -9 -283 -65
q-79 -58 -79 -162q0 -89 54 -133.5t146 -44.5q136 0 232 78q92 77 92 235zM303 1241h-104q12 123 70.5 192.5t154.5 69.5q20 0 42 -5t35.5 -8.5t40 -17t32.5 -16.5t38 -22l31 -19q53 -29 92 -29q46 0 72.5 29t40.5 90h102q-12 -123 -70 -192.5t-153 -69.5q-35 0 -77.5 15.5
t-66 29t-71.5 43.5q-56 29 -96 29q-48 0 -73.5 -28.5t-39.5 -90.5z" />
    <glyph glyph-name="adieresis" unicode="&#xe4;" horiz-adv-x="1148" 
d="M590 1116q202 0 297.5 -88.5t95.5 -279.5v-748h-131l-35 156h-8q-70 -88 -152 -133q-79 -43 -217 -43q-149 0 -247 79q-99 77 -99 246q0 335 527 350l186 7v65q0 132 -56.5 188t-170.5 56q-134 0 -310 -84l-55 135q177 94 375 94zM805 438v99l-162 -7q-210 -9 -283 -65
q-79 -58 -79 -162q0 -89 54 -133.5t146 -44.5q136 0 232 78q92 77 92 235zM287 1395q0 -49 26.5 -76t69.5 -27q41 0 68.5 27t27.5 76q0 51 -27 75.5t-69 24.5q-44 0 -70 -24.5t-26 -75.5zM672 1395q0 -49 27 -76t67 -27q41 0 68.5 27t27.5 76q0 51 -27 75.5t-69 24.5
t-68 -24.5t-26 -75.5z" />
    <glyph glyph-name="aring" unicode="&#xe5;" horiz-adv-x="1148" 
d="M590 1116q202 0 297.5 -88.5t95.5 -279.5v-748h-131l-35 156h-8q-70 -88 -152 -133q-79 -43 -217 -43q-149 0 -247 79q-99 77 -99 246q0 335 527 350l186 7v65q0 132 -56.5 188t-170.5 56q-134 0 -310 -84l-55 135q177 94 375 94zM805 438v99l-162 -7q-210 -9 -283 -65
q-79 -58 -79 -162q0 -89 54 -133.5t146 -44.5q136 0 232 78q92 77 92 235zM578 1241q-101 0 -162.5 58t-61.5 159t61 158t163 57q99 0 163 -57.5t64 -155.5q0 -102 -63 -160.5t-164 -58.5zM578 1343q52 0 83 31t31 84t-32 84t-82 31q-51 0 -83 -31t-32 -84q0 -54 30 -84.5
t85 -30.5z" />
    <glyph glyph-name="ae" unicode="&#xe6;" horiz-adv-x="1769" 
d="M1235 1118q198 0 314 -134t116 -357v-111h-702q9 -383 317 -383q175 0 336 76v-158q-158 -71 -342 -71q-290 0 -416 231q-67 -103 -164 -168q-92 -63 -252 -63q-149 0 -247 79q-101 76 -101 246q0 335 500 350l184 7v69q0 128 -59.5 184t-169.5 56q-146 0 -307 -84
l-56 135q76 40 178.5 67t198.5 27q129 0 211.5 -42.5t124.5 -133.5q55 86 141 132t195 46zM1233 971q-118 0 -186.5 -81t-79.5 -233h508q0 146 -60.5 230t-181.5 84zM774 438v99l-153 -7q-186 -7 -263 -62.5t-77 -164.5q0 -90 50.5 -134t139.5 -44q135 0 219 79.5t84 233.5z
" />
    <glyph glyph-name="ccedilla" unicode="&#xe7;" horiz-adv-x="983" 
d="M113 543q0 148 38.5 260.5t108.5 180t162 101t205 33.5q79 0 158 -16.5t130 -42.5l-55 -150q-137 52 -237 52q-324 0 -324 -416q0 -199 79.5 -304.5t233.5 -105.5q146 0 285 64v-160q-104 -53 -250 -59l-43 -89q178 -42 178 -176q0 -100 -76.5 -153.5t-226.5 -53.5
q-56 0 -102 11v112q42 -10 108 -10q77 0 114.5 20.5t37.5 69.5q0 50 -49 75.5t-137 37.5l79 160q-194 24 -305.5 164t-111.5 395z" />
    <glyph glyph-name="egrave" unicode="&#xe8;" horiz-adv-x="1155" 
d="M598 1118q209 0 331 -134.5t122 -360.5v-109h-752q4 -185 94.5 -283t255.5 -98q99 0 179.5 18.5t172.5 57.5v-158q-87 -38 -168.5 -54.5t-191.5 -16.5q-242 0 -385 145t-143 416q0 266 132.5 421.5t352.5 155.5zM596 971q-128 0 -203.5 -82.5t-89.5 -231.5h559
q-2 146 -68 230t-198 84zM315 1569h215q32 -65 91 -155.5t106 -147.5v-25h-121q-67 53 -161 152.5t-130 154.5v21z" />
    <glyph glyph-name="eacute" unicode="&#xe9;" horiz-adv-x="1155" 
d="M598 1118q209 0 331 -134.5t122 -360.5v-109h-752q4 -185 94.5 -283t255.5 -98q99 0 179.5 18.5t172.5 57.5v-158q-87 -38 -168.5 -54.5t-191.5 -16.5q-242 0 -385 145t-143 416q0 266 132.5 421.5t352.5 155.5zM596 971q-128 0 -203.5 -82.5t-89.5 -231.5h559
q-2 146 -68 230t-198 84zM655 1569h217v-21q-43 -61 -134 -159t-158 -148h-119v25q46 61 105 151.5t89 151.5z" />
    <glyph glyph-name="ecircumflex" unicode="&#xea;" horiz-adv-x="1155" 
d="M113 541q0 266 132.5 421.5t352.5 155.5q209 0 331 -134.5t122 -360.5v-109h-752q4 -185 94.5 -283t255.5 -98q99 0 179.5 18.5t172.5 57.5v-158q-87 -38 -168.5 -54.5t-191.5 -16.5q-242 0 -385 145t-143 416zM303 657h559q-2 146 -68 230t-198 84q-128 0 -203.5 -82.5
t-89.5 -231.5zM242 1264q194 205 252 305h184q56 -105 256 -305v-23h-127q-97 58 -223 184q-132 -132 -219 -184h-123v23z" />
    <glyph glyph-name="edieresis" unicode="&#xeb;" horiz-adv-x="1155" 
d="M598 1118q209 0 331 -134.5t122 -360.5v-109h-752q4 -185 94.5 -283t255.5 -98q99 0 179.5 18.5t172.5 57.5v-158q-87 -38 -168.5 -54.5t-191.5 -16.5q-242 0 -385 145t-143 416q0 266 132.5 421.5t352.5 155.5zM596 971q-128 0 -203.5 -82.5t-89.5 -231.5h559
q-2 146 -68 230t-198 84zM295 1395q0 -49 26.5 -76t69.5 -27q41 0 68.5 27t27.5 76q0 51 -27 75.5t-69 24.5q-44 0 -70 -24.5t-26 -75.5zM680 1395q0 -49 27 -76t67 -27q41 0 68.5 27t27.5 76q0 51 -27 75.5t-69 24.5t-68 -24.5t-26 -75.5z" />
    <glyph glyph-name="igrave" unicode="&#xec;" horiz-adv-x="528" 
d="M354 1098v-1098h-180v1098h180zM-4 1569h215q32 -65 91 -155.5t106 -147.5v-25h-121q-67 53 -161 152.5t-130 154.5v21z" />
    <glyph glyph-name="iacute" unicode="&#xed;" horiz-adv-x="528" 
d="M354 1098v-1098h-180v1098h180zM336 1569h217v-21q-43 -61 -134.5 -159t-158.5 -148h-119v25q47 62 106 152t89 151z" />
    <glyph glyph-name="icircumflex" unicode="&#xee;" horiz-adv-x="528" 
d="M354 0h-180v1098h180v-1098zM-78 1241v23q194 205 252 305h184q56 -105 256 -305v-23h-127q-97 58 -223 184q-132 -132 -219 -184h-123z" />
    <glyph glyph-name="idieresis" unicode="&#xef;" horiz-adv-x="528" 
d="M354 1098v-1098h-180v1098h180zM-25 1395q0 -49 27 -76t70 -27q41 0 68.5 27t27.5 76q0 51 -27 75.5t-69 24.5q-44 0 -70.5 -24.5t-26.5 -75.5zM360 1395q0 -49 27.5 -76t67.5 -27q41 0 68.5 27t27.5 76q0 51 -27 75.5t-69 24.5t-68.5 -24.5t-26.5 -75.5z" />
    <glyph glyph-name="eth" unicode="&#xf0;" horiz-adv-x="1239" 
d="M369 1444l73 123q145 -68 258 -148l236 137l78 -110l-203 -117q147 -137 232 -332.5t85 -433.5q0 -288 -134.5 -435.5t-377.5 -147.5q-224 0 -363.5 134.5t-139.5 362.5q0 230 131 361q128 131 350 131q223 0 319 -119l9 4q-59 215 -254 391l-267 -153l-77 112l229 131
q-79 54 -184 109zM621 823q-168 0 -247 -89t-79 -263q0 -159 81 -251.5t245 -92.5q167 0 246 97t79 290q0 127 -80 219q-81 90 -245 90z" />
    <glyph glyph-name="ntilde" unicode="&#xf1;" horiz-adv-x="1265" 
d="M174 0v1098h145l27 -150h10q52 83 144.5 126.5t201.5 43.5q199 0 298.5 -97.5t99.5 -305.5v-715h-178v702q0 265 -246 265q-176 0 -249 -98.5t-73 -299.5v-569h-180zM360 1241h-104q12 123 70.5 192.5t154.5 69.5q52 0 112 -29.5t112.5 -58.5t87.5 -29q46 0 72 28.5
t40 90.5h103q-12 -123 -70 -192.5t-154 -69.5q-49 0 -107.5 29.5t-112.5 58.5t-91 29q-48 0 -73.5 -28.5t-39.5 -90.5z" />
    <glyph glyph-name="ograve" unicode="&#xf2;" horiz-adv-x="1239" 
d="M1128 551q0 -273 -137 -422t-375 -149q-223 0 -363 152t-140 419q0 270 135.5 418.5t374.5 148.5q226 0 365.5 -150.5t139.5 -416.5zM299 551q0 -201 79.5 -311.5t242.5 -110.5q162 0 241.5 110.5t79.5 311.5q0 200 -80 308t-244 108q-319 0 -319 -416zM352 1569h215
q32 -65 91 -155.5t106 -147.5v-25h-121q-67 53 -161 152.5t-130 154.5v21z" />
    <glyph glyph-name="oacute" unicode="&#xf3;" horiz-adv-x="1239" 
d="M1128 551q0 -273 -137 -422t-375 -149q-223 0 -363 152t-140 419q0 270 135.5 418.5t374.5 148.5q226 0 365.5 -150.5t139.5 -416.5zM299 551q0 -201 79.5 -311.5t242.5 -110.5q162 0 241.5 110.5t79.5 311.5q0 200 -80 308t-244 108q-319 0 -319 -416zM692 1569h217v-21
q-43 -61 -134.5 -159t-158.5 -148h-118v25q46 61 105 151.5t89 151.5z" />
    <glyph glyph-name="ocircumflex" unicode="&#xf4;" horiz-adv-x="1239" 
d="M616 -20q-223 0 -363 152t-140 419q0 270 135.5 418.5t374.5 148.5q226 0 365.5 -150.5t139.5 -416.5q0 -269 -137.5 -420t-374.5 -151zM299 551q0 -201 79.5 -311.5t242.5 -110.5q162 0 241.5 110.5t79.5 311.5q0 200 -80 308t-244 108q-319 0 -319 -416zM279 1241v23
q191 202 251 305h185q56 -105 256 -305v-23h-127q-97 58 -223 184q-131 -131 -220 -184h-122z" />
    <glyph glyph-name="otilde" unicode="&#xf5;" horiz-adv-x="1239" 
d="M1128 551q0 -273 -137 -422t-375 -149q-223 0 -363 152t-140 419q0 270 135.5 418.5t374.5 148.5q226 0 365.5 -150.5t139.5 -416.5zM299 551q0 -201 79.5 -311.5t242.5 -110.5q162 0 241.5 110.5t79.5 311.5q0 200 -80 308t-244 108q-319 0 -319 -416zM348 1241h-104
q12 123 70.5 192.5t154.5 69.5q20 0 42 -5t35.5 -8.5t40 -17t32.5 -16.5t37 -22l32 -19q53 -29 92 -29q46 0 72.5 29t40.5 90h102q-12 -123 -70 -192.5t-153 -69.5q-35 0 -77.5 15.5t-66 29t-71.5 43.5q-56 29 -96 29q-48 0 -73.5 -28.5t-39.5 -90.5z" />
    <glyph glyph-name="odieresis" unicode="&#xf6;" horiz-adv-x="1239" 
d="M1128 551q0 -273 -137 -422t-375 -149q-223 0 -363 152t-140 419q0 270 135.5 418.5t374.5 148.5q226 0 365.5 -150.5t139.5 -416.5zM299 551q0 -201 79.5 -311.5t242.5 -110.5q162 0 241.5 110.5t79.5 311.5q0 200 -80 308t-244 108q-319 0 -319 -416zM332 1395
q0 -49 26.5 -76t69.5 -27q41 0 68.5 27t27.5 76q0 51 -27 75.5t-69 24.5q-44 0 -70 -24.5t-26 -75.5zM717 1395q0 -49 27 -76t67 -27q41 0 68.5 27t27.5 76q0 51 -27 75.5t-69 24.5t-68 -24.5t-26 -75.5z" />
    <glyph glyph-name="divide" unicode="&#xf7;" horiz-adv-x="1171" 
d="M584 946q-51 0 -83 31t-32 94q0 65 31.5 94t83.5 29q112 0 112 -123q0 -63 -31 -94t-81 -31zM1067 649h-965v146h965v-146zM584 248q-51 0 -83 31t-32 94q0 65 31.5 94t83.5 29q112 0 112 -123q0 -63 -31 -94t-81 -31z" />
    <glyph glyph-name="oslash" unicode="&#xf8;" horiz-adv-x="1239" 
d="M1128 551q0 -273 -137 -422t-375 -149q-151 0 -264 67l-82 -115l-118 80l92 127q-131 153 -131 412q0 270 135.5 418.5t374.5 148.5q147 0 268 -74l80 115l121 -78l-93 -129q129 -155 129 -401zM299 551q0 -167 49 -262l451 626q-73 52 -181 52q-319 0 -319 -416z
M942 551q0 149 -47 252l-451 -627q71 -47 177 -47q162 0 241.5 110.5t79.5 311.5z" />
    <glyph glyph-name="ugrave" unicode="&#xf9;" horiz-adv-x="1265" 
d="M162 379v719h182v-707q0 -262 244 -262q176 0 249.5 98t73.5 299v572h181v-1098h-148l-26 145h-9q-52 -83 -144.5 -124t-203.5 -41q-201 0 -300 96.5t-99 302.5zM365 1548v21h215q32 -65 91 -156t105 -147v-25h-121q-67 53 -160.5 152t-129.5 155z" />
    <glyph glyph-name="uacute" unicode="&#xfa;" horiz-adv-x="1265" 
d="M162 379v719h182v-707q0 -262 244 -262q176 0 249.5 98t73.5 299v572h181v-1098h-148l-26 145h-9q-52 -83 -144.5 -124t-203.5 -41q-201 0 -300 96.5t-99 302.5zM510 1266q47 62 106 152t89 151h217v-21q-43 -61 -134.5 -159t-158.5 -148h-119v25z" />
    <glyph glyph-name="ucircumflex" unicode="&#xfb;" horiz-adv-x="1265" 
d="M561 -20q-201 0 -300 96.5t-99 302.5v719h182v-707q0 -262 244 -262q176 0 249.5 98t73.5 299v572h181v-1098h-148l-26 145h-9q-52 -83 -144.5 -124t-203.5 -41zM291 1241v23q194 205 252 305h184q56 -105 256 -305v-23h-127q-97 58 -223 184q-132 -132 -219 -184h-123z
" />
    <glyph glyph-name="udieresis" unicode="&#xfc;" horiz-adv-x="1265" 
d="M162 1098h182v-707q0 -262 244 -262q176 0 249.5 98t73.5 299v572h181v-1098h-148l-26 145h-9q-52 -83 -144.5 -124t-203.5 -41q-201 0 -300 96.5t-99 302.5v719zM344 1395q0 51 26 75.5t70 24.5q42 0 69.5 -24.5t27.5 -75.5q0 -49 -28 -76t-69 -27q-43 0 -69.5 27
t-26.5 76zM729 1395q0 51 26 75.5t68 24.5t69.5 -24.5t27.5 -75.5q0 -49 -28 -76t-69 -27q-40 0 -67 27t-27 76z" />
    <glyph glyph-name="yacute" unicode="&#xfd;" horiz-adv-x="1044" 
d="M444 -4l-442 1102h193l237 -625q76 -210 92 -299h8q19 81 95 301l223 623h194l-473 -1250q-65 -168 -156.5 -254t-242.5 -86q-75 0 -149 17v143q62 -12 120 -12q166 0 244 194zM399 1241v25q47 62 106 152t89 151h217v-21q-43 -61 -134.5 -159t-158.5 -148h-119z" />
    <glyph glyph-name="thorn" unicode="&#xfe;" horiz-adv-x="1259" 
d="M354 -492h-180v2048h180v-458q0 -43 -6 -148h8q121 168 340 168q208 0 329.5 -146t121.5 -421t-122 -423t-329 -148q-223 0 -342 159h-12q12 -93 12 -172v-459zM354 551q0 -213 70.5 -317.5t243.5 -104.5q293 0 293 424q0 209 -72 311.5t-223 102.5q-166 0 -238 -91.5
t-74 -285.5v-39z" />
    <glyph glyph-name="ydieresis" unicode="&#xff;" horiz-adv-x="1044" 
d="M444 -4l-442 1102h193l237 -625q76 -210 92 -299h8q19 81 95 301l223 623h194l-473 -1250q-65 -168 -156.5 -254t-242.5 -86q-75 0 -149 17v143q62 -12 120 -12q166 0 244 194zM330 1495q42 0 69 -24.5t27 -75.5q0 -49 -27.5 -76t-68.5 -27q-43 0 -70 27t-27 76
q0 51 26.5 75.5t70.5 24.5zM713 1495q42 0 69 -24.5t27 -75.5q0 -49 -27.5 -76t-68.5 -27q-40 0 -67.5 27t-27.5 76q0 51 26.5 75.5t68.5 24.5z" />
    <glyph glyph-name="Amacron" unicode="&#x100;" horiz-adv-x="1308" 
d="M186 0h-186l571 1468h166l570 -1468h-191l-176 453h-580zM422 616h463l-164 443q-19 55 -70 219q-47 -173 -63 -219zM346 1606v145h608v-145h-608z" />
    <glyph glyph-name="amacron" unicode="&#x101;" horiz-adv-x="1148" 
d="M590 1116q202 0 297.5 -88.5t95.5 -279.5v-748h-131l-35 156h-8q-70 -88 -152 -133q-79 -43 -217 -43q-149 0 -247 79q-99 77 -99 246q0 335 527 350l186 7v65q0 132 -56.5 188t-170.5 56q-134 0 -310 -84l-55 135q177 94 375 94zM805 438v99l-162 -7q-210 -9 -283 -65
q-79 -58 -79 -162q0 -89 54 -133.5t146 -44.5q136 0 232 78q92 77 92 235zM270 1386h609v-145h-609v145z" />
    <glyph glyph-name="Abreve" unicode="&#x102;" horiz-adv-x="1308" 
d="M186 0h-186l571 1468h166l570 -1468h-191l-176 453h-580zM588 1059l-166 -443h463l-164 443q-19 55 -70 219q-47 -173 -63 -219zM342 1880h111q7 -79 54.5 -104t151.5 -25q90 0 143.5 27.5t63.5 101.5h113q-11 -126 -95 -200t-229 -74q-149 0 -227 71.5t-86 202.5z" />
    <glyph glyph-name="abreve" unicode="&#x103;" horiz-adv-x="1148" 
d="M440 -20q-157 0 -251.5 82t-94.5 243q0 335 527 350l186 7v65q0 132 -56.5 188t-170.5 56q-134 0 -310 -84l-55 135q177 94 375 94q202 0 297.5 -88.5t95.5 -279.5v-748h-131l-35 156h-8q-75 -95 -156 -135.5t-213 -40.5zM643 530q-197 -7 -279.5 -62.5t-82.5 -164.5
q0 -89 54 -133.5t146 -44.5q144 0 234 80t90 233v99zM580 1241q-149 0 -227.5 72t-86.5 203h111q7 -79 55 -104.5t152 -25.5q90 0 143.5 28t63.5 102h112q-11 -126 -95 -200.5t-228 -74.5z" />
    <glyph glyph-name="Aogonek" unicode="&#x104;" horiz-adv-x="1308" 
d="M186 0h-186l571 1468h166l570 -1468h-52q-73 -70 -106 -124t-33 -114q0 -92 92 -92q28 0 62 6.5t37 6.5v-115q-74 -19 -127 -19q-106 0 -158.5 50t-52.5 143q0 68 43.5 137.5t105.5 120.5h-2l-176 453h-580zM422 616h463l-164 443q-19 55 -70 219q-47 -173 -63 -219z" />
    <glyph glyph-name="aogonek" unicode="&#x105;" horiz-adv-x="1148" 
d="M440 -20q-157 0 -251.5 82t-94.5 243q0 335 527 350l186 7v65q0 132 -56.5 188t-170.5 56q-134 0 -310 -84l-55 135q177 94 375 94q202 0 297.5 -88.5t95.5 -279.5v-748q-73 -70 -106 -124t-33 -114q0 -92 92 -92q28 0 61 6.5t37 6.5v-115q-74 -19 -127 -19
q-106 0 -158.5 50t-52.5 143q0 69 45.5 139.5t108.5 122.5l-33 152h-8q-75 -95 -156 -135.5t-213 -40.5zM643 530q-197 -7 -279.5 -62.5t-82.5 -164.5q0 -89 54 -133.5t146 -44.5q144 0 234 80t90 233v99z" />
    <glyph glyph-name="Cacute" unicode="&#x106;" horiz-adv-x="1294" 
d="M825 1321q-233 0 -370 -158q-136 -157 -136 -432q0 -277 128.5 -433.5t375.5 -156.5q152 0 351 58v-160q-157 -59 -377 -59q-328 0 -500 200t-172 553q0 222 80 390t240 264t382 96q230 0 404 -86l-74 -156q-176 80 -332 80zM850 1933h217v-20q-43 -61 -134.5 -159
t-158.5 -148h-119v24q47 62 106 152t89 151z" />
    <glyph glyph-name="cacute" unicode="&#x107;" horiz-adv-x="983" 
d="M614 -20q-230 0 -365.5 140.5t-135.5 422.5q0 148 38.5 260.5t108.5 180t162 101t205 33.5q79 0 158 -16.5t130 -42.5l-55 -150q-137 52 -237 52q-324 0 -324 -416q0 -199 79.5 -304.5t233.5 -105.5q146 0 285 64v-160q-112 -59 -283 -59zM653 1569h217v-21
q-43 -61 -134 -159t-158 -148h-119v25q46 61 105 151.5t89 151.5z" />
    <glyph glyph-name="Ccircumflex" unicode="&#x108;" horiz-adv-x="1294" 
d="M797 -20q-328 0 -500 200t-172 553q0 222 80 390t240 264t382 96q230 0 404 -86l-74 -156q-176 80 -332 80q-235 0 -370.5 -157.5t-135.5 -432.5q0 -277 128.5 -433.5t375.5 -156.5q152 0 351 58v-160q-157 -59 -377 -59zM559 1606h-123v22q194 205 252 305h184
q56 -105 256 -305v-22h-127q-97 58 -223 184q-132 -132 -219 -184z" />
    <glyph glyph-name="ccircumflex" unicode="&#x109;" horiz-adv-x="983" 
d="M113 543q0 148 38.5 260.5t108.5 180t162 101t205 33.5q79 0 158 -16.5t130 -42.5l-55 -150q-137 52 -237 52q-324 0 -324 -416q0 -199 79.5 -304.5t233.5 -105.5q146 0 285 64v-160q-112 -59 -283 -59q-230 0 -365.5 140.5t-135.5 422.5zM362 1241h-122v23
q194 205 252 305h184q56 -105 256 -305v-23h-127q-97 58 -223 184q-131 -131 -220 -184z" />
    <glyph glyph-name="Cdotaccent" unicode="&#x10a;" horiz-adv-x="1294" 
d="M825 1321q-233 0 -370 -158q-136 -157 -136 -432q0 -277 128.5 -433.5t375.5 -156.5q152 0 351 58v-160q-157 -59 -377 -59q-328 0 -500 200t-172 553q0 222 80 390t240 264t382 96q230 0 404 -86l-74 -156q-176 80 -332 80zM784 1874q-47 0 -76.5 -29t-29.5 -86
t29.5 -85.5t76.5 -28.5q45 0 75 28.5t30 85.5t-30 86t-75 29z" />
    <glyph glyph-name="cdotaccent" unicode="&#x10b;" horiz-adv-x="983" 
d="M614 -20q-230 0 -365.5 140.5t-135.5 422.5q0 148 38.5 260.5t108.5 180t162 101t205 33.5q79 0 158 -16.5t130 -42.5l-55 -150q-137 52 -237 52q-324 0 -324 -416q0 -199 79.5 -304.5t233.5 -105.5q146 0 285 64v-160q-112 -59 -283 -59zM588 1509q-47 0 -77 -28.5
t-30 -85.5t30 -86t77 -29q45 0 74.5 29t29.5 86t-29.5 85.5t-74.5 28.5z" />
    <glyph glyph-name="Ccaron" unicode="&#x10c;" horiz-adv-x="1294" 
d="M125 733q0 222 80 390t240 264t382 96q230 0 404 -86l-74 -156q-176 80 -332 80q-235 0 -370.5 -157.5t-135.5 -432.5q0 -277 128.5 -433.5t375.5 -156.5q152 0 351 58v-160q-157 -59 -377 -59q-328 0 -500 200t-172 553zM432 1933h123q116 -75 219 -188q122 122 223 188
h127v-26q-204 -204 -256 -301h-184q-52 90 -252 301v26z" />
    <glyph glyph-name="ccaron" unicode="&#x10d;" horiz-adv-x="983" 
d="M614 -20q-230 0 -365.5 140.5t-135.5 422.5q0 148 38.5 260.5t108.5 180t162 101t205 33.5q79 0 158 -16.5t130 -42.5l-55 -150q-137 52 -237 52q-324 0 -324 -416q0 -199 79.5 -304.5t233.5 -105.5q146 0 285 64v-160q-112 -59 -283 -59zM236 1569h122q116 -76 220 -189
q125 125 223 189h127v-27q-204 -204 -256 -301h-185q-54 93 -251 301v27z" />
    <glyph glyph-name="Dcaron" unicode="&#x10e;" horiz-adv-x="1495" 
d="M199 0v1462h450q335 0 528 -186t193 -531q0 -366 -199 -555.5t-565 -189.5h-407zM383 158h199q594 0 594 581q0 566 -553 566h-240v-1147zM645 1606q-52 90 -252 301v26h123q116 -75 219 -188q122 122 223 188h127v-26q-204 -204 -256 -301h-184z" />
    <glyph glyph-name="dcaron" unicode="&#x10f;" horiz-adv-x="1259" 
d="M113 547q0 277 121.5 424t330.5 147q218 0 340 -162h13q-13 76 -13 162v438h180v-1556h-145l-27 147h-8q-120 -167 -342 -167q-209 0 -329.5 145t-120.5 422zM299 543q0 -200 73.5 -307t219.5 -107q169 0 242 93t73 290v33q0 215 -70.5 319.5t-246.5 104.5
q-143 0 -217 -113t-74 -313zM1163 1229v24q46 145 68 303h178v-18q-12 -53 -57 -147.5t-90 -161.5h-99z" />
    <glyph glyph-name="Dcroat" unicode="&#x110;" horiz-adv-x="1495" 
d="M61 803h152v659h436q334 0 527.5 -186t193.5 -531q0 -366 -199.5 -555.5t-566.5 -189.5h-391v643h-152v160zM397 1305v-502h365v-160h-365v-485h185q594 0 594 581q0 287 -142 426.5t-411 139.5h-226z" />
    <glyph glyph-name="dcroat" unicode="&#x111;" horiz-adv-x="1263" 
d="M113 543q0 280 120.5 424.5t329.5 144.5q220 0 342 -162h13q-13 76 -13 164v125h-436v135h436v182h180v-182h156v-135h-156v-1239h-147l-27 147h-8q-120 -167 -340 -167q-211 0 -330.5 143.5t-119.5 419.5zM301 541q0 -200 73 -306t220 -106q168 0 240.5 92t72.5 287v35
q0 217 -70.5 318.5t-246.5 101.5q-143 0 -216 -110.5t-73 -311.5z" />
    <glyph glyph-name="Emacron" unicode="&#x112;" horiz-adv-x="1138" 
d="M1016 0h-817v1462h817v-162h-633v-456h596v-160h-596v-522h633v-162zM319 1751h609v-145h-609v145z" />
    <glyph glyph-name="emacron" unicode="&#x113;" horiz-adv-x="1155" 
d="M598 1118q209 0 331 -134.5t122 -360.5v-109h-752q4 -185 94.5 -283t255.5 -98q99 0 179.5 18.5t172.5 57.5v-158q-87 -38 -168.5 -54.5t-191.5 -16.5q-242 0 -385 145t-143 416q0 266 132.5 421.5t352.5 155.5zM596 971q-128 0 -203.5 -82.5t-89.5 -231.5h559
q-2 146 -68 230t-198 84zM279 1386h608v-145h-608v145z" />
    <glyph glyph-name="Ebreve" unicode="&#x114;" horiz-adv-x="1138" 
d="M199 0v1462h817v-162h-633v-456h596v-160h-596v-522h633v-162h-817zM315 1880h111q7 -79 55 -104t152 -25q90 0 143.5 27.5t63.5 101.5h112q-11 -126 -94.5 -200t-228.5 -74q-149 0 -227.5 71.5t-86.5 202.5z" />
    <glyph glyph-name="ebreve" unicode="&#x115;" horiz-adv-x="1155" 
d="M113 541q0 266 132.5 421.5t352.5 155.5q209 0 331 -134.5t122 -360.5v-109h-752q4 -185 94.5 -283t255.5 -98q99 0 179.5 18.5t172.5 57.5v-158q-87 -38 -168.5 -54.5t-191.5 -16.5q-242 0 -385 145t-143 416zM596 971q-128 0 -203.5 -82.5t-89.5 -231.5h559
q-2 146 -68 230t-198 84zM588 1241q-149 0 -227.5 72t-86.5 203h111q7 -79 55 -104.5t152 -25.5q90 0 143.5 28t63.5 102h112q-11 -126 -95 -200.5t-228 -74.5z" />
    <glyph glyph-name="Edotaccent" unicode="&#x116;" horiz-adv-x="1138" 
d="M199 0v1462h817v-162h-633v-456h596v-160h-596v-522h633v-162h-817zM524 1759q0 57 30 86t77 29q45 0 74.5 -29t29.5 -86t-29.5 -85.5t-74.5 -28.5q-47 0 -77 28.5t-30 85.5z" />
    <glyph glyph-name="edotaccent" unicode="&#x117;" horiz-adv-x="1155" 
d="M598 1118q209 0 331 -134.5t122 -360.5v-109h-752q4 -185 94.5 -283t255.5 -98q99 0 179.5 18.5t172.5 57.5v-158q-87 -38 -168.5 -54.5t-191.5 -16.5q-242 0 -385 145t-143 416q0 266 132.5 421.5t352.5 155.5zM596 971q-128 0 -203.5 -82.5t-89.5 -231.5h559
q-2 146 -68 230t-198 84zM590 1509q-47 0 -77 -28.5t-30 -85.5t30 -86t77 -29q45 0 74.5 29t29.5 86t-29.5 85.5t-74.5 28.5z" />
    <glyph glyph-name="Eogonek" unicode="&#x118;" horiz-adv-x="1138" 
d="M199 0v1462h817v-162h-633v-456h596v-160h-596v-522h633v-162h-62q-73 -70 -106 -124t-33 -114q0 -92 92 -92q28 0 62 6.5t37 6.5v-115q-74 -19 -127 -19q-106 0 -158.5 50t-52.5 143q0 68 43.5 137.5t105.5 120.5h-618z" />
    <glyph glyph-name="eogonek" unicode="&#x119;" horiz-adv-x="1155" 
d="M797 -238q0 -92 92 -92q25 0 59.5 6.5t38.5 6.5v-115q-74 -19 -127 -19q-106 0 -158.5 50t-52.5 143q0 121 135 246q-57 -8 -143 -8q-242 0 -385 145t-143 416q0 266 132.5 421.5t352.5 155.5q209 0 331 -134.5t122 -360.5v-109h-752q4 -185 94.5 -283t255.5 -98
q99 0 179.5 18.5t172.5 57.5v-158q-119 -93 -161.5 -157t-42.5 -132zM596 971q-128 0 -203.5 -82.5t-89.5 -231.5h559q-2 146 -68 230t-198 84z" />
    <glyph glyph-name="Ecaron" unicode="&#x11a;" horiz-adv-x="1138" 
d="M199 1462h817v-162h-633v-456h596v-160h-596v-522h633v-162h-817v1462zM279 1907v26h122q118 -77 220 -188q122 122 223 188h127v-26q-204 -204 -256 -301h-185q-54 93 -251 301z" />
    <glyph glyph-name="ecaron" unicode="&#x11b;" horiz-adv-x="1155" 
d="M113 541q0 266 132.5 421.5t352.5 155.5q209 0 331 -134.5t122 -360.5v-109h-752q4 -185 94.5 -283t255.5 -98q99 0 179.5 18.5t172.5 57.5v-158q-87 -38 -168.5 -54.5t-191.5 -16.5q-242 0 -385 145t-143 416zM303 657h559q-2 146 -68 230t-198 84q-128 0 -203.5 -82.5
t-89.5 -231.5zM238 1542v27h122q116 -76 220 -189q125 125 223 189h127v-27q-204 -204 -256 -301h-185q-54 93 -251 301z" />
    <glyph glyph-name="Gcircumflex" unicode="&#x11c;" horiz-adv-x="1490" 
d="M825 -20q-336 0 -518 199.5t-182 551.5q0 345 200.5 548.5t557.5 203.5q241 0 436 -86l-70 -160q-203 84 -377 84q-261 0 -408 -158.5t-147 -431.5q0 -134 31.5 -240.5t96.5 -186t172.5 -122.5t250.5 -43t287 35v434h-321v164h505v-717q-232 -75 -514 -75zM487 1628
q194 205 252 305h185q56 -105 256 -305v-22h-127q-99 59 -224 184q-132 -132 -219 -184h-123v22z" />
    <glyph glyph-name="gcircumflex" unicode="&#x11d;" horiz-adv-x="1259" 
d="M113 547q0 264 120 417.5t330 153.5q224 0 344 -166h11l24 146h143v-1116q0 -237 -120.5 -355.5t-370.5 -118.5q-243 0 -395 70v166q164 -86 405 -86q141 0 222 83t81 226v43q0 60 6 135h-8q-110 -165 -340 -165q-214 0 -333 149.5t-119 417.5zM588 967q-137 0 -213 -110
t-76 -312q0 -204 74 -311t219 -107q166 0 241.5 89.5t75.5 287.5v43q0 221 -77 320.5t-244 99.5zM266 1264q194 205 252 305h184q56 -105 256 -305v-23h-127q-97 58 -223 184q-132 -132 -219 -184h-123v23z" />
    <glyph glyph-name="Gbreve" unicode="&#x11e;" horiz-adv-x="1490" 
d="M125 731q0 345 200.5 548.5t557.5 203.5q241 0 436 -86l-70 -160q-203 84 -377 84q-261 0 -408 -158.5t-147 -431.5q0 -134 31.5 -240.5t96.5 -186t172.5 -122.5t250.5 -43t287 35v434h-321v164h505v-717q-232 -75 -514 -75q-336 0 -518 199.5t-182 551.5zM834 1606
q-149 0 -227.5 71.5t-86.5 202.5h111q7 -79 55 -104t152 -25q90 0 143 27.5t63 101.5h113q-11 -126 -94.5 -200t-228.5 -74z" />
    <glyph glyph-name="gbreve" unicode="&#x11f;" horiz-adv-x="1259" 
d="M113 547q0 264 120 417.5t330 153.5q224 0 344 -166h11l24 146h143v-1116q0 -237 -120.5 -355.5t-370.5 -118.5q-243 0 -395 70v166q164 -86 405 -86q141 0 222 83t81 226v43q0 60 6 135h-8q-110 -165 -340 -165q-214 0 -333 149.5t-119 417.5zM588 967q-137 0 -213 -110
t-76 -312q0 -204 74 -311t219 -107q166 0 241.5 89.5t75.5 287.5v43q0 221 -77 320.5t-244 99.5zM612 1241q-149 0 -227 72t-86 203h111q7 -79 55 -104.5t151 -25.5q90 0 143.5 28t63.5 102h113q-11 -126 -95 -200.5t-229 -74.5z" />
    <glyph glyph-name="Gdotaccent" unicode="&#x120;" horiz-adv-x="1490" 
d="M834 608v164h505v-717q-232 -75 -514 -75q-336 0 -518 199.5t-182 551.5q0 345 200.5 548.5t557.5 203.5q241 0 436 -86l-70 -160q-203 84 -377 84q-261 0 -407 -158q-148 -160 -148 -432q0 -134 31.5 -240.5t96.5 -186t172.5 -122.5t250.5 -43t287 35v434h-321z
M836 1874q-47 0 -77 -29t-30 -86t30 -85.5t77 -28.5q45 0 74.5 28.5t29.5 85.5t-29.5 86t-74.5 29z" />
    <glyph glyph-name="gdotaccent" unicode="&#x121;" horiz-adv-x="1259" 
d="M563 1118q224 0 344 -166h11l24 146h143v-1116q0 -237 -120.5 -355.5t-370.5 -118.5q-243 0 -395 70v166q164 -86 405 -86q141 0 222 83t81 226v43q0 81 6 135h-8q-110 -165 -340 -165q-214 0 -333 149.5t-119 417.5q0 262 120 418q120 153 330 153zM588 967
q-137 0 -213 -110t-76 -312q0 -204 74 -311t219 -107q166 0 241.5 89.5t75.5 287.5v43q0 221 -77 320.5t-244 99.5zM614 1509q-47 0 -76.5 -28.5t-29.5 -85.5t29.5 -86t76.5 -29q45 0 75 29t30 86t-30 85.5t-75 28.5z" />
    <glyph glyph-name="uni0122" unicode="&#x122;" horiz-adv-x="1490" 
d="M834 608v164h505v-717q-232 -75 -514 -75q-336 0 -518 199.5t-182 551.5q0 345 200.5 548.5t557.5 203.5q241 0 436 -86l-70 -160q-203 84 -377 84q-261 0 -407 -158q-148 -160 -148 -432q0 -134 31.5 -240.5t96.5 -186t172.5 -122.5t250.5 -43t287 35v434h-321z
M776 -125h178v-18q-17 -61 -65 -156.5t-98 -153.5h-99v25q25 58 51.5 150.5t32.5 152.5z" />
    <glyph glyph-name="uni0123" unicode="&#x123;" horiz-adv-x="1259" 
d="M563 1118q224 0 344 -166h11l24 146h143v-1116q0 -237 -120.5 -355.5t-370.5 -118.5q-243 0 -395 70v166q164 -86 405 -86q141 0 222 83t81 226v43q0 81 6 135h-8q-110 -165 -340 -165q-214 0 -333 149.5t-119 417.5q0 262 120 418q120 153 330 153zM588 967
q-137 0 -213 -110t-76 -312q0 -204 74 -311t219 -107q166 0 241.5 89.5t75.5 287.5v43q0 221 -77 320.5t-244 99.5zM643 1569h100v-25q-24 -52 -50.5 -145t-35.5 -158h-178v19q17 61 64.5 154.5t99.5 154.5z" />
    <glyph glyph-name="Hcircumflex" unicode="&#x124;" horiz-adv-x="1517" 
d="M383 0h-184v1462h184v-618h750v618h184v-1462h-184v682h-750v-682zM541 1606h-123v22q194 205 252 305h184q56 -105 256 -305v-22h-127q-97 58 -223 184q-132 -132 -219 -184z" />
    <glyph glyph-name="hcircumflex" unicode="&#x125;" horiz-adv-x="1265" 
d="M174 0v1556h180v-456q0 -76 -10 -154h12q53 83 143.5 126.5t198.5 43.5q201 0 301.5 -97t100.5 -304v-715h-178v702q0 265 -246 265q-177 0 -249.5 -99t-72.5 -301v-567h-180zM47 1700h-123v22q192 203 252 306h184q57 -107 256 -306v-22h-127q-97 58 -223 184
q-132 -132 -219 -184z" />
    <glyph glyph-name="Hbar" unicode="&#x126;" horiz-adv-x="1517" 
d="M0 1071v148h199v243h184v-243h750v243h184v-243h199v-148h-199v-1071h-184v682h-750v-682h-184v1071h-199zM383 844h750v227h-750v-227z" />
    <glyph glyph-name="hbar" unicode="&#x127;" horiz-adv-x="1265" 
d="M18 1237v135h156v184h180v-184h434v-135h-434v-178q0 -80 -10 -152h12q53 83 144 126.5t200 43.5q201 0 300.5 -97.5t99.5 -305.5v-674h-178v662q0 264 -246 264q-177 0 -249.5 -98t-72.5 -300v-528h-180v1237h-156z" />
    <glyph glyph-name="Itilde" unicode="&#x128;" horiz-adv-x="694" 
d="M82 106l172 39v1170l-172 41v106h528v-106l-172 -41v-1170l172 -39v-106h-528v106zM76 1606h-105q12 123 71 192.5t155 69.5q41 0 88 -18.5t81.5 -40t74 -40t67.5 -18.5q46 0 72.5 29t40.5 90h102q-12 -123 -70 -192.5t-153 -69.5q-49 0 -108 29t-113 58t-91 29
q-48 0 -73 -28t-39 -90z" />
    <glyph glyph-name="itilde" unicode="&#x129;" horiz-adv-x="528" 
d="M354 1098v-1098h-180v1098h180zM-8 1241h-105q12 123 71 192.5t155 69.5q20 0 42 -5t35.5 -8.5t40 -17t32.5 -16.5t37 -22l32 -19q53 -29 92 -29q46 0 72.5 29t40.5 90h102q-12 -123 -70 -192.5t-153 -69.5q-35 0 -77.5 15.5t-66 29t-71.5 43.5q-56 29 -97 29
q-48 0 -73 -28.5t-39 -90.5z" />
    <glyph glyph-name="Imacron" unicode="&#x12a;" horiz-adv-x="694" 
d="M254 1315l-172 41v106h528v-106l-172 -41v-1170l172 -39v-106h-528v106l172 39v1170zM651 1606h-608v145h608v-145z" />
    <glyph glyph-name="imacron" unicode="&#x12b;" horiz-adv-x="528" 
d="M354 1098v-1098h-180v1098h180zM-41 1386h608v-145h-608v145z" />
    <glyph glyph-name="Ibreve" unicode="&#x12c;" horiz-adv-x="694" 
d="M82 0v106l172 39v1170l-172 41v106h528v-106l-172 -41v-1170l172 -39v-106h-528zM352 1606q-149 0 -227 71.5t-86 202.5h111q7 -79 54.5 -104t151.5 -25q90 0 143.5 27.5t63.5 101.5h113q-11 -126 -95 -200t-229 -74z" />
    <glyph glyph-name="ibreve" unicode="&#x12d;" horiz-adv-x="528" 
d="M354 0h-180v1098h180v-1098zM268 1241q-149 0 -227 72t-86 203h111q7 -79 55 -104.5t151 -25.5q90 0 143.5 28t63.5 102h113q-11 -126 -95 -200.5t-229 -74.5z" />
    <glyph glyph-name="Iogonek" unicode="&#x12e;" horiz-adv-x="694" 
d="M82 0v106l172 39v1170l-172 41v106h528v-106l-172 -41v-1170l172 -39v-106h-53q-73 -70 -106 -124t-33 -114q0 -92 92 -92q28 0 61 6.5t37 6.5v-115q-74 -19 -127 -19q-106 0 -158.5 50t-52.5 143q0 68 44 137.5t106 120.5h-338z" />
    <glyph glyph-name="iogonek" unicode="&#x12f;" horiz-adv-x="528" 
d="M266 -451q-106 0 -158.5 50t-52.5 143q0 68 44 137.5t106 120.5h-31v1098h180v-1098h-12q-73 -70 -106 -124t-33 -114q0 -92 92 -92q28 0 61 6.5t37 6.5v-115q-74 -19 -127 -19zM160 1395q0 57 29.5 85.5t76.5 28.5q45 0 75 -28.5t30 -85.5t-30 -86t-75 -29
q-47 0 -76.5 29t-29.5 86z" />
    <glyph glyph-name="Idotaccent" unicode="&#x130;" horiz-adv-x="694" 
d="M82 1462h528v-106l-172 -41v-1170l172 -39v-106h-528v106l172 39v1170l-172 41v106zM354 1874q45 0 75 -29t30 -86t-30 -85.5t-75 -28.5q-47 0 -76.5 28.5t-29.5 85.5t29.5 86t76.5 29z" />
    <glyph glyph-name="dotlessi" unicode="&#x131;" horiz-adv-x="528" 
d="M354 1098v-1098h-180v1098h180z" />
    <glyph glyph-name="IJ" unicode="&#x132;" horiz-adv-x="1253" 
d="M686 -389q-85 0 -151 27v155q61 -20 147 -20q88 0 144.5 53.5t56.5 181.5v1454h184v-1439q0 -205 -101.5 -308.5t-279.5 -103.5zM254 1315l-172 41v106h528v-106l-172 -41v-1170l172 -39v-106h-528v106l172 39v1170z" />
    <glyph glyph-name="ij" unicode="&#x133;" horiz-adv-x="1056" 
d="M573 -492q-95 0 -157 25v145q59 -20 135 -20q72 0 111.5 39t39.5 133v1268h181v-1262q0 -158 -76.5 -243t-233.5 -85zM174 0v1098h180v-1098h-180zM688 1395q0 57 30 85.5t77 28.5q45 0 74.5 -28.5t29.5 -85.5t-29.5 -86t-74.5 -29q-47 0 -77 29t-30 86zM160 1395
q0 57 29.5 85.5t76.5 28.5q45 0 75 -28.5t30 -85.5t-30 -86t-75 -29q-47 0 -76.5 29t-29.5 86z" />
    <glyph glyph-name="Jcircumflex" unicode="&#x134;" horiz-adv-x="559" 
d="M-160 -207q61 -20 148 -20q88 0 144 53.5t56 181.5v1454h185v-1439q0 -205 -101.5 -308.5t-279.5 -103.5q-86 0 -152 27v155zM-61 1606v22q191 202 251 305h185q56 -105 256 -305v-22h-127q-97 58 -223 184q-131 -131 -220 -184h-122z" />
    <glyph glyph-name="jcircumflex" unicode="&#x135;" horiz-adv-x="528" 
d="M-113 -322q59 -20 136 -20q72 0 111.5 39t39.5 133v1268h180v-1262q0 -158 -76 -243t-233 -85q-96 0 -158 25v145zM-78 1241v23q194 205 252 305h184q56 -105 256 -305v-23h-127q-97 58 -223 184q-132 -132 -219 -184h-123z" />
    <glyph glyph-name="uni0136" unicode="&#x136;" horiz-adv-x="1267" 
d="M383 0h-184v1462h184v-721q112 126 252 279l395 442h215l-579 -637l602 -825h-217l-519 698l-149 -131v-567zM545 -453v25q25 58 51.5 150.5t32.5 152.5h178v-18q-17 -61 -65.5 -156.5t-98.5 -153.5h-98z" />
    <glyph glyph-name="uni0137" unicode="&#x137;" horiz-adv-x="1093" 
d="M352 0h-178v1556h178v-813q0 -25 -4 -95.5t-4 -82.5h8q69 93 131 162l351 371h210l-444 -469l475 -629h-217l-381 512l-125 -109v-403zM416 -428q25 58 51.5 150.5t32.5 152.5h178v-18q-17 -61 -65.5 -156.5t-98.5 -153.5h-98v25z" />
    <glyph glyph-name="kgreenlandic" unicode="&#x138;" horiz-adv-x="1093" 
d="M174 0v1098h191v-285q0 -159 -13 -278h4q1 2 4.5 6t4.5 6q50 67 71 92l389 459h217l-415 -486l448 -612h-215l-360 496l-135 -111v-385h-191z" />
    <glyph glyph-name="Lacute" unicode="&#x139;" horiz-adv-x="1073" 
d="M1022 0h-823v1462h184v-1298h639v-164zM358 1933h217v-20q-43 -61 -134 -159t-158 -148h-119v24q46 61 105 151.5t89 151.5z" />
    <glyph glyph-name="lacute" unicode="&#x13a;" horiz-adv-x="528" 
d="M354 1556v-1556h-180v1556h180zM336 2028h217v-21q-43 -61 -134.5 -159t-158.5 -148h-119v24q47 61 106 152t89 152z" />
    <glyph glyph-name="uni013B" unicode="&#x13b;" horiz-adv-x="1073" 
d="M1022 0h-823v1462h184v-1298h639v-164zM567 -125h178v-18q-17 -61 -65 -156.5t-98 -153.5h-99v25q25 58 51.5 150.5t32.5 152.5z" />
    <glyph glyph-name="uni013C" unicode="&#x13c;" horiz-adv-x="528" 
d="M354 1556v-1556h-180v1556h180zM217 -125h178v-18q-17 -61 -65.5 -156.5t-98.5 -153.5h-98v25q25 58 51.5 150.5t32.5 152.5z" />
    <glyph glyph-name="Lcaron" unicode="&#x13d;" horiz-adv-x="1073" 
d="M1022 0h-823v1462h184v-1298h639v-164zM776 1135v24q46 145 68 303h178v-18q-12 -53 -57.5 -147.5t-90.5 -161.5h-98z" />
    <glyph glyph-name="lcaron" unicode="&#x13e;" horiz-adv-x="528" 
d="M174 1556h180v-1556h-180v1556zM444 1229v24q46 145 68 303h178v-18q-12 -53 -57 -147.5t-90 -161.5h-99z" />
    <glyph glyph-name="Ldot" unicode="&#x13f;" horiz-adv-x="1073" 
d="M1022 0h-823v1462h184v-1298h639v-164zM784 846q45 0 75 -29t30 -86t-30 -86t-75 -29q-47 0 -76.5 29t-29.5 86t29.5 86t76.5 29z" />
    <glyph glyph-name="ldot" unicode="&#x140;" horiz-adv-x="548" 
d="M354 1556v-1556h-180v1556h180zM539 891q45 0 74.5 -29t29.5 -86t-29.5 -85.5t-74.5 -28.5q-47 0 -77 28.5t-30 85.5t30 86t77 29z" />
    <glyph glyph-name="Lslash" unicode="&#x141;" horiz-adv-x="1073" 
d="M27 571l172 103v788h184v-680l281 166l73 -129l-354 -205v-450h639v-164h-823v506l-101 -57z" />
    <glyph glyph-name="lslash" unicode="&#x142;" horiz-adv-x="528" 
d="M-18 639l178 115v802h180v-686l131 91l76 -121l-207 -140v-700h-180v584l-105 -66z" />
    <glyph glyph-name="Nacute" unicode="&#x143;" horiz-adv-x="1556" 
d="M199 0v1462h213l780 -1210h8q-14 213 -14 385v825h172v-1462h-215l-783 1214h-8q17 -272 17 -397v-817h-170zM655 1630q47 62 106 152t89 151h217v-20q-43 -61 -134.5 -159t-158.5 -148h-119v24z" />
    <glyph glyph-name="nacute" unicode="&#x144;" horiz-adv-x="1265" 
d="M174 1098h145l27 -150h10q52 83 144.5 126.5t201.5 43.5q200 0 299 -99t99 -304v-715h-178v702q0 265 -246 265q-176 0 -249 -98.5t-73 -299.5v-569h-180v1098zM510 1266q47 62 106 152t89 151h217v-21q-43 -61 -134.5 -159t-158.5 -148h-119v25z" />
    <glyph glyph-name="uni0145" unicode="&#x145;" horiz-adv-x="1556" 
d="M199 0v1462h213l780 -1210h8q-14 213 -14 385v825h172v-1462h-215l-783 1214h-8q17 -272 17 -397v-817h-170zM745 -453h-98v25q25 58 51.5 150.5t32.5 152.5h178v-18q-17 -61 -65.5 -156.5t-98.5 -153.5z" />
    <glyph glyph-name="uni0146" unicode="&#x146;" horiz-adv-x="1265" 
d="M174 1098h145l27 -150h10q52 83 144.5 126.5t201.5 43.5q199 0 298.5 -97.5t99.5 -305.5v-715h-178v702q0 265 -246 265q-176 0 -249 -98.5t-73 -299.5v-569h-180v1098zM502 -453v25q25 58 51.5 150.5t32.5 152.5h178v-18q-17 -61 -65.5 -156.5t-98.5 -153.5h-98z" />
    <glyph glyph-name="Ncaron" unicode="&#x147;" horiz-adv-x="1556" 
d="M199 1462h213l780 -1210h8q-14 213 -14 385v825h172v-1462h-215l-783 1214h-8q17 -272 17 -397v-817h-170v1462zM432 1907v26h123q116 -75 219 -188q122 122 223 188h127v-26q-204 -204 -256 -301h-184q-52 90 -252 301z" />
    <glyph glyph-name="ncaron" unicode="&#x148;" horiz-adv-x="1265" 
d="M174 0v1098h145l27 -150h10q52 83 144.5 126.5t201.5 43.5q199 0 298.5 -97.5t99.5 -305.5v-715h-178v702q0 265 -246 265q-176 0 -249 -98.5t-73 -299.5v-569h-180zM539 1241q-52 90 -252 301v27h123q113 -74 219 -189q125 125 223 189h127v-27q-204 -204 -256 -301
h-184z" />
    <glyph glyph-name="napostrophe" unicode="&#x149;" horiz-adv-x="1409" 
d="M498 0h-181v1098h146l26 -150h11q52 83 144.5 126.5t201.5 43.5q199 0 298 -97.5t99 -305.5v-715h-178v702q0 265 -246 265q-176 0 -248.5 -98.5t-72.5 -299.5v-569zM135 961h-133q63 231 102 501h193l14 -22q-47 -197 -176 -479z" />
    <glyph glyph-name="Eng" unicode="&#x14a;" horiz-adv-x="1556" 
d="M199 0v1462h213l780 -1171h8q-14 154 -14 409v762h172v-1450q0 -199 -101.5 -300t-283.5 -101q-97 0 -156 27v155q61 -20 156 -20q42 0 77 10.5t66.5 35t50 70.5t19.5 111l-826 1214h-8q17 -162 17 -421v-793h-170z" />
    <glyph glyph-name="eng" unicode="&#x14b;" horiz-adv-x="1265" 
d="M807 -492q-83 0 -145 25v145q50 -20 122 -20q65 0 101.5 39t36.5 133v875q0 262 -244 262q-177 0 -250.5 -98t-73.5 -298v-571h-180v1098h145l29 -150h10q53 84 143 127t199 43q204 0 303 -96.5t99 -304.5v-881q0 -158 -73 -243t-222 -85z" />
    <glyph glyph-name="Omacron" unicode="&#x14c;" horiz-adv-x="1599" 
d="M1475 733q0 -228 -76.5 -396.5t-229.5 -262.5t-368 -94q-169 0 -298 53.5t-211.5 153.5t-124.5 238t-42 310q0 169 42 305.5t124.5 236.5t212.5 154t299 54q215 0 367.5 -93.5t228.5 -261.5t76 -397zM319 733q0 -284 120 -439t362 -155t360.5 155t118.5 439t-117.5 437
t-359.5 153q-245 0 -364.5 -153t-119.5 -437zM496 1751h608v-145h-608v145z" />
    <glyph glyph-name="omacron" unicode="&#x14d;" horiz-adv-x="1239" 
d="M1128 551q0 -273 -137 -422t-375 -149q-223 0 -363 152t-140 419q0 270 135.5 418.5t374.5 148.5q226 0 365.5 -150.5t139.5 -416.5zM299 551q0 -201 79.5 -311.5t242.5 -110.5q162 0 241.5 110.5t79.5 311.5q0 200 -80 308t-244 108q-319 0 -319 -416zM315 1386h609
v-145h-609v145z" />
    <glyph glyph-name="Obreve" unicode="&#x14e;" horiz-adv-x="1599" 
d="M801 -20q-169 0 -298 53.5t-211.5 153.5t-124.5 238t-42 310q0 169 42 305.5t124.5 236.5t212.5 154t299 54q215 0 367.5 -93.5t228.5 -261.5t76 -397q0 -228 -76.5 -396.5t-229.5 -262.5t-368 -94zM319 733q0 -284 120 -439t362 -155t360.5 155t118.5 439t-117.5 437
t-359.5 153q-245 0 -364.5 -153t-119.5 -437zM805 1606q-149 0 -227 71.5t-86 202.5h110q7 -79 55 -104t152 -25q90 0 143.5 27.5t63.5 101.5h112q-11 -126 -94.5 -200t-228.5 -74z" />
    <glyph glyph-name="obreve" unicode="&#x14f;" horiz-adv-x="1239" 
d="M616 -20q-223 0 -363 152t-140 419q0 270 135.5 418.5t374.5 148.5q226 0 365.5 -150.5t139.5 -416.5q0 -269 -137.5 -420t-374.5 -151zM299 551q0 -201 79.5 -311.5t242.5 -110.5q162 0 241.5 110.5t79.5 311.5q0 200 -80 308t-244 108q-319 0 -319 -416zM625 1241
q-149 0 -227.5 72t-86.5 203h111q7 -79 55 -104.5t152 -25.5q90 0 143.5 28t63.5 102h112q-11 -126 -95 -200.5t-228 -74.5z" />
    <glyph glyph-name="Ohungarumlaut" unicode="&#x150;" horiz-adv-x="1599" 
d="M801 -20q-169 0 -298 53.5t-211.5 153.5t-124.5 238t-42 310q0 169 42 305.5t124.5 236.5t212.5 154t299 54q215 0 367.5 -93.5t228.5 -261.5t76 -397q0 -228 -76.5 -396.5t-229.5 -262.5t-368 -94zM803 1323q-245 0 -364.5 -153t-119.5 -437t120 -439t362 -155
t360.5 155t118.5 439t-117.5 437t-359.5 153zM907 1630q79 109 178 303h197v-20q-33 -56 -120.5 -155.5t-151.5 -151.5h-103v24zM547 1630q73 97 178 303h197v-20q-33 -56 -121 -155t-152 -152h-102v24z" />
    <glyph glyph-name="ohungarumlaut" unicode="&#x151;" horiz-adv-x="1239" 
d="M616 -20q-223 0 -363 152t-140 419q0 270 135.5 418.5t374.5 148.5q226 0 365.5 -150.5t139.5 -416.5q0 -269 -137.5 -420t-374.5 -151zM618 967q-319 0 -319 -416q0 -201 79.5 -311.5t242.5 -110.5q162 0 241.5 110.5t79.5 311.5q0 200 -80 308t-244 108zM829 1241h-102
v25q79 109 178 303h197v-21q-33 -56 -121 -155t-152 -152zM367 1241v25q73 97 178 303h196v-21q-33 -56 -120.5 -155.5t-151.5 -151.5h-102z" />
    <glyph glyph-name="OE" unicode="&#x152;" horiz-adv-x="1900" 
d="M125 735q0 172 41 309t122.5 236t209 152t293.5 53q93 0 196 -23h791v-162h-588v-456h549v-160h-549v-522h588v-162h-779q-118 -20 -198 -20q-169 0 -298 53.5t-211.5 153.5t-124.5 238t-42 310zM807 1323q-247 0 -368.5 -153t-121.5 -437t121.5 -439t366.5 -155
q116 0 203 35v1116q-79 33 -201 33z" />
    <glyph glyph-name="oe" unicode="&#x153;" horiz-adv-x="1937" 
d="M1386 1116q205 0 326 -133q119 -134 119 -360v-109h-729q9 -381 332 -381q101 0 181 18.5t167 57.5v-158q-84 -38 -164 -54.5t-186 -16.5q-141 0 -248 57.5t-170 169.5q-63 -112 -167.5 -169.5t-240.5 -57.5q-220 0 -357.5 152t-137.5 419q0 268 133 416.5t368 148.5
q130 0 232.5 -57.5t163.5 -167.5q60 109 157 167t221 58zM1384 969q-123 0 -194.5 -80t-83.5 -232h534q0 147 -63.5 229.5t-192.5 82.5zM604 967q-159 0 -232 -103t-73 -313t75 -316t234 -106q158 0 232.5 103.5t74.5 310.5q0 215 -75.5 319.5t-235.5 104.5z" />
    <glyph glyph-name="Racute" unicode="&#x154;" horiz-adv-x="1273" 
d="M199 0v1462h403q271 0 402 -102.5t131 -312.5q0 -84 -24.5 -152t-68 -114t-92.5 -76t-108 -50l401 -655h-215l-354 604h-291v-604h-184zM592 1303h-209v-543h219q176 0 259 69.5t83 208.5q0 141 -85 203t-267 62zM633 1606h-119v24q47 62 106 152t89 151h217v-20
q-43 -61 -134.5 -159t-158.5 -148z" />
    <glyph glyph-name="racute" unicode="&#x155;" horiz-adv-x="845" 
d="M686 1118q70 0 129 -12l-22 -166q-61 14 -119 14q-131 0 -225.5 -103.5t-94.5 -264.5v-586h-180v1098h148l20 -201h8q55 99 141 160t195 61zM563 1569h217v-21q-43 -61 -134.5 -159t-158.5 -148h-118v25q46 61 105 151.5t89 151.5z" />
    <glyph glyph-name="uni0156" unicode="&#x156;" horiz-adv-x="1273" 
d="M199 0v1462h403q271 0 402 -102.5t131 -312.5q0 -84 -24.5 -152t-68 -114t-92.5 -76t-108 -50l401 -655h-215l-354 604h-291v-604h-184zM383 760h219q176 0 259 69.5t83 208.5q0 141 -85 203t-267 62h-209v-543zM541 -428q25 58 51.5 150.5t32.5 152.5h178v-18
q-17 -61 -65.5 -156.5t-98.5 -153.5h-98v25z" />
    <glyph glyph-name="uni0157" unicode="&#x157;" horiz-adv-x="845" 
d="M686 1118q70 0 129 -12l-22 -166q-61 14 -119 14q-131 0 -225.5 -103.5t-94.5 -264.5v-586h-180v1098h148l20 -201h8q55 99 141 160t195 61zM211 -125h178v-18q-17 -61 -65.5 -156.5t-98.5 -153.5h-98v25q25 58 51.5 150.5t32.5 152.5z" />
    <glyph glyph-name="Rcaron" unicode="&#x158;" horiz-adv-x="1273" 
d="M199 0v1462h403q271 0 402 -102.5t131 -312.5q0 -84 -24.5 -152t-68 -114t-92.5 -76t-108 -50l401 -655h-215l-354 604h-291v-604h-184zM383 760h219q176 0 259 69.5t83 208.5q0 141 -85 203t-267 62h-209v-543zM543 1606q-52 90 -252 301v26h123q116 -75 219 -188
q122 122 223 188h127v-26q-204 -204 -256 -301h-184z" />
    <glyph glyph-name="rcaron" unicode="&#x159;" horiz-adv-x="845" 
d="M354 0h-180v1098h148l20 -201h8q55 99 141 160t195 61q70 0 129 -12l-22 -166q-61 14 -119 14q-131 0 -225.5 -103.5t-94.5 -264.5v-586zM145 1542v27h123q113 -74 219 -189q123 123 224 189h127v-27q-204 -204 -256 -301h-185q-52 90 -252 301z" />
    <glyph glyph-name="Sacute" unicode="&#x15a;" horiz-adv-x="1124" 
d="M1028 391q0 -195 -141 -303t-381 -108q-254 0 -402 69v176q82 -36 191.5 -61t218.5 -25q159 0 244.5 63t85.5 173q0 106 -70.5 166t-273.5 135q-196 70 -286.5 169.5t-90.5 264.5q0 170 129 271.5t338 101.5q214 0 403 -82l-57 -158q-181 78 -350 78q-134 0 -205.5 -57
t-71.5 -156q0 -108 68 -168.5t252 -126.5q103 -38 172 -74t123 -85.5t79 -114t25 -148.5zM655 1933h217v-20q-43 -61 -134 -159t-158 -148h-119v24q46 61 105 151.5t89 151.5z" />
    <glyph glyph-name="sacute" unicode="&#x15b;" horiz-adv-x="980" 
d="M889 303q0 -157 -116.5 -240t-321.5 -83q-210 0 -345 69v164q180 -88 349 -88q132 0 196 43t64 119q0 63 -55.5 108t-215.5 105q-73 28 -118.5 48.5t-92 49.5t-72 60t-41.5 73.5t-16 95.5q0 137 112 214t300 77q178 0 350 -74l-61 -143q-165 70 -301 70
q-109 0 -168.5 -35.5t-59.5 -97.5q0 -66 58 -106.5t225 -102.5q87 -32 141.5 -59.5t100.5 -65.5t67 -87t21 -114zM563 1569h217v-21q-43 -61 -134.5 -159t-158.5 -148h-118v25q46 61 105 151.5t89 151.5z" />
    <glyph glyph-name="Scircumflex" unicode="&#x15c;" horiz-adv-x="1124" 
d="M104 49v176q82 -36 191.5 -61t218.5 -25q159 0 244.5 63t85.5 173q0 106 -70.5 166t-273.5 135q-196 70 -286.5 169.5t-90.5 264.5q0 170 129 271.5t338 101.5q214 0 403 -82l-57 -158q-181 78 -350 78q-134 0 -205.5 -57t-71.5 -156q0 -108 68 -168.5t252 -126.5
q103 -38 172 -74t123 -85.5t79 -114t25 -148.5q0 -193 -140.5 -302t-381.5 -109q-254 0 -402 69zM242 1606v22q194 205 252 305h184q56 -105 256 -305v-22h-127q-97 58 -223 184q-132 -132 -219 -184h-123z" />
    <glyph glyph-name="scircumflex" unicode="&#x15d;" horiz-adv-x="980" 
d="M104 827q0 137 112 214t300 77q178 0 350 -74l-61 -143q-165 70 -301 70q-109 0 -168.5 -35.5t-59.5 -97.5q0 -66 58 -106.5t225 -102.5q87 -32 141.5 -59.5t100.5 -65.5t67 -87t21 -114q0 -157 -116.5 -240t-321.5 -83q-210 0 -345 69v164q180 -88 349 -88q132 0 196 43
t64 119q0 63 -55.5 108t-215.5 105q-73 28 -118.5 48.5t-92 49.5t-72 60t-41.5 73.5t-16 95.5zM150 1241v23q191 202 251 305h185q56 -105 256 -305v-23h-127q-97 58 -223 184q-131 -131 -220 -184h-122z" />
    <glyph glyph-name="Scedilla" unicode="&#x15e;" horiz-adv-x="1124" 
d="M479 -20q-233 3 -375 69v176q82 -36 191.5 -61t218.5 -25q159 0 244.5 63t85.5 173q0 106 -70.5 166t-273.5 135q-196 70 -286.5 169.5t-90.5 264.5q0 170 129 271.5t338 101.5q214 0 403 -82l-57 -158q-181 78 -350 78q-134 0 -205.5 -57t-71.5 -156q0 -108 68 -168.5
t252 -126.5q103 -38 172 -74t123 -85.5t79 -114t25 -148.5q0 -173 -114 -279t-314 -128l-45 -93q178 -42 178 -176q0 -100 -76.5 -153.5t-226.5 -53.5q-56 0 -102 11v112q42 -10 108 -10q77 0 114.5 20.5t37.5 69.5q0 50 -49.5 75.5t-137.5 37.5z" />
    <glyph glyph-name="scedilla" unicode="&#x15f;" horiz-adv-x="980" 
d="M104 827q0 137 112 214t300 77q178 0 350 -74l-61 -143q-165 70 -301 70q-109 0 -168.5 -35.5t-59.5 -97.5q0 -66 58 -106.5t225 -102.5q87 -32 141.5 -59.5t100.5 -65.5t67 -87t21 -114q0 -133 -84 -213t-238 -102l-47 -97q178 -42 178 -176q0 -100 -76.5 -153.5
t-226.5 -53.5q-56 0 -102 11v112q42 -10 108 -10q77 0 114.5 20.5t37.5 69.5q0 50 -49 75.5t-137 37.5l77 156q-206 0 -338 69v164q180 -88 349 -88q132 0 196 43t64 119q0 63 -55.5 108t-215.5 105q-73 28 -118.5 48.5t-92 49.5t-72 60t-41.5 73.5t-16 95.5z" />
    <glyph glyph-name="Scaron" unicode="&#x160;" horiz-adv-x="1124" 
d="M104 49v176q82 -36 191.5 -61t218.5 -25q159 0 244.5 63t85.5 173q0 106 -70.5 166t-273.5 135q-196 70 -286.5 169.5t-90.5 264.5q0 170 129 271.5t338 101.5q214 0 403 -82l-57 -158q-181 78 -350 78q-134 0 -205.5 -57t-71.5 -156q0 -108 68 -168.5t252 -126.5
q103 -38 172 -74t123 -85.5t79 -114t25 -148.5q0 -193 -140.5 -302t-381.5 -109q-254 0 -402 69zM238 1933h122q118 -77 220 -188q122 122 223 188h127v-26q-204 -204 -256 -301h-185q-54 93 -251 301v26z" />
    <glyph glyph-name="scaron" unicode="&#x161;" horiz-adv-x="980" 
d="M444 500q-73 28 -118.5 48.5t-92 49.5t-72 60t-41.5 73.5t-16 95.5q0 137 112 214t300 77q178 0 350 -74l-61 -143q-165 70 -301 70q-109 0 -168.5 -35.5t-59.5 -97.5q0 -66 58 -106.5t225 -102.5q87 -32 141.5 -59.5t100.5 -65.5t67 -87t21 -114q0 -157 -116.5 -240
t-321.5 -83q-210 0 -345 69v164q180 -88 349 -88q132 0 196 43t64 119q0 63 -55.5 108t-215.5 105zM145 1542v27h123q113 -74 219 -189q123 123 224 189h127v-27q-204 -204 -256 -301h-185q-52 90 -252 301z" />
    <glyph glyph-name="uni0162" unicode="&#x162;" horiz-adv-x="1138" 
d="M20 1300v162h1096v-162h-454v-1300h-11l-53 -109q178 -42 178 -176q0 -100 -76.5 -153.5t-226.5 -53.5q-56 0 -102 11v112q42 -10 108 -10q77 0 114.5 20.5t37.5 69.5q0 50 -49.5 75.5t-137.5 37.5l88 176h-55v1300h-457z" />
    <glyph glyph-name="uni0163" unicode="&#x163;" horiz-adv-x="739" 
d="M33 1044l157 72l72 234h107v-252h317v-140h-317v-634q0 -96 47 -146.5t125 -50.5q95 0 153 23v-138q-29 -14 -82 -23t-102 -9l-43 -89q178 -42 178 -176q0 -100 -76.5 -153.5t-226.5 -53.5q-56 0 -102 11v112q42 -10 108 -10q77 0 114.5 20.5t37.5 69.5q0 50 -49.5 75.5
t-137.5 37.5l84 168q-209 54 -209 327v639h-155v86z" />
    <glyph glyph-name="Tcaron" unicode="&#x164;" horiz-adv-x="1138" 
d="M20 1462h1096v-162h-454v-1300h-185v1300h-457v162zM223 1933h123q116 -75 219 -188q122 122 223 188h127v-26q-204 -204 -256 -301h-184q-52 90 -252 301v26z" />
    <glyph glyph-name="tcaron" unicode="&#x165;" horiz-adv-x="739" 
d="M33 1044l157 72l72 234h107v-252h317v-140h-317v-634q0 -96 47 -146.5t125 -50.5q95 0 153 23v-138q-29 -14 -82 -23t-102 -9q-322 0 -322 339v639h-155v86zM815 1229h-98v24q45 139 67 303h179v-18q-12 -53 -57.5 -147.5t-90.5 -161.5z" />
    <glyph glyph-name="Tbar" unicode="&#x166;" horiz-adv-x="1138" 
d="M475 1298h-455v164h1096v-164h-457v-481h304v-151h-304v-666h-184v666h-305v151h305v481z" />
    <glyph glyph-name="tbar" unicode="&#x167;" horiz-adv-x="739" 
d="M33 958v86l157 72l72 234h107v-252h317v-140h-317v-249h299v-136h-299v-249q0 -96 47 -146.5t125 -50.5q95 0 153 23v-138q-29 -14 -82 -23t-102 -9q-322 0 -322 339v254h-139v136h139v249h-155z" />
    <glyph glyph-name="Utilde" unicode="&#x168;" horiz-adv-x="1497" 
d="M741 -20q-270 0 -413.5 145t-143.5 395v942h185v-948q0 -181 96.5 -278t286.5 -97t283 101.5t93 275.5v946h183v-946q0 -115 -35 -211.5t-104 -169.5t-179 -114t-252 -41zM373 1606q12 123 70.5 192.5t154.5 69.5q41 0 88 -18.5t81.5 -40t74 -40t67.5 -18.5q46 0 72.5 29
t40.5 90h102q-12 -123 -70 -192.5t-153 -69.5q-49 0 -107.5 29t-112.5 58t-91 29q-48 0 -73.5 -28t-39.5 -90h-104z" />
    <glyph glyph-name="utilde" unicode="&#x169;" horiz-adv-x="1265" 
d="M162 1098h182v-707q0 -262 244 -262q176 0 249.5 98t73.5 299v572h181v-1098h-148l-26 145h-9q-52 -83 -144.5 -124t-203.5 -41q-201 0 -300 96.5t-99 302.5v719zM360 1241h-104q12 123 70.5 192.5t154.5 69.5q52 0 112 -29.5t112.5 -58.5t87.5 -29q46 0 72 28.5t40 90.5
h103q-12 -123 -70 -192.5t-154 -69.5q-49 0 -107.5 29.5t-112.5 58.5t-91 29q-48 0 -73.5 -28.5t-39.5 -90.5z" />
    <glyph glyph-name="Umacron" unicode="&#x16a;" horiz-adv-x="1497" 
d="M184 520v942h185v-948q0 -181 96.5 -278t286.5 -97t283 101.5t93 275.5v946h183v-946q0 -115 -35 -211.5t-104 -169.5t-179 -114t-252 -41q-270 0 -413.5 145t-143.5 395zM1053 1606h-609v145h609v-145z" />
    <glyph glyph-name="umacron" unicode="&#x16b;" horiz-adv-x="1265" 
d="M162 1098h182v-707q0 -262 244 -262q176 0 249.5 98t73.5 299v572h181v-1098h-148l-26 145h-9q-52 -83 -144.5 -124t-203.5 -41q-201 0 -300 96.5t-99 302.5v719zM328 1241v145h608v-145h-608z" />
    <glyph glyph-name="Ubreve" unicode="&#x16c;" horiz-adv-x="1497" 
d="M184 520v942h185v-948q0 -181 96.5 -278t286.5 -97t283 101.5t93 275.5v946h183v-946q0 -115 -35 -211.5t-104 -169.5t-179 -114t-252 -41q-270 0 -413.5 145t-143.5 395zM440 1880h111q7 -79 55 -104t152 -25q90 0 143.5 27.5t63.5 101.5h112q-11 -126 -94.5 -200
t-228.5 -74q-149 0 -227.5 71.5t-86.5 202.5z" />
    <glyph glyph-name="ubreve" unicode="&#x16d;" horiz-adv-x="1265" 
d="M162 1098h182v-707q0 -262 244 -262q176 0 249.5 98t73.5 299v572h181v-1098h-148l-26 145h-9q-52 -83 -144.5 -124t-203.5 -41q-201 0 -300 96.5t-99 302.5v719zM324 1516h110q7 -79 55 -104.5t152 -25.5q90 0 143.5 28t63.5 102h113q-11 -126 -95 -200.5t-229 -74.5
q-149 0 -227 72t-86 203z" />
    <glyph glyph-name="Uring" unicode="&#x16e;" horiz-adv-x="1497" 
d="M184 520v942h185v-948q0 -181 96.5 -278t286.5 -97t283 101.5t93 275.5v946h183v-946q0 -115 -35 -211.5t-104 -169.5t-179 -114t-252 -41q-270 0 -413.5 145t-143.5 395zM528 1823q0 101 61 158t163 57q99 0 163 -57.5t64 -155.5q0 -102 -63 -160.5t-164 -58.5
t-162.5 58t-61.5 159zM637 1823q0 -54 30 -84.5t85 -30.5q52 0 83 31t31 84t-31.5 83.5t-82.5 30.5t-83 -30.5t-32 -83.5z" />
    <glyph glyph-name="uring" unicode="&#x16f;" horiz-adv-x="1265" 
d="M162 1098h182v-707q0 -262 244 -262q176 0 249.5 98t73.5 299v572h181v-1098h-148l-26 145h-9q-52 -83 -144.5 -124t-203.5 -41q-201 0 -300 96.5t-99 302.5v719zM635 1241q-101 0 -162 58t-61 159t61 158t162 57q99 0 163 -57.5t64 -155.5q0 -102 -63 -160.5t-164 -58.5
zM520 1458q0 -54 30 -84.5t85 -30.5q52 0 83.5 31t31.5 84t-32 84t-83 31t-83 -31t-32 -84z" />
    <glyph glyph-name="Uhungarumlaut" unicode="&#x170;" horiz-adv-x="1497" 
d="M741 -20q-270 0 -413.5 145t-143.5 395v942h185v-948q0 -181 96.5 -278t286.5 -97t283 101.5t93 275.5v946h183v-946q0 -115 -35 -211.5t-104 -169.5t-179 -114t-252 -41zM856 1606v24q79 109 178 303h197v-20q-33 -56 -121 -155t-152 -152h-102zM598 1606h-102v24
q73 97 178 303h196v-20q-33 -56 -120.5 -155.5t-151.5 -151.5z" />
    <glyph glyph-name="uhungarumlaut" unicode="&#x171;" horiz-adv-x="1265" 
d="M162 379v719h182v-707q0 -262 244 -262q176 0 249.5 98t73.5 299v572h181v-1098h-148l-26 145h-9q-52 -83 -144.5 -124t-203.5 -41q-201 0 -300 96.5t-99 302.5zM739 1241v25q82 113 179 303h196v-21q-33 -56 -120.5 -155.5t-151.5 -151.5h-103zM481 1241h-102v25
q73 97 178 303h197v-21q-33 -56 -121 -155t-152 -152z" />
    <glyph glyph-name="Uogonek" unicode="&#x172;" horiz-adv-x="1497" 
d="M184 520v942h185v-948q0 -181 96.5 -278t286.5 -97t283 101.5t93 275.5v946h183v-946q0 -273 -181 -420q-96 -109 -136 -177.5t-40 -137.5q0 -111 93 -111q28 0 61 6.5t37 6.5v-115q-74 -19 -127 -19q-211 0 -211 211q0 113 108 238q-79 -18 -174 -18q-270 0 -413.5 145
t-143.5 395z" />
    <glyph glyph-name="uogonek" unicode="&#x173;" horiz-adv-x="1265" 
d="M162 1098h182v-707q0 -262 244 -262q176 0 249.5 98t73.5 299v572h181v-1098h-35q-73 -70 -106 -124t-33 -114q0 -92 92 -92q28 0 61 6.5t37 6.5v-115q-74 -19 -127 -19q-106 0 -158.5 50t-52.5 143q0 75 50.5 148.5t119.5 127.5l-22 127h-9q-52 -83 -144.5 -124
t-203.5 -41q-201 0 -300 96.5t-99 302.5v719z" />
    <glyph glyph-name="Wcircumflex" unicode="&#x174;" horiz-adv-x="1904" 
d="M25 1462h192l227 -893q47 -179 70 -348q22 164 78 359l258 882h190l269 -889q52 -165 80 -352q12 119 71 350l226 891h192l-389 -1462h-186l-285 958q-25 77 -47.5 168t-26.5 121q-3 -57 -70 -295l-276 -952h-186zM610 1606v22q194 205 252 305h185q56 -105 256 -305v-22
h-127q-99 59 -224 184q-132 -132 -219 -184h-123z" />
    <glyph glyph-name="wcircumflex" unicode="&#x175;" horiz-adv-x="1609" 
d="M324 2l-301 1098h186l151 -586q59 -221 72 -328h8q29 157 74 295l195 619h196l189 -619q65 -230 73 -293h9q11 89 73 326l154 586h184l-305 -1098h-211l-188 619q-61 198 -76 290h-8q-22 -141 -74 -293l-197 -616h-204zM586 1241h-123v23q194 205 252 305h184
q56 -105 256 -305v-23h-127q-97 58 -223 184q-132 -132 -219 -184z" />
    <glyph glyph-name="Ycircumflex" unicode="&#x176;" horiz-adv-x="1159" 
d="M487 559l-487 903h201l379 -719l381 719h198l-487 -895v-567h-185v559zM238 1628q191 202 251 305h185q56 -105 256 -305v-22h-127q-97 58 -223 184q-131 -131 -220 -184h-122v22z" />
    <glyph glyph-name="ycircumflex" unicode="&#x177;" horiz-adv-x="1044" 
d="M2 1098h193l237 -625q76 -210 92 -299h8q19 81 95 301l223 623h194l-473 -1250q-65 -168 -156.5 -254t-242.5 -86q-75 0 -149 17v143q62 -12 120 -12q166 0 244 194l57 146zM303 1241h-123v23q194 205 252 305h184q56 -105 256 -305v-23h-127q-97 58 -223 184
q-132 -132 -219 -184z" />
    <glyph glyph-name="Ydieresis" unicode="&#x178;" horiz-adv-x="1159" 
d="M487 559l-487 903h201l379 -719l381 719h198l-487 -895v-567h-185v559zM387 1860q42 0 69 -25t27 -76q0 -49 -27.5 -75.5t-68.5 -26.5q-43 0 -69.5 26.5t-26.5 75.5q0 52 26 76.5t70 24.5zM676 1759q0 51 26.5 76t67.5 25q42 0 69 -25t27 -76q0 -49 -27.5 -75.5
t-68.5 -26.5q-40 0 -67 26.5t-27 75.5z" />
    <glyph glyph-name="Zacute" unicode="&#x179;" horiz-adv-x="1171" 
d="M1092 164v-164h-1014v139l770 1159h-746v164h969v-139l-770 -1159h791zM666 1933h217v-20q-43 -61 -134.5 -159t-158.5 -148h-119v24q47 62 106 152t89 151z" />
    <glyph glyph-name="zacute" unicode="&#x17a;" horiz-adv-x="962" 
d="M883 139v-139h-803v119l590 839h-555v140h753v-135l-581 -824h596zM553 1569h217v-21q-43 -61 -134.5 -159t-158.5 -148h-119v25q47 62 106 152t89 151z" />
    <glyph glyph-name="Zdotaccent" unicode="&#x17b;" horiz-adv-x="1171" 
d="M1092 164v-164h-1014v139l770 1159h-746v164h969v-139l-770 -1159h791zM600 1874q-47 0 -76.5 -29t-29.5 -86t29.5 -85.5t76.5 -28.5q45 0 75 28.5t30 85.5t-30 86t-75 29z" />
    <glyph glyph-name="zdotaccent" unicode="&#x17c;" horiz-adv-x="962" 
d="M883 139v-139h-803v119l590 839h-555v140h753v-135l-581 -824h596zM487 1509q-47 0 -76.5 -28.5t-29.5 -85.5t29.5 -86t76.5 -29q45 0 75 29t30 86t-30 85.5t-75 28.5z" />
    <glyph glyph-name="Zcaron" unicode="&#x17d;" horiz-adv-x="1171" 
d="M78 0v139l770 1159h-746v164h969v-139l-770 -1159h791v-164h-1014zM248 1907v26h123q116 -75 219 -188q122 122 223 188h127v-26q-204 -204 -256 -301h-184q-52 90 -252 301z" />
    <glyph glyph-name="zcaron" unicode="&#x17e;" horiz-adv-x="962" 
d="M80 0v119l590 839h-555v140h753v-135l-581 -824h596v-139h-803zM135 1542v27h123q113 -74 219 -189q125 125 223 189h127v-27q-204 -204 -256 -301h-184q-52 90 -252 301z" />
    <glyph glyph-name="longs" unicode="&#x17f;" horiz-adv-x="667" 
d="M535 1417q-89 0 -135 -55.5t-46 -179.5v-1182h-180v1182q0 212 100 299q100 86 263 86q111 0 204 -39l-47 -142q-95 31 -159 31z" />
    <glyph glyph-name="uni0180" unicode="&#x180;" horiz-adv-x="1259" 
d="M18 1374h156v182h180v-182h437v-135h-437v-61q0 -148 -10 -226h10q112 164 340 164q209 0 331 -145.5t122 -421.5t-122.5 -422.5t-330.5 -146.5q-226 0 -340 159h-14l-37 -139h-129v1239h-156v135zM664 967q-172 0 -241 -97.5t-69 -314.5v-8q0 -213 70.5 -315.5
t243.5 -102.5q146 0 219.5 108t73.5 314q0 416 -297 416z" />
    <glyph glyph-name="uni0181" unicode="&#x181;" horiz-adv-x="1495" 
d="M20 1204q0 131 71 194.5t218 63.5h471q280 0 417.5 -84.5t137.5 -277.5q0 -130 -72 -214.5t-206 -109.5v-10q152 -27 239.5 -109t87.5 -241q0 -197 -135.5 -306.5t-371.5 -109.5h-515v1305h-53q-62 0 -93.5 -27.5t-31.5 -75.5q0 -63 21 -110h-162q-23 51 -23 112z
M827 686h-280v-530h295q186 0 266 71.5t80 202.5q0 123 -84 189.5t-277 66.5zM788 1305h-241v-465h270q180 0 254 58t74 181q0 121 -84.5 173.5t-272.5 52.5z" />
    <glyph glyph-name="uni0182" unicode="&#x182;" horiz-adv-x="1259" 
d="M627 0h-428v1462h868v-162h-684v-456h217q160 0 271.5 -30.5t172 -88.5t86 -129.5t25.5 -167.5q0 -209 -125 -318.5t-403 -109.5zM578 684h-195v-526h225q192 0 274.5 65t82.5 205q0 141 -88 198.5t-299 57.5z" />
    <glyph glyph-name="uni0183" unicode="&#x183;" horiz-adv-x="1259" 
d="M174 0v1556h862v-151h-682v-227q0 -148 -10 -226h10q112 164 340 164q209 0 331 -145.5t122 -421.5t-122.5 -422.5t-330.5 -146.5q-226 0 -340 159h-14l-37 -139h-129zM354 555v-8q0 -213 70.5 -315.5t243.5 -102.5q146 0 219.5 108t73.5 314q0 416 -297 416
q-172 0 -241 -97.5t-69 -314.5z" />
    <glyph glyph-name="uni0184" unicode="&#x184;" horiz-adv-x="1300" 
d="M184 1462h185v-618h274q149 0 258.5 -33t172.5 -92.5t92.5 -133.5t29.5 -165q0 -202 -126.5 -321t-371.5 -119q-514 0 -514 450v1032zM369 684v-254q0 -159 76 -226t251 -67q161 0 235.5 71.5t74.5 211.5q0 138 -96 201t-289 63h-252z" />
    <glyph glyph-name="uni0185" unicode="&#x185;" horiz-adv-x="1253" 
d="M168 547v1009h180v-378q0 -41 -2 -85t-4.5 -86t-3.5 -55h10q48 75 133 119.5t207 44.5q209 0 331 -145.5t122 -421.5q0 -278 -127.5 -423.5t-354.5 -145.5q-231 0 -361 145t-130 422zM348 543q0 -196 83 -305t231 -109q146 0 219 108t73 314q0 416 -297 416
q-169 0 -239 -98t-70 -314v-12z" />
    <glyph glyph-name="uni0186" unicode="&#x186;" horiz-adv-x="1294" 
d="M498 -20q-220 0 -377 59v160q199 -58 348 -58q234 0 371 158q135 156 135 432q0 277 -129.5 433.5t-376.5 156.5q-156 0 -332 -80l-74 156q177 86 435 86q328 0 499.5 -200.5t171.5 -553.5q0 -221 -79 -390t-232 -264t-360 -95z" />
    <glyph glyph-name="uni0187" unicode="&#x187;" horiz-adv-x="1294" 
d="M1303 1757q72 0 122 -26v-148q-47 21 -106 21q-96 0 -96 -99v-104l-74 -160q-176 80 -324 80q-233 0 -370 -158q-136 -157 -136 -432q0 -277 128.5 -433.5t375.5 -156.5q152 0 351 58v-160q-157 -59 -377 -59q-328 0 -500 200t-172 553q0 222 80 390t240 264t382 96
q111 0 240 -29v29q0 135 56 204.5t180 69.5z" />
    <glyph glyph-name="uni0188" unicode="&#x188;" horiz-adv-x="1030" 
d="M614 -20q-230 0 -365.5 140.5t-135.5 422.5q0 148 38.5 260.5t108.5 180t162 101t205 33.5q47 0 133 -12v186q0 138 55.5 206.5t179.5 68.5q50 0 123 -27v-149q-45 20 -106 20q-97 0 -97 -98v-254l-55 -150q-137 52 -237 52q-324 0 -324 -416q0 -199 79.5 -304.5
t233.5 -105.5q146 0 285 64v-160q-112 -59 -283 -59z" />
    <glyph glyph-name="uni0189" unicode="&#x189;" horiz-adv-x="1495" 
d="M61 803h152v659h436q334 0 527.5 -186t193.5 -531q0 -366 -199.5 -555.5t-566.5 -189.5h-391v643h-152v160zM397 1305v-502h365v-160h-365v-485h185q594 0 594 581q0 287 -142 426.5t-411 139.5h-226z" />
    <glyph glyph-name="uni018A" unicode="&#x18a;" horiz-adv-x="1658" 
d="M43 1092q-23 51 -23 112q0 131 71 194.5t218 63.5h504q335 0 528 -186t193 -531q0 -366 -199 -555.5t-565 -189.5h-408v1305h-53q-62 0 -93.5 -27.5t-31.5 -75.5q0 -63 21 -110h-162zM547 158h198q594 0 594 581q0 566 -553 566h-239v-1147z" />
    <glyph glyph-name="uni018B" unicode="&#x18b;" horiz-adv-x="1259" 
d="M104 406q0 71 18 133.5t61 119.5t109 97t167 64t229 24h189v456h-684v162h868v-1462h-408q-549 0 -549 406zM709 686q-213 0 -313.5 -63.5t-100.5 -208.5q0 -130 91 -193t284 -63h207v528h-168z" />
    <glyph glyph-name="uni018C" unicode="&#x18c;" horiz-adv-x="1259" 
d="M563 -20q-209 0 -329.5 145t-120.5 422t121.5 424t330.5 147q218 0 340 -162h13q-13 101 -13 162v287h-682v151h862v-1556h-145l-27 147h-8q-120 -167 -342 -167zM592 129q169 0 242 93t73 290v33q0 205 -67 315q-68 109 -250 109q-143 0 -217 -113t-74 -313t73.5 -307
t219.5 -107z" />
    <glyph glyph-name="uni018D" unicode="&#x18d;" horiz-adv-x="1236" 
d="M584 -459q-127 0 -225 29.5t-197 81.5l78 141q182 -104 352 -104q88 0 133 40t45 101q0 72 -57.5 125.5t-216.5 140.5q-195 105 -290 225.5t-95 292.5q0 246 141 375q138 129 371 129q226 0 364.5 -121t138.5 -338q0 -188 -116.5 -311.5t-311.5 -183.5
q126 -72 190 -149.5t64 -186.5q0 -142 -104 -215q-110 -72 -264 -72zM555 242q383 99 383 420q0 138 -84 222.5t-231 84.5q-156 0 -241 -91.5t-85 -261.5q0 -131 65 -219.5t193 -154.5z" />
    <glyph glyph-name="uni018E" unicode="&#x18e;" horiz-adv-x="1138" 
d="M123 162h633v522h-596v160h596v456h-633v162h817v-1462h-817v162z" />
    <glyph glyph-name="uni018F" unicode="&#x18f;" horiz-adv-x="1513" 
d="M680 1323q-233 0 -467 -84v168q219 78 471 78q226 0 385 -94t238 -263t79 -399q0 -228 -74.5 -395.5t-224.5 -260.5t-360 -93q-606 0 -606 751v70h1071q-18 254 -144 388t-368 134zM727 141q203 0 325.5 129.5t139.5 368.5h-875q0 -243 95.5 -370.5t314.5 -127.5z" />
    <glyph glyph-name="uni0190" unicode="&#x190;" horiz-adv-x="1204" 
d="M643 1483q273 0 477 -152l-88 -125q-93 63 -178.5 94t-206.5 31q-126 0 -202 -60.5t-76 -168.5q0 -126 100.5 -197t294.5 -71h199v-154h-209q-451 0 -451 -266q0 -135 100 -209t285 -74q211 0 438 107v-168q-188 -90 -448 -90q-151 0 -262 31t-176.5 88t-97 131.5
t-31.5 168.5q0 155 95.5 247.5t280.5 117.5v8q-145 25 -227 113.5t-82 234.5q0 159 119 260q121 103 346 103z" />
    <glyph glyph-name="uni0191" unicode="&#x191;" horiz-adv-x="1062" 
d="M92 -492q-63 0 -115 27v156q41 -21 93 -21q66 0 97.5 37.5t31.5 130.5v1624h817v-162h-633v-518h594v-161h-594v-791q0 -322 -291 -322z" />
    <glyph glyph-name="florin" unicode="&#x192;" horiz-adv-x="1171" 
d="M330 -492q-74 0 -140 19v149q74 -18 129 -18q89 0 128.5 46.5t39.5 164.5v962h-215v84l215 62v133q0 205 86 289t261 84q88 0 210 -43l-45 -140q-101 33 -159 33q-92 0 -132 -49.5t-40 -171.5v-141h276v-140h-272v-962q0 -194 -85.5 -277.5t-256.5 -83.5z" />
    <glyph glyph-name="uni0193" unicode="&#x193;" horiz-adv-x="1490" 
d="M1399 1757q65 0 123 -26v-148q-47 21 -107 21q-96 0 -96 -99v-108l-70 -160q-203 84 -377 84q-261 0 -407 -158q-148 -160 -148 -432q0 -134 31.5 -240.5t96.5 -186t172.5 -122.5t250.5 -43t287 35v434h-321v164h505v-717q-232 -75 -514 -75q-336 0 -518 199.5
t-182 551.5q0 345 200.5 548.5t557.5 203.5q146 0 280 -35v35q0 274 236 274z" />
    <glyph glyph-name="uni0194" unicode="&#x194;" horiz-adv-x="1167" 
d="M584 -492q-108 0 -173 77t-65 196q0 166 137 438l-483 1243h193l288 -764q83 -215 103 -319q22 117 102 323l287 760h194l-483 -1241q66 -130 101.5 -246.5t35.5 -193.5q0 -118 -64.5 -195.5t-172.5 -77.5zM584 -332q69 0 69 117q0 53 -17.5 126t-51.5 140
q-35 -69 -52.5 -140t-17.5 -122q0 -61 19 -91t51 -30z" />
    <glyph glyph-name="uni0195" unicode="&#x195;" horiz-adv-x="1912" 
d="M174 1556h180v-456q0 -76 -10 -154h12q48 83 133.5 126.5t186.5 43.5q189 0 282 -96.5t93 -304.5v-322q0 -264 258 -264q135 0 196.5 71t61.5 234v664h180v-670q0 -241 -106.5 -344.5t-331.5 -103.5q-220 0 -329.5 96.5t-109.5 304.5v321q0 134 -54 199.5t-169 65.5
q-161 0 -227 -99t-66 -301v-567h-180v1556z" />
    <glyph glyph-name="uni0196" unicode="&#x196;" horiz-adv-x="712" 
d="M498 -20q-71 0 -125.5 16t-98.5 54t-67 106t-23 166v1140h183v-1124q0 -99 38 -148t119 -49q88 0 168 23v-152q-29 -14 -84.5 -23t-109.5 -9z" />
    <glyph glyph-name="uni0197" unicode="&#x197;" horiz-adv-x="694" 
d="M70 670v159h184v486l-172 41v106h528v-106l-172 -41v-486h185v-159h-185v-525l172 -39v-106h-528v106l172 39v525h-184z" />
    <glyph glyph-name="uni0198" unicode="&#x198;" horiz-adv-x="1267" 
d="M383 0h-184v1462h184v-737q36 45 122 145t126 152l254 311q68 89 121 115.5t127 26.5q59 0 102 -17v-143q-18 6 -90 6q-31 0 -61.5 -18t-77.5 -76l-336 -398l598 -829h-217l-506 700l-162 -157v-543z" />
    <glyph glyph-name="uni0199" unicode="&#x199;" horiz-adv-x="1093" 
d="M174 0v1280q0 287 248 287q49 0 133 -27v-149q-45 20 -106 20q-97 0 -97 -119v-549q0 -110 -8 -178h8q69 93 131 162l351 371h210l-444 -469l475 -629h-217l-381 512l-125 -109v-403h-178z" />
    <glyph glyph-name="uni019A" unicode="&#x19a;" horiz-adv-x="528" 
d="M31 860h143v696h180v-696h144v-135h-144v-725h-180v725h-143v135z" />
    <glyph glyph-name="uni019B" unicode="&#x19b;" horiz-adv-x="1110" 
d="M174 0h-186l473 1077l-47 131l-217 -65l-39 129l202 61q-29 49 -63 67.5t-90 18.5q-53 0 -115 -12v145q74 17 135 17q113 0 180.5 -44t118.5 -141l224 68l38 -129l-208 -66l366 -1019q40 -111 103 -111q10 0 22 2t23 4.5t16 3.5v-133q-53 -24 -117 -24q-75 0 -119.5 37
t-76.5 128l-150 420q-86 250 -102 326h-8q-39 -148 -113 -316z" />
    <glyph glyph-name="uni019C" unicode="&#x19c;" horiz-adv-x="2109" 
d="M184 426v1036h185v-1036q0 -144 60 -215.5t187 -71.5q178 0 258 100t80 298v925h185v-1036q0 -145 60.5 -216t191.5 -71q182 0 257.5 108t75.5 331v884h185v-1462h-146l-30 168h-11q-55 -91 -156 -139.5t-214 -48.5q-271 0 -359 204h-10q-59 -100 -165 -152t-230 -52
q-208 0 -306 106.5t-98 339.5z" />
    <glyph glyph-name="uni019D" unicode="&#x19d;" horiz-adv-x="1556" 
d="M92 -492q-63 0 -115 27v156q41 -21 93 -21q66 0 97.5 37.5t31.5 130.5v1624h213l780 -1210h8q-14 213 -14 385v825h172v-1462h-215l-783 1214h-8q17 -272 17 -397v-987q0 -167 -69 -244.5t-208 -77.5z" />
    <glyph glyph-name="uni019E" unicode="&#x19e;" horiz-adv-x="1265" 
d="M702 1118q199 0 298.5 -97.5t99.5 -305.5v-1207h-178v1194q0 132 -60 198.5t-186 66.5q-174 0 -248 -99t-74 -299v-569h-180v1098h145l27 -150h10q52 83 144.5 126.5t201.5 43.5z" />
    <glyph glyph-name="uni019F" unicode="&#x19f;" horiz-adv-x="1601" 
d="M1475 733q0 -228 -76.5 -396.5t-229.5 -262.5t-368 -94q-169 0 -298 53.5t-211.5 153.5t-124.5 238t-42 310q0 169 42 305.5t124.5 236.5t212.5 154t299 54q215 0 367.5 -93.5t228.5 -261.5t76 -397zM803 1323q-223 0 -342.5 -129t-138.5 -369h954q-19 240 -135.5 369
t-337.5 129zM801 139q228 0 346.5 136.5t130.5 390.5h-956q12 -254 131 -390.5t348 -136.5z" />
    <glyph glyph-name="Ohorn" unicode="&#x1a0;" horiz-adv-x="1605" 
d="M1473 733q0 -228 -75.5 -396t-228 -262.5t-368.5 -94.5q-225 0 -378.5 95t-225.5 262t-72 398q0 169 42 305.5t124.5 236.5t212.5 154t299 54q325 0 506 -213q86 21 108 100q23 84 23 184h194l15 -22q-21 -120 -80 -223t-189 -150q93 -178 93 -428zM319 733
q0 -285 119 -439.5t363 -154.5q249 0 364 160q113 155 113 434q0 277 -113 432q-115 158 -362 158q-246 0 -365 -153.5t-119 -436.5z" />
    <glyph glyph-name="ohorn" unicode="&#x1a1;" horiz-adv-x="1261" 
d="M1128 551q0 -273 -137 -422t-375 -149q-223 0 -363 152t-140 419q0 270 135.5 418.5t374.5 148.5q105 0 197.5 -36.5t158.5 -104.5q94 28 115 106q22 83 22 183h193l14 -23q-31 -151 -91 -242.5t-173 -132.5q69 -141 69 -317zM299 551q0 -211 77.5 -316.5t244.5 -105.5
t244 105.5t77 316.5q0 209 -79 312.5t-245 103.5q-165 0 -242 -103t-77 -313z" />
    <glyph glyph-name="uni01A2" unicode="&#x1a2;" horiz-adv-x="2201" 
d="M1409 733q0 -229 -71.5 -396.5t-217 -262t-352.5 -94.5q-213 0 -359 95t-215 262t-69 398q0 169 40 305.5t119 236.5t202.5 154t283.5 54q295 0 459 -187q61 91 163.5 139t221.5 48q206 0 304.5 -107t98.5 -340v-1038h-184v1038q0 144 -60 215.5t-188 71.5
q-209 0 -285 -125q109 -189 109 -467zM319 733q0 -284 111.5 -439t337.5 -155t336 154.5t110 439.5q0 284 -110 437t-334 153q-227 0 -339 -153.5t-112 -436.5z" />
    <glyph glyph-name="uni01A3" unicode="&#x1a3;" horiz-adv-x="1730" 
d="M1077 551q0 -273 -131 -422t-354 -149q-211 0 -345 152t-134 419q0 269 129 418t354 149q217 0 346 -147q53 73 129.5 110t165.5 37q166 0 247 -97t81 -306v-1207h-179v1199q0 260 -188 260q-129 0 -192 -90q71 -133 71 -326zM299 551q0 -201 72.5 -311.5t222.5 -110.5
t223.5 110.5t73.5 311.5q0 200 -73.5 308t-223.5 108q-295 0 -295 -416z" />
    <glyph glyph-name="uni01A4" unicode="&#x1a4;" horiz-adv-x="1402" 
d="M20 1204q0 131 71 194.5t218 63.5h441q548 0 548 -430q0 -75 -18 -140.5t-61 -126t-108.5 -103t-166.5 -68t-229 -25.5h-168v-569h-185v1305h-53q-62 0 -93.5 -27.5t-31.5 -75.5q0 -63 21 -110h-162q-23 51 -23 112zM733 1305h-186v-578h147q213 0 313.5 69.5
t100.5 227.5q0 142 -92 211.5t-283 69.5z" />
    <glyph glyph-name="uni01A5" unicode="&#x1a5;" horiz-adv-x="1259" 
d="M174 1280q0 287 250 287q60 0 133 -27v-149q-45 20 -106 20q-97 0 -97 -119v-164q0 -29 -5.5 -96.5t-6.5 -83.5h12q117 170 342 170q208 0 329.5 -145t121.5 -422q0 -276 -122 -423.5t-331 -147.5q-226 0 -340 159h-12q1 -16 6.5 -83.5t5.5 -96.5v-451h-180v1772z
M354 586v-35q0 -213 70.5 -317.5t243.5 -104.5q144 0 218.5 116t74.5 308q0 195 -74.5 304.5t-222.5 109.5q-164 0 -236 -92.5t-74 -288.5z" />
    <glyph glyph-name="uni01A6" unicode="&#x1a6;" horiz-adv-x="1273" 
d="M199 1462h184v-205h219q271 0 402 -102.5t131 -312.5q0 -68 -17 -125.5t-44.5 -99t-66.5 -75t-79 -54.5t-86 -37l401 -656h-215l-354 604h-291v-399h-184v1462zM592 1098h-209v-543h219q176 0 259 70t83 209q0 141 -84.5 202.5t-267.5 61.5z" />
    <glyph glyph-name="uni01A7" unicode="&#x1a7;" horiz-adv-x="1124" 
d="M555 1483q208 0 337.5 -101.5t129.5 -271.5q0 -164 -91.5 -264t-285.5 -170q-108 -40 -170.5 -68.5t-110 -64t-65.5 -74.5t-18 -94q0 -111 84 -173.5t245 -62.5q189 0 410 97v-177q-155 -79 -402 -79q-239 0 -380 108q-142 109 -142 303q0 84 28 148.5t87 114t129.5 85.5
t175.5 74q184 66 252 126.5t68 168.5q0 99 -71.5 156t-205.5 57q-148 0 -315 -78l-58 158q174 82 369 82z" />
    <glyph glyph-name="uni01A8" unicode="&#x1a8;" horiz-adv-x="980" 
d="M465 1118q198 0 305 -75.5t107 -215.5q0 -53 -16 -95.5t-41.5 -73.5t-72 -60t-92 -49.5t-118.5 -48.5q-159 -61 -215 -105.5t-56 -107.5q0 -76 64 -119t196 -43q90 0 183.5 26t164.5 62v-164q-135 -69 -344 -69q-438 0 -438 323q0 65 21 114t67 87t100.5 65.5t141.5 59.5
q166 61 224.5 102.5t58.5 106.5q0 62 -59.5 97.5t-168.5 35.5q-105 0 -270 -70l-62 143q172 74 320 74z" />
    <glyph glyph-name="uni01A9" unicode="&#x1a9;" horiz-adv-x="1167" 
d="M1118 0h-1044v152l479 612l-467 545v153h973v-164h-522q-221 0 -240 2l461 -534l-482 -606q49 0 153.5 1t160.5 1h528v-162z" />
    <glyph glyph-name="uni01AA" unicode="&#x1aa;" horiz-adv-x="731" 
d="M-16 1339q0 98 60.5 163t195.5 65q127 0 196.5 -72.5t69.5 -216.5v-1425q0 -99 38.5 -148t119.5 -49q90 0 167 22v-137q-30 -14 -84.5 -23.5t-107.5 -9.5q-71 0 -125 16t-97.5 54t-66 106t-22.5 166v1260h-92q-128 0 -190 62t-62 167zM227 1419q-41 0 -60.5 -23
t-19.5 -57q0 -42 27.5 -62t73.5 -20h80v27q0 66 -22.5 100.5t-78.5 34.5z" />
    <glyph glyph-name="uni01AB" unicode="&#x1ab;" horiz-adv-x="739" 
d="M33 958v86l157 72l72 234h107v-252h317v-140h-317v-634q0 -197 172 -197q95 0 153 23v-369q0 -273 -239 -273q-55 0 -123 25v150q55 -19 102 -19q98 0 98 107v209h-43q-48 0 -89.5 9.5t-81 33.5t-68 61.5t-45.5 97.5t-17 137v639h-155z" />
    <glyph glyph-name="uni01AC" unicode="&#x1ac;" horiz-adv-x="1179" 
d="M20 1204q0 131 71 194.5t218 63.5h848v-162h-455v-1300h-184v1300h-209q-125 0 -125 -98q0 -63 21 -110h-162q-23 51 -23 112z" />
    <glyph glyph-name="uni01AD" unicode="&#x1ad;" horiz-adv-x="739" 
d="M188 958h-155v86l157 72v135q0 154 75.5 235t226.5 81q62 0 157 -27v-149q-62 20 -157 20q-123 0 -123 -139v-174h317v-140h-317v-634q0 -96 47 -146.5t125 -50.5q95 0 153 23v-138q-29 -14 -82 -23t-102 -9q-322 0 -322 339v639z" />
    <glyph glyph-name="uni01AE" unicode="&#x1ae;" horiz-adv-x="1138" 
d="M20 1300v162h1096v-162h-454v-1462q0 -93 31.5 -130.5t97.5 -37.5q51 0 92 21v-156q-52 -27 -129 -27q-141 0 -209 77t-68 245v1470h-457z" />
    <glyph glyph-name="Uhorn" unicode="&#x1af;" horiz-adv-x="1597" 
d="M184 1462h185v-950q0 -180 98.5 -276.5t292.5 -96.5q190 0 279 101t89 274v948h183v-198q93 13 126 85t33 207h191l14 -22q-13 -79 -36 -139t-64 -114.5t-107 -91t-157 -52.5v-621q0 -116 -32.5 -212t-98 -169.5t-173.5 -114t-251 -40.5q-276 0 -424 145t-148 395v942z
" />
    <glyph glyph-name="uhorn" unicode="&#x1b0;" horiz-adv-x="1380" 
d="M565 -20q-204 0 -303.5 96t-99.5 303v717h182v-705q0 -262 244 -262q176 0 249.5 98t73.5 299v570h181v-121q48 8 79 32t47 65t21.5 86t5.5 110h191l14 -23q-11 -63 -26.5 -113.5t-43 -102t-65.5 -87.5t-94.5 -61.5t-128.5 -32.5v-848h-148l-26 145h-9q-52 -83 -143 -124
t-201 -41z" />
    <glyph glyph-name="uni01B1" unicode="&#x1b1;" horiz-adv-x="1601" 
d="M76 1300v162h590v-147q-1 -1 -8.5 -7t-12.5 -8q-172 -129 -247.5 -290.5t-75.5 -368.5q0 -240 119 -371t360 -131q240 0 357.5 131t117.5 371q0 208 -74.5 368t-247.5 291q-5 2 -11.5 8t-8.5 7v147h590v-162h-365q140 -107 225.5 -277.5t85.5 -387.5
q0 -305 -175.5 -481.5t-493.5 -176.5q-320 0 -496 175.5t-176 480.5q0 220 84.5 390t224.5 277h-362z" />
    <glyph glyph-name="uni01B2" unicode="&#x1b2;" horiz-adv-x="1497" 
d="M741 -20q-275 0 -415 149q-142 148 -142 391v942h185v-948q0 -181 96.5 -278t286.5 -97q200 0 288 107q88 104 88 270v660q0 77 -32 111t-97 34q-80 0 -151 -41v156q62 47 186 47q277 0 277 -295v-672q0 -115 -35 -211.5t-104 -169.5t-179 -114t-252 -41z" />
    <glyph glyph-name="uni01B3" unicode="&#x1b3;" horiz-adv-x="1159" 
d="M123 1485q70 0 118 -33t87 -121l262 -588l371 719h198l-477 -895v-567h-184v559l-332 698q-35 72 -86 72q-40 0 -80 -16v149q62 23 123 23z" />
    <glyph glyph-name="uni01B4" unicode="&#x1b4;" horiz-adv-x="1110" 
d="M993 1118q64 0 117 -24v-133q-5 1 -16 3.5t-23 4.5t-22 2q-35 0 -58.5 -26.5t-44.5 -84.5l-375 -1012q-61 -167 -154.5 -253.5t-244.5 -86.5q-75 0 -149 17v143q62 -12 120 -12q170 0 248 194l53 146l-442 1102h193l237 -625q76 -210 92 -299h8q10 44 99 301l155 445
q41 114 86 156t121 42z" />
    <glyph glyph-name="uni01B5" unicode="&#x1b5;" horiz-adv-x="1171" 
d="M78 139l364 549h-280v146h377l309 464h-746v164h969v-139l-326 -489h250v-146h-346l-348 -524h791v-164h-1014v139z" />
    <glyph glyph-name="uni01B6" unicode="&#x1b6;" horiz-adv-x="962" 
d="M883 0h-803v119l266 379h-229v143h329l224 317h-555v140h753v-135l-227 -322h207v-143h-309l-252 -359h596v-139z" />
    <glyph glyph-name="uni01B7" unicode="&#x1b7;" horiz-adv-x="1196" 
d="M113 1462h909v-145l-502 -483q269 -11 416 -114.5t147 -301.5q0 -192 -145 -316q-143 -122 -444 -122q-257 0 -422 79v168q197 -96 424 -96q195 0 295 75t100 214q0 264 -447 264h-137v150l481 464h-675v164z" />
    <glyph glyph-name="uni01B8" unicode="&#x1b8;" horiz-adv-x="1196" 
d="M678 -20q-116 0 -211 24t-160 65.5t-109 99t-64.5 123.5t-20.5 140q0 90 26 166.5t71.5 130.5t107.5 92.5t133 58t149 21.5l-426 416v145h909v-164h-675l419 -413v-133h-159q-164 0 -263.5 -78.5t-99.5 -237.5q0 -144 100.5 -224.5t294.5 -80.5q227 0 424 96v-168
q-165 -79 -446 -79z" />
    <glyph glyph-name="uni01B9" unicode="&#x1b9;" horiz-adv-x="1019" 
d="M590 -492q-238 0 -379 132.5t-141 336.5q0 117 39 209.5t108.5 151t159 91t196.5 38.5l-448 500v131h838v-152h-627l448 -497v-125h-120q-183 0 -299 -78q-115 -80 -115 -264q0 -148 98 -236t256 -88q207 0 387 86v-164q-135 -72 -401 -72z" />
    <glyph glyph-name="uni01BA" unicode="&#x1ba;" horiz-adv-x="1019" 
d="M440 -492q-167 0 -274 58q-109 59 -109 186q0 54 17 96t57.5 78t117 55t185.5 19q167 0 236 58.5t69 191.5q0 127 -95 182t-288 55h-120v125l374 334h-553v152h807v-131l-383 -336q212 -8 325.5 -104.5t113.5 -274.5q0 -89 -27 -160.5t-83 -126.5t-150.5 -85t-221.5 -30
q-131 0 -170 -26q-41 -27 -41 -72q0 -44 55.5 -69t159.5 -25q167 0 328 74v-164q-130 -60 -330 -60z" />
    <glyph glyph-name="uni01BB" unicode="&#x1bb;" horiz-adv-x="1167" 
d="M98 150l455 565h-393v143h493q58 91 81.5 168t23.5 166q0 104 -62.5 160.5t-167.5 56.5q-93 0 -165.5 -32.5t-151.5 -102.5l-96 121q190 172 417 172q191 0 301.5 -99t110.5 -272q0 -171 -94 -338h205v-143h-295l-461 -563v-9h766v-143h-967v150z" />
    <glyph glyph-name="uni01BC" unicode="&#x1bc;" horiz-adv-x="1196" 
d="M494 -20q-257 0 -422 79v168q197 -96 424 -96q196 0 295.5 83.5t99.5 240.5q0 147 -100.5 222t-262.5 75h-254v546h-192v164h940v-164h-563v-395h86q238 0 388 -119t150 -331q0 -215 -150.5 -344t-438.5 -129z" />
    <glyph glyph-name="uni01BD" unicode="&#x1bd;" horiz-adv-x="1003" 
d="M442 -20q-247 0 -374 71v162q184 -86 372 -86q133 0 213 54t80 169q0 108 -77 158.5t-236 50.5h-184v387h-148v152h756v-152h-447v-239h62q126 0 215.5 -25t140 -72.5t73.5 -108t23 -139.5q0 -76 -28.5 -143.5t-84.5 -121.5t-147.5 -85.5t-208.5 -31.5z" />
    <glyph glyph-name="uni01BE" unicode="&#x1be;" horiz-adv-x="948" 
d="M418 -20q-209 0 -344 69v164q180 -88 348 -88q132 0 196 43t64 119q0 58 -49 100t-184 98q-91 38 -130.5 101.5t-39.5 187.5v184h-187v86l189 72l71 234h107v-252h317v-140h-317v-188q0 -68 21 -100.5t75 -51.5q154 -59 227.5 -128.5t73.5 -186.5q0 -157 -116.5 -240
t-321.5 -83z" />
    <glyph glyph-name="uni01BF" unicode="&#x1bf;" horiz-adv-x="1202" 
d="M354 -492h-180v1590h148l24 -150h8q112 170 324 170q191 0 308.5 -118.5t117.5 -337.5q0 -143 -56 -266t-155.5 -210.5t-237.5 -141t-301 -64.5v-472zM354 586v-459q265 32 414.5 171.5t149.5 358.5q0 141 -74 225.5t-203 84.5q-153 0 -220 -92.5t-67 -288.5z" />
    <glyph glyph-name="uni01C0" unicode="&#x1c0;" horiz-adv-x="688" 
d="M424 0h-160v1556h160v-1556z" />
    <glyph glyph-name="uni01C1" unicode="&#x1c1;" horiz-adv-x="1136" 
d="M713 0v1556h159v-1556h-159zM264 1556h160v-1556h-160v1556z" />
    <glyph glyph-name="uni01C2" unicode="&#x1c2;" horiz-adv-x="1056" 
d="M133 1038h316v518h159v-518h316v-147h-316v-197h316v-147h-316v-547h-159v547h-316v147h316v197h-316v147z" />
    <glyph glyph-name="uni01C3" unicode="&#x1c3;" horiz-adv-x="550" 
d="M385 1462l-51 -1050h-117l-51 1050h219zM147 111q0 71 34.5 104t92.5 33q56 0 91.5 -33.5t35.5 -103.5t-36 -105t-91 -35q-57 0 -92 35t-35 105z" />
    <glyph glyph-name="uni01C4" unicode="&#x1c4;" horiz-adv-x="2646" 
d="M199 0v1462h450q335 0 528 -186t193 -531q0 -366 -199 -555.5t-565 -189.5h-407zM383 1305v-1147h199q594 0 594 581q0 566 -553 566h-240zM1552 139l770 1159h-745v164h969v-139l-770 -1159h790v-164h-1014v139zM1722 1933h123q116 -75 219 -188q120 120 224 188h127
v-26q-204 -204 -256 -301h-185q-52 90 -252 301v26z" />
    <glyph glyph-name="uni01C5" unicode="&#x1c5;" horiz-adv-x="2457" 
d="M199 1462h450q335 0 528 -186t193 -531q0 -366 -199 -555.5t-565 -189.5h-407v1462zM623 1305h-240v-1147h199q594 0 594 581q0 566 -553 566zM2378 0h-803v119l590 839h-555v140h753v-135l-581 -824h596v-139zM1630 1542v27h123q113 -74 219 -189q125 125 223 189h127
v-27q-204 -204 -256 -301h-184q-52 90 -252 301z" />
    <glyph glyph-name="uni01C6" unicode="&#x1c6;" horiz-adv-x="2222" 
d="M563 -20q-209 0 -329.5 145t-120.5 422t121.5 424t330.5 147q218 0 340 -162h13q-13 76 -13 162v438h180v-1556h-145l-27 147h-8q-120 -167 -342 -167zM299 543q0 -200 73.5 -307t219.5 -107q169 0 242 93t73 290v33q0 215 -70.5 319.5t-246.5 104.5q-143 0 -217 -113
t-74 -313zM1339 119l590 839h-555v140h754v-135l-582 -824h596v-139h-803v119zM1647 1241q-52 90 -252 301v27h123q113 -74 219 -189q125 125 223 189h127v-27q-204 -204 -256 -301h-184z" />
    <glyph glyph-name="uni01C7" unicode="&#x1c7;" horiz-adv-x="1632" 
d="M1065 -389q-86 0 -152 27v155q61 -20 148 -20q88 0 144.5 53.5t56.5 181.5v1454h184v-1439q0 -205 -101.5 -308.5t-279.5 -103.5zM199 0v1462h184v-1298h639v-164h-823z" />
    <glyph glyph-name="uni01C8" unicode="&#x1c8;" horiz-adv-x="1601" 
d="M1022 0h-823v1462h184v-1298h639v-164zM1233 1395q0 57 29.5 85.5t76.5 28.5q45 0 75 -28.5t30 -85.5t-30 -86t-75 -29q-47 0 -76.5 29t-29.5 86zM1118 -492q-94 0 -157 25v145q59 -20 135 -20q72 0 111.5 39t39.5 133v1268h180v-1262q0 -158 -76 -243t-233 -85z" />
    <glyph glyph-name="uni01C9" unicode="&#x1c9;" horiz-adv-x="1056" 
d="M354 1556v-1556h-180v1556h180zM688 1395q0 57 30 85.5t77 28.5q45 0 74.5 -28.5t29.5 -85.5t-29.5 -86t-74.5 -29q-47 0 -77 29t-30 86zM573 -492q-95 0 -157 25v145q59 -20 135 -20q72 0 111.5 39t39.5 133v1268h181v-1262q0 -158 -76.5 -243t-233.5 -85z" />
    <glyph glyph-name="uni01CA" unicode="&#x1ca;" horiz-adv-x="2115" 
d="M199 1462h213l780 -1210h8q-14 213 -14 385v825h172v-1462h-215l-783 1214h-8q17 -272 17 -397v-817h-170v1462zM1397 -207q61 -20 147 -20q88 0 144.5 53.5t56.5 181.5v1454h184v-1439q0 -205 -101.5 -308.5t-279.5 -103.5q-85 0 -151 27v155z" />
    <glyph glyph-name="uni01CB" unicode="&#x1cb;" horiz-adv-x="2084" 
d="M199 1462h213l780 -1210h8q-14 213 -14 385v825h172v-1462h-215l-783 1214h-8q17 -272 17 -397v-817h-170v1462zM1444 -467v145q59 -20 135 -20q72 0 112 39t40 133v1268h180v-1262q0 -158 -76 -243t-233 -85q-96 0 -158 25zM1823 1280q-47 0 -77 29t-30 86t30 85.5
t77 28.5q45 0 74.5 -28.5t29.5 -85.5t-29.5 -86t-74.5 -29z" />
    <glyph glyph-name="uni01CC" unicode="&#x1cc;" horiz-adv-x="1794" 
d="M174 0v1098h145l27 -150h10q55 84 147.5 127t198.5 43q199 0 298.5 -98t99.5 -305v-715h-178v702q0 265 -246 265q-176 0 -249 -98.5t-73 -299.5v-569h-180zM1153 -467v145q59 -20 135 -20q72 0 112 39t40 133v1268h180v-1262q0 -158 -76 -243t-233 -85q-95 0 -158 25z
M1425 1395q0 57 30 85.5t77 28.5q45 0 74.5 -28.5t29.5 -85.5t-29.5 -86t-74.5 -29q-47 0 -77 29t-30 86z" />
    <glyph glyph-name="uni01CD" unicode="&#x1cd;" horiz-adv-x="1308" 
d="M0 0l571 1468h166l570 -1468h-191l-176 453h-580l-174 -453h-186zM588 1059l-166 -443h463l-164 443q-19 55 -70 219q-47 -173 -63 -219zM305 1907v26h123q116 -75 219 -188q122 122 223 188h127v-26q-204 -204 -256 -301h-184q-52 90 -252 301z" />
    <glyph glyph-name="uni01CE" unicode="&#x1ce;" horiz-adv-x="1148" 
d="M440 -20q-157 0 -251.5 82t-94.5 243q0 335 527 350l186 7v65q0 132 -56.5 188t-170.5 56q-134 0 -310 -84l-55 135q177 94 375 94q202 0 297.5 -88.5t95.5 -279.5v-748h-131l-35 156h-8q-75 -95 -156 -135.5t-213 -40.5zM643 530q-197 -7 -279.5 -62.5t-82.5 -164.5
q0 -89 54 -133.5t146 -44.5q144 0 234 80t90 233v99zM229 1542v27h123q113 -74 219 -189q123 123 224 189h127v-27q-204 -204 -256 -301h-185q-52 90 -252 301z" />
    <glyph glyph-name="uni01CF" unicode="&#x1cf;" horiz-adv-x="694" 
d="M254 1315l-172 41v106h528v-106l-172 -41v-1170l172 -39v-106h-528v106l172 39v1170zM2 1907v26h123q116 -75 219 -188q122 122 223 188h127v-26q-204 -204 -256 -301h-184q-52 90 -252 301z" />
    <glyph glyph-name="uni01D0" unicode="&#x1d0;" horiz-adv-x="528" 
d="M174 1098h180v-1098h-180v1098zM-82 1542v27h123q113 -74 219 -189q125 125 223 189h127v-27q-204 -204 -256 -301h-184q-52 90 -252 301z" />
    <glyph glyph-name="uni01D1" unicode="&#x1d1;" horiz-adv-x="1599" 
d="M801 -20q-169 0 -298 53.5t-211.5 153.5t-124.5 238t-42 310q0 169 42 305.5t124.5 236.5t212.5 154t299 54q215 0 367.5 -93.5t228.5 -261.5t76 -397q0 -228 -76.5 -396.5t-229.5 -262.5t-368 -94zM319 733q0 -284 120 -439t362 -155t360.5 155t118.5 439t-117.5 437
t-359.5 153q-245 0 -364.5 -153t-119.5 -437zM707 1606q-52 90 -252 301v26h123q116 -75 219 -188q122 122 223 188h127v-26q-204 -204 -256 -301h-184z" />
    <glyph glyph-name="uni01D2" unicode="&#x1d2;" horiz-adv-x="1239" 
d="M616 -20q-223 0 -363 152t-140 419q0 270 135.5 418.5t374.5 148.5q226 0 365.5 -150.5t139.5 -416.5q0 -269 -137.5 -420t-374.5 -151zM618 967q-319 0 -319 -416q0 -201 79.5 -311.5t242.5 -110.5q162 0 241.5 110.5t79.5 311.5q0 200 -80 308t-244 108zM526 1241
q-52 90 -252 301v27h123q113 -74 219 -189q123 123 224 189h127v-27q-204 -204 -256 -301h-185z" />
    <glyph glyph-name="uni01D3" unicode="&#x1d3;" horiz-adv-x="1497" 
d="M741 -20q-270 0 -413.5 145t-143.5 395v942h185v-948q0 -181 96.5 -278t286.5 -97t283 101.5t93 275.5v946h183v-946q0 -115 -35 -211.5t-104 -169.5t-179 -114t-252 -41zM403 1933h123q116 -75 219 -188q120 120 224 188h127v-26q-204 -204 -256 -301h-185
q-52 90 -252 301v26z" />
    <glyph glyph-name="uni01D4" unicode="&#x1d4;" horiz-adv-x="1265" 
d="M162 379v719h182v-707q0 -262 244 -262q176 0 249.5 98t73.5 299v572h181v-1098h-148l-26 145h-9q-52 -83 -144.5 -124t-203.5 -41q-201 0 -300 96.5t-99 302.5zM287 1569h123q113 -74 219 -189q125 125 223 189h127v-27q-204 -204 -256 -301h-184q-52 90 -252 301v27z
" />
    <glyph glyph-name="uni01D5" unicode="&#x1d5;" horiz-adv-x="1497" 
d="M184 1462h185v-948q0 -181 96.5 -278t286.5 -97t283 101.5t93 275.5v946h183v-946q0 -115 -35 -211.5t-104 -169.5t-179 -114t-252 -41q-270 0 -413.5 145t-143.5 395v942zM444 1931v146h609v-146h-609zM844 1696q0 51 27.5 76.5t68.5 25.5t68.5 -25.5t27.5 -76.5
t-27 -76t-69 -25t-69 25t-27 76zM461 1696q0 51 27.5 76.5t68.5 25.5t67.5 -25.5t26.5 -76.5t-26.5 -76t-67.5 -25q-42 0 -69 25t-27 76z" />
    <glyph glyph-name="uni01D6" unicode="&#x1d6;" horiz-adv-x="1265" 
d="M162 1098h182v-707q0 -262 244 -262q176 0 249.5 98t73.5 299v572h181v-1098h-148l-26 145h-9q-52 -83 -144.5 -124t-203.5 -41q-201 0 -300 96.5t-99 302.5v719zM328 1567v145h608v-145h-608zM727 1331q0 51 27.5 77t68.5 26t69 -26t28 -77t-27.5 -75.5t-69.5 -24.5
t-69 24.5t-27 75.5zM440 1231q-42 0 -69 24.5t-27 75.5t27.5 77t68.5 26t68 -26t27 -77t-26.5 -75.5t-68.5 -24.5z" />
    <glyph glyph-name="uni01D7" unicode="&#x1d7;" horiz-adv-x="1497" 
d="M184 1462h185v-948q0 -181 96.5 -278t286.5 -97t283 101.5t93 275.5v946h183v-946q0 -115 -35 -211.5t-104 -169.5t-179 -114t-252 -41q-270 0 -413.5 145t-143.5 395v942zM760 1851h-121v25q5 6 28 33.5t32 38.5t29.5 37t32.5 42.5t27.5 39t27 42.5t20.5 39h215v-20
q-52 -90 -291 -277zM844 1696q0 51 27.5 76.5t68.5 25.5t68.5 -25.5t27.5 -76.5t-27 -76t-69 -25t-69 25t-27 76zM557 1595q-42 0 -69 25t-27 76t27.5 76.5t68.5 25.5t67.5 -25.5t26.5 -76.5t-26.5 -76t-67.5 -25z" />
    <glyph glyph-name="uni01D8" unicode="&#x1d8;" horiz-adv-x="1265" 
d="M162 379v719h182v-707q0 -262 244 -262q176 0 249.5 98t73.5 299v572h181v-1098h-148l-26 145h-9q-52 -83 -144.5 -124t-203.5 -41q-201 0 -300 96.5t-99 302.5zM643 1487h-121v24q4 5 24.5 29.5t27.5 33t26 32t28.5 36.5t25.5 34.5t25.5 37t20.5 34.5t19 36h215v-21
q-29 -49 -114 -126.5t-177 -149.5zM823 1231q-42 0 -69 24.5t-27 75.5t27.5 77t68.5 26t69 -26t28 -77t-27.5 -75.5t-69.5 -24.5zM440 1231q-42 0 -69 24.5t-27 75.5t27.5 77t68.5 26t68 -26t27 -77t-26.5 -75.5t-68.5 -24.5z" />
    <glyph glyph-name="uni01D9" unicode="&#x1d9;" horiz-adv-x="1497" 
d="M184 1462h185v-948q0 -181 96.5 -278t286.5 -97t283 101.5t93 275.5v946h183v-946q0 -115 -35 -211.5t-104 -169.5t-179 -114t-252 -41q-270 0 -413.5 145t-143.5 395v942zM655 1862q-23 40 -65 88t-107 112.5t-80 79.5v27h123q3 -2 35 -22.5t40 -26t34.5 -24.5t40 -30
t33.5 -29t36 -36q18 18 39 36t34.5 29t40.5 30t35 24t40 26t35 23h127v-27q-16 -16 -63.5 -61.5t-77 -75t-64.5 -71t-51 -72.5h-185zM844 1696q0 51 27.5 76.5t68.5 25.5t68.5 -25.5t27.5 -76.5t-27 -76t-69 -25t-69 25t-27 76zM557 1595q-42 0 -69 25t-27 76t27.5 76.5
t68.5 25.5t67.5 -25.5t26.5 -76.5t-26.5 -76t-67.5 -25z" />
    <glyph glyph-name="uni01DA" unicode="&#x1da;" horiz-adv-x="1265" 
d="M162 379v719h182v-707q0 -262 244 -262q176 0 249.5 98t73.5 299v572h181v-1098h-148l-26 145h-9q-52 -83 -144.5 -124t-203.5 -41q-201 0 -300 96.5t-99 302.5zM287 1778v26h123q3 -2 35 -22.5t40 -26t34.5 -24.5t40 -30t33.5 -29t36 -36q15 15 30.5 29t34.5 29t30 23.5
t34.5 24.5t30 20.5t33.5 22t30 19.5h127v-26q-15 -15 -63.5 -61.5t-77.5 -75.5t-64 -71t-51 -73h-184q-23 40 -64.5 87.5t-108 113.5t-79.5 80zM823 1231q-42 0 -69 24.5t-27 75.5t27.5 77t68.5 26t69 -26t28 -77t-27.5 -75.5t-69.5 -24.5zM440 1231q-42 0 -69 24.5
t-27 75.5t27.5 77t68.5 26t68 -26t27 -77t-26.5 -75.5t-68.5 -24.5z" />
    <glyph glyph-name="uni01DB" unicode="&#x1db;" horiz-adv-x="1497" 
d="M184 520v942h185v-948q0 -181 96.5 -278t286.5 -97t283 101.5t93 275.5v946h183v-946q0 -115 -35 -211.5t-104 -169.5t-179 -114t-252 -41q-270 0 -413.5 145t-143.5 395zM449 2128v20h215q8 -17 19 -36t20.5 -34t25.5 -37t25 -34t28.5 -36.5t26 -32.5t27.5 -33t24 -29
v-25h-121q-90 70 -175.5 148.5t-114.5 128.5zM844 1696q0 51 27.5 76.5t68.5 25.5t68.5 -25.5t27.5 -76.5t-27 -76t-69 -25t-69 25t-27 76zM557 1595q-42 0 -69 25t-27 76t27.5 76.5t68.5 25.5t67.5 -25.5t26.5 -76.5t-26.5 -76t-67.5 -25z" />
    <glyph glyph-name="uni01DC" unicode="&#x1dc;" horiz-adv-x="1265" 
d="M162 379v719h182v-707q0 -262 244 -262q176 0 249.5 98t73.5 299v572h181v-1098h-148l-26 145h-9q-52 -83 -144.5 -124t-203.5 -41q-201 0 -300 96.5t-99 302.5zM623 1487q-92 72 -177 149.5t-114 126.5v21h215q7 -15 15.5 -30.5t20 -33.5t19.5 -30t24.5 -33.5t22.5 -30
t25.5 -32t23 -28t24.5 -30.5l21 -25v-24h-120zM823 1231q-42 0 -69 24.5t-27 75.5t27.5 77t68.5 26t69 -26t28 -77t-27.5 -75.5t-69.5 -24.5zM440 1231q-42 0 -69 24.5t-27 75.5t27.5 77t68.5 26t68 -26t27 -77t-26.5 -75.5t-68.5 -24.5z" />
    <glyph glyph-name="uni01DD" unicode="&#x1dd;" horiz-adv-x="1155" 
d="M514 1118q242 0 385 -145t143 -416q0 -266 -132.5 -421.5t-352.5 -155.5q-209 0 -331 134.5t-122 360.5v109h752q-4 185 -94.5 283t-255.5 98q-99 0 -179.5 -18.5t-172.5 -57.5v158q87 38 168.5 54.5t191.5 16.5zM852 440h-559q2 -145 68 -229t198 -84q128 0 203.5 82
t89.5 231z" />
    <glyph glyph-name="uni01DE" unicode="&#x1de;" horiz-adv-x="1308" 
d="M0 0l571 1468h166l570 -1468h-191l-176 453h-580l-174 -453h-186zM422 616h463l-164 443q-19 55 -70 219q-47 -173 -63 -219zM346 1931v146h608v-146h-608zM842 1595q-42 0 -69.5 25t-27.5 76t27.5 76.5t69.5 25.5q41 0 68.5 -25.5t27.5 -76.5t-27 -76t-69 -25zM362 1696
q0 51 27.5 76.5t69.5 25.5q41 0 67.5 -25.5t26.5 -76.5t-26.5 -76t-67.5 -25q-42 0 -69.5 25t-27.5 76z" />
    <glyph glyph-name="uni01DF" unicode="&#x1df;" horiz-adv-x="1148" 
d="M590 1116q202 0 297.5 -88.5t95.5 -279.5v-748h-131l-35 156h-8q-70 -88 -152 -133q-79 -43 -217 -43q-149 0 -247 79q-99 77 -99 246q0 335 527 350l186 7v65q0 132 -56.5 188t-170.5 56q-134 0 -310 -84l-55 135q177 94 375 94zM805 438v99l-162 -7q-210 -9 -283 -65
q-79 -58 -79 -162q0 -89 54 -133.5t146 -44.5q136 0 232 78q92 77 92 235zM270 1712h609v-145h-609v145zM383 1434q41 0 67.5 -26t26.5 -77t-26 -75.5t-68 -24.5t-69 24.5t-27 75.5t27.5 77t68.5 26zM766 1434q41 0 68.5 -26t27.5 -77t-27 -75.5t-69 -24.5t-69 24.5
t-27 75.5t27.5 77t68.5 26z" />
    <glyph glyph-name="uni01E0" unicode="&#x1e0;" horiz-adv-x="1308" 
d="M186 0h-186l571 1468h166l570 -1468h-191l-176 453h-580zM422 616h463l-164 443q-19 55 -70 219q-47 -173 -63 -219zM346 2050h608v-145h-608v145zM653 1577q-46 0 -76 30t-30 85q0 57 29.5 85.5t76.5 28.5q45 0 75 -28.5t30 -85.5q0 -54 -30.5 -84.5t-74.5 -30.5z" />
    <glyph glyph-name="uni01E1" unicode="&#x1e1;" horiz-adv-x="1148" 
d="M590 1116q202 0 297.5 -88.5t95.5 -279.5v-748h-131l-35 156h-8q-70 -88 -152 -133q-79 -43 -217 -43q-149 0 -247 79q-99 77 -99 246q0 335 527 350l186 7v65q0 132 -56.5 188t-170.5 56q-134 0 -310 -84l-55 135q177 94 375 94zM805 438v99l-162 -7q-210 -9 -283 -65
q-79 -58 -79 -162q0 -89 54 -133.5t146 -44.5q136 0 232 78q92 77 92 235zM270 1714h609v-145h-609v145zM573 1470q45 0 75 -28.5t30 -85.5q0 -54 -30.5 -84.5t-74.5 -30.5q-46 0 -76 30t-30 85q0 57 29.5 85.5t76.5 28.5z" />
    <glyph glyph-name="uni01E2" unicode="&#x1e2;" horiz-adv-x="1804" 
d="M188 0h-190l694 1462h989v-162h-577v-456h538v-160h-538v-522h577v-162h-761v453h-512zM479 616h441v682h-119zM1313 1606h-608v145h608v-145z" />
    <glyph glyph-name="uni01E3" unicode="&#x1e3;" horiz-adv-x="1769" 
d="M1235 1118q198 0 314 -134t116 -357v-111h-702q9 -383 317 -383q175 0 336 76v-158q-158 -71 -342 -71q-290 0 -416 231q-67 -103 -164 -168q-92 -63 -252 -63q-149 0 -247 79q-101 76 -101 246q0 335 500 350l184 7v69q0 128 -59.5 184t-169.5 56q-146 0 -307 -84
l-56 135q76 40 178.5 67t198.5 27q129 0 211.5 -42.5t124.5 -133.5q55 86 141 132t195 46zM1233 971q-118 0 -186.5 -81t-79.5 -233h508q0 146 -60.5 230t-181.5 84zM774 438v99l-153 -7q-186 -7 -263 -62.5t-77 -164.5q0 -90 50.5 -134t139.5 -44q135 0 219 79.5t84 233.5z
M594 1386h608v-145h-608v145z" />
    <glyph glyph-name="uni01E4" unicode="&#x1e4;" horiz-adv-x="1490" 
d="M125 725q0 347 201 552.5t557 205.5q241 0 436 -86l-70 -160q-203 84 -383 84q-263 0 -406 -153t-143 -437q0 -592 551 -592q143 0 287 35v150h-301v145h301v160h-321v164h505v-324h131v-145h-131v-263q-121 -40 -232.5 -60.5t-260.5 -20.5q-183 0 -321.5 52.5
t-225.5 150.5t-130.5 234t-43.5 308z" />
    <glyph glyph-name="uni01E5" unicode="&#x1e5;" horiz-adv-x="1259" 
d="M113 578q0 249 120 394.5t330 145.5q224 0 344 -166h11l24 146h143v-1164h113v-145h-129q-31 -130 -150 -205.5t-325 -75.5q-243 0 -395 70v166q164 -86 405 -86q226 0 277 131h-342v145h368v134q0 104 6 135h-8q-111 -166 -340 -166q-214 0 -333 142.5t-119 398.5z
M588 967q-137 0 -213 -103t-76 -289q0 -192 74 -291.5t219 -99.5q166 0 241.5 83t75.5 268v32q0 209 -77.5 304.5t-243.5 95.5z" />
    <glyph glyph-name="Gcaron" unicode="&#x1e6;" horiz-adv-x="1490" 
d="M825 -20q-336 0 -518 199.5t-182 551.5q0 345 200.5 548.5t557.5 203.5q241 0 436 -86l-70 -160q-203 84 -377 84q-261 0 -408 -158.5t-147 -431.5q0 -134 31.5 -240.5t96.5 -186t172.5 -122.5t250.5 -43t287 35v434h-321v164h505v-717q-232 -75 -514 -75zM483 1933h123
q116 -75 219 -188q120 120 224 188h127v-26q-204 -204 -256 -301h-185q-52 90 -252 301v26z" />
    <glyph glyph-name="gcaron" unicode="&#x1e7;" horiz-adv-x="1259" 
d="M113 547q0 264 120 417.5t330 153.5q224 0 344 -166h11l24 146h143v-1116q0 -237 -120.5 -355.5t-370.5 -118.5q-243 0 -395 70v166q164 -86 405 -86q141 0 222 83t81 226v43q0 60 6 135h-8q-110 -165 -340 -165q-214 0 -333 149.5t-119 417.5zM588 967q-137 0 -213 -110
t-76 -312q0 -204 74 -311t219 -107q166 0 241.5 89.5t75.5 287.5v43q0 221 -77 320.5t-244 99.5zM262 1569h123q113 -74 219 -189q125 125 223 189h127v-27q-204 -204 -256 -301h-184q-52 90 -252 301v27z" />
    <glyph glyph-name="uni01E8" unicode="&#x1e8;" horiz-adv-x="1267" 
d="M383 0h-184v1462h184v-721q112 126 252 279l395 442h215l-579 -637l602 -825h-217l-519 698l-149 -131v-567zM350 1907v26h123q116 -75 219 -188q122 122 223 188h127v-26q-204 -204 -256 -301h-184q-52 90 -252 301z" />
    <glyph glyph-name="uni01E9" unicode="&#x1e9;" horiz-adv-x="1093" 
d="M174 1556h178v-813q0 -25 -4 -95.5t-4 -82.5h8q69 93 131 162l351 371h210l-444 -469l475 -629h-217l-381 512l-125 -109v-403h-178v1556zM170 1700q-52 90 -252 301v27h123q113 -74 219 -189q125 125 223 189h127v-27q-204 -204 -256 -301h-184z" />
    <glyph glyph-name="uni01EA" unicode="&#x1ea;" horiz-adv-x="1599" 
d="M774 -20q-320 9 -484.5 210t-164.5 545q0 169 42 305.5t124.5 236.5t212.5 154t299 54q215 0 367.5 -93.5t228.5 -261.5t76 -397q0 -312 -143.5 -509.5t-409.5 -235.5q-66 -65 -96.5 -116.5t-30.5 -109.5q0 -92 92 -92q28 0 61 6.5t37 6.5v-115q-74 -19 -127 -19
q-106 0 -158.5 50t-52.5 143q0 62 36 124.5t91 113.5zM319 733q0 -284 120 -439t362 -155t360.5 155t118.5 439t-117.5 437t-359.5 153q-245 0 -364.5 -153t-119.5 -437z" />
    <glyph glyph-name="uni01EB" unicode="&#x1eb;" horiz-adv-x="1239" 
d="M598 -20q-216 6 -350.5 158t-134.5 413q0 270 135.5 418.5t374.5 148.5q226 0 365.5 -150.5t139.5 -416.5q0 -228 -99.5 -372.5t-276.5 -184.5q-70 -66 -102 -119.5t-32 -112.5q0 -92 93 -92q28 0 61 6.5t37 6.5v-115q-74 -19 -127 -19q-106 0 -158.5 50t-52.5 143
q0 62 36 124.5t91 113.5zM618 967q-319 0 -319 -416q0 -201 79.5 -311.5t242.5 -110.5q162 0 241.5 110.5t79.5 311.5q0 200 -80 308t-244 108z" />
    <glyph glyph-name="uni01EC" unicode="&#x1ec;" horiz-adv-x="1599" 
d="M799 -20q-168 1 -297 54.5t-211 153t-124 237.5t-42 310q0 169 42 305.5t124.5 236.5t212.5 154t299 54q215 0 367.5 -93.5t228.5 -261.5t76 -397q0 -302 -136 -498t-389 -243q-69 -67 -100 -119t-31 -111q0 -92 92 -92q28 0 62 6.5t37 6.5v-115q-74 -19 -127 -19
q-106 0 -158.5 50t-52.5 143q0 62 36 124.5t91 113.5zM319 733q0 -284 120 -439t362 -155t360.5 155t118.5 439t-117.5 437t-359.5 153q-245 0 -364.5 -153t-119.5 -437zM1104 1606h-608v145h608v-145z" />
    <glyph glyph-name="uni01ED" unicode="&#x1ed;" horiz-adv-x="1239" 
d="M598 -20q-216 6 -350.5 158t-134.5 413q0 270 135.5 418.5t374.5 148.5q226 0 365.5 -150.5t139.5 -416.5q0 -228 -99.5 -372.5t-276.5 -184.5q-70 -66 -102 -119.5t-32 -112.5q0 -92 93 -92q28 0 61 6.5t37 6.5v-115q-74 -19 -127 -19q-106 0 -158.5 50t-52.5 143
q0 62 36 124.5t91 113.5zM618 967q-319 0 -319 -416q0 -201 79.5 -311.5t242.5 -110.5q162 0 241.5 110.5t79.5 311.5q0 200 -80 308t-244 108zM315 1386h609v-145h-609v145z" />
    <glyph glyph-name="uni01EE" unicode="&#x1ee;" horiz-adv-x="1196" 
d="M72 227q197 -96 424 -96q195 0 295 75t100 214q0 264 -447 264h-137v150l481 464h-675v164h909v-145l-502 -483q269 -11 416 -114.5t147 -301.5q0 -200 -149.5 -319t-439.5 -119q-257 0 -422 79v168zM469 1606q-52 90 -252 301v26h123q116 -75 219 -188q122 122 223 188
h127v-26q-204 -204 -256 -301h-184z" />
    <glyph glyph-name="uni01EF" unicode="&#x1ef;" horiz-adv-x="1019" 
d="M29 -256q180 -86 387 -86q160 0 257 91.5t97 248.5q0 166 -110 246t-304 80h-120v125l448 497h-627v152h838v-131l-449 -500q106 -6 196.5 -38t160 -88.5t108.5 -143.5t39 -195q0 -220 -147.5 -357t-394.5 -137q-244 0 -379 72v164zM387 1241q-52 90 -252 301v27h123
q113 -74 219 -189q125 125 223 189h127v-27q-204 -204 -256 -301h-184z" />
    <glyph glyph-name="uni01F0" unicode="&#x1f0;" horiz-adv-x="528" 
d="M45 -492q-96 0 -158 25v145q59 -20 136 -20q72 0 111.5 39t39.5 133v1268h180v-1262q0 -158 -76 -243t-233 -85zM170 1241q-52 90 -252 301v27h123q113 -74 219 -189q125 125 223 189h127v-27q-204 -204 -256 -301h-184z" />
    <glyph glyph-name="uni01F1" unicode="&#x1f1;" horiz-adv-x="2646" 
d="M199 0v1462h450q335 0 528 -186t193 -531q0 -366 -199 -555.5t-565 -189.5h-407zM623 1305h-240v-1147h199q594 0 594 581q0 566 -553 566zM1552 0v139l770 1159h-745v164h969v-139l-770 -1159h790v-164h-1014z" />
    <glyph glyph-name="uni01F2" unicode="&#x1f2;" horiz-adv-x="2457" 
d="M199 1462h450q335 0 528 -186t193 -531q0 -366 -199 -555.5t-565 -189.5h-407v1462zM383 158h199q594 0 594 581q0 566 -553 566h-240v-1147zM1575 0v119l590 839h-555v140h753v-135l-581 -824h596v-139h-803z" />
    <glyph glyph-name="uni01F3" unicode="&#x1f3;" horiz-adv-x="2222" 
d="M113 547q0 277 121.5 424t330.5 147q218 0 340 -162h13q-13 76 -13 162v438h180v-1556h-145l-27 147h-8q-120 -167 -342 -167q-209 0 -329.5 145t-120.5 422zM299 543q0 -200 73.5 -307t219.5 -107q169 0 242 93t73 290v33q0 215 -70.5 319.5t-246.5 104.5
q-143 0 -217 -113t-74 -313zM1339 0v119l590 839h-555v140h754v-135l-582 -824h596v-139h-803z" />
    <glyph glyph-name="uni01F4" unicode="&#x1f4;" horiz-adv-x="1490" 
d="M834 608v164h505v-717q-232 -75 -514 -75q-336 0 -518 199.5t-182 551.5q0 345 200.5 548.5t557.5 203.5q241 0 436 -86l-70 -160q-203 84 -377 84q-261 0 -407 -158q-148 -160 -148 -432q0 -134 31.5 -240.5t96.5 -186t172.5 -122.5t250.5 -43t287 35v434h-321z
M901 1933h217v-20q-43 -61 -134.5 -159t-158.5 -148h-118v24q46 61 105 151.5t89 151.5z" />
    <glyph glyph-name="uni01F5" unicode="&#x1f5;" horiz-adv-x="1259" 
d="M563 1118q224 0 344 -166h11l24 146h143v-1116q0 -237 -120.5 -355.5t-370.5 -118.5q-243 0 -395 70v166q164 -86 405 -86q141 0 222 83t81 226v43q0 81 6 135h-8q-110 -165 -340 -165q-214 0 -333 149.5t-119 417.5q0 262 120 418q120 153 330 153zM588 967
q-137 0 -213 -110t-76 -312q0 -204 74 -311t219 -107q166 0 241.5 89.5t75.5 287.5v43q0 221 -77 320.5t-244 99.5zM680 1569h217v-21q-43 -61 -134.5 -159t-158.5 -148h-119v25q47 62 106 152t89 151z" />
    <glyph glyph-name="uni01F6" unicode="&#x1f6;" horiz-adv-x="1921" 
d="M199 0v1462h184v-618h606v618h185v-1126q0 -93 48.5 -144t141.5 -51q94 0 141 53t47 144v760h185v-760q0 -160 -96 -258t-283 -98q-180 0 -274.5 95t-94.5 263v342h-606v-682h-184z" />
    <glyph glyph-name="uni01F7" unicode="&#x1f7;" horiz-adv-x="1353" 
d="M383 -492h-184v1956h145l31 -198h10q146 219 412 219q202 0 323 -125.5t121 -372.5q0 -656 -858 -1007v-472zM383 856v-704q337 139 505.5 354t168.5 479q0 167 -77 253.5t-216 86.5q-205 0 -293 -121.5t-88 -347.5z" />
    <glyph glyph-name="uni01F8" unicode="&#x1f8;" horiz-adv-x="1556" 
d="M199 1462h213l780 -1210h8q-14 213 -14 385v825h172v-1462h-215l-783 1214h-8q17 -272 17 -397v-817h-170v1462zM510 1913v20h215q32 -65 91 -155.5t106 -147.5v-24h-121q-67 53 -161 152.5t-130 154.5z" />
    <glyph glyph-name="uni01F9" unicode="&#x1f9;" horiz-adv-x="1265" 
d="M174 1098h145l27 -150h10q52 83 144.5 126.5t201.5 43.5q199 0 298.5 -97.5t99.5 -305.5v-715h-178v702q0 265 -246 265q-176 0 -249 -98.5t-73 -299.5v-569h-180v1098zM655 1241q-67 53 -160.5 152t-129.5 155v21h215q32 -65 91 -156t105 -147v-25h-121z" />
    <glyph glyph-name="Aringacute" unicode="&#x1fa;" horiz-adv-x="1310" 
d="M0 0l528 1245q-100 54 -100 185q0 101 61.5 159t161.5 58q99 0 164.5 -58.5t65.5 -156.5q0 -61 -26.5 -109.5t-72.5 -75.5l529 -1247h-191l-168 393h-604l-160 -393h-188zM582 977l-170 -420h487l-172 424q-63 171 -74 207q-42 -136 -71 -211zM555 1716q101 117 174 246
h217v-16q-30 -43 -118 -124t-152 -124h-121v18zM537 1430q0 -54 29.5 -84.5t84.5 -30.5q52 0 83.5 30.5t31.5 84.5t-31.5 84t-83.5 30q-51 0 -82.5 -30t-31.5 -84z" />
    <glyph glyph-name="aringacute" unicode="&#x1fb;" horiz-adv-x="1148" 
d="M645 1962h268v-12q-26 -31 -123.5 -90t-189.5 -107h-129v16q96 86 174 193zM584 1673q99 0 163 -57.5t64 -155.5q0 -102 -63 -160.5t-164 -58.5t-162.5 58t-61.5 159t61 158t163 57zM584 1573q-51 0 -83 -31t-32 -84q0 -54 30 -84.5t85 -30.5q52 0 83 31t31 84t-32 84
t-82 31zM590 1116q202 0 297.5 -88.5t95.5 -279.5v-748h-131l-35 156h-8q-70 -88 -152 -133q-79 -43 -217 -43q-149 0 -247 79q-99 77 -99 246q0 335 527 350l186 7v65q0 132 -56.5 188t-170.5 56q-134 0 -310 -84l-55 135q177 94 375 94zM805 438v99l-162 -7
q-210 -9 -283 -65q-79 -58 -79 -162q0 -89 54 -133.5t146 -44.5q136 0 232 78q92 77 92 235z" />
    <glyph glyph-name="AEacute" unicode="&#x1fc;" horiz-adv-x="1804" 
d="M188 0h-190l694 1462h989v-162h-577v-456h538v-160h-538v-522h577v-162h-761v453h-512zM801 1298l-322 -682h441v682h-119zM1006 1606h-119v24q46 61 105 151.5t89 151.5h217v-20q-43 -61 -134 -159t-158 -148z" />
    <glyph glyph-name="aeacute" unicode="&#x1fd;" horiz-adv-x="1769" 
d="M1235 1118q198 0 314 -134t116 -357v-111h-702q9 -383 317 -383q175 0 336 76v-158q-158 -71 -342 -71q-290 0 -416 231q-67 -103 -164 -168q-92 -63 -252 -63q-149 0 -247 79q-101 76 -101 246q0 335 500 350l184 7v69q0 128 -59.5 184t-169.5 56q-146 0 -307 -84
l-56 135q76 40 178.5 67t198.5 27q129 0 211.5 -42.5t124.5 -133.5q55 86 141 132t195 46zM1233 971q-118 0 -186.5 -81t-79.5 -233h508q0 146 -60.5 230t-181.5 84zM774 438v99l-153 -7q-186 -7 -263 -62.5t-77 -164.5q0 -90 50.5 -134t139.5 -44q135 0 219 79.5t84 233.5z
M971 1569h217v-21q-43 -61 -134.5 -159t-158.5 -148h-119v25q47 62 106 152t89 151z" />
    <glyph glyph-name="Oslashacute" unicode="&#x1fe;" horiz-adv-x="1599" 
d="M1475 733q0 -228 -76.5 -396.5t-229.5 -262.5t-368 -94q-227 0 -379 96l-98 -139l-125 81l106 152q-180 198 -180 565q0 169 42 305.5t124.5 236.5t212.5 154t299 54q203 0 364 -92l95 135l124 -84l-104 -146q193 -202 193 -565zM319 733q0 -258 97 -405l653 923
q-110 72 -266 72q-245 0 -364.5 -153t-119.5 -437zM1280 733q0 265 -104 414l-656 -930q115 -78 281 -78q242 0 360.5 155t118.5 439zM874 1933h218v-20q-43 -61 -134.5 -159t-158.5 -148h-119v24q46 61 105 151.5t89 151.5z" />
    <glyph glyph-name="oslashacute" unicode="&#x1ff;" horiz-adv-x="1239" 
d="M1128 551q0 -273 -137 -422t-375 -149q-151 0 -264 67l-82 -115l-118 80l92 127q-131 153 -131 412q0 270 135.5 418.5t374.5 148.5q147 0 268 -74l80 115l121 -78l-93 -129q129 -155 129 -401zM299 551q0 -167 49 -262l451 626q-73 52 -181 52q-319 0 -319 -416z
M942 551q0 149 -47 252l-451 -627q71 -47 177 -47q162 0 241.5 110.5t79.5 311.5zM692 1569h217v-21q-43 -61 -134.5 -159t-158.5 -148h-118v25q46 61 105 151.5t89 151.5z" />
    <glyph glyph-name="uni0200" unicode="&#x200;" horiz-adv-x="1308" 
d="M186 0h-186l571 1468h166l570 -1468h-191l-176 453h-580zM422 616h463l-164 443q-19 55 -70 219q-47 -173 -63 -219zM553 1913v20h199q85 -181 176 -303v-24h-103q-66 53 -154 153t-118 154zM193 1913v20h198q85 -181 176 -303v-24h-102q-66 53 -154 153t-118 154z" />
    <glyph glyph-name="uni0201" unicode="&#x201;" horiz-adv-x="1148" 
d="M440 -20q-157 0 -251.5 82t-94.5 243q0 335 527 350l186 7v65q0 132 -56.5 188t-170.5 56q-134 0 -310 -84l-55 135q177 94 375 94q202 0 297.5 -88.5t95.5 -279.5v-748h-131l-35 156h-8q-75 -95 -156 -135.5t-213 -40.5zM643 530q-197 -7 -279.5 -62.5t-82.5 -164.5
q0 -89 54 -133.5t146 -44.5q144 0 234 80t90 233v99zM477 1548v21h199q85 -181 176 -303v-25h-102q-66 53 -154.5 153t-118.5 154zM117 1569h198q34 -72 85 -160t92 -143v-25h-103q-66 53 -154 153t-118 154v21z" />
    <glyph glyph-name="uni0202" unicode="&#x202;" horiz-adv-x="1308" 
d="M186 0h-186l571 1468h166l570 -1468h-191l-176 453h-580zM588 1059l-166 -443h463l-164 443q-19 55 -70 219q-47 -173 -63 -219zM655 1880q149 0 227.5 -71.5t86.5 -202.5h-111q-10 79 -57 104t-150 25q-90 0 -143.5 -27.5t-63.5 -101.5h-112q11 126 94.5 200t228.5 74z
" />
    <glyph glyph-name="uni0203" unicode="&#x203;" horiz-adv-x="1148" 
d="M440 -20q-157 0 -251.5 82t-94.5 243q0 335 527 350l186 7v65q0 132 -56.5 188t-170.5 56q-134 0 -310 -84l-55 135q177 94 375 94q202 0 297.5 -88.5t95.5 -279.5v-748h-131l-35 156h-8q-75 -95 -156 -135.5t-213 -40.5zM281 303q0 -89 54 -133.5t146 -44.5
q144 0 234 80t90 233v99l-162 -7q-197 -7 -279.5 -62.5t-82.5 -164.5zM256 1241q11 126 95 200.5t229 74.5q149 0 227 -72t86 -203h-111q-10 79 -57 104t-150 25q-90 0 -143 -27.5t-63 -101.5h-113z" />
    <glyph glyph-name="uni0204" unicode="&#x204;" horiz-adv-x="1138" 
d="M1016 0h-817v1462h817v-162h-633v-456h596v-160h-596v-522h633v-162zM799 1606q-66 53 -154.5 153t-118.5 154v20h199q85 -181 176 -303v-24h-102zM166 1913v20h199q85 -181 176 -303v-24h-103q-66 53 -154 153t-118 154z" />
    <glyph glyph-name="uni0205" unicode="&#x205;" horiz-adv-x="1155" 
d="M113 541q0 266 132.5 421.5t352.5 155.5q209 0 331 -134.5t122 -360.5v-109h-752q4 -185 94.5 -283t255.5 -98q99 0 179.5 18.5t172.5 57.5v-158q-87 -38 -168.5 -54.5t-191.5 -16.5q-242 0 -385 145t-143 416zM303 657h559q-2 146 -68 230t-198 84q-128 0 -203.5 -82.5
t-89.5 -231.5zM758 1241q-66 53 -154.5 153t-118.5 154v21h199q85 -181 176 -303v-25h-102zM125 1569h199q85 -181 176 -303v-25h-103q-66 53 -154 153t-118 154v21z" />
    <glyph glyph-name="uni0206" unicode="&#x206;" horiz-adv-x="1138" 
d="M199 1462h817v-162h-633v-456h596v-160h-596v-522h633v-162h-817v1462zM629 1880q149 0 227 -71.5t86 -202.5h-111q-10 80 -56.5 104.5t-149.5 24.5q-90 0 -143.5 -27.5t-63.5 -101.5h-113q11 126 95 200t229 74z" />
    <glyph glyph-name="uni0207" unicode="&#x207;" horiz-adv-x="1155" 
d="M113 541q0 266 132.5 421.5t352.5 155.5q209 0 331 -134.5t122 -360.5v-109h-752q4 -185 94.5 -283t255.5 -98q99 0 179.5 18.5t172.5 57.5v-158q-87 -38 -168.5 -54.5t-191.5 -16.5q-242 0 -385 145t-143 416zM596 971q-128 0 -203.5 -82.5t-89.5 -231.5h559
q-2 146 -68 230t-198 84zM588 1516q149 0 227 -72t86 -203h-110q-10 79 -57 104t-150 25q-90 0 -143.5 -27.5t-63.5 -101.5h-113q11 126 95 200.5t229 74.5z" />
    <glyph glyph-name="uni0208" unicode="&#x208;" horiz-adv-x="694" 
d="M82 1462h528v-106l-172 -41v-1170l172 -39v-106h-528v106l172 39v1170l-172 41v106zM250 1933h199q85 -181 176 -303v-24h-103q-66 53 -154 153t-118 154v20zM-111 1913v20h199q85 -181 176 -303v-24h-102q-66 53 -154.5 153t-118.5 154z" />
    <glyph glyph-name="uni0209" unicode="&#x209;" horiz-adv-x="528" 
d="M354 0h-180v1098h180v-1098zM166 1569h199q85 -181 176 -303v-25h-103q-66 53 -154 153t-118 154v21zM-195 1548v21h199q85 -181 176 -303v-25h-102q-66 53 -154.5 153t-118.5 154z" />
    <glyph glyph-name="uni020A" unicode="&#x20a;" horiz-adv-x="694" 
d="M82 0v106l172 39v1170l-172 41v106h528v-106l-172 -41v-1170l172 -39v-106h-528zM352 1880q149 0 227.5 -71.5t86.5 -202.5h-111q-10 79 -57 104t-150 25q-90 0 -143.5 -27.5t-63.5 -101.5h-112q11 126 94.5 200t228.5 74z" />
    <glyph glyph-name="uni020B" unicode="&#x20b;" horiz-adv-x="528" 
d="M354 0h-180v1098h180v-1098zM-55 1241q11 126 95 200.5t228 74.5q149 0 227.5 -72t86.5 -203h-111q-10 79 -57 104t-150 25q-90 0 -143.5 -27.5t-63.5 -101.5h-112z" />
    <glyph glyph-name="uni020C" unicode="&#x20c;" horiz-adv-x="1599" 
d="M801 -20q-169 0 -298 53.5t-211.5 153.5t-124.5 238t-42 310q0 169 42 305.5t124.5 236.5t212.5 154t299 54q215 0 367.5 -93.5t228.5 -261.5t76 -397q0 -228 -76.5 -396.5t-229.5 -262.5t-368 -94zM319 733q0 -284 120 -439t362 -155t360.5 155t118.5 439t-117.5 437
t-359.5 153q-245 0 -364.5 -153t-119.5 -437zM702 1913v20h199q85 -181 176 -303v-24h-102q-66 53 -154.5 153t-118.5 154zM342 1933h199q85 -181 176 -303v-24h-103q-66 53 -154 153t-118 154v20z" />
    <glyph glyph-name="uni020D" unicode="&#x20d;" horiz-adv-x="1239" 
d="M616 -20q-223 0 -363 152t-140 419q0 270 135.5 418.5t374.5 148.5q226 0 365.5 -150.5t139.5 -416.5q0 -269 -137.5 -420t-374.5 -151zM618 967q-319 0 -319 -416q0 -201 79.5 -311.5t242.5 -110.5q162 0 241.5 110.5t79.5 311.5q0 200 -80 308t-244 108zM522 1548v21
h199q85 -181 176 -303v-25h-102q-66 53 -154.5 153t-118.5 154zM162 1569h198q34 -72 85 -160t92 -143v-25h-103q-66 53 -154 153t-118 154v21z" />
    <glyph glyph-name="uni020E" unicode="&#x20e;" horiz-adv-x="1599" 
d="M801 -20q-169 0 -298 53.5t-211.5 153.5t-124.5 238t-42 310q0 169 42 305.5t124.5 236.5t212.5 154t299 54q215 0 367.5 -93.5t228.5 -261.5t76 -397q0 -228 -76.5 -396.5t-229.5 -262.5t-368 -94zM319 733q0 -284 120 -439t362 -155t360.5 155t118.5 439t-117.5 437
t-359.5 153q-245 0 -364.5 -153t-119.5 -437zM805 1880q149 0 227 -71.5t86 -202.5h-110q-10 79 -57 104t-150 25q-90 0 -143.5 -27.5t-63.5 -101.5h-113q11 126 95 200t229 74z" />
    <glyph glyph-name="uni020F" unicode="&#x20f;" horiz-adv-x="1239" 
d="M616 -20q-223 0 -363 152t-140 419q0 270 135.5 418.5t374.5 148.5q226 0 365.5 -150.5t139.5 -416.5q0 -269 -137.5 -420t-374.5 -151zM299 551q0 -201 79.5 -311.5t242.5 -110.5q162 0 241.5 110.5t79.5 311.5q0 200 -80 308t-244 108q-319 0 -319 -416zM625 1516
q149 0 227 -72t86 -203h-111q-10 80 -56.5 104.5t-149.5 24.5q-90 0 -143.5 -27.5t-63.5 -101.5h-113q11 126 95 200.5t229 74.5z" />
    <glyph glyph-name="uni0210" unicode="&#x210;" horiz-adv-x="1273" 
d="M383 0h-184v1462h403q271 0 402 -102.5t131 -312.5q0 -84 -24.5 -152t-68 -114t-92.5 -76t-108 -50l401 -655h-215l-354 604h-291v-604zM592 1303h-209v-543h219q176 0 259 69.5t83 208.5q0 141 -85 203t-267 62zM811 1606q-66 53 -154 153t-118 154v20h198
q85 -181 176 -303v-24h-102zM178 1913v20h199q85 -181 176 -303v-24h-102q-66 53 -154.5 153t-118.5 154z" />
    <glyph glyph-name="uni0211" unicode="&#x211;" horiz-adv-x="845" 
d="M174 1098h148l20 -201h8q55 99 141 160t195 61q70 0 129 -12l-22 -166q-61 14 -119 14q-131 0 -225.5 -103.5t-94.5 -264.5v-586h-180v1098zM666 1241q-66 53 -154.5 153t-118.5 154v21h199q85 -181 176 -303v-25h-102zM33 1548v21h198q34 -72 85 -160t92 -143v-25h-103
q-66 53 -154 153t-118 154z" />
    <glyph glyph-name="uni0212" unicode="&#x212;" horiz-adv-x="1273" 
d="M199 0v1462h403q271 0 402 -102.5t131 -312.5q0 -84 -24.5 -152t-68 -114t-92.5 -76t-108 -50l401 -655h-215l-354 604h-291v-604h-184zM592 1303h-209v-543h219q176 0 259 69.5t83 208.5q0 141 -85 203t-267 62zM641 1880q149 0 227 -71.5t86 -202.5h-110
q-10 79 -57 104t-150 25q-90 0 -143.5 -27.5t-63.5 -101.5h-113q11 126 95 200t229 74z" />
    <glyph glyph-name="uni0213" unicode="&#x213;" horiz-adv-x="845" 
d="M174 1098h148l20 -201h8q55 99 141 160t195 61q70 0 129 -12l-22 -166q-61 14 -119 14q-131 0 -225.5 -103.5t-94.5 -264.5v-586h-180v1098zM172 1241q11 126 95 200.5t229 74.5q149 0 227 -72t86 -203h-111q-10 80 -56.5 104.5t-149.5 24.5q-90 0 -143.5 -27.5
t-63.5 -101.5h-113z" />
    <glyph glyph-name="uni0214" unicode="&#x214;" horiz-adv-x="1497" 
d="M741 -20q-270 0 -413.5 145t-143.5 395v942h185v-948q0 -181 96.5 -278t286.5 -97t283 101.5t93 275.5v946h183v-946q0 -115 -35 -211.5t-104 -169.5t-179 -114t-252 -41zM651 1913v20h199q85 -181 176 -303v-24h-102q-66 53 -154.5 153t-118.5 154zM563 1606
q-66 53 -154 153t-118 154v20h198q34 -72 85 -160t92 -143v-24h-103z" />
    <glyph glyph-name="uni0215" unicode="&#x215;" horiz-adv-x="1265" 
d="M162 379v719h182v-707q0 -262 244 -262q176 0 249.5 98t73.5 299v572h181v-1098h-148l-26 145h-9q-52 -83 -144.5 -124t-203.5 -41q-201 0 -300 96.5t-99 302.5zM535 1569h198q85 -181 176 -303v-25h-102q-66 53 -154 153t-118 154v21zM174 1569h199q85 -181 176 -303
v-25h-103q-66 53 -154 153t-118 154v21z" />
    <glyph glyph-name="uni0216" unicode="&#x216;" horiz-adv-x="1497" 
d="M184 1462h185v-948q0 -181 96.5 -278t286.5 -97t283 101.5t93 275.5v946h183v-946q0 -115 -35 -211.5t-104 -169.5t-179 -114t-252 -41q-270 0 -413.5 145t-143.5 395v942zM754 1880q149 0 227 -71.5t86 -202.5h-111q-10 80 -56.5 104.5t-149.5 24.5q-90 0 -143.5 -27.5
t-63.5 -101.5h-113q11 126 95 200t229 74z" />
    <glyph glyph-name="uni0217" unicode="&#x217;" horiz-adv-x="1265" 
d="M162 1098h182v-707q0 -262 244 -262q176 0 249.5 98t73.5 299v572h181v-1098h-148l-26 145h-9q-52 -83 -144.5 -124t-203.5 -41q-201 0 -300 96.5t-99 302.5v719zM637 1516q149 0 227 -72t86 -203h-110q-10 79 -57 104t-150 25q-90 0 -143.5 -27.5t-63.5 -101.5h-113
q11 126 95 200.5t229 74.5z" />
    <glyph glyph-name="uni0218" unicode="&#x218;" horiz-adv-x="1124" 
d="M1028 391q0 -195 -141 -303t-381 -108q-254 0 -402 69v176q82 -36 191.5 -61t218.5 -25q159 0 244.5 63t85.5 173q0 106 -70.5 166t-273.5 135q-196 70 -286.5 169.5t-90.5 264.5q0 170 129 271.5t338 101.5q214 0 403 -82l-57 -158q-181 78 -350 78q-134 0 -205.5 -57
t-71.5 -156q0 -108 68 -168.5t252 -126.5q103 -38 172 -74t123 -85.5t79 -114t25 -148.5zM479 -125h178v-18q-17 -61 -65 -156.5t-98 -153.5h-99v25q25 58 51.5 150.5t32.5 152.5z" />
    <glyph glyph-name="uni0219" unicode="&#x219;" horiz-adv-x="980" 
d="M889 303q0 -157 -116.5 -240t-321.5 -83q-210 0 -345 69v164q180 -88 349 -88q132 0 196 43t64 119q0 63 -55.5 108t-215.5 105q-73 28 -118.5 48.5t-92 49.5t-72 60t-41.5 73.5t-16 95.5q0 137 112 214t300 77q178 0 350 -74l-61 -143q-165 70 -301 70
q-109 0 -168.5 -35.5t-59.5 -97.5q0 -66 58 -106.5t225 -102.5q87 -32 141.5 -59.5t100.5 -65.5t67 -87t21 -114zM444 -125h179v-18q-17 -61 -65.5 -156.5t-98.5 -153.5h-99v25q25 58 51.5 150.5t32.5 152.5z" />
    <glyph glyph-name="uni021A" unicode="&#x21a;" horiz-adv-x="1138" 
d="M20 1462h1096v-162h-454v-1300h-185v1300h-457v162zM438 -453v25q25 58 51.5 150.5t32.5 152.5h178v-18q-17 -61 -65 -156.5t-98 -153.5h-99z" />
    <glyph glyph-name="uni021B" unicode="&#x21b;" horiz-adv-x="739" 
d="M188 958h-155v86l157 72l72 234h107v-252h317v-140h-317v-634q0 -96 47 -146.5t125 -50.5q95 0 153 23v-138q-29 -14 -82 -23t-102 -9q-322 0 -322 339v639zM307 -428q25 58 51.5 150.5t32.5 152.5h178v-18q-17 -61 -65 -156.5t-98 -153.5h-99v25z" />
    <glyph glyph-name="uni021C" unicode="&#x21c;" horiz-adv-x="1177" 
d="M80 -369v176q230 59 384 120t244.5 130.5t128 144.5t37.5 171q0 116 -57.5 188.5t-175.5 130.5q-115 -42 -309 -90l-35 143q124 33 207.5 59.5t153 58.5t108 66.5t59.5 78.5t21 100q0 104 -72 163.5t-199 59.5q-221 0 -409 -125l-88 125q218 152 500 152q121 0 224.5 -38
t168.5 -114q65 -83 65 -217q0 -215 -235 -348q266 -128 266 -393q0 -144 -55 -253t-178.5 -197.5t-303.5 -157t-450 -134.5z" />
    <glyph glyph-name="uni021D" unicode="&#x21d;" horiz-adv-x="1015" 
d="M61 -492v162q334 71 501 184t167 283q0 99 -43.5 160.5t-130.5 105.5q-98 -41 -272 -84l-35 136q178 46 277 95.5t135 101.5t36 126q0 93 -58 144t-161 51q-162 0 -323 -82l-62 131q176 96 387 96q86 0 156.5 -19t126.5 -58.5t87.5 -106.5t31.5 -156q0 -184 -185 -301
q219 -103 219 -340q0 -105 -40.5 -192.5t-111.5 -153t-180 -119.5t-235 -92.5t-287 -71.5z" />
    <glyph glyph-name="uni021E" unicode="&#x21e;" horiz-adv-x="1517" 
d="M383 0h-184v1462h184v-618h750v618h184v-1462h-184v682h-750v-682zM414 1907v26h123q116 -75 219 -188q122 122 223 188h127v-26q-204 -204 -256 -301h-184q-52 90 -252 301z" />
    <glyph glyph-name="uni021F" unicode="&#x21f;" horiz-adv-x="1265" 
d="M174 0v1556h180v-456q0 -76 -10 -154h12q53 83 143.5 126.5t198.5 43.5q201 0 301.5 -97t100.5 -304v-715h-178v702q0 265 -246 265q-177 0 -249.5 -99t-72.5 -301v-567h-180zM-80 2001v27h123q113 -74 219 -189q125 125 223 189h127v-27q-204 -204 -256 -301h-184
q-52 90 -252 301z" />
    <glyph glyph-name="uni0220" unicode="&#x220;" horiz-adv-x="1517" 
d="M825 1485q243 0 374.5 -132.5t131.5 -408.5v-1436h-184v1436q0 194 -81.5 287.5t-262.5 93.5q-227 0 -322 -123q-98 -125 -98 -336v-866h-184v1464h145l31 -188h10q66 94 189.5 151.5t250.5 57.5z" />
    <glyph glyph-name="uni0221" unicode="&#x221;" horiz-adv-x="1767" 
d="M1153 -215l-166 10q18 171 55 289q-56 42 -77 106h-11q-52 -102 -139 -157q-82 -53 -250 -53q-209 0 -330.5 145.5t-121.5 421.5q0 277 121.5 424t330.5 147q218 0 340 -162h13q-13 101 -13 162v438h180v-1134q0 -105 29 -168q128 223 375 219q122 -1 190 -60.5
t68 -154.5q0 -105 -92 -182q-91 -76 -305 -76q-89 0 -164 16q-24 -101 -33 -231zM592 129q169 0 242 93t73 290v33q0 205 -67 315q-68 109 -250 109q-143 0 -217 -113t-74 -313t73.5 -307t219.5 -107zM1366 141q209 0 209 109q0 32 -29.5 55t-81.5 23q-152 0 -231 -170
q66 -17 133 -17z" />
    <glyph glyph-name="uni0222" unicode="&#x222;" horiz-adv-x="1374" 
d="M682 -20q-246 0 -404.5 132.5t-158.5 362.5q0 325 305 414q-231 96 -231 393v180h184v-180q0 -146 77.5 -232.5t231.5 -86.5q155 0 233 86.5t78 232.5v180h185v-180q0 -296 -236 -395q145 -44 227 -148t82 -264q0 -233 -155 -364t-418 -131zM313 475q0 -336 373 -336
q191 0 283 87t92 249q0 330 -377 330q-371 0 -371 -330z" />
    <glyph glyph-name="uni0223" unicode="&#x223;" horiz-adv-x="1220" 
d="M606 -20q-146 0 -259 58.5t-179 175t-66 275.5q0 336 267 429q-100 36 -148.5 124.5t-48.5 249.5v264h180v-258q0 -163 61.5 -234t196.5 -71t196.5 71t61.5 234v258h181v-264q0 -162 -49 -251.5t-150 -125.5q268 -103 268 -426q0 -242 -137.5 -375.5t-374.5 -133.5z
M289 489q0 -172 79 -266t242 -94q162 0 242 94t80 266q0 170 -80.5 262.5t-243.5 92.5q-319 0 -319 -355z" />
    <glyph glyph-name="uni0224" unicode="&#x224;" horiz-adv-x="1171" 
d="M78 0v139l770 1159h-746v164h969v-139l-770 -1159h791v-297q0 -273 -240 -273q-56 0 -123 25v150q55 -19 102 -19q99 0 99 107v143h-852z" />
    <glyph glyph-name="uni0225" unicode="&#x225;" horiz-adv-x="962" 
d="M115 1098h753v-135l-581 -824h596v-272q0 -273 -240 -273q-55 0 -123 25v150q55 -19 103 -19q98 0 98 107v143h-641v119l590 839h-555v140z" />
    <glyph glyph-name="uni0226" unicode="&#x226;" horiz-adv-x="1308" 
d="M0 0l571 1468h166l570 -1468h-191l-176 453h-580l-174 -453h-186zM588 1059l-166 -443h463l-164 443q-19 55 -70 219q-47 -173 -63 -219zM551 1759q0 57 29.5 86t76.5 29q45 0 75 -29t30 -86t-30 -85.5t-75 -28.5q-47 0 -76.5 28.5t-29.5 85.5z" />
    <glyph glyph-name="uni0227" unicode="&#x227;" horiz-adv-x="1148" 
d="M590 1116q202 0 297.5 -88.5t95.5 -279.5v-748h-131l-35 156h-8q-70 -88 -152 -133q-79 -43 -217 -43q-149 0 -247 79q-99 77 -99 246q0 335 527 350l186 7v65q0 132 -56.5 188t-170.5 56q-134 0 -310 -84l-55 135q177 94 375 94zM805 438v99l-162 -7q-210 -9 -283 -65
q-79 -58 -79 -162q0 -89 54 -133.5t146 -44.5q136 0 232 78q92 77 92 235zM582 1509q-47 0 -77 -28.5t-30 -85.5t30 -86t77 -29q45 0 74.5 29t29.5 86t-29.5 85.5t-74.5 28.5z" />
    <glyph glyph-name="uni0228" unicode="&#x228;" horiz-adv-x="1138" 
d="M578 0h-379v1462h817v-162h-633v-456h596v-160h-596v-522h633v-162h-320l-53 -109q178 -42 178 -176q0 -100 -76.5 -153.5t-226.5 -53.5q-56 0 -102 11v112q42 -10 108 -10q77 0 114.5 20.5t37.5 69.5q0 50 -49.5 75.5t-137.5 37.5z" />
    <glyph glyph-name="uni0229" unicode="&#x229;" horiz-adv-x="1155" 
d="M113 541q0 266 132.5 421.5t352.5 155.5q209 0 331 -134.5t122 -360.5v-109h-752q4 -185 94.5 -283t255.5 -98q99 0 179.5 18.5t172.5 57.5v-158q-147 -63 -313 -71l-43 -89q178 -42 178 -176q0 -100 -76.5 -153.5t-226.5 -53.5q-56 0 -102 11v112q42 -10 108 -10
q77 0 114.5 20.5t37.5 69.5q0 50 -49 75.5t-137 37.5l79 160q-212 21 -335 164.5t-123 392.5zM303 657h559q-2 146 -68 230t-198 84q-128 0 -203.5 -82.5t-89.5 -231.5z" />
    <glyph glyph-name="uni022A" unicode="&#x22a;" horiz-adv-x="1599" 
d="M1475 733q0 -228 -76.5 -396.5t-229.5 -262.5t-368 -94q-169 0 -298 53.5t-211.5 153.5t-124.5 238t-42 310q0 169 42 305.5t124.5 236.5t212.5 154t299 54q215 0 367.5 -93.5t228.5 -261.5t76 -397zM319 733q0 -284 120 -439t362 -155t360.5 155t118.5 439t-117.5 437
t-359.5 153q-245 0 -364.5 -153t-119.5 -437zM496 2077h608v-146h-608v146zM608 1798q41 0 67.5 -25.5t26.5 -76.5t-26.5 -76t-67.5 -25q-42 0 -69 25t-27 76t27.5 76.5t68.5 25.5zM991 1798q41 0 68.5 -25.5t27.5 -76.5t-27 -76t-69 -25t-69 25t-27 76t27.5 76.5t68.5 25.5
z" />
    <glyph glyph-name="uni022B" unicode="&#x22b;" horiz-adv-x="1239" 
d="M1128 551q0 -273 -137 -422t-375 -149q-223 0 -363 152t-140 419q0 270 135.5 418.5t374.5 148.5q226 0 365.5 -150.5t139.5 -416.5zM299 551q0 -201 79.5 -311.5t242.5 -110.5q162 0 241.5 110.5t79.5 311.5q0 200 -80 308t-244 108q-319 0 -319 -416zM315 1712h609
v-145h-609v145zM428 1434q41 0 67.5 -26t26.5 -77t-26 -75.5t-68 -24.5t-69 24.5t-27 75.5t27.5 77t68.5 26zM811 1434q41 0 68.5 -26t27.5 -77t-27 -75.5t-69 -24.5t-69 24.5t-27 75.5t27.5 77t68.5 26z" />
    <glyph glyph-name="uni022C" unicode="&#x22c;" horiz-adv-x="1599" 
d="M1475 733q0 -228 -76.5 -396.5t-229.5 -262.5t-368 -94q-169 0 -298 53.5t-211.5 153.5t-124.5 238t-42 310q0 169 42 305.5t124.5 236.5t212.5 154t299 54q215 0 367.5 -93.5t228.5 -261.5t76 -397zM319 733q0 -284 120 -439t362 -155t360.5 155t118.5 439t-117.5 437
t-359.5 153q-245 0 -364.5 -153t-119.5 -437zM1104 1931h-608v146h608v-146zM561 1604h-104q11 111 61.5 172t136.5 61q47 0 103.5 -24.5t107 -49t82.5 -24.5q39 0 58.5 24.5t35.5 75.5h103q-11 -109 -61 -171t-138 -62q-53 0 -152 49t-139 49q-41 0 -61 -24t-33 -76z" />
    <glyph glyph-name="uni022D" unicode="&#x22d;" horiz-adv-x="1239" 
d="M1128 551q0 -273 -137 -422t-375 -149q-223 0 -363 152t-140 419q0 270 135.5 418.5t374.5 148.5q226 0 365.5 -150.5t139.5 -416.5zM299 551q0 -201 79.5 -311.5t242.5 -110.5q162 0 241.5 110.5t79.5 311.5q0 200 -80 308t-244 108q-319 0 -319 -416zM924 1567h-609
v145h609v-145zM381 1239h-105q11 111 62 172.5t137 61.5q37 0 81 -15.5t77 -34t71 -34t64 -15.5q39 0 58.5 24.5t35.5 76.5h103q-11 -110 -61 -172t-138 -62q-53 0 -152 49t-139 49q-41 0 -61 -24t-33 -76z" />
    <glyph glyph-name="uni022E" unicode="&#x22e;" horiz-adv-x="1599" 
d="M1475 733q0 -228 -76.5 -396.5t-229.5 -262.5t-368 -94q-169 0 -298 53.5t-211.5 153.5t-124.5 238t-42 310q0 169 42 305.5t124.5 236.5t212.5 154t299 54q215 0 367.5 -93.5t228.5 -261.5t76 -397zM319 733q0 -284 120 -439t362 -155t360.5 155t118.5 439t-117.5 437
t-359.5 153q-245 0 -364.5 -153t-119.5 -437zM807 1874q-47 0 -77 -29t-30 -86t30 -85.5t77 -28.5q45 0 74.5 28.5t29.5 85.5t-29.5 86t-74.5 29z" />
    <glyph glyph-name="uni022F" unicode="&#x22f;" horiz-adv-x="1239" 
d="M1128 551q0 -273 -137 -422t-375 -149q-223 0 -363 152t-140 419q0 270 135.5 418.5t374.5 148.5q226 0 365.5 -150.5t139.5 -416.5zM299 551q0 -201 79.5 -311.5t242.5 -110.5q162 0 241.5 110.5t79.5 311.5q0 200 -80 308t-244 108q-319 0 -319 -416zM627 1509
q-47 0 -77 -28.5t-30 -85.5t30 -86t77 -29q45 0 74.5 29t29.5 86t-29.5 85.5t-74.5 28.5z" />
    <glyph glyph-name="uni0230" unicode="&#x230;" horiz-adv-x="1599" 
d="M1475 733q0 -228 -76.5 -396.5t-229.5 -262.5t-368 -94q-169 0 -298 53.5t-211.5 153.5t-124.5 238t-42 310q0 169 42 305.5t124.5 236.5t212.5 154t299 54q215 0 367.5 -93.5t228.5 -261.5t76 -397zM319 733q0 -284 120 -439t362 -155t360.5 155t118.5 439t-117.5 437
t-359.5 153q-245 0 -364.5 -153t-119.5 -437zM496 2050h608v-145h-608v145zM803 1806q45 0 74.5 -28.5t29.5 -85.5q0 -54 -30 -84.5t-74 -30.5q-46 0 -76.5 30t-30.5 85q0 57 30 85.5t77 28.5z" />
    <glyph glyph-name="uni0231" unicode="&#x231;" horiz-adv-x="1239" 
d="M1128 551q0 -273 -137 -422t-375 -149q-223 0 -363 152t-140 419q0 270 135.5 418.5t374.5 148.5q226 0 365.5 -150.5t139.5 -416.5zM299 551q0 -201 79.5 -311.5t242.5 -110.5q162 0 241.5 110.5t79.5 311.5q0 200 -80 308t-244 108q-319 0 -319 -416zM315 1714h609
v-145h-609v145zM618 1470q45 0 75 -28.5t30 -85.5q0 -54 -30.5 -84.5t-74.5 -30.5q-46 0 -76 30t-30 85q0 57 29.5 85.5t76.5 28.5z" />
    <glyph glyph-name="uni0232" unicode="&#x232;" horiz-adv-x="1159" 
d="M487 559l-487 903h201l379 -719l381 719h198l-487 -895v-567h-185v559zM274 1606v145h609v-145h-609z" />
    <glyph glyph-name="uni0233" unicode="&#x233;" horiz-adv-x="1044" 
d="M444 -4l-442 1102h193l237 -625q76 -210 92 -299h8q19 81 95 301l223 623h194l-473 -1250q-65 -168 -156.5 -254t-242.5 -86q-75 0 -149 17v143q62 -12 120 -12q166 0 244 194zM217 1386h608v-145h-608v145z" />
    <glyph glyph-name="uni0234" unicode="&#x234;" horiz-adv-x="780" 
d="M152 -61l-138 61q72 194 160 309v1247h180v-1110q67 25 140 25q130 0 198 -65t68 -173q0 -109 -73 -181t-200 -72q-186 0 -264 133q-30 -56 -71 -174zM485 119q53 0 82 30t29 76q0 53 -31 80t-86 27q-64 0 -125 -49q3 -164 131 -164z" />
    <glyph glyph-name="uni0235" unicode="&#x235;" horiz-adv-x="1525" 
d="M899 -61l-137 61q72 194 160 309v393q0 265 -246 265q-176 0 -249 -98.5t-73 -299.5v-569h-180v1098h145l27 -150h10q52 83 144.5 126.5t201.5 43.5q199 0 298.5 -97.5t99.5 -305.5v-269q67 25 139 25q128 0 197 -69t69 -177q0 -116 -71 -180.5t-201 -64.5
q-180 0 -264 131q-29 -55 -70 -172zM1231 119q57 0 83.5 29t26.5 77q0 53 -30.5 80t-85.5 27q-64 0 -125 -49q3 -164 131 -164z" />
    <glyph glyph-name="uni0236" unicode="&#x236;" horiz-adv-x="794" 
d="M29 0q72 197 159 309v649h-155v86l157 72l72 234h107v-252h317v-140h-317v-512q67 25 139 25q126 0 196 -69.5t70 -176.5q0 -117 -70 -181t-202 -64q-182 0 -266 131q-29 -55 -70 -172zM494 332q-64 0 -125 -49q10 -164 131 -164q57 0 83.5 29t26.5 77q0 53 -30.5 80
t-85.5 27z" />
    <glyph glyph-name="uni0237" unicode="&#x237;" horiz-adv-x="528" 
d="M45 -492q-96 0 -158 25v145q59 -20 136 -20q72 0 111.5 39t39.5 133v1268h180v-1262q0 -158 -76 -243t-233 -85z" />
    <glyph glyph-name="uni0238" unicode="&#x238;" horiz-adv-x="1990" 
d="M598 -20q-232 0 -358.5 144t-126.5 423q0 277 121.5 424t330.5 147q218 0 340 -162h13q-13 76 -13 215v385h180v-378q0 -41 -2 -85t-4.5 -86t-3.5 -55h10q48 75 133 119.5t207 44.5q209 0 331 -145.5t122 -421.5q0 -279 -128.5 -424t-360.5 -145q-282 0 -396 256
q-115 -256 -395 -256zM604 129q147 0 225 113.5t78 312.5q0 205 -67 309q-67 105 -250 105q-143 0 -217 -113t-74 -313q0 -414 305 -414zM1391 129q301 0 301 422q0 416 -297 416q-170 0 -240 -98t-70 -314q0 -426 306 -426z" />
    <glyph glyph-name="uni0239" unicode="&#x239;" horiz-adv-x="1990" 
d="M1393 1118q232 0 358.5 -144t126.5 -423q0 -277 -122 -424t-331 -147q-218 0 -340 161h-12q12 -70 12 -215v-418h-180v412q0 41 2 85t4.5 85.5t3.5 54.5h-10q-105 -163 -340 -163q-209 0 -330.5 145.5t-121.5 421.5q0 279 128.5 424t360.5 145q281 0 395 -256
q115 256 396 256zM600 969q-301 0 -301 -422q0 -416 297 -416q169 0 239 98t70 314q0 426 -305 426zM1386 969q-147 0 -225 -113.5t-78 -312.5q0 -204 68 -310q67 -104 250 -104q143 0 217 113t74 313q0 414 -306 414z" />
    <glyph glyph-name="uni023A" unicode="&#x23a;" horiz-adv-x="1308" 
d="M186 0h-186l571 1468h166l62 -159l86 247h137l-152 -434l437 -1122h-191l-176 453h-301l-211 -607h-137l211 607h-142zM422 616h137l158 455q-46 134 -66 207q-47 -173 -63 -219zM786 881l-90 -265h189z" />
    <glyph glyph-name="uni023B" unicode="&#x23b;" horiz-adv-x="1294" 
d="M1008 1556h137l-39 -112q55 -15 125 -47l-74 -156q-76 32 -106 43l-389 -1122q73 -21 161 -21q152 0 351 58v-160q-157 -59 -377 -59q-109 0 -193 20l-53 -154h-137l67 195q-176 81 -266 259t-90 433q0 222 80 390t240 264t382 96q67 0 152 -10zM825 1321
q-233 0 -370 -158q-136 -157 -136 -432q0 -182 56.5 -315t165.5 -201l383 1098q-44 8 -99 8z" />
    <glyph glyph-name="uni023C" unicode="&#x23c;" horiz-adv-x="983" 
d="M614 -20q-107 0 -186 26l-154 -432h-137l174 492q-198 142 -198 477q0 148 38.5 260.5t108.5 180t162 101t205 33.5q39 0 59 -2l158 440h137l-164 -462q60 -15 98 -35l-55 -150q-61 22 -98 31l-279 -780q58 -25 129 -25q146 0 285 64v-160q-112 -59 -283 -59zM299 545
q0 -194 78 -301l254 717h-8q-324 0 -324 -416z" />
    <glyph glyph-name="uni023D" unicode="&#x23d;" horiz-adv-x="1073" 
d="M20 680v145h179v637h184v-637h348v-145h-348v-516h639v-164h-823v680h-179z" />
    <glyph glyph-name="uni023E" unicode="&#x23e;" horiz-adv-x="1138" 
d="M477 1300h-457v162h859l43 94h143l-43 -94h94v-162h-170l-284 -612v-688h-185v291l-207 -445h-143l350 754v700zM662 1300v-303l141 303h-141z" />
    <glyph glyph-name="uni023F" unicode="&#x23f;" horiz-adv-x="980" 
d="M737 -492q-167 0 -248 78q-81 75 -122 244q-37 142 -156 176q-58 17 -105 43v164q180 -88 349 -88q132 0 196 43t64 119q0 63 -55.5 108t-215.5 105q-73 28 -118.5 48.5t-92 49.5t-72 60t-41.5 73.5t-16 95.5q0 137 112 214t300 77q178 0 350 -74l-61 -143
q-165 70 -301 70q-109 0 -168.5 -35.5t-59.5 -97.5q0 -66 58 -106.5t225 -102.5q87 -32 141.5 -59.5t100.5 -65.5t67 -87t21 -114q0 -153 -109 -236t-305 -85q42 -67 66 -152q26 -90 78 -131t137 -41q80 0 147 27v-148q-25 -11 -73 -20t-93 -9z" />
    <glyph glyph-name="uni0240" unicode="&#x240;" horiz-adv-x="962" 
d="M793 -492q-122 0 -201.5 37.5t-124 105t-74.5 179.5q-26 92 -77 131t-164 39h-72v119l590 839h-555v140h753v-135l-581 -824q114 -20 178.5 -94.5t101.5 -214.5q23 -90 80.5 -131t157.5 -41q68 0 135 23v-148q-62 -25 -147 -25z" />
    <glyph glyph-name="uni0241" unicode="&#x241;" horiz-adv-x="917" 
d="M391 1483q211 0 332 -104t121 -287q0 -161 -100 -301t-306 -236v-555h-184v659q182 58 288.5 171.5t106.5 254.5q0 110 -67 173t-199 63q-73 0 -161.5 -28t-149.5 -72l-68 147q72 54 175 84.5t212 30.5z" />
    <glyph glyph-name="uni0242" unicode="&#x242;" horiz-adv-x="892" 
d="M391 1118q208 0 318 -103t110 -288q0 -72 -20.5 -141.5t-64 -139.5t-120 -134t-180.5 -111v-201h-180v295q179 57 280 170t101 256q0 248 -252 248q-71 0 -149.5 -28t-141.5 -73l-67 136q152 114 366 114z" />
    <glyph glyph-name="uni0243" unicode="&#x243;" horiz-adv-x="1331" 
d="M199 350h-168v160h168v952h417q280 0 417.5 -84.5t137.5 -277.5q0 -130 -72 -214.5t-206 -109.5v-10q73 -13 129.5 -37t103 -64.5t71 -103.5t24.5 -145q0 -197 -136 -306.5t-372 -109.5h-514v350zM686 350h-303v-194h295q186 0 266 71.5t80 202.5q0 123 -83.5 189.5
t-276.5 66.5h-281v-176h303v-160zM625 1305h-242v-465h270q180 0 254 58t74 181q0 121 -84.5 173.5t-271.5 52.5z" />
    <glyph glyph-name="uni0244" unicode="&#x244;" horiz-adv-x="1497" 
d="M20 885h164v577h185v-577h759v577h183v-577h166v-160h-166v-209q0 -115 -35 -211.5t-104 -169.5t-179 -114t-252 -41q-270 0 -413.5 145t-143.5 395v205h-164v160zM369 725v-211q0 -181 96.5 -278t286.5 -97t283 101.5t93 275.5v209h-759z" />
    <glyph glyph-name="uni0245" unicode="&#x245;" horiz-adv-x="1245" 
d="M0 0l524 1462h193l526 -1462h-194l-324 922q-78 228 -107 340q-33 -141 -102 -338l-321 -924h-195z" />
    <glyph glyph-name="uni0246" unicode="&#x246;" horiz-adv-x="1138" 
d="M199 0v1462h583l25 94h133l-25 -94h101v-162h-142l-114 -456h219v-160h-260l-133 -522h430v-162h-471l-39 -154h-133l39 154h-213zM383 1300v-456h244l114 456h-358zM383 162h70l133 522h-203v-522z" />
    <glyph glyph-name="uni0247" unicode="&#x247;" horiz-adv-x="1155" 
d="M113 541q0 266 132.5 421.5t352.5 155.5q51 0 92 -8l154 446h137l-168 -485q113 -57 175.5 -173t62.5 -275v-109h-430l-123 -354q64 -27 151 -27q99 0 179.5 18.5t172.5 57.5v-158q-87 -38 -168.5 -54.5t-191.5 -16.5q-105 0 -197 28l-149 -434h-137l170 492
q-102 69 -158.5 190t-56.5 285zM596 971q-128 0 -203.5 -82.5t-89.5 -231.5h229l109 312q-14 2 -45 2zM760 920l-90 -263h192q0 186 -102 263zM299 514q3 -174 88 -276l96 276h-184z" />
    <glyph glyph-name="uni0248" unicode="&#x248;" horiz-adv-x="559" 
d="M-8 -389q-86 0 -152 27v155q61 -20 148 -20q88 0 144 53.5t56 181.5v635h-168v160h168v659h185v-659h166v-160h-166v-620q0 -205 -101.5 -308.5t-279.5 -103.5z" />
    <glyph glyph-name="uni0249" unicode="&#x249;" horiz-adv-x="528" 
d="M-113 -322q59 -20 136 -20q72 0 111.5 39t39.5 133v678h-154v145h154v445h180v-445h154v-145h-154v-672q0 -158 -76 -243t-233 -85q-96 0 -158 25v145zM266 1280q-47 0 -76.5 29t-29.5 86t29.5 85.5t76.5 28.5q45 0 75 -28.5t30 -85.5t-30 -86t-75 -29z" />
    <glyph glyph-name="uni024A" unicode="&#x24a;" horiz-adv-x="1570" 
d="M125 733q0 345 161.5 547.5t456.5 202.5q147 0 265 -57t176 -152h10l31 188h145v-1624q0 -93 31.5 -130.5t97.5 -37.5q51 0 92 21v-156q-52 -27 -114 -27q-291 0 -291 322v211q0 29 3.5 81t4.5 66h-10q-59 -97 -175 -152.5t-276 -55.5q-191 0 -329.5 94t-208.5 263
t-70 396zM739 1323q-200 0 -311 -157t-111 -435t111.5 -435t312.5 -157q105 0 183.5 21t128 57.5t80 92.5t42 119t11.5 144v316q0 81 -11.5 144t-42 119t-80.5 92.5t-128.5 57.5t-184.5 21z" />
    <glyph glyph-name="uni024B" unicode="&#x24b;" horiz-adv-x="1259" 
d="M565 1118q225 0 342 -170h8l27 150h143v-1245q0 -116 23.5 -156.5t77.5 -40.5q62 0 102 22v-137q-46 -33 -143 -33q-240 0 -240 342v127q0 111 10 170h-12q-114 -167 -344 -167q-199 0 -321 143q-125 140 -125 424q0 283 127 428q125 143 325 143zM590 969
q-144 0 -217.5 -113t-73.5 -313t73 -307t222 -107q165 0 238 92t75 287v37q0 217 -72 320.5t-245 103.5z" />
    <glyph glyph-name="uni024C" unicode="&#x24c;" horiz-adv-x="1273" 
d="M20 604v156h179v702h403q271 0 402 -102.5t131 -312.5q0 -84 -24.5 -152t-68 -114t-92.5 -76t-108 -50l401 -655h-215l-354 604h-291v-604h-184v604h-179zM383 1303v-543h219q176 0 259 69.5t83 208.5q0 141 -85 203t-267 62h-209z" />
    <glyph glyph-name="uni024D" unicode="&#x24d;" horiz-adv-x="845" 
d="M20 653h154v445h148l20 -201h8q55 99 141 160t195 61q70 0 129 -12l-22 -166q-61 14 -119 14q-117 0 -206.5 -83t-109.5 -218h254v-145h-258v-508h-180v508h-154v145z" />
    <glyph glyph-name="uni024E" unicode="&#x24e;" horiz-adv-x="1159" 
d="M0 1462h201l137 -262h483l140 262h198l-143 -262h123v-160h-209l-258 -473v-567h-185v559l-260 481h-207v160h121zM737 1040h-313l156 -297z" />
    <glyph glyph-name="uni024F" unicode="&#x24f;" horiz-adv-x="1044" 
d="M147 735l-145 363h193l137 -363h389l129 363h194l-137 -363h117v-145h-172l-281 -742q-65 -168 -156.5 -254t-242.5 -86q-75 0 -149 17v143q62 -12 120 -12q166 0 244 194l57 146l-237 594h-187v145h127zM387 590l45 -117q76 -210 92 -299h8q19 81 95 301l41 115h-281z
" />
    <glyph glyph-name="uni0250" unicode="&#x250;" horiz-adv-x="1148" 
d="M559 -18q-202 0 -297.5 88.5t-95.5 279.5v748h131l35 -156h8q70 88 152 133q79 43 217 43q146 0 247 -78q99 -80 99 -247q0 -336 -527 -351l-186 -6v-65q0 -132 56.5 -188t170.5 -56q134 0 310 84l55 -135q-177 -94 -375 -94zM344 659v-98l162 6q208 9 285 66
q77 59 77 162q0 89 -54 133.5t-146 44.5q-139 0 -230 -76q-94 -76 -94 -238z" />
    <glyph glyph-name="uni0251" unicode="&#x251;" horiz-adv-x="1259" 
d="M563 -20q-209 0 -329.5 145t-120.5 422t121.5 424t330.5 147q218 0 340 -162h8l29 142h143v-1098h-145l-27 147h-8q-120 -167 -342 -167zM592 129q169 0 242 93t73 290v33q0 205 -67 315q-68 109 -250 109q-143 0 -217 -113t-74 -313t73.5 -307t219.5 -107z" />
    <glyph glyph-name="uni0252" unicode="&#x252;" horiz-adv-x="1259" 
d="M696 1118q209 0 330 -145.5t121 -421.5q0 -277 -122 -424t-331 -147q-218 0 -340 161h-8l-29 -141h-143v1098h145l27 -148h8q121 168 342 168zM668 969q-170 0 -243 -93t-73 -290v-33q0 -204 68 -313q68 -111 250 -111q143 0 217 113t74 313t-73.5 307t-219.5 107z" />
    <glyph glyph-name="uni0253" unicode="&#x253;" horiz-adv-x="1259" 
d="M422 1567q62 0 135 -27v-149q-45 20 -106 20q-97 0 -97 -119v-114q0 -148 -10 -226h10q112 164 340 164q209 0 331 -145.5t122 -421.5q0 -283 -125 -426t-328 -143q-226 0 -340 159h-14l-37 -139h-129v1280q0 287 248 287zM664 967q-172 0 -241 -97.5t-69 -314.5
q0 -208 68 -317q65 -109 246 -109q146 0 219.5 108t73.5 314q0 416 -297 416z" />
    <glyph glyph-name="uni0254" unicode="&#x254;" horiz-adv-x="983" 
d="M385 1118q226 0 355.5 -134.5t129.5 -414.5q0 -149 -39.5 -263.5t-110 -184.5t-162.5 -105.5t-202 -35.5q-164 0 -276 59v160q139 -64 278 -64q162 0 244 109.5t82 316.5q0 204 -78 303t-239 99q-58 0 -126.5 -15t-117.5 -39l-55 150q51 25 138.5 42t178.5 17z" />
    <glyph glyph-name="uni0255" unicode="&#x255;" horiz-adv-x="1087" 
d="M641 1118q171 0 289 -59l-56 -150q-137 52 -237 52q-324 0 -324 -416q0 -107 21 -183q158 158 354 158q145 0 229 -69t84 -181q0 -60 -21 -109.5t-56 -82.5t-82 -55.5t-97.5 -32.5t-103.5 -10q-203 0 -330 98q-41 -77 -75 -178l-138 63q37 119 107 236q-78 135 -78 344
q0 148 38.5 260.5t108.5 180t162 101t205 33.5zM676 371q-147 0 -270 -148q82 -94 233 -94q83 0 137.5 37.5t54.5 99.5q0 44 -37.5 74.5t-117.5 30.5z" />
    <glyph glyph-name="uni0256" unicode="&#x256;" horiz-adv-x="1259" 
d="M113 547q0 277 121.5 424t330.5 147q218 0 340 -162h13q-13 76 -13 162v438h180v-1703q0 -80 13 -123.5t37 -58.5t67 -15q66 0 117 22v-137q-49 -33 -156 -33q-258 0 -258 342v130q0 85 13 161h-13q-122 -161 -340 -161q-209 0 -330.5 145.5t-121.5 421.5zM299 543
q0 -200 73.5 -307t219.5 -107q93 0 156.5 27.5t97.5 81.5t47.5 119t13.5 155v33q0 74 -6.5 131t-27 114.5t-54.5 95t-92 60.5t-137 23q-143 0 -217 -113t-74 -313z" />
    <glyph glyph-name="uni0257" unicode="&#x257;" horiz-adv-x="1259" 
d="M563 -20q-209 0 -329.5 145t-120.5 422t121.5 424t330.5 147q218 0 340 -162h13q-13 101 -13 162v162q0 287 248 287q51 0 135 -27v-149q-45 20 -106 20q-97 0 -97 -119v-1292h-145l-27 147h-8q-120 -167 -342 -167zM592 129q169 0 242 93t73 290v33q0 205 -67 315
q-68 109 -250 109q-143 0 -217 -113t-74 -313t73.5 -307t219.5 -107z" />
    <glyph glyph-name="uni0258" unicode="&#x258;" horiz-adv-x="1155" 
d="M557 1118q220 0 352.5 -155.5t132.5 -421.5q0 -271 -143 -416t-385 -145q-110 0 -191.5 16.5t-168.5 54.5v158q92 -39 172.5 -57.5t179.5 -18.5q165 0 255.5 98t94.5 283h-752v109q0 226 122 360.5t331 134.5zM559 971q-132 0 -198 -84t-68 -230h559q-14 149 -89.5 231.5
t-203.5 82.5z" />
    <glyph glyph-name="uni0259" unicode="&#x259;" horiz-adv-x="1155" 
d="M514 1118q242 0 385 -145t143 -416q0 -266 -132.5 -421.5t-352.5 -155.5q-209 0 -331 134.5t-122 360.5v109h752q-4 185 -94.5 283t-255.5 98q-99 0 -179.5 -18.5t-172.5 -57.5v158q87 38 168.5 54.5t191.5 16.5zM852 440h-559q2 -145 68 -229t198 -84q128 0 203.5 82
t89.5 231z" />
    <glyph glyph-name="uni025A" unicode="&#x25a;" horiz-adv-x="1605" 
d="M557 -20q-213 0 -333 136t-120 376l740 200q-29 132 -116 202.5t-222 70.5q-99 0 -179.5 -18.5t-172.5 -57.5v158q87 38 168.5 54.5t191.5 16.5q195 0 328.5 -97.5t177.5 -279.5l217 58l35 -123q26 -88 56.5 -124t74.5 -36q81 0 166 55l37 -135q-110 -78 -238 -78
q-88 0 -152.5 59.5t-105.5 198.5l-70 -16q0 -285 -116 -453q-115 -167 -367 -167zM559 127q297 0 297 422l-561 -152q11 -126 77 -198t187 -72z" />
    <glyph glyph-name="uni025B" unicode="&#x25b;" horiz-adv-x="989" 
d="M612 645h115v-147h-149q-310 0 -310 -189q0 -100 84 -141t207 -41q176 0 356 86v-158q-134 -75 -366 -75q-226 0 -343.5 88t-117.5 231q0 113 65.5 174.5t178.5 93.5v11q-205 65 -205 249q0 139 119 215q116 76 303 76q112 0 197.5 -19t173.5 -59l-68 -143
q-78 36 -147 54t-158 18q-248 0 -248 -156q0 -168 313 -168z" />
    <glyph glyph-name="uni025C" unicode="&#x25c;" horiz-adv-x="1003" 
d="M463 1118q190 0 300.5 -76.5t110.5 -212.5q0 -185 -206 -243v-8q243 -69 243 -275q0 -139 -112 -229q-113 -94 -357 -94q-247 0 -374 71v162q184 -86 372 -86q124 0 209 43q84 41 84 143q0 185 -313 185h-148v147h119q311 0 311 168q0 156 -249 156q-87 0 -155 -16.5
t-155 -53.5l-63 143q171 76 383 76z" />
    <glyph glyph-name="uni025D" unicode="&#x25d;" horiz-adv-x="1439" 
d="M463 1118q157 0 261 -51.5t136 -148.5l211 55l35 -123q26 -88 56.5 -124t74.5 -36q81 0 166 55l37 -135q-120 -78 -238 -78q-89 0 -153 61t-105 198l-76 -19q-25 -135 -200 -186v-8q243 -69 243 -275q0 -139 -112 -229q-113 -94 -357 -94q-247 0 -374 71v162
q184 -86 372 -86q124 0 209 43q84 41 84 143q0 185 -313 185h-148v147h119q311 0 311 168q0 156 -249 156q-87 0 -155 -16.5t-155 -53.5l-63 143q171 76 383 76z" />
    <glyph glyph-name="uni025E" unicode="&#x25e;" horiz-adv-x="1228" 
d="M682 1118q200 0 309 -81t109 -218q0 -100 -53 -156.5t-154 -84.5v-9q102 -14 173 -77t71 -179q0 -147 -122 -240t-358 -93q-272 0 -407 153q-137 152 -137 414q0 271 146.5 421t422.5 150zM678 967q-193 0 -286 -105.5t-93 -314.5q0 -212 94.5 -315t284.5 -103
q131 0 205.5 49.5t74.5 145.5q0 89 -75.5 127t-237.5 38h-86v148h57q74 0 128.5 7.5t97.5 26t64.5 51.5t21.5 81q0 74 -60.5 119t-189.5 45z" />
    <glyph glyph-name="uni025F" unicode="&#x25f;" horiz-adv-x="528" 
d="M-113 -322q59 -20 136 -20q72 0 111.5 39t39.5 133v678h-154v145h154v445h180v-445h154v-145h-154v-672q0 -158 -76 -243t-233 -85q-96 0 -158 25v145z" />
    <glyph glyph-name="uni0260" unicode="&#x260;" horiz-adv-x="1259" 
d="M111 547q0 265 119 418t331 153q224 0 344 -166h13q-13 102 -13 181v147q0 287 250 287q49 0 133 -27v-149q-45 20 -106 20q-99 0 -99 -119v-1310q0 -237 -120.5 -355.5t-370.5 -118.5q-243 0 -395 70v166q164 -86 405 -86q141 0 222 83t81 226v43l6 135h-8
q-110 -165 -340 -165q-214 0 -333 149.5t-119 417.5zM586 967q-139 0 -214 -109.5t-75 -312.5t75.5 -310.5t217.5 -107.5q75 0 130.5 18t91 50t57 80.5t30 103.5t8.5 125v43q0 74 -7.5 131.5t-28 113.5t-55.5 93t-93 59.5t-137 22.5z" />
    <glyph glyph-name="uni0261" unicode="&#x261;" horiz-adv-x="1259" 
d="M563 1118q224 0 344 -166h11l24 146h143v-1116q0 -237 -120.5 -355.5t-370.5 -118.5q-243 0 -395 70v166q164 -86 405 -86q141 0 222 83t81 226v43q0 81 6 135h-8q-110 -165 -340 -165q-214 0 -333 149.5t-119 417.5q0 262 120 418q120 153 330 153zM588 967
q-137 0 -213 -110t-76 -312q0 -204 74 -311t219 -107q166 0 241.5 89.5t75.5 287.5v43q0 221 -77 320.5t-244 99.5z" />
    <glyph glyph-name="uni0262" unicode="&#x262;" horiz-adv-x="1175" 
d="M662 1118q223 0 350 -74l-66 -155q-147 72 -274 72q-373 0 -373 -416q0 -199 79.5 -304.5t233.5 -105.5q140 0 236 29v301h-236v145h416v-553q-209 -77 -414 -77q-230 0 -365.5 140.5t-135.5 422.5q0 148 42.5 260.5t118 180t173.5 101t215 33.5z" />
    <glyph glyph-name="uni0263" unicode="&#x263;" horiz-adv-x="1040" 
d="M518 -487q-105 0 -170 72t-65 182q0 93 32.5 180.5t100.5 214.5l-416 936h193l208 -494q95 -222 113 -305h8q30 97 117 305l209 494h192l-419 -936q69 -132 101 -223t32 -172q0 -108 -64 -181t-172 -73zM518 -338q33 0 54.5 27.5t21.5 81.5q0 45 -20 112.5t-56 126.5
q-36 -59 -56 -125.5t-20 -111.5q0 -57 21.5 -84t54.5 -27z" />
    <glyph glyph-name="uni0264" unicode="&#x264;" horiz-adv-x="1040" 
d="M958 1118q46 0 86 -16v-141q-5 1 -16 3.5t-23 4.5t-22 2q-27 0 -53 -19.5t-68 -77.5l-248 -339q73 -101 107 -168q33 -65 33 -156q0 -104 -65 -166.5t-171 -62.5t-170.5 63t-64.5 168q0 82 31.5 150.5t107.5 171.5l-260 352q-31 46 -57 64t-56 20q-15 1 -34.5 -4.5
t-20.5 -5.5v137q50 20 90 20q61 0 104 -30t101 -109l125 -172q55 -72 100 -160h8q68 108 105 160l125 176q51 72 96 103.5t110 31.5zM518 412q-76 -102 -76 -185q0 -47 21.5 -71.5t54.5 -24.5t54.5 25.5t21.5 72.5q0 77 -76 183z" />
    <glyph glyph-name="uni0265" unicode="&#x265;" horiz-adv-x="1265" 
d="M166 383v715h178v-703q0 -264 246 -264q177 0 249 98.5t72 300.5v568h181v-1557h-181v457q0 68 11 154h-13q-53 -83 -143.5 -126.5t-198.5 -43.5q-201 0 -301 96.5t-100 304.5z" />
    <glyph glyph-name="uni0266" unicode="&#x266;" horiz-adv-x="1265" 
d="M354 0h-180v1280q0 287 250 287q60 0 133 -27v-149q-45 20 -106 20q-97 0 -97 -119v-192q0 -76 -10 -154h12q53 83 143.5 126.5t198.5 43.5q201 0 301.5 -97t100.5 -304v-715h-178v702q0 265 -246 265q-177 0 -249.5 -99t-72.5 -301v-567z" />
    <glyph glyph-name="uni0267" unicode="&#x267;" horiz-adv-x="1265" 
d="M174 0v1280q0 287 250 287q60 0 133 -27v-149q-45 20 -106 20q-97 0 -97 -119v-192q0 -76 -10 -154h12q53 83 143.5 126.5t198.5 43.5q201 0 301.5 -97t100.5 -304v-920q0 -287 -248 -287q-73 0 -133 27v150q47 -21 106 -21q49 0 73 27.5t24 91.5v919q0 265 -246 265
q-177 0 -249.5 -99t-72.5 -301v-567h-180z" />
    <glyph glyph-name="uni0268" unicode="&#x268;" horiz-adv-x="528" 
d="M174 508h-154v145h154v445h180v-445h154v-145h-154v-508h-180v508zM160 1395q0 57 29.5 85.5t76.5 28.5q45 0 75 -28.5t30 -85.5t-30 -86t-75 -29q-47 0 -76.5 29t-29.5 86z" />
    <glyph glyph-name="uni0269" unicode="&#x269;" horiz-adv-x="708" 
d="M168 1098h178v-774q0 -99 38.5 -148t119.5 -49q88 0 168 23v-138q-69 -32 -193 -32q-71 0 -125 16t-97.5 54t-66 106t-22.5 166v776z" />
    <glyph glyph-name="uni026A" unicode="&#x26a;" horiz-adv-x="655" 
d="M582 0h-508v106l164 35v813l-164 37v107h508v-107l-164 -37v-813l164 -35v-106z" />
    <glyph glyph-name="uni026B" unicode="&#x26b;" horiz-adv-x="774" 
d="M10 657q12 123 71 193t155 70q19 0 61 -11v647h180v-735q45 -18 72 -18q46 0 72.5 29t40.5 90h102q-12 -121 -70 -192t-153 -71q-22 0 -64 11v-670h-180v758q-45 18 -70 18q-48 0 -73 -28.5t-39 -90.5h-105z" />
    <glyph glyph-name="uni026C" unicode="&#x26c;" horiz-adv-x="716" 
d="M217 608q-122 0 -179.5 58t-57.5 157q0 89 53.5 151t165.5 62q64 0 104 -37v557h180v-800h213v-148h-213v-608h-180v608h-86zM143 823q0 -67 88 -67h72v22q0 111 -88 111q-36 0 -54 -19.5t-18 -46.5z" />
    <glyph glyph-name="uni026D" unicode="&#x26d;" horiz-adv-x="526" 
d="M485 -492q-71 0 -125 16t-97.5 54t-66 106t-22.5 166v1706h178v-1703q0 -100 37.5 -148.5t120.5 -48.5q84 0 139 22v-137q-71 -33 -164 -33z" />
    <glyph glyph-name="uni026E" unicode="&#x26e;" horiz-adv-x="1345" 
d="M354 0h-180v1556h180v-458h867v-131l-449 -500q238 -14 371 -131t133 -334q0 -220 -148.5 -357t-394.5 -137q-244 0 -379 72v164q180 -86 387 -86q160 0 257.5 91.5t97.5 248.5q0 166 -110 246t-304 80h-121v125l449 497h-656v-946z" />
    <glyph glyph-name="uni026F" unicode="&#x26f;" horiz-adv-x="1914" 
d="M166 383v715h178v-707q0 -260 223 -260q156 0 226.5 90t70.5 271v606h178v-707q0 -260 226 -260q160 0 226.5 98t66.5 299v570h180v-1098h-146l-26 150h-10q-49 -84 -135.5 -127t-188.5 -43q-260 0 -336 184h-10q-54 -91 -146.5 -137.5t-205.5 -46.5q-188 0 -279.5 97
t-91.5 306z" />
    <glyph glyph-name="uni0270" unicode="&#x270;" horiz-adv-x="1914" 
d="M166 383v715h178v-707q0 -260 223 -260q156 0 226.5 90t70.5 271v606h178v-707q0 -260 226 -260q160 0 226.5 98t66.5 299v570h180v-1590h-180v480q0 92 12 162h-14q-49 -84 -135.5 -127t-188.5 -43q-260 0 -336 184h-10q-54 -91 -148 -137.5t-204 -46.5
q-188 0 -279.5 97t-91.5 306z" />
    <glyph glyph-name="uni0271" unicode="&#x271;" horiz-adv-x="1914" 
d="M174 1098h145l27 -150h10q49 84 135.5 127t188.5 43q260 0 336 -184h10q54 91 146.5 137.5t205.5 46.5q188 0 279.5 -97t91.5 -306v-920q0 -287 -248 -287q-81 0 -133 27v150q47 -21 107 -21q96 0 96 119v924q0 260 -223 260q-156 0 -226.5 -90t-70.5 -271v-606h-179v707
q0 260 -225 260q-160 0 -226.5 -98.5t-66.5 -299.5v-569h-180v1098z" />
    <glyph glyph-name="uni0272" unicode="&#x272;" horiz-adv-x="1265" 
d="M702 1118q199 0 298.5 -97.5t99.5 -305.5v-715h-178v702q0 265 -246 265q-176 0 -249 -98.5t-73 -299.5v-719q0 -342 -270 -342q-86 0 -143 33v137q51 -22 106 -22q67 0 97 40.5t30 156.5v1245h145l27 -150h10q52 83 144.5 126.5t201.5 43.5z" />
    <glyph glyph-name="uni0273" unicode="&#x273;" horiz-adv-x="1265" 
d="M1100 715v-862q0 -115 29.5 -156t95.5 -41q57 0 108 22v-137q-57 -33 -143 -33q-268 0 -268 342v852q0 265 -246 265q-176 0 -249 -98.5t-73 -299.5v-569h-180v1098h145l27 -150h10q52 83 144.5 126.5t201.5 43.5q199 0 298.5 -97.5t99.5 -305.5z" />
    <glyph glyph-name="uni0274" unicode="&#x274;" horiz-adv-x="1294" 
d="M174 0v1098h221l568 -885q-13 172 -13 250v635h170v-1098h-223l-561 883q8 -98 8 -271v-612h-170z" />
    <glyph glyph-name="uni0275" unicode="&#x275;" horiz-adv-x="1239" 
d="M1128 551q0 -273 -137 -422t-375 -149q-223 0 -363 152t-140 419q0 270 135.5 418.5t374.5 148.5q226 0 365.5 -150.5t139.5 -416.5zM618 967q-150 0 -226.5 -82t-90.5 -246h639q-27 328 -322 328zM621 129q155 0 231.5 89.5t87.5 270.5h-641q15 -360 322 -360z" />
    <glyph glyph-name="uni0276" unicode="&#x276;" horiz-adv-x="1769" 
d="M113 551q0 270 135.5 418.5t374.5 148.5q192 0 319 -133v113h721v-150h-551v-301h518v-149h-518v-348h551v-150h-721v111q-128 -131 -326 -131q-223 0 -363 152t-140 419zM299 551q0 -201 79.5 -311.5t242.5 -110.5q162 0 241.5 110.5t79.5 311.5q0 200 -80 308t-244 108
q-143 0 -231 -112t-88 -304z" />
    <glyph glyph-name="uni0277" unicode="&#x277;" horiz-adv-x="1601" 
d="M805 1118q325 0 503.5 -174.5t178.5 -478.5q0 -221 -101 -352q-103 -133 -290 -133q-221 0 -291 184h-10q-64 -184 -289 -184q-188 0 -291 133q-100 129 -100 352q0 304 176.5 478.5t513.5 174.5zM805 969q-245 0 -377.5 -132t-132.5 -368q0 -164 60.5 -252t162.5 -88
q96 0 146.5 73t50.5 193v269h172v-269q0 -127 51 -196.5t143 -69.5q105 0 165.5 88t60.5 252q0 237 -129 368.5t-373 131.5z" />
    <glyph glyph-name="uni0278" unicode="&#x278;" horiz-adv-x="1484" 
d="M111 549q0 250 144 397.5t404 167.5v442h170v-442q250 -25 396.5 -173t146.5 -392q0 -249 -144 -397t-399 -168v-476h-176v476q-249 22 -395.5 170.5t-146.5 394.5zM659 965q-186 -18 -273 -122.5t-87 -293.5q0 -190 87 -295t273 -123v834zM829 963v-832q357 39 357 418
q0 374 -357 414z" />
    <glyph glyph-name="uni0279" unicode="&#x279;" horiz-adv-x="845" 
d="M160 -20q-70 0 -129 12l22 166q66 -15 119 -15q131 0 225.5 103.5t94.5 265.5v586h180v-1098h-148l-20 201h-8q-55 -99 -141 -160t-195 -61z" />
    <glyph glyph-name="uni027A" unicode="&#x27a;" horiz-adv-x="845" 
d="M160 -20q-76 0 -129 12l22 166q66 -15 119 -15q133 0 226.5 103.5t93.5 265.5v1044h180v-1556h-148l-20 201h-8q-132 -221 -336 -221z" />
    <glyph glyph-name="uni027B" unicode="&#x27b;" horiz-adv-x="845" 
d="M160 -20q-76 0 -129 12l22 166q66 -15 119 -15q133 0 226.5 103.5t93.5 265.5v586h180v-1245q0 -115 27.5 -156t88.5 -41q66 0 117 22v-137q-50 -33 -157 -33q-256 0 -256 342v189q0 92 12 162h-8q-1 -1 -2 -3t-2 -3q-130 -215 -332 -215z" />
    <glyph glyph-name="uni027C" unicode="&#x27c;" horiz-adv-x="845" 
d="M686 1118q70 0 129 -12l-22 -166q-61 14 -119 14q-131 0 -225.5 -103.5t-94.5 -264.5v-1078h-180v1590h148l20 -201h8q55 99 141 160t195 61z" />
    <glyph glyph-name="uni027D" unicode="&#x27d;" horiz-adv-x="845" 
d="M686 1118q70 0 129 -12l-22 -166q-61 14 -119 14q-131 0 -225.5 -103.5t-94.5 -264.5v-733q0 -101 36.5 -149t119.5 -48q70 0 125 22v-137q-71 -33 -150 -33q-71 0 -125 16t-97.5 54t-66 106t-22.5 166v1248h148l20 -201h8q55 99 141 160t195 61z" />
    <glyph glyph-name="uni027E" unicode="&#x27e;" horiz-adv-x="708" 
d="M496 1118q75 0 176 -33l-23 -153q-2 1 -27.5 8.5t-39 11t-40.5 7.5t-53 4q-73 0 -108 -46t-35 -143v-774h-178v776q0 98 23 166t68 106t102 54t135 16z" />
    <glyph glyph-name="uni027F" unicode="&#x27f;" horiz-adv-x="708" 
d="M213 1118q78 0 135 -16t102 -54t68 -106t23 -166v-1268h-179v1266q0 97 -35 143t-108 46q-26 0 -53 -4t-40.5 -7.5t-39 -11t-27.5 -8.5l-22 153q101 33 176 33z" />
    <glyph glyph-name="uni0280" unicode="&#x280;" horiz-adv-x="1144" 
d="M174 1098h492q179 0 284 -85.5t105 -238.5q0 -70 -21 -126.5t-58.5 -93t-81 -59t-95.5 -34.5l313 -461h-209l-282 436h-267v-436h-180v1098zM354 948v-362h258q269 0 269 186q0 80 -56.5 128t-177.5 48h-293z" />
    <glyph glyph-name="uni0281" unicode="&#x281;" horiz-adv-x="1144" 
d="M666 0h-492v1098h180v-436h267l282 436h209l-313 -461q52 -12 95.5 -34.5t81 -59t58.5 -93t21 -126.5q0 -153 -105 -238.5t-284 -85.5zM354 512v-362h293q121 0 177.5 48t56.5 128q0 186 -269 186h-258z" />
    <glyph glyph-name="uni0282" unicode="&#x282;" horiz-adv-x="980" 
d="M889 303q0 -157 -116.5 -240t-321.5 -83q-93 0 -164 12v-139q0 -100 37 -148.5t118 -48.5q70 0 125 22v-137q-72 -33 -149 -33q-71 0 -125 16t-97.5 54t-66.5 106t-23 166v363q180 -88 349 -88q132 0 196 43t64 119q0 63 -55.5 108t-215.5 105q-73 28 -118.5 48.5
t-92 49.5t-72 60t-41.5 73.5t-16 95.5q0 137 112 214t300 77q178 0 350 -74l-61 -143q-165 70 -301 70q-109 0 -168.5 -35.5t-59.5 -97.5q0 -66 58 -106.5t225 -102.5q87 -32 141.5 -59.5t100.5 -65.5t67 -87t21 -114z" />
    <glyph glyph-name="uni0283" unicode="&#x283;" horiz-adv-x="528" 
d="M444 1567q87 0 144 -33v-137q-51 22 -107 22q-45 0 -71 -15t-41 -58.5t-15 -122.5v-1373q0 -342 -270 -342q-86 0 -143 33v137q51 -22 106 -22q67 0 97 40.5t30 156.5v1372q0 342 270 342z" />
    <glyph glyph-name="uni0284" unicode="&#x284;" horiz-adv-x="528" 
d="M84 -492q-86 0 -143 33v137q51 -22 106 -22q67 0 97 40.5t30 156.5v655h-154v145h154v572q0 342 270 342q87 0 144 -33v-137q-51 22 -107 22q-45 0 -71 -15t-41 -58.5t-15 -122.5v-570h154v-145h-154v-658q0 -342 -270 -342z" />
    <glyph glyph-name="uni0285" unicode="&#x285;" horiz-adv-x="528" 
d="M444 -492q-270 0 -270 342v938q0 98 -27 140.5t-84 42.5q-39 0 -92 -23v137q50 33 133 33q250 0 250 -321v-944q0 -116 30 -156.5t97 -40.5q56 0 107 22v-137q-57 -33 -144 -33z" />
    <glyph glyph-name="uni0286" unicode="&#x286;" horiz-adv-x="528" 
d="M68 -492q-130 0 -211.5 68t-81.5 174q0 118 72.5 184t224.5 66h102v1225q0 342 270 342q87 0 144 -33v-137q-51 22 -107 22q-45 0 -71 -15t-41 -58.5t-15 -122.5v-1223h154v-147h-154q-5 -345 -286 -345zM-55 -246q0 -98 108 -98q121 0 121 166v31h-90q-139 0 -139 -99z
" />
    <glyph glyph-name="uni0287" unicode="&#x287;" horiz-adv-x="739" 
d="M199 971q-97 0 -154 -23v137q30 14 82.5 23.5t101.5 9.5q68 0 123 -16.5t101.5 -53.5t72 -105.5t25.5 -164.5v-639h156v-86l-158 -71l-72 -234h-106v252h-318v139h318v635q0 96 -47 146.5t-125 50.5z" />
    <glyph glyph-name="uni0288" unicode="&#x288;" horiz-adv-x="739" 
d="M188 958h-155v86l157 72l72 234h107v-252h317v-140h-317v-1105q0 -96 47 -146.5t125 -50.5q98 0 153 22v-137q-30 -14 -82.5 -23.5t-101.5 -9.5q-68 0 -123 16.5t-101.5 53.5t-72 105.5t-25.5 164.5v1110z" />
    <glyph glyph-name="uni0289" unicode="&#x289;" horiz-adv-x="1265" 
d="M20 664h142v434h182v-434h567v434h181v-434h153v-146h-153v-518h-148l-26 145h-9q-52 -83 -144.5 -124t-203.5 -41q-201 0 -300 96.5t-99 302.5v139h-142v146zM344 391q0 -262 244 -262q176 0 249.5 97t73.5 292h-567v-127z" />
    <glyph glyph-name="uni028A" unicode="&#x28a;" horiz-adv-x="1239" 
d="M61 948v150h484v-142q-3 -1 -8.5 -4t-8.5 -4q-100 -53 -164.5 -172t-64.5 -280q0 -171 80 -269t242 -98q160 0 240.5 99t80.5 270q0 144 -68 272.5t-161 177.5q-3 1 -9.5 4t-9.5 4v142h484v-150h-267q217 -175 217 -450q0 -243 -138 -380.5t-374 -137.5
q-221 0 -362 140.5t-141 375.5q0 288 215 452h-267z" />
    <glyph glyph-name="uni028B" unicode="&#x28b;" horiz-adv-x="1255" 
d="M786 1118q74 0 128 -15.5t96.5 -52.5t64 -104.5t21.5 -165.5v-305q0 -249 -114.5 -372t-350.5 -123q-241 0 -353 119t-112 376v623h180v-617q0 -194 67 -273t218 -79q150 0 217 80t67 272v293q0 110 -30.5 149.5t-110.5 39.5q-58 0 -117 -19v154q70 20 129 20z" />
    <glyph glyph-name="uni028C" unicode="&#x28c;" horiz-adv-x="1040" 
d="M418 1098h207l415 -1098h-192l-234 647q-66 177 -88 291h-8q-14 -76 -92 -291l-233 -647h-193z" />
    <glyph glyph-name="uni028D" unicode="&#x28d;" horiz-adv-x="1609" 
d="M23 -2l305 1098h211l188 -619q61 -197 76 -291h8q22 141 74 293l196 617h205l301 -1098h-186l-152 586q-57 215 -71 327h-9q-30 -164 -73 -295l-195 -618h-196l-189 618q-67 237 -74 293h-8q-9 -81 -74 -325l-153 -586h-184z" />
    <glyph glyph-name="uni028E" unicode="&#x28e;" horiz-adv-x="1044" 
d="M195 0h-195l473 1249q65 168 156.5 254t242.5 86q80 0 150 -16v-143q-62 12 -121 12q-166 0 -244 -195l-57 -145l442 -1102h-192l-238 625q-76 210 -92 299h-8q-21 -90 -94 -301z" />
    <glyph glyph-name="uni028F" unicode="&#x28f;" horiz-adv-x="970" 
d="M397 453l-397 645h205l282 -496l281 496h203l-393 -645v-453h-181v453z" />
    <glyph glyph-name="uni0290" unicode="&#x290;" horiz-adv-x="962" 
d="M973 -492q-260 0 -260 342v150h-633v119l590 839h-555v140h753v-135l-581 -824h596v-286q0 -115 29.5 -156t95.5 -41q57 0 108 22v-137q-57 -33 -143 -33z" />
    <glyph glyph-name="uni0291" unicode="&#x291;" horiz-adv-x="1110" 
d="M80 0v119l590 839h-555v140h753v-135l-581 -824h170q87 171 177 248.5t214 77.5q104 0 173 -62.5t69 -150.5q0 -252 -338 -252h-199q-34 -70 -74 -178l-137 57q6 17 49 121h-311zM621 139h141q158 0 158 109q0 32 -23.5 55t-65.5 23q-55 0 -105.5 -45t-104.5 -142z" />
    <glyph glyph-name="uni0292" unicode="&#x292;" horiz-adv-x="1019" 
d="M57 1098h838v-131l-449 -500q106 -6 196.5 -38t160 -88.5t108.5 -143.5t39 -195q0 -220 -147.5 -357t-394.5 -137q-244 0 -379 72v164q180 -86 387 -86q160 0 257 91.5t97 248.5q0 166 -110 246t-304 80h-120v125l448 497h-627v152z" />
    <glyph glyph-name="uni0293" unicode="&#x293;" horiz-adv-x="1019" 
d="M354 -492q-74 0 -142 17t-125.5 50.5t-92.5 91.5t-35 132q0 112 91.5 181t248.5 69q237 0 457 -149q14 54 14 98q0 166 -110 246t-304 80h-120v125l448 497h-627v152h838v-131l-449 -500q106 -6 196.5 -38t160 -88.5t108.5 -143.5t39 -195q0 -115 -51 -217
q74 -71 156 -166l-117 -111q-79 89 -141 148q-167 -148 -443 -148zM354 -342q201 0 316 106q-183 136 -367 136q-89 0 -131.5 -30.5t-42.5 -74.5q0 -62 62.5 -99.5t162.5 -37.5z" />
    <glyph glyph-name="uni0294" unicode="&#x294;" horiz-adv-x="872" 
d="M391 1567q208 0 318 -103t110 -288q0 -72 -20.5 -141.5t-64 -139.5t-120 -133.5t-180.5 -112.5v-649h-180v743q181 57 281 168.5t100 257.5q0 248 -252 248q-73 0 -151.5 -26.5t-139.5 -73.5l-67 135q162 115 366 115z" />
    <glyph glyph-name="uni0295" unicode="&#x295;" horiz-adv-x="872" 
d="M481 1567q205 0 367 -115l-68 -135q-61 47 -139.5 73.5t-151.5 26.5q-251 0 -251 -248q0 -146 100 -257.5t280 -168.5v-743h-180v649q-104 49 -180.5 112.5t-120 133.5t-64 139.5t-20.5 141.5q0 185 110 288t318 103z" />
    <glyph glyph-name="uni0296" unicode="&#x296;" horiz-adv-x="872" 
d="M391 -20q-214 0 -366 114l67 135q63 -45 141.5 -72.5t149.5 -27.5q252 0 252 248q0 143 -101 256t-280 170v753h180v-659q104 -47 180.5 -111t120 -134t64 -139.5t20.5 -141.5q0 -185 -110 -288t-318 -103z" />
    <glyph glyph-name="uni0297" unicode="&#x297;" horiz-adv-x="960" 
d="M614 -489q-254 0 -377.5 194t-123.5 600q0 131 14 241t38.5 193t61 147.5t79.5 108t95.5 71.5t108 40t117.5 12q79 0 158 -16.5t130 -42.5l-55 -150q-137 52 -237 52q-105 0 -175.5 -64t-109.5 -210.5t-39 -377.5q0 -236 37 -380t104 -203.5t172 -59.5q146 0 285 64v-160
q-112 -59 -283 -59z" />
    <glyph glyph-name="uni0298" unicode="&#x298;" horiz-adv-x="1599" 
d="M1475 733q0 -228 -76.5 -396.5t-229.5 -262.5t-368 -94q-169 0 -298 53.5t-211.5 153.5t-124.5 238t-42 310q0 169 42 305.5t124.5 236.5t212.5 154t299 54q215 0 367.5 -93.5t228.5 -261.5t76 -397zM319 733q0 -284 120 -439t362 -155t360.5 155t118.5 439t-117.5 437
t-359.5 153q-245 0 -364.5 -153t-119.5 -437zM674 723q0 71 34.5 104t90.5 33t92.5 -33.5t36.5 -103.5q0 -69 -37 -104t-92 -35t-90 34.5t-35 104.5z" />
    <glyph glyph-name="uni0299" unicode="&#x299;" horiz-adv-x="1179" 
d="M647 0h-473v1098h471q412 0 412 -277q0 -98 -58.5 -157t-160.5 -80v-9q111 -15 182.5 -76.5t71.5 -176.5q0 -148 -109 -235t-336 -87zM354 145h273q139 0 208.5 41.5t69.5 135.5q0 92 -70 134t-212 42h-269v-353zM354 647h248q272 0 272 152q0 78 -56 113.5t-183 35.5
h-281v-301z" />
    <glyph glyph-name="uni029A" unicode="&#x29a;" horiz-adv-x="1228" 
d="M565 1118q264 0 407.5 -148.5t143.5 -418.5q0 -260 -135 -416q-137 -155 -410 -155q-246 0 -362 94q-117 92 -117 229q0 206 244 275v8q-207 58 -207 243q0 136 117 212.5t319 76.5zM569 967q-268 0 -268 -154q0 -168 311 -168h58v-147h-86q-314 0 -314 -185
q0 -102 86 -143q84 -41 211 -41q188 0 275.5 103.5t87.5 318.5q0 416 -361 416z" />
    </font>
</defs>
</svg>
