<svg viewBox="0 0 36 36" focusable="false" style="pointer-events: none; display: block;">
  <path fill="#0178B5" d="M36 18c0 9.94-8.06 18-18 18S0 27.94 0 18 8.06 0 18 0s18 8.06 18 18"></path>
  <path fill="#FFF" d="M14.862 13.437c0 .8-.65 1.45-1.45 1.45s-1.45-.65-1.45-1.45c0-.802.65-1.45 1.45-1.45s1.45.648 1.45 1.45"></path>
  <path clip-path="url(#SVGID_2_)" fill="#FFF" d="M12.148 15.98h2.506v8.034h-2.506z"></path>
  <path fill="#FFF" d="M16.224 24.014h2.494V19.87s-.093-1.876 1.406-1.876 1.395 1.417 1.395 1.885v4.133h2.517v-4.355s.152-3.163-1.698-3.678-3.07.082-3.714 1.136V15.98h-2.4v8.034z"></path>
</svg>
