<?xml version="1.0" encoding="utf-8"?>
<!-- Generator: Adobe Illustrator 24.2.1, SVG Export Plug-In . SVG Version: 6.00 Build 0)  -->
<svg version="1.1" id="Layer_1" xmlns="http://www.w3.org/2000/svg" xmlns:xlink="http://www.w3.org/1999/xlink" x="0px" y="0px"
	 viewBox="0 0 15 15" style="enable-background:new 0 0 15 15;" xml:space="preserve">
<style type="text/css">
	.st0{fill:#FCC43B;}
</style>
<path class="st0" d="M9.8,7.5l2.8-2.8c0.5-0.5,0.5-1.4,0-2l-0.3-0.3c-0.5-0.5-1.4-0.5-2,0L7.5,5.2L4.7,2.4c-0.5-0.5-1.4-0.5-2,0
	L2.4,2.7c-0.5,0.5-0.5,1.4,0,2l2.8,2.8l-2.8,2.8c-0.5,0.5-0.5,1.4,0,2l0.3,0.3c0.5,0.5,1.4,0.5,2,0l2.8-2.8l2.8,2.8
	c0.5,0.5,1.4,0.5,2,0l0.3-0.3c0.5-0.5,0.5-1.4,0-2L9.8,7.5z"/>
</svg>
